G04 #@! TF.GenerationSoftware,KiCad,Pcbnew,(5.1.12)-1*
G04 #@! TF.CreationDate,2021-12-21T10:19:35+01:00*
G04 #@! TF.ProjectId,Transmitter,5472616e-736d-4697-9474-65722e6b6963,rev?*
G04 #@! TF.SameCoordinates,Original*
G04 #@! TF.FileFunction,Copper,L2,Bot*
G04 #@! TF.FilePolarity,Positive*
%FSLAX46Y46*%
G04 Gerber Fmt 4.6, Leading zero omitted, Abs format (unit mm)*
G04 Created by KiCad (PCBNEW (5.1.12)-1) date 2021-12-21 10:19:35*
%MOMM*%
%LPD*%
G01*
G04 APERTURE LIST*
G04 #@! TA.AperFunction,ComponentPad*
%ADD10R,2.514000X3.200000*%
G04 #@! TD*
G04 #@! TA.AperFunction,ComponentPad*
%ADD11C,0.100000*%
G04 #@! TD*
G04 #@! TA.AperFunction,ComponentPad*
%ADD12C,3.000000*%
G04 #@! TD*
G04 #@! TA.AperFunction,ComponentPad*
%ADD13O,1.700000X1.700000*%
G04 #@! TD*
G04 #@! TA.AperFunction,ComponentPad*
%ADD14R,1.700000X1.700000*%
G04 #@! TD*
G04 #@! TA.AperFunction,ViaPad*
%ADD15C,0.800000*%
G04 #@! TD*
G04 #@! TA.AperFunction,Conductor*
%ADD16C,0.250000*%
G04 #@! TD*
G04 #@! TA.AperFunction,Conductor*
%ADD17C,0.500000*%
G04 #@! TD*
G04 #@! TA.AperFunction,Conductor*
%ADD18C,0.254000*%
G04 #@! TD*
G04 #@! TA.AperFunction,Conductor*
%ADD19C,0.100000*%
G04 #@! TD*
G04 APERTURE END LIST*
D10*
X143030499Y-89900000D03*
G04 #@! TA.AperFunction,ComponentPad*
D11*
G36*
X135681000Y-72717000D02*
G01*
X135681000Y-70717000D01*
X135682205Y-70717000D01*
X135682205Y-70667932D01*
X135691823Y-70570270D01*
X135710969Y-70474020D01*
X135739456Y-70380110D01*
X135777011Y-70289445D01*
X135823271Y-70202897D01*
X135877792Y-70121301D01*
X135940049Y-70045441D01*
X136009441Y-69976049D01*
X136085301Y-69913792D01*
X136166897Y-69859271D01*
X136253445Y-69813011D01*
X136344110Y-69775456D01*
X136438020Y-69746969D01*
X136534270Y-69727823D01*
X136631932Y-69718205D01*
X136730068Y-69718205D01*
X136827730Y-69727823D01*
X136923980Y-69746969D01*
X137017890Y-69775456D01*
X137108555Y-69813011D01*
X137195103Y-69859271D01*
X137276699Y-69913792D01*
X137352559Y-69976049D01*
X137421951Y-70045441D01*
X137484208Y-70121301D01*
X137538729Y-70202897D01*
X137584989Y-70289445D01*
X137622544Y-70380110D01*
X137651031Y-70474020D01*
X137670177Y-70570270D01*
X137679795Y-70667932D01*
X137679795Y-70717000D01*
X137681000Y-70717000D01*
X137681000Y-72717000D01*
X135681000Y-72717000D01*
G37*
G04 #@! TD.AperFunction*
G04 #@! TA.AperFunction,ComponentPad*
G36*
X138221000Y-72717000D02*
G01*
X138221000Y-70717000D01*
X138222205Y-70717000D01*
X138222205Y-70667932D01*
X138231823Y-70570270D01*
X138250969Y-70474020D01*
X138279456Y-70380110D01*
X138317011Y-70289445D01*
X138363271Y-70202897D01*
X138417792Y-70121301D01*
X138480049Y-70045441D01*
X138549441Y-69976049D01*
X138625301Y-69913792D01*
X138706897Y-69859271D01*
X138793445Y-69813011D01*
X138884110Y-69775456D01*
X138978020Y-69746969D01*
X139074270Y-69727823D01*
X139171932Y-69718205D01*
X139270068Y-69718205D01*
X139367730Y-69727823D01*
X139463980Y-69746969D01*
X139557890Y-69775456D01*
X139648555Y-69813011D01*
X139735103Y-69859271D01*
X139816699Y-69913792D01*
X139892559Y-69976049D01*
X139961951Y-70045441D01*
X140024208Y-70121301D01*
X140078729Y-70202897D01*
X140124989Y-70289445D01*
X140162544Y-70380110D01*
X140191031Y-70474020D01*
X140210177Y-70570270D01*
X140219795Y-70667932D01*
X140219795Y-70717000D01*
X140221000Y-70717000D01*
X140221000Y-72717000D01*
X138221000Y-72717000D01*
G37*
G04 #@! TD.AperFunction*
G04 #@! TA.AperFunction,ComponentPad*
G36*
X140761000Y-72717000D02*
G01*
X140761000Y-70717000D01*
X140762205Y-70717000D01*
X140762205Y-70667932D01*
X140771823Y-70570270D01*
X140790969Y-70474020D01*
X140819456Y-70380110D01*
X140857011Y-70289445D01*
X140903271Y-70202897D01*
X140957792Y-70121301D01*
X141020049Y-70045441D01*
X141089441Y-69976049D01*
X141165301Y-69913792D01*
X141246897Y-69859271D01*
X141333445Y-69813011D01*
X141424110Y-69775456D01*
X141518020Y-69746969D01*
X141614270Y-69727823D01*
X141711932Y-69718205D01*
X141810068Y-69718205D01*
X141907730Y-69727823D01*
X142003980Y-69746969D01*
X142097890Y-69775456D01*
X142188555Y-69813011D01*
X142275103Y-69859271D01*
X142356699Y-69913792D01*
X142432559Y-69976049D01*
X142501951Y-70045441D01*
X142564208Y-70121301D01*
X142618729Y-70202897D01*
X142664989Y-70289445D01*
X142702544Y-70380110D01*
X142731031Y-70474020D01*
X142750177Y-70570270D01*
X142759795Y-70667932D01*
X142759795Y-70717000D01*
X142761000Y-70717000D01*
X142761000Y-72717000D01*
X140761000Y-72717000D01*
G37*
G04 #@! TD.AperFunction*
G04 #@! TA.AperFunction,ComponentPad*
G36*
X143301000Y-72717000D02*
G01*
X143301000Y-70717000D01*
X143302205Y-70717000D01*
X143302205Y-70667932D01*
X143311823Y-70570270D01*
X143330969Y-70474020D01*
X143359456Y-70380110D01*
X143397011Y-70289445D01*
X143443271Y-70202897D01*
X143497792Y-70121301D01*
X143560049Y-70045441D01*
X143629441Y-69976049D01*
X143705301Y-69913792D01*
X143786897Y-69859271D01*
X143873445Y-69813011D01*
X143964110Y-69775456D01*
X144058020Y-69746969D01*
X144154270Y-69727823D01*
X144251932Y-69718205D01*
X144350068Y-69718205D01*
X144447730Y-69727823D01*
X144543980Y-69746969D01*
X144637890Y-69775456D01*
X144728555Y-69813011D01*
X144815103Y-69859271D01*
X144896699Y-69913792D01*
X144972559Y-69976049D01*
X145041951Y-70045441D01*
X145104208Y-70121301D01*
X145158729Y-70202897D01*
X145204989Y-70289445D01*
X145242544Y-70380110D01*
X145271031Y-70474020D01*
X145290177Y-70570270D01*
X145299795Y-70667932D01*
X145299795Y-70717000D01*
X145301000Y-70717000D01*
X145301000Y-72717000D01*
X143301000Y-72717000D01*
G37*
G04 #@! TD.AperFunction*
G04 #@! TA.AperFunction,ComponentPad*
G36*
X145841000Y-72717000D02*
G01*
X145841000Y-70717000D01*
X145842205Y-70717000D01*
X145842205Y-70667932D01*
X145851823Y-70570270D01*
X145870969Y-70474020D01*
X145899456Y-70380110D01*
X145937011Y-70289445D01*
X145983271Y-70202897D01*
X146037792Y-70121301D01*
X146100049Y-70045441D01*
X146169441Y-69976049D01*
X146245301Y-69913792D01*
X146326897Y-69859271D01*
X146413445Y-69813011D01*
X146504110Y-69775456D01*
X146598020Y-69746969D01*
X146694270Y-69727823D01*
X146791932Y-69718205D01*
X146890068Y-69718205D01*
X146987730Y-69727823D01*
X147083980Y-69746969D01*
X147177890Y-69775456D01*
X147268555Y-69813011D01*
X147355103Y-69859271D01*
X147436699Y-69913792D01*
X147512559Y-69976049D01*
X147581951Y-70045441D01*
X147644208Y-70121301D01*
X147698729Y-70202897D01*
X147744989Y-70289445D01*
X147782544Y-70380110D01*
X147811031Y-70474020D01*
X147830177Y-70570270D01*
X147839795Y-70667932D01*
X147839795Y-70717000D01*
X147841000Y-70717000D01*
X147841000Y-72717000D01*
X145841000Y-72717000D01*
G37*
G04 #@! TD.AperFunction*
G04 #@! TA.AperFunction,ComponentPad*
G36*
X148381000Y-72717000D02*
G01*
X148381000Y-70717000D01*
X148382205Y-70717000D01*
X148382205Y-70667932D01*
X148391823Y-70570270D01*
X148410969Y-70474020D01*
X148439456Y-70380110D01*
X148477011Y-70289445D01*
X148523271Y-70202897D01*
X148577792Y-70121301D01*
X148640049Y-70045441D01*
X148709441Y-69976049D01*
X148785301Y-69913792D01*
X148866897Y-69859271D01*
X148953445Y-69813011D01*
X149044110Y-69775456D01*
X149138020Y-69746969D01*
X149234270Y-69727823D01*
X149331932Y-69718205D01*
X149430068Y-69718205D01*
X149527730Y-69727823D01*
X149623980Y-69746969D01*
X149717890Y-69775456D01*
X149808555Y-69813011D01*
X149895103Y-69859271D01*
X149976699Y-69913792D01*
X150052559Y-69976049D01*
X150121951Y-70045441D01*
X150184208Y-70121301D01*
X150238729Y-70202897D01*
X150284989Y-70289445D01*
X150322544Y-70380110D01*
X150351031Y-70474020D01*
X150370177Y-70570270D01*
X150379795Y-70667932D01*
X150379795Y-70717000D01*
X150381000Y-70717000D01*
X150381000Y-72717000D01*
X148381000Y-72717000D01*
G37*
G04 #@! TD.AperFunction*
D12*
X132950000Y-88000000D03*
X153000000Y-88000000D03*
D13*
X149500000Y-121300000D03*
X146960000Y-121300000D03*
X144420000Y-121300000D03*
X141880000Y-121300000D03*
X139340000Y-121300000D03*
D14*
X136800000Y-121300000D03*
D15*
X146800000Y-110250000D03*
X149350000Y-101650000D03*
X150800000Y-95700000D03*
X151800000Y-79150000D03*
X151550000Y-119000000D03*
X141450000Y-113400000D03*
X143050000Y-117950000D03*
X144400000Y-112350000D03*
X137775000Y-114525000D03*
X139400000Y-110500000D03*
X133600000Y-105550000D03*
X139125000Y-105600000D03*
X141875000Y-105550000D03*
X145700000Y-105100000D03*
X140550000Y-103100000D03*
X132475000Y-100575000D03*
X139225000Y-99850000D03*
X146875000Y-100400000D03*
X133650000Y-95925000D03*
X148650000Y-91175000D03*
X153500000Y-95900000D03*
X149900000Y-82325000D03*
X149100000Y-114600000D03*
X133400000Y-124800000D03*
X153000000Y-122900000D03*
X154000000Y-85200000D03*
X132100000Y-82500000D03*
X138300000Y-119000000D03*
X147000000Y-78000000D03*
X147350000Y-88000000D03*
X138000000Y-95800000D03*
X137600000Y-110900000D03*
X145124253Y-106450000D03*
X141750000Y-96300000D03*
X147600000Y-90600000D03*
X134200000Y-118550000D03*
X142000000Y-108500010D03*
X138000000Y-86900000D03*
X144800000Y-83104990D03*
X136550000Y-90850000D03*
X136225000Y-106625000D03*
X136225000Y-102125000D03*
X138850000Y-97800000D03*
X143250000Y-102200000D03*
X133300000Y-115550000D03*
X137100000Y-115550000D03*
D16*
X142050000Y-106450000D02*
X145124253Y-106450000D01*
X137600000Y-110900000D02*
X142050000Y-106450000D01*
D17*
X141850000Y-96300000D02*
X141750000Y-96300000D01*
X147450000Y-90600000D02*
X147600000Y-90600000D01*
X141750000Y-96300000D02*
X147450000Y-90600000D01*
X138100001Y-122600001D02*
X150099999Y-122600001D01*
X155024990Y-117275010D02*
X155024990Y-74274990D01*
X150099999Y-122600001D02*
X155024990Y-117675010D01*
X155024990Y-117675010D02*
X155024990Y-117275010D01*
X143206195Y-69271805D02*
X141761000Y-70717000D01*
X155024990Y-74274990D02*
X150021805Y-69271805D01*
X150021805Y-69271805D02*
X143206195Y-69271805D01*
X136800000Y-121300000D02*
X138100001Y-122600001D01*
D16*
X135023002Y-118700000D02*
X142000000Y-111723002D01*
X134200000Y-118700000D02*
X135023002Y-118700000D01*
X142000000Y-108500010D02*
X142000000Y-111723002D01*
X141795010Y-83104990D02*
X144800000Y-83104990D01*
X138000000Y-86900000D02*
X141795010Y-83104990D01*
X136225000Y-91175000D02*
X136550000Y-90850000D01*
X136225000Y-102125000D02*
X136225000Y-91175000D01*
X136225000Y-106625000D02*
X136225000Y-102125000D01*
X138850000Y-97800000D02*
X143250000Y-102200000D01*
X133300000Y-115550000D02*
X137100000Y-115550000D01*
D18*
X154393991Y-86733856D02*
X154199067Y-86538932D01*
X153890987Y-86333080D01*
X153548667Y-86191286D01*
X153185262Y-86119000D01*
X152814738Y-86119000D01*
X152451333Y-86191286D01*
X152109013Y-86333080D01*
X151800933Y-86538932D01*
X151538932Y-86800933D01*
X151333080Y-87109013D01*
X151191286Y-87451333D01*
X151119000Y-87814738D01*
X151119000Y-88185262D01*
X151191286Y-88548667D01*
X151333080Y-88890987D01*
X151538932Y-89199067D01*
X151800933Y-89461068D01*
X152109013Y-89666920D01*
X152451333Y-89808714D01*
X152814738Y-89881000D01*
X153185262Y-89881000D01*
X153548667Y-89808714D01*
X153890987Y-89666920D01*
X154199067Y-89461068D01*
X154393991Y-89266144D01*
X154393990Y-117244012D01*
X154393990Y-117413641D01*
X150921330Y-120886302D01*
X150844157Y-120668748D01*
X150695178Y-120418645D01*
X150500269Y-120202412D01*
X150266920Y-120028359D01*
X150004099Y-119903175D01*
X149856890Y-119858524D01*
X149627000Y-119979845D01*
X149627000Y-121173000D01*
X149647000Y-121173000D01*
X149647000Y-121427000D01*
X149627000Y-121427000D01*
X149627000Y-121447000D01*
X149373000Y-121447000D01*
X149373000Y-121427000D01*
X149353000Y-121427000D01*
X149353000Y-121173000D01*
X149373000Y-121173000D01*
X149373000Y-119979845D01*
X149143110Y-119858524D01*
X148995901Y-119903175D01*
X148733080Y-120028359D01*
X148499731Y-120202412D01*
X148304822Y-120418645D01*
X148155843Y-120668748D01*
X148098228Y-120831168D01*
X148050898Y-120716903D01*
X147916180Y-120515283D01*
X147744717Y-120343820D01*
X147543097Y-120209102D01*
X147319069Y-120116307D01*
X147081243Y-120069000D01*
X146838757Y-120069000D01*
X146600931Y-120116307D01*
X146376903Y-120209102D01*
X146175283Y-120343820D01*
X146003820Y-120515283D01*
X145869102Y-120716903D01*
X145776307Y-120940931D01*
X145729000Y-121178757D01*
X145729000Y-121421243D01*
X145776307Y-121659069D01*
X145869102Y-121883097D01*
X145926501Y-121969001D01*
X145453499Y-121969001D01*
X145510898Y-121883097D01*
X145603693Y-121659069D01*
X145651000Y-121421243D01*
X145651000Y-121178757D01*
X145603693Y-120940931D01*
X145510898Y-120716903D01*
X145376180Y-120515283D01*
X145204717Y-120343820D01*
X145003097Y-120209102D01*
X144779069Y-120116307D01*
X144541243Y-120069000D01*
X144298757Y-120069000D01*
X144060931Y-120116307D01*
X143836903Y-120209102D01*
X143635283Y-120343820D01*
X143463820Y-120515283D01*
X143329102Y-120716903D01*
X143236307Y-120940931D01*
X143189000Y-121178757D01*
X143189000Y-121421243D01*
X143236307Y-121659069D01*
X143329102Y-121883097D01*
X143386501Y-121969001D01*
X142913499Y-121969001D01*
X142970898Y-121883097D01*
X143063693Y-121659069D01*
X143111000Y-121421243D01*
X143111000Y-121178757D01*
X143063693Y-120940931D01*
X142970898Y-120716903D01*
X142836180Y-120515283D01*
X142664717Y-120343820D01*
X142463097Y-120209102D01*
X142239069Y-120116307D01*
X142001243Y-120069000D01*
X141758757Y-120069000D01*
X141520931Y-120116307D01*
X141296903Y-120209102D01*
X141095283Y-120343820D01*
X140923820Y-120515283D01*
X140789102Y-120716903D01*
X140696307Y-120940931D01*
X140649000Y-121178757D01*
X140649000Y-121421243D01*
X140696307Y-121659069D01*
X140789102Y-121883097D01*
X140846501Y-121969001D01*
X140373499Y-121969001D01*
X140430898Y-121883097D01*
X140523693Y-121659069D01*
X140571000Y-121421243D01*
X140571000Y-121178757D01*
X140523693Y-120940931D01*
X140430898Y-120716903D01*
X140296180Y-120515283D01*
X140124717Y-120343820D01*
X139923097Y-120209102D01*
X139699069Y-120116307D01*
X139461243Y-120069000D01*
X139218757Y-120069000D01*
X138980931Y-120116307D01*
X138756903Y-120209102D01*
X138555283Y-120343820D01*
X138383820Y-120515283D01*
X138249102Y-120716903D01*
X138156307Y-120940931D01*
X138109000Y-121178757D01*
X138109000Y-121421243D01*
X138156307Y-121659069D01*
X138230460Y-121838091D01*
X138032843Y-121640474D01*
X138032843Y-120450000D01*
X138025487Y-120375311D01*
X138003701Y-120303492D01*
X137968322Y-120237304D01*
X137920711Y-120179289D01*
X137862696Y-120131678D01*
X137796508Y-120096299D01*
X137724689Y-120074513D01*
X137650000Y-120067157D01*
X135950000Y-120067157D01*
X135875311Y-120074513D01*
X135803492Y-120096299D01*
X135737304Y-120131678D01*
X135679289Y-120179289D01*
X135631678Y-120237304D01*
X135596299Y-120303492D01*
X135574513Y-120375311D01*
X135567157Y-120450000D01*
X135567157Y-122150000D01*
X135574513Y-122224689D01*
X135596299Y-122296508D01*
X135631678Y-122362696D01*
X135679289Y-122420711D01*
X135737304Y-122468322D01*
X135803492Y-122503701D01*
X135875311Y-122525487D01*
X135950000Y-122532843D01*
X137140474Y-122532843D01*
X137631900Y-123024269D01*
X137651658Y-123048344D01*
X137747740Y-123127197D01*
X137857359Y-123185790D01*
X137976303Y-123221871D01*
X138069003Y-123231001D01*
X138069012Y-123231001D01*
X138100000Y-123234053D01*
X138130988Y-123231001D01*
X150069009Y-123231001D01*
X150099999Y-123234053D01*
X150130989Y-123231001D01*
X150130997Y-123231001D01*
X150223697Y-123221871D01*
X150342641Y-123185790D01*
X150452260Y-123127197D01*
X150548342Y-123048344D01*
X150568104Y-123024264D01*
X155094001Y-118498368D01*
X155094001Y-132980136D01*
X155042688Y-133503464D01*
X154896472Y-133987756D01*
X154658975Y-134434422D01*
X154339245Y-134826450D01*
X153949458Y-135148910D01*
X153504460Y-135389518D01*
X153021205Y-135539111D01*
X152498971Y-135594000D01*
X133519854Y-135594000D01*
X132996536Y-135542688D01*
X132512244Y-135396472D01*
X132065578Y-135158975D01*
X131673550Y-134839245D01*
X131351090Y-134449458D01*
X131110482Y-134004460D01*
X130960889Y-133521205D01*
X130906000Y-132998971D01*
X130906000Y-132054889D01*
X133519000Y-132054889D01*
X133519000Y-132445111D01*
X133595129Y-132827836D01*
X133744461Y-133188355D01*
X133961257Y-133512814D01*
X134237186Y-133788743D01*
X134561645Y-134005539D01*
X134922164Y-134154871D01*
X135304889Y-134231000D01*
X135695111Y-134231000D01*
X136077836Y-134154871D01*
X136438355Y-134005539D01*
X136762814Y-133788743D01*
X137038743Y-133512814D01*
X137255539Y-133188355D01*
X137404871Y-132827836D01*
X137481000Y-132445111D01*
X137481000Y-132054889D01*
X148519000Y-132054889D01*
X148519000Y-132445111D01*
X148595129Y-132827836D01*
X148744461Y-133188355D01*
X148961257Y-133512814D01*
X149237186Y-133788743D01*
X149561645Y-134005539D01*
X149922164Y-134154871D01*
X150304889Y-134231000D01*
X150695111Y-134231000D01*
X151077836Y-134154871D01*
X151438355Y-134005539D01*
X151762814Y-133788743D01*
X152038743Y-133512814D01*
X152255539Y-133188355D01*
X152404871Y-132827836D01*
X152481000Y-132445111D01*
X152481000Y-132054889D01*
X152404871Y-131672164D01*
X152255539Y-131311645D01*
X152038743Y-130987186D01*
X151762814Y-130711257D01*
X151438355Y-130494461D01*
X151077836Y-130345129D01*
X150695111Y-130269000D01*
X150304889Y-130269000D01*
X149922164Y-130345129D01*
X149561645Y-130494461D01*
X149237186Y-130711257D01*
X148961257Y-130987186D01*
X148744461Y-131311645D01*
X148595129Y-131672164D01*
X148519000Y-132054889D01*
X137481000Y-132054889D01*
X137404871Y-131672164D01*
X137255539Y-131311645D01*
X137038743Y-130987186D01*
X136762814Y-130711257D01*
X136438355Y-130494461D01*
X136077836Y-130345129D01*
X135695111Y-130269000D01*
X135304889Y-130269000D01*
X134922164Y-130345129D01*
X134561645Y-130494461D01*
X134237186Y-130711257D01*
X133961257Y-130987186D01*
X133744461Y-131311645D01*
X133595129Y-131672164D01*
X133519000Y-132054889D01*
X130906000Y-132054889D01*
X130906000Y-115473078D01*
X132519000Y-115473078D01*
X132519000Y-115626922D01*
X132549013Y-115777809D01*
X132607887Y-115919942D01*
X132693358Y-116047859D01*
X132802141Y-116156642D01*
X132930058Y-116242113D01*
X133072191Y-116300987D01*
X133223078Y-116331000D01*
X133376922Y-116331000D01*
X133527809Y-116300987D01*
X133669942Y-116242113D01*
X133797859Y-116156642D01*
X133898501Y-116056000D01*
X136501499Y-116056000D01*
X136602141Y-116156642D01*
X136730058Y-116242113D01*
X136754976Y-116252435D01*
X134866174Y-118141237D01*
X134806642Y-118052141D01*
X134697859Y-117943358D01*
X134569942Y-117857887D01*
X134427809Y-117799013D01*
X134276922Y-117769000D01*
X134123078Y-117769000D01*
X133972191Y-117799013D01*
X133830058Y-117857887D01*
X133702141Y-117943358D01*
X133593358Y-118052141D01*
X133507887Y-118180058D01*
X133449013Y-118322191D01*
X133419000Y-118473078D01*
X133419000Y-118626922D01*
X133449013Y-118777809D01*
X133507887Y-118919942D01*
X133593358Y-119047859D01*
X133702141Y-119156642D01*
X133830058Y-119242113D01*
X133972191Y-119300987D01*
X134123078Y-119331000D01*
X134276922Y-119331000D01*
X134427809Y-119300987D01*
X134569942Y-119242113D01*
X134623989Y-119206000D01*
X134998156Y-119206000D01*
X135023002Y-119208447D01*
X135047848Y-119206000D01*
X135047856Y-119206000D01*
X135122195Y-119198678D01*
X135217577Y-119169745D01*
X135305481Y-119122759D01*
X135382529Y-119059527D01*
X135398378Y-119040215D01*
X142340220Y-112098374D01*
X142359527Y-112082529D01*
X142422759Y-112005481D01*
X142469745Y-111917577D01*
X142498678Y-111822195D01*
X142506000Y-111747856D01*
X142506000Y-111747849D01*
X142508447Y-111723003D01*
X142506000Y-111698157D01*
X142506000Y-109098511D01*
X142606642Y-108997869D01*
X142692113Y-108869952D01*
X142750987Y-108727819D01*
X142781000Y-108576932D01*
X142781000Y-108423088D01*
X142750987Y-108272201D01*
X142692113Y-108130068D01*
X142606642Y-108002151D01*
X142497859Y-107893368D01*
X142369942Y-107807897D01*
X142227809Y-107749023D01*
X142076922Y-107719010D01*
X141923078Y-107719010D01*
X141772191Y-107749023D01*
X141630058Y-107807897D01*
X141502141Y-107893368D01*
X141393358Y-108002151D01*
X141307887Y-108130068D01*
X141249013Y-108272201D01*
X141219000Y-108423088D01*
X141219000Y-108576932D01*
X141249013Y-108727819D01*
X141307887Y-108869952D01*
X141393358Y-108997869D01*
X141494000Y-109098511D01*
X141494001Y-111513409D01*
X137802434Y-115204976D01*
X137792113Y-115180058D01*
X137706642Y-115052141D01*
X137597859Y-114943358D01*
X137469942Y-114857887D01*
X137327809Y-114799013D01*
X137176922Y-114769000D01*
X137023078Y-114769000D01*
X136872191Y-114799013D01*
X136730058Y-114857887D01*
X136602141Y-114943358D01*
X136501499Y-115044000D01*
X133898501Y-115044000D01*
X133797859Y-114943358D01*
X133669942Y-114857887D01*
X133527809Y-114799013D01*
X133376922Y-114769000D01*
X133223078Y-114769000D01*
X133072191Y-114799013D01*
X132930058Y-114857887D01*
X132802141Y-114943358D01*
X132693358Y-115052141D01*
X132607887Y-115180058D01*
X132549013Y-115322191D01*
X132519000Y-115473078D01*
X130906000Y-115473078D01*
X130906000Y-110823078D01*
X136819000Y-110823078D01*
X136819000Y-110976922D01*
X136849013Y-111127809D01*
X136907887Y-111269942D01*
X136993358Y-111397859D01*
X137102141Y-111506642D01*
X137230058Y-111592113D01*
X137372191Y-111650987D01*
X137523078Y-111681000D01*
X137676922Y-111681000D01*
X137827809Y-111650987D01*
X137969942Y-111592113D01*
X138097859Y-111506642D01*
X138206642Y-111397859D01*
X138292113Y-111269942D01*
X138350987Y-111127809D01*
X138381000Y-110976922D01*
X138381000Y-110834591D01*
X142259592Y-106956000D01*
X144525752Y-106956000D01*
X144626394Y-107056642D01*
X144754311Y-107142113D01*
X144896444Y-107200987D01*
X145047331Y-107231000D01*
X145201175Y-107231000D01*
X145352062Y-107200987D01*
X145494195Y-107142113D01*
X145622112Y-107056642D01*
X145730895Y-106947859D01*
X145816366Y-106819942D01*
X145875240Y-106677809D01*
X145905253Y-106526922D01*
X145905253Y-106373078D01*
X145875240Y-106222191D01*
X145816366Y-106080058D01*
X145730895Y-105952141D01*
X145622112Y-105843358D01*
X145494195Y-105757887D01*
X145352062Y-105699013D01*
X145201175Y-105669000D01*
X145047331Y-105669000D01*
X144896444Y-105699013D01*
X144754311Y-105757887D01*
X144626394Y-105843358D01*
X144525752Y-105944000D01*
X142074845Y-105944000D01*
X142049999Y-105941553D01*
X142025153Y-105944000D01*
X142025146Y-105944000D01*
X141960694Y-105950348D01*
X141950806Y-105951322D01*
X141928607Y-105958056D01*
X141855425Y-105980255D01*
X141767521Y-106027241D01*
X141690473Y-106090473D01*
X141674628Y-106109780D01*
X137665409Y-110119000D01*
X137523078Y-110119000D01*
X137372191Y-110149013D01*
X137230058Y-110207887D01*
X137102141Y-110293358D01*
X136993358Y-110402141D01*
X136907887Y-110530058D01*
X136849013Y-110672191D01*
X136819000Y-110823078D01*
X130906000Y-110823078D01*
X130906000Y-102048078D01*
X135444000Y-102048078D01*
X135444000Y-102201922D01*
X135474013Y-102352809D01*
X135532887Y-102494942D01*
X135618358Y-102622859D01*
X135719001Y-102723502D01*
X135719000Y-106026499D01*
X135618358Y-106127141D01*
X135532887Y-106255058D01*
X135474013Y-106397191D01*
X135444000Y-106548078D01*
X135444000Y-106701922D01*
X135474013Y-106852809D01*
X135532887Y-106994942D01*
X135618358Y-107122859D01*
X135727141Y-107231642D01*
X135855058Y-107317113D01*
X135997191Y-107375987D01*
X136148078Y-107406000D01*
X136301922Y-107406000D01*
X136452809Y-107375987D01*
X136594942Y-107317113D01*
X136722859Y-107231642D01*
X136831642Y-107122859D01*
X136917113Y-106994942D01*
X136975987Y-106852809D01*
X137006000Y-106701922D01*
X137006000Y-106548078D01*
X136975987Y-106397191D01*
X136917113Y-106255058D01*
X136831642Y-106127141D01*
X136731000Y-106026499D01*
X136731000Y-102723501D01*
X136831642Y-102622859D01*
X136917113Y-102494942D01*
X136975987Y-102352809D01*
X137006000Y-102201922D01*
X137006000Y-102048078D01*
X136975987Y-101897191D01*
X136917113Y-101755058D01*
X136831642Y-101627141D01*
X136731000Y-101526499D01*
X136731000Y-97723078D01*
X138069000Y-97723078D01*
X138069000Y-97876922D01*
X138099013Y-98027809D01*
X138157887Y-98169942D01*
X138243358Y-98297859D01*
X138352141Y-98406642D01*
X138480058Y-98492113D01*
X138622191Y-98550987D01*
X138773078Y-98581000D01*
X138915409Y-98581000D01*
X142469000Y-102134592D01*
X142469000Y-102276922D01*
X142499013Y-102427809D01*
X142557887Y-102569942D01*
X142643358Y-102697859D01*
X142752141Y-102806642D01*
X142880058Y-102892113D01*
X143022191Y-102950987D01*
X143173078Y-102981000D01*
X143326922Y-102981000D01*
X143477809Y-102950987D01*
X143619942Y-102892113D01*
X143747859Y-102806642D01*
X143856642Y-102697859D01*
X143942113Y-102569942D01*
X144000987Y-102427809D01*
X144031000Y-102276922D01*
X144031000Y-102123078D01*
X144000987Y-101972191D01*
X143942113Y-101830058D01*
X143856642Y-101702141D01*
X143747859Y-101593358D01*
X143619942Y-101507887D01*
X143477809Y-101449013D01*
X143326922Y-101419000D01*
X143184592Y-101419000D01*
X139631000Y-97865409D01*
X139631000Y-97723078D01*
X139600987Y-97572191D01*
X139542113Y-97430058D01*
X139456642Y-97302141D01*
X139347859Y-97193358D01*
X139219942Y-97107887D01*
X139077809Y-97049013D01*
X138926922Y-97019000D01*
X138773078Y-97019000D01*
X138622191Y-97049013D01*
X138480058Y-97107887D01*
X138352141Y-97193358D01*
X138243358Y-97302141D01*
X138157887Y-97430058D01*
X138099013Y-97572191D01*
X138069000Y-97723078D01*
X136731000Y-97723078D01*
X136731000Y-96223078D01*
X140969000Y-96223078D01*
X140969000Y-96376922D01*
X140999013Y-96527809D01*
X141057887Y-96669942D01*
X141143358Y-96797859D01*
X141252141Y-96906642D01*
X141380058Y-96992113D01*
X141522191Y-97050987D01*
X141673078Y-97081000D01*
X141826922Y-97081000D01*
X141977809Y-97050987D01*
X142119942Y-96992113D01*
X142247859Y-96906642D01*
X142356642Y-96797859D01*
X142442113Y-96669942D01*
X142500987Y-96527809D01*
X142522447Y-96419921D01*
X147561369Y-91381000D01*
X147676922Y-91381000D01*
X147827809Y-91350987D01*
X147969942Y-91292113D01*
X148097859Y-91206642D01*
X148206642Y-91097859D01*
X148292113Y-90969942D01*
X148350987Y-90827809D01*
X148381000Y-90676922D01*
X148381000Y-90523078D01*
X148350987Y-90372191D01*
X148292113Y-90230058D01*
X148206642Y-90102141D01*
X148097859Y-89993358D01*
X147969942Y-89907887D01*
X147827809Y-89849013D01*
X147676922Y-89819000D01*
X147523078Y-89819000D01*
X147372191Y-89849013D01*
X147230058Y-89907887D01*
X147102141Y-89993358D01*
X146993358Y-90102141D01*
X146907887Y-90230058D01*
X146893967Y-90263664D01*
X141630079Y-95527553D01*
X141522191Y-95549013D01*
X141380058Y-95607887D01*
X141252141Y-95693358D01*
X141143358Y-95802141D01*
X141057887Y-95930058D01*
X140999013Y-96072191D01*
X140969000Y-96223078D01*
X136731000Y-96223078D01*
X136731000Y-91610298D01*
X136777809Y-91600987D01*
X136919942Y-91542113D01*
X137047859Y-91456642D01*
X137156642Y-91347859D01*
X137242113Y-91219942D01*
X137300987Y-91077809D01*
X137331000Y-90926922D01*
X137331000Y-90773078D01*
X137300987Y-90622191D01*
X137242113Y-90480058D01*
X137156642Y-90352141D01*
X137047859Y-90243358D01*
X136919942Y-90157887D01*
X136777809Y-90099013D01*
X136626922Y-90069000D01*
X136473078Y-90069000D01*
X136322191Y-90099013D01*
X136180058Y-90157887D01*
X136052141Y-90243358D01*
X135943358Y-90352141D01*
X135857887Y-90480058D01*
X135799013Y-90622191D01*
X135769000Y-90773078D01*
X135769000Y-90926922D01*
X135773029Y-90947175D01*
X135755255Y-90980426D01*
X135726322Y-91075808D01*
X135716553Y-91175000D01*
X135719001Y-91199856D01*
X135719000Y-101526499D01*
X135618358Y-101627141D01*
X135532887Y-101755058D01*
X135474013Y-101897191D01*
X135444000Y-102048078D01*
X130906000Y-102048078D01*
X130906000Y-89491653D01*
X131637952Y-89491653D01*
X131793962Y-89807214D01*
X132168745Y-89998020D01*
X132573551Y-90112044D01*
X132992824Y-90144902D01*
X133410451Y-90095334D01*
X133810383Y-89965243D01*
X134106038Y-89807214D01*
X134262048Y-89491653D01*
X132950000Y-88179605D01*
X131637952Y-89491653D01*
X130906000Y-89491653D01*
X130906000Y-88618264D01*
X130984757Y-88860383D01*
X131142786Y-89156038D01*
X131458347Y-89312048D01*
X132770395Y-88000000D01*
X133129605Y-88000000D01*
X134441653Y-89312048D01*
X134757214Y-89156038D01*
X134948020Y-88781255D01*
X135062044Y-88376449D01*
X135068035Y-88300000D01*
X141390656Y-88300000D01*
X141390656Y-91500000D01*
X141398012Y-91574689D01*
X141419798Y-91646508D01*
X141455177Y-91712696D01*
X141502788Y-91770711D01*
X141560803Y-91818322D01*
X141626991Y-91853701D01*
X141698810Y-91875487D01*
X141773499Y-91882843D01*
X144287499Y-91882843D01*
X144362188Y-91875487D01*
X144434007Y-91853701D01*
X144500195Y-91818322D01*
X144558210Y-91770711D01*
X144605821Y-91712696D01*
X144641200Y-91646508D01*
X144662986Y-91574689D01*
X144670342Y-91500000D01*
X144670342Y-88300000D01*
X144662986Y-88225311D01*
X144641200Y-88153492D01*
X144605821Y-88087304D01*
X144558210Y-88029289D01*
X144500195Y-87981678D01*
X144434007Y-87946299D01*
X144362188Y-87924513D01*
X144287499Y-87917157D01*
X141773499Y-87917157D01*
X141698810Y-87924513D01*
X141626991Y-87946299D01*
X141560803Y-87981678D01*
X141502788Y-88029289D01*
X141455177Y-88087304D01*
X141419798Y-88153492D01*
X141398012Y-88225311D01*
X141390656Y-88300000D01*
X135068035Y-88300000D01*
X135094902Y-87957176D01*
X135045334Y-87539549D01*
X134915243Y-87139617D01*
X134757214Y-86843962D01*
X134714972Y-86823078D01*
X137219000Y-86823078D01*
X137219000Y-86976922D01*
X137249013Y-87127809D01*
X137307887Y-87269942D01*
X137393358Y-87397859D01*
X137502141Y-87506642D01*
X137630058Y-87592113D01*
X137772191Y-87650987D01*
X137923078Y-87681000D01*
X138076922Y-87681000D01*
X138227809Y-87650987D01*
X138369942Y-87592113D01*
X138497859Y-87506642D01*
X138606642Y-87397859D01*
X138692113Y-87269942D01*
X138750987Y-87127809D01*
X138781000Y-86976922D01*
X138781000Y-86834591D01*
X142004602Y-83610990D01*
X144201499Y-83610990D01*
X144302141Y-83711632D01*
X144430058Y-83797103D01*
X144572191Y-83855977D01*
X144723078Y-83885990D01*
X144876922Y-83885990D01*
X145027809Y-83855977D01*
X145169942Y-83797103D01*
X145297859Y-83711632D01*
X145406642Y-83602849D01*
X145492113Y-83474932D01*
X145550987Y-83332799D01*
X145581000Y-83181912D01*
X145581000Y-83028068D01*
X145550987Y-82877181D01*
X145492113Y-82735048D01*
X145406642Y-82607131D01*
X145297859Y-82498348D01*
X145169942Y-82412877D01*
X145027809Y-82354003D01*
X144876922Y-82323990D01*
X144723078Y-82323990D01*
X144572191Y-82354003D01*
X144430058Y-82412877D01*
X144302141Y-82498348D01*
X144201499Y-82598990D01*
X141819864Y-82598990D01*
X141795010Y-82596542D01*
X141770156Y-82598990D01*
X141695817Y-82606312D01*
X141600435Y-82635245D01*
X141512531Y-82682231D01*
X141435483Y-82745463D01*
X141419638Y-82764770D01*
X138065409Y-86119000D01*
X137923078Y-86119000D01*
X137772191Y-86149013D01*
X137630058Y-86207887D01*
X137502141Y-86293358D01*
X137393358Y-86402141D01*
X137307887Y-86530058D01*
X137249013Y-86672191D01*
X137219000Y-86823078D01*
X134714972Y-86823078D01*
X134441653Y-86687952D01*
X133129605Y-88000000D01*
X132770395Y-88000000D01*
X131458347Y-86687952D01*
X131142786Y-86843962D01*
X130951980Y-87218745D01*
X130906000Y-87381982D01*
X130906000Y-86508347D01*
X131637952Y-86508347D01*
X132950000Y-87820395D01*
X134262048Y-86508347D01*
X134106038Y-86192786D01*
X133731255Y-86001980D01*
X133326449Y-85887956D01*
X132907176Y-85855098D01*
X132489549Y-85904666D01*
X132089617Y-86034757D01*
X131793962Y-86192786D01*
X131637952Y-86508347D01*
X130906000Y-86508347D01*
X130906000Y-77627000D01*
X154393991Y-77627000D01*
X154393991Y-86733856D01*
G04 #@! TA.AperFunction,Conductor*
D19*
G36*
X154393991Y-86733856D02*
G01*
X154199067Y-86538932D01*
X153890987Y-86333080D01*
X153548667Y-86191286D01*
X153185262Y-86119000D01*
X152814738Y-86119000D01*
X152451333Y-86191286D01*
X152109013Y-86333080D01*
X151800933Y-86538932D01*
X151538932Y-86800933D01*
X151333080Y-87109013D01*
X151191286Y-87451333D01*
X151119000Y-87814738D01*
X151119000Y-88185262D01*
X151191286Y-88548667D01*
X151333080Y-88890987D01*
X151538932Y-89199067D01*
X151800933Y-89461068D01*
X152109013Y-89666920D01*
X152451333Y-89808714D01*
X152814738Y-89881000D01*
X153185262Y-89881000D01*
X153548667Y-89808714D01*
X153890987Y-89666920D01*
X154199067Y-89461068D01*
X154393991Y-89266144D01*
X154393990Y-117244012D01*
X154393990Y-117413641D01*
X150921330Y-120886302D01*
X150844157Y-120668748D01*
X150695178Y-120418645D01*
X150500269Y-120202412D01*
X150266920Y-120028359D01*
X150004099Y-119903175D01*
X149856890Y-119858524D01*
X149627000Y-119979845D01*
X149627000Y-121173000D01*
X149647000Y-121173000D01*
X149647000Y-121427000D01*
X149627000Y-121427000D01*
X149627000Y-121447000D01*
X149373000Y-121447000D01*
X149373000Y-121427000D01*
X149353000Y-121427000D01*
X149353000Y-121173000D01*
X149373000Y-121173000D01*
X149373000Y-119979845D01*
X149143110Y-119858524D01*
X148995901Y-119903175D01*
X148733080Y-120028359D01*
X148499731Y-120202412D01*
X148304822Y-120418645D01*
X148155843Y-120668748D01*
X148098228Y-120831168D01*
X148050898Y-120716903D01*
X147916180Y-120515283D01*
X147744717Y-120343820D01*
X147543097Y-120209102D01*
X147319069Y-120116307D01*
X147081243Y-120069000D01*
X146838757Y-120069000D01*
X146600931Y-120116307D01*
X146376903Y-120209102D01*
X146175283Y-120343820D01*
X146003820Y-120515283D01*
X145869102Y-120716903D01*
X145776307Y-120940931D01*
X145729000Y-121178757D01*
X145729000Y-121421243D01*
X145776307Y-121659069D01*
X145869102Y-121883097D01*
X145926501Y-121969001D01*
X145453499Y-121969001D01*
X145510898Y-121883097D01*
X145603693Y-121659069D01*
X145651000Y-121421243D01*
X145651000Y-121178757D01*
X145603693Y-120940931D01*
X145510898Y-120716903D01*
X145376180Y-120515283D01*
X145204717Y-120343820D01*
X145003097Y-120209102D01*
X144779069Y-120116307D01*
X144541243Y-120069000D01*
X144298757Y-120069000D01*
X144060931Y-120116307D01*
X143836903Y-120209102D01*
X143635283Y-120343820D01*
X143463820Y-120515283D01*
X143329102Y-120716903D01*
X143236307Y-120940931D01*
X143189000Y-121178757D01*
X143189000Y-121421243D01*
X143236307Y-121659069D01*
X143329102Y-121883097D01*
X143386501Y-121969001D01*
X142913499Y-121969001D01*
X142970898Y-121883097D01*
X143063693Y-121659069D01*
X143111000Y-121421243D01*
X143111000Y-121178757D01*
X143063693Y-120940931D01*
X142970898Y-120716903D01*
X142836180Y-120515283D01*
X142664717Y-120343820D01*
X142463097Y-120209102D01*
X142239069Y-120116307D01*
X142001243Y-120069000D01*
X141758757Y-120069000D01*
X141520931Y-120116307D01*
X141296903Y-120209102D01*
X141095283Y-120343820D01*
X140923820Y-120515283D01*
X140789102Y-120716903D01*
X140696307Y-120940931D01*
X140649000Y-121178757D01*
X140649000Y-121421243D01*
X140696307Y-121659069D01*
X140789102Y-121883097D01*
X140846501Y-121969001D01*
X140373499Y-121969001D01*
X140430898Y-121883097D01*
X140523693Y-121659069D01*
X140571000Y-121421243D01*
X140571000Y-121178757D01*
X140523693Y-120940931D01*
X140430898Y-120716903D01*
X140296180Y-120515283D01*
X140124717Y-120343820D01*
X139923097Y-120209102D01*
X139699069Y-120116307D01*
X139461243Y-120069000D01*
X139218757Y-120069000D01*
X138980931Y-120116307D01*
X138756903Y-120209102D01*
X138555283Y-120343820D01*
X138383820Y-120515283D01*
X138249102Y-120716903D01*
X138156307Y-120940931D01*
X138109000Y-121178757D01*
X138109000Y-121421243D01*
X138156307Y-121659069D01*
X138230460Y-121838091D01*
X138032843Y-121640474D01*
X138032843Y-120450000D01*
X138025487Y-120375311D01*
X138003701Y-120303492D01*
X137968322Y-120237304D01*
X137920711Y-120179289D01*
X137862696Y-120131678D01*
X137796508Y-120096299D01*
X137724689Y-120074513D01*
X137650000Y-120067157D01*
X135950000Y-120067157D01*
X135875311Y-120074513D01*
X135803492Y-120096299D01*
X135737304Y-120131678D01*
X135679289Y-120179289D01*
X135631678Y-120237304D01*
X135596299Y-120303492D01*
X135574513Y-120375311D01*
X135567157Y-120450000D01*
X135567157Y-122150000D01*
X135574513Y-122224689D01*
X135596299Y-122296508D01*
X135631678Y-122362696D01*
X135679289Y-122420711D01*
X135737304Y-122468322D01*
X135803492Y-122503701D01*
X135875311Y-122525487D01*
X135950000Y-122532843D01*
X137140474Y-122532843D01*
X137631900Y-123024269D01*
X137651658Y-123048344D01*
X137747740Y-123127197D01*
X137857359Y-123185790D01*
X137976303Y-123221871D01*
X138069003Y-123231001D01*
X138069012Y-123231001D01*
X138100000Y-123234053D01*
X138130988Y-123231001D01*
X150069009Y-123231001D01*
X150099999Y-123234053D01*
X150130989Y-123231001D01*
X150130997Y-123231001D01*
X150223697Y-123221871D01*
X150342641Y-123185790D01*
X150452260Y-123127197D01*
X150548342Y-123048344D01*
X150568104Y-123024264D01*
X155094001Y-118498368D01*
X155094001Y-132980136D01*
X155042688Y-133503464D01*
X154896472Y-133987756D01*
X154658975Y-134434422D01*
X154339245Y-134826450D01*
X153949458Y-135148910D01*
X153504460Y-135389518D01*
X153021205Y-135539111D01*
X152498971Y-135594000D01*
X133519854Y-135594000D01*
X132996536Y-135542688D01*
X132512244Y-135396472D01*
X132065578Y-135158975D01*
X131673550Y-134839245D01*
X131351090Y-134449458D01*
X131110482Y-134004460D01*
X130960889Y-133521205D01*
X130906000Y-132998971D01*
X130906000Y-132054889D01*
X133519000Y-132054889D01*
X133519000Y-132445111D01*
X133595129Y-132827836D01*
X133744461Y-133188355D01*
X133961257Y-133512814D01*
X134237186Y-133788743D01*
X134561645Y-134005539D01*
X134922164Y-134154871D01*
X135304889Y-134231000D01*
X135695111Y-134231000D01*
X136077836Y-134154871D01*
X136438355Y-134005539D01*
X136762814Y-133788743D01*
X137038743Y-133512814D01*
X137255539Y-133188355D01*
X137404871Y-132827836D01*
X137481000Y-132445111D01*
X137481000Y-132054889D01*
X148519000Y-132054889D01*
X148519000Y-132445111D01*
X148595129Y-132827836D01*
X148744461Y-133188355D01*
X148961257Y-133512814D01*
X149237186Y-133788743D01*
X149561645Y-134005539D01*
X149922164Y-134154871D01*
X150304889Y-134231000D01*
X150695111Y-134231000D01*
X151077836Y-134154871D01*
X151438355Y-134005539D01*
X151762814Y-133788743D01*
X152038743Y-133512814D01*
X152255539Y-133188355D01*
X152404871Y-132827836D01*
X152481000Y-132445111D01*
X152481000Y-132054889D01*
X152404871Y-131672164D01*
X152255539Y-131311645D01*
X152038743Y-130987186D01*
X151762814Y-130711257D01*
X151438355Y-130494461D01*
X151077836Y-130345129D01*
X150695111Y-130269000D01*
X150304889Y-130269000D01*
X149922164Y-130345129D01*
X149561645Y-130494461D01*
X149237186Y-130711257D01*
X148961257Y-130987186D01*
X148744461Y-131311645D01*
X148595129Y-131672164D01*
X148519000Y-132054889D01*
X137481000Y-132054889D01*
X137404871Y-131672164D01*
X137255539Y-131311645D01*
X137038743Y-130987186D01*
X136762814Y-130711257D01*
X136438355Y-130494461D01*
X136077836Y-130345129D01*
X135695111Y-130269000D01*
X135304889Y-130269000D01*
X134922164Y-130345129D01*
X134561645Y-130494461D01*
X134237186Y-130711257D01*
X133961257Y-130987186D01*
X133744461Y-131311645D01*
X133595129Y-131672164D01*
X133519000Y-132054889D01*
X130906000Y-132054889D01*
X130906000Y-115473078D01*
X132519000Y-115473078D01*
X132519000Y-115626922D01*
X132549013Y-115777809D01*
X132607887Y-115919942D01*
X132693358Y-116047859D01*
X132802141Y-116156642D01*
X132930058Y-116242113D01*
X133072191Y-116300987D01*
X133223078Y-116331000D01*
X133376922Y-116331000D01*
X133527809Y-116300987D01*
X133669942Y-116242113D01*
X133797859Y-116156642D01*
X133898501Y-116056000D01*
X136501499Y-116056000D01*
X136602141Y-116156642D01*
X136730058Y-116242113D01*
X136754976Y-116252435D01*
X134866174Y-118141237D01*
X134806642Y-118052141D01*
X134697859Y-117943358D01*
X134569942Y-117857887D01*
X134427809Y-117799013D01*
X134276922Y-117769000D01*
X134123078Y-117769000D01*
X133972191Y-117799013D01*
X133830058Y-117857887D01*
X133702141Y-117943358D01*
X133593358Y-118052141D01*
X133507887Y-118180058D01*
X133449013Y-118322191D01*
X133419000Y-118473078D01*
X133419000Y-118626922D01*
X133449013Y-118777809D01*
X133507887Y-118919942D01*
X133593358Y-119047859D01*
X133702141Y-119156642D01*
X133830058Y-119242113D01*
X133972191Y-119300987D01*
X134123078Y-119331000D01*
X134276922Y-119331000D01*
X134427809Y-119300987D01*
X134569942Y-119242113D01*
X134623989Y-119206000D01*
X134998156Y-119206000D01*
X135023002Y-119208447D01*
X135047848Y-119206000D01*
X135047856Y-119206000D01*
X135122195Y-119198678D01*
X135217577Y-119169745D01*
X135305481Y-119122759D01*
X135382529Y-119059527D01*
X135398378Y-119040215D01*
X142340220Y-112098374D01*
X142359527Y-112082529D01*
X142422759Y-112005481D01*
X142469745Y-111917577D01*
X142498678Y-111822195D01*
X142506000Y-111747856D01*
X142506000Y-111747849D01*
X142508447Y-111723003D01*
X142506000Y-111698157D01*
X142506000Y-109098511D01*
X142606642Y-108997869D01*
X142692113Y-108869952D01*
X142750987Y-108727819D01*
X142781000Y-108576932D01*
X142781000Y-108423088D01*
X142750987Y-108272201D01*
X142692113Y-108130068D01*
X142606642Y-108002151D01*
X142497859Y-107893368D01*
X142369942Y-107807897D01*
X142227809Y-107749023D01*
X142076922Y-107719010D01*
X141923078Y-107719010D01*
X141772191Y-107749023D01*
X141630058Y-107807897D01*
X141502141Y-107893368D01*
X141393358Y-108002151D01*
X141307887Y-108130068D01*
X141249013Y-108272201D01*
X141219000Y-108423088D01*
X141219000Y-108576932D01*
X141249013Y-108727819D01*
X141307887Y-108869952D01*
X141393358Y-108997869D01*
X141494000Y-109098511D01*
X141494001Y-111513409D01*
X137802434Y-115204976D01*
X137792113Y-115180058D01*
X137706642Y-115052141D01*
X137597859Y-114943358D01*
X137469942Y-114857887D01*
X137327809Y-114799013D01*
X137176922Y-114769000D01*
X137023078Y-114769000D01*
X136872191Y-114799013D01*
X136730058Y-114857887D01*
X136602141Y-114943358D01*
X136501499Y-115044000D01*
X133898501Y-115044000D01*
X133797859Y-114943358D01*
X133669942Y-114857887D01*
X133527809Y-114799013D01*
X133376922Y-114769000D01*
X133223078Y-114769000D01*
X133072191Y-114799013D01*
X132930058Y-114857887D01*
X132802141Y-114943358D01*
X132693358Y-115052141D01*
X132607887Y-115180058D01*
X132549013Y-115322191D01*
X132519000Y-115473078D01*
X130906000Y-115473078D01*
X130906000Y-110823078D01*
X136819000Y-110823078D01*
X136819000Y-110976922D01*
X136849013Y-111127809D01*
X136907887Y-111269942D01*
X136993358Y-111397859D01*
X137102141Y-111506642D01*
X137230058Y-111592113D01*
X137372191Y-111650987D01*
X137523078Y-111681000D01*
X137676922Y-111681000D01*
X137827809Y-111650987D01*
X137969942Y-111592113D01*
X138097859Y-111506642D01*
X138206642Y-111397859D01*
X138292113Y-111269942D01*
X138350987Y-111127809D01*
X138381000Y-110976922D01*
X138381000Y-110834591D01*
X142259592Y-106956000D01*
X144525752Y-106956000D01*
X144626394Y-107056642D01*
X144754311Y-107142113D01*
X144896444Y-107200987D01*
X145047331Y-107231000D01*
X145201175Y-107231000D01*
X145352062Y-107200987D01*
X145494195Y-107142113D01*
X145622112Y-107056642D01*
X145730895Y-106947859D01*
X145816366Y-106819942D01*
X145875240Y-106677809D01*
X145905253Y-106526922D01*
X145905253Y-106373078D01*
X145875240Y-106222191D01*
X145816366Y-106080058D01*
X145730895Y-105952141D01*
X145622112Y-105843358D01*
X145494195Y-105757887D01*
X145352062Y-105699013D01*
X145201175Y-105669000D01*
X145047331Y-105669000D01*
X144896444Y-105699013D01*
X144754311Y-105757887D01*
X144626394Y-105843358D01*
X144525752Y-105944000D01*
X142074845Y-105944000D01*
X142049999Y-105941553D01*
X142025153Y-105944000D01*
X142025146Y-105944000D01*
X141960694Y-105950348D01*
X141950806Y-105951322D01*
X141928607Y-105958056D01*
X141855425Y-105980255D01*
X141767521Y-106027241D01*
X141690473Y-106090473D01*
X141674628Y-106109780D01*
X137665409Y-110119000D01*
X137523078Y-110119000D01*
X137372191Y-110149013D01*
X137230058Y-110207887D01*
X137102141Y-110293358D01*
X136993358Y-110402141D01*
X136907887Y-110530058D01*
X136849013Y-110672191D01*
X136819000Y-110823078D01*
X130906000Y-110823078D01*
X130906000Y-102048078D01*
X135444000Y-102048078D01*
X135444000Y-102201922D01*
X135474013Y-102352809D01*
X135532887Y-102494942D01*
X135618358Y-102622859D01*
X135719001Y-102723502D01*
X135719000Y-106026499D01*
X135618358Y-106127141D01*
X135532887Y-106255058D01*
X135474013Y-106397191D01*
X135444000Y-106548078D01*
X135444000Y-106701922D01*
X135474013Y-106852809D01*
X135532887Y-106994942D01*
X135618358Y-107122859D01*
X135727141Y-107231642D01*
X135855058Y-107317113D01*
X135997191Y-107375987D01*
X136148078Y-107406000D01*
X136301922Y-107406000D01*
X136452809Y-107375987D01*
X136594942Y-107317113D01*
X136722859Y-107231642D01*
X136831642Y-107122859D01*
X136917113Y-106994942D01*
X136975987Y-106852809D01*
X137006000Y-106701922D01*
X137006000Y-106548078D01*
X136975987Y-106397191D01*
X136917113Y-106255058D01*
X136831642Y-106127141D01*
X136731000Y-106026499D01*
X136731000Y-102723501D01*
X136831642Y-102622859D01*
X136917113Y-102494942D01*
X136975987Y-102352809D01*
X137006000Y-102201922D01*
X137006000Y-102048078D01*
X136975987Y-101897191D01*
X136917113Y-101755058D01*
X136831642Y-101627141D01*
X136731000Y-101526499D01*
X136731000Y-97723078D01*
X138069000Y-97723078D01*
X138069000Y-97876922D01*
X138099013Y-98027809D01*
X138157887Y-98169942D01*
X138243358Y-98297859D01*
X138352141Y-98406642D01*
X138480058Y-98492113D01*
X138622191Y-98550987D01*
X138773078Y-98581000D01*
X138915409Y-98581000D01*
X142469000Y-102134592D01*
X142469000Y-102276922D01*
X142499013Y-102427809D01*
X142557887Y-102569942D01*
X142643358Y-102697859D01*
X142752141Y-102806642D01*
X142880058Y-102892113D01*
X143022191Y-102950987D01*
X143173078Y-102981000D01*
X143326922Y-102981000D01*
X143477809Y-102950987D01*
X143619942Y-102892113D01*
X143747859Y-102806642D01*
X143856642Y-102697859D01*
X143942113Y-102569942D01*
X144000987Y-102427809D01*
X144031000Y-102276922D01*
X144031000Y-102123078D01*
X144000987Y-101972191D01*
X143942113Y-101830058D01*
X143856642Y-101702141D01*
X143747859Y-101593358D01*
X143619942Y-101507887D01*
X143477809Y-101449013D01*
X143326922Y-101419000D01*
X143184592Y-101419000D01*
X139631000Y-97865409D01*
X139631000Y-97723078D01*
X139600987Y-97572191D01*
X139542113Y-97430058D01*
X139456642Y-97302141D01*
X139347859Y-97193358D01*
X139219942Y-97107887D01*
X139077809Y-97049013D01*
X138926922Y-97019000D01*
X138773078Y-97019000D01*
X138622191Y-97049013D01*
X138480058Y-97107887D01*
X138352141Y-97193358D01*
X138243358Y-97302141D01*
X138157887Y-97430058D01*
X138099013Y-97572191D01*
X138069000Y-97723078D01*
X136731000Y-97723078D01*
X136731000Y-96223078D01*
X140969000Y-96223078D01*
X140969000Y-96376922D01*
X140999013Y-96527809D01*
X141057887Y-96669942D01*
X141143358Y-96797859D01*
X141252141Y-96906642D01*
X141380058Y-96992113D01*
X141522191Y-97050987D01*
X141673078Y-97081000D01*
X141826922Y-97081000D01*
X141977809Y-97050987D01*
X142119942Y-96992113D01*
X142247859Y-96906642D01*
X142356642Y-96797859D01*
X142442113Y-96669942D01*
X142500987Y-96527809D01*
X142522447Y-96419921D01*
X147561369Y-91381000D01*
X147676922Y-91381000D01*
X147827809Y-91350987D01*
X147969942Y-91292113D01*
X148097859Y-91206642D01*
X148206642Y-91097859D01*
X148292113Y-90969942D01*
X148350987Y-90827809D01*
X148381000Y-90676922D01*
X148381000Y-90523078D01*
X148350987Y-90372191D01*
X148292113Y-90230058D01*
X148206642Y-90102141D01*
X148097859Y-89993358D01*
X147969942Y-89907887D01*
X147827809Y-89849013D01*
X147676922Y-89819000D01*
X147523078Y-89819000D01*
X147372191Y-89849013D01*
X147230058Y-89907887D01*
X147102141Y-89993358D01*
X146993358Y-90102141D01*
X146907887Y-90230058D01*
X146893967Y-90263664D01*
X141630079Y-95527553D01*
X141522191Y-95549013D01*
X141380058Y-95607887D01*
X141252141Y-95693358D01*
X141143358Y-95802141D01*
X141057887Y-95930058D01*
X140999013Y-96072191D01*
X140969000Y-96223078D01*
X136731000Y-96223078D01*
X136731000Y-91610298D01*
X136777809Y-91600987D01*
X136919942Y-91542113D01*
X137047859Y-91456642D01*
X137156642Y-91347859D01*
X137242113Y-91219942D01*
X137300987Y-91077809D01*
X137331000Y-90926922D01*
X137331000Y-90773078D01*
X137300987Y-90622191D01*
X137242113Y-90480058D01*
X137156642Y-90352141D01*
X137047859Y-90243358D01*
X136919942Y-90157887D01*
X136777809Y-90099013D01*
X136626922Y-90069000D01*
X136473078Y-90069000D01*
X136322191Y-90099013D01*
X136180058Y-90157887D01*
X136052141Y-90243358D01*
X135943358Y-90352141D01*
X135857887Y-90480058D01*
X135799013Y-90622191D01*
X135769000Y-90773078D01*
X135769000Y-90926922D01*
X135773029Y-90947175D01*
X135755255Y-90980426D01*
X135726322Y-91075808D01*
X135716553Y-91175000D01*
X135719001Y-91199856D01*
X135719000Y-101526499D01*
X135618358Y-101627141D01*
X135532887Y-101755058D01*
X135474013Y-101897191D01*
X135444000Y-102048078D01*
X130906000Y-102048078D01*
X130906000Y-89491653D01*
X131637952Y-89491653D01*
X131793962Y-89807214D01*
X132168745Y-89998020D01*
X132573551Y-90112044D01*
X132992824Y-90144902D01*
X133410451Y-90095334D01*
X133810383Y-89965243D01*
X134106038Y-89807214D01*
X134262048Y-89491653D01*
X132950000Y-88179605D01*
X131637952Y-89491653D01*
X130906000Y-89491653D01*
X130906000Y-88618264D01*
X130984757Y-88860383D01*
X131142786Y-89156038D01*
X131458347Y-89312048D01*
X132770395Y-88000000D01*
X133129605Y-88000000D01*
X134441653Y-89312048D01*
X134757214Y-89156038D01*
X134948020Y-88781255D01*
X135062044Y-88376449D01*
X135068035Y-88300000D01*
X141390656Y-88300000D01*
X141390656Y-91500000D01*
X141398012Y-91574689D01*
X141419798Y-91646508D01*
X141455177Y-91712696D01*
X141502788Y-91770711D01*
X141560803Y-91818322D01*
X141626991Y-91853701D01*
X141698810Y-91875487D01*
X141773499Y-91882843D01*
X144287499Y-91882843D01*
X144362188Y-91875487D01*
X144434007Y-91853701D01*
X144500195Y-91818322D01*
X144558210Y-91770711D01*
X144605821Y-91712696D01*
X144641200Y-91646508D01*
X144662986Y-91574689D01*
X144670342Y-91500000D01*
X144670342Y-88300000D01*
X144662986Y-88225311D01*
X144641200Y-88153492D01*
X144605821Y-88087304D01*
X144558210Y-88029289D01*
X144500195Y-87981678D01*
X144434007Y-87946299D01*
X144362188Y-87924513D01*
X144287499Y-87917157D01*
X141773499Y-87917157D01*
X141698810Y-87924513D01*
X141626991Y-87946299D01*
X141560803Y-87981678D01*
X141502788Y-88029289D01*
X141455177Y-88087304D01*
X141419798Y-88153492D01*
X141398012Y-88225311D01*
X141390656Y-88300000D01*
X135068035Y-88300000D01*
X135094902Y-87957176D01*
X135045334Y-87539549D01*
X134915243Y-87139617D01*
X134757214Y-86843962D01*
X134714972Y-86823078D01*
X137219000Y-86823078D01*
X137219000Y-86976922D01*
X137249013Y-87127809D01*
X137307887Y-87269942D01*
X137393358Y-87397859D01*
X137502141Y-87506642D01*
X137630058Y-87592113D01*
X137772191Y-87650987D01*
X137923078Y-87681000D01*
X138076922Y-87681000D01*
X138227809Y-87650987D01*
X138369942Y-87592113D01*
X138497859Y-87506642D01*
X138606642Y-87397859D01*
X138692113Y-87269942D01*
X138750987Y-87127809D01*
X138781000Y-86976922D01*
X138781000Y-86834591D01*
X142004602Y-83610990D01*
X144201499Y-83610990D01*
X144302141Y-83711632D01*
X144430058Y-83797103D01*
X144572191Y-83855977D01*
X144723078Y-83885990D01*
X144876922Y-83885990D01*
X145027809Y-83855977D01*
X145169942Y-83797103D01*
X145297859Y-83711632D01*
X145406642Y-83602849D01*
X145492113Y-83474932D01*
X145550987Y-83332799D01*
X145581000Y-83181912D01*
X145581000Y-83028068D01*
X145550987Y-82877181D01*
X145492113Y-82735048D01*
X145406642Y-82607131D01*
X145297859Y-82498348D01*
X145169942Y-82412877D01*
X145027809Y-82354003D01*
X144876922Y-82323990D01*
X144723078Y-82323990D01*
X144572191Y-82354003D01*
X144430058Y-82412877D01*
X144302141Y-82498348D01*
X144201499Y-82598990D01*
X141819864Y-82598990D01*
X141795010Y-82596542D01*
X141770156Y-82598990D01*
X141695817Y-82606312D01*
X141600435Y-82635245D01*
X141512531Y-82682231D01*
X141435483Y-82745463D01*
X141419638Y-82764770D01*
X138065409Y-86119000D01*
X137923078Y-86119000D01*
X137772191Y-86149013D01*
X137630058Y-86207887D01*
X137502141Y-86293358D01*
X137393358Y-86402141D01*
X137307887Y-86530058D01*
X137249013Y-86672191D01*
X137219000Y-86823078D01*
X134714972Y-86823078D01*
X134441653Y-86687952D01*
X133129605Y-88000000D01*
X132770395Y-88000000D01*
X131458347Y-86687952D01*
X131142786Y-86843962D01*
X130951980Y-87218745D01*
X130906000Y-87381982D01*
X130906000Y-86508347D01*
X131637952Y-86508347D01*
X132950000Y-87820395D01*
X134262048Y-86508347D01*
X134106038Y-86192786D01*
X133731255Y-86001980D01*
X133326449Y-85887956D01*
X132907176Y-85855098D01*
X132489549Y-85904666D01*
X132089617Y-86034757D01*
X131793962Y-86192786D01*
X131637952Y-86508347D01*
X130906000Y-86508347D01*
X130906000Y-77627000D01*
X154393991Y-77627000D01*
X154393991Y-86733856D01*
G37*
G04 #@! TD.AperFunction*
M02*
