M48
; DRILL file {KiCad (5.1.10)-1} date 11/26/21 17:39:28
; FORMAT={-:-/ absolute / metric / decimal}
; #@! TF.CreationDate,2021-11-26T17:39:28+01:00
; #@! TF.GenerationSoftware,Kicad,Pcbnew,(5.1.10)-1
; #@! TF.FileFunction,Plated,1,2,PTH
FMAT,2
METRIC
T1C0.400
T2C1.000
T3C1.500
%
G90
G05
T1
X132.1Y-82.5
X132.475Y-100.575
X133.3Y-115.55
X133.4Y-124.8
X133.6Y-105.55
X133.65Y-95.925
X134.2Y-118.55
X136.225Y-102.125
X136.225Y-106.625
X136.55Y-90.85
X137.1Y-115.55
X137.6Y-110.9
X137.75Y-95.45
X137.775Y-114.525
X138.0Y-86.9
X138.3Y-119.0
X138.85Y-97.8
X139.125Y-105.6
X139.225Y-99.85
X139.4Y-110.5
X140.55Y-103.1
X141.45Y-113.4
X141.75Y-96.3
X141.875Y-105.55
X142.0Y-108.5
X143.05Y-117.95
X143.25Y-102.2
X144.4Y-112.35
X144.8Y-83.105
X145.124Y-106.45
X145.7Y-105.1
X146.8Y-110.25
X146.875Y-100.4
X147.0Y-78.0
X147.185Y-90.965
X147.35Y-88.0
X148.65Y-91.175
X149.1Y-114.6
X149.35Y-101.65
X149.9Y-82.325
X150.8Y-95.7
X151.55Y-119.0
X151.8Y-79.15
X153.0Y-122.9
X153.5Y-95.9
X154.0Y-85.2
T2
X136.681Y-70.717
X136.8Y-121.3
X139.221Y-70.717
X139.34Y-121.3
X141.761Y-70.717
X141.88Y-121.3
X144.301Y-70.717
X144.42Y-121.3
X146.841Y-70.717
X146.96Y-121.3
X149.381Y-70.717
X149.5Y-121.3
T3
X132.95Y-88.0
X143.03Y-91.6
X153.0Y-88.0
T0
M30
