G04 #@! TF.GenerationSoftware,KiCad,Pcbnew,(5.1.10)-1*
G04 #@! TF.CreationDate,2021-11-26T17:39:24+01:00*
G04 #@! TF.ProjectId,Transmitter,5472616e-736d-4697-9474-65722e6b6963,rev?*
G04 #@! TF.SameCoordinates,Original*
G04 #@! TF.FileFunction,Legend,Bot*
G04 #@! TF.FilePolarity,Positive*
%FSLAX46Y46*%
G04 Gerber Fmt 4.6, Leading zero omitted, Abs format (unit mm)*
G04 Created by KiCad (PCBNEW (5.1.10)-1) date 2021-11-26 17:39:24*
%MOMM*%
%LPD*%
G01*
G04 APERTURE LIST*
%ADD10C,0.150000*%
%ADD11C,3.200000*%
%ADD12R,2.514000X3.200000*%
%ADD13C,0.100000*%
%ADD14C,3.000000*%
%ADD15O,1.700000X1.700000*%
%ADD16R,1.700000X1.700000*%
G04 APERTURE END LIST*
D10*
X152571428Y-60778571D02*
X152428571Y-60826190D01*
X152380952Y-60873809D01*
X152333333Y-60969047D01*
X152333333Y-61111904D01*
X152380952Y-61207142D01*
X152428571Y-61254761D01*
X152523809Y-61302380D01*
X152904761Y-61302380D01*
X152904761Y-60302380D01*
X152571428Y-60302380D01*
X152476190Y-60350000D01*
X152428571Y-60397619D01*
X152380952Y-60492857D01*
X152380952Y-60588095D01*
X152428571Y-60683333D01*
X152476190Y-60730952D01*
X152571428Y-60778571D01*
X152904761Y-60778571D01*
X151761904Y-61302380D02*
X151857142Y-61254761D01*
X151904761Y-61159523D01*
X151904761Y-60302380D01*
X150952380Y-60635714D02*
X150952380Y-61302380D01*
X151380952Y-60635714D02*
X151380952Y-61159523D01*
X151333333Y-61254761D01*
X151238095Y-61302380D01*
X151095238Y-61302380D01*
X151000000Y-61254761D01*
X150952380Y-61207142D01*
X150095238Y-61254761D02*
X150190476Y-61302380D01*
X150380952Y-61302380D01*
X150476190Y-61254761D01*
X150523809Y-61159523D01*
X150523809Y-60778571D01*
X150476190Y-60683333D01*
X150380952Y-60635714D01*
X150190476Y-60635714D01*
X150095238Y-60683333D01*
X150047619Y-60778571D01*
X150047619Y-60873809D01*
X150523809Y-60969047D01*
X149761904Y-60635714D02*
X149380952Y-60635714D01*
X149619047Y-60302380D02*
X149619047Y-61159523D01*
X149571428Y-61254761D01*
X149476190Y-61302380D01*
X149380952Y-61302380D01*
X148904761Y-61302380D02*
X149000000Y-61254761D01*
X149047619Y-61207142D01*
X149095238Y-61111904D01*
X149095238Y-60826190D01*
X149047619Y-60730952D01*
X149000000Y-60683333D01*
X148904761Y-60635714D01*
X148761904Y-60635714D01*
X148666666Y-60683333D01*
X148619047Y-60730952D01*
X148571428Y-60826190D01*
X148571428Y-61111904D01*
X148619047Y-61207142D01*
X148666666Y-61254761D01*
X148761904Y-61302380D01*
X148904761Y-61302380D01*
X148000000Y-61302380D02*
X148095238Y-61254761D01*
X148142857Y-61207142D01*
X148190476Y-61111904D01*
X148190476Y-60826190D01*
X148142857Y-60730952D01*
X148095238Y-60683333D01*
X148000000Y-60635714D01*
X147857142Y-60635714D01*
X147761904Y-60683333D01*
X147714285Y-60730952D01*
X147666666Y-60826190D01*
X147666666Y-61111904D01*
X147714285Y-61207142D01*
X147761904Y-61254761D01*
X147857142Y-61302380D01*
X148000000Y-61302380D01*
X147380952Y-60635714D02*
X147000000Y-60635714D01*
X147238095Y-60302380D02*
X147238095Y-61159523D01*
X147190476Y-61254761D01*
X147095238Y-61302380D01*
X147000000Y-61302380D01*
X146666666Y-61302380D02*
X146666666Y-60302380D01*
X146238095Y-61302380D02*
X146238095Y-60778571D01*
X146285714Y-60683333D01*
X146380952Y-60635714D01*
X146523809Y-60635714D01*
X146619047Y-60683333D01*
X146666666Y-60730952D01*
X145142857Y-60635714D02*
X144761904Y-60635714D01*
X145000000Y-60302380D02*
X145000000Y-61159523D01*
X144952380Y-61254761D01*
X144857142Y-61302380D01*
X144761904Y-61302380D01*
X144285714Y-61302380D02*
X144380952Y-61254761D01*
X144428571Y-61207142D01*
X144476190Y-61111904D01*
X144476190Y-60826190D01*
X144428571Y-60730952D01*
X144380952Y-60683333D01*
X144285714Y-60635714D01*
X144142857Y-60635714D01*
X144047619Y-60683333D01*
X144000000Y-60730952D01*
X143952380Y-60826190D01*
X143952380Y-61111904D01*
X144000000Y-61207142D01*
X144047619Y-61254761D01*
X144142857Y-61302380D01*
X144285714Y-61302380D01*
X142809523Y-61016666D02*
X142333333Y-61016666D01*
X142904761Y-61302380D02*
X142571428Y-60302380D01*
X142238095Y-61302380D01*
X141904761Y-61302380D02*
X141904761Y-60302380D01*
X141571428Y-61016666D01*
X141238095Y-60302380D01*
X141238095Y-61302380D01*
X139571428Y-61302380D02*
X139571428Y-60778571D01*
X139619047Y-60683333D01*
X139714285Y-60635714D01*
X139904761Y-60635714D01*
X140000000Y-60683333D01*
X139571428Y-61254761D02*
X139666666Y-61302380D01*
X139904761Y-61302380D01*
X140000000Y-61254761D01*
X140047619Y-61159523D01*
X140047619Y-61064285D01*
X140000000Y-60969047D01*
X139904761Y-60921428D01*
X139666666Y-60921428D01*
X139571428Y-60873809D01*
X138666666Y-61302380D02*
X138666666Y-60302380D01*
X138666666Y-61254761D02*
X138761904Y-61302380D01*
X138952380Y-61302380D01*
X139047619Y-61254761D01*
X139095238Y-61207142D01*
X139142857Y-61111904D01*
X139142857Y-60826190D01*
X139095238Y-60730952D01*
X139047619Y-60683333D01*
X138952380Y-60635714D01*
X138761904Y-60635714D01*
X138666666Y-60683333D01*
X137761904Y-61302380D02*
X137761904Y-60778571D01*
X137809523Y-60683333D01*
X137904761Y-60635714D01*
X138095238Y-60635714D01*
X138190476Y-60683333D01*
X137761904Y-61254761D02*
X137857142Y-61302380D01*
X138095238Y-61302380D01*
X138190476Y-61254761D01*
X138238095Y-61159523D01*
X138238095Y-61064285D01*
X138190476Y-60969047D01*
X138095238Y-60921428D01*
X137857142Y-60921428D01*
X137761904Y-60873809D01*
X137285714Y-60635714D02*
X137285714Y-61635714D01*
X137285714Y-60683333D02*
X137190476Y-60635714D01*
X137000000Y-60635714D01*
X136904761Y-60683333D01*
X136857142Y-60730952D01*
X136809523Y-60826190D01*
X136809523Y-61111904D01*
X136857142Y-61207142D01*
X136904761Y-61254761D01*
X137000000Y-61302380D01*
X137190476Y-61302380D01*
X137285714Y-61254761D01*
X136523809Y-60635714D02*
X136142857Y-60635714D01*
X136380952Y-60302380D02*
X136380952Y-61159523D01*
X136333333Y-61254761D01*
X136238095Y-61302380D01*
X136142857Y-61302380D01*
X135428571Y-61254761D02*
X135523809Y-61302380D01*
X135714285Y-61302380D01*
X135809523Y-61254761D01*
X135857142Y-61159523D01*
X135857142Y-60778571D01*
X135809523Y-60683333D01*
X135714285Y-60635714D01*
X135523809Y-60635714D01*
X135428571Y-60683333D01*
X135380952Y-60778571D01*
X135380952Y-60873809D01*
X135857142Y-60969047D01*
X134952380Y-61302380D02*
X134952380Y-60635714D01*
X134952380Y-60826190D02*
X134904761Y-60730952D01*
X134857142Y-60683333D01*
X134761904Y-60635714D01*
X134666666Y-60635714D01*
X133619047Y-60397619D02*
X133571428Y-60350000D01*
X133476190Y-60302380D01*
X133238095Y-60302380D01*
X133142857Y-60350000D01*
X133095238Y-60397619D01*
X133047619Y-60492857D01*
X133047619Y-60588095D01*
X133095238Y-60730952D01*
X133666666Y-61302380D01*
X133047619Y-61302380D01*
X147380952Y-62047619D02*
X147333333Y-62000000D01*
X147238095Y-61952380D01*
X147000000Y-61952380D01*
X146904761Y-62000000D01*
X146857142Y-62047619D01*
X146809523Y-62142857D01*
X146809523Y-62238095D01*
X146857142Y-62380952D01*
X147428571Y-62952380D01*
X146809523Y-62952380D01*
X145857142Y-62952380D02*
X146428571Y-62952380D01*
X146142857Y-62952380D02*
X146142857Y-61952380D01*
X146238095Y-62095238D01*
X146333333Y-62190476D01*
X146428571Y-62238095D01*
X145666666Y-63047619D02*
X144904761Y-63047619D01*
X144238095Y-62285714D02*
X144238095Y-62952380D01*
X144476190Y-61904761D02*
X144714285Y-62619047D01*
X144095238Y-62619047D01*
X143809523Y-61952380D02*
X143142857Y-61952380D01*
X143571428Y-62952380D01*
X143000000Y-63047619D02*
X142238095Y-63047619D01*
X141809523Y-61952380D02*
X141714285Y-61952380D01*
X141619047Y-62000000D01*
X141571428Y-62047619D01*
X141523809Y-62142857D01*
X141476190Y-62333333D01*
X141476190Y-62571428D01*
X141523809Y-62761904D01*
X141571428Y-62857142D01*
X141619047Y-62904761D01*
X141714285Y-62952380D01*
X141809523Y-62952380D01*
X141904761Y-62904761D01*
X141952380Y-62857142D01*
X142000000Y-62761904D01*
X142047619Y-62571428D01*
X142047619Y-62333333D01*
X142000000Y-62142857D01*
X141952380Y-62047619D01*
X141904761Y-62000000D01*
X141809523Y-61952380D01*
X140857142Y-61952380D02*
X140761904Y-61952380D01*
X140666666Y-62000000D01*
X140619047Y-62047619D01*
X140571428Y-62142857D01*
X140523809Y-62333333D01*
X140523809Y-62571428D01*
X140571428Y-62761904D01*
X140619047Y-62857142D01*
X140666666Y-62904761D01*
X140761904Y-62952380D01*
X140857142Y-62952380D01*
X140952380Y-62904761D01*
X141000000Y-62857142D01*
X141047619Y-62761904D01*
X141095238Y-62571428D01*
X141095238Y-62333333D01*
X141047619Y-62142857D01*
X141000000Y-62047619D01*
X140952380Y-62000000D01*
X140857142Y-61952380D01*
X139952380Y-62380952D02*
X140047619Y-62333333D01*
X140095238Y-62285714D01*
X140142857Y-62190476D01*
X140142857Y-62142857D01*
X140095238Y-62047619D01*
X140047619Y-62000000D01*
X139952380Y-61952380D01*
X139761904Y-61952380D01*
X139666666Y-62000000D01*
X139619047Y-62047619D01*
X139571428Y-62142857D01*
X139571428Y-62190476D01*
X139619047Y-62285714D01*
X139666666Y-62333333D01*
X139761904Y-62380952D01*
X139952380Y-62380952D01*
X140047619Y-62428571D01*
X140095238Y-62476190D01*
X140142857Y-62571428D01*
X140142857Y-62761904D01*
X140095238Y-62857142D01*
X140047619Y-62904761D01*
X139952380Y-62952380D01*
X139761904Y-62952380D01*
X139666666Y-62904761D01*
X139619047Y-62857142D01*
X139571428Y-62761904D01*
X139571428Y-62571428D01*
X139619047Y-62476190D01*
X139666666Y-62428571D01*
X139761904Y-62380952D01*
X139238095Y-61952380D02*
X138619047Y-61952380D01*
X138952380Y-62333333D01*
X138809523Y-62333333D01*
X138714285Y-62380952D01*
X138666666Y-62428571D01*
X138619047Y-62523809D01*
X138619047Y-62761904D01*
X138666666Y-62857142D01*
X138714285Y-62904761D01*
X138809523Y-62952380D01*
X139095238Y-62952380D01*
X139190476Y-62904761D01*
X139238095Y-62857142D01*
X148452380Y-64078571D02*
X148309523Y-64126190D01*
X148261904Y-64173809D01*
X148214285Y-64269047D01*
X148214285Y-64411904D01*
X148261904Y-64507142D01*
X148309523Y-64554761D01*
X148404761Y-64602380D01*
X148785714Y-64602380D01*
X148785714Y-63602380D01*
X148452380Y-63602380D01*
X148357142Y-63650000D01*
X148309523Y-63697619D01*
X148261904Y-63792857D01*
X148261904Y-63888095D01*
X148309523Y-63983333D01*
X148357142Y-64030952D01*
X148452380Y-64078571D01*
X148785714Y-64078571D01*
X147785714Y-63935714D02*
X147785714Y-64792857D01*
X147833333Y-64888095D01*
X147928571Y-64935714D01*
X147976190Y-64935714D01*
X147785714Y-63602380D02*
X147833333Y-63650000D01*
X147785714Y-63697619D01*
X147738095Y-63650000D01*
X147785714Y-63602380D01*
X147785714Y-63697619D01*
X146785714Y-63935714D02*
X147404761Y-64602380D01*
X147166666Y-64602380D02*
X147261904Y-64554761D01*
X147309523Y-64507142D01*
X147357142Y-64411904D01*
X147357142Y-64126190D01*
X147309523Y-64030952D01*
X147261904Y-63983333D01*
X147166666Y-63935714D01*
X147023809Y-63935714D01*
X146928571Y-63983333D01*
X146880952Y-64030952D01*
X146833333Y-64126190D01*
X146833333Y-64411904D01*
X146880952Y-64507142D01*
X146928571Y-64554761D01*
X147023809Y-64602380D01*
X147166666Y-64602380D01*
X146404761Y-64602380D02*
X146404761Y-63935714D01*
X146404761Y-64126190D02*
X146357142Y-64030952D01*
X146309523Y-63983333D01*
X146214285Y-63935714D01*
X146119047Y-63935714D01*
X145785714Y-63935714D02*
X145785714Y-64602380D01*
X145785714Y-64030952D02*
X145738095Y-63983333D01*
X145642857Y-63935714D01*
X145500000Y-63935714D01*
X145404761Y-63983333D01*
X145357142Y-64078571D01*
X145357142Y-64602380D01*
X144500000Y-64554761D02*
X144595238Y-64602380D01*
X144785714Y-64602380D01*
X144880952Y-64554761D01*
X144928571Y-64459523D01*
X144928571Y-64078571D01*
X144880952Y-63983333D01*
X144785714Y-63935714D01*
X144595238Y-63935714D01*
X144500000Y-63983333D01*
X144452380Y-64078571D01*
X144452380Y-64173809D01*
X144928571Y-64269047D01*
X144023809Y-64602380D02*
X144023809Y-63935714D01*
X144023809Y-64126190D02*
X143976190Y-64030952D01*
X143928571Y-63983333D01*
X143833333Y-63935714D01*
X143738095Y-63935714D01*
X142690476Y-64554761D02*
X142547619Y-64602380D01*
X142309523Y-64602380D01*
X142214285Y-64554761D01*
X142166666Y-64507142D01*
X142119047Y-64411904D01*
X142119047Y-64316666D01*
X142166666Y-64221428D01*
X142214285Y-64173809D01*
X142309523Y-64126190D01*
X142500000Y-64078571D01*
X142595238Y-64030952D01*
X142642857Y-63983333D01*
X142690476Y-63888095D01*
X142690476Y-63792857D01*
X142642857Y-63697619D01*
X142595238Y-63650000D01*
X142500000Y-63602380D01*
X142261904Y-63602380D01*
X142119047Y-63650000D01*
X141261904Y-64602380D02*
X141261904Y-64078571D01*
X141309523Y-63983333D01*
X141404761Y-63935714D01*
X141595238Y-63935714D01*
X141690476Y-63983333D01*
X141261904Y-64554761D02*
X141357142Y-64602380D01*
X141595238Y-64602380D01*
X141690476Y-64554761D01*
X141738095Y-64459523D01*
X141738095Y-64364285D01*
X141690476Y-64269047D01*
X141595238Y-64221428D01*
X141357142Y-64221428D01*
X141261904Y-64173809D01*
X140785714Y-63935714D02*
X140785714Y-64602380D01*
X140785714Y-64030952D02*
X140738095Y-63983333D01*
X140642857Y-63935714D01*
X140500000Y-63935714D01*
X140404761Y-63983333D01*
X140357142Y-64078571D01*
X140357142Y-64602380D01*
X139452380Y-64602380D02*
X139452380Y-63602380D01*
X139452380Y-64554761D02*
X139547619Y-64602380D01*
X139738095Y-64602380D01*
X139833333Y-64554761D01*
X139880952Y-64507142D01*
X139928571Y-64411904D01*
X139928571Y-64126190D01*
X139880952Y-64030952D01*
X139833333Y-63983333D01*
X139738095Y-63935714D01*
X139547619Y-63935714D01*
X139452380Y-63983333D01*
X138833333Y-64602380D02*
X138928571Y-64554761D01*
X138976190Y-64507142D01*
X139023809Y-64411904D01*
X139023809Y-64126190D01*
X138976190Y-64030952D01*
X138928571Y-63983333D01*
X138833333Y-63935714D01*
X138690476Y-63935714D01*
X138595238Y-63983333D01*
X138547619Y-64030952D01*
X138500000Y-64126190D01*
X138500000Y-64411904D01*
X138547619Y-64507142D01*
X138595238Y-64554761D01*
X138690476Y-64602380D01*
X138833333Y-64602380D01*
X138071428Y-64602380D02*
X138071428Y-63935714D01*
X138071428Y-64030952D02*
X138023809Y-63983333D01*
X137928571Y-63935714D01*
X137785714Y-63935714D01*
X137690476Y-63983333D01*
X137642857Y-64078571D01*
X137642857Y-64602380D01*
X137642857Y-64078571D02*
X137595238Y-63983333D01*
X137500000Y-63935714D01*
X137357142Y-63935714D01*
X137261904Y-63983333D01*
X137214285Y-64078571D01*
X137214285Y-64602380D01*
%LPC*%
D11*
X143000000Y-45500000D03*
X150500000Y-132250000D03*
X135500000Y-132250000D03*
D12*
X143030499Y-91600000D03*
D13*
G36*
X135681000Y-72717000D02*
G01*
X135681000Y-70717000D01*
X135682205Y-70717000D01*
X135682205Y-70667932D01*
X135691823Y-70570270D01*
X135710969Y-70474020D01*
X135739456Y-70380110D01*
X135777011Y-70289445D01*
X135823271Y-70202897D01*
X135877792Y-70121301D01*
X135940049Y-70045441D01*
X136009441Y-69976049D01*
X136085301Y-69913792D01*
X136166897Y-69859271D01*
X136253445Y-69813011D01*
X136344110Y-69775456D01*
X136438020Y-69746969D01*
X136534270Y-69727823D01*
X136631932Y-69718205D01*
X136730068Y-69718205D01*
X136827730Y-69727823D01*
X136923980Y-69746969D01*
X137017890Y-69775456D01*
X137108555Y-69813011D01*
X137195103Y-69859271D01*
X137276699Y-69913792D01*
X137352559Y-69976049D01*
X137421951Y-70045441D01*
X137484208Y-70121301D01*
X137538729Y-70202897D01*
X137584989Y-70289445D01*
X137622544Y-70380110D01*
X137651031Y-70474020D01*
X137670177Y-70570270D01*
X137679795Y-70667932D01*
X137679795Y-70717000D01*
X137681000Y-70717000D01*
X137681000Y-72717000D01*
X135681000Y-72717000D01*
G37*
G36*
X138221000Y-72717000D02*
G01*
X138221000Y-70717000D01*
X138222205Y-70717000D01*
X138222205Y-70667932D01*
X138231823Y-70570270D01*
X138250969Y-70474020D01*
X138279456Y-70380110D01*
X138317011Y-70289445D01*
X138363271Y-70202897D01*
X138417792Y-70121301D01*
X138480049Y-70045441D01*
X138549441Y-69976049D01*
X138625301Y-69913792D01*
X138706897Y-69859271D01*
X138793445Y-69813011D01*
X138884110Y-69775456D01*
X138978020Y-69746969D01*
X139074270Y-69727823D01*
X139171932Y-69718205D01*
X139270068Y-69718205D01*
X139367730Y-69727823D01*
X139463980Y-69746969D01*
X139557890Y-69775456D01*
X139648555Y-69813011D01*
X139735103Y-69859271D01*
X139816699Y-69913792D01*
X139892559Y-69976049D01*
X139961951Y-70045441D01*
X140024208Y-70121301D01*
X140078729Y-70202897D01*
X140124989Y-70289445D01*
X140162544Y-70380110D01*
X140191031Y-70474020D01*
X140210177Y-70570270D01*
X140219795Y-70667932D01*
X140219795Y-70717000D01*
X140221000Y-70717000D01*
X140221000Y-72717000D01*
X138221000Y-72717000D01*
G37*
G36*
X140761000Y-72717000D02*
G01*
X140761000Y-70717000D01*
X140762205Y-70717000D01*
X140762205Y-70667932D01*
X140771823Y-70570270D01*
X140790969Y-70474020D01*
X140819456Y-70380110D01*
X140857011Y-70289445D01*
X140903271Y-70202897D01*
X140957792Y-70121301D01*
X141020049Y-70045441D01*
X141089441Y-69976049D01*
X141165301Y-69913792D01*
X141246897Y-69859271D01*
X141333445Y-69813011D01*
X141424110Y-69775456D01*
X141518020Y-69746969D01*
X141614270Y-69727823D01*
X141711932Y-69718205D01*
X141810068Y-69718205D01*
X141907730Y-69727823D01*
X142003980Y-69746969D01*
X142097890Y-69775456D01*
X142188555Y-69813011D01*
X142275103Y-69859271D01*
X142356699Y-69913792D01*
X142432559Y-69976049D01*
X142501951Y-70045441D01*
X142564208Y-70121301D01*
X142618729Y-70202897D01*
X142664989Y-70289445D01*
X142702544Y-70380110D01*
X142731031Y-70474020D01*
X142750177Y-70570270D01*
X142759795Y-70667932D01*
X142759795Y-70717000D01*
X142761000Y-70717000D01*
X142761000Y-72717000D01*
X140761000Y-72717000D01*
G37*
G36*
X143301000Y-72717000D02*
G01*
X143301000Y-70717000D01*
X143302205Y-70717000D01*
X143302205Y-70667932D01*
X143311823Y-70570270D01*
X143330969Y-70474020D01*
X143359456Y-70380110D01*
X143397011Y-70289445D01*
X143443271Y-70202897D01*
X143497792Y-70121301D01*
X143560049Y-70045441D01*
X143629441Y-69976049D01*
X143705301Y-69913792D01*
X143786897Y-69859271D01*
X143873445Y-69813011D01*
X143964110Y-69775456D01*
X144058020Y-69746969D01*
X144154270Y-69727823D01*
X144251932Y-69718205D01*
X144350068Y-69718205D01*
X144447730Y-69727823D01*
X144543980Y-69746969D01*
X144637890Y-69775456D01*
X144728555Y-69813011D01*
X144815103Y-69859271D01*
X144896699Y-69913792D01*
X144972559Y-69976049D01*
X145041951Y-70045441D01*
X145104208Y-70121301D01*
X145158729Y-70202897D01*
X145204989Y-70289445D01*
X145242544Y-70380110D01*
X145271031Y-70474020D01*
X145290177Y-70570270D01*
X145299795Y-70667932D01*
X145299795Y-70717000D01*
X145301000Y-70717000D01*
X145301000Y-72717000D01*
X143301000Y-72717000D01*
G37*
G36*
X145841000Y-72717000D02*
G01*
X145841000Y-70717000D01*
X145842205Y-70717000D01*
X145842205Y-70667932D01*
X145851823Y-70570270D01*
X145870969Y-70474020D01*
X145899456Y-70380110D01*
X145937011Y-70289445D01*
X145983271Y-70202897D01*
X146037792Y-70121301D01*
X146100049Y-70045441D01*
X146169441Y-69976049D01*
X146245301Y-69913792D01*
X146326897Y-69859271D01*
X146413445Y-69813011D01*
X146504110Y-69775456D01*
X146598020Y-69746969D01*
X146694270Y-69727823D01*
X146791932Y-69718205D01*
X146890068Y-69718205D01*
X146987730Y-69727823D01*
X147083980Y-69746969D01*
X147177890Y-69775456D01*
X147268555Y-69813011D01*
X147355103Y-69859271D01*
X147436699Y-69913792D01*
X147512559Y-69976049D01*
X147581951Y-70045441D01*
X147644208Y-70121301D01*
X147698729Y-70202897D01*
X147744989Y-70289445D01*
X147782544Y-70380110D01*
X147811031Y-70474020D01*
X147830177Y-70570270D01*
X147839795Y-70667932D01*
X147839795Y-70717000D01*
X147841000Y-70717000D01*
X147841000Y-72717000D01*
X145841000Y-72717000D01*
G37*
G36*
X148381000Y-72717000D02*
G01*
X148381000Y-70717000D01*
X148382205Y-70717000D01*
X148382205Y-70667932D01*
X148391823Y-70570270D01*
X148410969Y-70474020D01*
X148439456Y-70380110D01*
X148477011Y-70289445D01*
X148523271Y-70202897D01*
X148577792Y-70121301D01*
X148640049Y-70045441D01*
X148709441Y-69976049D01*
X148785301Y-69913792D01*
X148866897Y-69859271D01*
X148953445Y-69813011D01*
X149044110Y-69775456D01*
X149138020Y-69746969D01*
X149234270Y-69727823D01*
X149331932Y-69718205D01*
X149430068Y-69718205D01*
X149527730Y-69727823D01*
X149623980Y-69746969D01*
X149717890Y-69775456D01*
X149808555Y-69813011D01*
X149895103Y-69859271D01*
X149976699Y-69913792D01*
X150052559Y-69976049D01*
X150121951Y-70045441D01*
X150184208Y-70121301D01*
X150238729Y-70202897D01*
X150284989Y-70289445D01*
X150322544Y-70380110D01*
X150351031Y-70474020D01*
X150370177Y-70570270D01*
X150379795Y-70667932D01*
X150379795Y-70717000D01*
X150381000Y-70717000D01*
X150381000Y-72717000D01*
X148381000Y-72717000D01*
G37*
D14*
X132950000Y-88000000D03*
X153000000Y-88000000D03*
D15*
X149500000Y-121300000D03*
X146960000Y-121300000D03*
X144420000Y-121300000D03*
X141880000Y-121300000D03*
X139340000Y-121300000D03*
D16*
X136800000Y-121300000D03*
M02*
