G04 #@! TF.GenerationSoftware,KiCad,Pcbnew,(5.1.10)-1*
G04 #@! TF.CreationDate,2021-11-26T17:39:24+01:00*
G04 #@! TF.ProjectId,Transmitter,5472616e-736d-4697-9474-65722e6b6963,rev?*
G04 #@! TF.SameCoordinates,Original*
G04 #@! TF.FileFunction,Soldermask,Bot*
G04 #@! TF.FilePolarity,Negative*
%FSLAX46Y46*%
G04 Gerber Fmt 4.6, Leading zero omitted, Abs format (unit mm)*
G04 Created by KiCad (PCBNEW (5.1.10)-1) date 2021-11-26 17:39:24*
%MOMM*%
%LPD*%
G01*
G04 APERTURE LIST*
%ADD10C,3.200000*%
%ADD11R,2.514000X3.200000*%
%ADD12C,0.100000*%
%ADD13C,3.000000*%
%ADD14O,1.700000X1.700000*%
%ADD15R,1.700000X1.700000*%
G04 APERTURE END LIST*
D10*
X143000000Y-45500000D03*
X150500000Y-132250000D03*
X135500000Y-132250000D03*
D11*
X143030499Y-91600000D03*
D12*
G36*
X135681000Y-72717000D02*
G01*
X135681000Y-70717000D01*
X135682205Y-70717000D01*
X135682205Y-70667932D01*
X135691823Y-70570270D01*
X135710969Y-70474020D01*
X135739456Y-70380110D01*
X135777011Y-70289445D01*
X135823271Y-70202897D01*
X135877792Y-70121301D01*
X135940049Y-70045441D01*
X136009441Y-69976049D01*
X136085301Y-69913792D01*
X136166897Y-69859271D01*
X136253445Y-69813011D01*
X136344110Y-69775456D01*
X136438020Y-69746969D01*
X136534270Y-69727823D01*
X136631932Y-69718205D01*
X136730068Y-69718205D01*
X136827730Y-69727823D01*
X136923980Y-69746969D01*
X137017890Y-69775456D01*
X137108555Y-69813011D01*
X137195103Y-69859271D01*
X137276699Y-69913792D01*
X137352559Y-69976049D01*
X137421951Y-70045441D01*
X137484208Y-70121301D01*
X137538729Y-70202897D01*
X137584989Y-70289445D01*
X137622544Y-70380110D01*
X137651031Y-70474020D01*
X137670177Y-70570270D01*
X137679795Y-70667932D01*
X137679795Y-70717000D01*
X137681000Y-70717000D01*
X137681000Y-72717000D01*
X135681000Y-72717000D01*
G37*
G36*
X138221000Y-72717000D02*
G01*
X138221000Y-70717000D01*
X138222205Y-70717000D01*
X138222205Y-70667932D01*
X138231823Y-70570270D01*
X138250969Y-70474020D01*
X138279456Y-70380110D01*
X138317011Y-70289445D01*
X138363271Y-70202897D01*
X138417792Y-70121301D01*
X138480049Y-70045441D01*
X138549441Y-69976049D01*
X138625301Y-69913792D01*
X138706897Y-69859271D01*
X138793445Y-69813011D01*
X138884110Y-69775456D01*
X138978020Y-69746969D01*
X139074270Y-69727823D01*
X139171932Y-69718205D01*
X139270068Y-69718205D01*
X139367730Y-69727823D01*
X139463980Y-69746969D01*
X139557890Y-69775456D01*
X139648555Y-69813011D01*
X139735103Y-69859271D01*
X139816699Y-69913792D01*
X139892559Y-69976049D01*
X139961951Y-70045441D01*
X140024208Y-70121301D01*
X140078729Y-70202897D01*
X140124989Y-70289445D01*
X140162544Y-70380110D01*
X140191031Y-70474020D01*
X140210177Y-70570270D01*
X140219795Y-70667932D01*
X140219795Y-70717000D01*
X140221000Y-70717000D01*
X140221000Y-72717000D01*
X138221000Y-72717000D01*
G37*
G36*
X140761000Y-72717000D02*
G01*
X140761000Y-70717000D01*
X140762205Y-70717000D01*
X140762205Y-70667932D01*
X140771823Y-70570270D01*
X140790969Y-70474020D01*
X140819456Y-70380110D01*
X140857011Y-70289445D01*
X140903271Y-70202897D01*
X140957792Y-70121301D01*
X141020049Y-70045441D01*
X141089441Y-69976049D01*
X141165301Y-69913792D01*
X141246897Y-69859271D01*
X141333445Y-69813011D01*
X141424110Y-69775456D01*
X141518020Y-69746969D01*
X141614270Y-69727823D01*
X141711932Y-69718205D01*
X141810068Y-69718205D01*
X141907730Y-69727823D01*
X142003980Y-69746969D01*
X142097890Y-69775456D01*
X142188555Y-69813011D01*
X142275103Y-69859271D01*
X142356699Y-69913792D01*
X142432559Y-69976049D01*
X142501951Y-70045441D01*
X142564208Y-70121301D01*
X142618729Y-70202897D01*
X142664989Y-70289445D01*
X142702544Y-70380110D01*
X142731031Y-70474020D01*
X142750177Y-70570270D01*
X142759795Y-70667932D01*
X142759795Y-70717000D01*
X142761000Y-70717000D01*
X142761000Y-72717000D01*
X140761000Y-72717000D01*
G37*
G36*
X143301000Y-72717000D02*
G01*
X143301000Y-70717000D01*
X143302205Y-70717000D01*
X143302205Y-70667932D01*
X143311823Y-70570270D01*
X143330969Y-70474020D01*
X143359456Y-70380110D01*
X143397011Y-70289445D01*
X143443271Y-70202897D01*
X143497792Y-70121301D01*
X143560049Y-70045441D01*
X143629441Y-69976049D01*
X143705301Y-69913792D01*
X143786897Y-69859271D01*
X143873445Y-69813011D01*
X143964110Y-69775456D01*
X144058020Y-69746969D01*
X144154270Y-69727823D01*
X144251932Y-69718205D01*
X144350068Y-69718205D01*
X144447730Y-69727823D01*
X144543980Y-69746969D01*
X144637890Y-69775456D01*
X144728555Y-69813011D01*
X144815103Y-69859271D01*
X144896699Y-69913792D01*
X144972559Y-69976049D01*
X145041951Y-70045441D01*
X145104208Y-70121301D01*
X145158729Y-70202897D01*
X145204989Y-70289445D01*
X145242544Y-70380110D01*
X145271031Y-70474020D01*
X145290177Y-70570270D01*
X145299795Y-70667932D01*
X145299795Y-70717000D01*
X145301000Y-70717000D01*
X145301000Y-72717000D01*
X143301000Y-72717000D01*
G37*
G36*
X145841000Y-72717000D02*
G01*
X145841000Y-70717000D01*
X145842205Y-70717000D01*
X145842205Y-70667932D01*
X145851823Y-70570270D01*
X145870969Y-70474020D01*
X145899456Y-70380110D01*
X145937011Y-70289445D01*
X145983271Y-70202897D01*
X146037792Y-70121301D01*
X146100049Y-70045441D01*
X146169441Y-69976049D01*
X146245301Y-69913792D01*
X146326897Y-69859271D01*
X146413445Y-69813011D01*
X146504110Y-69775456D01*
X146598020Y-69746969D01*
X146694270Y-69727823D01*
X146791932Y-69718205D01*
X146890068Y-69718205D01*
X146987730Y-69727823D01*
X147083980Y-69746969D01*
X147177890Y-69775456D01*
X147268555Y-69813011D01*
X147355103Y-69859271D01*
X147436699Y-69913792D01*
X147512559Y-69976049D01*
X147581951Y-70045441D01*
X147644208Y-70121301D01*
X147698729Y-70202897D01*
X147744989Y-70289445D01*
X147782544Y-70380110D01*
X147811031Y-70474020D01*
X147830177Y-70570270D01*
X147839795Y-70667932D01*
X147839795Y-70717000D01*
X147841000Y-70717000D01*
X147841000Y-72717000D01*
X145841000Y-72717000D01*
G37*
G36*
X148381000Y-72717000D02*
G01*
X148381000Y-70717000D01*
X148382205Y-70717000D01*
X148382205Y-70667932D01*
X148391823Y-70570270D01*
X148410969Y-70474020D01*
X148439456Y-70380110D01*
X148477011Y-70289445D01*
X148523271Y-70202897D01*
X148577792Y-70121301D01*
X148640049Y-70045441D01*
X148709441Y-69976049D01*
X148785301Y-69913792D01*
X148866897Y-69859271D01*
X148953445Y-69813011D01*
X149044110Y-69775456D01*
X149138020Y-69746969D01*
X149234270Y-69727823D01*
X149331932Y-69718205D01*
X149430068Y-69718205D01*
X149527730Y-69727823D01*
X149623980Y-69746969D01*
X149717890Y-69775456D01*
X149808555Y-69813011D01*
X149895103Y-69859271D01*
X149976699Y-69913792D01*
X150052559Y-69976049D01*
X150121951Y-70045441D01*
X150184208Y-70121301D01*
X150238729Y-70202897D01*
X150284989Y-70289445D01*
X150322544Y-70380110D01*
X150351031Y-70474020D01*
X150370177Y-70570270D01*
X150379795Y-70667932D01*
X150379795Y-70717000D01*
X150381000Y-70717000D01*
X150381000Y-72717000D01*
X148381000Y-72717000D01*
G37*
D13*
X132950000Y-88000000D03*
X153000000Y-88000000D03*
D14*
X149500000Y-121300000D03*
X146960000Y-121300000D03*
X144420000Y-121300000D03*
X141880000Y-121300000D03*
X139340000Y-121300000D03*
D15*
X136800000Y-121300000D03*
M02*
