M48
; DRILL file {KiCad (5.1.10)-1} date 10/15/21 17:24:36
; FORMAT={-:-/ absolute / metric / decimal}
; #@! TF.CreationDate,2021-10-15T17:24:36+02:00
; #@! TF.GenerationSoftware,Kicad,Pcbnew,(5.1.10)-1
; #@! TF.FileFunction,Plated,1,2,PTH
FMAT,2
METRIC
T1C0.400
T2C0.800
T3C1.000
T4C1.200
T5C1.300
T6C1.500
%
G90
G05
T1
X152.825Y-120.225
X152.9Y-86.45
X152.9Y-101.35
X153.4Y-118.275
X154.425Y-126.75
X155.925Y-125.175
X159.687Y-126.713
X160.9Y-125.5
X161.5Y-101.6
X162.7Y-123.7
X163.5Y-102.0
X167.525Y-96.875
X169.0Y-117.6
X170.3Y-96.9
X170.6Y-117.2
X172.513Y-96.963
X174.6Y-118.775
X174.9Y-108.575
X174.95Y-111.275
X175.35Y-120.5
X175.725Y-128.75
X176.9Y-96.95
X177.2Y-127.25
X177.6Y-99.25
X177.7Y-108.575
X181.3Y-108.575
X182.8Y-117.325
X184.9Y-86.2
X185.325Y-108.575
X188.987Y-124.512
T2
X156.8Y-106.4
X161.68Y-106.4
T3
X153.46Y-140.25
X156.0Y-140.25
X158.54Y-140.25
X161.28Y-76.0
X163.0Y-132.75
X163.0Y-135.29
X163.0Y-137.83
X163.82Y-76.0
X165.54Y-142.91
X166.36Y-76.0
X168.08Y-132.75
X168.08Y-135.29
X168.08Y-137.83
X168.9Y-76.0
X187.475Y-89.595
X187.475Y-93.555
X187.475Y-97.515
X187.475Y-101.475
X193.6Y-82.5
X193.6Y-92.5
X198.68Y-82.5
X198.68Y-92.5
X200.1Y-129.9
X200.1Y-132.44
X205.2Y-84.09
X205.2Y-86.63
X205.2Y-89.17
X205.2Y-91.71
T4
X173.15Y-89.7
X173.15Y-94.7
X175.75Y-79.0
X180.75Y-79.0
X200.8Y-101.8
X205.8Y-101.8
T5
X176.0Y-142.9
X181.0Y-142.9
X186.0Y-142.9
X196.0Y-143.0
X201.0Y-143.0
X206.0Y-143.0
T6
X157.25Y-98.4
X159.1Y-90.1
X163.95Y-90.1
T0
M30
