G04 #@! TF.GenerationSoftware,KiCad,Pcbnew,(5.1.10)-1*
G04 #@! TF.CreationDate,2021-10-15T17:24:33+02:00*
G04 #@! TF.ProjectId,Transmitter,5472616e-736d-4697-9474-65722e6b6963,rev?*
G04 #@! TF.SameCoordinates,Original*
G04 #@! TF.FileFunction,Copper,L2,Bot*
G04 #@! TF.FilePolarity,Positive*
%FSLAX46Y46*%
G04 Gerber Fmt 4.6, Leading zero omitted, Abs format (unit mm)*
G04 Created by KiCad (PCBNEW (5.1.10)-1) date 2021-10-15 17:24:33*
%MOMM*%
%LPD*%
G01*
G04 APERTURE LIST*
G04 #@! TA.AperFunction,ComponentPad*
%ADD10R,2.514000X3.200000*%
G04 #@! TD*
G04 #@! TA.AperFunction,ComponentPad*
%ADD11C,2.340000*%
G04 #@! TD*
G04 #@! TA.AperFunction,ComponentPad*
%ADD12O,1.700000X1.700000*%
G04 #@! TD*
G04 #@! TA.AperFunction,ComponentPad*
%ADD13R,1.700000X1.700000*%
G04 #@! TD*
G04 #@! TA.AperFunction,ComponentPad*
%ADD14O,2.200000X1.700000*%
G04 #@! TD*
G04 #@! TA.AperFunction,ComponentPad*
%ADD15R,2.200000X1.700000*%
G04 #@! TD*
G04 #@! TA.AperFunction,ComponentPad*
%ADD16C,2.500000*%
G04 #@! TD*
G04 #@! TA.AperFunction,ComponentPad*
%ADD17C,3.000000*%
G04 #@! TD*
G04 #@! TA.AperFunction,ComponentPad*
%ADD18C,2.000000*%
G04 #@! TD*
G04 #@! TA.AperFunction,ComponentPad*
%ADD19O,1.700000X2.200000*%
G04 #@! TD*
G04 #@! TA.AperFunction,ComponentPad*
%ADD20R,1.700000X2.200000*%
G04 #@! TD*
G04 #@! TA.AperFunction,ComponentPad*
%ADD21C,1.500000*%
G04 #@! TD*
G04 #@! TA.AperFunction,ComponentPad*
%ADD22R,2.500000X2.500000*%
G04 #@! TD*
G04 #@! TA.AperFunction,ComponentPad*
%ADD23C,2.400000*%
G04 #@! TD*
G04 #@! TA.AperFunction,ComponentPad*
%ADD24R,2.400000X2.400000*%
G04 #@! TD*
G04 #@! TA.AperFunction,ViaPad*
%ADD25C,0.800000*%
G04 #@! TD*
G04 #@! TA.AperFunction,Conductor*
%ADD26C,0.500000*%
G04 #@! TD*
G04 #@! TA.AperFunction,Conductor*
%ADD27C,0.250000*%
G04 #@! TD*
G04 #@! TA.AperFunction,Conductor*
%ADD28C,0.254000*%
G04 #@! TD*
G04 #@! TA.AperFunction,Conductor*
%ADD29C,0.100000*%
G04 #@! TD*
G04 APERTURE END LIST*
D10*
X157250000Y-98400000D03*
D11*
X196000000Y-143000000D03*
X201000000Y-143000000D03*
X206000000Y-143000000D03*
X176000000Y-142900000D03*
X181000000Y-142900000D03*
X186000000Y-142900000D03*
D12*
X161280000Y-76000000D03*
X163820000Y-76000000D03*
X166360000Y-76000000D03*
D13*
X168900000Y-76000000D03*
D14*
X205200000Y-84090000D03*
X205200000Y-86630000D03*
X205200000Y-89170000D03*
D15*
X205200000Y-91710000D03*
D16*
X173150000Y-94700000D03*
X173150000Y-89700000D03*
D12*
X200100000Y-132440000D03*
D13*
X200100000Y-129900000D03*
D17*
X159100000Y-90100000D03*
X163950000Y-90100000D03*
D18*
X165540000Y-142910000D03*
X168080000Y-137830000D03*
X168080000Y-135290000D03*
X163000000Y-137830000D03*
X163000000Y-135290000D03*
X168080000Y-132750000D03*
X163000000Y-132750000D03*
D19*
X156000000Y-140250000D03*
D20*
X153460000Y-140250000D03*
D19*
X158540000Y-140250000D03*
D21*
X161680000Y-106400000D03*
X156800000Y-106400000D03*
D18*
X198680000Y-82500000D03*
X193600000Y-82500000D03*
X198680000Y-92500000D03*
X193600000Y-92500000D03*
D16*
X187475000Y-89595000D03*
X187475000Y-93555000D03*
X187475000Y-97515000D03*
D22*
X187475000Y-101475000D03*
D23*
X180750000Y-79000000D03*
D24*
X175750000Y-79000000D03*
D23*
X205800000Y-101800000D03*
D24*
X200800000Y-101800000D03*
D25*
X188987500Y-124512500D03*
X162700000Y-123700000D03*
X160900000Y-125500000D03*
X159687347Y-126712653D03*
X161500000Y-101600000D03*
X163500000Y-102000000D03*
X167525010Y-96874990D03*
X170300000Y-96900000D03*
X172512653Y-96962653D03*
X176900000Y-96950000D03*
X177600000Y-99250000D03*
X152900000Y-86450000D03*
X184900000Y-86200000D03*
X177700000Y-108575000D03*
X181300000Y-108575000D03*
X185325000Y-108575000D03*
X154425000Y-126750000D03*
X155925000Y-125175000D03*
X152825000Y-120225000D03*
X153400000Y-118275000D03*
X174600000Y-118775000D03*
X175350000Y-120500000D03*
X175725000Y-128750000D03*
X177200000Y-127250000D03*
X174900000Y-108575000D03*
X174950000Y-111275000D03*
X182799990Y-117325000D03*
X170600000Y-117200000D03*
X169000000Y-117600000D03*
X152900000Y-101350000D03*
D26*
X162700000Y-123700000D02*
X160900000Y-125500000D01*
X160900000Y-125500000D02*
X159687347Y-126712653D01*
X161900000Y-102000000D02*
X161500000Y-101600000D01*
X167525010Y-96874990D02*
X162600000Y-101800000D01*
X162600000Y-101800000D02*
X162600000Y-102000000D01*
X162600000Y-102000000D02*
X161900000Y-102000000D01*
X163500000Y-102000000D02*
X162600000Y-102000000D01*
X172450000Y-96900000D02*
X172512653Y-96962653D01*
X170300000Y-96900000D02*
X172450000Y-96900000D01*
X176900000Y-96950000D02*
X177550000Y-97600000D01*
X177550000Y-99200000D02*
X177600000Y-99250000D01*
X177550000Y-97600000D02*
X177550000Y-99200000D01*
X151475010Y-135505008D02*
X156000000Y-140029998D01*
X156000000Y-140029998D02*
X156000000Y-140250000D01*
X151475010Y-87874990D02*
X151475010Y-135505008D01*
X152900000Y-86450000D02*
X151475010Y-87874990D01*
X164450001Y-106649999D02*
X184900000Y-86200000D01*
X164450001Y-133839999D02*
X164450001Y-106649999D01*
X163000000Y-135290000D02*
X164450001Y-133839999D01*
X177700000Y-108575000D02*
X181300000Y-108575000D01*
X181300000Y-108575000D02*
X185325000Y-108575000D01*
X154425000Y-126675000D02*
X155925000Y-125175000D01*
X154425000Y-126750000D02*
X154425000Y-126675000D01*
X152825000Y-118850000D02*
X153400000Y-118275000D01*
X152825000Y-120225000D02*
X152825000Y-118850000D01*
X174600000Y-119750000D02*
X175350000Y-120500000D01*
X174600000Y-118775000D02*
X174600000Y-119750000D01*
X175725000Y-128725000D02*
X177200000Y-127250000D01*
X175725000Y-128750000D02*
X175725000Y-128725000D01*
X181300000Y-101350000D02*
X177550000Y-97600000D01*
X181300000Y-108575000D02*
X181300000Y-101350000D01*
X177700000Y-108575000D02*
X174900000Y-108575000D01*
D27*
X173350000Y-95550000D02*
X172900000Y-95550000D01*
X198924999Y-135924999D02*
X206000000Y-143000000D01*
X198924999Y-132377007D02*
X198924999Y-135924999D01*
X177822992Y-111275000D02*
X198924999Y-132377007D01*
X174950000Y-111275000D02*
X177822992Y-111275000D01*
X181000000Y-119124990D02*
X182799990Y-117325000D01*
X181000000Y-142900000D02*
X181000000Y-119124990D01*
X169400000Y-117200000D02*
X169000000Y-117600000D01*
X170600000Y-117200000D02*
X169400000Y-117200000D01*
X158962346Y-110153348D02*
X152900000Y-104091002D01*
X158962346Y-135753348D02*
X158962346Y-110153348D01*
X152900000Y-104091002D02*
X152900000Y-101350000D01*
X162250000Y-140150000D02*
X158962346Y-136862346D01*
X158962346Y-136862346D02*
X158962346Y-135753348D01*
X173775000Y-145500000D02*
X168425000Y-140150000D01*
X198500000Y-145500000D02*
X173775000Y-145500000D01*
X201000000Y-143000000D02*
X198500000Y-145500000D01*
X168425000Y-140150000D02*
X162250000Y-140150000D01*
D28*
X161798431Y-101873000D02*
X153481501Y-101873000D01*
X153506642Y-101847859D01*
X153592113Y-101719942D01*
X153650987Y-101577809D01*
X153681000Y-101426922D01*
X153681000Y-101273078D01*
X153650987Y-101122191D01*
X153592113Y-100980058D01*
X153506642Y-100852141D01*
X153397859Y-100743358D01*
X153269942Y-100657887D01*
X153127809Y-100599013D01*
X152976922Y-100569000D01*
X152823078Y-100569000D01*
X152672191Y-100599013D01*
X152530058Y-100657887D01*
X152402141Y-100743358D01*
X152293358Y-100852141D01*
X152207887Y-100980058D01*
X152149013Y-101122191D01*
X152119000Y-101273078D01*
X152119000Y-101426922D01*
X152149013Y-101577809D01*
X152207887Y-101719942D01*
X152293358Y-101847859D01*
X152318499Y-101873000D01*
X152106010Y-101873000D01*
X152106010Y-100000000D01*
X155354928Y-100000000D01*
X155367188Y-100124482D01*
X155403498Y-100244180D01*
X155462463Y-100354494D01*
X155541815Y-100451185D01*
X155638506Y-100530537D01*
X155748820Y-100589502D01*
X155868518Y-100625812D01*
X155993000Y-100638072D01*
X156964250Y-100635000D01*
X157123000Y-100476250D01*
X157123000Y-98527000D01*
X157377000Y-98527000D01*
X157377000Y-100476250D01*
X157535750Y-100635000D01*
X158507000Y-100638072D01*
X158631482Y-100625812D01*
X158751180Y-100589502D01*
X158861494Y-100530537D01*
X158958185Y-100451185D01*
X159037537Y-100354494D01*
X159096502Y-100244180D01*
X159132812Y-100124482D01*
X159145072Y-100000000D01*
X159142000Y-98685750D01*
X158983250Y-98527000D01*
X157377000Y-98527000D01*
X157123000Y-98527000D01*
X155516750Y-98527000D01*
X155358000Y-98685750D01*
X155354928Y-100000000D01*
X152106010Y-100000000D01*
X152106010Y-96800000D01*
X155354928Y-96800000D01*
X155358000Y-98114250D01*
X155516750Y-98273000D01*
X157123000Y-98273000D01*
X157123000Y-96323750D01*
X157377000Y-96323750D01*
X157377000Y-98273000D01*
X158983250Y-98273000D01*
X159142000Y-98114250D01*
X159145072Y-96800000D01*
X159132812Y-96675518D01*
X159096502Y-96555820D01*
X159037537Y-96445506D01*
X158958185Y-96348815D01*
X158861494Y-96269463D01*
X158751180Y-96210498D01*
X158631482Y-96174188D01*
X158507000Y-96161928D01*
X157535750Y-96165000D01*
X157377000Y-96323750D01*
X157123000Y-96323750D01*
X156964250Y-96165000D01*
X155993000Y-96161928D01*
X155868518Y-96174188D01*
X155748820Y-96210498D01*
X155638506Y-96269463D01*
X155541815Y-96348815D01*
X155462463Y-96445506D01*
X155403498Y-96555820D01*
X155367188Y-96675518D01*
X155354928Y-96800000D01*
X152106010Y-96800000D01*
X152106010Y-93127000D01*
X161798431Y-93127000D01*
X161798431Y-101873000D01*
G04 #@! TA.AperFunction,Conductor*
D29*
G36*
X161798431Y-101873000D02*
G01*
X153481501Y-101873000D01*
X153506642Y-101847859D01*
X153592113Y-101719942D01*
X153650987Y-101577809D01*
X153681000Y-101426922D01*
X153681000Y-101273078D01*
X153650987Y-101122191D01*
X153592113Y-100980058D01*
X153506642Y-100852141D01*
X153397859Y-100743358D01*
X153269942Y-100657887D01*
X153127809Y-100599013D01*
X152976922Y-100569000D01*
X152823078Y-100569000D01*
X152672191Y-100599013D01*
X152530058Y-100657887D01*
X152402141Y-100743358D01*
X152293358Y-100852141D01*
X152207887Y-100980058D01*
X152149013Y-101122191D01*
X152119000Y-101273078D01*
X152119000Y-101426922D01*
X152149013Y-101577809D01*
X152207887Y-101719942D01*
X152293358Y-101847859D01*
X152318499Y-101873000D01*
X152106010Y-101873000D01*
X152106010Y-100000000D01*
X155354928Y-100000000D01*
X155367188Y-100124482D01*
X155403498Y-100244180D01*
X155462463Y-100354494D01*
X155541815Y-100451185D01*
X155638506Y-100530537D01*
X155748820Y-100589502D01*
X155868518Y-100625812D01*
X155993000Y-100638072D01*
X156964250Y-100635000D01*
X157123000Y-100476250D01*
X157123000Y-98527000D01*
X157377000Y-98527000D01*
X157377000Y-100476250D01*
X157535750Y-100635000D01*
X158507000Y-100638072D01*
X158631482Y-100625812D01*
X158751180Y-100589502D01*
X158861494Y-100530537D01*
X158958185Y-100451185D01*
X159037537Y-100354494D01*
X159096502Y-100244180D01*
X159132812Y-100124482D01*
X159145072Y-100000000D01*
X159142000Y-98685750D01*
X158983250Y-98527000D01*
X157377000Y-98527000D01*
X157123000Y-98527000D01*
X155516750Y-98527000D01*
X155358000Y-98685750D01*
X155354928Y-100000000D01*
X152106010Y-100000000D01*
X152106010Y-96800000D01*
X155354928Y-96800000D01*
X155358000Y-98114250D01*
X155516750Y-98273000D01*
X157123000Y-98273000D01*
X157123000Y-96323750D01*
X157377000Y-96323750D01*
X157377000Y-98273000D01*
X158983250Y-98273000D01*
X159142000Y-98114250D01*
X159145072Y-96800000D01*
X159132812Y-96675518D01*
X159096502Y-96555820D01*
X159037537Y-96445506D01*
X158958185Y-96348815D01*
X158861494Y-96269463D01*
X158751180Y-96210498D01*
X158631482Y-96174188D01*
X158507000Y-96161928D01*
X157535750Y-96165000D01*
X157377000Y-96323750D01*
X157123000Y-96323750D01*
X156964250Y-96165000D01*
X155993000Y-96161928D01*
X155868518Y-96174188D01*
X155748820Y-96210498D01*
X155638506Y-96269463D01*
X155541815Y-96348815D01*
X155462463Y-96445506D01*
X155403498Y-96555820D01*
X155367188Y-96675518D01*
X155354928Y-96800000D01*
X152106010Y-96800000D01*
X152106010Y-93127000D01*
X161798431Y-93127000D01*
X161798431Y-101873000D01*
G37*
G04 #@! TD.AperFunction*
D28*
X210594001Y-146594000D02*
X151406000Y-146594000D01*
X151406000Y-142773983D01*
X164159000Y-142773983D01*
X164159000Y-143046017D01*
X164212071Y-143312823D01*
X164316174Y-143564149D01*
X164467307Y-143790336D01*
X164659664Y-143982693D01*
X164885851Y-144133826D01*
X165137177Y-144237929D01*
X165403983Y-144291000D01*
X165676017Y-144291000D01*
X165942823Y-144237929D01*
X166194149Y-144133826D01*
X166420336Y-143982693D01*
X166612693Y-143790336D01*
X166763826Y-143564149D01*
X166867929Y-143312823D01*
X166921000Y-143046017D01*
X166921000Y-142773983D01*
X166867929Y-142507177D01*
X166763826Y-142255851D01*
X166612693Y-142029664D01*
X166420336Y-141837307D01*
X166194149Y-141686174D01*
X165942823Y-141582071D01*
X165676017Y-141529000D01*
X165403983Y-141529000D01*
X165137177Y-141582071D01*
X164885851Y-141686174D01*
X164659664Y-141837307D01*
X164467307Y-142029664D01*
X164316174Y-142255851D01*
X164212071Y-142507177D01*
X164159000Y-142773983D01*
X151406000Y-142773983D01*
X151406000Y-136328366D01*
X153844790Y-138767157D01*
X152610000Y-138767157D01*
X152535311Y-138774513D01*
X152463492Y-138796299D01*
X152397304Y-138831678D01*
X152339289Y-138879289D01*
X152291678Y-138937304D01*
X152256299Y-139003492D01*
X152234513Y-139075311D01*
X152227157Y-139150000D01*
X152227157Y-141350000D01*
X152234513Y-141424689D01*
X152256299Y-141496508D01*
X152291678Y-141562696D01*
X152339289Y-141620711D01*
X152397304Y-141668322D01*
X152463492Y-141703701D01*
X152535311Y-141725487D01*
X152610000Y-141732843D01*
X154310000Y-141732843D01*
X154384689Y-141725487D01*
X154456508Y-141703701D01*
X154522696Y-141668322D01*
X154580711Y-141620711D01*
X154628322Y-141562696D01*
X154663701Y-141496508D01*
X154685487Y-141424689D01*
X154692843Y-141350000D01*
X154692843Y-139615210D01*
X154798334Y-139720701D01*
X154786812Y-139758683D01*
X154769000Y-139939529D01*
X154769000Y-140560472D01*
X154786812Y-140741318D01*
X154857202Y-140973363D01*
X154971510Y-141187216D01*
X155125341Y-141374660D01*
X155312785Y-141528491D01*
X155526638Y-141642798D01*
X155758683Y-141713188D01*
X156000000Y-141736956D01*
X156241318Y-141713188D01*
X156473363Y-141642798D01*
X156687216Y-141528491D01*
X156874660Y-141374660D01*
X157028491Y-141187216D01*
X157142798Y-140973362D01*
X157213188Y-140741317D01*
X157231000Y-140560471D01*
X157231000Y-139939529D01*
X157309000Y-139939529D01*
X157309000Y-140560472D01*
X157326812Y-140741318D01*
X157397202Y-140973363D01*
X157511510Y-141187216D01*
X157665341Y-141374660D01*
X157852785Y-141528491D01*
X158066638Y-141642798D01*
X158298683Y-141713188D01*
X158540000Y-141736956D01*
X158781318Y-141713188D01*
X159013363Y-141642798D01*
X159227216Y-141528491D01*
X159414660Y-141374660D01*
X159568491Y-141187216D01*
X159682798Y-140973362D01*
X159753188Y-140741317D01*
X159771000Y-140560471D01*
X159771000Y-139939528D01*
X159753188Y-139758682D01*
X159682798Y-139526637D01*
X159568491Y-139312784D01*
X159414660Y-139125340D01*
X159227215Y-138971509D01*
X159013362Y-138857202D01*
X158781317Y-138786812D01*
X158540000Y-138763044D01*
X158298682Y-138786812D01*
X158066637Y-138857202D01*
X157852784Y-138971509D01*
X157665340Y-139125340D01*
X157511509Y-139312785D01*
X157397202Y-139526638D01*
X157326812Y-139758683D01*
X157309000Y-139939529D01*
X157231000Y-139939529D01*
X157231000Y-139939528D01*
X157213188Y-139758682D01*
X157142798Y-139526637D01*
X157028491Y-139312784D01*
X156874660Y-139125340D01*
X156687215Y-138971509D01*
X156473362Y-138857202D01*
X156241317Y-138786812D01*
X156000000Y-138763044D01*
X155758682Y-138786812D01*
X155674668Y-138812297D01*
X152106010Y-135243640D01*
X152106010Y-132254889D01*
X153119000Y-132254889D01*
X153119000Y-132645111D01*
X153195129Y-133027836D01*
X153344461Y-133388355D01*
X153561257Y-133712814D01*
X153837186Y-133988743D01*
X154161645Y-134205539D01*
X154522164Y-134354871D01*
X154904889Y-134431000D01*
X155295111Y-134431000D01*
X155677836Y-134354871D01*
X156038355Y-134205539D01*
X156362814Y-133988743D01*
X156638743Y-133712814D01*
X156855539Y-133388355D01*
X157004871Y-133027836D01*
X157081000Y-132645111D01*
X157081000Y-132254889D01*
X157004871Y-131872164D01*
X156855539Y-131511645D01*
X156638743Y-131187186D01*
X156362814Y-130911257D01*
X156038355Y-130694461D01*
X155677836Y-130545129D01*
X155295111Y-130469000D01*
X154904889Y-130469000D01*
X154522164Y-130545129D01*
X154161645Y-130694461D01*
X153837186Y-130911257D01*
X153561257Y-131187186D01*
X153344461Y-131511645D01*
X153195129Y-131872164D01*
X153119000Y-132254889D01*
X152106010Y-132254889D01*
X152106010Y-126673078D01*
X153644000Y-126673078D01*
X153644000Y-126826922D01*
X153674013Y-126977809D01*
X153732887Y-127119942D01*
X153818358Y-127247859D01*
X153927141Y-127356642D01*
X154055058Y-127442113D01*
X154197191Y-127500987D01*
X154348078Y-127531000D01*
X154501922Y-127531000D01*
X154652809Y-127500987D01*
X154794942Y-127442113D01*
X154922859Y-127356642D01*
X155031642Y-127247859D01*
X155117113Y-127119942D01*
X155175987Y-126977809D01*
X155206000Y-126826922D01*
X155206000Y-126786368D01*
X156044922Y-125947447D01*
X156152809Y-125925987D01*
X156294942Y-125867113D01*
X156422859Y-125781642D01*
X156531642Y-125672859D01*
X156617113Y-125544942D01*
X156675987Y-125402809D01*
X156706000Y-125251922D01*
X156706000Y-125098078D01*
X156675987Y-124947191D01*
X156617113Y-124805058D01*
X156531642Y-124677141D01*
X156422859Y-124568358D01*
X156294942Y-124482887D01*
X156152809Y-124424013D01*
X156001922Y-124394000D01*
X155848078Y-124394000D01*
X155697191Y-124424013D01*
X155555058Y-124482887D01*
X155427141Y-124568358D01*
X155318358Y-124677141D01*
X155232887Y-124805058D01*
X155174013Y-124947191D01*
X155152553Y-125055078D01*
X154211456Y-125996175D01*
X154197191Y-125999013D01*
X154055058Y-126057887D01*
X153927141Y-126143358D01*
X153818358Y-126252141D01*
X153732887Y-126380058D01*
X153674013Y-126522191D01*
X153644000Y-126673078D01*
X152106010Y-126673078D01*
X152106010Y-120530056D01*
X152132887Y-120594942D01*
X152218358Y-120722859D01*
X152327141Y-120831642D01*
X152455058Y-120917113D01*
X152597191Y-120975987D01*
X152748078Y-121006000D01*
X152901922Y-121006000D01*
X153052809Y-120975987D01*
X153194942Y-120917113D01*
X153322859Y-120831642D01*
X153431642Y-120722859D01*
X153517113Y-120594942D01*
X153575987Y-120452809D01*
X153606000Y-120301922D01*
X153606000Y-120148078D01*
X153575987Y-119997191D01*
X153517113Y-119855058D01*
X153456000Y-119763595D01*
X153456000Y-119111368D01*
X153519921Y-119047447D01*
X153627809Y-119025987D01*
X153769942Y-118967113D01*
X153897859Y-118881642D01*
X154006642Y-118772859D01*
X154092113Y-118644942D01*
X154150987Y-118502809D01*
X154181000Y-118351922D01*
X154181000Y-118198078D01*
X154150987Y-118047191D01*
X154092113Y-117905058D01*
X154006642Y-117777141D01*
X153897859Y-117668358D01*
X153769942Y-117582887D01*
X153627809Y-117524013D01*
X153476922Y-117494000D01*
X153323078Y-117494000D01*
X153172191Y-117524013D01*
X153030058Y-117582887D01*
X152902141Y-117668358D01*
X152793358Y-117777141D01*
X152707887Y-117905058D01*
X152649013Y-118047191D01*
X152627553Y-118155079D01*
X152400732Y-118381899D01*
X152376658Y-118401657D01*
X152356900Y-118425732D01*
X152356897Y-118425735D01*
X152297804Y-118497740D01*
X152239211Y-118607359D01*
X152203130Y-118726303D01*
X152190948Y-118850000D01*
X152194001Y-118881000D01*
X152194000Y-119763595D01*
X152132887Y-119855058D01*
X152106010Y-119919944D01*
X152106010Y-103127000D01*
X152394000Y-103127000D01*
X152394000Y-104066156D01*
X152391553Y-104091002D01*
X152394000Y-104115848D01*
X152394000Y-104115855D01*
X152401322Y-104190194D01*
X152430255Y-104285576D01*
X152477241Y-104373481D01*
X152540473Y-104450529D01*
X152559785Y-104466378D01*
X158456347Y-110362941D01*
X158456346Y-135778201D01*
X158456347Y-135778211D01*
X158456346Y-136837499D01*
X158453899Y-136862346D01*
X158456346Y-136887192D01*
X158456346Y-136887199D01*
X158463668Y-136961538D01*
X158492601Y-137056920D01*
X158539587Y-137144825D01*
X158602819Y-137221873D01*
X158622131Y-137237722D01*
X161874628Y-140490220D01*
X161890473Y-140509527D01*
X161967521Y-140572759D01*
X162048020Y-140615787D01*
X162055425Y-140619745D01*
X162150807Y-140648678D01*
X162250000Y-140658448D01*
X162274854Y-140656000D01*
X168215409Y-140656000D01*
X173399628Y-145840220D01*
X173415473Y-145859527D01*
X173492521Y-145922759D01*
X173580425Y-145969745D01*
X173675807Y-145998678D01*
X173775000Y-146008448D01*
X173799854Y-146006000D01*
X198475154Y-146006000D01*
X198500000Y-146008447D01*
X198524846Y-146006000D01*
X198524854Y-146006000D01*
X198599193Y-145998678D01*
X198694575Y-145969745D01*
X198782479Y-145922759D01*
X198859527Y-145859527D01*
X198875376Y-145840215D01*
X200318915Y-144396676D01*
X200547590Y-144491396D01*
X200847240Y-144551000D01*
X201152760Y-144551000D01*
X201452410Y-144491396D01*
X201734674Y-144374479D01*
X201988705Y-144204741D01*
X202204741Y-143988705D01*
X202374479Y-143734674D01*
X202491396Y-143452410D01*
X202551000Y-143152760D01*
X202551000Y-142847240D01*
X202491396Y-142547590D01*
X202374479Y-142265326D01*
X202204741Y-142011295D01*
X201988705Y-141795259D01*
X201734674Y-141625521D01*
X201452410Y-141508604D01*
X201152760Y-141449000D01*
X200847240Y-141449000D01*
X200547590Y-141508604D01*
X200265326Y-141625521D01*
X200011295Y-141795259D01*
X199795259Y-142011295D01*
X199625521Y-142265326D01*
X199508604Y-142547590D01*
X199449000Y-142847240D01*
X199449000Y-143152760D01*
X199508604Y-143452410D01*
X199603324Y-143681085D01*
X198290409Y-144994000D01*
X173984592Y-144994000D01*
X173147194Y-144156602D01*
X174923003Y-144156602D01*
X175039275Y-144438389D01*
X175357860Y-144596257D01*
X175701122Y-144688938D01*
X176055869Y-144712873D01*
X176408470Y-144667139D01*
X176745373Y-144553495D01*
X176960725Y-144438389D01*
X177076997Y-144156602D01*
X176000000Y-143079605D01*
X174923003Y-144156602D01*
X173147194Y-144156602D01*
X171946461Y-142955869D01*
X174187127Y-142955869D01*
X174232861Y-143308470D01*
X174346505Y-143645373D01*
X174461611Y-143860725D01*
X174743398Y-143976997D01*
X175820395Y-142900000D01*
X176179605Y-142900000D01*
X177256602Y-143976997D01*
X177538389Y-143860725D01*
X177696257Y-143542140D01*
X177788938Y-143198878D01*
X177812873Y-142844131D01*
X177767139Y-142491530D01*
X177653495Y-142154627D01*
X177538389Y-141939275D01*
X177256602Y-141823003D01*
X176179605Y-142900000D01*
X175820395Y-142900000D01*
X174743398Y-141823003D01*
X174461611Y-141939275D01*
X174303743Y-142257860D01*
X174211062Y-142601122D01*
X174187127Y-142955869D01*
X171946461Y-142955869D01*
X170633990Y-141643398D01*
X174923003Y-141643398D01*
X176000000Y-142720395D01*
X177076997Y-141643398D01*
X176960725Y-141361611D01*
X176642140Y-141203743D01*
X176298878Y-141111062D01*
X175944131Y-141087127D01*
X175591530Y-141132861D01*
X175254627Y-141246505D01*
X175039275Y-141361611D01*
X174923003Y-141643398D01*
X170633990Y-141643398D01*
X168800376Y-139809785D01*
X168784527Y-139790473D01*
X168707479Y-139727241D01*
X168619575Y-139680255D01*
X168524193Y-139651322D01*
X168449854Y-139644000D01*
X168449846Y-139644000D01*
X168425000Y-139641553D01*
X168400154Y-139644000D01*
X162459592Y-139644000D01*
X159468346Y-136652755D01*
X159468346Y-132613983D01*
X161619000Y-132613983D01*
X161619000Y-132886017D01*
X161672071Y-133152823D01*
X161776174Y-133404149D01*
X161927307Y-133630336D01*
X162119664Y-133822693D01*
X162345851Y-133973826D01*
X162457325Y-134020000D01*
X162345851Y-134066174D01*
X162119664Y-134217307D01*
X161927307Y-134409664D01*
X161776174Y-134635851D01*
X161672071Y-134887177D01*
X161619000Y-135153983D01*
X161619000Y-135426017D01*
X161672071Y-135692823D01*
X161776174Y-135944149D01*
X161927307Y-136170336D01*
X162119664Y-136362693D01*
X162345851Y-136513826D01*
X162457325Y-136560000D01*
X162345851Y-136606174D01*
X162119664Y-136757307D01*
X161927307Y-136949664D01*
X161776174Y-137175851D01*
X161672071Y-137427177D01*
X161619000Y-137693983D01*
X161619000Y-137966017D01*
X161672071Y-138232823D01*
X161776174Y-138484149D01*
X161927307Y-138710336D01*
X162119664Y-138902693D01*
X162345851Y-139053826D01*
X162597177Y-139157929D01*
X162863983Y-139211000D01*
X163136017Y-139211000D01*
X163402823Y-139157929D01*
X163654149Y-139053826D01*
X163880336Y-138902693D01*
X164072693Y-138710336D01*
X164223826Y-138484149D01*
X164327929Y-138232823D01*
X164381000Y-137966017D01*
X164381000Y-137693983D01*
X164327929Y-137427177D01*
X164223826Y-137175851D01*
X164072693Y-136949664D01*
X163880336Y-136757307D01*
X163654149Y-136606174D01*
X163542675Y-136560000D01*
X163654149Y-136513826D01*
X163880336Y-136362693D01*
X164072693Y-136170336D01*
X164223826Y-135944149D01*
X164327929Y-135692823D01*
X164381000Y-135426017D01*
X164381000Y-135153983D01*
X164327929Y-134887177D01*
X164318340Y-134864028D01*
X164874270Y-134308099D01*
X164898344Y-134288342D01*
X164977197Y-134192260D01*
X165035790Y-134082641D01*
X165071871Y-133963697D01*
X165081001Y-133870997D01*
X165081001Y-133870988D01*
X165084053Y-133840000D01*
X165081001Y-133809012D01*
X165081001Y-132613983D01*
X166699000Y-132613983D01*
X166699000Y-132886017D01*
X166752071Y-133152823D01*
X166856174Y-133404149D01*
X167007307Y-133630336D01*
X167199664Y-133822693D01*
X167425851Y-133973826D01*
X167537325Y-134020000D01*
X167425851Y-134066174D01*
X167199664Y-134217307D01*
X167007307Y-134409664D01*
X166856174Y-134635851D01*
X166752071Y-134887177D01*
X166699000Y-135153983D01*
X166699000Y-135426017D01*
X166752071Y-135692823D01*
X166856174Y-135944149D01*
X167007307Y-136170336D01*
X167199664Y-136362693D01*
X167425851Y-136513826D01*
X167537325Y-136560000D01*
X167425851Y-136606174D01*
X167199664Y-136757307D01*
X167007307Y-136949664D01*
X166856174Y-137175851D01*
X166752071Y-137427177D01*
X166699000Y-137693983D01*
X166699000Y-137966017D01*
X166752071Y-138232823D01*
X166856174Y-138484149D01*
X167007307Y-138710336D01*
X167199664Y-138902693D01*
X167425851Y-139053826D01*
X167677177Y-139157929D01*
X167943983Y-139211000D01*
X168216017Y-139211000D01*
X168482823Y-139157929D01*
X168734149Y-139053826D01*
X168960336Y-138902693D01*
X169152693Y-138710336D01*
X169303826Y-138484149D01*
X169407929Y-138232823D01*
X169461000Y-137966017D01*
X169461000Y-137693983D01*
X169407929Y-137427177D01*
X169303826Y-137175851D01*
X169152693Y-136949664D01*
X168960336Y-136757307D01*
X168734149Y-136606174D01*
X168622675Y-136560000D01*
X168734149Y-136513826D01*
X168960336Y-136362693D01*
X169152693Y-136170336D01*
X169303826Y-135944149D01*
X169407929Y-135692823D01*
X169461000Y-135426017D01*
X169461000Y-135153983D01*
X169407929Y-134887177D01*
X169303826Y-134635851D01*
X169152693Y-134409664D01*
X168960336Y-134217307D01*
X168734149Y-134066174D01*
X168622675Y-134020000D01*
X168734149Y-133973826D01*
X168960336Y-133822693D01*
X169152693Y-133630336D01*
X169303826Y-133404149D01*
X169407929Y-133152823D01*
X169461000Y-132886017D01*
X169461000Y-132613983D01*
X169407929Y-132347177D01*
X169303826Y-132095851D01*
X169152693Y-131869664D01*
X168960336Y-131677307D01*
X168734149Y-131526174D01*
X168482823Y-131422071D01*
X168216017Y-131369000D01*
X167943983Y-131369000D01*
X167677177Y-131422071D01*
X167425851Y-131526174D01*
X167199664Y-131677307D01*
X167007307Y-131869664D01*
X166856174Y-132095851D01*
X166752071Y-132347177D01*
X166699000Y-132613983D01*
X165081001Y-132613983D01*
X165081001Y-128673078D01*
X174944000Y-128673078D01*
X174944000Y-128826922D01*
X174974013Y-128977809D01*
X175032887Y-129119942D01*
X175118358Y-129247859D01*
X175227141Y-129356642D01*
X175355058Y-129442113D01*
X175497191Y-129500987D01*
X175648078Y-129531000D01*
X175801922Y-129531000D01*
X175952809Y-129500987D01*
X176094942Y-129442113D01*
X176222859Y-129356642D01*
X176331642Y-129247859D01*
X176417113Y-129119942D01*
X176475987Y-128977809D01*
X176503655Y-128838714D01*
X177319922Y-128022447D01*
X177427809Y-128000987D01*
X177569942Y-127942113D01*
X177697859Y-127856642D01*
X177806642Y-127747859D01*
X177892113Y-127619942D01*
X177950987Y-127477809D01*
X177981000Y-127326922D01*
X177981000Y-127173078D01*
X177950987Y-127022191D01*
X177892113Y-126880058D01*
X177806642Y-126752141D01*
X177697859Y-126643358D01*
X177569942Y-126557887D01*
X177427809Y-126499013D01*
X177276922Y-126469000D01*
X177123078Y-126469000D01*
X176972191Y-126499013D01*
X176830058Y-126557887D01*
X176702141Y-126643358D01*
X176593358Y-126752141D01*
X176507887Y-126880058D01*
X176449013Y-127022191D01*
X176427553Y-127130078D01*
X175573871Y-127983760D01*
X175497191Y-127999013D01*
X175355058Y-128057887D01*
X175227141Y-128143358D01*
X175118358Y-128252141D01*
X175032887Y-128380058D01*
X174974013Y-128522191D01*
X174944000Y-128673078D01*
X165081001Y-128673078D01*
X165081001Y-118698078D01*
X173819000Y-118698078D01*
X173819000Y-118851922D01*
X173849013Y-119002809D01*
X173907887Y-119144942D01*
X173969000Y-119236405D01*
X173969001Y-119719000D01*
X173965948Y-119750000D01*
X173978130Y-119873697D01*
X174014211Y-119992641D01*
X174072804Y-120102260D01*
X174131897Y-120174265D01*
X174131900Y-120174268D01*
X174151658Y-120198343D01*
X174175733Y-120218101D01*
X174577553Y-120619922D01*
X174599013Y-120727809D01*
X174657887Y-120869942D01*
X174743358Y-120997859D01*
X174852141Y-121106642D01*
X174980058Y-121192113D01*
X175122191Y-121250987D01*
X175273078Y-121281000D01*
X175426922Y-121281000D01*
X175577809Y-121250987D01*
X175719942Y-121192113D01*
X175847859Y-121106642D01*
X175956642Y-120997859D01*
X176042113Y-120869942D01*
X176100987Y-120727809D01*
X176131000Y-120576922D01*
X176131000Y-120423078D01*
X176100987Y-120272191D01*
X176042113Y-120130058D01*
X175956642Y-120002141D01*
X175847859Y-119893358D01*
X175719942Y-119807887D01*
X175577809Y-119749013D01*
X175469922Y-119727553D01*
X175231000Y-119488632D01*
X175231000Y-119236405D01*
X175292113Y-119144942D01*
X175350987Y-119002809D01*
X175381000Y-118851922D01*
X175381000Y-118698078D01*
X175350987Y-118547191D01*
X175292113Y-118405058D01*
X175206642Y-118277141D01*
X175097859Y-118168358D01*
X174969942Y-118082887D01*
X174827809Y-118024013D01*
X174676922Y-117994000D01*
X174523078Y-117994000D01*
X174372191Y-118024013D01*
X174230058Y-118082887D01*
X174102141Y-118168358D01*
X173993358Y-118277141D01*
X173907887Y-118405058D01*
X173849013Y-118547191D01*
X173819000Y-118698078D01*
X165081001Y-118698078D01*
X165081001Y-117523078D01*
X168219000Y-117523078D01*
X168219000Y-117676922D01*
X168249013Y-117827809D01*
X168307887Y-117969942D01*
X168393358Y-118097859D01*
X168502141Y-118206642D01*
X168630058Y-118292113D01*
X168772191Y-118350987D01*
X168923078Y-118381000D01*
X169076922Y-118381000D01*
X169227809Y-118350987D01*
X169369942Y-118292113D01*
X169497859Y-118206642D01*
X169606642Y-118097859D01*
X169692113Y-117969942D01*
X169750987Y-117827809D01*
X169775216Y-117706000D01*
X170001499Y-117706000D01*
X170102141Y-117806642D01*
X170230058Y-117892113D01*
X170372191Y-117950987D01*
X170523078Y-117981000D01*
X170676922Y-117981000D01*
X170827809Y-117950987D01*
X170969942Y-117892113D01*
X171097859Y-117806642D01*
X171206642Y-117697859D01*
X171292113Y-117569942D01*
X171350987Y-117427809D01*
X171381000Y-117276922D01*
X171381000Y-117123078D01*
X171350987Y-116972191D01*
X171292113Y-116830058D01*
X171206642Y-116702141D01*
X171097859Y-116593358D01*
X170969942Y-116507887D01*
X170827809Y-116449013D01*
X170676922Y-116419000D01*
X170523078Y-116419000D01*
X170372191Y-116449013D01*
X170230058Y-116507887D01*
X170102141Y-116593358D01*
X170001499Y-116694000D01*
X169424845Y-116694000D01*
X169399999Y-116691553D01*
X169375153Y-116694000D01*
X169375146Y-116694000D01*
X169310694Y-116700348D01*
X169300806Y-116701322D01*
X169278607Y-116708056D01*
X169205425Y-116730255D01*
X169117521Y-116777241D01*
X169066638Y-116819000D01*
X168923078Y-116819000D01*
X168772191Y-116849013D01*
X168630058Y-116907887D01*
X168502141Y-116993358D01*
X168393358Y-117102141D01*
X168307887Y-117230058D01*
X168249013Y-117372191D01*
X168219000Y-117523078D01*
X165081001Y-117523078D01*
X165081001Y-111198078D01*
X174169000Y-111198078D01*
X174169000Y-111351922D01*
X174199013Y-111502809D01*
X174257887Y-111644942D01*
X174343358Y-111772859D01*
X174452141Y-111881642D01*
X174580058Y-111967113D01*
X174722191Y-112025987D01*
X174873078Y-112056000D01*
X175026922Y-112056000D01*
X175177809Y-112025987D01*
X175319942Y-111967113D01*
X175447859Y-111881642D01*
X175548501Y-111781000D01*
X177613401Y-111781000D01*
X182454966Y-116622565D01*
X182430048Y-116632887D01*
X182302131Y-116718358D01*
X182193348Y-116827141D01*
X182107877Y-116955058D01*
X182049003Y-117097191D01*
X182018990Y-117248078D01*
X182018990Y-117390408D01*
X180659781Y-118749618D01*
X180640474Y-118765463D01*
X180577242Y-118842511D01*
X180573239Y-118850000D01*
X180530255Y-118930416D01*
X180501322Y-119025798D01*
X180491553Y-119124990D01*
X180494001Y-119149846D01*
X180494000Y-141430802D01*
X180265326Y-141525521D01*
X180011295Y-141695259D01*
X179795259Y-141911295D01*
X179625521Y-142165326D01*
X179508604Y-142447590D01*
X179449000Y-142747240D01*
X179449000Y-143052760D01*
X179508604Y-143352410D01*
X179625521Y-143634674D01*
X179795259Y-143888705D01*
X180011295Y-144104741D01*
X180265326Y-144274479D01*
X180547590Y-144391396D01*
X180847240Y-144451000D01*
X181152760Y-144451000D01*
X181452410Y-144391396D01*
X181734674Y-144274479D01*
X181988705Y-144104741D01*
X182204741Y-143888705D01*
X182374479Y-143634674D01*
X182491396Y-143352410D01*
X182551000Y-143052760D01*
X182551000Y-142747240D01*
X184449000Y-142747240D01*
X184449000Y-143052760D01*
X184508604Y-143352410D01*
X184625521Y-143634674D01*
X184795259Y-143888705D01*
X185011295Y-144104741D01*
X185265326Y-144274479D01*
X185547590Y-144391396D01*
X185847240Y-144451000D01*
X186152760Y-144451000D01*
X186452410Y-144391396D01*
X186734674Y-144274479D01*
X186761428Y-144256602D01*
X194923003Y-144256602D01*
X195039275Y-144538389D01*
X195357860Y-144696257D01*
X195701122Y-144788938D01*
X196055869Y-144812873D01*
X196408470Y-144767139D01*
X196745373Y-144653495D01*
X196960725Y-144538389D01*
X197076997Y-144256602D01*
X196000000Y-143179605D01*
X194923003Y-144256602D01*
X186761428Y-144256602D01*
X186988705Y-144104741D01*
X187204741Y-143888705D01*
X187374479Y-143634674D01*
X187491396Y-143352410D01*
X187550381Y-143055869D01*
X194187127Y-143055869D01*
X194232861Y-143408470D01*
X194346505Y-143745373D01*
X194461611Y-143960725D01*
X194743398Y-144076997D01*
X195820395Y-143000000D01*
X196179605Y-143000000D01*
X197256602Y-144076997D01*
X197538389Y-143960725D01*
X197696257Y-143642140D01*
X197788938Y-143298878D01*
X197812873Y-142944131D01*
X197767139Y-142591530D01*
X197653495Y-142254627D01*
X197538389Y-142039275D01*
X197256602Y-141923003D01*
X196179605Y-143000000D01*
X195820395Y-143000000D01*
X194743398Y-141923003D01*
X194461611Y-142039275D01*
X194303743Y-142357860D01*
X194211062Y-142701122D01*
X194187127Y-143055869D01*
X187550381Y-143055869D01*
X187551000Y-143052760D01*
X187551000Y-142747240D01*
X187491396Y-142447590D01*
X187374479Y-142165326D01*
X187204741Y-141911295D01*
X187036844Y-141743398D01*
X194923003Y-141743398D01*
X196000000Y-142820395D01*
X197076997Y-141743398D01*
X196960725Y-141461611D01*
X196642140Y-141303743D01*
X196298878Y-141211062D01*
X195944131Y-141187127D01*
X195591530Y-141232861D01*
X195254627Y-141346505D01*
X195039275Y-141461611D01*
X194923003Y-141743398D01*
X187036844Y-141743398D01*
X186988705Y-141695259D01*
X186734674Y-141525521D01*
X186452410Y-141408604D01*
X186152760Y-141349000D01*
X185847240Y-141349000D01*
X185547590Y-141408604D01*
X185265326Y-141525521D01*
X185011295Y-141695259D01*
X184795259Y-141911295D01*
X184625521Y-142165326D01*
X184508604Y-142447590D01*
X184449000Y-142747240D01*
X182551000Y-142747240D01*
X182491396Y-142447590D01*
X182374479Y-142165326D01*
X182204741Y-141911295D01*
X181988705Y-141695259D01*
X181734674Y-141525521D01*
X181506000Y-141430802D01*
X181506000Y-119334581D01*
X182734582Y-118106000D01*
X182876912Y-118106000D01*
X183027799Y-118075987D01*
X183169932Y-118017113D01*
X183297849Y-117931642D01*
X183406632Y-117822859D01*
X183492103Y-117694942D01*
X183502425Y-117670024D01*
X198418999Y-132586599D01*
X198419000Y-135900143D01*
X198416552Y-135924999D01*
X198426321Y-136024191D01*
X198455254Y-136119573D01*
X198455255Y-136119574D01*
X198502241Y-136207478D01*
X198565473Y-136284526D01*
X198584780Y-136300371D01*
X204603324Y-142318915D01*
X204508604Y-142547590D01*
X204449000Y-142847240D01*
X204449000Y-143152760D01*
X204508604Y-143452410D01*
X204625521Y-143734674D01*
X204795259Y-143988705D01*
X205011295Y-144204741D01*
X205265326Y-144374479D01*
X205547590Y-144491396D01*
X205847240Y-144551000D01*
X206152760Y-144551000D01*
X206452410Y-144491396D01*
X206734674Y-144374479D01*
X206988705Y-144204741D01*
X207204741Y-143988705D01*
X207374479Y-143734674D01*
X207491396Y-143452410D01*
X207551000Y-143152760D01*
X207551000Y-142847240D01*
X207491396Y-142547590D01*
X207374479Y-142265326D01*
X207204741Y-142011295D01*
X206988705Y-141795259D01*
X206734674Y-141625521D01*
X206452410Y-141508604D01*
X206152760Y-141449000D01*
X205847240Y-141449000D01*
X205547590Y-141508604D01*
X205318915Y-141603324D01*
X199430999Y-135715408D01*
X199430999Y-133473499D01*
X199516903Y-133530898D01*
X199740931Y-133623693D01*
X199978757Y-133671000D01*
X200221243Y-133671000D01*
X200459069Y-133623693D01*
X200683097Y-133530898D01*
X200884717Y-133396180D01*
X201056180Y-133224717D01*
X201190898Y-133023097D01*
X201283693Y-132799069D01*
X201331000Y-132561243D01*
X201331000Y-132318757D01*
X201318296Y-132254889D01*
X205119000Y-132254889D01*
X205119000Y-132645111D01*
X205195129Y-133027836D01*
X205344461Y-133388355D01*
X205561257Y-133712814D01*
X205837186Y-133988743D01*
X206161645Y-134205539D01*
X206522164Y-134354871D01*
X206904889Y-134431000D01*
X207295111Y-134431000D01*
X207677836Y-134354871D01*
X208038355Y-134205539D01*
X208362814Y-133988743D01*
X208638743Y-133712814D01*
X208855539Y-133388355D01*
X209004871Y-133027836D01*
X209081000Y-132645111D01*
X209081000Y-132254889D01*
X209004871Y-131872164D01*
X208855539Y-131511645D01*
X208638743Y-131187186D01*
X208362814Y-130911257D01*
X208038355Y-130694461D01*
X207677836Y-130545129D01*
X207295111Y-130469000D01*
X206904889Y-130469000D01*
X206522164Y-130545129D01*
X206161645Y-130694461D01*
X205837186Y-130911257D01*
X205561257Y-131187186D01*
X205344461Y-131511645D01*
X205195129Y-131872164D01*
X205119000Y-132254889D01*
X201318296Y-132254889D01*
X201283693Y-132080931D01*
X201190898Y-131856903D01*
X201056180Y-131655283D01*
X200884717Y-131483820D01*
X200683097Y-131349102D01*
X200459069Y-131256307D01*
X200221243Y-131209000D01*
X199978757Y-131209000D01*
X199740931Y-131256307D01*
X199516903Y-131349102D01*
X199315283Y-131483820D01*
X199143820Y-131655283D01*
X199053717Y-131790133D01*
X196313584Y-129050000D01*
X198867157Y-129050000D01*
X198867157Y-130750000D01*
X198874513Y-130824689D01*
X198896299Y-130896508D01*
X198931678Y-130962696D01*
X198979289Y-131020711D01*
X199037304Y-131068322D01*
X199103492Y-131103701D01*
X199175311Y-131125487D01*
X199250000Y-131132843D01*
X200950000Y-131132843D01*
X201024689Y-131125487D01*
X201096508Y-131103701D01*
X201162696Y-131068322D01*
X201220711Y-131020711D01*
X201268322Y-130962696D01*
X201303701Y-130896508D01*
X201325487Y-130824689D01*
X201332843Y-130750000D01*
X201332843Y-129050000D01*
X201325487Y-128975311D01*
X201303701Y-128903492D01*
X201268322Y-128837304D01*
X201220711Y-128779289D01*
X201162696Y-128731678D01*
X201096508Y-128696299D01*
X201024689Y-128674513D01*
X200950000Y-128667157D01*
X199250000Y-128667157D01*
X199175311Y-128674513D01*
X199103492Y-128696299D01*
X199037304Y-128731678D01*
X198979289Y-128779289D01*
X198931678Y-128837304D01*
X198896299Y-128903492D01*
X198874513Y-128975311D01*
X198867157Y-129050000D01*
X196313584Y-129050000D01*
X178198368Y-110934785D01*
X178182519Y-110915473D01*
X178105471Y-110852241D01*
X178017567Y-110805255D01*
X177922185Y-110776322D01*
X177847846Y-110769000D01*
X177847838Y-110769000D01*
X177822992Y-110766553D01*
X177798146Y-110769000D01*
X175548501Y-110769000D01*
X175447859Y-110668358D01*
X175319942Y-110582887D01*
X175177809Y-110524013D01*
X175026922Y-110494000D01*
X174873078Y-110494000D01*
X174722191Y-110524013D01*
X174580058Y-110582887D01*
X174452141Y-110668358D01*
X174343358Y-110777141D01*
X174257887Y-110905058D01*
X174199013Y-111047191D01*
X174169000Y-111198078D01*
X165081001Y-111198078D01*
X165081001Y-108498078D01*
X174119000Y-108498078D01*
X174119000Y-108651922D01*
X174149013Y-108802809D01*
X174207887Y-108944942D01*
X174293358Y-109072859D01*
X174402141Y-109181642D01*
X174530058Y-109267113D01*
X174672191Y-109325987D01*
X174823078Y-109356000D01*
X174976922Y-109356000D01*
X175127809Y-109325987D01*
X175269942Y-109267113D01*
X175361405Y-109206000D01*
X177238595Y-109206000D01*
X177330058Y-109267113D01*
X177472191Y-109325987D01*
X177623078Y-109356000D01*
X177776922Y-109356000D01*
X177927809Y-109325987D01*
X178069942Y-109267113D01*
X178161405Y-109206000D01*
X180838595Y-109206000D01*
X180930058Y-109267113D01*
X181072191Y-109325987D01*
X181223078Y-109356000D01*
X181376922Y-109356000D01*
X181527809Y-109325987D01*
X181669942Y-109267113D01*
X181761405Y-109206000D01*
X184863595Y-109206000D01*
X184955058Y-109267113D01*
X185097191Y-109325987D01*
X185248078Y-109356000D01*
X185401922Y-109356000D01*
X185552809Y-109325987D01*
X185694942Y-109267113D01*
X185822859Y-109181642D01*
X185931642Y-109072859D01*
X186017113Y-108944942D01*
X186075987Y-108802809D01*
X186106000Y-108651922D01*
X186106000Y-108498078D01*
X186075987Y-108347191D01*
X186017113Y-108205058D01*
X185931642Y-108077141D01*
X185822859Y-107968358D01*
X185694942Y-107882887D01*
X185552809Y-107824013D01*
X185401922Y-107794000D01*
X185248078Y-107794000D01*
X185097191Y-107824013D01*
X184955058Y-107882887D01*
X184863595Y-107944000D01*
X181931000Y-107944000D01*
X181931000Y-101380990D01*
X181934052Y-101350000D01*
X181931000Y-101319009D01*
X181931000Y-101319002D01*
X181921870Y-101226302D01*
X181885789Y-101107358D01*
X181827196Y-100997739D01*
X181821233Y-100990473D01*
X181768103Y-100925734D01*
X181768101Y-100925732D01*
X181748343Y-100901657D01*
X181724268Y-100881899D01*
X181067369Y-100225000D01*
X185842157Y-100225000D01*
X185842157Y-102725000D01*
X185849513Y-102799689D01*
X185871299Y-102871508D01*
X185906678Y-102937696D01*
X185954289Y-102995711D01*
X186012304Y-103043322D01*
X186078492Y-103078701D01*
X186150311Y-103100487D01*
X186225000Y-103107843D01*
X188725000Y-103107843D01*
X188799689Y-103100487D01*
X188871508Y-103078701D01*
X188937696Y-103043322D01*
X188995711Y-102995711D01*
X189043322Y-102937696D01*
X189078701Y-102871508D01*
X189100487Y-102799689D01*
X189107843Y-102725000D01*
X189107843Y-100600000D01*
X199217157Y-100600000D01*
X199217157Y-103000000D01*
X199224513Y-103074689D01*
X199246299Y-103146508D01*
X199281678Y-103212696D01*
X199329289Y-103270711D01*
X199387304Y-103318322D01*
X199453492Y-103353701D01*
X199525311Y-103375487D01*
X199600000Y-103382843D01*
X202000000Y-103382843D01*
X202074689Y-103375487D01*
X202146508Y-103353701D01*
X202212696Y-103318322D01*
X202270711Y-103270711D01*
X202318322Y-103212696D01*
X202353701Y-103146508D01*
X202375487Y-103074689D01*
X202382843Y-103000000D01*
X202382843Y-101644285D01*
X204219000Y-101644285D01*
X204219000Y-101955715D01*
X204279757Y-102261161D01*
X204398936Y-102548884D01*
X204571957Y-102807829D01*
X204792171Y-103028043D01*
X205051116Y-103201064D01*
X205338839Y-103320243D01*
X205644285Y-103381000D01*
X205955715Y-103381000D01*
X206261161Y-103320243D01*
X206548884Y-103201064D01*
X206807829Y-103028043D01*
X207028043Y-102807829D01*
X207201064Y-102548884D01*
X207320243Y-102261161D01*
X207381000Y-101955715D01*
X207381000Y-101644285D01*
X207320243Y-101338839D01*
X207201064Y-101051116D01*
X207028043Y-100792171D01*
X206807829Y-100571957D01*
X206548884Y-100398936D01*
X206261161Y-100279757D01*
X205955715Y-100219000D01*
X205644285Y-100219000D01*
X205338839Y-100279757D01*
X205051116Y-100398936D01*
X204792171Y-100571957D01*
X204571957Y-100792171D01*
X204398936Y-101051116D01*
X204279757Y-101338839D01*
X204219000Y-101644285D01*
X202382843Y-101644285D01*
X202382843Y-100600000D01*
X202375487Y-100525311D01*
X202353701Y-100453492D01*
X202318322Y-100387304D01*
X202270711Y-100329289D01*
X202212696Y-100281678D01*
X202146508Y-100246299D01*
X202074689Y-100224513D01*
X202000000Y-100217157D01*
X199600000Y-100217157D01*
X199525311Y-100224513D01*
X199453492Y-100246299D01*
X199387304Y-100281678D01*
X199329289Y-100329289D01*
X199281678Y-100387304D01*
X199246299Y-100453492D01*
X199224513Y-100525311D01*
X199217157Y-100600000D01*
X189107843Y-100600000D01*
X189107843Y-100225000D01*
X189100487Y-100150311D01*
X189078701Y-100078492D01*
X189043322Y-100012304D01*
X188995711Y-99954289D01*
X188937696Y-99906678D01*
X188871508Y-99871299D01*
X188799689Y-99849513D01*
X188725000Y-99842157D01*
X186225000Y-99842157D01*
X186150311Y-99849513D01*
X186078492Y-99871299D01*
X186012304Y-99906678D01*
X185954289Y-99954289D01*
X185906678Y-100012304D01*
X185871299Y-100078492D01*
X185849513Y-100150311D01*
X185842157Y-100225000D01*
X181067369Y-100225000D01*
X178196729Y-97354360D01*
X185844000Y-97354360D01*
X185844000Y-97675640D01*
X185906678Y-97990745D01*
X186029626Y-98287568D01*
X186208119Y-98554702D01*
X186435298Y-98781881D01*
X186702432Y-98960374D01*
X186999255Y-99083322D01*
X187314360Y-99146000D01*
X187635640Y-99146000D01*
X187950745Y-99083322D01*
X188247568Y-98960374D01*
X188514702Y-98781881D01*
X188741881Y-98554702D01*
X188920374Y-98287568D01*
X189043322Y-97990745D01*
X189106000Y-97675640D01*
X189106000Y-97354360D01*
X189043322Y-97039255D01*
X188920374Y-96742432D01*
X188741881Y-96475298D01*
X188514702Y-96248119D01*
X188247568Y-96069626D01*
X187950745Y-95946678D01*
X187635640Y-95884000D01*
X187314360Y-95884000D01*
X186999255Y-95946678D01*
X186702432Y-96069626D01*
X186435298Y-96248119D01*
X186208119Y-96475298D01*
X186029626Y-96742432D01*
X185906678Y-97039255D01*
X185844000Y-97354360D01*
X178196729Y-97354360D01*
X178018105Y-97175737D01*
X177998343Y-97151657D01*
X177974269Y-97131900D01*
X177672447Y-96830078D01*
X177650987Y-96722191D01*
X177592113Y-96580058D01*
X177506642Y-96452141D01*
X177397859Y-96343358D01*
X177269942Y-96257887D01*
X177127809Y-96199013D01*
X176976922Y-96169000D01*
X176823078Y-96169000D01*
X176672191Y-96199013D01*
X176530058Y-96257887D01*
X176402141Y-96343358D01*
X176293358Y-96452141D01*
X176207887Y-96580058D01*
X176149013Y-96722191D01*
X176119000Y-96873078D01*
X176119000Y-97026922D01*
X176149013Y-97177809D01*
X176207887Y-97319942D01*
X176293358Y-97447859D01*
X176402141Y-97556642D01*
X176530058Y-97642113D01*
X176672191Y-97700987D01*
X176780078Y-97722447D01*
X176919000Y-97861369D01*
X176919001Y-98863425D01*
X176907887Y-98880058D01*
X176849013Y-99022191D01*
X176819000Y-99173078D01*
X176819000Y-99326922D01*
X176849013Y-99477809D01*
X176907887Y-99619942D01*
X176993358Y-99747859D01*
X177102141Y-99856642D01*
X177230058Y-99942113D01*
X177372191Y-100000987D01*
X177523078Y-100031000D01*
X177676922Y-100031000D01*
X177827809Y-100000987D01*
X177969942Y-99942113D01*
X178097859Y-99856642D01*
X178206642Y-99747859D01*
X178292113Y-99619942D01*
X178350987Y-99477809D01*
X178381000Y-99326922D01*
X178381000Y-99323368D01*
X180669001Y-101611370D01*
X180669000Y-107944000D01*
X178161405Y-107944000D01*
X178069942Y-107882887D01*
X177927809Y-107824013D01*
X177776922Y-107794000D01*
X177623078Y-107794000D01*
X177472191Y-107824013D01*
X177330058Y-107882887D01*
X177238595Y-107944000D01*
X175361405Y-107944000D01*
X175269942Y-107882887D01*
X175127809Y-107824013D01*
X174976922Y-107794000D01*
X174823078Y-107794000D01*
X174672191Y-107824013D01*
X174530058Y-107882887D01*
X174402141Y-107968358D01*
X174293358Y-108077141D01*
X174207887Y-108205058D01*
X174149013Y-108347191D01*
X174119000Y-108498078D01*
X165081001Y-108498078D01*
X165081001Y-106911367D01*
X178598008Y-93394360D01*
X185844000Y-93394360D01*
X185844000Y-93715640D01*
X185906678Y-94030745D01*
X186029626Y-94327568D01*
X186208119Y-94594702D01*
X186435298Y-94821881D01*
X186702432Y-95000374D01*
X186999255Y-95123322D01*
X187314360Y-95186000D01*
X187635640Y-95186000D01*
X187950745Y-95123322D01*
X188247568Y-95000374D01*
X188514702Y-94821881D01*
X188741881Y-94594702D01*
X188920374Y-94327568D01*
X189043322Y-94030745D01*
X189106000Y-93715640D01*
X189106000Y-93394360D01*
X189043322Y-93079255D01*
X188920374Y-92782432D01*
X188741881Y-92515298D01*
X188590566Y-92363983D01*
X192219000Y-92363983D01*
X192219000Y-92636017D01*
X192272071Y-92902823D01*
X192376174Y-93154149D01*
X192527307Y-93380336D01*
X192719664Y-93572693D01*
X192945851Y-93723826D01*
X193197177Y-93827929D01*
X193463983Y-93881000D01*
X193736017Y-93881000D01*
X194002823Y-93827929D01*
X194254149Y-93723826D01*
X194480336Y-93572693D01*
X194672693Y-93380336D01*
X194823826Y-93154149D01*
X194927929Y-92902823D01*
X194981000Y-92636017D01*
X194981000Y-92363983D01*
X197299000Y-92363983D01*
X197299000Y-92636017D01*
X197352071Y-92902823D01*
X197456174Y-93154149D01*
X197607307Y-93380336D01*
X197799664Y-93572693D01*
X198025851Y-93723826D01*
X198277177Y-93827929D01*
X198543983Y-93881000D01*
X198816017Y-93881000D01*
X199082823Y-93827929D01*
X199334149Y-93723826D01*
X199560336Y-93572693D01*
X199752693Y-93380336D01*
X199903826Y-93154149D01*
X200007929Y-92902823D01*
X200061000Y-92636017D01*
X200061000Y-92363983D01*
X200007929Y-92097177D01*
X199903826Y-91845851D01*
X199752693Y-91619664D01*
X199560336Y-91427307D01*
X199334149Y-91276174D01*
X199082823Y-91172071D01*
X198816017Y-91119000D01*
X198543983Y-91119000D01*
X198277177Y-91172071D01*
X198025851Y-91276174D01*
X197799664Y-91427307D01*
X197607307Y-91619664D01*
X197456174Y-91845851D01*
X197352071Y-92097177D01*
X197299000Y-92363983D01*
X194981000Y-92363983D01*
X194927929Y-92097177D01*
X194823826Y-91845851D01*
X194672693Y-91619664D01*
X194480336Y-91427307D01*
X194254149Y-91276174D01*
X194002823Y-91172071D01*
X193736017Y-91119000D01*
X193463983Y-91119000D01*
X193197177Y-91172071D01*
X192945851Y-91276174D01*
X192719664Y-91427307D01*
X192527307Y-91619664D01*
X192376174Y-91845851D01*
X192272071Y-92097177D01*
X192219000Y-92363983D01*
X188590566Y-92363983D01*
X188514702Y-92288119D01*
X188247568Y-92109626D01*
X187950745Y-91986678D01*
X187635640Y-91924000D01*
X187314360Y-91924000D01*
X186999255Y-91986678D01*
X186702432Y-92109626D01*
X186435298Y-92288119D01*
X186208119Y-92515298D01*
X186029626Y-92782432D01*
X185906678Y-93079255D01*
X185844000Y-93394360D01*
X178598008Y-93394360D01*
X182558008Y-89434360D01*
X185844000Y-89434360D01*
X185844000Y-89755640D01*
X185906678Y-90070745D01*
X186029626Y-90367568D01*
X186208119Y-90634702D01*
X186435298Y-90861881D01*
X186702432Y-91040374D01*
X186999255Y-91163322D01*
X187314360Y-91226000D01*
X187635640Y-91226000D01*
X187950745Y-91163322D01*
X188247568Y-91040374D01*
X188514702Y-90861881D01*
X188516583Y-90860000D01*
X203717157Y-90860000D01*
X203717157Y-92560000D01*
X203724513Y-92634689D01*
X203746299Y-92706508D01*
X203781678Y-92772696D01*
X203829289Y-92830711D01*
X203887304Y-92878322D01*
X203953492Y-92913701D01*
X204025311Y-92935487D01*
X204100000Y-92942843D01*
X206300000Y-92942843D01*
X206374689Y-92935487D01*
X206446508Y-92913701D01*
X206512696Y-92878322D01*
X206570711Y-92830711D01*
X206618322Y-92772696D01*
X206653701Y-92706508D01*
X206675487Y-92634689D01*
X206682843Y-92560000D01*
X206682843Y-90860000D01*
X206675487Y-90785311D01*
X206653701Y-90713492D01*
X206618322Y-90647304D01*
X206570711Y-90589289D01*
X206512696Y-90541678D01*
X206446508Y-90506299D01*
X206374689Y-90484513D01*
X206300000Y-90477157D01*
X204100000Y-90477157D01*
X204025311Y-90484513D01*
X203953492Y-90506299D01*
X203887304Y-90541678D01*
X203829289Y-90589289D01*
X203781678Y-90647304D01*
X203746299Y-90713492D01*
X203724513Y-90785311D01*
X203717157Y-90860000D01*
X188516583Y-90860000D01*
X188741881Y-90634702D01*
X188920374Y-90367568D01*
X189043322Y-90070745D01*
X189106000Y-89755640D01*
X189106000Y-89434360D01*
X189053416Y-89170000D01*
X203713044Y-89170000D01*
X203736812Y-89411318D01*
X203807202Y-89643363D01*
X203921509Y-89857216D01*
X204075340Y-90044660D01*
X204262784Y-90198491D01*
X204476637Y-90312798D01*
X204708682Y-90383188D01*
X204889528Y-90401000D01*
X205510472Y-90401000D01*
X205691318Y-90383188D01*
X205923363Y-90312798D01*
X206137216Y-90198491D01*
X206324660Y-90044660D01*
X206478491Y-89857216D01*
X206592798Y-89643363D01*
X206663188Y-89411318D01*
X206686956Y-89170000D01*
X206663188Y-88928682D01*
X206592798Y-88696637D01*
X206478491Y-88482784D01*
X206324660Y-88295340D01*
X206137216Y-88141509D01*
X205923363Y-88027202D01*
X205691318Y-87956812D01*
X205510472Y-87939000D01*
X204889528Y-87939000D01*
X204708682Y-87956812D01*
X204476637Y-88027202D01*
X204262784Y-88141509D01*
X204075340Y-88295340D01*
X203921509Y-88482784D01*
X203807202Y-88696637D01*
X203736812Y-88928682D01*
X203713044Y-89170000D01*
X189053416Y-89170000D01*
X189043322Y-89119255D01*
X188920374Y-88822432D01*
X188741881Y-88555298D01*
X188514702Y-88328119D01*
X188247568Y-88149626D01*
X187950745Y-88026678D01*
X187635640Y-87964000D01*
X187314360Y-87964000D01*
X186999255Y-88026678D01*
X186702432Y-88149626D01*
X186435298Y-88328119D01*
X186208119Y-88555298D01*
X186029626Y-88822432D01*
X185906678Y-89119255D01*
X185844000Y-89434360D01*
X182558008Y-89434360D01*
X185019922Y-86972447D01*
X185127809Y-86950987D01*
X185269942Y-86892113D01*
X185397859Y-86806642D01*
X185506642Y-86697859D01*
X185551983Y-86630000D01*
X203713044Y-86630000D01*
X203736812Y-86871318D01*
X203807202Y-87103363D01*
X203921509Y-87317216D01*
X204075340Y-87504660D01*
X204262784Y-87658491D01*
X204476637Y-87772798D01*
X204708682Y-87843188D01*
X204889528Y-87861000D01*
X205510472Y-87861000D01*
X205691318Y-87843188D01*
X205923363Y-87772798D01*
X206137216Y-87658491D01*
X206324660Y-87504660D01*
X206478491Y-87317216D01*
X206592798Y-87103363D01*
X206663188Y-86871318D01*
X206686956Y-86630000D01*
X206663188Y-86388682D01*
X206592798Y-86156637D01*
X206478491Y-85942784D01*
X206324660Y-85755340D01*
X206137216Y-85601509D01*
X205923363Y-85487202D01*
X205691318Y-85416812D01*
X205510472Y-85399000D01*
X204889528Y-85399000D01*
X204708682Y-85416812D01*
X204476637Y-85487202D01*
X204262784Y-85601509D01*
X204075340Y-85755340D01*
X203921509Y-85942784D01*
X203807202Y-86156637D01*
X203736812Y-86388682D01*
X203713044Y-86630000D01*
X185551983Y-86630000D01*
X185592113Y-86569942D01*
X185650987Y-86427809D01*
X185681000Y-86276922D01*
X185681000Y-86123078D01*
X185650987Y-85972191D01*
X185592113Y-85830058D01*
X185506642Y-85702141D01*
X185397859Y-85593358D01*
X185269942Y-85507887D01*
X185127809Y-85449013D01*
X184976922Y-85419000D01*
X184823078Y-85419000D01*
X184672191Y-85449013D01*
X184530058Y-85507887D01*
X184402141Y-85593358D01*
X184293358Y-85702141D01*
X184207887Y-85830058D01*
X184149013Y-85972191D01*
X184127553Y-86080078D01*
X173293653Y-96913979D01*
X173293653Y-96885731D01*
X173263640Y-96734844D01*
X173204766Y-96592711D01*
X173119295Y-96464794D01*
X173010512Y-96356011D01*
X172966180Y-96326389D01*
X172989360Y-96331000D01*
X173310640Y-96331000D01*
X173625745Y-96268322D01*
X173922568Y-96145374D01*
X174189702Y-95966881D01*
X174416881Y-95739702D01*
X174595374Y-95472568D01*
X174718322Y-95175745D01*
X174781000Y-94860640D01*
X174781000Y-94539360D01*
X174718322Y-94224255D01*
X174595374Y-93927432D01*
X174416881Y-93660298D01*
X174189702Y-93433119D01*
X173922568Y-93254626D01*
X173625745Y-93131678D01*
X173310640Y-93069000D01*
X172989360Y-93069000D01*
X172674255Y-93131678D01*
X172377432Y-93254626D01*
X172110298Y-93433119D01*
X171883119Y-93660298D01*
X171704626Y-93927432D01*
X171581678Y-94224255D01*
X171519000Y-94539360D01*
X171519000Y-94860640D01*
X171581678Y-95175745D01*
X171704626Y-95472568D01*
X171883119Y-95739702D01*
X172110298Y-95966881D01*
X172377432Y-96145374D01*
X172465017Y-96181653D01*
X172435731Y-96181653D01*
X172284844Y-96211666D01*
X172146429Y-96269000D01*
X170761405Y-96269000D01*
X170669942Y-96207887D01*
X170527809Y-96149013D01*
X170376922Y-96119000D01*
X170223078Y-96119000D01*
X170072191Y-96149013D01*
X169930058Y-96207887D01*
X169802141Y-96293358D01*
X169693358Y-96402141D01*
X169607887Y-96530058D01*
X169549013Y-96672191D01*
X169519000Y-96823078D01*
X169519000Y-96976922D01*
X169549013Y-97127809D01*
X169607887Y-97269942D01*
X169693358Y-97397859D01*
X169802141Y-97506642D01*
X169930058Y-97592113D01*
X170072191Y-97650987D01*
X170223078Y-97681000D01*
X170376922Y-97681000D01*
X170527809Y-97650987D01*
X170669942Y-97592113D01*
X170761405Y-97531000D01*
X171976499Y-97531000D01*
X172014794Y-97569295D01*
X172142711Y-97654766D01*
X172284844Y-97713640D01*
X172435731Y-97743653D01*
X172463979Y-97743653D01*
X164025734Y-106181898D01*
X164001659Y-106201656D01*
X163981901Y-106225731D01*
X163981898Y-106225734D01*
X163922805Y-106297739D01*
X163864212Y-106407358D01*
X163828131Y-106526302D01*
X163815949Y-106649999D01*
X163819002Y-106680999D01*
X163819001Y-131636324D01*
X163654149Y-131526174D01*
X163402823Y-131422071D01*
X163136017Y-131369000D01*
X162863983Y-131369000D01*
X162597177Y-131422071D01*
X162345851Y-131526174D01*
X162119664Y-131677307D01*
X161927307Y-131869664D01*
X161776174Y-132095851D01*
X161672071Y-132347177D01*
X161619000Y-132613983D01*
X159468346Y-132613983D01*
X159468346Y-127465392D01*
X159610425Y-127493653D01*
X159764269Y-127493653D01*
X159915156Y-127463640D01*
X160057289Y-127404766D01*
X160185206Y-127319295D01*
X160293989Y-127210512D01*
X160379460Y-127082595D01*
X160438334Y-126940462D01*
X160459794Y-126832574D01*
X161019922Y-126272447D01*
X161127809Y-126250987D01*
X161269942Y-126192113D01*
X161397859Y-126106642D01*
X161506642Y-125997859D01*
X161592113Y-125869942D01*
X161650987Y-125727809D01*
X161672447Y-125619921D01*
X162819921Y-124472447D01*
X162927809Y-124450987D01*
X163069942Y-124392113D01*
X163197859Y-124306642D01*
X163306642Y-124197859D01*
X163392113Y-124069942D01*
X163450987Y-123927809D01*
X163481000Y-123776922D01*
X163481000Y-123623078D01*
X163450987Y-123472191D01*
X163392113Y-123330058D01*
X163306642Y-123202141D01*
X163197859Y-123093358D01*
X163069942Y-123007887D01*
X162927809Y-122949013D01*
X162776922Y-122919000D01*
X162623078Y-122919000D01*
X162472191Y-122949013D01*
X162330058Y-123007887D01*
X162202141Y-123093358D01*
X162093358Y-123202141D01*
X162007887Y-123330058D01*
X161949013Y-123472191D01*
X161927553Y-123580079D01*
X160780079Y-124727553D01*
X160672191Y-124749013D01*
X160530058Y-124807887D01*
X160402141Y-124893358D01*
X160293358Y-125002141D01*
X160207887Y-125130058D01*
X160149013Y-125272191D01*
X160127553Y-125380078D01*
X159567426Y-125940206D01*
X159468346Y-125959914D01*
X159468346Y-110178202D01*
X159470794Y-110153348D01*
X159461024Y-110054155D01*
X159432091Y-109958773D01*
X159385105Y-109870869D01*
X159321873Y-109793821D01*
X159302566Y-109777976D01*
X157031666Y-107507076D01*
X157129900Y-107487536D01*
X157335729Y-107402279D01*
X157520970Y-107278505D01*
X157678505Y-107120970D01*
X157802279Y-106935729D01*
X157887536Y-106729900D01*
X157931000Y-106511394D01*
X157931000Y-106288606D01*
X160549000Y-106288606D01*
X160549000Y-106511394D01*
X160592464Y-106729900D01*
X160677721Y-106935729D01*
X160801495Y-107120970D01*
X160959030Y-107278505D01*
X161144271Y-107402279D01*
X161350100Y-107487536D01*
X161568606Y-107531000D01*
X161791394Y-107531000D01*
X162009900Y-107487536D01*
X162215729Y-107402279D01*
X162400970Y-107278505D01*
X162558505Y-107120970D01*
X162682279Y-106935729D01*
X162767536Y-106729900D01*
X162811000Y-106511394D01*
X162811000Y-106288606D01*
X162767536Y-106070100D01*
X162682279Y-105864271D01*
X162558505Y-105679030D01*
X162400970Y-105521495D01*
X162215729Y-105397721D01*
X162009900Y-105312464D01*
X161791394Y-105269000D01*
X161568606Y-105269000D01*
X161350100Y-105312464D01*
X161144271Y-105397721D01*
X160959030Y-105521495D01*
X160801495Y-105679030D01*
X160677721Y-105864271D01*
X160592464Y-106070100D01*
X160549000Y-106288606D01*
X157931000Y-106288606D01*
X157887536Y-106070100D01*
X157802279Y-105864271D01*
X157678505Y-105679030D01*
X157520970Y-105521495D01*
X157335729Y-105397721D01*
X157129900Y-105312464D01*
X156911394Y-105269000D01*
X156688606Y-105269000D01*
X156470100Y-105312464D01*
X156264271Y-105397721D01*
X156079030Y-105521495D01*
X155921495Y-105679030D01*
X155797721Y-105864271D01*
X155712464Y-106070100D01*
X155692924Y-106168334D01*
X153406000Y-103881411D01*
X153406000Y-103127000D01*
X163000000Y-103127000D01*
X163024776Y-103124560D01*
X163048601Y-103117333D01*
X163070557Y-103105597D01*
X163089803Y-103089803D01*
X163105597Y-103070557D01*
X163117333Y-103048601D01*
X163124560Y-103024776D01*
X163127000Y-103000000D01*
X163127000Y-102690070D01*
X163130058Y-102692113D01*
X163272191Y-102750987D01*
X163423078Y-102781000D01*
X163576922Y-102781000D01*
X163727809Y-102750987D01*
X163869942Y-102692113D01*
X163997859Y-102606642D01*
X164106642Y-102497859D01*
X164192113Y-102369942D01*
X164250987Y-102227809D01*
X164281000Y-102076922D01*
X164281000Y-101923078D01*
X164250987Y-101772191D01*
X164192113Y-101630058D01*
X164106642Y-101502141D01*
X163997859Y-101393358D01*
X163938603Y-101353765D01*
X167644932Y-97647437D01*
X167752819Y-97625977D01*
X167894952Y-97567103D01*
X168022869Y-97481632D01*
X168131652Y-97372849D01*
X168217123Y-97244932D01*
X168275997Y-97102799D01*
X168306010Y-96951912D01*
X168306010Y-96798068D01*
X168275997Y-96647181D01*
X168217123Y-96505048D01*
X168131652Y-96377131D01*
X168022869Y-96268348D01*
X167894952Y-96182877D01*
X167752819Y-96124003D01*
X167601932Y-96093990D01*
X167448088Y-96093990D01*
X167297201Y-96124003D01*
X167155068Y-96182877D01*
X167027151Y-96268348D01*
X166918368Y-96377131D01*
X166832897Y-96505048D01*
X166774023Y-96647181D01*
X166752563Y-96755068D01*
X163127000Y-100380632D01*
X163127000Y-92000000D01*
X163124560Y-91975224D01*
X163117333Y-91951399D01*
X163105597Y-91929443D01*
X163089803Y-91910197D01*
X163070557Y-91894403D01*
X163048601Y-91882667D01*
X163024776Y-91875440D01*
X163000000Y-91873000D01*
X160272953Y-91873000D01*
X160412048Y-91591653D01*
X159100000Y-90279605D01*
X157787952Y-91591653D01*
X157927047Y-91873000D01*
X152106010Y-91873000D01*
X152106010Y-90142824D01*
X156955098Y-90142824D01*
X157004666Y-90560451D01*
X157134757Y-90960383D01*
X157292786Y-91256038D01*
X157608347Y-91412048D01*
X158920395Y-90100000D01*
X159279605Y-90100000D01*
X160591653Y-91412048D01*
X160907214Y-91256038D01*
X161098020Y-90881255D01*
X161212044Y-90476449D01*
X161244902Y-90057176D01*
X161227997Y-89914738D01*
X162069000Y-89914738D01*
X162069000Y-90285262D01*
X162141286Y-90648667D01*
X162283080Y-90990987D01*
X162488932Y-91299067D01*
X162750933Y-91561068D01*
X163059013Y-91766920D01*
X163401333Y-91908714D01*
X163764738Y-91981000D01*
X164135262Y-91981000D01*
X164498667Y-91908714D01*
X164840987Y-91766920D01*
X165149067Y-91561068D01*
X165411068Y-91299067D01*
X165616920Y-90990987D01*
X165758714Y-90648667D01*
X165831000Y-90285262D01*
X165831000Y-89914738D01*
X165758714Y-89551333D01*
X165753755Y-89539360D01*
X171519000Y-89539360D01*
X171519000Y-89860640D01*
X171581678Y-90175745D01*
X171704626Y-90472568D01*
X171883119Y-90739702D01*
X172110298Y-90966881D01*
X172377432Y-91145374D01*
X172674255Y-91268322D01*
X172989360Y-91331000D01*
X173310640Y-91331000D01*
X173625745Y-91268322D01*
X173922568Y-91145374D01*
X174189702Y-90966881D01*
X174416881Y-90739702D01*
X174595374Y-90472568D01*
X174718322Y-90175745D01*
X174781000Y-89860640D01*
X174781000Y-89539360D01*
X174718322Y-89224255D01*
X174595374Y-88927432D01*
X174416881Y-88660298D01*
X174189702Y-88433119D01*
X173922568Y-88254626D01*
X173625745Y-88131678D01*
X173310640Y-88069000D01*
X172989360Y-88069000D01*
X172674255Y-88131678D01*
X172377432Y-88254626D01*
X172110298Y-88433119D01*
X171883119Y-88660298D01*
X171704626Y-88927432D01*
X171581678Y-89224255D01*
X171519000Y-89539360D01*
X165753755Y-89539360D01*
X165616920Y-89209013D01*
X165411068Y-88900933D01*
X165149067Y-88638932D01*
X164840987Y-88433080D01*
X164498667Y-88291286D01*
X164135262Y-88219000D01*
X163764738Y-88219000D01*
X163401333Y-88291286D01*
X163059013Y-88433080D01*
X162750933Y-88638932D01*
X162488932Y-88900933D01*
X162283080Y-89209013D01*
X162141286Y-89551333D01*
X162069000Y-89914738D01*
X161227997Y-89914738D01*
X161195334Y-89639549D01*
X161065243Y-89239617D01*
X160907214Y-88943962D01*
X160591653Y-88787952D01*
X159279605Y-90100000D01*
X158920395Y-90100000D01*
X157608347Y-88787952D01*
X157292786Y-88943962D01*
X157101980Y-89318745D01*
X156987956Y-89723551D01*
X156955098Y-90142824D01*
X152106010Y-90142824D01*
X152106010Y-88608347D01*
X157787952Y-88608347D01*
X159100000Y-89920395D01*
X160412048Y-88608347D01*
X160256038Y-88292786D01*
X159881255Y-88101980D01*
X159476449Y-87987956D01*
X159057176Y-87955098D01*
X158639549Y-88004666D01*
X158239617Y-88134757D01*
X157943962Y-88292786D01*
X157787952Y-88608347D01*
X152106010Y-88608347D01*
X152106010Y-88136358D01*
X153019922Y-87222447D01*
X153127809Y-87200987D01*
X153269942Y-87142113D01*
X153397859Y-87056642D01*
X153506642Y-86947859D01*
X153592113Y-86819942D01*
X153650987Y-86677809D01*
X153681000Y-86526922D01*
X153681000Y-86373078D01*
X153650987Y-86222191D01*
X153592113Y-86080058D01*
X153506642Y-85952141D01*
X153397859Y-85843358D01*
X153269942Y-85757887D01*
X153127809Y-85699013D01*
X152976922Y-85669000D01*
X152823078Y-85669000D01*
X152672191Y-85699013D01*
X152530058Y-85757887D01*
X152402141Y-85843358D01*
X152293358Y-85952141D01*
X152207887Y-86080058D01*
X152149013Y-86222191D01*
X152127553Y-86330078D01*
X151406000Y-87051632D01*
X151406000Y-84090000D01*
X203713044Y-84090000D01*
X203736812Y-84331318D01*
X203807202Y-84563363D01*
X203921509Y-84777216D01*
X204075340Y-84964660D01*
X204262784Y-85118491D01*
X204476637Y-85232798D01*
X204708682Y-85303188D01*
X204889528Y-85321000D01*
X205510472Y-85321000D01*
X205691318Y-85303188D01*
X205923363Y-85232798D01*
X206137216Y-85118491D01*
X206324660Y-84964660D01*
X206478491Y-84777216D01*
X206592798Y-84563363D01*
X206663188Y-84331318D01*
X206686956Y-84090000D01*
X206663188Y-83848682D01*
X206592798Y-83616637D01*
X206478491Y-83402784D01*
X206324660Y-83215340D01*
X206137216Y-83061509D01*
X205923363Y-82947202D01*
X205691318Y-82876812D01*
X205510472Y-82859000D01*
X204889528Y-82859000D01*
X204708682Y-82876812D01*
X204476637Y-82947202D01*
X204262784Y-83061509D01*
X204075340Y-83215340D01*
X203921509Y-83402784D01*
X203807202Y-83616637D01*
X203736812Y-83848682D01*
X203713044Y-84090000D01*
X151406000Y-84090000D01*
X151406000Y-82363983D01*
X192219000Y-82363983D01*
X192219000Y-82636017D01*
X192272071Y-82902823D01*
X192376174Y-83154149D01*
X192527307Y-83380336D01*
X192719664Y-83572693D01*
X192945851Y-83723826D01*
X193197177Y-83827929D01*
X193463983Y-83881000D01*
X193736017Y-83881000D01*
X194002823Y-83827929D01*
X194254149Y-83723826D01*
X194480336Y-83572693D01*
X194672693Y-83380336D01*
X194823826Y-83154149D01*
X194927929Y-82902823D01*
X194981000Y-82636017D01*
X194981000Y-82363983D01*
X197299000Y-82363983D01*
X197299000Y-82636017D01*
X197352071Y-82902823D01*
X197456174Y-83154149D01*
X197607307Y-83380336D01*
X197799664Y-83572693D01*
X198025851Y-83723826D01*
X198277177Y-83827929D01*
X198543983Y-83881000D01*
X198816017Y-83881000D01*
X199082823Y-83827929D01*
X199334149Y-83723826D01*
X199560336Y-83572693D01*
X199752693Y-83380336D01*
X199903826Y-83154149D01*
X200007929Y-82902823D01*
X200061000Y-82636017D01*
X200061000Y-82363983D01*
X200007929Y-82097177D01*
X199903826Y-81845851D01*
X199752693Y-81619664D01*
X199560336Y-81427307D01*
X199334149Y-81276174D01*
X199082823Y-81172071D01*
X198816017Y-81119000D01*
X198543983Y-81119000D01*
X198277177Y-81172071D01*
X198025851Y-81276174D01*
X197799664Y-81427307D01*
X197607307Y-81619664D01*
X197456174Y-81845851D01*
X197352071Y-82097177D01*
X197299000Y-82363983D01*
X194981000Y-82363983D01*
X194927929Y-82097177D01*
X194823826Y-81845851D01*
X194672693Y-81619664D01*
X194480336Y-81427307D01*
X194254149Y-81276174D01*
X194002823Y-81172071D01*
X193736017Y-81119000D01*
X193463983Y-81119000D01*
X193197177Y-81172071D01*
X192945851Y-81276174D01*
X192719664Y-81427307D01*
X192527307Y-81619664D01*
X192376174Y-81845851D01*
X192272071Y-82097177D01*
X192219000Y-82363983D01*
X151406000Y-82363983D01*
X151406000Y-75804889D01*
X153019000Y-75804889D01*
X153019000Y-76195111D01*
X153095129Y-76577836D01*
X153244461Y-76938355D01*
X153461257Y-77262814D01*
X153737186Y-77538743D01*
X154061645Y-77755539D01*
X154422164Y-77904871D01*
X154804889Y-77981000D01*
X155195111Y-77981000D01*
X155577836Y-77904871D01*
X155831016Y-77800000D01*
X174167157Y-77800000D01*
X174167157Y-80200000D01*
X174174513Y-80274689D01*
X174196299Y-80346508D01*
X174231678Y-80412696D01*
X174279289Y-80470711D01*
X174337304Y-80518322D01*
X174403492Y-80553701D01*
X174475311Y-80575487D01*
X174550000Y-80582843D01*
X176950000Y-80582843D01*
X177024689Y-80575487D01*
X177096508Y-80553701D01*
X177162696Y-80518322D01*
X177220711Y-80470711D01*
X177268322Y-80412696D01*
X177303701Y-80346508D01*
X177325487Y-80274689D01*
X177332843Y-80200000D01*
X177332843Y-78844285D01*
X179169000Y-78844285D01*
X179169000Y-79155715D01*
X179229757Y-79461161D01*
X179348936Y-79748884D01*
X179521957Y-80007829D01*
X179742171Y-80228043D01*
X180001116Y-80401064D01*
X180288839Y-80520243D01*
X180594285Y-80581000D01*
X180905715Y-80581000D01*
X181211161Y-80520243D01*
X181498884Y-80401064D01*
X181757829Y-80228043D01*
X181978043Y-80007829D01*
X182151064Y-79748884D01*
X182270243Y-79461161D01*
X182331000Y-79155715D01*
X182331000Y-78844285D01*
X182270243Y-78538839D01*
X182151064Y-78251116D01*
X181978043Y-77992171D01*
X181757829Y-77771957D01*
X181498884Y-77598936D01*
X181211161Y-77479757D01*
X180905715Y-77419000D01*
X180594285Y-77419000D01*
X180288839Y-77479757D01*
X180001116Y-77598936D01*
X179742171Y-77771957D01*
X179521957Y-77992171D01*
X179348936Y-78251116D01*
X179229757Y-78538839D01*
X179169000Y-78844285D01*
X177332843Y-78844285D01*
X177332843Y-77800000D01*
X177325487Y-77725311D01*
X177303701Y-77653492D01*
X177268322Y-77587304D01*
X177220711Y-77529289D01*
X177162696Y-77481678D01*
X177096508Y-77446299D01*
X177024689Y-77424513D01*
X176950000Y-77417157D01*
X174550000Y-77417157D01*
X174475311Y-77424513D01*
X174403492Y-77446299D01*
X174337304Y-77481678D01*
X174279289Y-77529289D01*
X174231678Y-77587304D01*
X174196299Y-77653492D01*
X174174513Y-77725311D01*
X174167157Y-77800000D01*
X155831016Y-77800000D01*
X155938355Y-77755539D01*
X156262814Y-77538743D01*
X156538743Y-77262814D01*
X156755539Y-76938355D01*
X156904871Y-76577836D01*
X156981000Y-76195111D01*
X156981000Y-75878757D01*
X160049000Y-75878757D01*
X160049000Y-76121243D01*
X160096307Y-76359069D01*
X160189102Y-76583097D01*
X160323820Y-76784717D01*
X160495283Y-76956180D01*
X160696903Y-77090898D01*
X160920931Y-77183693D01*
X161158757Y-77231000D01*
X161401243Y-77231000D01*
X161639069Y-77183693D01*
X161863097Y-77090898D01*
X162064717Y-76956180D01*
X162236180Y-76784717D01*
X162370898Y-76583097D01*
X162463693Y-76359069D01*
X162511000Y-76121243D01*
X162511000Y-75878757D01*
X162589000Y-75878757D01*
X162589000Y-76121243D01*
X162636307Y-76359069D01*
X162729102Y-76583097D01*
X162863820Y-76784717D01*
X163035283Y-76956180D01*
X163236903Y-77090898D01*
X163460931Y-77183693D01*
X163698757Y-77231000D01*
X163941243Y-77231000D01*
X164179069Y-77183693D01*
X164403097Y-77090898D01*
X164604717Y-76956180D01*
X164776180Y-76784717D01*
X164910898Y-76583097D01*
X165003693Y-76359069D01*
X165051000Y-76121243D01*
X165051000Y-75878757D01*
X165129000Y-75878757D01*
X165129000Y-76121243D01*
X165176307Y-76359069D01*
X165269102Y-76583097D01*
X165403820Y-76784717D01*
X165575283Y-76956180D01*
X165776903Y-77090898D01*
X166000931Y-77183693D01*
X166238757Y-77231000D01*
X166481243Y-77231000D01*
X166719069Y-77183693D01*
X166943097Y-77090898D01*
X167144717Y-76956180D01*
X167316180Y-76784717D01*
X167450898Y-76583097D01*
X167543693Y-76359069D01*
X167591000Y-76121243D01*
X167591000Y-75878757D01*
X167543693Y-75640931D01*
X167450898Y-75416903D01*
X167316180Y-75215283D01*
X167250897Y-75150000D01*
X167667157Y-75150000D01*
X167667157Y-76850000D01*
X167674513Y-76924689D01*
X167696299Y-76996508D01*
X167731678Y-77062696D01*
X167779289Y-77120711D01*
X167837304Y-77168322D01*
X167903492Y-77203701D01*
X167975311Y-77225487D01*
X168050000Y-77232843D01*
X169750000Y-77232843D01*
X169824689Y-77225487D01*
X169896508Y-77203701D01*
X169962696Y-77168322D01*
X170020711Y-77120711D01*
X170068322Y-77062696D01*
X170103701Y-76996508D01*
X170125487Y-76924689D01*
X170132843Y-76850000D01*
X170132843Y-75804889D01*
X205019000Y-75804889D01*
X205019000Y-76195111D01*
X205095129Y-76577836D01*
X205244461Y-76938355D01*
X205461257Y-77262814D01*
X205737186Y-77538743D01*
X206061645Y-77755539D01*
X206422164Y-77904871D01*
X206804889Y-77981000D01*
X207195111Y-77981000D01*
X207577836Y-77904871D01*
X207938355Y-77755539D01*
X208262814Y-77538743D01*
X208538743Y-77262814D01*
X208755539Y-76938355D01*
X208904871Y-76577836D01*
X208981000Y-76195111D01*
X208981000Y-75804889D01*
X208904871Y-75422164D01*
X208755539Y-75061645D01*
X208538743Y-74737186D01*
X208262814Y-74461257D01*
X207938355Y-74244461D01*
X207577836Y-74095129D01*
X207195111Y-74019000D01*
X206804889Y-74019000D01*
X206422164Y-74095129D01*
X206061645Y-74244461D01*
X205737186Y-74461257D01*
X205461257Y-74737186D01*
X205244461Y-75061645D01*
X205095129Y-75422164D01*
X205019000Y-75804889D01*
X170132843Y-75804889D01*
X170132843Y-75150000D01*
X170125487Y-75075311D01*
X170103701Y-75003492D01*
X170068322Y-74937304D01*
X170020711Y-74879289D01*
X169962696Y-74831678D01*
X169896508Y-74796299D01*
X169824689Y-74774513D01*
X169750000Y-74767157D01*
X168050000Y-74767157D01*
X167975311Y-74774513D01*
X167903492Y-74796299D01*
X167837304Y-74831678D01*
X167779289Y-74879289D01*
X167731678Y-74937304D01*
X167696299Y-75003492D01*
X167674513Y-75075311D01*
X167667157Y-75150000D01*
X167250897Y-75150000D01*
X167144717Y-75043820D01*
X166943097Y-74909102D01*
X166719069Y-74816307D01*
X166481243Y-74769000D01*
X166238757Y-74769000D01*
X166000931Y-74816307D01*
X165776903Y-74909102D01*
X165575283Y-75043820D01*
X165403820Y-75215283D01*
X165269102Y-75416903D01*
X165176307Y-75640931D01*
X165129000Y-75878757D01*
X165051000Y-75878757D01*
X165003693Y-75640931D01*
X164910898Y-75416903D01*
X164776180Y-75215283D01*
X164604717Y-75043820D01*
X164403097Y-74909102D01*
X164179069Y-74816307D01*
X163941243Y-74769000D01*
X163698757Y-74769000D01*
X163460931Y-74816307D01*
X163236903Y-74909102D01*
X163035283Y-75043820D01*
X162863820Y-75215283D01*
X162729102Y-75416903D01*
X162636307Y-75640931D01*
X162589000Y-75878757D01*
X162511000Y-75878757D01*
X162463693Y-75640931D01*
X162370898Y-75416903D01*
X162236180Y-75215283D01*
X162064717Y-75043820D01*
X161863097Y-74909102D01*
X161639069Y-74816307D01*
X161401243Y-74769000D01*
X161158757Y-74769000D01*
X160920931Y-74816307D01*
X160696903Y-74909102D01*
X160495283Y-75043820D01*
X160323820Y-75215283D01*
X160189102Y-75416903D01*
X160096307Y-75640931D01*
X160049000Y-75878757D01*
X156981000Y-75878757D01*
X156981000Y-75804889D01*
X156904871Y-75422164D01*
X156755539Y-75061645D01*
X156538743Y-74737186D01*
X156262814Y-74461257D01*
X155938355Y-74244461D01*
X155577836Y-74095129D01*
X155195111Y-74019000D01*
X154804889Y-74019000D01*
X154422164Y-74095129D01*
X154061645Y-74244461D01*
X153737186Y-74461257D01*
X153461257Y-74737186D01*
X153244461Y-75061645D01*
X153095129Y-75422164D01*
X153019000Y-75804889D01*
X151406000Y-75804889D01*
X151406000Y-71406000D01*
X210594000Y-71406000D01*
X210594001Y-146594000D01*
G04 #@! TA.AperFunction,Conductor*
D29*
G36*
X210594001Y-146594000D02*
G01*
X151406000Y-146594000D01*
X151406000Y-142773983D01*
X164159000Y-142773983D01*
X164159000Y-143046017D01*
X164212071Y-143312823D01*
X164316174Y-143564149D01*
X164467307Y-143790336D01*
X164659664Y-143982693D01*
X164885851Y-144133826D01*
X165137177Y-144237929D01*
X165403983Y-144291000D01*
X165676017Y-144291000D01*
X165942823Y-144237929D01*
X166194149Y-144133826D01*
X166420336Y-143982693D01*
X166612693Y-143790336D01*
X166763826Y-143564149D01*
X166867929Y-143312823D01*
X166921000Y-143046017D01*
X166921000Y-142773983D01*
X166867929Y-142507177D01*
X166763826Y-142255851D01*
X166612693Y-142029664D01*
X166420336Y-141837307D01*
X166194149Y-141686174D01*
X165942823Y-141582071D01*
X165676017Y-141529000D01*
X165403983Y-141529000D01*
X165137177Y-141582071D01*
X164885851Y-141686174D01*
X164659664Y-141837307D01*
X164467307Y-142029664D01*
X164316174Y-142255851D01*
X164212071Y-142507177D01*
X164159000Y-142773983D01*
X151406000Y-142773983D01*
X151406000Y-136328366D01*
X153844790Y-138767157D01*
X152610000Y-138767157D01*
X152535311Y-138774513D01*
X152463492Y-138796299D01*
X152397304Y-138831678D01*
X152339289Y-138879289D01*
X152291678Y-138937304D01*
X152256299Y-139003492D01*
X152234513Y-139075311D01*
X152227157Y-139150000D01*
X152227157Y-141350000D01*
X152234513Y-141424689D01*
X152256299Y-141496508D01*
X152291678Y-141562696D01*
X152339289Y-141620711D01*
X152397304Y-141668322D01*
X152463492Y-141703701D01*
X152535311Y-141725487D01*
X152610000Y-141732843D01*
X154310000Y-141732843D01*
X154384689Y-141725487D01*
X154456508Y-141703701D01*
X154522696Y-141668322D01*
X154580711Y-141620711D01*
X154628322Y-141562696D01*
X154663701Y-141496508D01*
X154685487Y-141424689D01*
X154692843Y-141350000D01*
X154692843Y-139615210D01*
X154798334Y-139720701D01*
X154786812Y-139758683D01*
X154769000Y-139939529D01*
X154769000Y-140560472D01*
X154786812Y-140741318D01*
X154857202Y-140973363D01*
X154971510Y-141187216D01*
X155125341Y-141374660D01*
X155312785Y-141528491D01*
X155526638Y-141642798D01*
X155758683Y-141713188D01*
X156000000Y-141736956D01*
X156241318Y-141713188D01*
X156473363Y-141642798D01*
X156687216Y-141528491D01*
X156874660Y-141374660D01*
X157028491Y-141187216D01*
X157142798Y-140973362D01*
X157213188Y-140741317D01*
X157231000Y-140560471D01*
X157231000Y-139939529D01*
X157309000Y-139939529D01*
X157309000Y-140560472D01*
X157326812Y-140741318D01*
X157397202Y-140973363D01*
X157511510Y-141187216D01*
X157665341Y-141374660D01*
X157852785Y-141528491D01*
X158066638Y-141642798D01*
X158298683Y-141713188D01*
X158540000Y-141736956D01*
X158781318Y-141713188D01*
X159013363Y-141642798D01*
X159227216Y-141528491D01*
X159414660Y-141374660D01*
X159568491Y-141187216D01*
X159682798Y-140973362D01*
X159753188Y-140741317D01*
X159771000Y-140560471D01*
X159771000Y-139939528D01*
X159753188Y-139758682D01*
X159682798Y-139526637D01*
X159568491Y-139312784D01*
X159414660Y-139125340D01*
X159227215Y-138971509D01*
X159013362Y-138857202D01*
X158781317Y-138786812D01*
X158540000Y-138763044D01*
X158298682Y-138786812D01*
X158066637Y-138857202D01*
X157852784Y-138971509D01*
X157665340Y-139125340D01*
X157511509Y-139312785D01*
X157397202Y-139526638D01*
X157326812Y-139758683D01*
X157309000Y-139939529D01*
X157231000Y-139939529D01*
X157231000Y-139939528D01*
X157213188Y-139758682D01*
X157142798Y-139526637D01*
X157028491Y-139312784D01*
X156874660Y-139125340D01*
X156687215Y-138971509D01*
X156473362Y-138857202D01*
X156241317Y-138786812D01*
X156000000Y-138763044D01*
X155758682Y-138786812D01*
X155674668Y-138812297D01*
X152106010Y-135243640D01*
X152106010Y-132254889D01*
X153119000Y-132254889D01*
X153119000Y-132645111D01*
X153195129Y-133027836D01*
X153344461Y-133388355D01*
X153561257Y-133712814D01*
X153837186Y-133988743D01*
X154161645Y-134205539D01*
X154522164Y-134354871D01*
X154904889Y-134431000D01*
X155295111Y-134431000D01*
X155677836Y-134354871D01*
X156038355Y-134205539D01*
X156362814Y-133988743D01*
X156638743Y-133712814D01*
X156855539Y-133388355D01*
X157004871Y-133027836D01*
X157081000Y-132645111D01*
X157081000Y-132254889D01*
X157004871Y-131872164D01*
X156855539Y-131511645D01*
X156638743Y-131187186D01*
X156362814Y-130911257D01*
X156038355Y-130694461D01*
X155677836Y-130545129D01*
X155295111Y-130469000D01*
X154904889Y-130469000D01*
X154522164Y-130545129D01*
X154161645Y-130694461D01*
X153837186Y-130911257D01*
X153561257Y-131187186D01*
X153344461Y-131511645D01*
X153195129Y-131872164D01*
X153119000Y-132254889D01*
X152106010Y-132254889D01*
X152106010Y-126673078D01*
X153644000Y-126673078D01*
X153644000Y-126826922D01*
X153674013Y-126977809D01*
X153732887Y-127119942D01*
X153818358Y-127247859D01*
X153927141Y-127356642D01*
X154055058Y-127442113D01*
X154197191Y-127500987D01*
X154348078Y-127531000D01*
X154501922Y-127531000D01*
X154652809Y-127500987D01*
X154794942Y-127442113D01*
X154922859Y-127356642D01*
X155031642Y-127247859D01*
X155117113Y-127119942D01*
X155175987Y-126977809D01*
X155206000Y-126826922D01*
X155206000Y-126786368D01*
X156044922Y-125947447D01*
X156152809Y-125925987D01*
X156294942Y-125867113D01*
X156422859Y-125781642D01*
X156531642Y-125672859D01*
X156617113Y-125544942D01*
X156675987Y-125402809D01*
X156706000Y-125251922D01*
X156706000Y-125098078D01*
X156675987Y-124947191D01*
X156617113Y-124805058D01*
X156531642Y-124677141D01*
X156422859Y-124568358D01*
X156294942Y-124482887D01*
X156152809Y-124424013D01*
X156001922Y-124394000D01*
X155848078Y-124394000D01*
X155697191Y-124424013D01*
X155555058Y-124482887D01*
X155427141Y-124568358D01*
X155318358Y-124677141D01*
X155232887Y-124805058D01*
X155174013Y-124947191D01*
X155152553Y-125055078D01*
X154211456Y-125996175D01*
X154197191Y-125999013D01*
X154055058Y-126057887D01*
X153927141Y-126143358D01*
X153818358Y-126252141D01*
X153732887Y-126380058D01*
X153674013Y-126522191D01*
X153644000Y-126673078D01*
X152106010Y-126673078D01*
X152106010Y-120530056D01*
X152132887Y-120594942D01*
X152218358Y-120722859D01*
X152327141Y-120831642D01*
X152455058Y-120917113D01*
X152597191Y-120975987D01*
X152748078Y-121006000D01*
X152901922Y-121006000D01*
X153052809Y-120975987D01*
X153194942Y-120917113D01*
X153322859Y-120831642D01*
X153431642Y-120722859D01*
X153517113Y-120594942D01*
X153575987Y-120452809D01*
X153606000Y-120301922D01*
X153606000Y-120148078D01*
X153575987Y-119997191D01*
X153517113Y-119855058D01*
X153456000Y-119763595D01*
X153456000Y-119111368D01*
X153519921Y-119047447D01*
X153627809Y-119025987D01*
X153769942Y-118967113D01*
X153897859Y-118881642D01*
X154006642Y-118772859D01*
X154092113Y-118644942D01*
X154150987Y-118502809D01*
X154181000Y-118351922D01*
X154181000Y-118198078D01*
X154150987Y-118047191D01*
X154092113Y-117905058D01*
X154006642Y-117777141D01*
X153897859Y-117668358D01*
X153769942Y-117582887D01*
X153627809Y-117524013D01*
X153476922Y-117494000D01*
X153323078Y-117494000D01*
X153172191Y-117524013D01*
X153030058Y-117582887D01*
X152902141Y-117668358D01*
X152793358Y-117777141D01*
X152707887Y-117905058D01*
X152649013Y-118047191D01*
X152627553Y-118155079D01*
X152400732Y-118381899D01*
X152376658Y-118401657D01*
X152356900Y-118425732D01*
X152356897Y-118425735D01*
X152297804Y-118497740D01*
X152239211Y-118607359D01*
X152203130Y-118726303D01*
X152190948Y-118850000D01*
X152194001Y-118881000D01*
X152194000Y-119763595D01*
X152132887Y-119855058D01*
X152106010Y-119919944D01*
X152106010Y-103127000D01*
X152394000Y-103127000D01*
X152394000Y-104066156D01*
X152391553Y-104091002D01*
X152394000Y-104115848D01*
X152394000Y-104115855D01*
X152401322Y-104190194D01*
X152430255Y-104285576D01*
X152477241Y-104373481D01*
X152540473Y-104450529D01*
X152559785Y-104466378D01*
X158456347Y-110362941D01*
X158456346Y-135778201D01*
X158456347Y-135778211D01*
X158456346Y-136837499D01*
X158453899Y-136862346D01*
X158456346Y-136887192D01*
X158456346Y-136887199D01*
X158463668Y-136961538D01*
X158492601Y-137056920D01*
X158539587Y-137144825D01*
X158602819Y-137221873D01*
X158622131Y-137237722D01*
X161874628Y-140490220D01*
X161890473Y-140509527D01*
X161967521Y-140572759D01*
X162048020Y-140615787D01*
X162055425Y-140619745D01*
X162150807Y-140648678D01*
X162250000Y-140658448D01*
X162274854Y-140656000D01*
X168215409Y-140656000D01*
X173399628Y-145840220D01*
X173415473Y-145859527D01*
X173492521Y-145922759D01*
X173580425Y-145969745D01*
X173675807Y-145998678D01*
X173775000Y-146008448D01*
X173799854Y-146006000D01*
X198475154Y-146006000D01*
X198500000Y-146008447D01*
X198524846Y-146006000D01*
X198524854Y-146006000D01*
X198599193Y-145998678D01*
X198694575Y-145969745D01*
X198782479Y-145922759D01*
X198859527Y-145859527D01*
X198875376Y-145840215D01*
X200318915Y-144396676D01*
X200547590Y-144491396D01*
X200847240Y-144551000D01*
X201152760Y-144551000D01*
X201452410Y-144491396D01*
X201734674Y-144374479D01*
X201988705Y-144204741D01*
X202204741Y-143988705D01*
X202374479Y-143734674D01*
X202491396Y-143452410D01*
X202551000Y-143152760D01*
X202551000Y-142847240D01*
X202491396Y-142547590D01*
X202374479Y-142265326D01*
X202204741Y-142011295D01*
X201988705Y-141795259D01*
X201734674Y-141625521D01*
X201452410Y-141508604D01*
X201152760Y-141449000D01*
X200847240Y-141449000D01*
X200547590Y-141508604D01*
X200265326Y-141625521D01*
X200011295Y-141795259D01*
X199795259Y-142011295D01*
X199625521Y-142265326D01*
X199508604Y-142547590D01*
X199449000Y-142847240D01*
X199449000Y-143152760D01*
X199508604Y-143452410D01*
X199603324Y-143681085D01*
X198290409Y-144994000D01*
X173984592Y-144994000D01*
X173147194Y-144156602D01*
X174923003Y-144156602D01*
X175039275Y-144438389D01*
X175357860Y-144596257D01*
X175701122Y-144688938D01*
X176055869Y-144712873D01*
X176408470Y-144667139D01*
X176745373Y-144553495D01*
X176960725Y-144438389D01*
X177076997Y-144156602D01*
X176000000Y-143079605D01*
X174923003Y-144156602D01*
X173147194Y-144156602D01*
X171946461Y-142955869D01*
X174187127Y-142955869D01*
X174232861Y-143308470D01*
X174346505Y-143645373D01*
X174461611Y-143860725D01*
X174743398Y-143976997D01*
X175820395Y-142900000D01*
X176179605Y-142900000D01*
X177256602Y-143976997D01*
X177538389Y-143860725D01*
X177696257Y-143542140D01*
X177788938Y-143198878D01*
X177812873Y-142844131D01*
X177767139Y-142491530D01*
X177653495Y-142154627D01*
X177538389Y-141939275D01*
X177256602Y-141823003D01*
X176179605Y-142900000D01*
X175820395Y-142900000D01*
X174743398Y-141823003D01*
X174461611Y-141939275D01*
X174303743Y-142257860D01*
X174211062Y-142601122D01*
X174187127Y-142955869D01*
X171946461Y-142955869D01*
X170633990Y-141643398D01*
X174923003Y-141643398D01*
X176000000Y-142720395D01*
X177076997Y-141643398D01*
X176960725Y-141361611D01*
X176642140Y-141203743D01*
X176298878Y-141111062D01*
X175944131Y-141087127D01*
X175591530Y-141132861D01*
X175254627Y-141246505D01*
X175039275Y-141361611D01*
X174923003Y-141643398D01*
X170633990Y-141643398D01*
X168800376Y-139809785D01*
X168784527Y-139790473D01*
X168707479Y-139727241D01*
X168619575Y-139680255D01*
X168524193Y-139651322D01*
X168449854Y-139644000D01*
X168449846Y-139644000D01*
X168425000Y-139641553D01*
X168400154Y-139644000D01*
X162459592Y-139644000D01*
X159468346Y-136652755D01*
X159468346Y-132613983D01*
X161619000Y-132613983D01*
X161619000Y-132886017D01*
X161672071Y-133152823D01*
X161776174Y-133404149D01*
X161927307Y-133630336D01*
X162119664Y-133822693D01*
X162345851Y-133973826D01*
X162457325Y-134020000D01*
X162345851Y-134066174D01*
X162119664Y-134217307D01*
X161927307Y-134409664D01*
X161776174Y-134635851D01*
X161672071Y-134887177D01*
X161619000Y-135153983D01*
X161619000Y-135426017D01*
X161672071Y-135692823D01*
X161776174Y-135944149D01*
X161927307Y-136170336D01*
X162119664Y-136362693D01*
X162345851Y-136513826D01*
X162457325Y-136560000D01*
X162345851Y-136606174D01*
X162119664Y-136757307D01*
X161927307Y-136949664D01*
X161776174Y-137175851D01*
X161672071Y-137427177D01*
X161619000Y-137693983D01*
X161619000Y-137966017D01*
X161672071Y-138232823D01*
X161776174Y-138484149D01*
X161927307Y-138710336D01*
X162119664Y-138902693D01*
X162345851Y-139053826D01*
X162597177Y-139157929D01*
X162863983Y-139211000D01*
X163136017Y-139211000D01*
X163402823Y-139157929D01*
X163654149Y-139053826D01*
X163880336Y-138902693D01*
X164072693Y-138710336D01*
X164223826Y-138484149D01*
X164327929Y-138232823D01*
X164381000Y-137966017D01*
X164381000Y-137693983D01*
X164327929Y-137427177D01*
X164223826Y-137175851D01*
X164072693Y-136949664D01*
X163880336Y-136757307D01*
X163654149Y-136606174D01*
X163542675Y-136560000D01*
X163654149Y-136513826D01*
X163880336Y-136362693D01*
X164072693Y-136170336D01*
X164223826Y-135944149D01*
X164327929Y-135692823D01*
X164381000Y-135426017D01*
X164381000Y-135153983D01*
X164327929Y-134887177D01*
X164318340Y-134864028D01*
X164874270Y-134308099D01*
X164898344Y-134288342D01*
X164977197Y-134192260D01*
X165035790Y-134082641D01*
X165071871Y-133963697D01*
X165081001Y-133870997D01*
X165081001Y-133870988D01*
X165084053Y-133840000D01*
X165081001Y-133809012D01*
X165081001Y-132613983D01*
X166699000Y-132613983D01*
X166699000Y-132886017D01*
X166752071Y-133152823D01*
X166856174Y-133404149D01*
X167007307Y-133630336D01*
X167199664Y-133822693D01*
X167425851Y-133973826D01*
X167537325Y-134020000D01*
X167425851Y-134066174D01*
X167199664Y-134217307D01*
X167007307Y-134409664D01*
X166856174Y-134635851D01*
X166752071Y-134887177D01*
X166699000Y-135153983D01*
X166699000Y-135426017D01*
X166752071Y-135692823D01*
X166856174Y-135944149D01*
X167007307Y-136170336D01*
X167199664Y-136362693D01*
X167425851Y-136513826D01*
X167537325Y-136560000D01*
X167425851Y-136606174D01*
X167199664Y-136757307D01*
X167007307Y-136949664D01*
X166856174Y-137175851D01*
X166752071Y-137427177D01*
X166699000Y-137693983D01*
X166699000Y-137966017D01*
X166752071Y-138232823D01*
X166856174Y-138484149D01*
X167007307Y-138710336D01*
X167199664Y-138902693D01*
X167425851Y-139053826D01*
X167677177Y-139157929D01*
X167943983Y-139211000D01*
X168216017Y-139211000D01*
X168482823Y-139157929D01*
X168734149Y-139053826D01*
X168960336Y-138902693D01*
X169152693Y-138710336D01*
X169303826Y-138484149D01*
X169407929Y-138232823D01*
X169461000Y-137966017D01*
X169461000Y-137693983D01*
X169407929Y-137427177D01*
X169303826Y-137175851D01*
X169152693Y-136949664D01*
X168960336Y-136757307D01*
X168734149Y-136606174D01*
X168622675Y-136560000D01*
X168734149Y-136513826D01*
X168960336Y-136362693D01*
X169152693Y-136170336D01*
X169303826Y-135944149D01*
X169407929Y-135692823D01*
X169461000Y-135426017D01*
X169461000Y-135153983D01*
X169407929Y-134887177D01*
X169303826Y-134635851D01*
X169152693Y-134409664D01*
X168960336Y-134217307D01*
X168734149Y-134066174D01*
X168622675Y-134020000D01*
X168734149Y-133973826D01*
X168960336Y-133822693D01*
X169152693Y-133630336D01*
X169303826Y-133404149D01*
X169407929Y-133152823D01*
X169461000Y-132886017D01*
X169461000Y-132613983D01*
X169407929Y-132347177D01*
X169303826Y-132095851D01*
X169152693Y-131869664D01*
X168960336Y-131677307D01*
X168734149Y-131526174D01*
X168482823Y-131422071D01*
X168216017Y-131369000D01*
X167943983Y-131369000D01*
X167677177Y-131422071D01*
X167425851Y-131526174D01*
X167199664Y-131677307D01*
X167007307Y-131869664D01*
X166856174Y-132095851D01*
X166752071Y-132347177D01*
X166699000Y-132613983D01*
X165081001Y-132613983D01*
X165081001Y-128673078D01*
X174944000Y-128673078D01*
X174944000Y-128826922D01*
X174974013Y-128977809D01*
X175032887Y-129119942D01*
X175118358Y-129247859D01*
X175227141Y-129356642D01*
X175355058Y-129442113D01*
X175497191Y-129500987D01*
X175648078Y-129531000D01*
X175801922Y-129531000D01*
X175952809Y-129500987D01*
X176094942Y-129442113D01*
X176222859Y-129356642D01*
X176331642Y-129247859D01*
X176417113Y-129119942D01*
X176475987Y-128977809D01*
X176503655Y-128838714D01*
X177319922Y-128022447D01*
X177427809Y-128000987D01*
X177569942Y-127942113D01*
X177697859Y-127856642D01*
X177806642Y-127747859D01*
X177892113Y-127619942D01*
X177950987Y-127477809D01*
X177981000Y-127326922D01*
X177981000Y-127173078D01*
X177950987Y-127022191D01*
X177892113Y-126880058D01*
X177806642Y-126752141D01*
X177697859Y-126643358D01*
X177569942Y-126557887D01*
X177427809Y-126499013D01*
X177276922Y-126469000D01*
X177123078Y-126469000D01*
X176972191Y-126499013D01*
X176830058Y-126557887D01*
X176702141Y-126643358D01*
X176593358Y-126752141D01*
X176507887Y-126880058D01*
X176449013Y-127022191D01*
X176427553Y-127130078D01*
X175573871Y-127983760D01*
X175497191Y-127999013D01*
X175355058Y-128057887D01*
X175227141Y-128143358D01*
X175118358Y-128252141D01*
X175032887Y-128380058D01*
X174974013Y-128522191D01*
X174944000Y-128673078D01*
X165081001Y-128673078D01*
X165081001Y-118698078D01*
X173819000Y-118698078D01*
X173819000Y-118851922D01*
X173849013Y-119002809D01*
X173907887Y-119144942D01*
X173969000Y-119236405D01*
X173969001Y-119719000D01*
X173965948Y-119750000D01*
X173978130Y-119873697D01*
X174014211Y-119992641D01*
X174072804Y-120102260D01*
X174131897Y-120174265D01*
X174131900Y-120174268D01*
X174151658Y-120198343D01*
X174175733Y-120218101D01*
X174577553Y-120619922D01*
X174599013Y-120727809D01*
X174657887Y-120869942D01*
X174743358Y-120997859D01*
X174852141Y-121106642D01*
X174980058Y-121192113D01*
X175122191Y-121250987D01*
X175273078Y-121281000D01*
X175426922Y-121281000D01*
X175577809Y-121250987D01*
X175719942Y-121192113D01*
X175847859Y-121106642D01*
X175956642Y-120997859D01*
X176042113Y-120869942D01*
X176100987Y-120727809D01*
X176131000Y-120576922D01*
X176131000Y-120423078D01*
X176100987Y-120272191D01*
X176042113Y-120130058D01*
X175956642Y-120002141D01*
X175847859Y-119893358D01*
X175719942Y-119807887D01*
X175577809Y-119749013D01*
X175469922Y-119727553D01*
X175231000Y-119488632D01*
X175231000Y-119236405D01*
X175292113Y-119144942D01*
X175350987Y-119002809D01*
X175381000Y-118851922D01*
X175381000Y-118698078D01*
X175350987Y-118547191D01*
X175292113Y-118405058D01*
X175206642Y-118277141D01*
X175097859Y-118168358D01*
X174969942Y-118082887D01*
X174827809Y-118024013D01*
X174676922Y-117994000D01*
X174523078Y-117994000D01*
X174372191Y-118024013D01*
X174230058Y-118082887D01*
X174102141Y-118168358D01*
X173993358Y-118277141D01*
X173907887Y-118405058D01*
X173849013Y-118547191D01*
X173819000Y-118698078D01*
X165081001Y-118698078D01*
X165081001Y-117523078D01*
X168219000Y-117523078D01*
X168219000Y-117676922D01*
X168249013Y-117827809D01*
X168307887Y-117969942D01*
X168393358Y-118097859D01*
X168502141Y-118206642D01*
X168630058Y-118292113D01*
X168772191Y-118350987D01*
X168923078Y-118381000D01*
X169076922Y-118381000D01*
X169227809Y-118350987D01*
X169369942Y-118292113D01*
X169497859Y-118206642D01*
X169606642Y-118097859D01*
X169692113Y-117969942D01*
X169750987Y-117827809D01*
X169775216Y-117706000D01*
X170001499Y-117706000D01*
X170102141Y-117806642D01*
X170230058Y-117892113D01*
X170372191Y-117950987D01*
X170523078Y-117981000D01*
X170676922Y-117981000D01*
X170827809Y-117950987D01*
X170969942Y-117892113D01*
X171097859Y-117806642D01*
X171206642Y-117697859D01*
X171292113Y-117569942D01*
X171350987Y-117427809D01*
X171381000Y-117276922D01*
X171381000Y-117123078D01*
X171350987Y-116972191D01*
X171292113Y-116830058D01*
X171206642Y-116702141D01*
X171097859Y-116593358D01*
X170969942Y-116507887D01*
X170827809Y-116449013D01*
X170676922Y-116419000D01*
X170523078Y-116419000D01*
X170372191Y-116449013D01*
X170230058Y-116507887D01*
X170102141Y-116593358D01*
X170001499Y-116694000D01*
X169424845Y-116694000D01*
X169399999Y-116691553D01*
X169375153Y-116694000D01*
X169375146Y-116694000D01*
X169310694Y-116700348D01*
X169300806Y-116701322D01*
X169278607Y-116708056D01*
X169205425Y-116730255D01*
X169117521Y-116777241D01*
X169066638Y-116819000D01*
X168923078Y-116819000D01*
X168772191Y-116849013D01*
X168630058Y-116907887D01*
X168502141Y-116993358D01*
X168393358Y-117102141D01*
X168307887Y-117230058D01*
X168249013Y-117372191D01*
X168219000Y-117523078D01*
X165081001Y-117523078D01*
X165081001Y-111198078D01*
X174169000Y-111198078D01*
X174169000Y-111351922D01*
X174199013Y-111502809D01*
X174257887Y-111644942D01*
X174343358Y-111772859D01*
X174452141Y-111881642D01*
X174580058Y-111967113D01*
X174722191Y-112025987D01*
X174873078Y-112056000D01*
X175026922Y-112056000D01*
X175177809Y-112025987D01*
X175319942Y-111967113D01*
X175447859Y-111881642D01*
X175548501Y-111781000D01*
X177613401Y-111781000D01*
X182454966Y-116622565D01*
X182430048Y-116632887D01*
X182302131Y-116718358D01*
X182193348Y-116827141D01*
X182107877Y-116955058D01*
X182049003Y-117097191D01*
X182018990Y-117248078D01*
X182018990Y-117390408D01*
X180659781Y-118749618D01*
X180640474Y-118765463D01*
X180577242Y-118842511D01*
X180573239Y-118850000D01*
X180530255Y-118930416D01*
X180501322Y-119025798D01*
X180491553Y-119124990D01*
X180494001Y-119149846D01*
X180494000Y-141430802D01*
X180265326Y-141525521D01*
X180011295Y-141695259D01*
X179795259Y-141911295D01*
X179625521Y-142165326D01*
X179508604Y-142447590D01*
X179449000Y-142747240D01*
X179449000Y-143052760D01*
X179508604Y-143352410D01*
X179625521Y-143634674D01*
X179795259Y-143888705D01*
X180011295Y-144104741D01*
X180265326Y-144274479D01*
X180547590Y-144391396D01*
X180847240Y-144451000D01*
X181152760Y-144451000D01*
X181452410Y-144391396D01*
X181734674Y-144274479D01*
X181988705Y-144104741D01*
X182204741Y-143888705D01*
X182374479Y-143634674D01*
X182491396Y-143352410D01*
X182551000Y-143052760D01*
X182551000Y-142747240D01*
X184449000Y-142747240D01*
X184449000Y-143052760D01*
X184508604Y-143352410D01*
X184625521Y-143634674D01*
X184795259Y-143888705D01*
X185011295Y-144104741D01*
X185265326Y-144274479D01*
X185547590Y-144391396D01*
X185847240Y-144451000D01*
X186152760Y-144451000D01*
X186452410Y-144391396D01*
X186734674Y-144274479D01*
X186761428Y-144256602D01*
X194923003Y-144256602D01*
X195039275Y-144538389D01*
X195357860Y-144696257D01*
X195701122Y-144788938D01*
X196055869Y-144812873D01*
X196408470Y-144767139D01*
X196745373Y-144653495D01*
X196960725Y-144538389D01*
X197076997Y-144256602D01*
X196000000Y-143179605D01*
X194923003Y-144256602D01*
X186761428Y-144256602D01*
X186988705Y-144104741D01*
X187204741Y-143888705D01*
X187374479Y-143634674D01*
X187491396Y-143352410D01*
X187550381Y-143055869D01*
X194187127Y-143055869D01*
X194232861Y-143408470D01*
X194346505Y-143745373D01*
X194461611Y-143960725D01*
X194743398Y-144076997D01*
X195820395Y-143000000D01*
X196179605Y-143000000D01*
X197256602Y-144076997D01*
X197538389Y-143960725D01*
X197696257Y-143642140D01*
X197788938Y-143298878D01*
X197812873Y-142944131D01*
X197767139Y-142591530D01*
X197653495Y-142254627D01*
X197538389Y-142039275D01*
X197256602Y-141923003D01*
X196179605Y-143000000D01*
X195820395Y-143000000D01*
X194743398Y-141923003D01*
X194461611Y-142039275D01*
X194303743Y-142357860D01*
X194211062Y-142701122D01*
X194187127Y-143055869D01*
X187550381Y-143055869D01*
X187551000Y-143052760D01*
X187551000Y-142747240D01*
X187491396Y-142447590D01*
X187374479Y-142165326D01*
X187204741Y-141911295D01*
X187036844Y-141743398D01*
X194923003Y-141743398D01*
X196000000Y-142820395D01*
X197076997Y-141743398D01*
X196960725Y-141461611D01*
X196642140Y-141303743D01*
X196298878Y-141211062D01*
X195944131Y-141187127D01*
X195591530Y-141232861D01*
X195254627Y-141346505D01*
X195039275Y-141461611D01*
X194923003Y-141743398D01*
X187036844Y-141743398D01*
X186988705Y-141695259D01*
X186734674Y-141525521D01*
X186452410Y-141408604D01*
X186152760Y-141349000D01*
X185847240Y-141349000D01*
X185547590Y-141408604D01*
X185265326Y-141525521D01*
X185011295Y-141695259D01*
X184795259Y-141911295D01*
X184625521Y-142165326D01*
X184508604Y-142447590D01*
X184449000Y-142747240D01*
X182551000Y-142747240D01*
X182491396Y-142447590D01*
X182374479Y-142165326D01*
X182204741Y-141911295D01*
X181988705Y-141695259D01*
X181734674Y-141525521D01*
X181506000Y-141430802D01*
X181506000Y-119334581D01*
X182734582Y-118106000D01*
X182876912Y-118106000D01*
X183027799Y-118075987D01*
X183169932Y-118017113D01*
X183297849Y-117931642D01*
X183406632Y-117822859D01*
X183492103Y-117694942D01*
X183502425Y-117670024D01*
X198418999Y-132586599D01*
X198419000Y-135900143D01*
X198416552Y-135924999D01*
X198426321Y-136024191D01*
X198455254Y-136119573D01*
X198455255Y-136119574D01*
X198502241Y-136207478D01*
X198565473Y-136284526D01*
X198584780Y-136300371D01*
X204603324Y-142318915D01*
X204508604Y-142547590D01*
X204449000Y-142847240D01*
X204449000Y-143152760D01*
X204508604Y-143452410D01*
X204625521Y-143734674D01*
X204795259Y-143988705D01*
X205011295Y-144204741D01*
X205265326Y-144374479D01*
X205547590Y-144491396D01*
X205847240Y-144551000D01*
X206152760Y-144551000D01*
X206452410Y-144491396D01*
X206734674Y-144374479D01*
X206988705Y-144204741D01*
X207204741Y-143988705D01*
X207374479Y-143734674D01*
X207491396Y-143452410D01*
X207551000Y-143152760D01*
X207551000Y-142847240D01*
X207491396Y-142547590D01*
X207374479Y-142265326D01*
X207204741Y-142011295D01*
X206988705Y-141795259D01*
X206734674Y-141625521D01*
X206452410Y-141508604D01*
X206152760Y-141449000D01*
X205847240Y-141449000D01*
X205547590Y-141508604D01*
X205318915Y-141603324D01*
X199430999Y-135715408D01*
X199430999Y-133473499D01*
X199516903Y-133530898D01*
X199740931Y-133623693D01*
X199978757Y-133671000D01*
X200221243Y-133671000D01*
X200459069Y-133623693D01*
X200683097Y-133530898D01*
X200884717Y-133396180D01*
X201056180Y-133224717D01*
X201190898Y-133023097D01*
X201283693Y-132799069D01*
X201331000Y-132561243D01*
X201331000Y-132318757D01*
X201318296Y-132254889D01*
X205119000Y-132254889D01*
X205119000Y-132645111D01*
X205195129Y-133027836D01*
X205344461Y-133388355D01*
X205561257Y-133712814D01*
X205837186Y-133988743D01*
X206161645Y-134205539D01*
X206522164Y-134354871D01*
X206904889Y-134431000D01*
X207295111Y-134431000D01*
X207677836Y-134354871D01*
X208038355Y-134205539D01*
X208362814Y-133988743D01*
X208638743Y-133712814D01*
X208855539Y-133388355D01*
X209004871Y-133027836D01*
X209081000Y-132645111D01*
X209081000Y-132254889D01*
X209004871Y-131872164D01*
X208855539Y-131511645D01*
X208638743Y-131187186D01*
X208362814Y-130911257D01*
X208038355Y-130694461D01*
X207677836Y-130545129D01*
X207295111Y-130469000D01*
X206904889Y-130469000D01*
X206522164Y-130545129D01*
X206161645Y-130694461D01*
X205837186Y-130911257D01*
X205561257Y-131187186D01*
X205344461Y-131511645D01*
X205195129Y-131872164D01*
X205119000Y-132254889D01*
X201318296Y-132254889D01*
X201283693Y-132080931D01*
X201190898Y-131856903D01*
X201056180Y-131655283D01*
X200884717Y-131483820D01*
X200683097Y-131349102D01*
X200459069Y-131256307D01*
X200221243Y-131209000D01*
X199978757Y-131209000D01*
X199740931Y-131256307D01*
X199516903Y-131349102D01*
X199315283Y-131483820D01*
X199143820Y-131655283D01*
X199053717Y-131790133D01*
X196313584Y-129050000D01*
X198867157Y-129050000D01*
X198867157Y-130750000D01*
X198874513Y-130824689D01*
X198896299Y-130896508D01*
X198931678Y-130962696D01*
X198979289Y-131020711D01*
X199037304Y-131068322D01*
X199103492Y-131103701D01*
X199175311Y-131125487D01*
X199250000Y-131132843D01*
X200950000Y-131132843D01*
X201024689Y-131125487D01*
X201096508Y-131103701D01*
X201162696Y-131068322D01*
X201220711Y-131020711D01*
X201268322Y-130962696D01*
X201303701Y-130896508D01*
X201325487Y-130824689D01*
X201332843Y-130750000D01*
X201332843Y-129050000D01*
X201325487Y-128975311D01*
X201303701Y-128903492D01*
X201268322Y-128837304D01*
X201220711Y-128779289D01*
X201162696Y-128731678D01*
X201096508Y-128696299D01*
X201024689Y-128674513D01*
X200950000Y-128667157D01*
X199250000Y-128667157D01*
X199175311Y-128674513D01*
X199103492Y-128696299D01*
X199037304Y-128731678D01*
X198979289Y-128779289D01*
X198931678Y-128837304D01*
X198896299Y-128903492D01*
X198874513Y-128975311D01*
X198867157Y-129050000D01*
X196313584Y-129050000D01*
X178198368Y-110934785D01*
X178182519Y-110915473D01*
X178105471Y-110852241D01*
X178017567Y-110805255D01*
X177922185Y-110776322D01*
X177847846Y-110769000D01*
X177847838Y-110769000D01*
X177822992Y-110766553D01*
X177798146Y-110769000D01*
X175548501Y-110769000D01*
X175447859Y-110668358D01*
X175319942Y-110582887D01*
X175177809Y-110524013D01*
X175026922Y-110494000D01*
X174873078Y-110494000D01*
X174722191Y-110524013D01*
X174580058Y-110582887D01*
X174452141Y-110668358D01*
X174343358Y-110777141D01*
X174257887Y-110905058D01*
X174199013Y-111047191D01*
X174169000Y-111198078D01*
X165081001Y-111198078D01*
X165081001Y-108498078D01*
X174119000Y-108498078D01*
X174119000Y-108651922D01*
X174149013Y-108802809D01*
X174207887Y-108944942D01*
X174293358Y-109072859D01*
X174402141Y-109181642D01*
X174530058Y-109267113D01*
X174672191Y-109325987D01*
X174823078Y-109356000D01*
X174976922Y-109356000D01*
X175127809Y-109325987D01*
X175269942Y-109267113D01*
X175361405Y-109206000D01*
X177238595Y-109206000D01*
X177330058Y-109267113D01*
X177472191Y-109325987D01*
X177623078Y-109356000D01*
X177776922Y-109356000D01*
X177927809Y-109325987D01*
X178069942Y-109267113D01*
X178161405Y-109206000D01*
X180838595Y-109206000D01*
X180930058Y-109267113D01*
X181072191Y-109325987D01*
X181223078Y-109356000D01*
X181376922Y-109356000D01*
X181527809Y-109325987D01*
X181669942Y-109267113D01*
X181761405Y-109206000D01*
X184863595Y-109206000D01*
X184955058Y-109267113D01*
X185097191Y-109325987D01*
X185248078Y-109356000D01*
X185401922Y-109356000D01*
X185552809Y-109325987D01*
X185694942Y-109267113D01*
X185822859Y-109181642D01*
X185931642Y-109072859D01*
X186017113Y-108944942D01*
X186075987Y-108802809D01*
X186106000Y-108651922D01*
X186106000Y-108498078D01*
X186075987Y-108347191D01*
X186017113Y-108205058D01*
X185931642Y-108077141D01*
X185822859Y-107968358D01*
X185694942Y-107882887D01*
X185552809Y-107824013D01*
X185401922Y-107794000D01*
X185248078Y-107794000D01*
X185097191Y-107824013D01*
X184955058Y-107882887D01*
X184863595Y-107944000D01*
X181931000Y-107944000D01*
X181931000Y-101380990D01*
X181934052Y-101350000D01*
X181931000Y-101319009D01*
X181931000Y-101319002D01*
X181921870Y-101226302D01*
X181885789Y-101107358D01*
X181827196Y-100997739D01*
X181821233Y-100990473D01*
X181768103Y-100925734D01*
X181768101Y-100925732D01*
X181748343Y-100901657D01*
X181724268Y-100881899D01*
X181067369Y-100225000D01*
X185842157Y-100225000D01*
X185842157Y-102725000D01*
X185849513Y-102799689D01*
X185871299Y-102871508D01*
X185906678Y-102937696D01*
X185954289Y-102995711D01*
X186012304Y-103043322D01*
X186078492Y-103078701D01*
X186150311Y-103100487D01*
X186225000Y-103107843D01*
X188725000Y-103107843D01*
X188799689Y-103100487D01*
X188871508Y-103078701D01*
X188937696Y-103043322D01*
X188995711Y-102995711D01*
X189043322Y-102937696D01*
X189078701Y-102871508D01*
X189100487Y-102799689D01*
X189107843Y-102725000D01*
X189107843Y-100600000D01*
X199217157Y-100600000D01*
X199217157Y-103000000D01*
X199224513Y-103074689D01*
X199246299Y-103146508D01*
X199281678Y-103212696D01*
X199329289Y-103270711D01*
X199387304Y-103318322D01*
X199453492Y-103353701D01*
X199525311Y-103375487D01*
X199600000Y-103382843D01*
X202000000Y-103382843D01*
X202074689Y-103375487D01*
X202146508Y-103353701D01*
X202212696Y-103318322D01*
X202270711Y-103270711D01*
X202318322Y-103212696D01*
X202353701Y-103146508D01*
X202375487Y-103074689D01*
X202382843Y-103000000D01*
X202382843Y-101644285D01*
X204219000Y-101644285D01*
X204219000Y-101955715D01*
X204279757Y-102261161D01*
X204398936Y-102548884D01*
X204571957Y-102807829D01*
X204792171Y-103028043D01*
X205051116Y-103201064D01*
X205338839Y-103320243D01*
X205644285Y-103381000D01*
X205955715Y-103381000D01*
X206261161Y-103320243D01*
X206548884Y-103201064D01*
X206807829Y-103028043D01*
X207028043Y-102807829D01*
X207201064Y-102548884D01*
X207320243Y-102261161D01*
X207381000Y-101955715D01*
X207381000Y-101644285D01*
X207320243Y-101338839D01*
X207201064Y-101051116D01*
X207028043Y-100792171D01*
X206807829Y-100571957D01*
X206548884Y-100398936D01*
X206261161Y-100279757D01*
X205955715Y-100219000D01*
X205644285Y-100219000D01*
X205338839Y-100279757D01*
X205051116Y-100398936D01*
X204792171Y-100571957D01*
X204571957Y-100792171D01*
X204398936Y-101051116D01*
X204279757Y-101338839D01*
X204219000Y-101644285D01*
X202382843Y-101644285D01*
X202382843Y-100600000D01*
X202375487Y-100525311D01*
X202353701Y-100453492D01*
X202318322Y-100387304D01*
X202270711Y-100329289D01*
X202212696Y-100281678D01*
X202146508Y-100246299D01*
X202074689Y-100224513D01*
X202000000Y-100217157D01*
X199600000Y-100217157D01*
X199525311Y-100224513D01*
X199453492Y-100246299D01*
X199387304Y-100281678D01*
X199329289Y-100329289D01*
X199281678Y-100387304D01*
X199246299Y-100453492D01*
X199224513Y-100525311D01*
X199217157Y-100600000D01*
X189107843Y-100600000D01*
X189107843Y-100225000D01*
X189100487Y-100150311D01*
X189078701Y-100078492D01*
X189043322Y-100012304D01*
X188995711Y-99954289D01*
X188937696Y-99906678D01*
X188871508Y-99871299D01*
X188799689Y-99849513D01*
X188725000Y-99842157D01*
X186225000Y-99842157D01*
X186150311Y-99849513D01*
X186078492Y-99871299D01*
X186012304Y-99906678D01*
X185954289Y-99954289D01*
X185906678Y-100012304D01*
X185871299Y-100078492D01*
X185849513Y-100150311D01*
X185842157Y-100225000D01*
X181067369Y-100225000D01*
X178196729Y-97354360D01*
X185844000Y-97354360D01*
X185844000Y-97675640D01*
X185906678Y-97990745D01*
X186029626Y-98287568D01*
X186208119Y-98554702D01*
X186435298Y-98781881D01*
X186702432Y-98960374D01*
X186999255Y-99083322D01*
X187314360Y-99146000D01*
X187635640Y-99146000D01*
X187950745Y-99083322D01*
X188247568Y-98960374D01*
X188514702Y-98781881D01*
X188741881Y-98554702D01*
X188920374Y-98287568D01*
X189043322Y-97990745D01*
X189106000Y-97675640D01*
X189106000Y-97354360D01*
X189043322Y-97039255D01*
X188920374Y-96742432D01*
X188741881Y-96475298D01*
X188514702Y-96248119D01*
X188247568Y-96069626D01*
X187950745Y-95946678D01*
X187635640Y-95884000D01*
X187314360Y-95884000D01*
X186999255Y-95946678D01*
X186702432Y-96069626D01*
X186435298Y-96248119D01*
X186208119Y-96475298D01*
X186029626Y-96742432D01*
X185906678Y-97039255D01*
X185844000Y-97354360D01*
X178196729Y-97354360D01*
X178018105Y-97175737D01*
X177998343Y-97151657D01*
X177974269Y-97131900D01*
X177672447Y-96830078D01*
X177650987Y-96722191D01*
X177592113Y-96580058D01*
X177506642Y-96452141D01*
X177397859Y-96343358D01*
X177269942Y-96257887D01*
X177127809Y-96199013D01*
X176976922Y-96169000D01*
X176823078Y-96169000D01*
X176672191Y-96199013D01*
X176530058Y-96257887D01*
X176402141Y-96343358D01*
X176293358Y-96452141D01*
X176207887Y-96580058D01*
X176149013Y-96722191D01*
X176119000Y-96873078D01*
X176119000Y-97026922D01*
X176149013Y-97177809D01*
X176207887Y-97319942D01*
X176293358Y-97447859D01*
X176402141Y-97556642D01*
X176530058Y-97642113D01*
X176672191Y-97700987D01*
X176780078Y-97722447D01*
X176919000Y-97861369D01*
X176919001Y-98863425D01*
X176907887Y-98880058D01*
X176849013Y-99022191D01*
X176819000Y-99173078D01*
X176819000Y-99326922D01*
X176849013Y-99477809D01*
X176907887Y-99619942D01*
X176993358Y-99747859D01*
X177102141Y-99856642D01*
X177230058Y-99942113D01*
X177372191Y-100000987D01*
X177523078Y-100031000D01*
X177676922Y-100031000D01*
X177827809Y-100000987D01*
X177969942Y-99942113D01*
X178097859Y-99856642D01*
X178206642Y-99747859D01*
X178292113Y-99619942D01*
X178350987Y-99477809D01*
X178381000Y-99326922D01*
X178381000Y-99323368D01*
X180669001Y-101611370D01*
X180669000Y-107944000D01*
X178161405Y-107944000D01*
X178069942Y-107882887D01*
X177927809Y-107824013D01*
X177776922Y-107794000D01*
X177623078Y-107794000D01*
X177472191Y-107824013D01*
X177330058Y-107882887D01*
X177238595Y-107944000D01*
X175361405Y-107944000D01*
X175269942Y-107882887D01*
X175127809Y-107824013D01*
X174976922Y-107794000D01*
X174823078Y-107794000D01*
X174672191Y-107824013D01*
X174530058Y-107882887D01*
X174402141Y-107968358D01*
X174293358Y-108077141D01*
X174207887Y-108205058D01*
X174149013Y-108347191D01*
X174119000Y-108498078D01*
X165081001Y-108498078D01*
X165081001Y-106911367D01*
X178598008Y-93394360D01*
X185844000Y-93394360D01*
X185844000Y-93715640D01*
X185906678Y-94030745D01*
X186029626Y-94327568D01*
X186208119Y-94594702D01*
X186435298Y-94821881D01*
X186702432Y-95000374D01*
X186999255Y-95123322D01*
X187314360Y-95186000D01*
X187635640Y-95186000D01*
X187950745Y-95123322D01*
X188247568Y-95000374D01*
X188514702Y-94821881D01*
X188741881Y-94594702D01*
X188920374Y-94327568D01*
X189043322Y-94030745D01*
X189106000Y-93715640D01*
X189106000Y-93394360D01*
X189043322Y-93079255D01*
X188920374Y-92782432D01*
X188741881Y-92515298D01*
X188590566Y-92363983D01*
X192219000Y-92363983D01*
X192219000Y-92636017D01*
X192272071Y-92902823D01*
X192376174Y-93154149D01*
X192527307Y-93380336D01*
X192719664Y-93572693D01*
X192945851Y-93723826D01*
X193197177Y-93827929D01*
X193463983Y-93881000D01*
X193736017Y-93881000D01*
X194002823Y-93827929D01*
X194254149Y-93723826D01*
X194480336Y-93572693D01*
X194672693Y-93380336D01*
X194823826Y-93154149D01*
X194927929Y-92902823D01*
X194981000Y-92636017D01*
X194981000Y-92363983D01*
X197299000Y-92363983D01*
X197299000Y-92636017D01*
X197352071Y-92902823D01*
X197456174Y-93154149D01*
X197607307Y-93380336D01*
X197799664Y-93572693D01*
X198025851Y-93723826D01*
X198277177Y-93827929D01*
X198543983Y-93881000D01*
X198816017Y-93881000D01*
X199082823Y-93827929D01*
X199334149Y-93723826D01*
X199560336Y-93572693D01*
X199752693Y-93380336D01*
X199903826Y-93154149D01*
X200007929Y-92902823D01*
X200061000Y-92636017D01*
X200061000Y-92363983D01*
X200007929Y-92097177D01*
X199903826Y-91845851D01*
X199752693Y-91619664D01*
X199560336Y-91427307D01*
X199334149Y-91276174D01*
X199082823Y-91172071D01*
X198816017Y-91119000D01*
X198543983Y-91119000D01*
X198277177Y-91172071D01*
X198025851Y-91276174D01*
X197799664Y-91427307D01*
X197607307Y-91619664D01*
X197456174Y-91845851D01*
X197352071Y-92097177D01*
X197299000Y-92363983D01*
X194981000Y-92363983D01*
X194927929Y-92097177D01*
X194823826Y-91845851D01*
X194672693Y-91619664D01*
X194480336Y-91427307D01*
X194254149Y-91276174D01*
X194002823Y-91172071D01*
X193736017Y-91119000D01*
X193463983Y-91119000D01*
X193197177Y-91172071D01*
X192945851Y-91276174D01*
X192719664Y-91427307D01*
X192527307Y-91619664D01*
X192376174Y-91845851D01*
X192272071Y-92097177D01*
X192219000Y-92363983D01*
X188590566Y-92363983D01*
X188514702Y-92288119D01*
X188247568Y-92109626D01*
X187950745Y-91986678D01*
X187635640Y-91924000D01*
X187314360Y-91924000D01*
X186999255Y-91986678D01*
X186702432Y-92109626D01*
X186435298Y-92288119D01*
X186208119Y-92515298D01*
X186029626Y-92782432D01*
X185906678Y-93079255D01*
X185844000Y-93394360D01*
X178598008Y-93394360D01*
X182558008Y-89434360D01*
X185844000Y-89434360D01*
X185844000Y-89755640D01*
X185906678Y-90070745D01*
X186029626Y-90367568D01*
X186208119Y-90634702D01*
X186435298Y-90861881D01*
X186702432Y-91040374D01*
X186999255Y-91163322D01*
X187314360Y-91226000D01*
X187635640Y-91226000D01*
X187950745Y-91163322D01*
X188247568Y-91040374D01*
X188514702Y-90861881D01*
X188516583Y-90860000D01*
X203717157Y-90860000D01*
X203717157Y-92560000D01*
X203724513Y-92634689D01*
X203746299Y-92706508D01*
X203781678Y-92772696D01*
X203829289Y-92830711D01*
X203887304Y-92878322D01*
X203953492Y-92913701D01*
X204025311Y-92935487D01*
X204100000Y-92942843D01*
X206300000Y-92942843D01*
X206374689Y-92935487D01*
X206446508Y-92913701D01*
X206512696Y-92878322D01*
X206570711Y-92830711D01*
X206618322Y-92772696D01*
X206653701Y-92706508D01*
X206675487Y-92634689D01*
X206682843Y-92560000D01*
X206682843Y-90860000D01*
X206675487Y-90785311D01*
X206653701Y-90713492D01*
X206618322Y-90647304D01*
X206570711Y-90589289D01*
X206512696Y-90541678D01*
X206446508Y-90506299D01*
X206374689Y-90484513D01*
X206300000Y-90477157D01*
X204100000Y-90477157D01*
X204025311Y-90484513D01*
X203953492Y-90506299D01*
X203887304Y-90541678D01*
X203829289Y-90589289D01*
X203781678Y-90647304D01*
X203746299Y-90713492D01*
X203724513Y-90785311D01*
X203717157Y-90860000D01*
X188516583Y-90860000D01*
X188741881Y-90634702D01*
X188920374Y-90367568D01*
X189043322Y-90070745D01*
X189106000Y-89755640D01*
X189106000Y-89434360D01*
X189053416Y-89170000D01*
X203713044Y-89170000D01*
X203736812Y-89411318D01*
X203807202Y-89643363D01*
X203921509Y-89857216D01*
X204075340Y-90044660D01*
X204262784Y-90198491D01*
X204476637Y-90312798D01*
X204708682Y-90383188D01*
X204889528Y-90401000D01*
X205510472Y-90401000D01*
X205691318Y-90383188D01*
X205923363Y-90312798D01*
X206137216Y-90198491D01*
X206324660Y-90044660D01*
X206478491Y-89857216D01*
X206592798Y-89643363D01*
X206663188Y-89411318D01*
X206686956Y-89170000D01*
X206663188Y-88928682D01*
X206592798Y-88696637D01*
X206478491Y-88482784D01*
X206324660Y-88295340D01*
X206137216Y-88141509D01*
X205923363Y-88027202D01*
X205691318Y-87956812D01*
X205510472Y-87939000D01*
X204889528Y-87939000D01*
X204708682Y-87956812D01*
X204476637Y-88027202D01*
X204262784Y-88141509D01*
X204075340Y-88295340D01*
X203921509Y-88482784D01*
X203807202Y-88696637D01*
X203736812Y-88928682D01*
X203713044Y-89170000D01*
X189053416Y-89170000D01*
X189043322Y-89119255D01*
X188920374Y-88822432D01*
X188741881Y-88555298D01*
X188514702Y-88328119D01*
X188247568Y-88149626D01*
X187950745Y-88026678D01*
X187635640Y-87964000D01*
X187314360Y-87964000D01*
X186999255Y-88026678D01*
X186702432Y-88149626D01*
X186435298Y-88328119D01*
X186208119Y-88555298D01*
X186029626Y-88822432D01*
X185906678Y-89119255D01*
X185844000Y-89434360D01*
X182558008Y-89434360D01*
X185019922Y-86972447D01*
X185127809Y-86950987D01*
X185269942Y-86892113D01*
X185397859Y-86806642D01*
X185506642Y-86697859D01*
X185551983Y-86630000D01*
X203713044Y-86630000D01*
X203736812Y-86871318D01*
X203807202Y-87103363D01*
X203921509Y-87317216D01*
X204075340Y-87504660D01*
X204262784Y-87658491D01*
X204476637Y-87772798D01*
X204708682Y-87843188D01*
X204889528Y-87861000D01*
X205510472Y-87861000D01*
X205691318Y-87843188D01*
X205923363Y-87772798D01*
X206137216Y-87658491D01*
X206324660Y-87504660D01*
X206478491Y-87317216D01*
X206592798Y-87103363D01*
X206663188Y-86871318D01*
X206686956Y-86630000D01*
X206663188Y-86388682D01*
X206592798Y-86156637D01*
X206478491Y-85942784D01*
X206324660Y-85755340D01*
X206137216Y-85601509D01*
X205923363Y-85487202D01*
X205691318Y-85416812D01*
X205510472Y-85399000D01*
X204889528Y-85399000D01*
X204708682Y-85416812D01*
X204476637Y-85487202D01*
X204262784Y-85601509D01*
X204075340Y-85755340D01*
X203921509Y-85942784D01*
X203807202Y-86156637D01*
X203736812Y-86388682D01*
X203713044Y-86630000D01*
X185551983Y-86630000D01*
X185592113Y-86569942D01*
X185650987Y-86427809D01*
X185681000Y-86276922D01*
X185681000Y-86123078D01*
X185650987Y-85972191D01*
X185592113Y-85830058D01*
X185506642Y-85702141D01*
X185397859Y-85593358D01*
X185269942Y-85507887D01*
X185127809Y-85449013D01*
X184976922Y-85419000D01*
X184823078Y-85419000D01*
X184672191Y-85449013D01*
X184530058Y-85507887D01*
X184402141Y-85593358D01*
X184293358Y-85702141D01*
X184207887Y-85830058D01*
X184149013Y-85972191D01*
X184127553Y-86080078D01*
X173293653Y-96913979D01*
X173293653Y-96885731D01*
X173263640Y-96734844D01*
X173204766Y-96592711D01*
X173119295Y-96464794D01*
X173010512Y-96356011D01*
X172966180Y-96326389D01*
X172989360Y-96331000D01*
X173310640Y-96331000D01*
X173625745Y-96268322D01*
X173922568Y-96145374D01*
X174189702Y-95966881D01*
X174416881Y-95739702D01*
X174595374Y-95472568D01*
X174718322Y-95175745D01*
X174781000Y-94860640D01*
X174781000Y-94539360D01*
X174718322Y-94224255D01*
X174595374Y-93927432D01*
X174416881Y-93660298D01*
X174189702Y-93433119D01*
X173922568Y-93254626D01*
X173625745Y-93131678D01*
X173310640Y-93069000D01*
X172989360Y-93069000D01*
X172674255Y-93131678D01*
X172377432Y-93254626D01*
X172110298Y-93433119D01*
X171883119Y-93660298D01*
X171704626Y-93927432D01*
X171581678Y-94224255D01*
X171519000Y-94539360D01*
X171519000Y-94860640D01*
X171581678Y-95175745D01*
X171704626Y-95472568D01*
X171883119Y-95739702D01*
X172110298Y-95966881D01*
X172377432Y-96145374D01*
X172465017Y-96181653D01*
X172435731Y-96181653D01*
X172284844Y-96211666D01*
X172146429Y-96269000D01*
X170761405Y-96269000D01*
X170669942Y-96207887D01*
X170527809Y-96149013D01*
X170376922Y-96119000D01*
X170223078Y-96119000D01*
X170072191Y-96149013D01*
X169930058Y-96207887D01*
X169802141Y-96293358D01*
X169693358Y-96402141D01*
X169607887Y-96530058D01*
X169549013Y-96672191D01*
X169519000Y-96823078D01*
X169519000Y-96976922D01*
X169549013Y-97127809D01*
X169607887Y-97269942D01*
X169693358Y-97397859D01*
X169802141Y-97506642D01*
X169930058Y-97592113D01*
X170072191Y-97650987D01*
X170223078Y-97681000D01*
X170376922Y-97681000D01*
X170527809Y-97650987D01*
X170669942Y-97592113D01*
X170761405Y-97531000D01*
X171976499Y-97531000D01*
X172014794Y-97569295D01*
X172142711Y-97654766D01*
X172284844Y-97713640D01*
X172435731Y-97743653D01*
X172463979Y-97743653D01*
X164025734Y-106181898D01*
X164001659Y-106201656D01*
X163981901Y-106225731D01*
X163981898Y-106225734D01*
X163922805Y-106297739D01*
X163864212Y-106407358D01*
X163828131Y-106526302D01*
X163815949Y-106649999D01*
X163819002Y-106680999D01*
X163819001Y-131636324D01*
X163654149Y-131526174D01*
X163402823Y-131422071D01*
X163136017Y-131369000D01*
X162863983Y-131369000D01*
X162597177Y-131422071D01*
X162345851Y-131526174D01*
X162119664Y-131677307D01*
X161927307Y-131869664D01*
X161776174Y-132095851D01*
X161672071Y-132347177D01*
X161619000Y-132613983D01*
X159468346Y-132613983D01*
X159468346Y-127465392D01*
X159610425Y-127493653D01*
X159764269Y-127493653D01*
X159915156Y-127463640D01*
X160057289Y-127404766D01*
X160185206Y-127319295D01*
X160293989Y-127210512D01*
X160379460Y-127082595D01*
X160438334Y-126940462D01*
X160459794Y-126832574D01*
X161019922Y-126272447D01*
X161127809Y-126250987D01*
X161269942Y-126192113D01*
X161397859Y-126106642D01*
X161506642Y-125997859D01*
X161592113Y-125869942D01*
X161650987Y-125727809D01*
X161672447Y-125619921D01*
X162819921Y-124472447D01*
X162927809Y-124450987D01*
X163069942Y-124392113D01*
X163197859Y-124306642D01*
X163306642Y-124197859D01*
X163392113Y-124069942D01*
X163450987Y-123927809D01*
X163481000Y-123776922D01*
X163481000Y-123623078D01*
X163450987Y-123472191D01*
X163392113Y-123330058D01*
X163306642Y-123202141D01*
X163197859Y-123093358D01*
X163069942Y-123007887D01*
X162927809Y-122949013D01*
X162776922Y-122919000D01*
X162623078Y-122919000D01*
X162472191Y-122949013D01*
X162330058Y-123007887D01*
X162202141Y-123093358D01*
X162093358Y-123202141D01*
X162007887Y-123330058D01*
X161949013Y-123472191D01*
X161927553Y-123580079D01*
X160780079Y-124727553D01*
X160672191Y-124749013D01*
X160530058Y-124807887D01*
X160402141Y-124893358D01*
X160293358Y-125002141D01*
X160207887Y-125130058D01*
X160149013Y-125272191D01*
X160127553Y-125380078D01*
X159567426Y-125940206D01*
X159468346Y-125959914D01*
X159468346Y-110178202D01*
X159470794Y-110153348D01*
X159461024Y-110054155D01*
X159432091Y-109958773D01*
X159385105Y-109870869D01*
X159321873Y-109793821D01*
X159302566Y-109777976D01*
X157031666Y-107507076D01*
X157129900Y-107487536D01*
X157335729Y-107402279D01*
X157520970Y-107278505D01*
X157678505Y-107120970D01*
X157802279Y-106935729D01*
X157887536Y-106729900D01*
X157931000Y-106511394D01*
X157931000Y-106288606D01*
X160549000Y-106288606D01*
X160549000Y-106511394D01*
X160592464Y-106729900D01*
X160677721Y-106935729D01*
X160801495Y-107120970D01*
X160959030Y-107278505D01*
X161144271Y-107402279D01*
X161350100Y-107487536D01*
X161568606Y-107531000D01*
X161791394Y-107531000D01*
X162009900Y-107487536D01*
X162215729Y-107402279D01*
X162400970Y-107278505D01*
X162558505Y-107120970D01*
X162682279Y-106935729D01*
X162767536Y-106729900D01*
X162811000Y-106511394D01*
X162811000Y-106288606D01*
X162767536Y-106070100D01*
X162682279Y-105864271D01*
X162558505Y-105679030D01*
X162400970Y-105521495D01*
X162215729Y-105397721D01*
X162009900Y-105312464D01*
X161791394Y-105269000D01*
X161568606Y-105269000D01*
X161350100Y-105312464D01*
X161144271Y-105397721D01*
X160959030Y-105521495D01*
X160801495Y-105679030D01*
X160677721Y-105864271D01*
X160592464Y-106070100D01*
X160549000Y-106288606D01*
X157931000Y-106288606D01*
X157887536Y-106070100D01*
X157802279Y-105864271D01*
X157678505Y-105679030D01*
X157520970Y-105521495D01*
X157335729Y-105397721D01*
X157129900Y-105312464D01*
X156911394Y-105269000D01*
X156688606Y-105269000D01*
X156470100Y-105312464D01*
X156264271Y-105397721D01*
X156079030Y-105521495D01*
X155921495Y-105679030D01*
X155797721Y-105864271D01*
X155712464Y-106070100D01*
X155692924Y-106168334D01*
X153406000Y-103881411D01*
X153406000Y-103127000D01*
X163000000Y-103127000D01*
X163024776Y-103124560D01*
X163048601Y-103117333D01*
X163070557Y-103105597D01*
X163089803Y-103089803D01*
X163105597Y-103070557D01*
X163117333Y-103048601D01*
X163124560Y-103024776D01*
X163127000Y-103000000D01*
X163127000Y-102690070D01*
X163130058Y-102692113D01*
X163272191Y-102750987D01*
X163423078Y-102781000D01*
X163576922Y-102781000D01*
X163727809Y-102750987D01*
X163869942Y-102692113D01*
X163997859Y-102606642D01*
X164106642Y-102497859D01*
X164192113Y-102369942D01*
X164250987Y-102227809D01*
X164281000Y-102076922D01*
X164281000Y-101923078D01*
X164250987Y-101772191D01*
X164192113Y-101630058D01*
X164106642Y-101502141D01*
X163997859Y-101393358D01*
X163938603Y-101353765D01*
X167644932Y-97647437D01*
X167752819Y-97625977D01*
X167894952Y-97567103D01*
X168022869Y-97481632D01*
X168131652Y-97372849D01*
X168217123Y-97244932D01*
X168275997Y-97102799D01*
X168306010Y-96951912D01*
X168306010Y-96798068D01*
X168275997Y-96647181D01*
X168217123Y-96505048D01*
X168131652Y-96377131D01*
X168022869Y-96268348D01*
X167894952Y-96182877D01*
X167752819Y-96124003D01*
X167601932Y-96093990D01*
X167448088Y-96093990D01*
X167297201Y-96124003D01*
X167155068Y-96182877D01*
X167027151Y-96268348D01*
X166918368Y-96377131D01*
X166832897Y-96505048D01*
X166774023Y-96647181D01*
X166752563Y-96755068D01*
X163127000Y-100380632D01*
X163127000Y-92000000D01*
X163124560Y-91975224D01*
X163117333Y-91951399D01*
X163105597Y-91929443D01*
X163089803Y-91910197D01*
X163070557Y-91894403D01*
X163048601Y-91882667D01*
X163024776Y-91875440D01*
X163000000Y-91873000D01*
X160272953Y-91873000D01*
X160412048Y-91591653D01*
X159100000Y-90279605D01*
X157787952Y-91591653D01*
X157927047Y-91873000D01*
X152106010Y-91873000D01*
X152106010Y-90142824D01*
X156955098Y-90142824D01*
X157004666Y-90560451D01*
X157134757Y-90960383D01*
X157292786Y-91256038D01*
X157608347Y-91412048D01*
X158920395Y-90100000D01*
X159279605Y-90100000D01*
X160591653Y-91412048D01*
X160907214Y-91256038D01*
X161098020Y-90881255D01*
X161212044Y-90476449D01*
X161244902Y-90057176D01*
X161227997Y-89914738D01*
X162069000Y-89914738D01*
X162069000Y-90285262D01*
X162141286Y-90648667D01*
X162283080Y-90990987D01*
X162488932Y-91299067D01*
X162750933Y-91561068D01*
X163059013Y-91766920D01*
X163401333Y-91908714D01*
X163764738Y-91981000D01*
X164135262Y-91981000D01*
X164498667Y-91908714D01*
X164840987Y-91766920D01*
X165149067Y-91561068D01*
X165411068Y-91299067D01*
X165616920Y-90990987D01*
X165758714Y-90648667D01*
X165831000Y-90285262D01*
X165831000Y-89914738D01*
X165758714Y-89551333D01*
X165753755Y-89539360D01*
X171519000Y-89539360D01*
X171519000Y-89860640D01*
X171581678Y-90175745D01*
X171704626Y-90472568D01*
X171883119Y-90739702D01*
X172110298Y-90966881D01*
X172377432Y-91145374D01*
X172674255Y-91268322D01*
X172989360Y-91331000D01*
X173310640Y-91331000D01*
X173625745Y-91268322D01*
X173922568Y-91145374D01*
X174189702Y-90966881D01*
X174416881Y-90739702D01*
X174595374Y-90472568D01*
X174718322Y-90175745D01*
X174781000Y-89860640D01*
X174781000Y-89539360D01*
X174718322Y-89224255D01*
X174595374Y-88927432D01*
X174416881Y-88660298D01*
X174189702Y-88433119D01*
X173922568Y-88254626D01*
X173625745Y-88131678D01*
X173310640Y-88069000D01*
X172989360Y-88069000D01*
X172674255Y-88131678D01*
X172377432Y-88254626D01*
X172110298Y-88433119D01*
X171883119Y-88660298D01*
X171704626Y-88927432D01*
X171581678Y-89224255D01*
X171519000Y-89539360D01*
X165753755Y-89539360D01*
X165616920Y-89209013D01*
X165411068Y-88900933D01*
X165149067Y-88638932D01*
X164840987Y-88433080D01*
X164498667Y-88291286D01*
X164135262Y-88219000D01*
X163764738Y-88219000D01*
X163401333Y-88291286D01*
X163059013Y-88433080D01*
X162750933Y-88638932D01*
X162488932Y-88900933D01*
X162283080Y-89209013D01*
X162141286Y-89551333D01*
X162069000Y-89914738D01*
X161227997Y-89914738D01*
X161195334Y-89639549D01*
X161065243Y-89239617D01*
X160907214Y-88943962D01*
X160591653Y-88787952D01*
X159279605Y-90100000D01*
X158920395Y-90100000D01*
X157608347Y-88787952D01*
X157292786Y-88943962D01*
X157101980Y-89318745D01*
X156987956Y-89723551D01*
X156955098Y-90142824D01*
X152106010Y-90142824D01*
X152106010Y-88608347D01*
X157787952Y-88608347D01*
X159100000Y-89920395D01*
X160412048Y-88608347D01*
X160256038Y-88292786D01*
X159881255Y-88101980D01*
X159476449Y-87987956D01*
X159057176Y-87955098D01*
X158639549Y-88004666D01*
X158239617Y-88134757D01*
X157943962Y-88292786D01*
X157787952Y-88608347D01*
X152106010Y-88608347D01*
X152106010Y-88136358D01*
X153019922Y-87222447D01*
X153127809Y-87200987D01*
X153269942Y-87142113D01*
X153397859Y-87056642D01*
X153506642Y-86947859D01*
X153592113Y-86819942D01*
X153650987Y-86677809D01*
X153681000Y-86526922D01*
X153681000Y-86373078D01*
X153650987Y-86222191D01*
X153592113Y-86080058D01*
X153506642Y-85952141D01*
X153397859Y-85843358D01*
X153269942Y-85757887D01*
X153127809Y-85699013D01*
X152976922Y-85669000D01*
X152823078Y-85669000D01*
X152672191Y-85699013D01*
X152530058Y-85757887D01*
X152402141Y-85843358D01*
X152293358Y-85952141D01*
X152207887Y-86080058D01*
X152149013Y-86222191D01*
X152127553Y-86330078D01*
X151406000Y-87051632D01*
X151406000Y-84090000D01*
X203713044Y-84090000D01*
X203736812Y-84331318D01*
X203807202Y-84563363D01*
X203921509Y-84777216D01*
X204075340Y-84964660D01*
X204262784Y-85118491D01*
X204476637Y-85232798D01*
X204708682Y-85303188D01*
X204889528Y-85321000D01*
X205510472Y-85321000D01*
X205691318Y-85303188D01*
X205923363Y-85232798D01*
X206137216Y-85118491D01*
X206324660Y-84964660D01*
X206478491Y-84777216D01*
X206592798Y-84563363D01*
X206663188Y-84331318D01*
X206686956Y-84090000D01*
X206663188Y-83848682D01*
X206592798Y-83616637D01*
X206478491Y-83402784D01*
X206324660Y-83215340D01*
X206137216Y-83061509D01*
X205923363Y-82947202D01*
X205691318Y-82876812D01*
X205510472Y-82859000D01*
X204889528Y-82859000D01*
X204708682Y-82876812D01*
X204476637Y-82947202D01*
X204262784Y-83061509D01*
X204075340Y-83215340D01*
X203921509Y-83402784D01*
X203807202Y-83616637D01*
X203736812Y-83848682D01*
X203713044Y-84090000D01*
X151406000Y-84090000D01*
X151406000Y-82363983D01*
X192219000Y-82363983D01*
X192219000Y-82636017D01*
X192272071Y-82902823D01*
X192376174Y-83154149D01*
X192527307Y-83380336D01*
X192719664Y-83572693D01*
X192945851Y-83723826D01*
X193197177Y-83827929D01*
X193463983Y-83881000D01*
X193736017Y-83881000D01*
X194002823Y-83827929D01*
X194254149Y-83723826D01*
X194480336Y-83572693D01*
X194672693Y-83380336D01*
X194823826Y-83154149D01*
X194927929Y-82902823D01*
X194981000Y-82636017D01*
X194981000Y-82363983D01*
X197299000Y-82363983D01*
X197299000Y-82636017D01*
X197352071Y-82902823D01*
X197456174Y-83154149D01*
X197607307Y-83380336D01*
X197799664Y-83572693D01*
X198025851Y-83723826D01*
X198277177Y-83827929D01*
X198543983Y-83881000D01*
X198816017Y-83881000D01*
X199082823Y-83827929D01*
X199334149Y-83723826D01*
X199560336Y-83572693D01*
X199752693Y-83380336D01*
X199903826Y-83154149D01*
X200007929Y-82902823D01*
X200061000Y-82636017D01*
X200061000Y-82363983D01*
X200007929Y-82097177D01*
X199903826Y-81845851D01*
X199752693Y-81619664D01*
X199560336Y-81427307D01*
X199334149Y-81276174D01*
X199082823Y-81172071D01*
X198816017Y-81119000D01*
X198543983Y-81119000D01*
X198277177Y-81172071D01*
X198025851Y-81276174D01*
X197799664Y-81427307D01*
X197607307Y-81619664D01*
X197456174Y-81845851D01*
X197352071Y-82097177D01*
X197299000Y-82363983D01*
X194981000Y-82363983D01*
X194927929Y-82097177D01*
X194823826Y-81845851D01*
X194672693Y-81619664D01*
X194480336Y-81427307D01*
X194254149Y-81276174D01*
X194002823Y-81172071D01*
X193736017Y-81119000D01*
X193463983Y-81119000D01*
X193197177Y-81172071D01*
X192945851Y-81276174D01*
X192719664Y-81427307D01*
X192527307Y-81619664D01*
X192376174Y-81845851D01*
X192272071Y-82097177D01*
X192219000Y-82363983D01*
X151406000Y-82363983D01*
X151406000Y-75804889D01*
X153019000Y-75804889D01*
X153019000Y-76195111D01*
X153095129Y-76577836D01*
X153244461Y-76938355D01*
X153461257Y-77262814D01*
X153737186Y-77538743D01*
X154061645Y-77755539D01*
X154422164Y-77904871D01*
X154804889Y-77981000D01*
X155195111Y-77981000D01*
X155577836Y-77904871D01*
X155831016Y-77800000D01*
X174167157Y-77800000D01*
X174167157Y-80200000D01*
X174174513Y-80274689D01*
X174196299Y-80346508D01*
X174231678Y-80412696D01*
X174279289Y-80470711D01*
X174337304Y-80518322D01*
X174403492Y-80553701D01*
X174475311Y-80575487D01*
X174550000Y-80582843D01*
X176950000Y-80582843D01*
X177024689Y-80575487D01*
X177096508Y-80553701D01*
X177162696Y-80518322D01*
X177220711Y-80470711D01*
X177268322Y-80412696D01*
X177303701Y-80346508D01*
X177325487Y-80274689D01*
X177332843Y-80200000D01*
X177332843Y-78844285D01*
X179169000Y-78844285D01*
X179169000Y-79155715D01*
X179229757Y-79461161D01*
X179348936Y-79748884D01*
X179521957Y-80007829D01*
X179742171Y-80228043D01*
X180001116Y-80401064D01*
X180288839Y-80520243D01*
X180594285Y-80581000D01*
X180905715Y-80581000D01*
X181211161Y-80520243D01*
X181498884Y-80401064D01*
X181757829Y-80228043D01*
X181978043Y-80007829D01*
X182151064Y-79748884D01*
X182270243Y-79461161D01*
X182331000Y-79155715D01*
X182331000Y-78844285D01*
X182270243Y-78538839D01*
X182151064Y-78251116D01*
X181978043Y-77992171D01*
X181757829Y-77771957D01*
X181498884Y-77598936D01*
X181211161Y-77479757D01*
X180905715Y-77419000D01*
X180594285Y-77419000D01*
X180288839Y-77479757D01*
X180001116Y-77598936D01*
X179742171Y-77771957D01*
X179521957Y-77992171D01*
X179348936Y-78251116D01*
X179229757Y-78538839D01*
X179169000Y-78844285D01*
X177332843Y-78844285D01*
X177332843Y-77800000D01*
X177325487Y-77725311D01*
X177303701Y-77653492D01*
X177268322Y-77587304D01*
X177220711Y-77529289D01*
X177162696Y-77481678D01*
X177096508Y-77446299D01*
X177024689Y-77424513D01*
X176950000Y-77417157D01*
X174550000Y-77417157D01*
X174475311Y-77424513D01*
X174403492Y-77446299D01*
X174337304Y-77481678D01*
X174279289Y-77529289D01*
X174231678Y-77587304D01*
X174196299Y-77653492D01*
X174174513Y-77725311D01*
X174167157Y-77800000D01*
X155831016Y-77800000D01*
X155938355Y-77755539D01*
X156262814Y-77538743D01*
X156538743Y-77262814D01*
X156755539Y-76938355D01*
X156904871Y-76577836D01*
X156981000Y-76195111D01*
X156981000Y-75878757D01*
X160049000Y-75878757D01*
X160049000Y-76121243D01*
X160096307Y-76359069D01*
X160189102Y-76583097D01*
X160323820Y-76784717D01*
X160495283Y-76956180D01*
X160696903Y-77090898D01*
X160920931Y-77183693D01*
X161158757Y-77231000D01*
X161401243Y-77231000D01*
X161639069Y-77183693D01*
X161863097Y-77090898D01*
X162064717Y-76956180D01*
X162236180Y-76784717D01*
X162370898Y-76583097D01*
X162463693Y-76359069D01*
X162511000Y-76121243D01*
X162511000Y-75878757D01*
X162589000Y-75878757D01*
X162589000Y-76121243D01*
X162636307Y-76359069D01*
X162729102Y-76583097D01*
X162863820Y-76784717D01*
X163035283Y-76956180D01*
X163236903Y-77090898D01*
X163460931Y-77183693D01*
X163698757Y-77231000D01*
X163941243Y-77231000D01*
X164179069Y-77183693D01*
X164403097Y-77090898D01*
X164604717Y-76956180D01*
X164776180Y-76784717D01*
X164910898Y-76583097D01*
X165003693Y-76359069D01*
X165051000Y-76121243D01*
X165051000Y-75878757D01*
X165129000Y-75878757D01*
X165129000Y-76121243D01*
X165176307Y-76359069D01*
X165269102Y-76583097D01*
X165403820Y-76784717D01*
X165575283Y-76956180D01*
X165776903Y-77090898D01*
X166000931Y-77183693D01*
X166238757Y-77231000D01*
X166481243Y-77231000D01*
X166719069Y-77183693D01*
X166943097Y-77090898D01*
X167144717Y-76956180D01*
X167316180Y-76784717D01*
X167450898Y-76583097D01*
X167543693Y-76359069D01*
X167591000Y-76121243D01*
X167591000Y-75878757D01*
X167543693Y-75640931D01*
X167450898Y-75416903D01*
X167316180Y-75215283D01*
X167250897Y-75150000D01*
X167667157Y-75150000D01*
X167667157Y-76850000D01*
X167674513Y-76924689D01*
X167696299Y-76996508D01*
X167731678Y-77062696D01*
X167779289Y-77120711D01*
X167837304Y-77168322D01*
X167903492Y-77203701D01*
X167975311Y-77225487D01*
X168050000Y-77232843D01*
X169750000Y-77232843D01*
X169824689Y-77225487D01*
X169896508Y-77203701D01*
X169962696Y-77168322D01*
X170020711Y-77120711D01*
X170068322Y-77062696D01*
X170103701Y-76996508D01*
X170125487Y-76924689D01*
X170132843Y-76850000D01*
X170132843Y-75804889D01*
X205019000Y-75804889D01*
X205019000Y-76195111D01*
X205095129Y-76577836D01*
X205244461Y-76938355D01*
X205461257Y-77262814D01*
X205737186Y-77538743D01*
X206061645Y-77755539D01*
X206422164Y-77904871D01*
X206804889Y-77981000D01*
X207195111Y-77981000D01*
X207577836Y-77904871D01*
X207938355Y-77755539D01*
X208262814Y-77538743D01*
X208538743Y-77262814D01*
X208755539Y-76938355D01*
X208904871Y-76577836D01*
X208981000Y-76195111D01*
X208981000Y-75804889D01*
X208904871Y-75422164D01*
X208755539Y-75061645D01*
X208538743Y-74737186D01*
X208262814Y-74461257D01*
X207938355Y-74244461D01*
X207577836Y-74095129D01*
X207195111Y-74019000D01*
X206804889Y-74019000D01*
X206422164Y-74095129D01*
X206061645Y-74244461D01*
X205737186Y-74461257D01*
X205461257Y-74737186D01*
X205244461Y-75061645D01*
X205095129Y-75422164D01*
X205019000Y-75804889D01*
X170132843Y-75804889D01*
X170132843Y-75150000D01*
X170125487Y-75075311D01*
X170103701Y-75003492D01*
X170068322Y-74937304D01*
X170020711Y-74879289D01*
X169962696Y-74831678D01*
X169896508Y-74796299D01*
X169824689Y-74774513D01*
X169750000Y-74767157D01*
X168050000Y-74767157D01*
X167975311Y-74774513D01*
X167903492Y-74796299D01*
X167837304Y-74831678D01*
X167779289Y-74879289D01*
X167731678Y-74937304D01*
X167696299Y-75003492D01*
X167674513Y-75075311D01*
X167667157Y-75150000D01*
X167250897Y-75150000D01*
X167144717Y-75043820D01*
X166943097Y-74909102D01*
X166719069Y-74816307D01*
X166481243Y-74769000D01*
X166238757Y-74769000D01*
X166000931Y-74816307D01*
X165776903Y-74909102D01*
X165575283Y-75043820D01*
X165403820Y-75215283D01*
X165269102Y-75416903D01*
X165176307Y-75640931D01*
X165129000Y-75878757D01*
X165051000Y-75878757D01*
X165003693Y-75640931D01*
X164910898Y-75416903D01*
X164776180Y-75215283D01*
X164604717Y-75043820D01*
X164403097Y-74909102D01*
X164179069Y-74816307D01*
X163941243Y-74769000D01*
X163698757Y-74769000D01*
X163460931Y-74816307D01*
X163236903Y-74909102D01*
X163035283Y-75043820D01*
X162863820Y-75215283D01*
X162729102Y-75416903D01*
X162636307Y-75640931D01*
X162589000Y-75878757D01*
X162511000Y-75878757D01*
X162463693Y-75640931D01*
X162370898Y-75416903D01*
X162236180Y-75215283D01*
X162064717Y-75043820D01*
X161863097Y-74909102D01*
X161639069Y-74816307D01*
X161401243Y-74769000D01*
X161158757Y-74769000D01*
X160920931Y-74816307D01*
X160696903Y-74909102D01*
X160495283Y-75043820D01*
X160323820Y-75215283D01*
X160189102Y-75416903D01*
X160096307Y-75640931D01*
X160049000Y-75878757D01*
X156981000Y-75878757D01*
X156981000Y-75804889D01*
X156904871Y-75422164D01*
X156755539Y-75061645D01*
X156538743Y-74737186D01*
X156262814Y-74461257D01*
X155938355Y-74244461D01*
X155577836Y-74095129D01*
X155195111Y-74019000D01*
X154804889Y-74019000D01*
X154422164Y-74095129D01*
X154061645Y-74244461D01*
X153737186Y-74461257D01*
X153461257Y-74737186D01*
X153244461Y-75061645D01*
X153095129Y-75422164D01*
X153019000Y-75804889D01*
X151406000Y-75804889D01*
X151406000Y-71406000D01*
X210594000Y-71406000D01*
X210594001Y-146594000D01*
G37*
G04 #@! TD.AperFunction*
M02*
