G04 #@! TF.GenerationSoftware,KiCad,Pcbnew,(5.1.10)-1*
G04 #@! TF.CreationDate,2021-10-15T17:24:33+02:00*
G04 #@! TF.ProjectId,Transmitter,5472616e-736d-4697-9474-65722e6b6963,rev?*
G04 #@! TF.SameCoordinates,Original*
G04 #@! TF.FileFunction,Soldermask,Top*
G04 #@! TF.FilePolarity,Negative*
%FSLAX46Y46*%
G04 Gerber Fmt 4.6, Leading zero omitted, Abs format (unit mm)*
G04 Created by KiCad (PCBNEW (5.1.10)-1) date 2021-10-15 17:24:33*
%MOMM*%
%LPD*%
G01*
G04 APERTURE LIST*
%ADD10R,2.514000X3.200000*%
%ADD11C,2.340000*%
%ADD12R,4.500000X2.000000*%
%ADD13O,1.700000X1.700000*%
%ADD14R,1.700000X1.700000*%
%ADD15O,2.200000X1.700000*%
%ADD16R,2.200000X1.700000*%
%ADD17C,2.500000*%
%ADD18C,3.000000*%
%ADD19C,2.000000*%
%ADD20O,1.700000X2.200000*%
%ADD21R,1.700000X2.200000*%
%ADD22C,3.200000*%
%ADD23C,1.500000*%
%ADD24C,0.100000*%
%ADD25R,0.900000X1.300000*%
%ADD26R,1.300000X0.900000*%
%ADD27R,10.800000X9.400000*%
%ADD28R,1.100000X4.600000*%
%ADD29R,0.800000X0.900000*%
%ADD30R,1.000000X0.800000*%
%ADD31R,2.500000X2.500000*%
%ADD32C,2.400000*%
%ADD33R,2.400000X2.400000*%
G04 APERTURE END LIST*
G36*
G01*
X153800000Y-96645000D02*
X153800000Y-96345000D01*
G75*
G02*
X153950000Y-96195000I150000J0D01*
G01*
X155275000Y-96195000D01*
G75*
G02*
X155425000Y-96345000I0J-150000D01*
G01*
X155425000Y-96645000D01*
G75*
G02*
X155275000Y-96795000I-150000J0D01*
G01*
X153950000Y-96795000D01*
G75*
G02*
X153800000Y-96645000I0J150000D01*
G01*
G37*
G36*
G01*
X153800000Y-97915000D02*
X153800000Y-97615000D01*
G75*
G02*
X153950000Y-97465000I150000J0D01*
G01*
X155275000Y-97465000D01*
G75*
G02*
X155425000Y-97615000I0J-150000D01*
G01*
X155425000Y-97915000D01*
G75*
G02*
X155275000Y-98065000I-150000J0D01*
G01*
X153950000Y-98065000D01*
G75*
G02*
X153800000Y-97915000I0J150000D01*
G01*
G37*
G36*
G01*
X153800000Y-99185000D02*
X153800000Y-98885000D01*
G75*
G02*
X153950000Y-98735000I150000J0D01*
G01*
X155275000Y-98735000D01*
G75*
G02*
X155425000Y-98885000I0J-150000D01*
G01*
X155425000Y-99185000D01*
G75*
G02*
X155275000Y-99335000I-150000J0D01*
G01*
X153950000Y-99335000D01*
G75*
G02*
X153800000Y-99185000I0J150000D01*
G01*
G37*
G36*
G01*
X153800000Y-100455000D02*
X153800000Y-100155000D01*
G75*
G02*
X153950000Y-100005000I150000J0D01*
G01*
X155275000Y-100005000D01*
G75*
G02*
X155425000Y-100155000I0J-150000D01*
G01*
X155425000Y-100455000D01*
G75*
G02*
X155275000Y-100605000I-150000J0D01*
G01*
X153950000Y-100605000D01*
G75*
G02*
X153800000Y-100455000I0J150000D01*
G01*
G37*
G36*
G01*
X159075000Y-100455000D02*
X159075000Y-100155000D01*
G75*
G02*
X159225000Y-100005000I150000J0D01*
G01*
X160550000Y-100005000D01*
G75*
G02*
X160700000Y-100155000I0J-150000D01*
G01*
X160700000Y-100455000D01*
G75*
G02*
X160550000Y-100605000I-150000J0D01*
G01*
X159225000Y-100605000D01*
G75*
G02*
X159075000Y-100455000I0J150000D01*
G01*
G37*
G36*
G01*
X159075000Y-99185000D02*
X159075000Y-98885000D01*
G75*
G02*
X159225000Y-98735000I150000J0D01*
G01*
X160550000Y-98735000D01*
G75*
G02*
X160700000Y-98885000I0J-150000D01*
G01*
X160700000Y-99185000D01*
G75*
G02*
X160550000Y-99335000I-150000J0D01*
G01*
X159225000Y-99335000D01*
G75*
G02*
X159075000Y-99185000I0J150000D01*
G01*
G37*
G36*
G01*
X159075000Y-97915000D02*
X159075000Y-97615000D01*
G75*
G02*
X159225000Y-97465000I150000J0D01*
G01*
X160550000Y-97465000D01*
G75*
G02*
X160700000Y-97615000I0J-150000D01*
G01*
X160700000Y-97915000D01*
G75*
G02*
X160550000Y-98065000I-150000J0D01*
G01*
X159225000Y-98065000D01*
G75*
G02*
X159075000Y-97915000I0J150000D01*
G01*
G37*
G36*
G01*
X159075000Y-96645000D02*
X159075000Y-96345000D01*
G75*
G02*
X159225000Y-96195000I150000J0D01*
G01*
X160550000Y-96195000D01*
G75*
G02*
X160700000Y-96345000I0J-150000D01*
G01*
X160700000Y-96645000D01*
G75*
G02*
X160550000Y-96795000I-150000J0D01*
G01*
X159225000Y-96795000D01*
G75*
G02*
X159075000Y-96645000I0J150000D01*
G01*
G37*
D10*
X157250000Y-98400000D03*
D11*
X196000000Y-143000000D03*
X201000000Y-143000000D03*
X206000000Y-143000000D03*
X176000000Y-142900000D03*
X181000000Y-142900000D03*
X186000000Y-142900000D03*
D12*
X163500000Y-106400000D03*
X155000000Y-106400000D03*
D13*
X161280000Y-76000000D03*
X163820000Y-76000000D03*
X166360000Y-76000000D03*
D14*
X168900000Y-76000000D03*
D15*
X205200000Y-84090000D03*
X205200000Y-86630000D03*
X205200000Y-89170000D03*
D16*
X205200000Y-91710000D03*
D17*
X173150000Y-94700000D03*
X173150000Y-89700000D03*
G36*
G01*
X154850001Y-87300000D02*
X153949999Y-87300000D01*
G75*
G02*
X153700000Y-87050001I0J249999D01*
G01*
X153700000Y-86399999D01*
G75*
G02*
X153949999Y-86150000I249999J0D01*
G01*
X154850001Y-86150000D01*
G75*
G02*
X155100000Y-86399999I0J-249999D01*
G01*
X155100000Y-87050001D01*
G75*
G02*
X154850001Y-87300000I-249999J0D01*
G01*
G37*
G36*
G01*
X154850001Y-89350000D02*
X153949999Y-89350000D01*
G75*
G02*
X153700000Y-89100001I0J249999D01*
G01*
X153700000Y-88449999D01*
G75*
G02*
X153949999Y-88200000I249999J0D01*
G01*
X154850001Y-88200000D01*
G75*
G02*
X155100000Y-88449999I0J-249999D01*
G01*
X155100000Y-89100001D01*
G75*
G02*
X154850001Y-89350000I-249999J0D01*
G01*
G37*
G36*
G01*
X184650000Y-122787500D02*
X184650000Y-122312500D01*
G75*
G02*
X184887500Y-122075000I237500J0D01*
G01*
X185462500Y-122075000D01*
G75*
G02*
X185700000Y-122312500I0J-237500D01*
G01*
X185700000Y-122787500D01*
G75*
G02*
X185462500Y-123025000I-237500J0D01*
G01*
X184887500Y-123025000D01*
G75*
G02*
X184650000Y-122787500I0J237500D01*
G01*
G37*
G36*
G01*
X182900000Y-122787500D02*
X182900000Y-122312500D01*
G75*
G02*
X183137500Y-122075000I237500J0D01*
G01*
X183712500Y-122075000D01*
G75*
G02*
X183950000Y-122312500I0J-237500D01*
G01*
X183950000Y-122787500D01*
G75*
G02*
X183712500Y-123025000I-237500J0D01*
G01*
X183137500Y-123025000D01*
G75*
G02*
X182900000Y-122787500I0J237500D01*
G01*
G37*
G36*
G01*
X178575000Y-122837500D02*
X178575000Y-122362500D01*
G75*
G02*
X178812500Y-122125000I237500J0D01*
G01*
X179412500Y-122125000D01*
G75*
G02*
X179650000Y-122362500I0J-237500D01*
G01*
X179650000Y-122837500D01*
G75*
G02*
X179412500Y-123075000I-237500J0D01*
G01*
X178812500Y-123075000D01*
G75*
G02*
X178575000Y-122837500I0J237500D01*
G01*
G37*
G36*
G01*
X176850000Y-122837500D02*
X176850000Y-122362500D01*
G75*
G02*
X177087500Y-122125000I237500J0D01*
G01*
X177687500Y-122125000D01*
G75*
G02*
X177925000Y-122362500I0J-237500D01*
G01*
X177925000Y-122837500D01*
G75*
G02*
X177687500Y-123075000I-237500J0D01*
G01*
X177087500Y-123075000D01*
G75*
G02*
X176850000Y-122837500I0J237500D01*
G01*
G37*
D13*
X200100000Y-132440000D03*
D14*
X200100000Y-129900000D03*
D18*
X159100000Y-90100000D03*
X163950000Y-90100000D03*
D19*
X165540000Y-142910000D03*
X168080000Y-137830000D03*
X168080000Y-135290000D03*
X163000000Y-137830000D03*
X163000000Y-135290000D03*
X168080000Y-132750000D03*
X163000000Y-132750000D03*
G36*
G01*
X163237500Y-127850000D02*
X162762500Y-127850000D01*
G75*
G02*
X162525000Y-127612500I0J237500D01*
G01*
X162525000Y-127037500D01*
G75*
G02*
X162762500Y-126800000I237500J0D01*
G01*
X163237500Y-126800000D01*
G75*
G02*
X163475000Y-127037500I0J-237500D01*
G01*
X163475000Y-127612500D01*
G75*
G02*
X163237500Y-127850000I-237500J0D01*
G01*
G37*
G36*
G01*
X163237500Y-129600000D02*
X162762500Y-129600000D01*
G75*
G02*
X162525000Y-129362500I0J237500D01*
G01*
X162525000Y-128787500D01*
G75*
G02*
X162762500Y-128550000I237500J0D01*
G01*
X163237500Y-128550000D01*
G75*
G02*
X163475000Y-128787500I0J-237500D01*
G01*
X163475000Y-129362500D01*
G75*
G02*
X163237500Y-129600000I-237500J0D01*
G01*
G37*
G36*
G01*
X165262500Y-128550000D02*
X165737500Y-128550000D01*
G75*
G02*
X165975000Y-128787500I0J-237500D01*
G01*
X165975000Y-129362500D01*
G75*
G02*
X165737500Y-129600000I-237500J0D01*
G01*
X165262500Y-129600000D01*
G75*
G02*
X165025000Y-129362500I0J237500D01*
G01*
X165025000Y-128787500D01*
G75*
G02*
X165262500Y-128550000I237500J0D01*
G01*
G37*
G36*
G01*
X165262500Y-126800000D02*
X165737500Y-126800000D01*
G75*
G02*
X165975000Y-127037500I0J-237500D01*
G01*
X165975000Y-127612500D01*
G75*
G02*
X165737500Y-127850000I-237500J0D01*
G01*
X165262500Y-127850000D01*
G75*
G02*
X165025000Y-127612500I0J237500D01*
G01*
X165025000Y-127037500D01*
G75*
G02*
X165262500Y-126800000I237500J0D01*
G01*
G37*
D20*
X156000000Y-140250000D03*
D21*
X153460000Y-140250000D03*
D20*
X158540000Y-140250000D03*
G36*
G01*
X168337500Y-127875000D02*
X167862500Y-127875000D01*
G75*
G02*
X167625000Y-127637500I0J237500D01*
G01*
X167625000Y-127037500D01*
G75*
G02*
X167862500Y-126800000I237500J0D01*
G01*
X168337500Y-126800000D01*
G75*
G02*
X168575000Y-127037500I0J-237500D01*
G01*
X168575000Y-127637500D01*
G75*
G02*
X168337500Y-127875000I-237500J0D01*
G01*
G37*
G36*
G01*
X168337500Y-129600000D02*
X167862500Y-129600000D01*
G75*
G02*
X167625000Y-129362500I0J237500D01*
G01*
X167625000Y-128762500D01*
G75*
G02*
X167862500Y-128525000I237500J0D01*
G01*
X168337500Y-128525000D01*
G75*
G02*
X168575000Y-128762500I0J-237500D01*
G01*
X168575000Y-129362500D01*
G75*
G02*
X168337500Y-129600000I-237500J0D01*
G01*
G37*
D22*
X207000000Y-76000000D03*
X155000000Y-76000000D03*
X207100000Y-132450000D03*
X155100000Y-132450000D03*
D23*
X161680000Y-106400000D03*
X156800000Y-106400000D03*
D24*
G36*
X192166500Y-114900000D02*
G01*
X192166500Y-118025000D01*
X191750000Y-118025000D01*
X191750000Y-119500000D01*
X190850000Y-119500000D01*
X190850000Y-118025000D01*
X190433500Y-118025000D01*
X190433500Y-114900000D01*
X192166500Y-114900000D01*
G37*
D25*
X192800000Y-118850000D03*
X189800000Y-118850000D03*
D24*
G36*
X185675000Y-73483500D02*
G01*
X188800000Y-73483500D01*
X188800000Y-73900000D01*
X190275000Y-73900000D01*
X190275000Y-74800000D01*
X188800000Y-74800000D01*
X188800000Y-75216500D01*
X185675000Y-75216500D01*
X185675000Y-73483500D01*
G37*
D26*
X189625000Y-72850000D03*
X189625000Y-75850000D03*
G36*
G01*
X171400000Y-113090000D02*
X171400000Y-112790000D01*
G75*
G02*
X171550000Y-112640000I150000J0D01*
G01*
X173200000Y-112640000D01*
G75*
G02*
X173350000Y-112790000I0J-150000D01*
G01*
X173350000Y-113090000D01*
G75*
G02*
X173200000Y-113240000I-150000J0D01*
G01*
X171550000Y-113240000D01*
G75*
G02*
X171400000Y-113090000I0J150000D01*
G01*
G37*
G36*
G01*
X171400000Y-114360000D02*
X171400000Y-114060000D01*
G75*
G02*
X171550000Y-113910000I150000J0D01*
G01*
X173200000Y-113910000D01*
G75*
G02*
X173350000Y-114060000I0J-150000D01*
G01*
X173350000Y-114360000D01*
G75*
G02*
X173200000Y-114510000I-150000J0D01*
G01*
X171550000Y-114510000D01*
G75*
G02*
X171400000Y-114360000I0J150000D01*
G01*
G37*
G36*
G01*
X171400000Y-115630000D02*
X171400000Y-115330000D01*
G75*
G02*
X171550000Y-115180000I150000J0D01*
G01*
X173200000Y-115180000D01*
G75*
G02*
X173350000Y-115330000I0J-150000D01*
G01*
X173350000Y-115630000D01*
G75*
G02*
X173200000Y-115780000I-150000J0D01*
G01*
X171550000Y-115780000D01*
G75*
G02*
X171400000Y-115630000I0J150000D01*
G01*
G37*
G36*
G01*
X171400000Y-116900000D02*
X171400000Y-116600000D01*
G75*
G02*
X171550000Y-116450000I150000J0D01*
G01*
X173200000Y-116450000D01*
G75*
G02*
X173350000Y-116600000I0J-150000D01*
G01*
X173350000Y-116900000D01*
G75*
G02*
X173200000Y-117050000I-150000J0D01*
G01*
X171550000Y-117050000D01*
G75*
G02*
X171400000Y-116900000I0J150000D01*
G01*
G37*
G36*
G01*
X171400000Y-118170000D02*
X171400000Y-117870000D01*
G75*
G02*
X171550000Y-117720000I150000J0D01*
G01*
X173200000Y-117720000D01*
G75*
G02*
X173350000Y-117870000I0J-150000D01*
G01*
X173350000Y-118170000D01*
G75*
G02*
X173200000Y-118320000I-150000J0D01*
G01*
X171550000Y-118320000D01*
G75*
G02*
X171400000Y-118170000I0J150000D01*
G01*
G37*
G36*
G01*
X171400000Y-119440000D02*
X171400000Y-119140000D01*
G75*
G02*
X171550000Y-118990000I150000J0D01*
G01*
X173200000Y-118990000D01*
G75*
G02*
X173350000Y-119140000I0J-150000D01*
G01*
X173350000Y-119440000D01*
G75*
G02*
X173200000Y-119590000I-150000J0D01*
G01*
X171550000Y-119590000D01*
G75*
G02*
X171400000Y-119440000I0J150000D01*
G01*
G37*
G36*
G01*
X171400000Y-120710000D02*
X171400000Y-120410000D01*
G75*
G02*
X171550000Y-120260000I150000J0D01*
G01*
X173200000Y-120260000D01*
G75*
G02*
X173350000Y-120410000I0J-150000D01*
G01*
X173350000Y-120710000D01*
G75*
G02*
X173200000Y-120860000I-150000J0D01*
G01*
X171550000Y-120860000D01*
G75*
G02*
X171400000Y-120710000I0J150000D01*
G01*
G37*
G36*
G01*
X166450000Y-120710000D02*
X166450000Y-120410000D01*
G75*
G02*
X166600000Y-120260000I150000J0D01*
G01*
X168250000Y-120260000D01*
G75*
G02*
X168400000Y-120410000I0J-150000D01*
G01*
X168400000Y-120710000D01*
G75*
G02*
X168250000Y-120860000I-150000J0D01*
G01*
X166600000Y-120860000D01*
G75*
G02*
X166450000Y-120710000I0J150000D01*
G01*
G37*
G36*
G01*
X166450000Y-119440000D02*
X166450000Y-119140000D01*
G75*
G02*
X166600000Y-118990000I150000J0D01*
G01*
X168250000Y-118990000D01*
G75*
G02*
X168400000Y-119140000I0J-150000D01*
G01*
X168400000Y-119440000D01*
G75*
G02*
X168250000Y-119590000I-150000J0D01*
G01*
X166600000Y-119590000D01*
G75*
G02*
X166450000Y-119440000I0J150000D01*
G01*
G37*
G36*
G01*
X166450000Y-118170000D02*
X166450000Y-117870000D01*
G75*
G02*
X166600000Y-117720000I150000J0D01*
G01*
X168250000Y-117720000D01*
G75*
G02*
X168400000Y-117870000I0J-150000D01*
G01*
X168400000Y-118170000D01*
G75*
G02*
X168250000Y-118320000I-150000J0D01*
G01*
X166600000Y-118320000D01*
G75*
G02*
X166450000Y-118170000I0J150000D01*
G01*
G37*
G36*
G01*
X166450000Y-116900000D02*
X166450000Y-116600000D01*
G75*
G02*
X166600000Y-116450000I150000J0D01*
G01*
X168250000Y-116450000D01*
G75*
G02*
X168400000Y-116600000I0J-150000D01*
G01*
X168400000Y-116900000D01*
G75*
G02*
X168250000Y-117050000I-150000J0D01*
G01*
X166600000Y-117050000D01*
G75*
G02*
X166450000Y-116900000I0J150000D01*
G01*
G37*
G36*
G01*
X166450000Y-115630000D02*
X166450000Y-115330000D01*
G75*
G02*
X166600000Y-115180000I150000J0D01*
G01*
X168250000Y-115180000D01*
G75*
G02*
X168400000Y-115330000I0J-150000D01*
G01*
X168400000Y-115630000D01*
G75*
G02*
X168250000Y-115780000I-150000J0D01*
G01*
X166600000Y-115780000D01*
G75*
G02*
X166450000Y-115630000I0J150000D01*
G01*
G37*
G36*
G01*
X166450000Y-114360000D02*
X166450000Y-114060000D01*
G75*
G02*
X166600000Y-113910000I150000J0D01*
G01*
X168250000Y-113910000D01*
G75*
G02*
X168400000Y-114060000I0J-150000D01*
G01*
X168400000Y-114360000D01*
G75*
G02*
X168250000Y-114510000I-150000J0D01*
G01*
X166600000Y-114510000D01*
G75*
G02*
X166450000Y-114360000I0J150000D01*
G01*
G37*
G36*
G01*
X166450000Y-113090000D02*
X166450000Y-112790000D01*
G75*
G02*
X166600000Y-112640000I150000J0D01*
G01*
X168250000Y-112640000D01*
G75*
G02*
X168400000Y-112790000I0J-150000D01*
G01*
X168400000Y-113090000D01*
G75*
G02*
X168250000Y-113240000I-150000J0D01*
G01*
X166600000Y-113240000D01*
G75*
G02*
X166450000Y-113090000I0J150000D01*
G01*
G37*
G36*
G01*
X178750000Y-119735000D02*
X178750000Y-120035000D01*
G75*
G02*
X178600000Y-120185000I-150000J0D01*
G01*
X177000000Y-120185000D01*
G75*
G02*
X176850000Y-120035000I0J150000D01*
G01*
X176850000Y-119735000D01*
G75*
G02*
X177000000Y-119585000I150000J0D01*
G01*
X178600000Y-119585000D01*
G75*
G02*
X178750000Y-119735000I0J-150000D01*
G01*
G37*
G36*
G01*
X178750000Y-118465000D02*
X178750000Y-118765000D01*
G75*
G02*
X178600000Y-118915000I-150000J0D01*
G01*
X177000000Y-118915000D01*
G75*
G02*
X176850000Y-118765000I0J150000D01*
G01*
X176850000Y-118465000D01*
G75*
G02*
X177000000Y-118315000I150000J0D01*
G01*
X178600000Y-118315000D01*
G75*
G02*
X178750000Y-118465000I0J-150000D01*
G01*
G37*
G36*
G01*
X178750000Y-117195000D02*
X178750000Y-117495000D01*
G75*
G02*
X178600000Y-117645000I-150000J0D01*
G01*
X177000000Y-117645000D01*
G75*
G02*
X176850000Y-117495000I0J150000D01*
G01*
X176850000Y-117195000D01*
G75*
G02*
X177000000Y-117045000I150000J0D01*
G01*
X178600000Y-117045000D01*
G75*
G02*
X178750000Y-117195000I0J-150000D01*
G01*
G37*
G36*
G01*
X178750000Y-115925000D02*
X178750000Y-116225000D01*
G75*
G02*
X178600000Y-116375000I-150000J0D01*
G01*
X177000000Y-116375000D01*
G75*
G02*
X176850000Y-116225000I0J150000D01*
G01*
X176850000Y-115925000D01*
G75*
G02*
X177000000Y-115775000I150000J0D01*
G01*
X178600000Y-115775000D01*
G75*
G02*
X178750000Y-115925000I0J-150000D01*
G01*
G37*
G36*
G01*
X185750000Y-115925000D02*
X185750000Y-116225000D01*
G75*
G02*
X185600000Y-116375000I-150000J0D01*
G01*
X184000000Y-116375000D01*
G75*
G02*
X183850000Y-116225000I0J150000D01*
G01*
X183850000Y-115925000D01*
G75*
G02*
X184000000Y-115775000I150000J0D01*
G01*
X185600000Y-115775000D01*
G75*
G02*
X185750000Y-115925000I0J-150000D01*
G01*
G37*
G36*
G01*
X185750000Y-117195000D02*
X185750000Y-117495000D01*
G75*
G02*
X185600000Y-117645000I-150000J0D01*
G01*
X184000000Y-117645000D01*
G75*
G02*
X183850000Y-117495000I0J150000D01*
G01*
X183850000Y-117195000D01*
G75*
G02*
X184000000Y-117045000I150000J0D01*
G01*
X185600000Y-117045000D01*
G75*
G02*
X185750000Y-117195000I0J-150000D01*
G01*
G37*
G36*
G01*
X185750000Y-118465000D02*
X185750000Y-118765000D01*
G75*
G02*
X185600000Y-118915000I-150000J0D01*
G01*
X184000000Y-118915000D01*
G75*
G02*
X183850000Y-118765000I0J150000D01*
G01*
X183850000Y-118465000D01*
G75*
G02*
X184000000Y-118315000I150000J0D01*
G01*
X185600000Y-118315000D01*
G75*
G02*
X185750000Y-118465000I0J-150000D01*
G01*
G37*
G36*
G01*
X185750000Y-119735000D02*
X185750000Y-120035000D01*
G75*
G02*
X185600000Y-120185000I-150000J0D01*
G01*
X184000000Y-120185000D01*
G75*
G02*
X183850000Y-120035000I0J150000D01*
G01*
X183850000Y-119735000D01*
G75*
G02*
X184000000Y-119585000I150000J0D01*
G01*
X185600000Y-119585000D01*
G75*
G02*
X185750000Y-119735000I0J-150000D01*
G01*
G37*
D27*
X201600000Y-121075000D03*
D28*
X199060000Y-111925000D03*
X204140000Y-111925000D03*
G36*
G01*
X161425000Y-116730000D02*
X161425000Y-116530000D01*
G75*
G02*
X161525000Y-116430000I100000J0D01*
G01*
X162800000Y-116430000D01*
G75*
G02*
X162900000Y-116530000I0J-100000D01*
G01*
X162900000Y-116730000D01*
G75*
G02*
X162800000Y-116830000I-100000J0D01*
G01*
X161525000Y-116830000D01*
G75*
G02*
X161425000Y-116730000I0J100000D01*
G01*
G37*
G36*
G01*
X161425000Y-117380000D02*
X161425000Y-117180000D01*
G75*
G02*
X161525000Y-117080000I100000J0D01*
G01*
X162800000Y-117080000D01*
G75*
G02*
X162900000Y-117180000I0J-100000D01*
G01*
X162900000Y-117380000D01*
G75*
G02*
X162800000Y-117480000I-100000J0D01*
G01*
X161525000Y-117480000D01*
G75*
G02*
X161425000Y-117380000I0J100000D01*
G01*
G37*
G36*
G01*
X161425000Y-118030000D02*
X161425000Y-117830000D01*
G75*
G02*
X161525000Y-117730000I100000J0D01*
G01*
X162800000Y-117730000D01*
G75*
G02*
X162900000Y-117830000I0J-100000D01*
G01*
X162900000Y-118030000D01*
G75*
G02*
X162800000Y-118130000I-100000J0D01*
G01*
X161525000Y-118130000D01*
G75*
G02*
X161425000Y-118030000I0J100000D01*
G01*
G37*
G36*
G01*
X161425000Y-118680000D02*
X161425000Y-118480000D01*
G75*
G02*
X161525000Y-118380000I100000J0D01*
G01*
X162800000Y-118380000D01*
G75*
G02*
X162900000Y-118480000I0J-100000D01*
G01*
X162900000Y-118680000D01*
G75*
G02*
X162800000Y-118780000I-100000J0D01*
G01*
X161525000Y-118780000D01*
G75*
G02*
X161425000Y-118680000I0J100000D01*
G01*
G37*
G36*
G01*
X161425000Y-119330000D02*
X161425000Y-119130000D01*
G75*
G02*
X161525000Y-119030000I100000J0D01*
G01*
X162800000Y-119030000D01*
G75*
G02*
X162900000Y-119130000I0J-100000D01*
G01*
X162900000Y-119330000D01*
G75*
G02*
X162800000Y-119430000I-100000J0D01*
G01*
X161525000Y-119430000D01*
G75*
G02*
X161425000Y-119330000I0J100000D01*
G01*
G37*
G36*
G01*
X161425000Y-119980000D02*
X161425000Y-119780000D01*
G75*
G02*
X161525000Y-119680000I100000J0D01*
G01*
X162800000Y-119680000D01*
G75*
G02*
X162900000Y-119780000I0J-100000D01*
G01*
X162900000Y-119980000D01*
G75*
G02*
X162800000Y-120080000I-100000J0D01*
G01*
X161525000Y-120080000D01*
G75*
G02*
X161425000Y-119980000I0J100000D01*
G01*
G37*
G36*
G01*
X161425000Y-120630000D02*
X161425000Y-120430000D01*
G75*
G02*
X161525000Y-120330000I100000J0D01*
G01*
X162800000Y-120330000D01*
G75*
G02*
X162900000Y-120430000I0J-100000D01*
G01*
X162900000Y-120630000D01*
G75*
G02*
X162800000Y-120730000I-100000J0D01*
G01*
X161525000Y-120730000D01*
G75*
G02*
X161425000Y-120630000I0J100000D01*
G01*
G37*
G36*
G01*
X155700000Y-120630000D02*
X155700000Y-120430000D01*
G75*
G02*
X155800000Y-120330000I100000J0D01*
G01*
X157075000Y-120330000D01*
G75*
G02*
X157175000Y-120430000I0J-100000D01*
G01*
X157175000Y-120630000D01*
G75*
G02*
X157075000Y-120730000I-100000J0D01*
G01*
X155800000Y-120730000D01*
G75*
G02*
X155700000Y-120630000I0J100000D01*
G01*
G37*
G36*
G01*
X155700000Y-119980000D02*
X155700000Y-119780000D01*
G75*
G02*
X155800000Y-119680000I100000J0D01*
G01*
X157075000Y-119680000D01*
G75*
G02*
X157175000Y-119780000I0J-100000D01*
G01*
X157175000Y-119980000D01*
G75*
G02*
X157075000Y-120080000I-100000J0D01*
G01*
X155800000Y-120080000D01*
G75*
G02*
X155700000Y-119980000I0J100000D01*
G01*
G37*
G36*
G01*
X155700000Y-119330000D02*
X155700000Y-119130000D01*
G75*
G02*
X155800000Y-119030000I100000J0D01*
G01*
X157075000Y-119030000D01*
G75*
G02*
X157175000Y-119130000I0J-100000D01*
G01*
X157175000Y-119330000D01*
G75*
G02*
X157075000Y-119430000I-100000J0D01*
G01*
X155800000Y-119430000D01*
G75*
G02*
X155700000Y-119330000I0J100000D01*
G01*
G37*
G36*
G01*
X155700000Y-118680000D02*
X155700000Y-118480000D01*
G75*
G02*
X155800000Y-118380000I100000J0D01*
G01*
X157075000Y-118380000D01*
G75*
G02*
X157175000Y-118480000I0J-100000D01*
G01*
X157175000Y-118680000D01*
G75*
G02*
X157075000Y-118780000I-100000J0D01*
G01*
X155800000Y-118780000D01*
G75*
G02*
X155700000Y-118680000I0J100000D01*
G01*
G37*
G36*
G01*
X155700000Y-118030000D02*
X155700000Y-117830000D01*
G75*
G02*
X155800000Y-117730000I100000J0D01*
G01*
X157075000Y-117730000D01*
G75*
G02*
X157175000Y-117830000I0J-100000D01*
G01*
X157175000Y-118030000D01*
G75*
G02*
X157075000Y-118130000I-100000J0D01*
G01*
X155800000Y-118130000D01*
G75*
G02*
X155700000Y-118030000I0J100000D01*
G01*
G37*
G36*
G01*
X155700000Y-117380000D02*
X155700000Y-117180000D01*
G75*
G02*
X155800000Y-117080000I100000J0D01*
G01*
X157075000Y-117080000D01*
G75*
G02*
X157175000Y-117180000I0J-100000D01*
G01*
X157175000Y-117380000D01*
G75*
G02*
X157075000Y-117480000I-100000J0D01*
G01*
X155800000Y-117480000D01*
G75*
G02*
X155700000Y-117380000I0J100000D01*
G01*
G37*
G36*
G01*
X155700000Y-116730000D02*
X155700000Y-116530000D01*
G75*
G02*
X155800000Y-116430000I100000J0D01*
G01*
X157075000Y-116430000D01*
G75*
G02*
X157175000Y-116530000I0J-100000D01*
G01*
X157175000Y-116730000D01*
G75*
G02*
X157075000Y-116830000I-100000J0D01*
G01*
X155800000Y-116830000D01*
G75*
G02*
X155700000Y-116730000I0J100000D01*
G01*
G37*
D24*
G36*
X190433500Y-129900000D02*
G01*
X190433500Y-126775000D01*
X190850000Y-126775000D01*
X190850000Y-125300000D01*
X191750000Y-125300000D01*
X191750000Y-126775000D01*
X192166500Y-126775000D01*
X192166500Y-129900000D01*
X190433500Y-129900000D01*
G37*
D25*
X189800000Y-125950000D03*
X192800000Y-125950000D03*
G36*
G01*
X166837500Y-94250000D02*
X166362500Y-94250000D01*
G75*
G02*
X166125000Y-94012500I0J237500D01*
G01*
X166125000Y-93437500D01*
G75*
G02*
X166362500Y-93200000I237500J0D01*
G01*
X166837500Y-93200000D01*
G75*
G02*
X167075000Y-93437500I0J-237500D01*
G01*
X167075000Y-94012500D01*
G75*
G02*
X166837500Y-94250000I-237500J0D01*
G01*
G37*
G36*
G01*
X166837500Y-96000000D02*
X166362500Y-96000000D01*
G75*
G02*
X166125000Y-95762500I0J237500D01*
G01*
X166125000Y-95187500D01*
G75*
G02*
X166362500Y-94950000I237500J0D01*
G01*
X166837500Y-94950000D01*
G75*
G02*
X167075000Y-95187500I0J-237500D01*
G01*
X167075000Y-95762500D01*
G75*
G02*
X166837500Y-96000000I-237500J0D01*
G01*
G37*
G36*
G01*
X163762500Y-99800000D02*
X164237500Y-99800000D01*
G75*
G02*
X164475000Y-100037500I0J-237500D01*
G01*
X164475000Y-100612500D01*
G75*
G02*
X164237500Y-100850000I-237500J0D01*
G01*
X163762500Y-100850000D01*
G75*
G02*
X163525000Y-100612500I0J237500D01*
G01*
X163525000Y-100037500D01*
G75*
G02*
X163762500Y-99800000I237500J0D01*
G01*
G37*
G36*
G01*
X163762500Y-98050000D02*
X164237500Y-98050000D01*
G75*
G02*
X164475000Y-98287500I0J-237500D01*
G01*
X164475000Y-98862500D01*
G75*
G02*
X164237500Y-99100000I-237500J0D01*
G01*
X163762500Y-99100000D01*
G75*
G02*
X163525000Y-98862500I0J237500D01*
G01*
X163525000Y-98287500D01*
G75*
G02*
X163762500Y-98050000I237500J0D01*
G01*
G37*
G36*
G01*
X170187500Y-104250000D02*
X170662500Y-104250000D01*
G75*
G02*
X170900000Y-104487500I0J-237500D01*
G01*
X170900000Y-105062500D01*
G75*
G02*
X170662500Y-105300000I-237500J0D01*
G01*
X170187500Y-105300000D01*
G75*
G02*
X169950000Y-105062500I0J237500D01*
G01*
X169950000Y-104487500D01*
G75*
G02*
X170187500Y-104250000I237500J0D01*
G01*
G37*
G36*
G01*
X170187500Y-102500000D02*
X170662500Y-102500000D01*
G75*
G02*
X170900000Y-102737500I0J-237500D01*
G01*
X170900000Y-103312500D01*
G75*
G02*
X170662500Y-103550000I-237500J0D01*
G01*
X170187500Y-103550000D01*
G75*
G02*
X169950000Y-103312500I0J237500D01*
G01*
X169950000Y-102737500D01*
G75*
G02*
X170187500Y-102500000I237500J0D01*
G01*
G37*
G36*
G01*
X179450000Y-92562500D02*
X179450000Y-93037500D01*
G75*
G02*
X179212500Y-93275000I-237500J0D01*
G01*
X178637500Y-93275000D01*
G75*
G02*
X178400000Y-93037500I0J237500D01*
G01*
X178400000Y-92562500D01*
G75*
G02*
X178637500Y-92325000I237500J0D01*
G01*
X179212500Y-92325000D01*
G75*
G02*
X179450000Y-92562500I0J-237500D01*
G01*
G37*
G36*
G01*
X181200000Y-92562500D02*
X181200000Y-93037500D01*
G75*
G02*
X180962500Y-93275000I-237500J0D01*
G01*
X180387500Y-93275000D01*
G75*
G02*
X180150000Y-93037500I0J237500D01*
G01*
X180150000Y-92562500D01*
G75*
G02*
X180387500Y-92325000I237500J0D01*
G01*
X180962500Y-92325000D01*
G75*
G02*
X181200000Y-92562500I0J-237500D01*
G01*
G37*
G36*
G01*
X172737500Y-104250000D02*
X173212500Y-104250000D01*
G75*
G02*
X173450000Y-104487500I0J-237500D01*
G01*
X173450000Y-105062500D01*
G75*
G02*
X173212500Y-105300000I-237500J0D01*
G01*
X172737500Y-105300000D01*
G75*
G02*
X172500000Y-105062500I0J237500D01*
G01*
X172500000Y-104487500D01*
G75*
G02*
X172737500Y-104250000I237500J0D01*
G01*
G37*
G36*
G01*
X172737500Y-102500000D02*
X173212500Y-102500000D01*
G75*
G02*
X173450000Y-102737500I0J-237500D01*
G01*
X173450000Y-103312500D01*
G75*
G02*
X173212500Y-103550000I-237500J0D01*
G01*
X172737500Y-103550000D01*
G75*
G02*
X172500000Y-103312500I0J237500D01*
G01*
X172500000Y-102737500D01*
G75*
G02*
X172737500Y-102500000I237500J0D01*
G01*
G37*
G36*
G01*
X182937500Y-104250000D02*
X183412500Y-104250000D01*
G75*
G02*
X183650000Y-104487500I0J-237500D01*
G01*
X183650000Y-105062500D01*
G75*
G02*
X183412500Y-105300000I-237500J0D01*
G01*
X182937500Y-105300000D01*
G75*
G02*
X182700000Y-105062500I0J237500D01*
G01*
X182700000Y-104487500D01*
G75*
G02*
X182937500Y-104250000I237500J0D01*
G01*
G37*
G36*
G01*
X182937500Y-102500000D02*
X183412500Y-102500000D01*
G75*
G02*
X183650000Y-102737500I0J-237500D01*
G01*
X183650000Y-103312500D01*
G75*
G02*
X183412500Y-103550000I-237500J0D01*
G01*
X182937500Y-103550000D01*
G75*
G02*
X182700000Y-103312500I0J237500D01*
G01*
X182700000Y-102737500D01*
G75*
G02*
X182937500Y-102500000I237500J0D01*
G01*
G37*
G36*
G01*
X195162500Y-133350000D02*
X195637500Y-133350000D01*
G75*
G02*
X195875000Y-133587500I0J-237500D01*
G01*
X195875000Y-134162500D01*
G75*
G02*
X195637500Y-134400000I-237500J0D01*
G01*
X195162500Y-134400000D01*
G75*
G02*
X194925000Y-134162500I0J237500D01*
G01*
X194925000Y-133587500D01*
G75*
G02*
X195162500Y-133350000I237500J0D01*
G01*
G37*
G36*
G01*
X195162500Y-131600000D02*
X195637500Y-131600000D01*
G75*
G02*
X195875000Y-131837500I0J-237500D01*
G01*
X195875000Y-132412500D01*
G75*
G02*
X195637500Y-132650000I-237500J0D01*
G01*
X195162500Y-132650000D01*
G75*
G02*
X194925000Y-132412500I0J237500D01*
G01*
X194925000Y-131837500D01*
G75*
G02*
X195162500Y-131600000I237500J0D01*
G01*
G37*
G36*
G01*
X175287500Y-104250000D02*
X175762500Y-104250000D01*
G75*
G02*
X176000000Y-104487500I0J-237500D01*
G01*
X176000000Y-105062500D01*
G75*
G02*
X175762500Y-105300000I-237500J0D01*
G01*
X175287500Y-105300000D01*
G75*
G02*
X175050000Y-105062500I0J237500D01*
G01*
X175050000Y-104487500D01*
G75*
G02*
X175287500Y-104250000I237500J0D01*
G01*
G37*
G36*
G01*
X175287500Y-102500000D02*
X175762500Y-102500000D01*
G75*
G02*
X176000000Y-102737500I0J-237500D01*
G01*
X176000000Y-103312500D01*
G75*
G02*
X175762500Y-103550000I-237500J0D01*
G01*
X175287500Y-103550000D01*
G75*
G02*
X175050000Y-103312500I0J237500D01*
G01*
X175050000Y-102737500D01*
G75*
G02*
X175287500Y-102500000I237500J0D01*
G01*
G37*
G36*
G01*
X180387500Y-104250000D02*
X180862500Y-104250000D01*
G75*
G02*
X181100000Y-104487500I0J-237500D01*
G01*
X181100000Y-105062500D01*
G75*
G02*
X180862500Y-105300000I-237500J0D01*
G01*
X180387500Y-105300000D01*
G75*
G02*
X180150000Y-105062500I0J237500D01*
G01*
X180150000Y-104487500D01*
G75*
G02*
X180387500Y-104250000I237500J0D01*
G01*
G37*
G36*
G01*
X180387500Y-102500000D02*
X180862500Y-102500000D01*
G75*
G02*
X181100000Y-102737500I0J-237500D01*
G01*
X181100000Y-103312500D01*
G75*
G02*
X180862500Y-103550000I-237500J0D01*
G01*
X180387500Y-103550000D01*
G75*
G02*
X180150000Y-103312500I0J237500D01*
G01*
X180150000Y-102737500D01*
G75*
G02*
X180387500Y-102500000I237500J0D01*
G01*
G37*
G36*
G01*
X184650000Y-113337500D02*
X184650000Y-112862500D01*
G75*
G02*
X184887500Y-112625000I237500J0D01*
G01*
X185462500Y-112625000D01*
G75*
G02*
X185700000Y-112862500I0J-237500D01*
G01*
X185700000Y-113337500D01*
G75*
G02*
X185462500Y-113575000I-237500J0D01*
G01*
X184887500Y-113575000D01*
G75*
G02*
X184650000Y-113337500I0J237500D01*
G01*
G37*
G36*
G01*
X182900000Y-113337500D02*
X182900000Y-112862500D01*
G75*
G02*
X183137500Y-112625000I237500J0D01*
G01*
X183712500Y-112625000D01*
G75*
G02*
X183950000Y-112862500I0J-237500D01*
G01*
X183950000Y-113337500D01*
G75*
G02*
X183712500Y-113575000I-237500J0D01*
G01*
X183137500Y-113575000D01*
G75*
G02*
X182900000Y-113337500I0J237500D01*
G01*
G37*
G36*
G01*
X161750000Y-113637500D02*
X161750000Y-113162500D01*
G75*
G02*
X161987500Y-112925000I237500J0D01*
G01*
X162562500Y-112925000D01*
G75*
G02*
X162800000Y-113162500I0J-237500D01*
G01*
X162800000Y-113637500D01*
G75*
G02*
X162562500Y-113875000I-237500J0D01*
G01*
X161987500Y-113875000D01*
G75*
G02*
X161750000Y-113637500I0J237500D01*
G01*
G37*
G36*
G01*
X160000000Y-113637500D02*
X160000000Y-113162500D01*
G75*
G02*
X160237500Y-112925000I237500J0D01*
G01*
X160812500Y-112925000D01*
G75*
G02*
X161050000Y-113162500I0J-237500D01*
G01*
X161050000Y-113637500D01*
G75*
G02*
X160812500Y-113875000I-237500J0D01*
G01*
X160237500Y-113875000D01*
G75*
G02*
X160000000Y-113637500I0J237500D01*
G01*
G37*
G36*
G01*
X157600000Y-113637500D02*
X157600000Y-113162500D01*
G75*
G02*
X157837500Y-112925000I237500J0D01*
G01*
X158412500Y-112925000D01*
G75*
G02*
X158650000Y-113162500I0J-237500D01*
G01*
X158650000Y-113637500D01*
G75*
G02*
X158412500Y-113875000I-237500J0D01*
G01*
X157837500Y-113875000D01*
G75*
G02*
X157600000Y-113637500I0J237500D01*
G01*
G37*
G36*
G01*
X155850000Y-113637500D02*
X155850000Y-113162500D01*
G75*
G02*
X156087500Y-112925000I237500J0D01*
G01*
X156662500Y-112925000D01*
G75*
G02*
X156900000Y-113162500I0J-237500D01*
G01*
X156900000Y-113637500D01*
G75*
G02*
X156662500Y-113875000I-237500J0D01*
G01*
X156087500Y-113875000D01*
G75*
G02*
X155850000Y-113637500I0J237500D01*
G01*
G37*
G36*
G01*
X166262500Y-81350000D02*
X166737500Y-81350000D01*
G75*
G02*
X166975000Y-81587500I0J-237500D01*
G01*
X166975000Y-82162500D01*
G75*
G02*
X166737500Y-82400000I-237500J0D01*
G01*
X166262500Y-82400000D01*
G75*
G02*
X166025000Y-82162500I0J237500D01*
G01*
X166025000Y-81587500D01*
G75*
G02*
X166262500Y-81350000I237500J0D01*
G01*
G37*
G36*
G01*
X166262500Y-79600000D02*
X166737500Y-79600000D01*
G75*
G02*
X166975000Y-79837500I0J-237500D01*
G01*
X166975000Y-80412500D01*
G75*
G02*
X166737500Y-80650000I-237500J0D01*
G01*
X166262500Y-80650000D01*
G75*
G02*
X166025000Y-80412500I0J237500D01*
G01*
X166025000Y-79837500D01*
G75*
G02*
X166262500Y-79600000I237500J0D01*
G01*
G37*
G36*
G01*
X163737500Y-80650000D02*
X163262500Y-80650000D01*
G75*
G02*
X163025000Y-80412500I0J237500D01*
G01*
X163025000Y-79837500D01*
G75*
G02*
X163262500Y-79600000I237500J0D01*
G01*
X163737500Y-79600000D01*
G75*
G02*
X163975000Y-79837500I0J-237500D01*
G01*
X163975000Y-80412500D01*
G75*
G02*
X163737500Y-80650000I-237500J0D01*
G01*
G37*
G36*
G01*
X163737500Y-82400000D02*
X163262500Y-82400000D01*
G75*
G02*
X163025000Y-82162500I0J237500D01*
G01*
X163025000Y-81587500D01*
G75*
G02*
X163262500Y-81350000I237500J0D01*
G01*
X163737500Y-81350000D01*
G75*
G02*
X163975000Y-81587500I0J-237500D01*
G01*
X163975000Y-82162500D01*
G75*
G02*
X163737500Y-82400000I-237500J0D01*
G01*
G37*
D29*
X171100000Y-98350000D03*
X172050000Y-100350000D03*
X170150000Y-100350000D03*
X175450000Y-98350000D03*
X176400000Y-100350000D03*
X174500000Y-100350000D03*
X179800000Y-98350000D03*
X180750000Y-100350000D03*
X178850000Y-100350000D03*
G36*
G01*
X179350000Y-95149999D02*
X179350000Y-96050001D01*
G75*
G02*
X179100001Y-96300000I-249999J0D01*
G01*
X178449999Y-96300000D01*
G75*
G02*
X178200000Y-96050001I0J249999D01*
G01*
X178200000Y-95149999D01*
G75*
G02*
X178449999Y-94900000I249999J0D01*
G01*
X179100001Y-94900000D01*
G75*
G02*
X179350000Y-95149999I0J-249999D01*
G01*
G37*
G36*
G01*
X181400000Y-95149999D02*
X181400000Y-96050001D01*
G75*
G02*
X181150001Y-96300000I-249999J0D01*
G01*
X180499999Y-96300000D01*
G75*
G02*
X180250000Y-96050001I0J249999D01*
G01*
X180250000Y-95149999D01*
G75*
G02*
X180499999Y-94900000I249999J0D01*
G01*
X181150001Y-94900000D01*
G75*
G02*
X181400000Y-95149999I0J-249999D01*
G01*
G37*
D19*
X198680000Y-82500000D03*
X193600000Y-82500000D03*
X198680000Y-92500000D03*
X193600000Y-92500000D03*
D30*
X195925000Y-75670000D03*
X195925000Y-73130000D03*
X202075000Y-73130000D03*
X202075000Y-75670000D03*
D17*
X187475000Y-89595000D03*
X187475000Y-93555000D03*
X187475000Y-97515000D03*
D31*
X187475000Y-101475000D03*
G36*
G01*
X189762500Y-133325000D02*
X190237500Y-133325000D01*
G75*
G02*
X190475000Y-133562500I0J-237500D01*
G01*
X190475000Y-134162500D01*
G75*
G02*
X190237500Y-134400000I-237500J0D01*
G01*
X189762500Y-134400000D01*
G75*
G02*
X189525000Y-134162500I0J237500D01*
G01*
X189525000Y-133562500D01*
G75*
G02*
X189762500Y-133325000I237500J0D01*
G01*
G37*
G36*
G01*
X189762500Y-131600000D02*
X190237500Y-131600000D01*
G75*
G02*
X190475000Y-131837500I0J-237500D01*
G01*
X190475000Y-132437500D01*
G75*
G02*
X190237500Y-132675000I-237500J0D01*
G01*
X189762500Y-132675000D01*
G75*
G02*
X189525000Y-132437500I0J237500D01*
G01*
X189525000Y-131837500D01*
G75*
G02*
X189762500Y-131600000I237500J0D01*
G01*
G37*
G36*
G01*
X154925000Y-94262500D02*
X154925000Y-94737500D01*
G75*
G02*
X154687500Y-94975000I-237500J0D01*
G01*
X154087500Y-94975000D01*
G75*
G02*
X153850000Y-94737500I0J237500D01*
G01*
X153850000Y-94262500D01*
G75*
G02*
X154087500Y-94025000I237500J0D01*
G01*
X154687500Y-94025000D01*
G75*
G02*
X154925000Y-94262500I0J-237500D01*
G01*
G37*
G36*
G01*
X156650000Y-94262500D02*
X156650000Y-94737500D01*
G75*
G02*
X156412500Y-94975000I-237500J0D01*
G01*
X155812500Y-94975000D01*
G75*
G02*
X155575000Y-94737500I0J237500D01*
G01*
X155575000Y-94262500D01*
G75*
G02*
X155812500Y-94025000I237500J0D01*
G01*
X156412500Y-94025000D01*
G75*
G02*
X156650000Y-94262500I0J-237500D01*
G01*
G37*
G36*
G01*
X163762500Y-94925000D02*
X164237500Y-94925000D01*
G75*
G02*
X164475000Y-95162500I0J-237500D01*
G01*
X164475000Y-95762500D01*
G75*
G02*
X164237500Y-96000000I-237500J0D01*
G01*
X163762500Y-96000000D01*
G75*
G02*
X163525000Y-95762500I0J237500D01*
G01*
X163525000Y-95162500D01*
G75*
G02*
X163762500Y-94925000I237500J0D01*
G01*
G37*
G36*
G01*
X163762500Y-93200000D02*
X164237500Y-93200000D01*
G75*
G02*
X164475000Y-93437500I0J-237500D01*
G01*
X164475000Y-94037500D01*
G75*
G02*
X164237500Y-94275000I-237500J0D01*
G01*
X163762500Y-94275000D01*
G75*
G02*
X163525000Y-94037500I0J237500D01*
G01*
X163525000Y-93437500D01*
G75*
G02*
X163762500Y-93200000I237500J0D01*
G01*
G37*
G36*
G01*
X159525000Y-94737500D02*
X159525000Y-94262500D01*
G75*
G02*
X159762500Y-94025000I237500J0D01*
G01*
X160362500Y-94025000D01*
G75*
G02*
X160600000Y-94262500I0J-237500D01*
G01*
X160600000Y-94737500D01*
G75*
G02*
X160362500Y-94975000I-237500J0D01*
G01*
X159762500Y-94975000D01*
G75*
G02*
X159525000Y-94737500I0J237500D01*
G01*
G37*
G36*
G01*
X157800000Y-94737500D02*
X157800000Y-94262500D01*
G75*
G02*
X158037500Y-94025000I237500J0D01*
G01*
X158637500Y-94025000D01*
G75*
G02*
X158875000Y-94262500I0J-237500D01*
G01*
X158875000Y-94737500D01*
G75*
G02*
X158637500Y-94975000I-237500J0D01*
G01*
X158037500Y-94975000D01*
G75*
G02*
X157800000Y-94737500I0J237500D01*
G01*
G37*
G36*
G01*
X192462500Y-133325000D02*
X192937500Y-133325000D01*
G75*
G02*
X193175000Y-133562500I0J-237500D01*
G01*
X193175000Y-134162500D01*
G75*
G02*
X192937500Y-134400000I-237500J0D01*
G01*
X192462500Y-134400000D01*
G75*
G02*
X192225000Y-134162500I0J237500D01*
G01*
X192225000Y-133562500D01*
G75*
G02*
X192462500Y-133325000I237500J0D01*
G01*
G37*
G36*
G01*
X192462500Y-131600000D02*
X192937500Y-131600000D01*
G75*
G02*
X193175000Y-131837500I0J-237500D01*
G01*
X193175000Y-132437500D01*
G75*
G02*
X192937500Y-132675000I-237500J0D01*
G01*
X192462500Y-132675000D01*
G75*
G02*
X192225000Y-132437500I0J237500D01*
G01*
X192225000Y-131837500D01*
G75*
G02*
X192462500Y-131600000I237500J0D01*
G01*
G37*
G36*
G01*
X168112500Y-103575000D02*
X167637500Y-103575000D01*
G75*
G02*
X167400000Y-103337500I0J237500D01*
G01*
X167400000Y-102737500D01*
G75*
G02*
X167637500Y-102500000I237500J0D01*
G01*
X168112500Y-102500000D01*
G75*
G02*
X168350000Y-102737500I0J-237500D01*
G01*
X168350000Y-103337500D01*
G75*
G02*
X168112500Y-103575000I-237500J0D01*
G01*
G37*
G36*
G01*
X168112500Y-105300000D02*
X167637500Y-105300000D01*
G75*
G02*
X167400000Y-105062500I0J237500D01*
G01*
X167400000Y-104462500D01*
G75*
G02*
X167637500Y-104225000I237500J0D01*
G01*
X168112500Y-104225000D01*
G75*
G02*
X168350000Y-104462500I0J-237500D01*
G01*
X168350000Y-105062500D01*
G75*
G02*
X168112500Y-105300000I-237500J0D01*
G01*
G37*
G36*
G01*
X166862500Y-99125000D02*
X166387500Y-99125000D01*
G75*
G02*
X166150000Y-98887500I0J237500D01*
G01*
X166150000Y-98287500D01*
G75*
G02*
X166387500Y-98050000I237500J0D01*
G01*
X166862500Y-98050000D01*
G75*
G02*
X167100000Y-98287500I0J-237500D01*
G01*
X167100000Y-98887500D01*
G75*
G02*
X166862500Y-99125000I-237500J0D01*
G01*
G37*
G36*
G01*
X166862500Y-100850000D02*
X166387500Y-100850000D01*
G75*
G02*
X166150000Y-100612500I0J237500D01*
G01*
X166150000Y-100012500D01*
G75*
G02*
X166387500Y-99775000I237500J0D01*
G01*
X166862500Y-99775000D01*
G75*
G02*
X167100000Y-100012500I0J-237500D01*
G01*
X167100000Y-100612500D01*
G75*
G02*
X166862500Y-100850000I-237500J0D01*
G01*
G37*
G36*
G01*
X179475000Y-89962500D02*
X179475000Y-90437500D01*
G75*
G02*
X179237500Y-90675000I-237500J0D01*
G01*
X178637500Y-90675000D01*
G75*
G02*
X178400000Y-90437500I0J237500D01*
G01*
X178400000Y-89962500D01*
G75*
G02*
X178637500Y-89725000I237500J0D01*
G01*
X179237500Y-89725000D01*
G75*
G02*
X179475000Y-89962500I0J-237500D01*
G01*
G37*
G36*
G01*
X181200000Y-89962500D02*
X181200000Y-90437500D01*
G75*
G02*
X180962500Y-90675000I-237500J0D01*
G01*
X180362500Y-90675000D01*
G75*
G02*
X180125000Y-90437500I0J237500D01*
G01*
X180125000Y-89962500D01*
G75*
G02*
X180362500Y-89725000I237500J0D01*
G01*
X180962500Y-89725000D01*
G75*
G02*
X181200000Y-89962500I0J-237500D01*
G01*
G37*
G36*
G01*
X192462500Y-122725000D02*
X192937500Y-122725000D01*
G75*
G02*
X193175000Y-122962500I0J-237500D01*
G01*
X193175000Y-123562500D01*
G75*
G02*
X192937500Y-123800000I-237500J0D01*
G01*
X192462500Y-123800000D01*
G75*
G02*
X192225000Y-123562500I0J237500D01*
G01*
X192225000Y-122962500D01*
G75*
G02*
X192462500Y-122725000I237500J0D01*
G01*
G37*
G36*
G01*
X192462500Y-121000000D02*
X192937500Y-121000000D01*
G75*
G02*
X193175000Y-121237500I0J-237500D01*
G01*
X193175000Y-121837500D01*
G75*
G02*
X192937500Y-122075000I-237500J0D01*
G01*
X192462500Y-122075000D01*
G75*
G02*
X192225000Y-121837500I0J237500D01*
G01*
X192225000Y-121237500D01*
G75*
G02*
X192462500Y-121000000I237500J0D01*
G01*
G37*
G36*
G01*
X189762500Y-122725000D02*
X190237500Y-122725000D01*
G75*
G02*
X190475000Y-122962500I0J-237500D01*
G01*
X190475000Y-123562500D01*
G75*
G02*
X190237500Y-123800000I-237500J0D01*
G01*
X189762500Y-123800000D01*
G75*
G02*
X189525000Y-123562500I0J237500D01*
G01*
X189525000Y-122962500D01*
G75*
G02*
X189762500Y-122725000I237500J0D01*
G01*
G37*
G36*
G01*
X189762500Y-121000000D02*
X190237500Y-121000000D01*
G75*
G02*
X190475000Y-121237500I0J-237500D01*
G01*
X190475000Y-121837500D01*
G75*
G02*
X190237500Y-122075000I-237500J0D01*
G01*
X189762500Y-122075000D01*
G75*
G02*
X189525000Y-121837500I0J237500D01*
G01*
X189525000Y-121237500D01*
G75*
G02*
X189762500Y-121000000I237500J0D01*
G01*
G37*
G36*
G01*
X178575000Y-113337500D02*
X178575000Y-112862500D01*
G75*
G02*
X178812500Y-112625000I237500J0D01*
G01*
X179412500Y-112625000D01*
G75*
G02*
X179650000Y-112862500I0J-237500D01*
G01*
X179650000Y-113337500D01*
G75*
G02*
X179412500Y-113575000I-237500J0D01*
G01*
X178812500Y-113575000D01*
G75*
G02*
X178575000Y-113337500I0J237500D01*
G01*
G37*
G36*
G01*
X176850000Y-113337500D02*
X176850000Y-112862500D01*
G75*
G02*
X177087500Y-112625000I237500J0D01*
G01*
X177687500Y-112625000D01*
G75*
G02*
X177925000Y-112862500I0J-237500D01*
G01*
X177925000Y-113337500D01*
G75*
G02*
X177687500Y-113575000I-237500J0D01*
G01*
X177087500Y-113575000D01*
G75*
G02*
X176850000Y-113337500I0J237500D01*
G01*
G37*
G36*
G01*
X177837500Y-104225000D02*
X178312500Y-104225000D01*
G75*
G02*
X178550000Y-104462500I0J-237500D01*
G01*
X178550000Y-105062500D01*
G75*
G02*
X178312500Y-105300000I-237500J0D01*
G01*
X177837500Y-105300000D01*
G75*
G02*
X177600000Y-105062500I0J237500D01*
G01*
X177600000Y-104462500D01*
G75*
G02*
X177837500Y-104225000I237500J0D01*
G01*
G37*
G36*
G01*
X177837500Y-102500000D02*
X178312500Y-102500000D01*
G75*
G02*
X178550000Y-102737500I0J-237500D01*
G01*
X178550000Y-103337500D01*
G75*
G02*
X178312500Y-103575000I-237500J0D01*
G01*
X177837500Y-103575000D01*
G75*
G02*
X177600000Y-103337500I0J237500D01*
G01*
X177600000Y-102737500D01*
G75*
G02*
X177837500Y-102500000I237500J0D01*
G01*
G37*
G36*
G01*
X187262500Y-85075000D02*
X187737500Y-85075000D01*
G75*
G02*
X187975000Y-85312500I0J-237500D01*
G01*
X187975000Y-85912500D01*
G75*
G02*
X187737500Y-86150000I-237500J0D01*
G01*
X187262500Y-86150000D01*
G75*
G02*
X187025000Y-85912500I0J237500D01*
G01*
X187025000Y-85312500D01*
G75*
G02*
X187262500Y-85075000I237500J0D01*
G01*
G37*
G36*
G01*
X187262500Y-83350000D02*
X187737500Y-83350000D01*
G75*
G02*
X187975000Y-83587500I0J-237500D01*
G01*
X187975000Y-84187500D01*
G75*
G02*
X187737500Y-84425000I-237500J0D01*
G01*
X187262500Y-84425000D01*
G75*
G02*
X187025000Y-84187500I0J237500D01*
G01*
X187025000Y-83587500D01*
G75*
G02*
X187262500Y-83350000I237500J0D01*
G01*
G37*
G36*
G01*
X193900000Y-106050000D02*
X193900000Y-104950000D01*
G75*
G02*
X194150000Y-104700000I250000J0D01*
G01*
X196250000Y-104700000D01*
G75*
G02*
X196500000Y-104950000I0J-250000D01*
G01*
X196500000Y-106050000D01*
G75*
G02*
X196250000Y-106300000I-250000J0D01*
G01*
X194150000Y-106300000D01*
G75*
G02*
X193900000Y-106050000I0J250000D01*
G01*
G37*
G36*
G01*
X190300000Y-106050000D02*
X190300000Y-104950000D01*
G75*
G02*
X190550000Y-104700000I250000J0D01*
G01*
X192650000Y-104700000D01*
G75*
G02*
X192900000Y-104950000I0J-250000D01*
G01*
X192900000Y-106050000D01*
G75*
G02*
X192650000Y-106300000I-250000J0D01*
G01*
X190550000Y-106300000D01*
G75*
G02*
X190300000Y-106050000I0J250000D01*
G01*
G37*
G36*
G01*
X187737500Y-79925000D02*
X187262500Y-79925000D01*
G75*
G02*
X187025000Y-79687500I0J237500D01*
G01*
X187025000Y-79087500D01*
G75*
G02*
X187262500Y-78850000I237500J0D01*
G01*
X187737500Y-78850000D01*
G75*
G02*
X187975000Y-79087500I0J-237500D01*
G01*
X187975000Y-79687500D01*
G75*
G02*
X187737500Y-79925000I-237500J0D01*
G01*
G37*
G36*
G01*
X187737500Y-81650000D02*
X187262500Y-81650000D01*
G75*
G02*
X187025000Y-81412500I0J237500D01*
G01*
X187025000Y-80812500D01*
G75*
G02*
X187262500Y-80575000I237500J0D01*
G01*
X187737500Y-80575000D01*
G75*
G02*
X187975000Y-80812500I0J-237500D01*
G01*
X187975000Y-81412500D01*
G75*
G02*
X187737500Y-81650000I-237500J0D01*
G01*
G37*
G36*
G01*
X170325000Y-122837500D02*
X170325000Y-122362500D01*
G75*
G02*
X170562500Y-122125000I237500J0D01*
G01*
X171162500Y-122125000D01*
G75*
G02*
X171400000Y-122362500I0J-237500D01*
G01*
X171400000Y-122837500D01*
G75*
G02*
X171162500Y-123075000I-237500J0D01*
G01*
X170562500Y-123075000D01*
G75*
G02*
X170325000Y-122837500I0J237500D01*
G01*
G37*
G36*
G01*
X168600000Y-122837500D02*
X168600000Y-122362500D01*
G75*
G02*
X168837500Y-122125000I237500J0D01*
G01*
X169437500Y-122125000D01*
G75*
G02*
X169675000Y-122362500I0J-237500D01*
G01*
X169675000Y-122837500D01*
G75*
G02*
X169437500Y-123075000I-237500J0D01*
G01*
X168837500Y-123075000D01*
G75*
G02*
X168600000Y-122837500I0J237500D01*
G01*
G37*
G36*
G01*
X194437500Y-110775000D02*
X193962500Y-110775000D01*
G75*
G02*
X193725000Y-110537500I0J237500D01*
G01*
X193725000Y-109937500D01*
G75*
G02*
X193962500Y-109700000I237500J0D01*
G01*
X194437500Y-109700000D01*
G75*
G02*
X194675000Y-109937500I0J-237500D01*
G01*
X194675000Y-110537500D01*
G75*
G02*
X194437500Y-110775000I-237500J0D01*
G01*
G37*
G36*
G01*
X194437500Y-112500000D02*
X193962500Y-112500000D01*
G75*
G02*
X193725000Y-112262500I0J237500D01*
G01*
X193725000Y-111662500D01*
G75*
G02*
X193962500Y-111425000I237500J0D01*
G01*
X194437500Y-111425000D01*
G75*
G02*
X194675000Y-111662500I0J-237500D01*
G01*
X194675000Y-112262500D01*
G75*
G02*
X194437500Y-112500000I-237500J0D01*
G01*
G37*
G36*
G01*
X192737500Y-74675000D02*
X193212500Y-74675000D01*
G75*
G02*
X193450000Y-74912500I0J-237500D01*
G01*
X193450000Y-75512500D01*
G75*
G02*
X193212500Y-75750000I-237500J0D01*
G01*
X192737500Y-75750000D01*
G75*
G02*
X192500000Y-75512500I0J237500D01*
G01*
X192500000Y-74912500D01*
G75*
G02*
X192737500Y-74675000I237500J0D01*
G01*
G37*
G36*
G01*
X192737500Y-72950000D02*
X193212500Y-72950000D01*
G75*
G02*
X193450000Y-73187500I0J-237500D01*
G01*
X193450000Y-73787500D01*
G75*
G02*
X193212500Y-74025000I-237500J0D01*
G01*
X192737500Y-74025000D01*
G75*
G02*
X192500000Y-73787500I0J237500D01*
G01*
X192500000Y-73187500D01*
G75*
G02*
X192737500Y-72950000I237500J0D01*
G01*
G37*
G36*
G01*
X209137500Y-110675000D02*
X208662500Y-110675000D01*
G75*
G02*
X208425000Y-110437500I0J237500D01*
G01*
X208425000Y-109837500D01*
G75*
G02*
X208662500Y-109600000I237500J0D01*
G01*
X209137500Y-109600000D01*
G75*
G02*
X209375000Y-109837500I0J-237500D01*
G01*
X209375000Y-110437500D01*
G75*
G02*
X209137500Y-110675000I-237500J0D01*
G01*
G37*
G36*
G01*
X209137500Y-112400000D02*
X208662500Y-112400000D01*
G75*
G02*
X208425000Y-112162500I0J237500D01*
G01*
X208425000Y-111562500D01*
G75*
G02*
X208662500Y-111325000I237500J0D01*
G01*
X209137500Y-111325000D01*
G75*
G02*
X209375000Y-111562500I0J-237500D01*
G01*
X209375000Y-112162500D01*
G75*
G02*
X209137500Y-112400000I-237500J0D01*
G01*
G37*
G36*
G01*
X161062500Y-110562500D02*
X161062500Y-111037500D01*
G75*
G02*
X160825000Y-111275000I-237500J0D01*
G01*
X160225000Y-111275000D01*
G75*
G02*
X159987500Y-111037500I0J237500D01*
G01*
X159987500Y-110562500D01*
G75*
G02*
X160225000Y-110325000I237500J0D01*
G01*
X160825000Y-110325000D01*
G75*
G02*
X161062500Y-110562500I0J-237500D01*
G01*
G37*
G36*
G01*
X162787500Y-110562500D02*
X162787500Y-111037500D01*
G75*
G02*
X162550000Y-111275000I-237500J0D01*
G01*
X161950000Y-111275000D01*
G75*
G02*
X161712500Y-111037500I0J237500D01*
G01*
X161712500Y-110562500D01*
G75*
G02*
X161950000Y-110325000I237500J0D01*
G01*
X162550000Y-110325000D01*
G75*
G02*
X162787500Y-110562500I0J-237500D01*
G01*
G37*
D32*
X180750000Y-79000000D03*
D33*
X175750000Y-79000000D03*
D32*
X205800000Y-101800000D03*
D33*
X200800000Y-101800000D03*
G36*
G01*
X160512500Y-81325000D02*
X160987500Y-81325000D01*
G75*
G02*
X161225000Y-81562500I0J-237500D01*
G01*
X161225000Y-82162500D01*
G75*
G02*
X160987500Y-82400000I-237500J0D01*
G01*
X160512500Y-82400000D01*
G75*
G02*
X160275000Y-82162500I0J237500D01*
G01*
X160275000Y-81562500D01*
G75*
G02*
X160512500Y-81325000I237500J0D01*
G01*
G37*
G36*
G01*
X160512500Y-79600000D02*
X160987500Y-79600000D01*
G75*
G02*
X161225000Y-79837500I0J-237500D01*
G01*
X161225000Y-80437500D01*
G75*
G02*
X160987500Y-80675000I-237500J0D01*
G01*
X160512500Y-80675000D01*
G75*
G02*
X160275000Y-80437500I0J237500D01*
G01*
X160275000Y-79837500D01*
G75*
G02*
X160512500Y-79600000I237500J0D01*
G01*
G37*
G36*
G01*
X159725000Y-122837500D02*
X159725000Y-122362500D01*
G75*
G02*
X159962500Y-122125000I237500J0D01*
G01*
X160562500Y-122125000D01*
G75*
G02*
X160800000Y-122362500I0J-237500D01*
G01*
X160800000Y-122837500D01*
G75*
G02*
X160562500Y-123075000I-237500J0D01*
G01*
X159962500Y-123075000D01*
G75*
G02*
X159725000Y-122837500I0J237500D01*
G01*
G37*
G36*
G01*
X158000000Y-122837500D02*
X158000000Y-122362500D01*
G75*
G02*
X158237500Y-122125000I237500J0D01*
G01*
X158837500Y-122125000D01*
G75*
G02*
X159075000Y-122362500I0J-237500D01*
G01*
X159075000Y-122837500D01*
G75*
G02*
X158837500Y-123075000I-237500J0D01*
G01*
X158237500Y-123075000D01*
G75*
G02*
X158000000Y-122837500I0J237500D01*
G01*
G37*
G36*
G01*
X156925000Y-110562500D02*
X156925000Y-111037500D01*
G75*
G02*
X156687500Y-111275000I-237500J0D01*
G01*
X156087500Y-111275000D01*
G75*
G02*
X155850000Y-111037500I0J237500D01*
G01*
X155850000Y-110562500D01*
G75*
G02*
X156087500Y-110325000I237500J0D01*
G01*
X156687500Y-110325000D01*
G75*
G02*
X156925000Y-110562500I0J-237500D01*
G01*
G37*
G36*
G01*
X158650000Y-110562500D02*
X158650000Y-111037500D01*
G75*
G02*
X158412500Y-111275000I-237500J0D01*
G01*
X157812500Y-111275000D01*
G75*
G02*
X157575000Y-111037500I0J237500D01*
G01*
X157575000Y-110562500D01*
G75*
G02*
X157812500Y-110325000I237500J0D01*
G01*
X158412500Y-110325000D01*
G75*
G02*
X158650000Y-110562500I0J-237500D01*
G01*
G37*
M02*
