G04 #@! TF.GenerationSoftware,KiCad,Pcbnew,(5.1.10)-1*
G04 #@! TF.CreationDate,2021-10-15T17:24:33+02:00*
G04 #@! TF.ProjectId,Transmitter,5472616e-736d-4697-9474-65722e6b6963,rev?*
G04 #@! TF.SameCoordinates,Original*
G04 #@! TF.FileFunction,Legend,Bot*
G04 #@! TF.FilePolarity,Positive*
%FSLAX46Y46*%
G04 Gerber Fmt 4.6, Leading zero omitted, Abs format (unit mm)*
G04 Created by KiCad (PCBNEW (5.1.10)-1) date 2021-10-15 17:24:33*
%MOMM*%
%LPD*%
G01*
G04 APERTURE LIST*
%ADD10C,0.150000*%
%ADD11R,2.514000X3.200000*%
%ADD12C,2.340000*%
%ADD13O,1.700000X1.700000*%
%ADD14R,1.700000X1.700000*%
%ADD15O,2.200000X1.700000*%
%ADD16R,2.200000X1.700000*%
%ADD17C,2.500000*%
%ADD18C,3.000000*%
%ADD19C,2.000000*%
%ADD20O,1.700000X2.200000*%
%ADD21R,1.700000X2.200000*%
%ADD22C,3.200000*%
%ADD23C,1.500000*%
%ADD24R,2.500000X2.500000*%
%ADD25C,2.400000*%
%ADD26R,2.400000X2.400000*%
G04 APERTURE END LIST*
D10*
X189814285Y-131578571D02*
X189671428Y-131626190D01*
X189623809Y-131673809D01*
X189576190Y-131769047D01*
X189576190Y-131911904D01*
X189623809Y-132007142D01*
X189671428Y-132054761D01*
X189766666Y-132102380D01*
X190147619Y-132102380D01*
X190147619Y-131102380D01*
X189814285Y-131102380D01*
X189719047Y-131150000D01*
X189671428Y-131197619D01*
X189623809Y-131292857D01*
X189623809Y-131388095D01*
X189671428Y-131483333D01*
X189719047Y-131530952D01*
X189814285Y-131578571D01*
X190147619Y-131578571D01*
X189004761Y-132102380D02*
X189100000Y-132054761D01*
X189147619Y-131959523D01*
X189147619Y-131102380D01*
X188195238Y-131435714D02*
X188195238Y-132102380D01*
X188623809Y-131435714D02*
X188623809Y-131959523D01*
X188576190Y-132054761D01*
X188480952Y-132102380D01*
X188338095Y-132102380D01*
X188242857Y-132054761D01*
X188195238Y-132007142D01*
X187338095Y-132054761D02*
X187433333Y-132102380D01*
X187623809Y-132102380D01*
X187719047Y-132054761D01*
X187766666Y-131959523D01*
X187766666Y-131578571D01*
X187719047Y-131483333D01*
X187623809Y-131435714D01*
X187433333Y-131435714D01*
X187338095Y-131483333D01*
X187290476Y-131578571D01*
X187290476Y-131673809D01*
X187766666Y-131769047D01*
X187004761Y-131435714D02*
X186623809Y-131435714D01*
X186861904Y-131102380D02*
X186861904Y-131959523D01*
X186814285Y-132054761D01*
X186719047Y-132102380D01*
X186623809Y-132102380D01*
X186147619Y-132102380D02*
X186242857Y-132054761D01*
X186290476Y-132007142D01*
X186338095Y-131911904D01*
X186338095Y-131626190D01*
X186290476Y-131530952D01*
X186242857Y-131483333D01*
X186147619Y-131435714D01*
X186004761Y-131435714D01*
X185909523Y-131483333D01*
X185861904Y-131530952D01*
X185814285Y-131626190D01*
X185814285Y-131911904D01*
X185861904Y-132007142D01*
X185909523Y-132054761D01*
X186004761Y-132102380D01*
X186147619Y-132102380D01*
X185242857Y-132102380D02*
X185338095Y-132054761D01*
X185385714Y-132007142D01*
X185433333Y-131911904D01*
X185433333Y-131626190D01*
X185385714Y-131530952D01*
X185338095Y-131483333D01*
X185242857Y-131435714D01*
X185100000Y-131435714D01*
X185004761Y-131483333D01*
X184957142Y-131530952D01*
X184909523Y-131626190D01*
X184909523Y-131911904D01*
X184957142Y-132007142D01*
X185004761Y-132054761D01*
X185100000Y-132102380D01*
X185242857Y-132102380D01*
X184623809Y-131435714D02*
X184242857Y-131435714D01*
X184480952Y-131102380D02*
X184480952Y-131959523D01*
X184433333Y-132054761D01*
X184338095Y-132102380D01*
X184242857Y-132102380D01*
X183909523Y-132102380D02*
X183909523Y-131102380D01*
X183480952Y-132102380D02*
X183480952Y-131578571D01*
X183528571Y-131483333D01*
X183623809Y-131435714D01*
X183766666Y-131435714D01*
X183861904Y-131483333D01*
X183909523Y-131530952D01*
X182385714Y-131435714D02*
X182004761Y-131435714D01*
X182242857Y-131102380D02*
X182242857Y-131959523D01*
X182195238Y-132054761D01*
X182100000Y-132102380D01*
X182004761Y-132102380D01*
X181528571Y-132102380D02*
X181623809Y-132054761D01*
X181671428Y-132007142D01*
X181719047Y-131911904D01*
X181719047Y-131626190D01*
X181671428Y-131530952D01*
X181623809Y-131483333D01*
X181528571Y-131435714D01*
X181385714Y-131435714D01*
X181290476Y-131483333D01*
X181242857Y-131530952D01*
X181195238Y-131626190D01*
X181195238Y-131911904D01*
X181242857Y-132007142D01*
X181290476Y-132054761D01*
X181385714Y-132102380D01*
X181528571Y-132102380D01*
X180052380Y-131816666D02*
X179576190Y-131816666D01*
X180147619Y-132102380D02*
X179814285Y-131102380D01*
X179480952Y-132102380D01*
X179147619Y-132102380D02*
X179147619Y-131102380D01*
X178814285Y-131816666D01*
X178480952Y-131102380D01*
X178480952Y-132102380D01*
X176814285Y-132102380D02*
X176814285Y-131578571D01*
X176861904Y-131483333D01*
X176957142Y-131435714D01*
X177147619Y-131435714D01*
X177242857Y-131483333D01*
X176814285Y-132054761D02*
X176909523Y-132102380D01*
X177147619Y-132102380D01*
X177242857Y-132054761D01*
X177290476Y-131959523D01*
X177290476Y-131864285D01*
X177242857Y-131769047D01*
X177147619Y-131721428D01*
X176909523Y-131721428D01*
X176814285Y-131673809D01*
X175909523Y-132102380D02*
X175909523Y-131102380D01*
X175909523Y-132054761D02*
X176004761Y-132102380D01*
X176195238Y-132102380D01*
X176290476Y-132054761D01*
X176338095Y-132007142D01*
X176385714Y-131911904D01*
X176385714Y-131626190D01*
X176338095Y-131530952D01*
X176290476Y-131483333D01*
X176195238Y-131435714D01*
X176004761Y-131435714D01*
X175909523Y-131483333D01*
X175004761Y-132102380D02*
X175004761Y-131578571D01*
X175052380Y-131483333D01*
X175147619Y-131435714D01*
X175338095Y-131435714D01*
X175433333Y-131483333D01*
X175004761Y-132054761D02*
X175100000Y-132102380D01*
X175338095Y-132102380D01*
X175433333Y-132054761D01*
X175480952Y-131959523D01*
X175480952Y-131864285D01*
X175433333Y-131769047D01*
X175338095Y-131721428D01*
X175100000Y-131721428D01*
X175004761Y-131673809D01*
X174528571Y-131435714D02*
X174528571Y-132435714D01*
X174528571Y-131483333D02*
X174433333Y-131435714D01*
X174242857Y-131435714D01*
X174147619Y-131483333D01*
X174100000Y-131530952D01*
X174052380Y-131626190D01*
X174052380Y-131911904D01*
X174100000Y-132007142D01*
X174147619Y-132054761D01*
X174242857Y-132102380D01*
X174433333Y-132102380D01*
X174528571Y-132054761D01*
X173766666Y-131435714D02*
X173385714Y-131435714D01*
X173623809Y-131102380D02*
X173623809Y-131959523D01*
X173576190Y-132054761D01*
X173480952Y-132102380D01*
X173385714Y-132102380D01*
X172671428Y-132054761D02*
X172766666Y-132102380D01*
X172957142Y-132102380D01*
X173052380Y-132054761D01*
X173100000Y-131959523D01*
X173100000Y-131578571D01*
X173052380Y-131483333D01*
X172957142Y-131435714D01*
X172766666Y-131435714D01*
X172671428Y-131483333D01*
X172623809Y-131578571D01*
X172623809Y-131673809D01*
X173100000Y-131769047D01*
X172195238Y-132102380D02*
X172195238Y-131435714D01*
X172195238Y-131626190D02*
X172147619Y-131530952D01*
X172100000Y-131483333D01*
X172004761Y-131435714D01*
X171909523Y-131435714D01*
X185980952Y-132847619D02*
X185933333Y-132800000D01*
X185838095Y-132752380D01*
X185600000Y-132752380D01*
X185504761Y-132800000D01*
X185457142Y-132847619D01*
X185409523Y-132942857D01*
X185409523Y-133038095D01*
X185457142Y-133180952D01*
X186028571Y-133752380D01*
X185409523Y-133752380D01*
X184457142Y-133752380D02*
X185028571Y-133752380D01*
X184742857Y-133752380D02*
X184742857Y-132752380D01*
X184838095Y-132895238D01*
X184933333Y-132990476D01*
X185028571Y-133038095D01*
X184266666Y-133847619D02*
X183504761Y-133847619D01*
X183361904Y-132752380D02*
X182742857Y-132752380D01*
X183076190Y-133133333D01*
X182933333Y-133133333D01*
X182838095Y-133180952D01*
X182790476Y-133228571D01*
X182742857Y-133323809D01*
X182742857Y-133561904D01*
X182790476Y-133657142D01*
X182838095Y-133704761D01*
X182933333Y-133752380D01*
X183219047Y-133752380D01*
X183314285Y-133704761D01*
X183361904Y-133657142D01*
X182409523Y-132752380D02*
X181742857Y-132752380D01*
X182171428Y-133752380D01*
X181600000Y-133847619D02*
X180838095Y-133847619D01*
X180409523Y-132752380D02*
X180314285Y-132752380D01*
X180219047Y-132800000D01*
X180171428Y-132847619D01*
X180123809Y-132942857D01*
X180076190Y-133133333D01*
X180076190Y-133371428D01*
X180123809Y-133561904D01*
X180171428Y-133657142D01*
X180219047Y-133704761D01*
X180314285Y-133752380D01*
X180409523Y-133752380D01*
X180504761Y-133704761D01*
X180552380Y-133657142D01*
X180600000Y-133561904D01*
X180647619Y-133371428D01*
X180647619Y-133133333D01*
X180600000Y-132942857D01*
X180552380Y-132847619D01*
X180504761Y-132800000D01*
X180409523Y-132752380D01*
X179457142Y-132752380D02*
X179361904Y-132752380D01*
X179266666Y-132800000D01*
X179219047Y-132847619D01*
X179171428Y-132942857D01*
X179123809Y-133133333D01*
X179123809Y-133371428D01*
X179171428Y-133561904D01*
X179219047Y-133657142D01*
X179266666Y-133704761D01*
X179361904Y-133752380D01*
X179457142Y-133752380D01*
X179552380Y-133704761D01*
X179600000Y-133657142D01*
X179647619Y-133561904D01*
X179695238Y-133371428D01*
X179695238Y-133133333D01*
X179647619Y-132942857D01*
X179600000Y-132847619D01*
X179552380Y-132800000D01*
X179457142Y-132752380D01*
X178790476Y-132752380D02*
X178123809Y-132752380D01*
X178552380Y-133752380D01*
X177314285Y-132752380D02*
X177504761Y-132752380D01*
X177600000Y-132800000D01*
X177647619Y-132847619D01*
X177742857Y-132990476D01*
X177790476Y-133180952D01*
X177790476Y-133561904D01*
X177742857Y-133657142D01*
X177695238Y-133704761D01*
X177600000Y-133752380D01*
X177409523Y-133752380D01*
X177314285Y-133704761D01*
X177266666Y-133657142D01*
X177219047Y-133561904D01*
X177219047Y-133323809D01*
X177266666Y-133228571D01*
X177314285Y-133180952D01*
X177409523Y-133133333D01*
X177600000Y-133133333D01*
X177695238Y-133180952D01*
X177742857Y-133228571D01*
X177790476Y-133323809D01*
X176457142Y-133228571D02*
X176314285Y-133276190D01*
X176266666Y-133323809D01*
X176219047Y-133419047D01*
X176219047Y-133561904D01*
X176266666Y-133657142D01*
X176314285Y-133704761D01*
X176409523Y-133752380D01*
X176790476Y-133752380D01*
X176790476Y-132752380D01*
X176457142Y-132752380D01*
X176361904Y-132800000D01*
X176314285Y-132847619D01*
X176266666Y-132942857D01*
X176266666Y-133038095D01*
X176314285Y-133133333D01*
X176361904Y-133180952D01*
X176457142Y-133228571D01*
X176790476Y-133228571D01*
X186552380Y-134878571D02*
X186409523Y-134926190D01*
X186361904Y-134973809D01*
X186314285Y-135069047D01*
X186314285Y-135211904D01*
X186361904Y-135307142D01*
X186409523Y-135354761D01*
X186504761Y-135402380D01*
X186885714Y-135402380D01*
X186885714Y-134402380D01*
X186552380Y-134402380D01*
X186457142Y-134450000D01*
X186409523Y-134497619D01*
X186361904Y-134592857D01*
X186361904Y-134688095D01*
X186409523Y-134783333D01*
X186457142Y-134830952D01*
X186552380Y-134878571D01*
X186885714Y-134878571D01*
X185885714Y-134735714D02*
X185885714Y-135592857D01*
X185933333Y-135688095D01*
X186028571Y-135735714D01*
X186076190Y-135735714D01*
X185885714Y-134402380D02*
X185933333Y-134450000D01*
X185885714Y-134497619D01*
X185838095Y-134450000D01*
X185885714Y-134402380D01*
X185885714Y-134497619D01*
X184885714Y-134735714D02*
X185504761Y-135402380D01*
X185266666Y-135402380D02*
X185361904Y-135354761D01*
X185409523Y-135307142D01*
X185457142Y-135211904D01*
X185457142Y-134926190D01*
X185409523Y-134830952D01*
X185361904Y-134783333D01*
X185266666Y-134735714D01*
X185123809Y-134735714D01*
X185028571Y-134783333D01*
X184980952Y-134830952D01*
X184933333Y-134926190D01*
X184933333Y-135211904D01*
X184980952Y-135307142D01*
X185028571Y-135354761D01*
X185123809Y-135402380D01*
X185266666Y-135402380D01*
X184504761Y-135402380D02*
X184504761Y-134735714D01*
X184504761Y-134926190D02*
X184457142Y-134830952D01*
X184409523Y-134783333D01*
X184314285Y-134735714D01*
X184219047Y-134735714D01*
X183885714Y-134735714D02*
X183885714Y-135402380D01*
X183885714Y-134830952D02*
X183838095Y-134783333D01*
X183742857Y-134735714D01*
X183600000Y-134735714D01*
X183504761Y-134783333D01*
X183457142Y-134878571D01*
X183457142Y-135402380D01*
X182600000Y-135354761D02*
X182695238Y-135402380D01*
X182885714Y-135402380D01*
X182980952Y-135354761D01*
X183028571Y-135259523D01*
X183028571Y-134878571D01*
X182980952Y-134783333D01*
X182885714Y-134735714D01*
X182695238Y-134735714D01*
X182600000Y-134783333D01*
X182552380Y-134878571D01*
X182552380Y-134973809D01*
X183028571Y-135069047D01*
X182123809Y-135402380D02*
X182123809Y-134735714D01*
X182123809Y-134926190D02*
X182076190Y-134830952D01*
X182028571Y-134783333D01*
X181933333Y-134735714D01*
X181838095Y-134735714D01*
X180790476Y-135354761D02*
X180647619Y-135402380D01*
X180409523Y-135402380D01*
X180314285Y-135354761D01*
X180266666Y-135307142D01*
X180219047Y-135211904D01*
X180219047Y-135116666D01*
X180266666Y-135021428D01*
X180314285Y-134973809D01*
X180409523Y-134926190D01*
X180600000Y-134878571D01*
X180695238Y-134830952D01*
X180742857Y-134783333D01*
X180790476Y-134688095D01*
X180790476Y-134592857D01*
X180742857Y-134497619D01*
X180695238Y-134450000D01*
X180600000Y-134402380D01*
X180361904Y-134402380D01*
X180219047Y-134450000D01*
X179361904Y-135402380D02*
X179361904Y-134878571D01*
X179409523Y-134783333D01*
X179504761Y-134735714D01*
X179695238Y-134735714D01*
X179790476Y-134783333D01*
X179361904Y-135354761D02*
X179457142Y-135402380D01*
X179695238Y-135402380D01*
X179790476Y-135354761D01*
X179838095Y-135259523D01*
X179838095Y-135164285D01*
X179790476Y-135069047D01*
X179695238Y-135021428D01*
X179457142Y-135021428D01*
X179361904Y-134973809D01*
X178885714Y-134735714D02*
X178885714Y-135402380D01*
X178885714Y-134830952D02*
X178838095Y-134783333D01*
X178742857Y-134735714D01*
X178600000Y-134735714D01*
X178504761Y-134783333D01*
X178457142Y-134878571D01*
X178457142Y-135402380D01*
X177552380Y-135402380D02*
X177552380Y-134402380D01*
X177552380Y-135354761D02*
X177647619Y-135402380D01*
X177838095Y-135402380D01*
X177933333Y-135354761D01*
X177980952Y-135307142D01*
X178028571Y-135211904D01*
X178028571Y-134926190D01*
X177980952Y-134830952D01*
X177933333Y-134783333D01*
X177838095Y-134735714D01*
X177647619Y-134735714D01*
X177552380Y-134783333D01*
X176933333Y-135402380D02*
X177028571Y-135354761D01*
X177076190Y-135307142D01*
X177123809Y-135211904D01*
X177123809Y-134926190D01*
X177076190Y-134830952D01*
X177028571Y-134783333D01*
X176933333Y-134735714D01*
X176790476Y-134735714D01*
X176695238Y-134783333D01*
X176647619Y-134830952D01*
X176600000Y-134926190D01*
X176600000Y-135211904D01*
X176647619Y-135307142D01*
X176695238Y-135354761D01*
X176790476Y-135402380D01*
X176933333Y-135402380D01*
X176171428Y-135402380D02*
X176171428Y-134735714D01*
X176171428Y-134830952D02*
X176123809Y-134783333D01*
X176028571Y-134735714D01*
X175885714Y-134735714D01*
X175790476Y-134783333D01*
X175742857Y-134878571D01*
X175742857Y-135402380D01*
X175742857Y-134878571D02*
X175695238Y-134783333D01*
X175600000Y-134735714D01*
X175457142Y-134735714D01*
X175361904Y-134783333D01*
X175314285Y-134878571D01*
X175314285Y-135402380D01*
%LPC*%
D11*
X157250000Y-98400000D03*
D12*
X196000000Y-143000000D03*
X201000000Y-143000000D03*
X206000000Y-143000000D03*
X176000000Y-142900000D03*
X181000000Y-142900000D03*
X186000000Y-142900000D03*
D13*
X161280000Y-76000000D03*
X163820000Y-76000000D03*
X166360000Y-76000000D03*
D14*
X168900000Y-76000000D03*
D15*
X205200000Y-84090000D03*
X205200000Y-86630000D03*
X205200000Y-89170000D03*
D16*
X205200000Y-91710000D03*
D17*
X173150000Y-94700000D03*
X173150000Y-89700000D03*
D13*
X200100000Y-132440000D03*
D14*
X200100000Y-129900000D03*
D18*
X159100000Y-90100000D03*
X163950000Y-90100000D03*
D19*
X165540000Y-142910000D03*
X168080000Y-137830000D03*
X168080000Y-135290000D03*
X163000000Y-137830000D03*
X163000000Y-135290000D03*
X168080000Y-132750000D03*
X163000000Y-132750000D03*
D20*
X156000000Y-140250000D03*
D21*
X153460000Y-140250000D03*
D20*
X158540000Y-140250000D03*
D22*
X207000000Y-76000000D03*
X155000000Y-76000000D03*
X207100000Y-132450000D03*
X155100000Y-132450000D03*
D23*
X161680000Y-106400000D03*
X156800000Y-106400000D03*
D19*
X198680000Y-82500000D03*
X193600000Y-82500000D03*
X198680000Y-92500000D03*
X193600000Y-92500000D03*
D17*
X187475000Y-89595000D03*
X187475000Y-93555000D03*
X187475000Y-97515000D03*
D24*
X187475000Y-101475000D03*
D25*
X180750000Y-79000000D03*
D26*
X175750000Y-79000000D03*
D25*
X205800000Y-101800000D03*
D26*
X200800000Y-101800000D03*
M02*
