G04 #@! TF.GenerationSoftware,KiCad,Pcbnew,(5.1.10)-1*
G04 #@! TF.CreationDate,2021-11-25T14:07:25+01:00*
G04 #@! TF.ProjectId,PSU,5053552e-6b69-4636-9164-5f7063625858,rev?*
G04 #@! TF.SameCoordinates,Original*
G04 #@! TF.FileFunction,Copper,L1,Top*
G04 #@! TF.FilePolarity,Positive*
%FSLAX46Y46*%
G04 Gerber Fmt 4.6, Leading zero omitted, Abs format (unit mm)*
G04 Created by KiCad (PCBNEW (5.1.10)-1) date 2021-11-25 14:07:25*
%MOMM*%
%LPD*%
G01*
G04 APERTURE LIST*
G04 #@! TA.AperFunction,ComponentPad*
%ADD10C,2.400000*%
G04 #@! TD*
G04 #@! TA.AperFunction,ComponentPad*
%ADD11R,2.400000X2.400000*%
G04 #@! TD*
G04 #@! TA.AperFunction,ComponentPad*
%ADD12C,4.000000*%
G04 #@! TD*
G04 #@! TA.AperFunction,ComponentPad*
%ADD13C,1.600200*%
G04 #@! TD*
G04 #@! TA.AperFunction,ComponentPad*
%ADD14R,1.600200X1.600200*%
G04 #@! TD*
G04 #@! TA.AperFunction,ComponentPad*
%ADD15C,1.524000*%
G04 #@! TD*
G04 #@! TA.AperFunction,SMDPad,CuDef*
%ADD16C,0.100000*%
G04 #@! TD*
G04 #@! TA.AperFunction,SMDPad,CuDef*
%ADD17R,0.900000X1.300000*%
G04 #@! TD*
G04 #@! TA.AperFunction,ComponentPad*
%ADD18C,3.000000*%
G04 #@! TD*
G04 #@! TA.AperFunction,ComponentPad*
%ADD19O,1.905000X2.000000*%
G04 #@! TD*
G04 #@! TA.AperFunction,ComponentPad*
%ADD20R,1.905000X2.000000*%
G04 #@! TD*
G04 #@! TA.AperFunction,ComponentPad*
%ADD21C,1.800000*%
G04 #@! TD*
G04 #@! TA.AperFunction,ComponentPad*
%ADD22O,2.200000X1.700000*%
G04 #@! TD*
G04 #@! TA.AperFunction,ComponentPad*
%ADD23R,2.200000X1.700000*%
G04 #@! TD*
G04 #@! TA.AperFunction,ComponentPad*
%ADD24C,2.000000*%
G04 #@! TD*
G04 #@! TA.AperFunction,ComponentPad*
%ADD25C,2.500000*%
G04 #@! TD*
G04 #@! TA.AperFunction,ComponentPad*
%ADD26R,2.500000X2.500000*%
G04 #@! TD*
G04 #@! TA.AperFunction,ViaPad*
%ADD27C,0.800000*%
G04 #@! TD*
G04 #@! TA.AperFunction,Conductor*
%ADD28C,1.000000*%
G04 #@! TD*
G04 #@! TA.AperFunction,Conductor*
%ADD29C,0.500000*%
G04 #@! TD*
G04 #@! TA.AperFunction,Conductor*
%ADD30C,0.250000*%
G04 #@! TD*
G04 #@! TA.AperFunction,Conductor*
%ADD31C,0.254000*%
G04 #@! TD*
G04 #@! TA.AperFunction,Conductor*
%ADD32C,0.100000*%
G04 #@! TD*
G04 APERTURE END LIST*
G04 #@! TA.AperFunction,SMDPad,CuDef*
G36*
G01*
X189300000Y-143949999D02*
X189300000Y-144850001D01*
G75*
G02*
X189050001Y-145100000I-249999J0D01*
G01*
X188349999Y-145100000D01*
G75*
G02*
X188100000Y-144850001I0J249999D01*
G01*
X188100000Y-143949999D01*
G75*
G02*
X188349999Y-143700000I249999J0D01*
G01*
X189050001Y-143700000D01*
G75*
G02*
X189300000Y-143949999I0J-249999D01*
G01*
G37*
G04 #@! TD.AperFunction*
G04 #@! TA.AperFunction,SMDPad,CuDef*
G36*
G01*
X191300000Y-143949999D02*
X191300000Y-144850001D01*
G75*
G02*
X191050001Y-145100000I-249999J0D01*
G01*
X190349999Y-145100000D01*
G75*
G02*
X190100000Y-144850001I0J249999D01*
G01*
X190100000Y-143949999D01*
G75*
G02*
X190349999Y-143700000I249999J0D01*
G01*
X191050001Y-143700000D01*
G75*
G02*
X191300000Y-143949999I0J-249999D01*
G01*
G37*
G04 #@! TD.AperFunction*
G04 #@! TA.AperFunction,SMDPad,CuDef*
G36*
G01*
X194550000Y-91249999D02*
X194550000Y-92150001D01*
G75*
G02*
X194300001Y-92400000I-249999J0D01*
G01*
X193649999Y-92400000D01*
G75*
G02*
X193400000Y-92150001I0J249999D01*
G01*
X193400000Y-91249999D01*
G75*
G02*
X193649999Y-91000000I249999J0D01*
G01*
X194300001Y-91000000D01*
G75*
G02*
X194550000Y-91249999I0J-249999D01*
G01*
G37*
G04 #@! TD.AperFunction*
G04 #@! TA.AperFunction,SMDPad,CuDef*
G36*
G01*
X196600000Y-91249999D02*
X196600000Y-92150001D01*
G75*
G02*
X196350001Y-92400000I-249999J0D01*
G01*
X195699999Y-92400000D01*
G75*
G02*
X195450000Y-92150001I0J249999D01*
G01*
X195450000Y-91249999D01*
G75*
G02*
X195699999Y-91000000I249999J0D01*
G01*
X196350001Y-91000000D01*
G75*
G02*
X196600000Y-91249999I0J-249999D01*
G01*
G37*
G04 #@! TD.AperFunction*
G04 #@! TA.AperFunction,SMDPad,CuDef*
G36*
G01*
X194550000Y-143949999D02*
X194550000Y-144850001D01*
G75*
G02*
X194300001Y-145100000I-249999J0D01*
G01*
X193649999Y-145100000D01*
G75*
G02*
X193400000Y-144850001I0J249999D01*
G01*
X193400000Y-143949999D01*
G75*
G02*
X193649999Y-143700000I249999J0D01*
G01*
X194300001Y-143700000D01*
G75*
G02*
X194550000Y-143949999I0J-249999D01*
G01*
G37*
G04 #@! TD.AperFunction*
G04 #@! TA.AperFunction,SMDPad,CuDef*
G36*
G01*
X196600000Y-143949999D02*
X196600000Y-144850001D01*
G75*
G02*
X196350001Y-145100000I-249999J0D01*
G01*
X195699999Y-145100000D01*
G75*
G02*
X195450000Y-144850001I0J249999D01*
G01*
X195450000Y-143949999D01*
G75*
G02*
X195699999Y-143700000I249999J0D01*
G01*
X196350001Y-143700000D01*
G75*
G02*
X196600000Y-143949999I0J-249999D01*
G01*
G37*
G04 #@! TD.AperFunction*
G04 #@! TA.AperFunction,SMDPad,CuDef*
G36*
G01*
X183950000Y-143949999D02*
X183950000Y-144850001D01*
G75*
G02*
X183700001Y-145100000I-249999J0D01*
G01*
X183049999Y-145100000D01*
G75*
G02*
X182800000Y-144850001I0J249999D01*
G01*
X182800000Y-143949999D01*
G75*
G02*
X183049999Y-143700000I249999J0D01*
G01*
X183700001Y-143700000D01*
G75*
G02*
X183950000Y-143949999I0J-249999D01*
G01*
G37*
G04 #@! TD.AperFunction*
G04 #@! TA.AperFunction,SMDPad,CuDef*
G36*
G01*
X186000000Y-143949999D02*
X186000000Y-144850001D01*
G75*
G02*
X185750001Y-145100000I-249999J0D01*
G01*
X185099999Y-145100000D01*
G75*
G02*
X184850000Y-144850001I0J249999D01*
G01*
X184850000Y-143949999D01*
G75*
G02*
X185099999Y-143700000I249999J0D01*
G01*
X185750001Y-143700000D01*
G75*
G02*
X186000000Y-143949999I0J-249999D01*
G01*
G37*
G04 #@! TD.AperFunction*
D10*
X187250000Y-117750000D03*
D11*
X182250000Y-117750000D03*
D10*
X204000000Y-117750000D03*
D11*
X199000000Y-117750000D03*
G04 #@! TA.AperFunction,SMDPad,CuDef*
G36*
G01*
X183950000Y-91299999D02*
X183950000Y-92200001D01*
G75*
G02*
X183700001Y-92450000I-249999J0D01*
G01*
X183049999Y-92450000D01*
G75*
G02*
X182800000Y-92200001I0J249999D01*
G01*
X182800000Y-91299999D01*
G75*
G02*
X183049999Y-91050000I249999J0D01*
G01*
X183700001Y-91050000D01*
G75*
G02*
X183950000Y-91299999I0J-249999D01*
G01*
G37*
G04 #@! TD.AperFunction*
G04 #@! TA.AperFunction,SMDPad,CuDef*
G36*
G01*
X186000000Y-91299999D02*
X186000000Y-92200001D01*
G75*
G02*
X185750001Y-92450000I-249999J0D01*
G01*
X185099999Y-92450000D01*
G75*
G02*
X184850000Y-92200001I0J249999D01*
G01*
X184850000Y-91299999D01*
G75*
G02*
X185099999Y-91050000I249999J0D01*
G01*
X185750001Y-91050000D01*
G75*
G02*
X186000000Y-91299999I0J-249999D01*
G01*
G37*
G04 #@! TD.AperFunction*
G04 #@! TA.AperFunction,SMDPad,CuDef*
G36*
G01*
X206387500Y-126425000D02*
X206387500Y-127375000D01*
G75*
G02*
X206137500Y-127625000I-250000J0D01*
G01*
X205462500Y-127625000D01*
G75*
G02*
X205212500Y-127375000I0J250000D01*
G01*
X205212500Y-126425000D01*
G75*
G02*
X205462500Y-126175000I250000J0D01*
G01*
X206137500Y-126175000D01*
G75*
G02*
X206387500Y-126425000I0J-250000D01*
G01*
G37*
G04 #@! TD.AperFunction*
G04 #@! TA.AperFunction,SMDPad,CuDef*
G36*
G01*
X208462500Y-126425000D02*
X208462500Y-127375000D01*
G75*
G02*
X208212500Y-127625000I-250000J0D01*
G01*
X207537500Y-127625000D01*
G75*
G02*
X207287500Y-127375000I0J250000D01*
G01*
X207287500Y-126425000D01*
G75*
G02*
X207537500Y-126175000I250000J0D01*
G01*
X208212500Y-126175000D01*
G75*
G02*
X208462500Y-126425000I0J-250000D01*
G01*
G37*
G04 #@! TD.AperFunction*
G04 #@! TA.AperFunction,SMDPad,CuDef*
G36*
G01*
X189400000Y-91249999D02*
X189400000Y-92150001D01*
G75*
G02*
X189150001Y-92400000I-249999J0D01*
G01*
X188449999Y-92400000D01*
G75*
G02*
X188200000Y-92150001I0J249999D01*
G01*
X188200000Y-91249999D01*
G75*
G02*
X188449999Y-91000000I249999J0D01*
G01*
X189150001Y-91000000D01*
G75*
G02*
X189400000Y-91249999I0J-249999D01*
G01*
G37*
G04 #@! TD.AperFunction*
G04 #@! TA.AperFunction,SMDPad,CuDef*
G36*
G01*
X191400000Y-91249999D02*
X191400000Y-92150001D01*
G75*
G02*
X191150001Y-92400000I-249999J0D01*
G01*
X190449999Y-92400000D01*
G75*
G02*
X190200000Y-92150001I0J249999D01*
G01*
X190200000Y-91249999D01*
G75*
G02*
X190449999Y-91000000I249999J0D01*
G01*
X191150001Y-91000000D01*
G75*
G02*
X191400000Y-91249999I0J-249999D01*
G01*
G37*
G04 #@! TD.AperFunction*
G04 #@! TA.AperFunction,SMDPad,CuDef*
G36*
G01*
X212050000Y-123225000D02*
X212050000Y-124175000D01*
G75*
G02*
X211800000Y-124425000I-250000J0D01*
G01*
X211125000Y-124425000D01*
G75*
G02*
X210875000Y-124175000I0J250000D01*
G01*
X210875000Y-123225000D01*
G75*
G02*
X211125000Y-122975000I250000J0D01*
G01*
X211800000Y-122975000D01*
G75*
G02*
X212050000Y-123225000I0J-250000D01*
G01*
G37*
G04 #@! TD.AperFunction*
G04 #@! TA.AperFunction,SMDPad,CuDef*
G36*
G01*
X214125000Y-123225000D02*
X214125000Y-124175000D01*
G75*
G02*
X213875000Y-124425000I-250000J0D01*
G01*
X213200000Y-124425000D01*
G75*
G02*
X212950000Y-124175000I0J250000D01*
G01*
X212950000Y-123225000D01*
G75*
G02*
X213200000Y-122975000I250000J0D01*
G01*
X213875000Y-122975000D01*
G75*
G02*
X214125000Y-123225000I0J-250000D01*
G01*
G37*
G04 #@! TD.AperFunction*
G04 #@! TA.AperFunction,SMDPad,CuDef*
G36*
G01*
X206150000Y-136525000D02*
X206150000Y-137475000D01*
G75*
G02*
X205900000Y-137725000I-250000J0D01*
G01*
X205225000Y-137725000D01*
G75*
G02*
X204975000Y-137475000I0J250000D01*
G01*
X204975000Y-136525000D01*
G75*
G02*
X205225000Y-136275000I250000J0D01*
G01*
X205900000Y-136275000D01*
G75*
G02*
X206150000Y-136525000I0J-250000D01*
G01*
G37*
G04 #@! TD.AperFunction*
G04 #@! TA.AperFunction,SMDPad,CuDef*
G36*
G01*
X208225000Y-136525000D02*
X208225000Y-137475000D01*
G75*
G02*
X207975000Y-137725000I-250000J0D01*
G01*
X207300000Y-137725000D01*
G75*
G02*
X207050000Y-137475000I0J250000D01*
G01*
X207050000Y-136525000D01*
G75*
G02*
X207300000Y-136275000I250000J0D01*
G01*
X207975000Y-136275000D01*
G75*
G02*
X208225000Y-136525000I0J-250000D01*
G01*
G37*
G04 #@! TD.AperFunction*
G04 #@! TA.AperFunction,SMDPad,CuDef*
G36*
G01*
X203725000Y-106450000D02*
X204675000Y-106450000D01*
G75*
G02*
X204925000Y-106700000I0J-250000D01*
G01*
X204925000Y-107375000D01*
G75*
G02*
X204675000Y-107625000I-250000J0D01*
G01*
X203725000Y-107625000D01*
G75*
G02*
X203475000Y-107375000I0J250000D01*
G01*
X203475000Y-106700000D01*
G75*
G02*
X203725000Y-106450000I250000J0D01*
G01*
G37*
G04 #@! TD.AperFunction*
G04 #@! TA.AperFunction,SMDPad,CuDef*
G36*
G01*
X203725000Y-104375000D02*
X204675000Y-104375000D01*
G75*
G02*
X204925000Y-104625000I0J-250000D01*
G01*
X204925000Y-105300000D01*
G75*
G02*
X204675000Y-105550000I-250000J0D01*
G01*
X203725000Y-105550000D01*
G75*
G02*
X203475000Y-105300000I0J250000D01*
G01*
X203475000Y-104625000D01*
G75*
G02*
X203725000Y-104375000I250000J0D01*
G01*
G37*
G04 #@! TD.AperFunction*
G04 #@! TA.AperFunction,SMDPad,CuDef*
G36*
G01*
X212887500Y-127375000D02*
X212887500Y-126425000D01*
G75*
G02*
X213137500Y-126175000I250000J0D01*
G01*
X213812500Y-126175000D01*
G75*
G02*
X214062500Y-126425000I0J-250000D01*
G01*
X214062500Y-127375000D01*
G75*
G02*
X213812500Y-127625000I-250000J0D01*
G01*
X213137500Y-127625000D01*
G75*
G02*
X212887500Y-127375000I0J250000D01*
G01*
G37*
G04 #@! TD.AperFunction*
G04 #@! TA.AperFunction,SMDPad,CuDef*
G36*
G01*
X210812500Y-127375000D02*
X210812500Y-126425000D01*
G75*
G02*
X211062500Y-126175000I250000J0D01*
G01*
X211737500Y-126175000D01*
G75*
G02*
X211987500Y-126425000I0J-250000D01*
G01*
X211987500Y-127375000D01*
G75*
G02*
X211737500Y-127625000I-250000J0D01*
G01*
X211062500Y-127625000D01*
G75*
G02*
X210812500Y-127375000I0J250000D01*
G01*
G37*
G04 #@! TD.AperFunction*
G04 #@! TA.AperFunction,SMDPad,CuDef*
G36*
G01*
X203725000Y-96950000D02*
X204675000Y-96950000D01*
G75*
G02*
X204925000Y-97200000I0J-250000D01*
G01*
X204925000Y-97875000D01*
G75*
G02*
X204675000Y-98125000I-250000J0D01*
G01*
X203725000Y-98125000D01*
G75*
G02*
X203475000Y-97875000I0J250000D01*
G01*
X203475000Y-97200000D01*
G75*
G02*
X203725000Y-96950000I250000J0D01*
G01*
G37*
G04 #@! TD.AperFunction*
G04 #@! TA.AperFunction,SMDPad,CuDef*
G36*
G01*
X203725000Y-94875000D02*
X204675000Y-94875000D01*
G75*
G02*
X204925000Y-95125000I0J-250000D01*
G01*
X204925000Y-95800000D01*
G75*
G02*
X204675000Y-96050000I-250000J0D01*
G01*
X203725000Y-96050000D01*
G75*
G02*
X203475000Y-95800000I0J250000D01*
G01*
X203475000Y-95125000D01*
G75*
G02*
X203725000Y-94875000I250000J0D01*
G01*
G37*
G04 #@! TD.AperFunction*
G04 #@! TA.AperFunction,SMDPad,CuDef*
G36*
G01*
X204675000Y-100650000D02*
X203725000Y-100650000D01*
G75*
G02*
X203475000Y-100400000I0J250000D01*
G01*
X203475000Y-99725000D01*
G75*
G02*
X203725000Y-99475000I250000J0D01*
G01*
X204675000Y-99475000D01*
G75*
G02*
X204925000Y-99725000I0J-250000D01*
G01*
X204925000Y-100400000D01*
G75*
G02*
X204675000Y-100650000I-250000J0D01*
G01*
G37*
G04 #@! TD.AperFunction*
G04 #@! TA.AperFunction,SMDPad,CuDef*
G36*
G01*
X204675000Y-102725000D02*
X203725000Y-102725000D01*
G75*
G02*
X203475000Y-102475000I0J250000D01*
G01*
X203475000Y-101800000D01*
G75*
G02*
X203725000Y-101550000I250000J0D01*
G01*
X204675000Y-101550000D01*
G75*
G02*
X204925000Y-101800000I0J-250000D01*
G01*
X204925000Y-102475000D01*
G75*
G02*
X204675000Y-102725000I-250000J0D01*
G01*
G37*
G04 #@! TD.AperFunction*
G04 #@! TA.AperFunction,SMDPad,CuDef*
G36*
G01*
X193262500Y-106525000D02*
X193262500Y-107475000D01*
G75*
G02*
X193012500Y-107725000I-250000J0D01*
G01*
X192337500Y-107725000D01*
G75*
G02*
X192087500Y-107475000I0J250000D01*
G01*
X192087500Y-106525000D01*
G75*
G02*
X192337500Y-106275000I250000J0D01*
G01*
X193012500Y-106275000D01*
G75*
G02*
X193262500Y-106525000I0J-250000D01*
G01*
G37*
G04 #@! TD.AperFunction*
G04 #@! TA.AperFunction,SMDPad,CuDef*
G36*
G01*
X195337500Y-106525000D02*
X195337500Y-107475000D01*
G75*
G02*
X195087500Y-107725000I-250000J0D01*
G01*
X194412500Y-107725000D01*
G75*
G02*
X194162500Y-107475000I0J250000D01*
G01*
X194162500Y-106525000D01*
G75*
G02*
X194412500Y-106275000I250000J0D01*
G01*
X195087500Y-106275000D01*
G75*
G02*
X195337500Y-106525000I0J-250000D01*
G01*
G37*
G04 #@! TD.AperFunction*
G04 #@! TA.AperFunction,SMDPad,CuDef*
G36*
G01*
X186412500Y-129175000D02*
X186412500Y-128225000D01*
G75*
G02*
X186662500Y-127975000I250000J0D01*
G01*
X187337500Y-127975000D01*
G75*
G02*
X187587500Y-128225000I0J-250000D01*
G01*
X187587500Y-129175000D01*
G75*
G02*
X187337500Y-129425000I-250000J0D01*
G01*
X186662500Y-129425000D01*
G75*
G02*
X186412500Y-129175000I0J250000D01*
G01*
G37*
G04 #@! TD.AperFunction*
G04 #@! TA.AperFunction,SMDPad,CuDef*
G36*
G01*
X184337500Y-129175000D02*
X184337500Y-128225000D01*
G75*
G02*
X184587500Y-127975000I250000J0D01*
G01*
X185262500Y-127975000D01*
G75*
G02*
X185512500Y-128225000I0J-250000D01*
G01*
X185512500Y-129175000D01*
G75*
G02*
X185262500Y-129425000I-250000J0D01*
G01*
X184587500Y-129425000D01*
G75*
G02*
X184337500Y-129175000I0J250000D01*
G01*
G37*
G04 #@! TD.AperFunction*
G04 #@! TA.AperFunction,SMDPad,CuDef*
G36*
G01*
X186487500Y-107475000D02*
X186487500Y-106525000D01*
G75*
G02*
X186737500Y-106275000I250000J0D01*
G01*
X187412500Y-106275000D01*
G75*
G02*
X187662500Y-106525000I0J-250000D01*
G01*
X187662500Y-107475000D01*
G75*
G02*
X187412500Y-107725000I-250000J0D01*
G01*
X186737500Y-107725000D01*
G75*
G02*
X186487500Y-107475000I0J250000D01*
G01*
G37*
G04 #@! TD.AperFunction*
G04 #@! TA.AperFunction,SMDPad,CuDef*
G36*
G01*
X184412500Y-107475000D02*
X184412500Y-106525000D01*
G75*
G02*
X184662500Y-106275000I250000J0D01*
G01*
X185337500Y-106275000D01*
G75*
G02*
X185587500Y-106525000I0J-250000D01*
G01*
X185587500Y-107475000D01*
G75*
G02*
X185337500Y-107725000I-250000J0D01*
G01*
X184662500Y-107725000D01*
G75*
G02*
X184412500Y-107475000I0J250000D01*
G01*
G37*
G04 #@! TD.AperFunction*
G04 #@! TA.AperFunction,SMDPad,CuDef*
G36*
G01*
X193250000Y-128225000D02*
X193250000Y-129175000D01*
G75*
G02*
X193000000Y-129425000I-250000J0D01*
G01*
X192325000Y-129425000D01*
G75*
G02*
X192075000Y-129175000I0J250000D01*
G01*
X192075000Y-128225000D01*
G75*
G02*
X192325000Y-127975000I250000J0D01*
G01*
X193000000Y-127975000D01*
G75*
G02*
X193250000Y-128225000I0J-250000D01*
G01*
G37*
G04 #@! TD.AperFunction*
G04 #@! TA.AperFunction,SMDPad,CuDef*
G36*
G01*
X195325000Y-128225000D02*
X195325000Y-129175000D01*
G75*
G02*
X195075000Y-129425000I-250000J0D01*
G01*
X194400000Y-129425000D01*
G75*
G02*
X194150000Y-129175000I0J250000D01*
G01*
X194150000Y-128225000D01*
G75*
G02*
X194400000Y-127975000I250000J0D01*
G01*
X195075000Y-127975000D01*
G75*
G02*
X195325000Y-128225000I0J-250000D01*
G01*
G37*
G04 #@! TD.AperFunction*
D12*
X125500000Y-129380000D03*
X125500000Y-123000000D03*
X125500000Y-112880000D03*
X125500000Y-106500000D03*
D13*
X158700000Y-128160000D03*
X158700000Y-123080000D03*
X158700000Y-112920000D03*
X158700000Y-107840000D03*
X133300000Y-128160000D03*
X133300000Y-123080000D03*
X133300000Y-112920000D03*
D14*
X133300000Y-107840000D03*
D15*
X213355600Y-143628600D03*
X210815600Y-143628600D03*
X208275600Y-143628600D03*
X205735600Y-143628600D03*
G04 #@! TA.AperFunction,SMDPad,CuDef*
D16*
G36*
X208733500Y-133900000D02*
G01*
X208733500Y-130775000D01*
X209150000Y-130775000D01*
X209150000Y-129300000D01*
X210050000Y-129300000D01*
X210050000Y-130775000D01*
X210466500Y-130775000D01*
X210466500Y-133900000D01*
X208733500Y-133900000D01*
G37*
G04 #@! TD.AperFunction*
D17*
X208100000Y-129950000D03*
X211100000Y-129950000D03*
D18*
X198790000Y-99250000D03*
X180790000Y-99250000D03*
D19*
X192330000Y-103750000D03*
X189790000Y-103750000D03*
D20*
X187250000Y-103750000D03*
D18*
X180710000Y-136750000D03*
X198710000Y-136750000D03*
D19*
X187170000Y-132250000D03*
X189710000Y-132250000D03*
D20*
X192250000Y-132250000D03*
D21*
X140500000Y-141100000D03*
X148000000Y-143000000D03*
G04 #@! TA.AperFunction,SMDPad,CuDef*
G36*
G01*
X212050000Y-136549999D02*
X212050000Y-137450001D01*
G75*
G02*
X211800001Y-137700000I-249999J0D01*
G01*
X211149999Y-137700000D01*
G75*
G02*
X210900000Y-137450001I0J249999D01*
G01*
X210900000Y-136549999D01*
G75*
G02*
X211149999Y-136300000I249999J0D01*
G01*
X211800001Y-136300000D01*
G75*
G02*
X212050000Y-136549999I0J-249999D01*
G01*
G37*
G04 #@! TD.AperFunction*
G04 #@! TA.AperFunction,SMDPad,CuDef*
G36*
G01*
X214100000Y-136549999D02*
X214100000Y-137450001D01*
G75*
G02*
X213850001Y-137700000I-249999J0D01*
G01*
X213199999Y-137700000D01*
G75*
G02*
X212950000Y-137450001I0J249999D01*
G01*
X212950000Y-136549999D01*
G75*
G02*
X213199999Y-136300000I249999J0D01*
G01*
X213850001Y-136300000D01*
G75*
G02*
X214100000Y-136549999I0J-249999D01*
G01*
G37*
G04 #@! TD.AperFunction*
D22*
X208500000Y-95050000D03*
X208500000Y-97590000D03*
X208500000Y-100130000D03*
X208500000Y-102670000D03*
X208500000Y-105210000D03*
D23*
X208500000Y-107750000D03*
D24*
X171500000Y-103000000D03*
X166420000Y-103000000D03*
X166420000Y-133000000D03*
X171500000Y-133000000D03*
D25*
X166250000Y-111790000D03*
X166250000Y-115750000D03*
X166250000Y-119710000D03*
D26*
X166250000Y-123670000D03*
D24*
X148005000Y-94000000D03*
X140505000Y-94000000D03*
D27*
X205650000Y-129500000D03*
X205650000Y-132300000D03*
X205650000Y-130900000D03*
X205650000Y-133700000D03*
X204400000Y-129500000D03*
X204400000Y-130900000D03*
X204400000Y-133700000D03*
X204400000Y-132300000D03*
X207500000Y-134750000D03*
X214650000Y-129500000D03*
X214650000Y-130900000D03*
X214650000Y-133700000D03*
X214650000Y-132300000D03*
X213400000Y-130900000D03*
X213400000Y-129500000D03*
X211600000Y-134750000D03*
X213400000Y-132300000D03*
X213400000Y-133700000D03*
X208866666Y-134750000D03*
X210233332Y-134750000D03*
X214000000Y-111000000D03*
X158000000Y-143000000D03*
X158000000Y-93000000D03*
X215000000Y-93000000D03*
X205400000Y-100100000D03*
X204200000Y-94100000D03*
X200250000Y-123750000D03*
X194250000Y-111500000D03*
X211250000Y-120250000D03*
X207250000Y-111500000D03*
X205500000Y-103500000D03*
X209500000Y-127250000D03*
X215200000Y-118600000D03*
X211600000Y-140400000D03*
X205200000Y-140400000D03*
X175400000Y-143000000D03*
X175400000Y-93000000D03*
D28*
X205362500Y-100062500D02*
X205400000Y-100100000D01*
X204200000Y-100062500D02*
X205362500Y-100062500D01*
X204200000Y-95462500D02*
X204200000Y-94100000D01*
X140500000Y-135360000D02*
X140500000Y-141100000D01*
X133300000Y-128160000D02*
X140500000Y-135360000D01*
D29*
X211100000Y-127200000D02*
X211400000Y-126900000D01*
X211100000Y-129950000D02*
X211100000Y-127200000D01*
X211100000Y-132732002D02*
X211100000Y-129950000D01*
X213525000Y-135157002D02*
X211100000Y-132732002D01*
X213525000Y-137000000D02*
X213525000Y-135157002D01*
X208500000Y-102670000D02*
X206207500Y-104962500D01*
X205462500Y-104962500D02*
X204200000Y-104962500D01*
X206207500Y-104962500D02*
X205462500Y-104962500D01*
X211400000Y-126034000D02*
X211400000Y-126900000D01*
X206950001Y-121584001D02*
X211400000Y-126034000D01*
X206950001Y-113200001D02*
X206950001Y-121584001D01*
X205425010Y-111675010D02*
X206950001Y-113200001D01*
X205425010Y-104999990D02*
X205425010Y-111675010D01*
X205462500Y-104962500D02*
X205425010Y-104999990D01*
D28*
X166250000Y-111790000D02*
X181290000Y-111790000D01*
X183010000Y-111790000D02*
X181290000Y-111790000D01*
X187075000Y-107725000D02*
X183010000Y-111790000D01*
X187075000Y-107000000D02*
X187075000Y-107725000D01*
X189790000Y-104285000D02*
X187075000Y-107000000D01*
X189790000Y-103750000D02*
X189790000Y-104285000D01*
X187250000Y-116030000D02*
X183010000Y-111790000D01*
X187250000Y-117750000D02*
X187250000Y-116030000D01*
D29*
X208100000Y-127125000D02*
X207875000Y-126900000D01*
X208100000Y-129950000D02*
X208100000Y-127125000D01*
D28*
X206492500Y-102137500D02*
X208500000Y-100130000D01*
X204200000Y-102137500D02*
X206492500Y-102137500D01*
X200200000Y-106137500D02*
X204200000Y-102137500D01*
X200200000Y-111549998D02*
X200200000Y-106137500D01*
D29*
X202299999Y-117899999D02*
X198074999Y-113674999D01*
X202299999Y-121324999D02*
X202299999Y-117899999D01*
X207875000Y-126900000D02*
X202299999Y-121324999D01*
D28*
X198074999Y-113674999D02*
X200200000Y-111549998D01*
X184925000Y-130005000D02*
X184925000Y-128700000D01*
X187170000Y-132250000D02*
X184925000Y-130005000D01*
X184925000Y-126824998D02*
X198074999Y-113674999D01*
X184925000Y-128700000D02*
X184925000Y-126824998D01*
D30*
X183375000Y-136045000D02*
X187170000Y-132250000D01*
X183375000Y-144400000D02*
X183375000Y-136045000D01*
D28*
X164249999Y-110250001D02*
X171500000Y-103000000D01*
X164249999Y-113749999D02*
X164249999Y-110250001D01*
X166250000Y-115750000D02*
X164249999Y-113749999D01*
X164249999Y-125749999D02*
X171500000Y-133000000D01*
X164249999Y-121710001D02*
X164249999Y-125749999D01*
X166250000Y-119710000D02*
X164249999Y-121710001D01*
X194737500Y-129762500D02*
X192250000Y-132250000D01*
X194737500Y-128700000D02*
X194737500Y-129762500D01*
X192330000Y-106655000D02*
X192675000Y-107000000D01*
X192330000Y-103750000D02*
X192330000Y-106655000D01*
X208447500Y-97537500D02*
X208500000Y-97590000D01*
X205662500Y-97537500D02*
X208447500Y-97537500D01*
X204200000Y-97537500D02*
X205662500Y-97537500D01*
X203832502Y-97537500D02*
X204200000Y-97537500D01*
X197620002Y-103750000D02*
X203832502Y-97537500D01*
X192330000Y-103750000D02*
X197620002Y-103750000D01*
D30*
X196025000Y-100055000D02*
X192330000Y-103750000D01*
X196025000Y-91400000D02*
X196025000Y-100055000D01*
D29*
X213373188Y-124925010D02*
X212687510Y-124925010D01*
X212687510Y-124925010D02*
X211462500Y-123700000D01*
X215550001Y-127101823D02*
X213373188Y-124925010D01*
X215550001Y-138894199D02*
X215550001Y-127101823D01*
X210815600Y-143628600D02*
X215550001Y-138894199D01*
X208500000Y-120737500D02*
X208500000Y-107750000D01*
X211462500Y-123700000D02*
X208500000Y-120737500D01*
X216300011Y-126462511D02*
X213537500Y-123700000D01*
X216300011Y-140684189D02*
X216300011Y-126462511D01*
X213355600Y-143628600D02*
X216300011Y-140684189D01*
X208910000Y-105210000D02*
X208500000Y-105210000D01*
X210100001Y-106400001D02*
X208910000Y-105210000D01*
X209469546Y-113613664D02*
X210100001Y-112983209D01*
X209469546Y-116456899D02*
X209469546Y-113613664D01*
X210100001Y-112983209D02*
X210100001Y-106400001D01*
X213537500Y-120524853D02*
X209469546Y-116456899D01*
X213537500Y-123700000D02*
X213537500Y-120524853D01*
D28*
X161580000Y-128160000D02*
X166420000Y-133000000D01*
X158700000Y-128160000D02*
X161580000Y-128160000D01*
X163540000Y-103000000D02*
X158700000Y-107840000D01*
X166420000Y-103000000D02*
X163540000Y-103000000D01*
D29*
X211475000Y-137000000D02*
X207637500Y-137000000D01*
X208275600Y-137638100D02*
X207637500Y-137000000D01*
X208275600Y-143628600D02*
X208275600Y-137638100D01*
D30*
X188700000Y-144400000D02*
X185425000Y-144400000D01*
X188800000Y-91450000D02*
X185425000Y-91450000D01*
X193975000Y-144400000D02*
X190700000Y-144400000D01*
X193975000Y-91450000D02*
X190800000Y-91450000D01*
D31*
X216594001Y-125864132D02*
X214507843Y-123777975D01*
X214507843Y-123225000D01*
X214495683Y-123101538D01*
X214459671Y-122982821D01*
X214401190Y-122873411D01*
X214322488Y-122777512D01*
X214226589Y-122698810D01*
X214168500Y-122667761D01*
X214168500Y-120555843D01*
X214171552Y-120524853D01*
X214168500Y-120493862D01*
X214168500Y-120493855D01*
X214159370Y-120401155D01*
X214123289Y-120282211D01*
X214064696Y-120172592D01*
X213985843Y-120076510D01*
X213961768Y-120056752D01*
X212227694Y-118322678D01*
X212664193Y-118409503D01*
X213335807Y-118409503D01*
X213994515Y-118278478D01*
X214615005Y-118021462D01*
X215173431Y-117648334D01*
X215648334Y-117173431D01*
X216021462Y-116615005D01*
X216278478Y-115994515D01*
X216409503Y-115335807D01*
X216409503Y-114664193D01*
X216278478Y-114005485D01*
X216021462Y-113384995D01*
X215648334Y-112826569D01*
X215173431Y-112351666D01*
X214615005Y-111978538D01*
X213994515Y-111721522D01*
X213335807Y-111590497D01*
X212664193Y-111590497D01*
X212005485Y-111721522D01*
X211384995Y-111978538D01*
X210826569Y-112351666D01*
X210731001Y-112447234D01*
X210731001Y-106430999D01*
X210734054Y-106400001D01*
X210721871Y-106276303D01*
X210685790Y-106157359D01*
X210627197Y-106047740D01*
X210568104Y-105975735D01*
X210568102Y-105975733D01*
X210548344Y-105951658D01*
X210524269Y-105931900D01*
X209970406Y-105378037D01*
X209986956Y-105210000D01*
X209963188Y-104968682D01*
X209892798Y-104736637D01*
X209778491Y-104522784D01*
X209624660Y-104335340D01*
X209437216Y-104181509D01*
X209223363Y-104067202D01*
X208991318Y-103996812D01*
X208810472Y-103979000D01*
X208189528Y-103979000D01*
X208071770Y-103990598D01*
X208163893Y-103898475D01*
X208189528Y-103901000D01*
X208810472Y-103901000D01*
X208991318Y-103883188D01*
X209223363Y-103812798D01*
X209437216Y-103698491D01*
X209624660Y-103544660D01*
X209778491Y-103357216D01*
X209892798Y-103143363D01*
X209963188Y-102911318D01*
X209986956Y-102670000D01*
X209963188Y-102428682D01*
X209892798Y-102196637D01*
X209778491Y-101982784D01*
X209624660Y-101795340D01*
X209437216Y-101641509D01*
X209223363Y-101527202D01*
X208991318Y-101456812D01*
X208810472Y-101439000D01*
X208436922Y-101439000D01*
X208514922Y-101361000D01*
X208810472Y-101361000D01*
X208991318Y-101343188D01*
X209223363Y-101272798D01*
X209437216Y-101158491D01*
X209624660Y-101004660D01*
X209778491Y-100817216D01*
X209892798Y-100603363D01*
X209963188Y-100371318D01*
X209986956Y-100130000D01*
X209963188Y-99888682D01*
X209892798Y-99656637D01*
X209778491Y-99442784D01*
X209624660Y-99255340D01*
X209437216Y-99101509D01*
X209223363Y-98987202D01*
X208991318Y-98916812D01*
X208810472Y-98899000D01*
X208189528Y-98899000D01*
X208008682Y-98916812D01*
X207776637Y-98987202D01*
X207562784Y-99101509D01*
X207375340Y-99255340D01*
X207221509Y-99442784D01*
X207107202Y-99656637D01*
X207036812Y-99888682D01*
X207013044Y-100130000D01*
X207034656Y-100349423D01*
X206127579Y-101256500D01*
X205113145Y-101256500D01*
X205169180Y-101239502D01*
X205279494Y-101180537D01*
X205376185Y-101101185D01*
X205455537Y-101004494D01*
X205514502Y-100894180D01*
X205550812Y-100774482D01*
X205563072Y-100650000D01*
X205560000Y-100348250D01*
X205401250Y-100189500D01*
X204327000Y-100189500D01*
X204327000Y-100209500D01*
X204073000Y-100209500D01*
X204073000Y-100189500D01*
X202998750Y-100189500D01*
X202840000Y-100348250D01*
X202836928Y-100650000D01*
X202849188Y-100774482D01*
X202885498Y-100894180D01*
X202944463Y-101004494D01*
X203023815Y-101101185D01*
X203120506Y-101180537D01*
X203230820Y-101239502D01*
X203350518Y-101275812D01*
X203368780Y-101277611D01*
X203277512Y-101352512D01*
X203198810Y-101448411D01*
X203140329Y-101557821D01*
X203104317Y-101676538D01*
X203092157Y-101800000D01*
X203092157Y-101999421D01*
X199607640Y-105483939D01*
X199574026Y-105511525D01*
X199546441Y-105545138D01*
X199463932Y-105645675D01*
X199382125Y-105798726D01*
X199363387Y-105860498D01*
X199339171Y-105940329D01*
X199331749Y-105964795D01*
X199314738Y-106137500D01*
X199319001Y-106180780D01*
X199319000Y-111185076D01*
X197482641Y-113021436D01*
X197482636Y-113021440D01*
X184332640Y-126171437D01*
X184299026Y-126199023D01*
X184257085Y-126250129D01*
X184188932Y-126333173D01*
X184107125Y-126486224D01*
X184079246Y-126578130D01*
X184061916Y-126635261D01*
X184056749Y-126652293D01*
X184039738Y-126824998D01*
X184044001Y-126868278D01*
X184044000Y-127905795D01*
X184002829Y-127982821D01*
X183966817Y-128101538D01*
X183954657Y-128225000D01*
X183954657Y-129175000D01*
X183966817Y-129298462D01*
X184002829Y-129417179D01*
X184044000Y-129494205D01*
X184044000Y-129961729D01*
X184039738Y-130005000D01*
X184044000Y-130048270D01*
X184044000Y-130048272D01*
X184056748Y-130177705D01*
X184094532Y-130302260D01*
X184107125Y-130343774D01*
X184188932Y-130496825D01*
X184220909Y-130535789D01*
X184299025Y-130630975D01*
X184332645Y-130658566D01*
X185836500Y-132162422D01*
X185836500Y-132363007D01*
X185855795Y-132558911D01*
X185923222Y-132781186D01*
X183034781Y-135669628D01*
X183015474Y-135685473D01*
X182952242Y-135762521D01*
X182943502Y-135778872D01*
X182905255Y-135850426D01*
X182876322Y-135945808D01*
X182866553Y-136045000D01*
X182869001Y-136069856D01*
X182869000Y-143346771D01*
X182807821Y-143365329D01*
X182698411Y-143423810D01*
X182602512Y-143502512D01*
X182523810Y-143598411D01*
X182465329Y-143707821D01*
X182429317Y-143826538D01*
X182417157Y-143949999D01*
X182417157Y-144850001D01*
X182429317Y-144973462D01*
X182465329Y-145092179D01*
X182523810Y-145201589D01*
X182602512Y-145297488D01*
X182698411Y-145376190D01*
X182807821Y-145434671D01*
X182926538Y-145470683D01*
X183049999Y-145482843D01*
X183700001Y-145482843D01*
X183823462Y-145470683D01*
X183942179Y-145434671D01*
X184051589Y-145376190D01*
X184147488Y-145297488D01*
X184226190Y-145201589D01*
X184284671Y-145092179D01*
X184320683Y-144973462D01*
X184332843Y-144850001D01*
X184332843Y-143949999D01*
X184467157Y-143949999D01*
X184467157Y-144850001D01*
X184479317Y-144973462D01*
X184515329Y-145092179D01*
X184573810Y-145201589D01*
X184652512Y-145297488D01*
X184748411Y-145376190D01*
X184857821Y-145434671D01*
X184976538Y-145470683D01*
X185099999Y-145482843D01*
X185750001Y-145482843D01*
X185873462Y-145470683D01*
X185992179Y-145434671D01*
X186101589Y-145376190D01*
X186197488Y-145297488D01*
X186276190Y-145201589D01*
X186334671Y-145092179D01*
X186370683Y-144973462D01*
X186377328Y-144906000D01*
X187722672Y-144906000D01*
X187729317Y-144973462D01*
X187765329Y-145092179D01*
X187823810Y-145201589D01*
X187902512Y-145297488D01*
X187998411Y-145376190D01*
X188107821Y-145434671D01*
X188226538Y-145470683D01*
X188349999Y-145482843D01*
X189050001Y-145482843D01*
X189173462Y-145470683D01*
X189292179Y-145434671D01*
X189401589Y-145376190D01*
X189497488Y-145297488D01*
X189576190Y-145201589D01*
X189634671Y-145092179D01*
X189670683Y-144973462D01*
X189682843Y-144850001D01*
X189682843Y-143949999D01*
X189670683Y-143826538D01*
X189634671Y-143707821D01*
X189576190Y-143598411D01*
X189497488Y-143502512D01*
X189401589Y-143423810D01*
X189292179Y-143365329D01*
X189173462Y-143329317D01*
X189050001Y-143317157D01*
X188349999Y-143317157D01*
X188226538Y-143329317D01*
X188107821Y-143365329D01*
X187998411Y-143423810D01*
X187902512Y-143502512D01*
X187823810Y-143598411D01*
X187765329Y-143707821D01*
X187729317Y-143826538D01*
X187722672Y-143894000D01*
X186377328Y-143894000D01*
X186370683Y-143826538D01*
X186334671Y-143707821D01*
X186276190Y-143598411D01*
X186197488Y-143502512D01*
X186101589Y-143423810D01*
X185992179Y-143365329D01*
X185873462Y-143329317D01*
X185750001Y-143317157D01*
X185099999Y-143317157D01*
X184976538Y-143329317D01*
X184857821Y-143365329D01*
X184748411Y-143423810D01*
X184652512Y-143502512D01*
X184573810Y-143598411D01*
X184515329Y-143707821D01*
X184479317Y-143826538D01*
X184467157Y-143949999D01*
X184332843Y-143949999D01*
X184320683Y-143826538D01*
X184284671Y-143707821D01*
X184226190Y-143598411D01*
X184147488Y-143502512D01*
X184051589Y-143423810D01*
X183942179Y-143365329D01*
X183881000Y-143346771D01*
X183881000Y-142663035D01*
X204949640Y-142663035D01*
X205735600Y-143448995D01*
X206521560Y-142663035D01*
X206454580Y-142422944D01*
X206205552Y-142305844D01*
X205938465Y-142239577D01*
X205663583Y-142226690D01*
X205391467Y-142267678D01*
X205132577Y-142360964D01*
X205016620Y-142422944D01*
X204949640Y-142663035D01*
X183881000Y-142663035D01*
X183881000Y-136564738D01*
X196829000Y-136564738D01*
X196829000Y-136935262D01*
X196901286Y-137298667D01*
X197043080Y-137640987D01*
X197248932Y-137949067D01*
X197510933Y-138211068D01*
X197819013Y-138416920D01*
X198161333Y-138558714D01*
X198524738Y-138631000D01*
X198895262Y-138631000D01*
X199258667Y-138558714D01*
X199600987Y-138416920D01*
X199909067Y-138211068D01*
X200171068Y-137949067D01*
X200320784Y-137725000D01*
X204336928Y-137725000D01*
X204349188Y-137849482D01*
X204385498Y-137969180D01*
X204444463Y-138079494D01*
X204523815Y-138176185D01*
X204620506Y-138255537D01*
X204730820Y-138314502D01*
X204850518Y-138350812D01*
X204975000Y-138363072D01*
X205276750Y-138360000D01*
X205435500Y-138201250D01*
X205435500Y-137127000D01*
X204498750Y-137127000D01*
X204340000Y-137285750D01*
X204336928Y-137725000D01*
X200320784Y-137725000D01*
X200376920Y-137640987D01*
X200518714Y-137298667D01*
X200591000Y-136935262D01*
X200591000Y-136564738D01*
X200533368Y-136275000D01*
X204336928Y-136275000D01*
X204340000Y-136714250D01*
X204498750Y-136873000D01*
X205435500Y-136873000D01*
X205435500Y-135798750D01*
X205689500Y-135798750D01*
X205689500Y-136873000D01*
X205709500Y-136873000D01*
X205709500Y-137127000D01*
X205689500Y-137127000D01*
X205689500Y-138201250D01*
X205848250Y-138360000D01*
X206150000Y-138363072D01*
X206274482Y-138350812D01*
X206394180Y-138314502D01*
X206504494Y-138255537D01*
X206601185Y-138176185D01*
X206680537Y-138079494D01*
X206739502Y-137969180D01*
X206775812Y-137849482D01*
X206777611Y-137831220D01*
X206852512Y-137922488D01*
X206948411Y-138001190D01*
X207057821Y-138059671D01*
X207176538Y-138095683D01*
X207300000Y-138107843D01*
X207644601Y-138107843D01*
X207644600Y-142675547D01*
X207546980Y-142740774D01*
X207387774Y-142899980D01*
X207262687Y-143087187D01*
X207176525Y-143295199D01*
X207132600Y-143516024D01*
X207132600Y-143523986D01*
X207096522Y-143284467D01*
X207003236Y-143025577D01*
X206941256Y-142909620D01*
X206701165Y-142842640D01*
X205915205Y-143628600D01*
X206701165Y-144414560D01*
X206941256Y-144347580D01*
X207058356Y-144098552D01*
X207124623Y-143831465D01*
X207132600Y-143661314D01*
X207132600Y-143741176D01*
X207176525Y-143962001D01*
X207262687Y-144170013D01*
X207387774Y-144357220D01*
X207546980Y-144516426D01*
X207734187Y-144641513D01*
X207942199Y-144727675D01*
X208163024Y-144771600D01*
X208388176Y-144771600D01*
X208609001Y-144727675D01*
X208817013Y-144641513D01*
X209004220Y-144516426D01*
X209163426Y-144357220D01*
X209288513Y-144170013D01*
X209374675Y-143962001D01*
X209418600Y-143741176D01*
X209418600Y-143516024D01*
X209374675Y-143295199D01*
X209288513Y-143087187D01*
X209163426Y-142899980D01*
X209004220Y-142740774D01*
X208906600Y-142675547D01*
X208906600Y-137669090D01*
X208909652Y-137638100D01*
X208908953Y-137631000D01*
X210546771Y-137631000D01*
X210565329Y-137692179D01*
X210623810Y-137801589D01*
X210702512Y-137897488D01*
X210798411Y-137976190D01*
X210907821Y-138034671D01*
X211026538Y-138070683D01*
X211149999Y-138082843D01*
X211800001Y-138082843D01*
X211923462Y-138070683D01*
X212042179Y-138034671D01*
X212151589Y-137976190D01*
X212247488Y-137897488D01*
X212326190Y-137801589D01*
X212384671Y-137692179D01*
X212420683Y-137573462D01*
X212432843Y-137450001D01*
X212432843Y-136549999D01*
X212420683Y-136426538D01*
X212384671Y-136307821D01*
X212326190Y-136198411D01*
X212247488Y-136102512D01*
X212151589Y-136023810D01*
X212042179Y-135965329D01*
X211923462Y-135929317D01*
X211800001Y-135917157D01*
X211149999Y-135917157D01*
X211026538Y-135929317D01*
X210907821Y-135965329D01*
X210798411Y-136023810D01*
X210702512Y-136102512D01*
X210623810Y-136198411D01*
X210565329Y-136307821D01*
X210546771Y-136369000D01*
X208585813Y-136369000D01*
X208559671Y-136282821D01*
X208501190Y-136173411D01*
X208422488Y-136077512D01*
X208326589Y-135998810D01*
X208217179Y-135940329D01*
X208098462Y-135904317D01*
X207975000Y-135892157D01*
X207300000Y-135892157D01*
X207176538Y-135904317D01*
X207057821Y-135940329D01*
X206948411Y-135998810D01*
X206852512Y-136077512D01*
X206777611Y-136168780D01*
X206775812Y-136150518D01*
X206739502Y-136030820D01*
X206680537Y-135920506D01*
X206601185Y-135823815D01*
X206504494Y-135744463D01*
X206394180Y-135685498D01*
X206274482Y-135649188D01*
X206150000Y-135636928D01*
X205848250Y-135640000D01*
X205689500Y-135798750D01*
X205435500Y-135798750D01*
X205276750Y-135640000D01*
X204975000Y-135636928D01*
X204850518Y-135649188D01*
X204730820Y-135685498D01*
X204620506Y-135744463D01*
X204523815Y-135823815D01*
X204444463Y-135920506D01*
X204385498Y-136030820D01*
X204349188Y-136150518D01*
X204336928Y-136275000D01*
X200533368Y-136275000D01*
X200518714Y-136201333D01*
X200376920Y-135859013D01*
X200171068Y-135550933D01*
X199909067Y-135288932D01*
X199600987Y-135083080D01*
X199258667Y-134941286D01*
X198895262Y-134869000D01*
X198524738Y-134869000D01*
X198161333Y-134941286D01*
X197819013Y-135083080D01*
X197510933Y-135288932D01*
X197248932Y-135550933D01*
X197043080Y-135859013D01*
X196901286Y-136201333D01*
X196829000Y-136564738D01*
X183881000Y-136564738D01*
X183881000Y-136254591D01*
X186620022Y-133515570D01*
X186657223Y-133535454D01*
X186908588Y-133611705D01*
X187170000Y-133637452D01*
X187431411Y-133611705D01*
X187682776Y-133535454D01*
X187914436Y-133411629D01*
X188117489Y-133244989D01*
X188284129Y-133041937D01*
X188300730Y-133010879D01*
X188400684Y-133193089D01*
X188600563Y-133431315D01*
X188843077Y-133625969D01*
X189118906Y-133769571D01*
X189337020Y-133840563D01*
X189583000Y-133720594D01*
X189583000Y-132377000D01*
X189563000Y-132377000D01*
X189563000Y-132123000D01*
X189583000Y-132123000D01*
X189583000Y-130779406D01*
X189837000Y-130779406D01*
X189837000Y-132123000D01*
X189857000Y-132123000D01*
X189857000Y-132377000D01*
X189837000Y-132377000D01*
X189837000Y-133720594D01*
X190082980Y-133840563D01*
X190301094Y-133769571D01*
X190576923Y-133625969D01*
X190819437Y-133431315D01*
X190920635Y-133310702D01*
X190922013Y-133324689D01*
X190943799Y-133396508D01*
X190979178Y-133462696D01*
X191026789Y-133520711D01*
X191084804Y-133568322D01*
X191150992Y-133603701D01*
X191222811Y-133625487D01*
X191297500Y-133632843D01*
X193202500Y-133632843D01*
X193277189Y-133625487D01*
X193349008Y-133603701D01*
X193415196Y-133568322D01*
X193473211Y-133520711D01*
X193520822Y-133462696D01*
X193556201Y-133396508D01*
X193577987Y-133324689D01*
X193585343Y-133250000D01*
X193585343Y-132160578D01*
X195329861Y-130416061D01*
X195363475Y-130388475D01*
X195417637Y-130322478D01*
X195473568Y-130254326D01*
X195555374Y-130101276D01*
X195555375Y-130101275D01*
X195605752Y-129935206D01*
X195618500Y-129805773D01*
X195618500Y-129805771D01*
X195622762Y-129762501D01*
X195618500Y-129719231D01*
X195618500Y-129494204D01*
X195659671Y-129417179D01*
X195695683Y-129298462D01*
X195707843Y-129175000D01*
X195707843Y-128225000D01*
X195695683Y-128101538D01*
X195659671Y-127982821D01*
X195601190Y-127873411D01*
X195522488Y-127777512D01*
X195426589Y-127698810D01*
X195317179Y-127640329D01*
X195266646Y-127625000D01*
X204574428Y-127625000D01*
X204586688Y-127749482D01*
X204622998Y-127869180D01*
X204681963Y-127979494D01*
X204761315Y-128076185D01*
X204858006Y-128155537D01*
X204968320Y-128214502D01*
X205088018Y-128250812D01*
X205212500Y-128263072D01*
X205514250Y-128260000D01*
X205673000Y-128101250D01*
X205673000Y-127027000D01*
X204736250Y-127027000D01*
X204577500Y-127185750D01*
X204574428Y-127625000D01*
X195266646Y-127625000D01*
X195198462Y-127604317D01*
X195075000Y-127592157D01*
X194400000Y-127592157D01*
X194276538Y-127604317D01*
X194157821Y-127640329D01*
X194048411Y-127698810D01*
X193952512Y-127777512D01*
X193877611Y-127868780D01*
X193875812Y-127850518D01*
X193839502Y-127730820D01*
X193780537Y-127620506D01*
X193701185Y-127523815D01*
X193604494Y-127444463D01*
X193494180Y-127385498D01*
X193374482Y-127349188D01*
X193250000Y-127336928D01*
X192948250Y-127340000D01*
X192789500Y-127498750D01*
X192789500Y-128573000D01*
X192809500Y-128573000D01*
X192809500Y-128827000D01*
X192789500Y-128827000D01*
X192789500Y-129901250D01*
X192948250Y-130060000D01*
X193191601Y-130062477D01*
X192386922Y-130867157D01*
X191297500Y-130867157D01*
X191222811Y-130874513D01*
X191150992Y-130896299D01*
X191084804Y-130931678D01*
X191026789Y-130979289D01*
X190979178Y-131037304D01*
X190943799Y-131103492D01*
X190922013Y-131175311D01*
X190920635Y-131189298D01*
X190819437Y-131068685D01*
X190576923Y-130874031D01*
X190301094Y-130730429D01*
X190082980Y-130659437D01*
X189837000Y-130779406D01*
X189583000Y-130779406D01*
X189337020Y-130659437D01*
X189118906Y-130730429D01*
X188843077Y-130874031D01*
X188600563Y-131068685D01*
X188400684Y-131306911D01*
X188300729Y-131489121D01*
X188284129Y-131458064D01*
X188117489Y-131255011D01*
X187914437Y-131088371D01*
X187682777Y-130964546D01*
X187431412Y-130888295D01*
X187170000Y-130862548D01*
X187041159Y-130875238D01*
X186185693Y-130019772D01*
X186288018Y-130050812D01*
X186412500Y-130063072D01*
X186714250Y-130060000D01*
X186873000Y-129901250D01*
X186873000Y-128827000D01*
X187127000Y-128827000D01*
X187127000Y-129901250D01*
X187285750Y-130060000D01*
X187587500Y-130063072D01*
X187711982Y-130050812D01*
X187831680Y-130014502D01*
X187941994Y-129955537D01*
X188038685Y-129876185D01*
X188118037Y-129779494D01*
X188177002Y-129669180D01*
X188213312Y-129549482D01*
X188225572Y-129425000D01*
X191436928Y-129425000D01*
X191449188Y-129549482D01*
X191485498Y-129669180D01*
X191544463Y-129779494D01*
X191623815Y-129876185D01*
X191720506Y-129955537D01*
X191830820Y-130014502D01*
X191950518Y-130050812D01*
X192075000Y-130063072D01*
X192376750Y-130060000D01*
X192535500Y-129901250D01*
X192535500Y-128827000D01*
X191598750Y-128827000D01*
X191440000Y-128985750D01*
X191436928Y-129425000D01*
X188225572Y-129425000D01*
X188222500Y-128985750D01*
X188063750Y-128827000D01*
X187127000Y-128827000D01*
X186873000Y-128827000D01*
X186853000Y-128827000D01*
X186853000Y-128573000D01*
X186873000Y-128573000D01*
X186873000Y-127498750D01*
X187127000Y-127498750D01*
X187127000Y-128573000D01*
X188063750Y-128573000D01*
X188222500Y-128414250D01*
X188225572Y-127975000D01*
X191436928Y-127975000D01*
X191440000Y-128414250D01*
X191598750Y-128573000D01*
X192535500Y-128573000D01*
X192535500Y-127498750D01*
X192376750Y-127340000D01*
X192075000Y-127336928D01*
X191950518Y-127349188D01*
X191830820Y-127385498D01*
X191720506Y-127444463D01*
X191623815Y-127523815D01*
X191544463Y-127620506D01*
X191485498Y-127730820D01*
X191449188Y-127850518D01*
X191436928Y-127975000D01*
X188225572Y-127975000D01*
X188213312Y-127850518D01*
X188177002Y-127730820D01*
X188118037Y-127620506D01*
X188038685Y-127523815D01*
X187941994Y-127444463D01*
X187831680Y-127385498D01*
X187711982Y-127349188D01*
X187587500Y-127336928D01*
X187285750Y-127340000D01*
X187127000Y-127498750D01*
X186873000Y-127498750D01*
X186714250Y-127340000D01*
X186412500Y-127336928D01*
X186288018Y-127349188D01*
X186168320Y-127385498D01*
X186058006Y-127444463D01*
X185961315Y-127523815D01*
X185881963Y-127620506D01*
X185822998Y-127730820D01*
X185806000Y-127786855D01*
X185806000Y-127189919D01*
X198251776Y-114744144D01*
X199674789Y-116167157D01*
X197800000Y-116167157D01*
X197725311Y-116174513D01*
X197653492Y-116196299D01*
X197587304Y-116231678D01*
X197529289Y-116279289D01*
X197481678Y-116337304D01*
X197446299Y-116403492D01*
X197424513Y-116475311D01*
X197417157Y-116550000D01*
X197417157Y-118950000D01*
X197424513Y-119024689D01*
X197446299Y-119096508D01*
X197481678Y-119162696D01*
X197529289Y-119220711D01*
X197587304Y-119268322D01*
X197653492Y-119303701D01*
X197725311Y-119325487D01*
X197800000Y-119332843D01*
X200200000Y-119332843D01*
X200274689Y-119325487D01*
X200346508Y-119303701D01*
X200412696Y-119268322D01*
X200470711Y-119220711D01*
X200518322Y-119162696D01*
X200553701Y-119096508D01*
X200575487Y-119024689D01*
X200582843Y-118950000D01*
X200582843Y-117075212D01*
X201669000Y-118161369D01*
X201668999Y-121294009D01*
X201665947Y-121324999D01*
X201668999Y-121355989D01*
X201668999Y-121355996D01*
X201678129Y-121448696D01*
X201714210Y-121567640D01*
X201772803Y-121677259D01*
X201851656Y-121773342D01*
X201875736Y-121793104D01*
X205672998Y-125590367D01*
X205672998Y-125698748D01*
X205514250Y-125540000D01*
X205212500Y-125536928D01*
X205088018Y-125549188D01*
X204968320Y-125585498D01*
X204858006Y-125644463D01*
X204761315Y-125723815D01*
X204681963Y-125820506D01*
X204622998Y-125930820D01*
X204586688Y-126050518D01*
X204574428Y-126175000D01*
X204577500Y-126614250D01*
X204736250Y-126773000D01*
X205673000Y-126773000D01*
X205673000Y-126753000D01*
X205927000Y-126753000D01*
X205927000Y-126773000D01*
X205947000Y-126773000D01*
X205947000Y-127027000D01*
X205927000Y-127027000D01*
X205927000Y-128101250D01*
X206085750Y-128260000D01*
X206387500Y-128263072D01*
X206511982Y-128250812D01*
X206631680Y-128214502D01*
X206741994Y-128155537D01*
X206838685Y-128076185D01*
X206918037Y-127979494D01*
X206977002Y-127869180D01*
X207013312Y-127749482D01*
X207015111Y-127731220D01*
X207090012Y-127822488D01*
X207185911Y-127901190D01*
X207295321Y-127959671D01*
X207414038Y-127995683D01*
X207469001Y-128001096D01*
X207469000Y-128964736D01*
X207437304Y-128981678D01*
X207379289Y-129029289D01*
X207331678Y-129087304D01*
X207296299Y-129153492D01*
X207274513Y-129225311D01*
X207267157Y-129300000D01*
X207267157Y-130600000D01*
X207274513Y-130674689D01*
X207296299Y-130746508D01*
X207331678Y-130812696D01*
X207379289Y-130870711D01*
X207437304Y-130918322D01*
X207503492Y-130953701D01*
X207575311Y-130975487D01*
X207650000Y-130982843D01*
X208550000Y-130982843D01*
X208624689Y-130975487D01*
X208696508Y-130953701D01*
X208762696Y-130918322D01*
X208820711Y-130870711D01*
X208868322Y-130812696D01*
X208903701Y-130746508D01*
X208925487Y-130674689D01*
X208932843Y-130600000D01*
X208932843Y-129300000D01*
X208925487Y-129225311D01*
X208903701Y-129153492D01*
X208868322Y-129087304D01*
X208820711Y-129029289D01*
X208762696Y-128981678D01*
X208731000Y-128964736D01*
X208731000Y-127735959D01*
X208738690Y-127726589D01*
X208797171Y-127617179D01*
X208833183Y-127498462D01*
X208845343Y-127375000D01*
X208845343Y-126425000D01*
X208833183Y-126301538D01*
X208797171Y-126182821D01*
X208738690Y-126073411D01*
X208659988Y-125977512D01*
X208564089Y-125898810D01*
X208454679Y-125840329D01*
X208335962Y-125804317D01*
X208212500Y-125792157D01*
X207659526Y-125792157D01*
X202930999Y-121063631D01*
X202930999Y-119097771D01*
X203021514Y-119312836D01*
X203345210Y-119473699D01*
X203694069Y-119568322D01*
X204054684Y-119593067D01*
X204413198Y-119546985D01*
X204755833Y-119431846D01*
X204978486Y-119312836D01*
X205098374Y-119027980D01*
X204000000Y-117929605D01*
X203985858Y-117943748D01*
X203806252Y-117764142D01*
X203820395Y-117750000D01*
X204179605Y-117750000D01*
X205277980Y-118848374D01*
X205562836Y-118728486D01*
X205723699Y-118404790D01*
X205818322Y-118055931D01*
X205843067Y-117695316D01*
X205796985Y-117336802D01*
X205681846Y-116994167D01*
X205562836Y-116771514D01*
X205277980Y-116651626D01*
X204179605Y-117750000D01*
X203820395Y-117750000D01*
X202722020Y-116651626D01*
X202437164Y-116771514D01*
X202313243Y-117020874D01*
X201764389Y-116472020D01*
X202901626Y-116472020D01*
X204000000Y-117570395D01*
X205098374Y-116472020D01*
X204978486Y-116187164D01*
X204654790Y-116026301D01*
X204305931Y-115931678D01*
X203945316Y-115906933D01*
X203586802Y-115953015D01*
X203244167Y-116068154D01*
X203021514Y-116187164D01*
X202901626Y-116472020D01*
X201764389Y-116472020D01*
X199144144Y-113851776D01*
X200792362Y-112203558D01*
X200825975Y-112175973D01*
X200888919Y-112099275D01*
X200936068Y-112041824D01*
X201017874Y-111888774D01*
X201017875Y-111888773D01*
X201068252Y-111722704D01*
X201081000Y-111593271D01*
X201081000Y-111593269D01*
X201085262Y-111549999D01*
X201081000Y-111506729D01*
X201081000Y-107625000D01*
X202836928Y-107625000D01*
X202849188Y-107749482D01*
X202885498Y-107869180D01*
X202944463Y-107979494D01*
X203023815Y-108076185D01*
X203120506Y-108155537D01*
X203230820Y-108214502D01*
X203350518Y-108250812D01*
X203475000Y-108263072D01*
X203914250Y-108260000D01*
X204073000Y-108101250D01*
X204073000Y-107164500D01*
X202998750Y-107164500D01*
X202840000Y-107323250D01*
X202836928Y-107625000D01*
X201081000Y-107625000D01*
X201081000Y-106502421D01*
X203114085Y-104469336D01*
X203104317Y-104501538D01*
X203092157Y-104625000D01*
X203092157Y-105300000D01*
X203104317Y-105423462D01*
X203140329Y-105542179D01*
X203198810Y-105651589D01*
X203277512Y-105747488D01*
X203368780Y-105822389D01*
X203350518Y-105824188D01*
X203230820Y-105860498D01*
X203120506Y-105919463D01*
X203023815Y-105998815D01*
X202944463Y-106095506D01*
X202885498Y-106205820D01*
X202849188Y-106325518D01*
X202836928Y-106450000D01*
X202840000Y-106751750D01*
X202998750Y-106910500D01*
X204073000Y-106910500D01*
X204073000Y-106890500D01*
X204327000Y-106890500D01*
X204327000Y-106910500D01*
X204347000Y-106910500D01*
X204347000Y-107164500D01*
X204327000Y-107164500D01*
X204327000Y-108101250D01*
X204485750Y-108260000D01*
X204794010Y-108262156D01*
X204794011Y-111644010D01*
X204790958Y-111675010D01*
X204803140Y-111798707D01*
X204839221Y-111917651D01*
X204897814Y-112027270D01*
X204956907Y-112099275D01*
X204956910Y-112099278D01*
X204976668Y-112123353D01*
X205000743Y-112143111D01*
X206319001Y-113461370D01*
X206319002Y-121553001D01*
X206315949Y-121584001D01*
X206328131Y-121707698D01*
X206364212Y-121826642D01*
X206422805Y-121936261D01*
X206481898Y-122008266D01*
X206481901Y-122008269D01*
X206501659Y-122032344D01*
X206525734Y-122052102D01*
X210541148Y-126067516D01*
X210536310Y-126073411D01*
X210477829Y-126182821D01*
X210441817Y-126301538D01*
X210429657Y-126425000D01*
X210429657Y-127375000D01*
X210441817Y-127498462D01*
X210469001Y-127588076D01*
X210469000Y-128964736D01*
X210437304Y-128981678D01*
X210379289Y-129029289D01*
X210331678Y-129087304D01*
X210296299Y-129153492D01*
X210274513Y-129225311D01*
X210267157Y-129300000D01*
X210267157Y-130600000D01*
X210274513Y-130674689D01*
X210296299Y-130746508D01*
X210331678Y-130812696D01*
X210379289Y-130870711D01*
X210437304Y-130918322D01*
X210469001Y-130935265D01*
X210469000Y-132701012D01*
X210465948Y-132732002D01*
X210469000Y-132762992D01*
X210469000Y-132762999D01*
X210478130Y-132855699D01*
X210514211Y-132974643D01*
X210572804Y-133084262D01*
X210651657Y-133180345D01*
X210675737Y-133200107D01*
X212894001Y-135418372D01*
X212894001Y-135999442D01*
X212848411Y-136023810D01*
X212752512Y-136102512D01*
X212673810Y-136198411D01*
X212615329Y-136307821D01*
X212579317Y-136426538D01*
X212567157Y-136549999D01*
X212567157Y-137450001D01*
X212579317Y-137573462D01*
X212615329Y-137692179D01*
X212673810Y-137801589D01*
X212752512Y-137897488D01*
X212848411Y-137976190D01*
X212957821Y-138034671D01*
X213076538Y-138070683D01*
X213199999Y-138082843D01*
X213850001Y-138082843D01*
X213973462Y-138070683D01*
X214092179Y-138034671D01*
X214201589Y-137976190D01*
X214297488Y-137897488D01*
X214376190Y-137801589D01*
X214434671Y-137692179D01*
X214470683Y-137573462D01*
X214482843Y-137450001D01*
X214482843Y-136549999D01*
X214470683Y-136426538D01*
X214434671Y-136307821D01*
X214376190Y-136198411D01*
X214297488Y-136102512D01*
X214201589Y-136023810D01*
X214156000Y-135999442D01*
X214156000Y-135187992D01*
X214159052Y-135157002D01*
X214156000Y-135126011D01*
X214156000Y-135126004D01*
X214146870Y-135033304D01*
X214110789Y-134914360D01*
X214052196Y-134804741D01*
X213973343Y-134708659D01*
X213949268Y-134688901D01*
X211731000Y-132470634D01*
X211731000Y-130935264D01*
X211762696Y-130918322D01*
X211820711Y-130870711D01*
X211868322Y-130812696D01*
X211903701Y-130746508D01*
X211925487Y-130674689D01*
X211932843Y-130600000D01*
X211932843Y-129300000D01*
X211925487Y-129225311D01*
X211903701Y-129153492D01*
X211868322Y-129087304D01*
X211820711Y-129029289D01*
X211762696Y-128981678D01*
X211731000Y-128964736D01*
X211731000Y-128007843D01*
X211737500Y-128007843D01*
X211860962Y-127995683D01*
X211979679Y-127959671D01*
X212089089Y-127901190D01*
X212184988Y-127822488D01*
X212259889Y-127731220D01*
X212261688Y-127749482D01*
X212297998Y-127869180D01*
X212356963Y-127979494D01*
X212436315Y-128076185D01*
X212533006Y-128155537D01*
X212643320Y-128214502D01*
X212763018Y-128250812D01*
X212887500Y-128263072D01*
X213189250Y-128260000D01*
X213348000Y-128101250D01*
X213348000Y-127027000D01*
X213328000Y-127027000D01*
X213328000Y-126773000D01*
X213348000Y-126773000D01*
X213348000Y-126753000D01*
X213602000Y-126753000D01*
X213602000Y-126773000D01*
X213622000Y-126773000D01*
X213622000Y-127027000D01*
X213602000Y-127027000D01*
X213602000Y-128101250D01*
X213760750Y-128260000D01*
X214062500Y-128263072D01*
X214186982Y-128250812D01*
X214306680Y-128214502D01*
X214416994Y-128155537D01*
X214513685Y-128076185D01*
X214593037Y-127979494D01*
X214652002Y-127869180D01*
X214688312Y-127749482D01*
X214700572Y-127625000D01*
X214697500Y-127185750D01*
X214538752Y-127027002D01*
X214582812Y-127027002D01*
X214919002Y-127363192D01*
X214919001Y-138632830D01*
X211043327Y-142508505D01*
X210928176Y-142485600D01*
X210703024Y-142485600D01*
X210482199Y-142529525D01*
X210274187Y-142615687D01*
X210086980Y-142740774D01*
X209927774Y-142899980D01*
X209802687Y-143087187D01*
X209716525Y-143295199D01*
X209672600Y-143516024D01*
X209672600Y-143741176D01*
X209716525Y-143962001D01*
X209802687Y-144170013D01*
X209927774Y-144357220D01*
X210086980Y-144516426D01*
X210274187Y-144641513D01*
X210482199Y-144727675D01*
X210703024Y-144771600D01*
X210928176Y-144771600D01*
X211149001Y-144727675D01*
X211357013Y-144641513D01*
X211544220Y-144516426D01*
X211703426Y-144357220D01*
X211828513Y-144170013D01*
X211914675Y-143962001D01*
X211958600Y-143741176D01*
X211958600Y-143516024D01*
X211935695Y-143400873D01*
X215669011Y-139667558D01*
X215669011Y-140422820D01*
X213583327Y-142508505D01*
X213468176Y-142485600D01*
X213243024Y-142485600D01*
X213022199Y-142529525D01*
X212814187Y-142615687D01*
X212626980Y-142740774D01*
X212467774Y-142899980D01*
X212342687Y-143087187D01*
X212256525Y-143295199D01*
X212212600Y-143516024D01*
X212212600Y-143741176D01*
X212256525Y-143962001D01*
X212342687Y-144170013D01*
X212467774Y-144357220D01*
X212626980Y-144516426D01*
X212814187Y-144641513D01*
X213022199Y-144727675D01*
X213243024Y-144771600D01*
X213468176Y-144771600D01*
X213689001Y-144727675D01*
X213897013Y-144641513D01*
X214084220Y-144516426D01*
X214243426Y-144357220D01*
X214368513Y-144170013D01*
X214454675Y-143962001D01*
X214498600Y-143741176D01*
X214498600Y-143516024D01*
X214475695Y-143400873D01*
X216594001Y-141282568D01*
X216594001Y-145594000D01*
X196999015Y-145594000D01*
X197051185Y-145551185D01*
X197130537Y-145454494D01*
X197189502Y-145344180D01*
X197225812Y-145224482D01*
X197238072Y-145100000D01*
X197235000Y-144685750D01*
X197143415Y-144594165D01*
X204949640Y-144594165D01*
X205016620Y-144834256D01*
X205265648Y-144951356D01*
X205532735Y-145017623D01*
X205807617Y-145030510D01*
X206079733Y-144989522D01*
X206338623Y-144896236D01*
X206454580Y-144834256D01*
X206521560Y-144594165D01*
X205735600Y-143808205D01*
X204949640Y-144594165D01*
X197143415Y-144594165D01*
X197076250Y-144527000D01*
X196152000Y-144527000D01*
X196152000Y-144547000D01*
X195898000Y-144547000D01*
X195898000Y-144527000D01*
X195878000Y-144527000D01*
X195878000Y-144273000D01*
X195898000Y-144273000D01*
X195898000Y-143223750D01*
X196152000Y-143223750D01*
X196152000Y-144273000D01*
X197076250Y-144273000D01*
X197235000Y-144114250D01*
X197238067Y-143700617D01*
X204333690Y-143700617D01*
X204374678Y-143972733D01*
X204467964Y-144231623D01*
X204529944Y-144347580D01*
X204770035Y-144414560D01*
X205555995Y-143628600D01*
X204770035Y-142842640D01*
X204529944Y-142909620D01*
X204412844Y-143158648D01*
X204346577Y-143425735D01*
X204333690Y-143700617D01*
X197238067Y-143700617D01*
X197238072Y-143700000D01*
X197225812Y-143575518D01*
X197189502Y-143455820D01*
X197130537Y-143345506D01*
X197051185Y-143248815D01*
X196954494Y-143169463D01*
X196844180Y-143110498D01*
X196724482Y-143074188D01*
X196600000Y-143061928D01*
X196310750Y-143065000D01*
X196152000Y-143223750D01*
X195898000Y-143223750D01*
X195739250Y-143065000D01*
X195450000Y-143061928D01*
X195325518Y-143074188D01*
X195205820Y-143110498D01*
X195095506Y-143169463D01*
X194998815Y-143248815D01*
X194919463Y-143345506D01*
X194860498Y-143455820D01*
X194824188Y-143575518D01*
X194822389Y-143593780D01*
X194747488Y-143502512D01*
X194651589Y-143423810D01*
X194542179Y-143365329D01*
X194423462Y-143329317D01*
X194300001Y-143317157D01*
X193649999Y-143317157D01*
X193526538Y-143329317D01*
X193407821Y-143365329D01*
X193298411Y-143423810D01*
X193202512Y-143502512D01*
X193123810Y-143598411D01*
X193065329Y-143707821D01*
X193029317Y-143826538D01*
X193022672Y-143894000D01*
X191677328Y-143894000D01*
X191670683Y-143826538D01*
X191634671Y-143707821D01*
X191576190Y-143598411D01*
X191497488Y-143502512D01*
X191401589Y-143423810D01*
X191292179Y-143365329D01*
X191173462Y-143329317D01*
X191050001Y-143317157D01*
X190349999Y-143317157D01*
X190226538Y-143329317D01*
X190107821Y-143365329D01*
X189998411Y-143423810D01*
X189902512Y-143502512D01*
X189823810Y-143598411D01*
X189765329Y-143707821D01*
X189729317Y-143826538D01*
X189717157Y-143949999D01*
X189717157Y-144850001D01*
X189729317Y-144973462D01*
X189765329Y-145092179D01*
X189823810Y-145201589D01*
X189902512Y-145297488D01*
X189998411Y-145376190D01*
X190107821Y-145434671D01*
X190226538Y-145470683D01*
X190349999Y-145482843D01*
X191050001Y-145482843D01*
X191173462Y-145470683D01*
X191292179Y-145434671D01*
X191401589Y-145376190D01*
X191497488Y-145297488D01*
X191576190Y-145201589D01*
X191634671Y-145092179D01*
X191670683Y-144973462D01*
X191677328Y-144906000D01*
X193022672Y-144906000D01*
X193029317Y-144973462D01*
X193065329Y-145092179D01*
X193123810Y-145201589D01*
X193202512Y-145297488D01*
X193298411Y-145376190D01*
X193407821Y-145434671D01*
X193526538Y-145470683D01*
X193649999Y-145482843D01*
X194300001Y-145482843D01*
X194423462Y-145470683D01*
X194542179Y-145434671D01*
X194651589Y-145376190D01*
X194747488Y-145297488D01*
X194822389Y-145206220D01*
X194824188Y-145224482D01*
X194860498Y-145344180D01*
X194919463Y-145454494D01*
X194998815Y-145551185D01*
X195050985Y-145594000D01*
X155127000Y-145594000D01*
X155127000Y-140703400D01*
X167988571Y-140703400D01*
X167988571Y-141296600D01*
X168104299Y-141878401D01*
X168331306Y-142426447D01*
X168660870Y-142919674D01*
X169080326Y-143339130D01*
X169573553Y-143668694D01*
X170121599Y-143895701D01*
X170703400Y-144011429D01*
X171296600Y-144011429D01*
X171878401Y-143895701D01*
X172426447Y-143668694D01*
X172919674Y-143339130D01*
X173339130Y-142919674D01*
X173668694Y-142426447D01*
X173895701Y-141878401D01*
X174011429Y-141296600D01*
X174011429Y-140703400D01*
X173895701Y-140121599D01*
X173668694Y-139573553D01*
X173339130Y-139080326D01*
X172919674Y-138660870D01*
X172426447Y-138331306D01*
X171878401Y-138104299D01*
X171296600Y-137988571D01*
X170703400Y-137988571D01*
X170121599Y-138104299D01*
X169573553Y-138331306D01*
X169080326Y-138660870D01*
X168660870Y-139080326D01*
X168331306Y-139573553D01*
X168104299Y-140121599D01*
X167988571Y-140703400D01*
X155127000Y-140703400D01*
X155127000Y-136564738D01*
X178829000Y-136564738D01*
X178829000Y-136935262D01*
X178901286Y-137298667D01*
X179043080Y-137640987D01*
X179248932Y-137949067D01*
X179510933Y-138211068D01*
X179819013Y-138416920D01*
X180161333Y-138558714D01*
X180524738Y-138631000D01*
X180895262Y-138631000D01*
X181258667Y-138558714D01*
X181600987Y-138416920D01*
X181909067Y-138211068D01*
X182171068Y-137949067D01*
X182376920Y-137640987D01*
X182518714Y-137298667D01*
X182591000Y-136935262D01*
X182591000Y-136564738D01*
X182518714Y-136201333D01*
X182376920Y-135859013D01*
X182171068Y-135550933D01*
X181909067Y-135288932D01*
X181600987Y-135083080D01*
X181258667Y-134941286D01*
X180895262Y-134869000D01*
X180524738Y-134869000D01*
X180161333Y-134941286D01*
X179819013Y-135083080D01*
X179510933Y-135288932D01*
X179248932Y-135550933D01*
X179043080Y-135859013D01*
X178901286Y-136201333D01*
X178829000Y-136564738D01*
X155127000Y-136564738D01*
X155127000Y-128043672D01*
X157518900Y-128043672D01*
X157518900Y-128276328D01*
X157564289Y-128504514D01*
X157653323Y-128719461D01*
X157782580Y-128912907D01*
X157947093Y-129077420D01*
X158140539Y-129206677D01*
X158355486Y-129295711D01*
X158583672Y-129341100D01*
X158816328Y-129341100D01*
X159044514Y-129295711D01*
X159259461Y-129206677D01*
X159452907Y-129077420D01*
X159489327Y-129041000D01*
X161215079Y-129041000D01*
X165039000Y-132864922D01*
X165039000Y-133136017D01*
X165092071Y-133402823D01*
X165196174Y-133654149D01*
X165347307Y-133880336D01*
X165539664Y-134072693D01*
X165765851Y-134223826D01*
X166017177Y-134327929D01*
X166283983Y-134381000D01*
X166556017Y-134381000D01*
X166822823Y-134327929D01*
X167074149Y-134223826D01*
X167300336Y-134072693D01*
X167492693Y-133880336D01*
X167643826Y-133654149D01*
X167747929Y-133402823D01*
X167801000Y-133136017D01*
X167801000Y-132863983D01*
X167747929Y-132597177D01*
X167643826Y-132345851D01*
X167492693Y-132119664D01*
X167300336Y-131927307D01*
X167074149Y-131776174D01*
X166822823Y-131672071D01*
X166556017Y-131619000D01*
X166284922Y-131619000D01*
X162233566Y-127567645D01*
X162205975Y-127534025D01*
X162071825Y-127423932D01*
X161918775Y-127342125D01*
X161752706Y-127291748D01*
X161623273Y-127279000D01*
X161623270Y-127279000D01*
X161580000Y-127274738D01*
X161536730Y-127279000D01*
X159489327Y-127279000D01*
X159452907Y-127242580D01*
X159259461Y-127113323D01*
X159044514Y-127024289D01*
X158816328Y-126978900D01*
X158583672Y-126978900D01*
X158355486Y-127024289D01*
X158140539Y-127113323D01*
X157947093Y-127242580D01*
X157782580Y-127407093D01*
X157653323Y-127600539D01*
X157564289Y-127815486D01*
X157518900Y-128043672D01*
X155127000Y-128043672D01*
X155127000Y-124072774D01*
X157886831Y-124072774D01*
X157958426Y-124316754D01*
X158213954Y-124437664D01*
X158488161Y-124506400D01*
X158770508Y-124520320D01*
X159050147Y-124478889D01*
X159316328Y-124383700D01*
X159441574Y-124316754D01*
X159513169Y-124072774D01*
X158700000Y-123259605D01*
X157886831Y-124072774D01*
X155127000Y-124072774D01*
X155127000Y-123150508D01*
X157259680Y-123150508D01*
X157301111Y-123430147D01*
X157396300Y-123696328D01*
X157463246Y-123821574D01*
X157707226Y-123893169D01*
X158520395Y-123080000D01*
X158879605Y-123080000D01*
X159692774Y-123893169D01*
X159936754Y-123821574D01*
X160057664Y-123566046D01*
X160126400Y-123291839D01*
X160140320Y-123009492D01*
X160098889Y-122729853D01*
X160003700Y-122463672D01*
X159936754Y-122338426D01*
X159692774Y-122266831D01*
X158879605Y-123080000D01*
X158520395Y-123080000D01*
X157707226Y-122266831D01*
X157463246Y-122338426D01*
X157342336Y-122593954D01*
X157273600Y-122868161D01*
X157259680Y-123150508D01*
X155127000Y-123150508D01*
X155127000Y-122087226D01*
X157886831Y-122087226D01*
X158700000Y-122900395D01*
X159513169Y-122087226D01*
X159441574Y-121843246D01*
X159186046Y-121722336D01*
X159136839Y-121710001D01*
X163364737Y-121710001D01*
X163368999Y-121753271D01*
X163369000Y-125706719D01*
X163364737Y-125749999D01*
X163373665Y-125840641D01*
X163381748Y-125922705D01*
X163392074Y-125956746D01*
X163432124Y-126088773D01*
X163513931Y-126241824D01*
X163573338Y-126314211D01*
X163624025Y-126375974D01*
X163657639Y-126403560D01*
X170119000Y-132864922D01*
X170119000Y-133136017D01*
X170172071Y-133402823D01*
X170276174Y-133654149D01*
X170427307Y-133880336D01*
X170619664Y-134072693D01*
X170845851Y-134223826D01*
X171097177Y-134327929D01*
X171363983Y-134381000D01*
X171636017Y-134381000D01*
X171902823Y-134327929D01*
X172154149Y-134223826D01*
X172380336Y-134072693D01*
X172572693Y-133880336D01*
X172723826Y-133654149D01*
X172827929Y-133402823D01*
X172881000Y-133136017D01*
X172881000Y-132863983D01*
X172827929Y-132597177D01*
X172723826Y-132345851D01*
X172572693Y-132119664D01*
X172380336Y-131927307D01*
X172154149Y-131776174D01*
X171902823Y-131672071D01*
X171636017Y-131619000D01*
X171364922Y-131619000D01*
X165130999Y-125385078D01*
X165130999Y-125302843D01*
X167500000Y-125302843D01*
X167574689Y-125295487D01*
X167646508Y-125273701D01*
X167712696Y-125238322D01*
X167770711Y-125190711D01*
X167818322Y-125132696D01*
X167853701Y-125066508D01*
X167875487Y-124994689D01*
X167882843Y-124920000D01*
X167882843Y-122420000D01*
X167875487Y-122345311D01*
X167853701Y-122273492D01*
X167818322Y-122207304D01*
X167770711Y-122149289D01*
X167712696Y-122101678D01*
X167646508Y-122066299D01*
X167574689Y-122044513D01*
X167500000Y-122037157D01*
X165168764Y-122037157D01*
X165902159Y-121303763D01*
X166089360Y-121341000D01*
X166410640Y-121341000D01*
X166725745Y-121278322D01*
X167022568Y-121155374D01*
X167289702Y-120976881D01*
X167516881Y-120749702D01*
X167695374Y-120482568D01*
X167818322Y-120185745D01*
X167881000Y-119870640D01*
X167881000Y-119549360D01*
X167818322Y-119234255D01*
X167700580Y-118950000D01*
X180411928Y-118950000D01*
X180424188Y-119074482D01*
X180460498Y-119194180D01*
X180519463Y-119304494D01*
X180598815Y-119401185D01*
X180695506Y-119480537D01*
X180805820Y-119539502D01*
X180925518Y-119575812D01*
X181050000Y-119588072D01*
X181964250Y-119585000D01*
X182123000Y-119426250D01*
X182123000Y-117877000D01*
X182377000Y-117877000D01*
X182377000Y-119426250D01*
X182535750Y-119585000D01*
X183450000Y-119588072D01*
X183574482Y-119575812D01*
X183694180Y-119539502D01*
X183804494Y-119480537D01*
X183901185Y-119401185D01*
X183980537Y-119304494D01*
X184039502Y-119194180D01*
X184075812Y-119074482D01*
X184088072Y-118950000D01*
X184085000Y-118035750D01*
X183926250Y-117877000D01*
X182377000Y-117877000D01*
X182123000Y-117877000D01*
X180573750Y-117877000D01*
X180415000Y-118035750D01*
X180411928Y-118950000D01*
X167700580Y-118950000D01*
X167695374Y-118937432D01*
X167516881Y-118670298D01*
X167289702Y-118443119D01*
X167022568Y-118264626D01*
X166725745Y-118141678D01*
X166410640Y-118079000D01*
X166089360Y-118079000D01*
X165774255Y-118141678D01*
X165477432Y-118264626D01*
X165210298Y-118443119D01*
X164983119Y-118670298D01*
X164804626Y-118937432D01*
X164681678Y-119234255D01*
X164619000Y-119549360D01*
X164619000Y-119870640D01*
X164656237Y-120057841D01*
X163657643Y-121056436D01*
X163624024Y-121084026D01*
X163551020Y-121172984D01*
X163513931Y-121218176D01*
X163457747Y-121323289D01*
X163432124Y-121371227D01*
X163381747Y-121537296D01*
X163374094Y-121614999D01*
X163364737Y-121710001D01*
X159136839Y-121710001D01*
X158911839Y-121653600D01*
X158629492Y-121639680D01*
X158349853Y-121681111D01*
X158083672Y-121776300D01*
X157958426Y-121843246D01*
X157886831Y-122087226D01*
X155127000Y-122087226D01*
X155127000Y-117822381D01*
X157684000Y-117822381D01*
X157684000Y-118177619D01*
X157753304Y-118526032D01*
X157889248Y-118854230D01*
X158086608Y-119149601D01*
X158337799Y-119400792D01*
X158633170Y-119598152D01*
X158961368Y-119734096D01*
X159309781Y-119803400D01*
X159665019Y-119803400D01*
X160013432Y-119734096D01*
X160341630Y-119598152D01*
X160637001Y-119400792D01*
X160888192Y-119149601D01*
X161085552Y-118854230D01*
X161221496Y-118526032D01*
X161290800Y-118177619D01*
X161290800Y-117822381D01*
X161221496Y-117473968D01*
X161085552Y-117145770D01*
X160888192Y-116850399D01*
X160637001Y-116599208D01*
X160341630Y-116401848D01*
X160013432Y-116265904D01*
X159665019Y-116196600D01*
X159309781Y-116196600D01*
X158961368Y-116265904D01*
X158633170Y-116401848D01*
X158337799Y-116599208D01*
X158086608Y-116850399D01*
X157889248Y-117145770D01*
X157753304Y-117473968D01*
X157684000Y-117822381D01*
X155127000Y-117822381D01*
X155127000Y-113912774D01*
X157886831Y-113912774D01*
X157958426Y-114156754D01*
X158213954Y-114277664D01*
X158488161Y-114346400D01*
X158770508Y-114360320D01*
X159050147Y-114318889D01*
X159316328Y-114223700D01*
X159441574Y-114156754D01*
X159513169Y-113912774D01*
X158700000Y-113099605D01*
X157886831Y-113912774D01*
X155127000Y-113912774D01*
X155127000Y-112990508D01*
X157259680Y-112990508D01*
X157301111Y-113270147D01*
X157396300Y-113536328D01*
X157463246Y-113661574D01*
X157707226Y-113733169D01*
X158520395Y-112920000D01*
X158879605Y-112920000D01*
X159692774Y-113733169D01*
X159936754Y-113661574D01*
X160057664Y-113406046D01*
X160126400Y-113131839D01*
X160140320Y-112849492D01*
X160098889Y-112569853D01*
X160003700Y-112303672D01*
X159936754Y-112178426D01*
X159692774Y-112106831D01*
X158879605Y-112920000D01*
X158520395Y-112920000D01*
X157707226Y-112106831D01*
X157463246Y-112178426D01*
X157342336Y-112433954D01*
X157273600Y-112708161D01*
X157259680Y-112990508D01*
X155127000Y-112990508D01*
X155127000Y-111927226D01*
X157886831Y-111927226D01*
X158700000Y-112740395D01*
X159513169Y-111927226D01*
X159441574Y-111683246D01*
X159186046Y-111562336D01*
X158911839Y-111493600D01*
X158629492Y-111479680D01*
X158349853Y-111521111D01*
X158083672Y-111616300D01*
X157958426Y-111683246D01*
X157886831Y-111927226D01*
X155127000Y-111927226D01*
X155127000Y-110250001D01*
X163364737Y-110250001D01*
X163369000Y-110293281D01*
X163368999Y-113706729D01*
X163364737Y-113749999D01*
X163368999Y-113793269D01*
X163368999Y-113793271D01*
X163381747Y-113922704D01*
X163413464Y-114027259D01*
X163432124Y-114088773D01*
X163513931Y-114241824D01*
X163534890Y-114267362D01*
X163624024Y-114375974D01*
X163657643Y-114403564D01*
X164656237Y-115402159D01*
X164619000Y-115589360D01*
X164619000Y-115910640D01*
X164681678Y-116225745D01*
X164804626Y-116522568D01*
X164983119Y-116789702D01*
X165210298Y-117016881D01*
X165477432Y-117195374D01*
X165774255Y-117318322D01*
X166089360Y-117381000D01*
X166410640Y-117381000D01*
X166725745Y-117318322D01*
X167022568Y-117195374D01*
X167289702Y-117016881D01*
X167516881Y-116789702D01*
X167677044Y-116550000D01*
X180411928Y-116550000D01*
X180415000Y-117464250D01*
X180573750Y-117623000D01*
X182123000Y-117623000D01*
X182123000Y-116073750D01*
X182377000Y-116073750D01*
X182377000Y-117623000D01*
X183926250Y-117623000D01*
X184085000Y-117464250D01*
X184088072Y-116550000D01*
X184075812Y-116425518D01*
X184039502Y-116305820D01*
X183980537Y-116195506D01*
X183901185Y-116098815D01*
X183804494Y-116019463D01*
X183694180Y-115960498D01*
X183574482Y-115924188D01*
X183450000Y-115911928D01*
X182535750Y-115915000D01*
X182377000Y-116073750D01*
X182123000Y-116073750D01*
X181964250Y-115915000D01*
X181050000Y-115911928D01*
X180925518Y-115924188D01*
X180805820Y-115960498D01*
X180695506Y-116019463D01*
X180598815Y-116098815D01*
X180519463Y-116195506D01*
X180460498Y-116305820D01*
X180424188Y-116425518D01*
X180411928Y-116550000D01*
X167677044Y-116550000D01*
X167695374Y-116522568D01*
X167818322Y-116225745D01*
X167881000Y-115910640D01*
X167881000Y-115589360D01*
X167818322Y-115274255D01*
X167695374Y-114977432D01*
X167516881Y-114710298D01*
X167289702Y-114483119D01*
X167022568Y-114304626D01*
X166725745Y-114181678D01*
X166410640Y-114119000D01*
X166089360Y-114119000D01*
X165902159Y-114156237D01*
X165130999Y-113385078D01*
X165130999Y-112977582D01*
X165210298Y-113056881D01*
X165477432Y-113235374D01*
X165774255Y-113358322D01*
X166089360Y-113421000D01*
X166410640Y-113421000D01*
X166725745Y-113358322D01*
X167022568Y-113235374D01*
X167289702Y-113056881D01*
X167516881Y-112829702D01*
X167622922Y-112671000D01*
X182645079Y-112671000D01*
X186369001Y-116394924D01*
X186369001Y-116437212D01*
X186242171Y-116521957D01*
X186021957Y-116742171D01*
X185848936Y-117001116D01*
X185729757Y-117288839D01*
X185669000Y-117594285D01*
X185669000Y-117905715D01*
X185729757Y-118211161D01*
X185848936Y-118498884D01*
X186021957Y-118757829D01*
X186242171Y-118978043D01*
X186501116Y-119151064D01*
X186788839Y-119270243D01*
X187094285Y-119331000D01*
X187405715Y-119331000D01*
X187711161Y-119270243D01*
X187998884Y-119151064D01*
X188257829Y-118978043D01*
X188478043Y-118757829D01*
X188651064Y-118498884D01*
X188770243Y-118211161D01*
X188831000Y-117905715D01*
X188831000Y-117594285D01*
X188770243Y-117288839D01*
X188651064Y-117001116D01*
X188478043Y-116742171D01*
X188257829Y-116521957D01*
X188131000Y-116437213D01*
X188131000Y-116073270D01*
X188135262Y-116030000D01*
X188131000Y-115986727D01*
X188118252Y-115857294D01*
X188067875Y-115691225D01*
X187986068Y-115538175D01*
X187903560Y-115437637D01*
X187903557Y-115437634D01*
X187875975Y-115404025D01*
X187842366Y-115376443D01*
X184255921Y-111790000D01*
X187667361Y-108378561D01*
X187700975Y-108350975D01*
X187755137Y-108284978D01*
X187811068Y-108216826D01*
X187872844Y-108101250D01*
X187892875Y-108063775D01*
X187943252Y-107897706D01*
X187952869Y-107800062D01*
X187997171Y-107717179D01*
X188033183Y-107598462D01*
X188045343Y-107475000D01*
X188045343Y-107275578D01*
X190277931Y-105042991D01*
X190302777Y-105035454D01*
X190534437Y-104911629D01*
X190737489Y-104744989D01*
X190904129Y-104541936D01*
X191027954Y-104310276D01*
X191060000Y-104204635D01*
X191092046Y-104310277D01*
X191215871Y-104541937D01*
X191382512Y-104744989D01*
X191449000Y-104799554D01*
X191449001Y-106611720D01*
X191444738Y-106655000D01*
X191460216Y-106812137D01*
X191461709Y-106827294D01*
X191461749Y-106827705D01*
X191512125Y-106993774D01*
X191593932Y-107146825D01*
X191656287Y-107222804D01*
X191704026Y-107280975D01*
X191704657Y-107281493D01*
X191704657Y-107475000D01*
X191716817Y-107598462D01*
X191752829Y-107717179D01*
X191811310Y-107826589D01*
X191890012Y-107922488D01*
X191985911Y-108001190D01*
X192095321Y-108059671D01*
X192214038Y-108095683D01*
X192337500Y-108107843D01*
X193012500Y-108107843D01*
X193135962Y-108095683D01*
X193254679Y-108059671D01*
X193364089Y-108001190D01*
X193459988Y-107922488D01*
X193534889Y-107831220D01*
X193536688Y-107849482D01*
X193572998Y-107969180D01*
X193631963Y-108079494D01*
X193711315Y-108176185D01*
X193808006Y-108255537D01*
X193918320Y-108314502D01*
X194038018Y-108350812D01*
X194162500Y-108363072D01*
X194464250Y-108360000D01*
X194623000Y-108201250D01*
X194623000Y-107127000D01*
X194877000Y-107127000D01*
X194877000Y-108201250D01*
X195035750Y-108360000D01*
X195337500Y-108363072D01*
X195461982Y-108350812D01*
X195581680Y-108314502D01*
X195691994Y-108255537D01*
X195788685Y-108176185D01*
X195868037Y-108079494D01*
X195927002Y-107969180D01*
X195963312Y-107849482D01*
X195975572Y-107725000D01*
X195972500Y-107285750D01*
X195813750Y-107127000D01*
X194877000Y-107127000D01*
X194623000Y-107127000D01*
X194603000Y-107127000D01*
X194603000Y-106873000D01*
X194623000Y-106873000D01*
X194623000Y-105798750D01*
X194877000Y-105798750D01*
X194877000Y-106873000D01*
X195813750Y-106873000D01*
X195972500Y-106714250D01*
X195975572Y-106275000D01*
X195963312Y-106150518D01*
X195927002Y-106030820D01*
X195868037Y-105920506D01*
X195788685Y-105823815D01*
X195691994Y-105744463D01*
X195581680Y-105685498D01*
X195461982Y-105649188D01*
X195337500Y-105636928D01*
X195035750Y-105640000D01*
X194877000Y-105798750D01*
X194623000Y-105798750D01*
X194464250Y-105640000D01*
X194162500Y-105636928D01*
X194038018Y-105649188D01*
X193918320Y-105685498D01*
X193808006Y-105744463D01*
X193711315Y-105823815D01*
X193631963Y-105920506D01*
X193572998Y-106030820D01*
X193536688Y-106150518D01*
X193534889Y-106168780D01*
X193459988Y-106077512D01*
X193364089Y-105998810D01*
X193254679Y-105940329D01*
X193211000Y-105927079D01*
X193211000Y-104799555D01*
X193277489Y-104744989D01*
X193371037Y-104631000D01*
X197576732Y-104631000D01*
X197620002Y-104635262D01*
X197663272Y-104631000D01*
X197663275Y-104631000D01*
X197792708Y-104618252D01*
X197958777Y-104567875D01*
X198111827Y-104486068D01*
X198245977Y-104375975D01*
X198273568Y-104342355D01*
X202839992Y-99775932D01*
X202840000Y-99776750D01*
X202998750Y-99935500D01*
X204073000Y-99935500D01*
X204073000Y-98998750D01*
X204327000Y-98998750D01*
X204327000Y-99935500D01*
X205401250Y-99935500D01*
X205560000Y-99776750D01*
X205563072Y-99475000D01*
X205550812Y-99350518D01*
X205514502Y-99230820D01*
X205455537Y-99120506D01*
X205376185Y-99023815D01*
X205279494Y-98944463D01*
X205169180Y-98885498D01*
X205049482Y-98849188D01*
X204925000Y-98836928D01*
X204485750Y-98840000D01*
X204327000Y-98998750D01*
X204073000Y-98998750D01*
X203914250Y-98840000D01*
X203776885Y-98839039D01*
X204108081Y-98507843D01*
X204675000Y-98507843D01*
X204798462Y-98495683D01*
X204917179Y-98459671D01*
X204994204Y-98418500D01*
X207337458Y-98418500D01*
X207375340Y-98464660D01*
X207562784Y-98618491D01*
X207776637Y-98732798D01*
X208008682Y-98803188D01*
X208189528Y-98821000D01*
X208810472Y-98821000D01*
X208991318Y-98803188D01*
X209223363Y-98732798D01*
X209437216Y-98618491D01*
X209624660Y-98464660D01*
X209778491Y-98277216D01*
X209892798Y-98063363D01*
X209963188Y-97831318D01*
X209986956Y-97590000D01*
X209963188Y-97348682D01*
X209892798Y-97116637D01*
X209778491Y-96902784D01*
X209624660Y-96715340D01*
X209437216Y-96561509D01*
X209239933Y-96456059D01*
X209423777Y-96384911D01*
X209671259Y-96227814D01*
X209883337Y-96025454D01*
X210051862Y-95785608D01*
X210170357Y-95517493D01*
X210191476Y-95406890D01*
X210070155Y-95177000D01*
X208627000Y-95177000D01*
X208627000Y-95197000D01*
X208373000Y-95197000D01*
X208373000Y-95177000D01*
X206929845Y-95177000D01*
X206808524Y-95406890D01*
X206829643Y-95517493D01*
X206948138Y-95785608D01*
X207116663Y-96025454D01*
X207328741Y-96227814D01*
X207576223Y-96384911D01*
X207760067Y-96456059D01*
X207562784Y-96561509D01*
X207447037Y-96656500D01*
X205113145Y-96656500D01*
X205169180Y-96639502D01*
X205279494Y-96580537D01*
X205376185Y-96501185D01*
X205455537Y-96404494D01*
X205514502Y-96294180D01*
X205550812Y-96174482D01*
X205563072Y-96050000D01*
X205560000Y-95748250D01*
X205401250Y-95589500D01*
X204327000Y-95589500D01*
X204327000Y-95609500D01*
X204073000Y-95609500D01*
X204073000Y-95589500D01*
X202998750Y-95589500D01*
X202840000Y-95748250D01*
X202836928Y-96050000D01*
X202849188Y-96174482D01*
X202885498Y-96294180D01*
X202944463Y-96404494D01*
X203023815Y-96501185D01*
X203120506Y-96580537D01*
X203230820Y-96639502D01*
X203350518Y-96675812D01*
X203368780Y-96677611D01*
X203277512Y-96752512D01*
X203198810Y-96848411D01*
X203140329Y-96957821D01*
X203129038Y-96995042D01*
X200666576Y-99457505D01*
X200671000Y-99435262D01*
X200671000Y-99064738D01*
X200598714Y-98701333D01*
X200456920Y-98359013D01*
X200251068Y-98050933D01*
X199989067Y-97788932D01*
X199680987Y-97583080D01*
X199338667Y-97441286D01*
X198975262Y-97369000D01*
X198604738Y-97369000D01*
X198241333Y-97441286D01*
X197899013Y-97583080D01*
X197590933Y-97788932D01*
X197328932Y-98050933D01*
X197123080Y-98359013D01*
X196981286Y-98701333D01*
X196909000Y-99064738D01*
X196909000Y-99435262D01*
X196981286Y-99798667D01*
X197123080Y-100140987D01*
X197328932Y-100449067D01*
X197590933Y-100711068D01*
X197899013Y-100916920D01*
X198241333Y-101058714D01*
X198604738Y-101131000D01*
X198975262Y-101131000D01*
X198997505Y-101126576D01*
X197255081Y-102869000D01*
X193926591Y-102869000D01*
X196365220Y-100430372D01*
X196384527Y-100414527D01*
X196447759Y-100337479D01*
X196494745Y-100249575D01*
X196523678Y-100154193D01*
X196531000Y-100079854D01*
X196531000Y-100079847D01*
X196533447Y-100055001D01*
X196531000Y-100030155D01*
X196531000Y-94875000D01*
X202836928Y-94875000D01*
X202840000Y-95176750D01*
X202998750Y-95335500D01*
X204073000Y-95335500D01*
X204073000Y-94398750D01*
X204327000Y-94398750D01*
X204327000Y-95335500D01*
X205401250Y-95335500D01*
X205560000Y-95176750D01*
X205563072Y-94875000D01*
X205550812Y-94750518D01*
X205533398Y-94693110D01*
X206808524Y-94693110D01*
X206929845Y-94923000D01*
X208373000Y-94923000D01*
X208373000Y-93718504D01*
X208627000Y-93718504D01*
X208627000Y-94923000D01*
X210070155Y-94923000D01*
X210191476Y-94693110D01*
X210170357Y-94582507D01*
X210051862Y-94314392D01*
X209883337Y-94074546D01*
X209671259Y-93872186D01*
X209423777Y-93715089D01*
X209150402Y-93609292D01*
X208861640Y-93558860D01*
X208627000Y-93718504D01*
X208373000Y-93718504D01*
X208138360Y-93558860D01*
X207849598Y-93609292D01*
X207576223Y-93715089D01*
X207328741Y-93872186D01*
X207116663Y-94074546D01*
X206948138Y-94314392D01*
X206829643Y-94582507D01*
X206808524Y-94693110D01*
X205533398Y-94693110D01*
X205514502Y-94630820D01*
X205455537Y-94520506D01*
X205376185Y-94423815D01*
X205279494Y-94344463D01*
X205169180Y-94285498D01*
X205049482Y-94249188D01*
X204925000Y-94236928D01*
X204485750Y-94240000D01*
X204327000Y-94398750D01*
X204073000Y-94398750D01*
X203914250Y-94240000D01*
X203475000Y-94236928D01*
X203350518Y-94249188D01*
X203230820Y-94285498D01*
X203120506Y-94344463D01*
X203023815Y-94423815D01*
X202944463Y-94520506D01*
X202885498Y-94630820D01*
X202849188Y-94750518D01*
X202836928Y-94875000D01*
X196531000Y-94875000D01*
X196531000Y-92753229D01*
X196592179Y-92734671D01*
X196701589Y-92676190D01*
X196797488Y-92597488D01*
X196876190Y-92501589D01*
X196934671Y-92392179D01*
X196970683Y-92273462D01*
X196982843Y-92150001D01*
X196982843Y-91249999D01*
X196970683Y-91126538D01*
X196934671Y-91007821D01*
X196876190Y-90898411D01*
X196797488Y-90802512D01*
X196701589Y-90723810D01*
X196592179Y-90665329D01*
X196473462Y-90629317D01*
X196350001Y-90617157D01*
X195699999Y-90617157D01*
X195576538Y-90629317D01*
X195457821Y-90665329D01*
X195348411Y-90723810D01*
X195252512Y-90802512D01*
X195173810Y-90898411D01*
X195115329Y-91007821D01*
X195079317Y-91126538D01*
X195067157Y-91249999D01*
X195067157Y-92150001D01*
X195079317Y-92273462D01*
X195115329Y-92392179D01*
X195173810Y-92501589D01*
X195252512Y-92597488D01*
X195348411Y-92676190D01*
X195457821Y-92734671D01*
X195519000Y-92753229D01*
X195519001Y-99845407D01*
X192879978Y-102484431D01*
X192842776Y-102464546D01*
X192591411Y-102388295D01*
X192330000Y-102362548D01*
X192068588Y-102388295D01*
X191817223Y-102464546D01*
X191585563Y-102588371D01*
X191382511Y-102755011D01*
X191215871Y-102958064D01*
X191092046Y-103189724D01*
X191060000Y-103295365D01*
X191027954Y-103189723D01*
X190904129Y-102958063D01*
X190737489Y-102755011D01*
X190534436Y-102588371D01*
X190302776Y-102464546D01*
X190051411Y-102388295D01*
X189790000Y-102362548D01*
X189528588Y-102388295D01*
X189277223Y-102464546D01*
X189045563Y-102588371D01*
X188842511Y-102755011D01*
X188840540Y-102757413D01*
X188840572Y-102750000D01*
X188828312Y-102625518D01*
X188792002Y-102505820D01*
X188733037Y-102395506D01*
X188653685Y-102298815D01*
X188556994Y-102219463D01*
X188446680Y-102160498D01*
X188326982Y-102124188D01*
X188202500Y-102111928D01*
X187535750Y-102115000D01*
X187377000Y-102273750D01*
X187377000Y-103623000D01*
X187397000Y-103623000D01*
X187397000Y-103877000D01*
X187377000Y-103877000D01*
X187377000Y-105226250D01*
X187489914Y-105339164D01*
X186936922Y-105892157D01*
X186737500Y-105892157D01*
X186614038Y-105904317D01*
X186495321Y-105940329D01*
X186385911Y-105998810D01*
X186290012Y-106077512D01*
X186215111Y-106168780D01*
X186213312Y-106150518D01*
X186177002Y-106030820D01*
X186118037Y-105920506D01*
X186038685Y-105823815D01*
X185941994Y-105744463D01*
X185831680Y-105685498D01*
X185711982Y-105649188D01*
X185587500Y-105636928D01*
X185285750Y-105640000D01*
X185127000Y-105798750D01*
X185127000Y-106873000D01*
X185147000Y-106873000D01*
X185147000Y-107127000D01*
X185127000Y-107127000D01*
X185127000Y-108201250D01*
X185239914Y-108314164D01*
X182645079Y-110909000D01*
X167622922Y-110909000D01*
X167516881Y-110750298D01*
X167289702Y-110523119D01*
X167022568Y-110344626D01*
X166725745Y-110221678D01*
X166410640Y-110159000D01*
X166089360Y-110159000D01*
X165774255Y-110221678D01*
X165477432Y-110344626D01*
X165247981Y-110497940D01*
X168020921Y-107725000D01*
X183774428Y-107725000D01*
X183786688Y-107849482D01*
X183822998Y-107969180D01*
X183881963Y-108079494D01*
X183961315Y-108176185D01*
X184058006Y-108255537D01*
X184168320Y-108314502D01*
X184288018Y-108350812D01*
X184412500Y-108363072D01*
X184714250Y-108360000D01*
X184873000Y-108201250D01*
X184873000Y-107127000D01*
X183936250Y-107127000D01*
X183777500Y-107285750D01*
X183774428Y-107725000D01*
X168020921Y-107725000D01*
X169470921Y-106275000D01*
X183774428Y-106275000D01*
X183777500Y-106714250D01*
X183936250Y-106873000D01*
X184873000Y-106873000D01*
X184873000Y-105798750D01*
X184714250Y-105640000D01*
X184412500Y-105636928D01*
X184288018Y-105649188D01*
X184168320Y-105685498D01*
X184058006Y-105744463D01*
X183961315Y-105823815D01*
X183881963Y-105920506D01*
X183822998Y-106030820D01*
X183786688Y-106150518D01*
X183774428Y-106275000D01*
X169470921Y-106275000D01*
X170995921Y-104750000D01*
X185659428Y-104750000D01*
X185671688Y-104874482D01*
X185707998Y-104994180D01*
X185766963Y-105104494D01*
X185846315Y-105201185D01*
X185943006Y-105280537D01*
X186053320Y-105339502D01*
X186173018Y-105375812D01*
X186297500Y-105388072D01*
X186964250Y-105385000D01*
X187123000Y-105226250D01*
X187123000Y-103877000D01*
X185821250Y-103877000D01*
X185662500Y-104035750D01*
X185659428Y-104750000D01*
X170995921Y-104750000D01*
X171364922Y-104381000D01*
X171636017Y-104381000D01*
X171902823Y-104327929D01*
X172154149Y-104223826D01*
X172380336Y-104072693D01*
X172572693Y-103880336D01*
X172723826Y-103654149D01*
X172827929Y-103402823D01*
X172881000Y-103136017D01*
X172881000Y-102863983D01*
X172858328Y-102750000D01*
X185659428Y-102750000D01*
X185662500Y-103464250D01*
X185821250Y-103623000D01*
X187123000Y-103623000D01*
X187123000Y-102273750D01*
X186964250Y-102115000D01*
X186297500Y-102111928D01*
X186173018Y-102124188D01*
X186053320Y-102160498D01*
X185943006Y-102219463D01*
X185846315Y-102298815D01*
X185766963Y-102395506D01*
X185707998Y-102505820D01*
X185671688Y-102625518D01*
X185659428Y-102750000D01*
X172858328Y-102750000D01*
X172827929Y-102597177D01*
X172723826Y-102345851D01*
X172572693Y-102119664D01*
X172380336Y-101927307D01*
X172154149Y-101776174D01*
X171902823Y-101672071D01*
X171636017Y-101619000D01*
X171363983Y-101619000D01*
X171097177Y-101672071D01*
X170845851Y-101776174D01*
X170619664Y-101927307D01*
X170427307Y-102119664D01*
X170276174Y-102345851D01*
X170172071Y-102597177D01*
X170119000Y-102863983D01*
X170119000Y-103135078D01*
X163657639Y-109596440D01*
X163624025Y-109624026D01*
X163596440Y-109657639D01*
X163513931Y-109758176D01*
X163432124Y-109911227D01*
X163381748Y-110077296D01*
X163364737Y-110250001D01*
X155127000Y-110250001D01*
X155127000Y-107723672D01*
X157518900Y-107723672D01*
X157518900Y-107956328D01*
X157564289Y-108184514D01*
X157653323Y-108399461D01*
X157782580Y-108592907D01*
X157947093Y-108757420D01*
X158140539Y-108886677D01*
X158355486Y-108975711D01*
X158583672Y-109021100D01*
X158816328Y-109021100D01*
X159044514Y-108975711D01*
X159259461Y-108886677D01*
X159452907Y-108757420D01*
X159617420Y-108592907D01*
X159746677Y-108399461D01*
X159835711Y-108184514D01*
X159881100Y-107956328D01*
X159881100Y-107904821D01*
X163904922Y-103881000D01*
X165347971Y-103881000D01*
X165539664Y-104072693D01*
X165765851Y-104223826D01*
X166017177Y-104327929D01*
X166283983Y-104381000D01*
X166556017Y-104381000D01*
X166822823Y-104327929D01*
X167074149Y-104223826D01*
X167300336Y-104072693D01*
X167492693Y-103880336D01*
X167643826Y-103654149D01*
X167747929Y-103402823D01*
X167801000Y-103136017D01*
X167801000Y-102863983D01*
X167747929Y-102597177D01*
X167643826Y-102345851D01*
X167492693Y-102119664D01*
X167300336Y-101927307D01*
X167074149Y-101776174D01*
X166822823Y-101672071D01*
X166556017Y-101619000D01*
X166283983Y-101619000D01*
X166017177Y-101672071D01*
X165765851Y-101776174D01*
X165539664Y-101927307D01*
X165347971Y-102119000D01*
X163583270Y-102119000D01*
X163540000Y-102114738D01*
X163496730Y-102119000D01*
X163496727Y-102119000D01*
X163367294Y-102131748D01*
X163201225Y-102182125D01*
X163048174Y-102263932D01*
X162991789Y-102310206D01*
X162914025Y-102374025D01*
X162886439Y-102407639D01*
X158635179Y-106658900D01*
X158583672Y-106658900D01*
X158355486Y-106704289D01*
X158140539Y-106793323D01*
X157947093Y-106922580D01*
X157782580Y-107087093D01*
X157653323Y-107280539D01*
X157564289Y-107495486D01*
X157518900Y-107723672D01*
X155127000Y-107723672D01*
X155127000Y-99064738D01*
X178909000Y-99064738D01*
X178909000Y-99435262D01*
X178981286Y-99798667D01*
X179123080Y-100140987D01*
X179328932Y-100449067D01*
X179590933Y-100711068D01*
X179899013Y-100916920D01*
X180241333Y-101058714D01*
X180604738Y-101131000D01*
X180975262Y-101131000D01*
X181338667Y-101058714D01*
X181680987Y-100916920D01*
X181989067Y-100711068D01*
X182251068Y-100449067D01*
X182456920Y-100140987D01*
X182598714Y-99798667D01*
X182671000Y-99435262D01*
X182671000Y-99064738D01*
X182598714Y-98701333D01*
X182456920Y-98359013D01*
X182251068Y-98050933D01*
X181989067Y-97788932D01*
X181680987Y-97583080D01*
X181338667Y-97441286D01*
X180975262Y-97369000D01*
X180604738Y-97369000D01*
X180241333Y-97441286D01*
X179899013Y-97583080D01*
X179590933Y-97788932D01*
X179328932Y-98050933D01*
X179123080Y-98359013D01*
X178981286Y-98701333D01*
X178909000Y-99064738D01*
X155127000Y-99064738D01*
X155127000Y-94703400D01*
X167988571Y-94703400D01*
X167988571Y-95296600D01*
X168104299Y-95878401D01*
X168331306Y-96426447D01*
X168660870Y-96919674D01*
X169080326Y-97339130D01*
X169573553Y-97668694D01*
X170121599Y-97895701D01*
X170703400Y-98011429D01*
X171296600Y-98011429D01*
X171878401Y-97895701D01*
X172426447Y-97668694D01*
X172919674Y-97339130D01*
X173339130Y-96919674D01*
X173668694Y-96426447D01*
X173895701Y-95878401D01*
X174011429Y-95296600D01*
X174011429Y-94703400D01*
X173895701Y-94121599D01*
X173668694Y-93573553D01*
X173339130Y-93080326D01*
X172919674Y-92660870D01*
X172604085Y-92450000D01*
X182161928Y-92450000D01*
X182174188Y-92574482D01*
X182210498Y-92694180D01*
X182269463Y-92804494D01*
X182348815Y-92901185D01*
X182445506Y-92980537D01*
X182555820Y-93039502D01*
X182675518Y-93075812D01*
X182800000Y-93088072D01*
X183089250Y-93085000D01*
X183248000Y-92926250D01*
X183248000Y-91877000D01*
X182323750Y-91877000D01*
X182165000Y-92035750D01*
X182161928Y-92450000D01*
X172604085Y-92450000D01*
X172426447Y-92331306D01*
X171878401Y-92104299D01*
X171296600Y-91988571D01*
X170703400Y-91988571D01*
X170121599Y-92104299D01*
X169573553Y-92331306D01*
X169080326Y-92660870D01*
X168660870Y-93080326D01*
X168331306Y-93573553D01*
X168104299Y-94121599D01*
X167988571Y-94703400D01*
X155127000Y-94703400D01*
X155127000Y-91050000D01*
X182161928Y-91050000D01*
X182165000Y-91464250D01*
X182323750Y-91623000D01*
X183248000Y-91623000D01*
X183248000Y-90573750D01*
X183502000Y-90573750D01*
X183502000Y-91623000D01*
X183522000Y-91623000D01*
X183522000Y-91877000D01*
X183502000Y-91877000D01*
X183502000Y-92926250D01*
X183660750Y-93085000D01*
X183950000Y-93088072D01*
X184074482Y-93075812D01*
X184194180Y-93039502D01*
X184304494Y-92980537D01*
X184401185Y-92901185D01*
X184480537Y-92804494D01*
X184539502Y-92694180D01*
X184575812Y-92574482D01*
X184577611Y-92556220D01*
X184652512Y-92647488D01*
X184748411Y-92726190D01*
X184857821Y-92784671D01*
X184976538Y-92820683D01*
X185099999Y-92832843D01*
X185750001Y-92832843D01*
X185873462Y-92820683D01*
X185992179Y-92784671D01*
X186101589Y-92726190D01*
X186197488Y-92647488D01*
X186276190Y-92551589D01*
X186334671Y-92442179D01*
X186370683Y-92323462D01*
X186382843Y-92200001D01*
X186382843Y-91956000D01*
X187817157Y-91956000D01*
X187817157Y-92150001D01*
X187829317Y-92273462D01*
X187865329Y-92392179D01*
X187923810Y-92501589D01*
X188002512Y-92597488D01*
X188098411Y-92676190D01*
X188207821Y-92734671D01*
X188326538Y-92770683D01*
X188449999Y-92782843D01*
X189150001Y-92782843D01*
X189273462Y-92770683D01*
X189392179Y-92734671D01*
X189501589Y-92676190D01*
X189597488Y-92597488D01*
X189676190Y-92501589D01*
X189734671Y-92392179D01*
X189770683Y-92273462D01*
X189782843Y-92150001D01*
X189782843Y-91249999D01*
X189817157Y-91249999D01*
X189817157Y-92150001D01*
X189829317Y-92273462D01*
X189865329Y-92392179D01*
X189923810Y-92501589D01*
X190002512Y-92597488D01*
X190098411Y-92676190D01*
X190207821Y-92734671D01*
X190326538Y-92770683D01*
X190449999Y-92782843D01*
X191150001Y-92782843D01*
X191273462Y-92770683D01*
X191392179Y-92734671D01*
X191501589Y-92676190D01*
X191597488Y-92597488D01*
X191676190Y-92501589D01*
X191734671Y-92392179D01*
X191770683Y-92273462D01*
X191782843Y-92150001D01*
X191782843Y-91956000D01*
X193017157Y-91956000D01*
X193017157Y-92150001D01*
X193029317Y-92273462D01*
X193065329Y-92392179D01*
X193123810Y-92501589D01*
X193202512Y-92597488D01*
X193298411Y-92676190D01*
X193407821Y-92734671D01*
X193526538Y-92770683D01*
X193649999Y-92782843D01*
X194300001Y-92782843D01*
X194423462Y-92770683D01*
X194542179Y-92734671D01*
X194651589Y-92676190D01*
X194747488Y-92597488D01*
X194826190Y-92501589D01*
X194884671Y-92392179D01*
X194920683Y-92273462D01*
X194932843Y-92150001D01*
X194932843Y-91249999D01*
X194920683Y-91126538D01*
X194884671Y-91007821D01*
X194826190Y-90898411D01*
X194747488Y-90802512D01*
X194651589Y-90723810D01*
X194542179Y-90665329D01*
X194423462Y-90629317D01*
X194300001Y-90617157D01*
X193649999Y-90617157D01*
X193526538Y-90629317D01*
X193407821Y-90665329D01*
X193298411Y-90723810D01*
X193202512Y-90802512D01*
X193123810Y-90898411D01*
X193099442Y-90944000D01*
X191700558Y-90944000D01*
X191676190Y-90898411D01*
X191597488Y-90802512D01*
X191501589Y-90723810D01*
X191392179Y-90665329D01*
X191273462Y-90629317D01*
X191150001Y-90617157D01*
X190449999Y-90617157D01*
X190326538Y-90629317D01*
X190207821Y-90665329D01*
X190098411Y-90723810D01*
X190002512Y-90802512D01*
X189923810Y-90898411D01*
X189865329Y-91007821D01*
X189829317Y-91126538D01*
X189817157Y-91249999D01*
X189782843Y-91249999D01*
X189770683Y-91126538D01*
X189734671Y-91007821D01*
X189676190Y-90898411D01*
X189597488Y-90802512D01*
X189501589Y-90723810D01*
X189392179Y-90665329D01*
X189273462Y-90629317D01*
X189150001Y-90617157D01*
X188449999Y-90617157D01*
X188326538Y-90629317D01*
X188207821Y-90665329D01*
X188098411Y-90723810D01*
X188002512Y-90802512D01*
X187923810Y-90898411D01*
X187899442Y-90944000D01*
X186272570Y-90944000D01*
X186197488Y-90852512D01*
X186101589Y-90773810D01*
X185992179Y-90715329D01*
X185873462Y-90679317D01*
X185750001Y-90667157D01*
X185099999Y-90667157D01*
X184976538Y-90679317D01*
X184857821Y-90715329D01*
X184748411Y-90773810D01*
X184652512Y-90852512D01*
X184577611Y-90943780D01*
X184575812Y-90925518D01*
X184539502Y-90805820D01*
X184480537Y-90695506D01*
X184401185Y-90598815D01*
X184304494Y-90519463D01*
X184194180Y-90460498D01*
X184074482Y-90424188D01*
X183950000Y-90411928D01*
X183660750Y-90415000D01*
X183502000Y-90573750D01*
X183248000Y-90573750D01*
X183089250Y-90415000D01*
X182800000Y-90411928D01*
X182675518Y-90424188D01*
X182555820Y-90460498D01*
X182445506Y-90519463D01*
X182348815Y-90598815D01*
X182269463Y-90695506D01*
X182210498Y-90805820D01*
X182174188Y-90925518D01*
X182161928Y-91050000D01*
X155127000Y-91050000D01*
X155127000Y-90406000D01*
X216594000Y-90406000D01*
X216594001Y-125864132D01*
G04 #@! TA.AperFunction,Conductor*
D32*
G36*
X216594001Y-125864132D02*
G01*
X214507843Y-123777975D01*
X214507843Y-123225000D01*
X214495683Y-123101538D01*
X214459671Y-122982821D01*
X214401190Y-122873411D01*
X214322488Y-122777512D01*
X214226589Y-122698810D01*
X214168500Y-122667761D01*
X214168500Y-120555843D01*
X214171552Y-120524853D01*
X214168500Y-120493862D01*
X214168500Y-120493855D01*
X214159370Y-120401155D01*
X214123289Y-120282211D01*
X214064696Y-120172592D01*
X213985843Y-120076510D01*
X213961768Y-120056752D01*
X212227694Y-118322678D01*
X212664193Y-118409503D01*
X213335807Y-118409503D01*
X213994515Y-118278478D01*
X214615005Y-118021462D01*
X215173431Y-117648334D01*
X215648334Y-117173431D01*
X216021462Y-116615005D01*
X216278478Y-115994515D01*
X216409503Y-115335807D01*
X216409503Y-114664193D01*
X216278478Y-114005485D01*
X216021462Y-113384995D01*
X215648334Y-112826569D01*
X215173431Y-112351666D01*
X214615005Y-111978538D01*
X213994515Y-111721522D01*
X213335807Y-111590497D01*
X212664193Y-111590497D01*
X212005485Y-111721522D01*
X211384995Y-111978538D01*
X210826569Y-112351666D01*
X210731001Y-112447234D01*
X210731001Y-106430999D01*
X210734054Y-106400001D01*
X210721871Y-106276303D01*
X210685790Y-106157359D01*
X210627197Y-106047740D01*
X210568104Y-105975735D01*
X210568102Y-105975733D01*
X210548344Y-105951658D01*
X210524269Y-105931900D01*
X209970406Y-105378037D01*
X209986956Y-105210000D01*
X209963188Y-104968682D01*
X209892798Y-104736637D01*
X209778491Y-104522784D01*
X209624660Y-104335340D01*
X209437216Y-104181509D01*
X209223363Y-104067202D01*
X208991318Y-103996812D01*
X208810472Y-103979000D01*
X208189528Y-103979000D01*
X208071770Y-103990598D01*
X208163893Y-103898475D01*
X208189528Y-103901000D01*
X208810472Y-103901000D01*
X208991318Y-103883188D01*
X209223363Y-103812798D01*
X209437216Y-103698491D01*
X209624660Y-103544660D01*
X209778491Y-103357216D01*
X209892798Y-103143363D01*
X209963188Y-102911318D01*
X209986956Y-102670000D01*
X209963188Y-102428682D01*
X209892798Y-102196637D01*
X209778491Y-101982784D01*
X209624660Y-101795340D01*
X209437216Y-101641509D01*
X209223363Y-101527202D01*
X208991318Y-101456812D01*
X208810472Y-101439000D01*
X208436922Y-101439000D01*
X208514922Y-101361000D01*
X208810472Y-101361000D01*
X208991318Y-101343188D01*
X209223363Y-101272798D01*
X209437216Y-101158491D01*
X209624660Y-101004660D01*
X209778491Y-100817216D01*
X209892798Y-100603363D01*
X209963188Y-100371318D01*
X209986956Y-100130000D01*
X209963188Y-99888682D01*
X209892798Y-99656637D01*
X209778491Y-99442784D01*
X209624660Y-99255340D01*
X209437216Y-99101509D01*
X209223363Y-98987202D01*
X208991318Y-98916812D01*
X208810472Y-98899000D01*
X208189528Y-98899000D01*
X208008682Y-98916812D01*
X207776637Y-98987202D01*
X207562784Y-99101509D01*
X207375340Y-99255340D01*
X207221509Y-99442784D01*
X207107202Y-99656637D01*
X207036812Y-99888682D01*
X207013044Y-100130000D01*
X207034656Y-100349423D01*
X206127579Y-101256500D01*
X205113145Y-101256500D01*
X205169180Y-101239502D01*
X205279494Y-101180537D01*
X205376185Y-101101185D01*
X205455537Y-101004494D01*
X205514502Y-100894180D01*
X205550812Y-100774482D01*
X205563072Y-100650000D01*
X205560000Y-100348250D01*
X205401250Y-100189500D01*
X204327000Y-100189500D01*
X204327000Y-100209500D01*
X204073000Y-100209500D01*
X204073000Y-100189500D01*
X202998750Y-100189500D01*
X202840000Y-100348250D01*
X202836928Y-100650000D01*
X202849188Y-100774482D01*
X202885498Y-100894180D01*
X202944463Y-101004494D01*
X203023815Y-101101185D01*
X203120506Y-101180537D01*
X203230820Y-101239502D01*
X203350518Y-101275812D01*
X203368780Y-101277611D01*
X203277512Y-101352512D01*
X203198810Y-101448411D01*
X203140329Y-101557821D01*
X203104317Y-101676538D01*
X203092157Y-101800000D01*
X203092157Y-101999421D01*
X199607640Y-105483939D01*
X199574026Y-105511525D01*
X199546441Y-105545138D01*
X199463932Y-105645675D01*
X199382125Y-105798726D01*
X199363387Y-105860498D01*
X199339171Y-105940329D01*
X199331749Y-105964795D01*
X199314738Y-106137500D01*
X199319001Y-106180780D01*
X199319000Y-111185076D01*
X197482641Y-113021436D01*
X197482636Y-113021440D01*
X184332640Y-126171437D01*
X184299026Y-126199023D01*
X184257085Y-126250129D01*
X184188932Y-126333173D01*
X184107125Y-126486224D01*
X184079246Y-126578130D01*
X184061916Y-126635261D01*
X184056749Y-126652293D01*
X184039738Y-126824998D01*
X184044001Y-126868278D01*
X184044000Y-127905795D01*
X184002829Y-127982821D01*
X183966817Y-128101538D01*
X183954657Y-128225000D01*
X183954657Y-129175000D01*
X183966817Y-129298462D01*
X184002829Y-129417179D01*
X184044000Y-129494205D01*
X184044000Y-129961729D01*
X184039738Y-130005000D01*
X184044000Y-130048270D01*
X184044000Y-130048272D01*
X184056748Y-130177705D01*
X184094532Y-130302260D01*
X184107125Y-130343774D01*
X184188932Y-130496825D01*
X184220909Y-130535789D01*
X184299025Y-130630975D01*
X184332645Y-130658566D01*
X185836500Y-132162422D01*
X185836500Y-132363007D01*
X185855795Y-132558911D01*
X185923222Y-132781186D01*
X183034781Y-135669628D01*
X183015474Y-135685473D01*
X182952242Y-135762521D01*
X182943502Y-135778872D01*
X182905255Y-135850426D01*
X182876322Y-135945808D01*
X182866553Y-136045000D01*
X182869001Y-136069856D01*
X182869000Y-143346771D01*
X182807821Y-143365329D01*
X182698411Y-143423810D01*
X182602512Y-143502512D01*
X182523810Y-143598411D01*
X182465329Y-143707821D01*
X182429317Y-143826538D01*
X182417157Y-143949999D01*
X182417157Y-144850001D01*
X182429317Y-144973462D01*
X182465329Y-145092179D01*
X182523810Y-145201589D01*
X182602512Y-145297488D01*
X182698411Y-145376190D01*
X182807821Y-145434671D01*
X182926538Y-145470683D01*
X183049999Y-145482843D01*
X183700001Y-145482843D01*
X183823462Y-145470683D01*
X183942179Y-145434671D01*
X184051589Y-145376190D01*
X184147488Y-145297488D01*
X184226190Y-145201589D01*
X184284671Y-145092179D01*
X184320683Y-144973462D01*
X184332843Y-144850001D01*
X184332843Y-143949999D01*
X184467157Y-143949999D01*
X184467157Y-144850001D01*
X184479317Y-144973462D01*
X184515329Y-145092179D01*
X184573810Y-145201589D01*
X184652512Y-145297488D01*
X184748411Y-145376190D01*
X184857821Y-145434671D01*
X184976538Y-145470683D01*
X185099999Y-145482843D01*
X185750001Y-145482843D01*
X185873462Y-145470683D01*
X185992179Y-145434671D01*
X186101589Y-145376190D01*
X186197488Y-145297488D01*
X186276190Y-145201589D01*
X186334671Y-145092179D01*
X186370683Y-144973462D01*
X186377328Y-144906000D01*
X187722672Y-144906000D01*
X187729317Y-144973462D01*
X187765329Y-145092179D01*
X187823810Y-145201589D01*
X187902512Y-145297488D01*
X187998411Y-145376190D01*
X188107821Y-145434671D01*
X188226538Y-145470683D01*
X188349999Y-145482843D01*
X189050001Y-145482843D01*
X189173462Y-145470683D01*
X189292179Y-145434671D01*
X189401589Y-145376190D01*
X189497488Y-145297488D01*
X189576190Y-145201589D01*
X189634671Y-145092179D01*
X189670683Y-144973462D01*
X189682843Y-144850001D01*
X189682843Y-143949999D01*
X189670683Y-143826538D01*
X189634671Y-143707821D01*
X189576190Y-143598411D01*
X189497488Y-143502512D01*
X189401589Y-143423810D01*
X189292179Y-143365329D01*
X189173462Y-143329317D01*
X189050001Y-143317157D01*
X188349999Y-143317157D01*
X188226538Y-143329317D01*
X188107821Y-143365329D01*
X187998411Y-143423810D01*
X187902512Y-143502512D01*
X187823810Y-143598411D01*
X187765329Y-143707821D01*
X187729317Y-143826538D01*
X187722672Y-143894000D01*
X186377328Y-143894000D01*
X186370683Y-143826538D01*
X186334671Y-143707821D01*
X186276190Y-143598411D01*
X186197488Y-143502512D01*
X186101589Y-143423810D01*
X185992179Y-143365329D01*
X185873462Y-143329317D01*
X185750001Y-143317157D01*
X185099999Y-143317157D01*
X184976538Y-143329317D01*
X184857821Y-143365329D01*
X184748411Y-143423810D01*
X184652512Y-143502512D01*
X184573810Y-143598411D01*
X184515329Y-143707821D01*
X184479317Y-143826538D01*
X184467157Y-143949999D01*
X184332843Y-143949999D01*
X184320683Y-143826538D01*
X184284671Y-143707821D01*
X184226190Y-143598411D01*
X184147488Y-143502512D01*
X184051589Y-143423810D01*
X183942179Y-143365329D01*
X183881000Y-143346771D01*
X183881000Y-142663035D01*
X204949640Y-142663035D01*
X205735600Y-143448995D01*
X206521560Y-142663035D01*
X206454580Y-142422944D01*
X206205552Y-142305844D01*
X205938465Y-142239577D01*
X205663583Y-142226690D01*
X205391467Y-142267678D01*
X205132577Y-142360964D01*
X205016620Y-142422944D01*
X204949640Y-142663035D01*
X183881000Y-142663035D01*
X183881000Y-136564738D01*
X196829000Y-136564738D01*
X196829000Y-136935262D01*
X196901286Y-137298667D01*
X197043080Y-137640987D01*
X197248932Y-137949067D01*
X197510933Y-138211068D01*
X197819013Y-138416920D01*
X198161333Y-138558714D01*
X198524738Y-138631000D01*
X198895262Y-138631000D01*
X199258667Y-138558714D01*
X199600987Y-138416920D01*
X199909067Y-138211068D01*
X200171068Y-137949067D01*
X200320784Y-137725000D01*
X204336928Y-137725000D01*
X204349188Y-137849482D01*
X204385498Y-137969180D01*
X204444463Y-138079494D01*
X204523815Y-138176185D01*
X204620506Y-138255537D01*
X204730820Y-138314502D01*
X204850518Y-138350812D01*
X204975000Y-138363072D01*
X205276750Y-138360000D01*
X205435500Y-138201250D01*
X205435500Y-137127000D01*
X204498750Y-137127000D01*
X204340000Y-137285750D01*
X204336928Y-137725000D01*
X200320784Y-137725000D01*
X200376920Y-137640987D01*
X200518714Y-137298667D01*
X200591000Y-136935262D01*
X200591000Y-136564738D01*
X200533368Y-136275000D01*
X204336928Y-136275000D01*
X204340000Y-136714250D01*
X204498750Y-136873000D01*
X205435500Y-136873000D01*
X205435500Y-135798750D01*
X205689500Y-135798750D01*
X205689500Y-136873000D01*
X205709500Y-136873000D01*
X205709500Y-137127000D01*
X205689500Y-137127000D01*
X205689500Y-138201250D01*
X205848250Y-138360000D01*
X206150000Y-138363072D01*
X206274482Y-138350812D01*
X206394180Y-138314502D01*
X206504494Y-138255537D01*
X206601185Y-138176185D01*
X206680537Y-138079494D01*
X206739502Y-137969180D01*
X206775812Y-137849482D01*
X206777611Y-137831220D01*
X206852512Y-137922488D01*
X206948411Y-138001190D01*
X207057821Y-138059671D01*
X207176538Y-138095683D01*
X207300000Y-138107843D01*
X207644601Y-138107843D01*
X207644600Y-142675547D01*
X207546980Y-142740774D01*
X207387774Y-142899980D01*
X207262687Y-143087187D01*
X207176525Y-143295199D01*
X207132600Y-143516024D01*
X207132600Y-143523986D01*
X207096522Y-143284467D01*
X207003236Y-143025577D01*
X206941256Y-142909620D01*
X206701165Y-142842640D01*
X205915205Y-143628600D01*
X206701165Y-144414560D01*
X206941256Y-144347580D01*
X207058356Y-144098552D01*
X207124623Y-143831465D01*
X207132600Y-143661314D01*
X207132600Y-143741176D01*
X207176525Y-143962001D01*
X207262687Y-144170013D01*
X207387774Y-144357220D01*
X207546980Y-144516426D01*
X207734187Y-144641513D01*
X207942199Y-144727675D01*
X208163024Y-144771600D01*
X208388176Y-144771600D01*
X208609001Y-144727675D01*
X208817013Y-144641513D01*
X209004220Y-144516426D01*
X209163426Y-144357220D01*
X209288513Y-144170013D01*
X209374675Y-143962001D01*
X209418600Y-143741176D01*
X209418600Y-143516024D01*
X209374675Y-143295199D01*
X209288513Y-143087187D01*
X209163426Y-142899980D01*
X209004220Y-142740774D01*
X208906600Y-142675547D01*
X208906600Y-137669090D01*
X208909652Y-137638100D01*
X208908953Y-137631000D01*
X210546771Y-137631000D01*
X210565329Y-137692179D01*
X210623810Y-137801589D01*
X210702512Y-137897488D01*
X210798411Y-137976190D01*
X210907821Y-138034671D01*
X211026538Y-138070683D01*
X211149999Y-138082843D01*
X211800001Y-138082843D01*
X211923462Y-138070683D01*
X212042179Y-138034671D01*
X212151589Y-137976190D01*
X212247488Y-137897488D01*
X212326190Y-137801589D01*
X212384671Y-137692179D01*
X212420683Y-137573462D01*
X212432843Y-137450001D01*
X212432843Y-136549999D01*
X212420683Y-136426538D01*
X212384671Y-136307821D01*
X212326190Y-136198411D01*
X212247488Y-136102512D01*
X212151589Y-136023810D01*
X212042179Y-135965329D01*
X211923462Y-135929317D01*
X211800001Y-135917157D01*
X211149999Y-135917157D01*
X211026538Y-135929317D01*
X210907821Y-135965329D01*
X210798411Y-136023810D01*
X210702512Y-136102512D01*
X210623810Y-136198411D01*
X210565329Y-136307821D01*
X210546771Y-136369000D01*
X208585813Y-136369000D01*
X208559671Y-136282821D01*
X208501190Y-136173411D01*
X208422488Y-136077512D01*
X208326589Y-135998810D01*
X208217179Y-135940329D01*
X208098462Y-135904317D01*
X207975000Y-135892157D01*
X207300000Y-135892157D01*
X207176538Y-135904317D01*
X207057821Y-135940329D01*
X206948411Y-135998810D01*
X206852512Y-136077512D01*
X206777611Y-136168780D01*
X206775812Y-136150518D01*
X206739502Y-136030820D01*
X206680537Y-135920506D01*
X206601185Y-135823815D01*
X206504494Y-135744463D01*
X206394180Y-135685498D01*
X206274482Y-135649188D01*
X206150000Y-135636928D01*
X205848250Y-135640000D01*
X205689500Y-135798750D01*
X205435500Y-135798750D01*
X205276750Y-135640000D01*
X204975000Y-135636928D01*
X204850518Y-135649188D01*
X204730820Y-135685498D01*
X204620506Y-135744463D01*
X204523815Y-135823815D01*
X204444463Y-135920506D01*
X204385498Y-136030820D01*
X204349188Y-136150518D01*
X204336928Y-136275000D01*
X200533368Y-136275000D01*
X200518714Y-136201333D01*
X200376920Y-135859013D01*
X200171068Y-135550933D01*
X199909067Y-135288932D01*
X199600987Y-135083080D01*
X199258667Y-134941286D01*
X198895262Y-134869000D01*
X198524738Y-134869000D01*
X198161333Y-134941286D01*
X197819013Y-135083080D01*
X197510933Y-135288932D01*
X197248932Y-135550933D01*
X197043080Y-135859013D01*
X196901286Y-136201333D01*
X196829000Y-136564738D01*
X183881000Y-136564738D01*
X183881000Y-136254591D01*
X186620022Y-133515570D01*
X186657223Y-133535454D01*
X186908588Y-133611705D01*
X187170000Y-133637452D01*
X187431411Y-133611705D01*
X187682776Y-133535454D01*
X187914436Y-133411629D01*
X188117489Y-133244989D01*
X188284129Y-133041937D01*
X188300730Y-133010879D01*
X188400684Y-133193089D01*
X188600563Y-133431315D01*
X188843077Y-133625969D01*
X189118906Y-133769571D01*
X189337020Y-133840563D01*
X189583000Y-133720594D01*
X189583000Y-132377000D01*
X189563000Y-132377000D01*
X189563000Y-132123000D01*
X189583000Y-132123000D01*
X189583000Y-130779406D01*
X189837000Y-130779406D01*
X189837000Y-132123000D01*
X189857000Y-132123000D01*
X189857000Y-132377000D01*
X189837000Y-132377000D01*
X189837000Y-133720594D01*
X190082980Y-133840563D01*
X190301094Y-133769571D01*
X190576923Y-133625969D01*
X190819437Y-133431315D01*
X190920635Y-133310702D01*
X190922013Y-133324689D01*
X190943799Y-133396508D01*
X190979178Y-133462696D01*
X191026789Y-133520711D01*
X191084804Y-133568322D01*
X191150992Y-133603701D01*
X191222811Y-133625487D01*
X191297500Y-133632843D01*
X193202500Y-133632843D01*
X193277189Y-133625487D01*
X193349008Y-133603701D01*
X193415196Y-133568322D01*
X193473211Y-133520711D01*
X193520822Y-133462696D01*
X193556201Y-133396508D01*
X193577987Y-133324689D01*
X193585343Y-133250000D01*
X193585343Y-132160578D01*
X195329861Y-130416061D01*
X195363475Y-130388475D01*
X195417637Y-130322478D01*
X195473568Y-130254326D01*
X195555374Y-130101276D01*
X195555375Y-130101275D01*
X195605752Y-129935206D01*
X195618500Y-129805773D01*
X195618500Y-129805771D01*
X195622762Y-129762501D01*
X195618500Y-129719231D01*
X195618500Y-129494204D01*
X195659671Y-129417179D01*
X195695683Y-129298462D01*
X195707843Y-129175000D01*
X195707843Y-128225000D01*
X195695683Y-128101538D01*
X195659671Y-127982821D01*
X195601190Y-127873411D01*
X195522488Y-127777512D01*
X195426589Y-127698810D01*
X195317179Y-127640329D01*
X195266646Y-127625000D01*
X204574428Y-127625000D01*
X204586688Y-127749482D01*
X204622998Y-127869180D01*
X204681963Y-127979494D01*
X204761315Y-128076185D01*
X204858006Y-128155537D01*
X204968320Y-128214502D01*
X205088018Y-128250812D01*
X205212500Y-128263072D01*
X205514250Y-128260000D01*
X205673000Y-128101250D01*
X205673000Y-127027000D01*
X204736250Y-127027000D01*
X204577500Y-127185750D01*
X204574428Y-127625000D01*
X195266646Y-127625000D01*
X195198462Y-127604317D01*
X195075000Y-127592157D01*
X194400000Y-127592157D01*
X194276538Y-127604317D01*
X194157821Y-127640329D01*
X194048411Y-127698810D01*
X193952512Y-127777512D01*
X193877611Y-127868780D01*
X193875812Y-127850518D01*
X193839502Y-127730820D01*
X193780537Y-127620506D01*
X193701185Y-127523815D01*
X193604494Y-127444463D01*
X193494180Y-127385498D01*
X193374482Y-127349188D01*
X193250000Y-127336928D01*
X192948250Y-127340000D01*
X192789500Y-127498750D01*
X192789500Y-128573000D01*
X192809500Y-128573000D01*
X192809500Y-128827000D01*
X192789500Y-128827000D01*
X192789500Y-129901250D01*
X192948250Y-130060000D01*
X193191601Y-130062477D01*
X192386922Y-130867157D01*
X191297500Y-130867157D01*
X191222811Y-130874513D01*
X191150992Y-130896299D01*
X191084804Y-130931678D01*
X191026789Y-130979289D01*
X190979178Y-131037304D01*
X190943799Y-131103492D01*
X190922013Y-131175311D01*
X190920635Y-131189298D01*
X190819437Y-131068685D01*
X190576923Y-130874031D01*
X190301094Y-130730429D01*
X190082980Y-130659437D01*
X189837000Y-130779406D01*
X189583000Y-130779406D01*
X189337020Y-130659437D01*
X189118906Y-130730429D01*
X188843077Y-130874031D01*
X188600563Y-131068685D01*
X188400684Y-131306911D01*
X188300729Y-131489121D01*
X188284129Y-131458064D01*
X188117489Y-131255011D01*
X187914437Y-131088371D01*
X187682777Y-130964546D01*
X187431412Y-130888295D01*
X187170000Y-130862548D01*
X187041159Y-130875238D01*
X186185693Y-130019772D01*
X186288018Y-130050812D01*
X186412500Y-130063072D01*
X186714250Y-130060000D01*
X186873000Y-129901250D01*
X186873000Y-128827000D01*
X187127000Y-128827000D01*
X187127000Y-129901250D01*
X187285750Y-130060000D01*
X187587500Y-130063072D01*
X187711982Y-130050812D01*
X187831680Y-130014502D01*
X187941994Y-129955537D01*
X188038685Y-129876185D01*
X188118037Y-129779494D01*
X188177002Y-129669180D01*
X188213312Y-129549482D01*
X188225572Y-129425000D01*
X191436928Y-129425000D01*
X191449188Y-129549482D01*
X191485498Y-129669180D01*
X191544463Y-129779494D01*
X191623815Y-129876185D01*
X191720506Y-129955537D01*
X191830820Y-130014502D01*
X191950518Y-130050812D01*
X192075000Y-130063072D01*
X192376750Y-130060000D01*
X192535500Y-129901250D01*
X192535500Y-128827000D01*
X191598750Y-128827000D01*
X191440000Y-128985750D01*
X191436928Y-129425000D01*
X188225572Y-129425000D01*
X188222500Y-128985750D01*
X188063750Y-128827000D01*
X187127000Y-128827000D01*
X186873000Y-128827000D01*
X186853000Y-128827000D01*
X186853000Y-128573000D01*
X186873000Y-128573000D01*
X186873000Y-127498750D01*
X187127000Y-127498750D01*
X187127000Y-128573000D01*
X188063750Y-128573000D01*
X188222500Y-128414250D01*
X188225572Y-127975000D01*
X191436928Y-127975000D01*
X191440000Y-128414250D01*
X191598750Y-128573000D01*
X192535500Y-128573000D01*
X192535500Y-127498750D01*
X192376750Y-127340000D01*
X192075000Y-127336928D01*
X191950518Y-127349188D01*
X191830820Y-127385498D01*
X191720506Y-127444463D01*
X191623815Y-127523815D01*
X191544463Y-127620506D01*
X191485498Y-127730820D01*
X191449188Y-127850518D01*
X191436928Y-127975000D01*
X188225572Y-127975000D01*
X188213312Y-127850518D01*
X188177002Y-127730820D01*
X188118037Y-127620506D01*
X188038685Y-127523815D01*
X187941994Y-127444463D01*
X187831680Y-127385498D01*
X187711982Y-127349188D01*
X187587500Y-127336928D01*
X187285750Y-127340000D01*
X187127000Y-127498750D01*
X186873000Y-127498750D01*
X186714250Y-127340000D01*
X186412500Y-127336928D01*
X186288018Y-127349188D01*
X186168320Y-127385498D01*
X186058006Y-127444463D01*
X185961315Y-127523815D01*
X185881963Y-127620506D01*
X185822998Y-127730820D01*
X185806000Y-127786855D01*
X185806000Y-127189919D01*
X198251776Y-114744144D01*
X199674789Y-116167157D01*
X197800000Y-116167157D01*
X197725311Y-116174513D01*
X197653492Y-116196299D01*
X197587304Y-116231678D01*
X197529289Y-116279289D01*
X197481678Y-116337304D01*
X197446299Y-116403492D01*
X197424513Y-116475311D01*
X197417157Y-116550000D01*
X197417157Y-118950000D01*
X197424513Y-119024689D01*
X197446299Y-119096508D01*
X197481678Y-119162696D01*
X197529289Y-119220711D01*
X197587304Y-119268322D01*
X197653492Y-119303701D01*
X197725311Y-119325487D01*
X197800000Y-119332843D01*
X200200000Y-119332843D01*
X200274689Y-119325487D01*
X200346508Y-119303701D01*
X200412696Y-119268322D01*
X200470711Y-119220711D01*
X200518322Y-119162696D01*
X200553701Y-119096508D01*
X200575487Y-119024689D01*
X200582843Y-118950000D01*
X200582843Y-117075212D01*
X201669000Y-118161369D01*
X201668999Y-121294009D01*
X201665947Y-121324999D01*
X201668999Y-121355989D01*
X201668999Y-121355996D01*
X201678129Y-121448696D01*
X201714210Y-121567640D01*
X201772803Y-121677259D01*
X201851656Y-121773342D01*
X201875736Y-121793104D01*
X205672998Y-125590367D01*
X205672998Y-125698748D01*
X205514250Y-125540000D01*
X205212500Y-125536928D01*
X205088018Y-125549188D01*
X204968320Y-125585498D01*
X204858006Y-125644463D01*
X204761315Y-125723815D01*
X204681963Y-125820506D01*
X204622998Y-125930820D01*
X204586688Y-126050518D01*
X204574428Y-126175000D01*
X204577500Y-126614250D01*
X204736250Y-126773000D01*
X205673000Y-126773000D01*
X205673000Y-126753000D01*
X205927000Y-126753000D01*
X205927000Y-126773000D01*
X205947000Y-126773000D01*
X205947000Y-127027000D01*
X205927000Y-127027000D01*
X205927000Y-128101250D01*
X206085750Y-128260000D01*
X206387500Y-128263072D01*
X206511982Y-128250812D01*
X206631680Y-128214502D01*
X206741994Y-128155537D01*
X206838685Y-128076185D01*
X206918037Y-127979494D01*
X206977002Y-127869180D01*
X207013312Y-127749482D01*
X207015111Y-127731220D01*
X207090012Y-127822488D01*
X207185911Y-127901190D01*
X207295321Y-127959671D01*
X207414038Y-127995683D01*
X207469001Y-128001096D01*
X207469000Y-128964736D01*
X207437304Y-128981678D01*
X207379289Y-129029289D01*
X207331678Y-129087304D01*
X207296299Y-129153492D01*
X207274513Y-129225311D01*
X207267157Y-129300000D01*
X207267157Y-130600000D01*
X207274513Y-130674689D01*
X207296299Y-130746508D01*
X207331678Y-130812696D01*
X207379289Y-130870711D01*
X207437304Y-130918322D01*
X207503492Y-130953701D01*
X207575311Y-130975487D01*
X207650000Y-130982843D01*
X208550000Y-130982843D01*
X208624689Y-130975487D01*
X208696508Y-130953701D01*
X208762696Y-130918322D01*
X208820711Y-130870711D01*
X208868322Y-130812696D01*
X208903701Y-130746508D01*
X208925487Y-130674689D01*
X208932843Y-130600000D01*
X208932843Y-129300000D01*
X208925487Y-129225311D01*
X208903701Y-129153492D01*
X208868322Y-129087304D01*
X208820711Y-129029289D01*
X208762696Y-128981678D01*
X208731000Y-128964736D01*
X208731000Y-127735959D01*
X208738690Y-127726589D01*
X208797171Y-127617179D01*
X208833183Y-127498462D01*
X208845343Y-127375000D01*
X208845343Y-126425000D01*
X208833183Y-126301538D01*
X208797171Y-126182821D01*
X208738690Y-126073411D01*
X208659988Y-125977512D01*
X208564089Y-125898810D01*
X208454679Y-125840329D01*
X208335962Y-125804317D01*
X208212500Y-125792157D01*
X207659526Y-125792157D01*
X202930999Y-121063631D01*
X202930999Y-119097771D01*
X203021514Y-119312836D01*
X203345210Y-119473699D01*
X203694069Y-119568322D01*
X204054684Y-119593067D01*
X204413198Y-119546985D01*
X204755833Y-119431846D01*
X204978486Y-119312836D01*
X205098374Y-119027980D01*
X204000000Y-117929605D01*
X203985858Y-117943748D01*
X203806252Y-117764142D01*
X203820395Y-117750000D01*
X204179605Y-117750000D01*
X205277980Y-118848374D01*
X205562836Y-118728486D01*
X205723699Y-118404790D01*
X205818322Y-118055931D01*
X205843067Y-117695316D01*
X205796985Y-117336802D01*
X205681846Y-116994167D01*
X205562836Y-116771514D01*
X205277980Y-116651626D01*
X204179605Y-117750000D01*
X203820395Y-117750000D01*
X202722020Y-116651626D01*
X202437164Y-116771514D01*
X202313243Y-117020874D01*
X201764389Y-116472020D01*
X202901626Y-116472020D01*
X204000000Y-117570395D01*
X205098374Y-116472020D01*
X204978486Y-116187164D01*
X204654790Y-116026301D01*
X204305931Y-115931678D01*
X203945316Y-115906933D01*
X203586802Y-115953015D01*
X203244167Y-116068154D01*
X203021514Y-116187164D01*
X202901626Y-116472020D01*
X201764389Y-116472020D01*
X199144144Y-113851776D01*
X200792362Y-112203558D01*
X200825975Y-112175973D01*
X200888919Y-112099275D01*
X200936068Y-112041824D01*
X201017874Y-111888774D01*
X201017875Y-111888773D01*
X201068252Y-111722704D01*
X201081000Y-111593271D01*
X201081000Y-111593269D01*
X201085262Y-111549999D01*
X201081000Y-111506729D01*
X201081000Y-107625000D01*
X202836928Y-107625000D01*
X202849188Y-107749482D01*
X202885498Y-107869180D01*
X202944463Y-107979494D01*
X203023815Y-108076185D01*
X203120506Y-108155537D01*
X203230820Y-108214502D01*
X203350518Y-108250812D01*
X203475000Y-108263072D01*
X203914250Y-108260000D01*
X204073000Y-108101250D01*
X204073000Y-107164500D01*
X202998750Y-107164500D01*
X202840000Y-107323250D01*
X202836928Y-107625000D01*
X201081000Y-107625000D01*
X201081000Y-106502421D01*
X203114085Y-104469336D01*
X203104317Y-104501538D01*
X203092157Y-104625000D01*
X203092157Y-105300000D01*
X203104317Y-105423462D01*
X203140329Y-105542179D01*
X203198810Y-105651589D01*
X203277512Y-105747488D01*
X203368780Y-105822389D01*
X203350518Y-105824188D01*
X203230820Y-105860498D01*
X203120506Y-105919463D01*
X203023815Y-105998815D01*
X202944463Y-106095506D01*
X202885498Y-106205820D01*
X202849188Y-106325518D01*
X202836928Y-106450000D01*
X202840000Y-106751750D01*
X202998750Y-106910500D01*
X204073000Y-106910500D01*
X204073000Y-106890500D01*
X204327000Y-106890500D01*
X204327000Y-106910500D01*
X204347000Y-106910500D01*
X204347000Y-107164500D01*
X204327000Y-107164500D01*
X204327000Y-108101250D01*
X204485750Y-108260000D01*
X204794010Y-108262156D01*
X204794011Y-111644010D01*
X204790958Y-111675010D01*
X204803140Y-111798707D01*
X204839221Y-111917651D01*
X204897814Y-112027270D01*
X204956907Y-112099275D01*
X204956910Y-112099278D01*
X204976668Y-112123353D01*
X205000743Y-112143111D01*
X206319001Y-113461370D01*
X206319002Y-121553001D01*
X206315949Y-121584001D01*
X206328131Y-121707698D01*
X206364212Y-121826642D01*
X206422805Y-121936261D01*
X206481898Y-122008266D01*
X206481901Y-122008269D01*
X206501659Y-122032344D01*
X206525734Y-122052102D01*
X210541148Y-126067516D01*
X210536310Y-126073411D01*
X210477829Y-126182821D01*
X210441817Y-126301538D01*
X210429657Y-126425000D01*
X210429657Y-127375000D01*
X210441817Y-127498462D01*
X210469001Y-127588076D01*
X210469000Y-128964736D01*
X210437304Y-128981678D01*
X210379289Y-129029289D01*
X210331678Y-129087304D01*
X210296299Y-129153492D01*
X210274513Y-129225311D01*
X210267157Y-129300000D01*
X210267157Y-130600000D01*
X210274513Y-130674689D01*
X210296299Y-130746508D01*
X210331678Y-130812696D01*
X210379289Y-130870711D01*
X210437304Y-130918322D01*
X210469001Y-130935265D01*
X210469000Y-132701012D01*
X210465948Y-132732002D01*
X210469000Y-132762992D01*
X210469000Y-132762999D01*
X210478130Y-132855699D01*
X210514211Y-132974643D01*
X210572804Y-133084262D01*
X210651657Y-133180345D01*
X210675737Y-133200107D01*
X212894001Y-135418372D01*
X212894001Y-135999442D01*
X212848411Y-136023810D01*
X212752512Y-136102512D01*
X212673810Y-136198411D01*
X212615329Y-136307821D01*
X212579317Y-136426538D01*
X212567157Y-136549999D01*
X212567157Y-137450001D01*
X212579317Y-137573462D01*
X212615329Y-137692179D01*
X212673810Y-137801589D01*
X212752512Y-137897488D01*
X212848411Y-137976190D01*
X212957821Y-138034671D01*
X213076538Y-138070683D01*
X213199999Y-138082843D01*
X213850001Y-138082843D01*
X213973462Y-138070683D01*
X214092179Y-138034671D01*
X214201589Y-137976190D01*
X214297488Y-137897488D01*
X214376190Y-137801589D01*
X214434671Y-137692179D01*
X214470683Y-137573462D01*
X214482843Y-137450001D01*
X214482843Y-136549999D01*
X214470683Y-136426538D01*
X214434671Y-136307821D01*
X214376190Y-136198411D01*
X214297488Y-136102512D01*
X214201589Y-136023810D01*
X214156000Y-135999442D01*
X214156000Y-135187992D01*
X214159052Y-135157002D01*
X214156000Y-135126011D01*
X214156000Y-135126004D01*
X214146870Y-135033304D01*
X214110789Y-134914360D01*
X214052196Y-134804741D01*
X213973343Y-134708659D01*
X213949268Y-134688901D01*
X211731000Y-132470634D01*
X211731000Y-130935264D01*
X211762696Y-130918322D01*
X211820711Y-130870711D01*
X211868322Y-130812696D01*
X211903701Y-130746508D01*
X211925487Y-130674689D01*
X211932843Y-130600000D01*
X211932843Y-129300000D01*
X211925487Y-129225311D01*
X211903701Y-129153492D01*
X211868322Y-129087304D01*
X211820711Y-129029289D01*
X211762696Y-128981678D01*
X211731000Y-128964736D01*
X211731000Y-128007843D01*
X211737500Y-128007843D01*
X211860962Y-127995683D01*
X211979679Y-127959671D01*
X212089089Y-127901190D01*
X212184988Y-127822488D01*
X212259889Y-127731220D01*
X212261688Y-127749482D01*
X212297998Y-127869180D01*
X212356963Y-127979494D01*
X212436315Y-128076185D01*
X212533006Y-128155537D01*
X212643320Y-128214502D01*
X212763018Y-128250812D01*
X212887500Y-128263072D01*
X213189250Y-128260000D01*
X213348000Y-128101250D01*
X213348000Y-127027000D01*
X213328000Y-127027000D01*
X213328000Y-126773000D01*
X213348000Y-126773000D01*
X213348000Y-126753000D01*
X213602000Y-126753000D01*
X213602000Y-126773000D01*
X213622000Y-126773000D01*
X213622000Y-127027000D01*
X213602000Y-127027000D01*
X213602000Y-128101250D01*
X213760750Y-128260000D01*
X214062500Y-128263072D01*
X214186982Y-128250812D01*
X214306680Y-128214502D01*
X214416994Y-128155537D01*
X214513685Y-128076185D01*
X214593037Y-127979494D01*
X214652002Y-127869180D01*
X214688312Y-127749482D01*
X214700572Y-127625000D01*
X214697500Y-127185750D01*
X214538752Y-127027002D01*
X214582812Y-127027002D01*
X214919002Y-127363192D01*
X214919001Y-138632830D01*
X211043327Y-142508505D01*
X210928176Y-142485600D01*
X210703024Y-142485600D01*
X210482199Y-142529525D01*
X210274187Y-142615687D01*
X210086980Y-142740774D01*
X209927774Y-142899980D01*
X209802687Y-143087187D01*
X209716525Y-143295199D01*
X209672600Y-143516024D01*
X209672600Y-143741176D01*
X209716525Y-143962001D01*
X209802687Y-144170013D01*
X209927774Y-144357220D01*
X210086980Y-144516426D01*
X210274187Y-144641513D01*
X210482199Y-144727675D01*
X210703024Y-144771600D01*
X210928176Y-144771600D01*
X211149001Y-144727675D01*
X211357013Y-144641513D01*
X211544220Y-144516426D01*
X211703426Y-144357220D01*
X211828513Y-144170013D01*
X211914675Y-143962001D01*
X211958600Y-143741176D01*
X211958600Y-143516024D01*
X211935695Y-143400873D01*
X215669011Y-139667558D01*
X215669011Y-140422820D01*
X213583327Y-142508505D01*
X213468176Y-142485600D01*
X213243024Y-142485600D01*
X213022199Y-142529525D01*
X212814187Y-142615687D01*
X212626980Y-142740774D01*
X212467774Y-142899980D01*
X212342687Y-143087187D01*
X212256525Y-143295199D01*
X212212600Y-143516024D01*
X212212600Y-143741176D01*
X212256525Y-143962001D01*
X212342687Y-144170013D01*
X212467774Y-144357220D01*
X212626980Y-144516426D01*
X212814187Y-144641513D01*
X213022199Y-144727675D01*
X213243024Y-144771600D01*
X213468176Y-144771600D01*
X213689001Y-144727675D01*
X213897013Y-144641513D01*
X214084220Y-144516426D01*
X214243426Y-144357220D01*
X214368513Y-144170013D01*
X214454675Y-143962001D01*
X214498600Y-143741176D01*
X214498600Y-143516024D01*
X214475695Y-143400873D01*
X216594001Y-141282568D01*
X216594001Y-145594000D01*
X196999015Y-145594000D01*
X197051185Y-145551185D01*
X197130537Y-145454494D01*
X197189502Y-145344180D01*
X197225812Y-145224482D01*
X197238072Y-145100000D01*
X197235000Y-144685750D01*
X197143415Y-144594165D01*
X204949640Y-144594165D01*
X205016620Y-144834256D01*
X205265648Y-144951356D01*
X205532735Y-145017623D01*
X205807617Y-145030510D01*
X206079733Y-144989522D01*
X206338623Y-144896236D01*
X206454580Y-144834256D01*
X206521560Y-144594165D01*
X205735600Y-143808205D01*
X204949640Y-144594165D01*
X197143415Y-144594165D01*
X197076250Y-144527000D01*
X196152000Y-144527000D01*
X196152000Y-144547000D01*
X195898000Y-144547000D01*
X195898000Y-144527000D01*
X195878000Y-144527000D01*
X195878000Y-144273000D01*
X195898000Y-144273000D01*
X195898000Y-143223750D01*
X196152000Y-143223750D01*
X196152000Y-144273000D01*
X197076250Y-144273000D01*
X197235000Y-144114250D01*
X197238067Y-143700617D01*
X204333690Y-143700617D01*
X204374678Y-143972733D01*
X204467964Y-144231623D01*
X204529944Y-144347580D01*
X204770035Y-144414560D01*
X205555995Y-143628600D01*
X204770035Y-142842640D01*
X204529944Y-142909620D01*
X204412844Y-143158648D01*
X204346577Y-143425735D01*
X204333690Y-143700617D01*
X197238067Y-143700617D01*
X197238072Y-143700000D01*
X197225812Y-143575518D01*
X197189502Y-143455820D01*
X197130537Y-143345506D01*
X197051185Y-143248815D01*
X196954494Y-143169463D01*
X196844180Y-143110498D01*
X196724482Y-143074188D01*
X196600000Y-143061928D01*
X196310750Y-143065000D01*
X196152000Y-143223750D01*
X195898000Y-143223750D01*
X195739250Y-143065000D01*
X195450000Y-143061928D01*
X195325518Y-143074188D01*
X195205820Y-143110498D01*
X195095506Y-143169463D01*
X194998815Y-143248815D01*
X194919463Y-143345506D01*
X194860498Y-143455820D01*
X194824188Y-143575518D01*
X194822389Y-143593780D01*
X194747488Y-143502512D01*
X194651589Y-143423810D01*
X194542179Y-143365329D01*
X194423462Y-143329317D01*
X194300001Y-143317157D01*
X193649999Y-143317157D01*
X193526538Y-143329317D01*
X193407821Y-143365329D01*
X193298411Y-143423810D01*
X193202512Y-143502512D01*
X193123810Y-143598411D01*
X193065329Y-143707821D01*
X193029317Y-143826538D01*
X193022672Y-143894000D01*
X191677328Y-143894000D01*
X191670683Y-143826538D01*
X191634671Y-143707821D01*
X191576190Y-143598411D01*
X191497488Y-143502512D01*
X191401589Y-143423810D01*
X191292179Y-143365329D01*
X191173462Y-143329317D01*
X191050001Y-143317157D01*
X190349999Y-143317157D01*
X190226538Y-143329317D01*
X190107821Y-143365329D01*
X189998411Y-143423810D01*
X189902512Y-143502512D01*
X189823810Y-143598411D01*
X189765329Y-143707821D01*
X189729317Y-143826538D01*
X189717157Y-143949999D01*
X189717157Y-144850001D01*
X189729317Y-144973462D01*
X189765329Y-145092179D01*
X189823810Y-145201589D01*
X189902512Y-145297488D01*
X189998411Y-145376190D01*
X190107821Y-145434671D01*
X190226538Y-145470683D01*
X190349999Y-145482843D01*
X191050001Y-145482843D01*
X191173462Y-145470683D01*
X191292179Y-145434671D01*
X191401589Y-145376190D01*
X191497488Y-145297488D01*
X191576190Y-145201589D01*
X191634671Y-145092179D01*
X191670683Y-144973462D01*
X191677328Y-144906000D01*
X193022672Y-144906000D01*
X193029317Y-144973462D01*
X193065329Y-145092179D01*
X193123810Y-145201589D01*
X193202512Y-145297488D01*
X193298411Y-145376190D01*
X193407821Y-145434671D01*
X193526538Y-145470683D01*
X193649999Y-145482843D01*
X194300001Y-145482843D01*
X194423462Y-145470683D01*
X194542179Y-145434671D01*
X194651589Y-145376190D01*
X194747488Y-145297488D01*
X194822389Y-145206220D01*
X194824188Y-145224482D01*
X194860498Y-145344180D01*
X194919463Y-145454494D01*
X194998815Y-145551185D01*
X195050985Y-145594000D01*
X155127000Y-145594000D01*
X155127000Y-140703400D01*
X167988571Y-140703400D01*
X167988571Y-141296600D01*
X168104299Y-141878401D01*
X168331306Y-142426447D01*
X168660870Y-142919674D01*
X169080326Y-143339130D01*
X169573553Y-143668694D01*
X170121599Y-143895701D01*
X170703400Y-144011429D01*
X171296600Y-144011429D01*
X171878401Y-143895701D01*
X172426447Y-143668694D01*
X172919674Y-143339130D01*
X173339130Y-142919674D01*
X173668694Y-142426447D01*
X173895701Y-141878401D01*
X174011429Y-141296600D01*
X174011429Y-140703400D01*
X173895701Y-140121599D01*
X173668694Y-139573553D01*
X173339130Y-139080326D01*
X172919674Y-138660870D01*
X172426447Y-138331306D01*
X171878401Y-138104299D01*
X171296600Y-137988571D01*
X170703400Y-137988571D01*
X170121599Y-138104299D01*
X169573553Y-138331306D01*
X169080326Y-138660870D01*
X168660870Y-139080326D01*
X168331306Y-139573553D01*
X168104299Y-140121599D01*
X167988571Y-140703400D01*
X155127000Y-140703400D01*
X155127000Y-136564738D01*
X178829000Y-136564738D01*
X178829000Y-136935262D01*
X178901286Y-137298667D01*
X179043080Y-137640987D01*
X179248932Y-137949067D01*
X179510933Y-138211068D01*
X179819013Y-138416920D01*
X180161333Y-138558714D01*
X180524738Y-138631000D01*
X180895262Y-138631000D01*
X181258667Y-138558714D01*
X181600987Y-138416920D01*
X181909067Y-138211068D01*
X182171068Y-137949067D01*
X182376920Y-137640987D01*
X182518714Y-137298667D01*
X182591000Y-136935262D01*
X182591000Y-136564738D01*
X182518714Y-136201333D01*
X182376920Y-135859013D01*
X182171068Y-135550933D01*
X181909067Y-135288932D01*
X181600987Y-135083080D01*
X181258667Y-134941286D01*
X180895262Y-134869000D01*
X180524738Y-134869000D01*
X180161333Y-134941286D01*
X179819013Y-135083080D01*
X179510933Y-135288932D01*
X179248932Y-135550933D01*
X179043080Y-135859013D01*
X178901286Y-136201333D01*
X178829000Y-136564738D01*
X155127000Y-136564738D01*
X155127000Y-128043672D01*
X157518900Y-128043672D01*
X157518900Y-128276328D01*
X157564289Y-128504514D01*
X157653323Y-128719461D01*
X157782580Y-128912907D01*
X157947093Y-129077420D01*
X158140539Y-129206677D01*
X158355486Y-129295711D01*
X158583672Y-129341100D01*
X158816328Y-129341100D01*
X159044514Y-129295711D01*
X159259461Y-129206677D01*
X159452907Y-129077420D01*
X159489327Y-129041000D01*
X161215079Y-129041000D01*
X165039000Y-132864922D01*
X165039000Y-133136017D01*
X165092071Y-133402823D01*
X165196174Y-133654149D01*
X165347307Y-133880336D01*
X165539664Y-134072693D01*
X165765851Y-134223826D01*
X166017177Y-134327929D01*
X166283983Y-134381000D01*
X166556017Y-134381000D01*
X166822823Y-134327929D01*
X167074149Y-134223826D01*
X167300336Y-134072693D01*
X167492693Y-133880336D01*
X167643826Y-133654149D01*
X167747929Y-133402823D01*
X167801000Y-133136017D01*
X167801000Y-132863983D01*
X167747929Y-132597177D01*
X167643826Y-132345851D01*
X167492693Y-132119664D01*
X167300336Y-131927307D01*
X167074149Y-131776174D01*
X166822823Y-131672071D01*
X166556017Y-131619000D01*
X166284922Y-131619000D01*
X162233566Y-127567645D01*
X162205975Y-127534025D01*
X162071825Y-127423932D01*
X161918775Y-127342125D01*
X161752706Y-127291748D01*
X161623273Y-127279000D01*
X161623270Y-127279000D01*
X161580000Y-127274738D01*
X161536730Y-127279000D01*
X159489327Y-127279000D01*
X159452907Y-127242580D01*
X159259461Y-127113323D01*
X159044514Y-127024289D01*
X158816328Y-126978900D01*
X158583672Y-126978900D01*
X158355486Y-127024289D01*
X158140539Y-127113323D01*
X157947093Y-127242580D01*
X157782580Y-127407093D01*
X157653323Y-127600539D01*
X157564289Y-127815486D01*
X157518900Y-128043672D01*
X155127000Y-128043672D01*
X155127000Y-124072774D01*
X157886831Y-124072774D01*
X157958426Y-124316754D01*
X158213954Y-124437664D01*
X158488161Y-124506400D01*
X158770508Y-124520320D01*
X159050147Y-124478889D01*
X159316328Y-124383700D01*
X159441574Y-124316754D01*
X159513169Y-124072774D01*
X158700000Y-123259605D01*
X157886831Y-124072774D01*
X155127000Y-124072774D01*
X155127000Y-123150508D01*
X157259680Y-123150508D01*
X157301111Y-123430147D01*
X157396300Y-123696328D01*
X157463246Y-123821574D01*
X157707226Y-123893169D01*
X158520395Y-123080000D01*
X158879605Y-123080000D01*
X159692774Y-123893169D01*
X159936754Y-123821574D01*
X160057664Y-123566046D01*
X160126400Y-123291839D01*
X160140320Y-123009492D01*
X160098889Y-122729853D01*
X160003700Y-122463672D01*
X159936754Y-122338426D01*
X159692774Y-122266831D01*
X158879605Y-123080000D01*
X158520395Y-123080000D01*
X157707226Y-122266831D01*
X157463246Y-122338426D01*
X157342336Y-122593954D01*
X157273600Y-122868161D01*
X157259680Y-123150508D01*
X155127000Y-123150508D01*
X155127000Y-122087226D01*
X157886831Y-122087226D01*
X158700000Y-122900395D01*
X159513169Y-122087226D01*
X159441574Y-121843246D01*
X159186046Y-121722336D01*
X159136839Y-121710001D01*
X163364737Y-121710001D01*
X163368999Y-121753271D01*
X163369000Y-125706719D01*
X163364737Y-125749999D01*
X163373665Y-125840641D01*
X163381748Y-125922705D01*
X163392074Y-125956746D01*
X163432124Y-126088773D01*
X163513931Y-126241824D01*
X163573338Y-126314211D01*
X163624025Y-126375974D01*
X163657639Y-126403560D01*
X170119000Y-132864922D01*
X170119000Y-133136017D01*
X170172071Y-133402823D01*
X170276174Y-133654149D01*
X170427307Y-133880336D01*
X170619664Y-134072693D01*
X170845851Y-134223826D01*
X171097177Y-134327929D01*
X171363983Y-134381000D01*
X171636017Y-134381000D01*
X171902823Y-134327929D01*
X172154149Y-134223826D01*
X172380336Y-134072693D01*
X172572693Y-133880336D01*
X172723826Y-133654149D01*
X172827929Y-133402823D01*
X172881000Y-133136017D01*
X172881000Y-132863983D01*
X172827929Y-132597177D01*
X172723826Y-132345851D01*
X172572693Y-132119664D01*
X172380336Y-131927307D01*
X172154149Y-131776174D01*
X171902823Y-131672071D01*
X171636017Y-131619000D01*
X171364922Y-131619000D01*
X165130999Y-125385078D01*
X165130999Y-125302843D01*
X167500000Y-125302843D01*
X167574689Y-125295487D01*
X167646508Y-125273701D01*
X167712696Y-125238322D01*
X167770711Y-125190711D01*
X167818322Y-125132696D01*
X167853701Y-125066508D01*
X167875487Y-124994689D01*
X167882843Y-124920000D01*
X167882843Y-122420000D01*
X167875487Y-122345311D01*
X167853701Y-122273492D01*
X167818322Y-122207304D01*
X167770711Y-122149289D01*
X167712696Y-122101678D01*
X167646508Y-122066299D01*
X167574689Y-122044513D01*
X167500000Y-122037157D01*
X165168764Y-122037157D01*
X165902159Y-121303763D01*
X166089360Y-121341000D01*
X166410640Y-121341000D01*
X166725745Y-121278322D01*
X167022568Y-121155374D01*
X167289702Y-120976881D01*
X167516881Y-120749702D01*
X167695374Y-120482568D01*
X167818322Y-120185745D01*
X167881000Y-119870640D01*
X167881000Y-119549360D01*
X167818322Y-119234255D01*
X167700580Y-118950000D01*
X180411928Y-118950000D01*
X180424188Y-119074482D01*
X180460498Y-119194180D01*
X180519463Y-119304494D01*
X180598815Y-119401185D01*
X180695506Y-119480537D01*
X180805820Y-119539502D01*
X180925518Y-119575812D01*
X181050000Y-119588072D01*
X181964250Y-119585000D01*
X182123000Y-119426250D01*
X182123000Y-117877000D01*
X182377000Y-117877000D01*
X182377000Y-119426250D01*
X182535750Y-119585000D01*
X183450000Y-119588072D01*
X183574482Y-119575812D01*
X183694180Y-119539502D01*
X183804494Y-119480537D01*
X183901185Y-119401185D01*
X183980537Y-119304494D01*
X184039502Y-119194180D01*
X184075812Y-119074482D01*
X184088072Y-118950000D01*
X184085000Y-118035750D01*
X183926250Y-117877000D01*
X182377000Y-117877000D01*
X182123000Y-117877000D01*
X180573750Y-117877000D01*
X180415000Y-118035750D01*
X180411928Y-118950000D01*
X167700580Y-118950000D01*
X167695374Y-118937432D01*
X167516881Y-118670298D01*
X167289702Y-118443119D01*
X167022568Y-118264626D01*
X166725745Y-118141678D01*
X166410640Y-118079000D01*
X166089360Y-118079000D01*
X165774255Y-118141678D01*
X165477432Y-118264626D01*
X165210298Y-118443119D01*
X164983119Y-118670298D01*
X164804626Y-118937432D01*
X164681678Y-119234255D01*
X164619000Y-119549360D01*
X164619000Y-119870640D01*
X164656237Y-120057841D01*
X163657643Y-121056436D01*
X163624024Y-121084026D01*
X163551020Y-121172984D01*
X163513931Y-121218176D01*
X163457747Y-121323289D01*
X163432124Y-121371227D01*
X163381747Y-121537296D01*
X163374094Y-121614999D01*
X163364737Y-121710001D01*
X159136839Y-121710001D01*
X158911839Y-121653600D01*
X158629492Y-121639680D01*
X158349853Y-121681111D01*
X158083672Y-121776300D01*
X157958426Y-121843246D01*
X157886831Y-122087226D01*
X155127000Y-122087226D01*
X155127000Y-117822381D01*
X157684000Y-117822381D01*
X157684000Y-118177619D01*
X157753304Y-118526032D01*
X157889248Y-118854230D01*
X158086608Y-119149601D01*
X158337799Y-119400792D01*
X158633170Y-119598152D01*
X158961368Y-119734096D01*
X159309781Y-119803400D01*
X159665019Y-119803400D01*
X160013432Y-119734096D01*
X160341630Y-119598152D01*
X160637001Y-119400792D01*
X160888192Y-119149601D01*
X161085552Y-118854230D01*
X161221496Y-118526032D01*
X161290800Y-118177619D01*
X161290800Y-117822381D01*
X161221496Y-117473968D01*
X161085552Y-117145770D01*
X160888192Y-116850399D01*
X160637001Y-116599208D01*
X160341630Y-116401848D01*
X160013432Y-116265904D01*
X159665019Y-116196600D01*
X159309781Y-116196600D01*
X158961368Y-116265904D01*
X158633170Y-116401848D01*
X158337799Y-116599208D01*
X158086608Y-116850399D01*
X157889248Y-117145770D01*
X157753304Y-117473968D01*
X157684000Y-117822381D01*
X155127000Y-117822381D01*
X155127000Y-113912774D01*
X157886831Y-113912774D01*
X157958426Y-114156754D01*
X158213954Y-114277664D01*
X158488161Y-114346400D01*
X158770508Y-114360320D01*
X159050147Y-114318889D01*
X159316328Y-114223700D01*
X159441574Y-114156754D01*
X159513169Y-113912774D01*
X158700000Y-113099605D01*
X157886831Y-113912774D01*
X155127000Y-113912774D01*
X155127000Y-112990508D01*
X157259680Y-112990508D01*
X157301111Y-113270147D01*
X157396300Y-113536328D01*
X157463246Y-113661574D01*
X157707226Y-113733169D01*
X158520395Y-112920000D01*
X158879605Y-112920000D01*
X159692774Y-113733169D01*
X159936754Y-113661574D01*
X160057664Y-113406046D01*
X160126400Y-113131839D01*
X160140320Y-112849492D01*
X160098889Y-112569853D01*
X160003700Y-112303672D01*
X159936754Y-112178426D01*
X159692774Y-112106831D01*
X158879605Y-112920000D01*
X158520395Y-112920000D01*
X157707226Y-112106831D01*
X157463246Y-112178426D01*
X157342336Y-112433954D01*
X157273600Y-112708161D01*
X157259680Y-112990508D01*
X155127000Y-112990508D01*
X155127000Y-111927226D01*
X157886831Y-111927226D01*
X158700000Y-112740395D01*
X159513169Y-111927226D01*
X159441574Y-111683246D01*
X159186046Y-111562336D01*
X158911839Y-111493600D01*
X158629492Y-111479680D01*
X158349853Y-111521111D01*
X158083672Y-111616300D01*
X157958426Y-111683246D01*
X157886831Y-111927226D01*
X155127000Y-111927226D01*
X155127000Y-110250001D01*
X163364737Y-110250001D01*
X163369000Y-110293281D01*
X163368999Y-113706729D01*
X163364737Y-113749999D01*
X163368999Y-113793269D01*
X163368999Y-113793271D01*
X163381747Y-113922704D01*
X163413464Y-114027259D01*
X163432124Y-114088773D01*
X163513931Y-114241824D01*
X163534890Y-114267362D01*
X163624024Y-114375974D01*
X163657643Y-114403564D01*
X164656237Y-115402159D01*
X164619000Y-115589360D01*
X164619000Y-115910640D01*
X164681678Y-116225745D01*
X164804626Y-116522568D01*
X164983119Y-116789702D01*
X165210298Y-117016881D01*
X165477432Y-117195374D01*
X165774255Y-117318322D01*
X166089360Y-117381000D01*
X166410640Y-117381000D01*
X166725745Y-117318322D01*
X167022568Y-117195374D01*
X167289702Y-117016881D01*
X167516881Y-116789702D01*
X167677044Y-116550000D01*
X180411928Y-116550000D01*
X180415000Y-117464250D01*
X180573750Y-117623000D01*
X182123000Y-117623000D01*
X182123000Y-116073750D01*
X182377000Y-116073750D01*
X182377000Y-117623000D01*
X183926250Y-117623000D01*
X184085000Y-117464250D01*
X184088072Y-116550000D01*
X184075812Y-116425518D01*
X184039502Y-116305820D01*
X183980537Y-116195506D01*
X183901185Y-116098815D01*
X183804494Y-116019463D01*
X183694180Y-115960498D01*
X183574482Y-115924188D01*
X183450000Y-115911928D01*
X182535750Y-115915000D01*
X182377000Y-116073750D01*
X182123000Y-116073750D01*
X181964250Y-115915000D01*
X181050000Y-115911928D01*
X180925518Y-115924188D01*
X180805820Y-115960498D01*
X180695506Y-116019463D01*
X180598815Y-116098815D01*
X180519463Y-116195506D01*
X180460498Y-116305820D01*
X180424188Y-116425518D01*
X180411928Y-116550000D01*
X167677044Y-116550000D01*
X167695374Y-116522568D01*
X167818322Y-116225745D01*
X167881000Y-115910640D01*
X167881000Y-115589360D01*
X167818322Y-115274255D01*
X167695374Y-114977432D01*
X167516881Y-114710298D01*
X167289702Y-114483119D01*
X167022568Y-114304626D01*
X166725745Y-114181678D01*
X166410640Y-114119000D01*
X166089360Y-114119000D01*
X165902159Y-114156237D01*
X165130999Y-113385078D01*
X165130999Y-112977582D01*
X165210298Y-113056881D01*
X165477432Y-113235374D01*
X165774255Y-113358322D01*
X166089360Y-113421000D01*
X166410640Y-113421000D01*
X166725745Y-113358322D01*
X167022568Y-113235374D01*
X167289702Y-113056881D01*
X167516881Y-112829702D01*
X167622922Y-112671000D01*
X182645079Y-112671000D01*
X186369001Y-116394924D01*
X186369001Y-116437212D01*
X186242171Y-116521957D01*
X186021957Y-116742171D01*
X185848936Y-117001116D01*
X185729757Y-117288839D01*
X185669000Y-117594285D01*
X185669000Y-117905715D01*
X185729757Y-118211161D01*
X185848936Y-118498884D01*
X186021957Y-118757829D01*
X186242171Y-118978043D01*
X186501116Y-119151064D01*
X186788839Y-119270243D01*
X187094285Y-119331000D01*
X187405715Y-119331000D01*
X187711161Y-119270243D01*
X187998884Y-119151064D01*
X188257829Y-118978043D01*
X188478043Y-118757829D01*
X188651064Y-118498884D01*
X188770243Y-118211161D01*
X188831000Y-117905715D01*
X188831000Y-117594285D01*
X188770243Y-117288839D01*
X188651064Y-117001116D01*
X188478043Y-116742171D01*
X188257829Y-116521957D01*
X188131000Y-116437213D01*
X188131000Y-116073270D01*
X188135262Y-116030000D01*
X188131000Y-115986727D01*
X188118252Y-115857294D01*
X188067875Y-115691225D01*
X187986068Y-115538175D01*
X187903560Y-115437637D01*
X187903557Y-115437634D01*
X187875975Y-115404025D01*
X187842366Y-115376443D01*
X184255921Y-111790000D01*
X187667361Y-108378561D01*
X187700975Y-108350975D01*
X187755137Y-108284978D01*
X187811068Y-108216826D01*
X187872844Y-108101250D01*
X187892875Y-108063775D01*
X187943252Y-107897706D01*
X187952869Y-107800062D01*
X187997171Y-107717179D01*
X188033183Y-107598462D01*
X188045343Y-107475000D01*
X188045343Y-107275578D01*
X190277931Y-105042991D01*
X190302777Y-105035454D01*
X190534437Y-104911629D01*
X190737489Y-104744989D01*
X190904129Y-104541936D01*
X191027954Y-104310276D01*
X191060000Y-104204635D01*
X191092046Y-104310277D01*
X191215871Y-104541937D01*
X191382512Y-104744989D01*
X191449000Y-104799554D01*
X191449001Y-106611720D01*
X191444738Y-106655000D01*
X191460216Y-106812137D01*
X191461709Y-106827294D01*
X191461749Y-106827705D01*
X191512125Y-106993774D01*
X191593932Y-107146825D01*
X191656287Y-107222804D01*
X191704026Y-107280975D01*
X191704657Y-107281493D01*
X191704657Y-107475000D01*
X191716817Y-107598462D01*
X191752829Y-107717179D01*
X191811310Y-107826589D01*
X191890012Y-107922488D01*
X191985911Y-108001190D01*
X192095321Y-108059671D01*
X192214038Y-108095683D01*
X192337500Y-108107843D01*
X193012500Y-108107843D01*
X193135962Y-108095683D01*
X193254679Y-108059671D01*
X193364089Y-108001190D01*
X193459988Y-107922488D01*
X193534889Y-107831220D01*
X193536688Y-107849482D01*
X193572998Y-107969180D01*
X193631963Y-108079494D01*
X193711315Y-108176185D01*
X193808006Y-108255537D01*
X193918320Y-108314502D01*
X194038018Y-108350812D01*
X194162500Y-108363072D01*
X194464250Y-108360000D01*
X194623000Y-108201250D01*
X194623000Y-107127000D01*
X194877000Y-107127000D01*
X194877000Y-108201250D01*
X195035750Y-108360000D01*
X195337500Y-108363072D01*
X195461982Y-108350812D01*
X195581680Y-108314502D01*
X195691994Y-108255537D01*
X195788685Y-108176185D01*
X195868037Y-108079494D01*
X195927002Y-107969180D01*
X195963312Y-107849482D01*
X195975572Y-107725000D01*
X195972500Y-107285750D01*
X195813750Y-107127000D01*
X194877000Y-107127000D01*
X194623000Y-107127000D01*
X194603000Y-107127000D01*
X194603000Y-106873000D01*
X194623000Y-106873000D01*
X194623000Y-105798750D01*
X194877000Y-105798750D01*
X194877000Y-106873000D01*
X195813750Y-106873000D01*
X195972500Y-106714250D01*
X195975572Y-106275000D01*
X195963312Y-106150518D01*
X195927002Y-106030820D01*
X195868037Y-105920506D01*
X195788685Y-105823815D01*
X195691994Y-105744463D01*
X195581680Y-105685498D01*
X195461982Y-105649188D01*
X195337500Y-105636928D01*
X195035750Y-105640000D01*
X194877000Y-105798750D01*
X194623000Y-105798750D01*
X194464250Y-105640000D01*
X194162500Y-105636928D01*
X194038018Y-105649188D01*
X193918320Y-105685498D01*
X193808006Y-105744463D01*
X193711315Y-105823815D01*
X193631963Y-105920506D01*
X193572998Y-106030820D01*
X193536688Y-106150518D01*
X193534889Y-106168780D01*
X193459988Y-106077512D01*
X193364089Y-105998810D01*
X193254679Y-105940329D01*
X193211000Y-105927079D01*
X193211000Y-104799555D01*
X193277489Y-104744989D01*
X193371037Y-104631000D01*
X197576732Y-104631000D01*
X197620002Y-104635262D01*
X197663272Y-104631000D01*
X197663275Y-104631000D01*
X197792708Y-104618252D01*
X197958777Y-104567875D01*
X198111827Y-104486068D01*
X198245977Y-104375975D01*
X198273568Y-104342355D01*
X202839992Y-99775932D01*
X202840000Y-99776750D01*
X202998750Y-99935500D01*
X204073000Y-99935500D01*
X204073000Y-98998750D01*
X204327000Y-98998750D01*
X204327000Y-99935500D01*
X205401250Y-99935500D01*
X205560000Y-99776750D01*
X205563072Y-99475000D01*
X205550812Y-99350518D01*
X205514502Y-99230820D01*
X205455537Y-99120506D01*
X205376185Y-99023815D01*
X205279494Y-98944463D01*
X205169180Y-98885498D01*
X205049482Y-98849188D01*
X204925000Y-98836928D01*
X204485750Y-98840000D01*
X204327000Y-98998750D01*
X204073000Y-98998750D01*
X203914250Y-98840000D01*
X203776885Y-98839039D01*
X204108081Y-98507843D01*
X204675000Y-98507843D01*
X204798462Y-98495683D01*
X204917179Y-98459671D01*
X204994204Y-98418500D01*
X207337458Y-98418500D01*
X207375340Y-98464660D01*
X207562784Y-98618491D01*
X207776637Y-98732798D01*
X208008682Y-98803188D01*
X208189528Y-98821000D01*
X208810472Y-98821000D01*
X208991318Y-98803188D01*
X209223363Y-98732798D01*
X209437216Y-98618491D01*
X209624660Y-98464660D01*
X209778491Y-98277216D01*
X209892798Y-98063363D01*
X209963188Y-97831318D01*
X209986956Y-97590000D01*
X209963188Y-97348682D01*
X209892798Y-97116637D01*
X209778491Y-96902784D01*
X209624660Y-96715340D01*
X209437216Y-96561509D01*
X209239933Y-96456059D01*
X209423777Y-96384911D01*
X209671259Y-96227814D01*
X209883337Y-96025454D01*
X210051862Y-95785608D01*
X210170357Y-95517493D01*
X210191476Y-95406890D01*
X210070155Y-95177000D01*
X208627000Y-95177000D01*
X208627000Y-95197000D01*
X208373000Y-95197000D01*
X208373000Y-95177000D01*
X206929845Y-95177000D01*
X206808524Y-95406890D01*
X206829643Y-95517493D01*
X206948138Y-95785608D01*
X207116663Y-96025454D01*
X207328741Y-96227814D01*
X207576223Y-96384911D01*
X207760067Y-96456059D01*
X207562784Y-96561509D01*
X207447037Y-96656500D01*
X205113145Y-96656500D01*
X205169180Y-96639502D01*
X205279494Y-96580537D01*
X205376185Y-96501185D01*
X205455537Y-96404494D01*
X205514502Y-96294180D01*
X205550812Y-96174482D01*
X205563072Y-96050000D01*
X205560000Y-95748250D01*
X205401250Y-95589500D01*
X204327000Y-95589500D01*
X204327000Y-95609500D01*
X204073000Y-95609500D01*
X204073000Y-95589500D01*
X202998750Y-95589500D01*
X202840000Y-95748250D01*
X202836928Y-96050000D01*
X202849188Y-96174482D01*
X202885498Y-96294180D01*
X202944463Y-96404494D01*
X203023815Y-96501185D01*
X203120506Y-96580537D01*
X203230820Y-96639502D01*
X203350518Y-96675812D01*
X203368780Y-96677611D01*
X203277512Y-96752512D01*
X203198810Y-96848411D01*
X203140329Y-96957821D01*
X203129038Y-96995042D01*
X200666576Y-99457505D01*
X200671000Y-99435262D01*
X200671000Y-99064738D01*
X200598714Y-98701333D01*
X200456920Y-98359013D01*
X200251068Y-98050933D01*
X199989067Y-97788932D01*
X199680987Y-97583080D01*
X199338667Y-97441286D01*
X198975262Y-97369000D01*
X198604738Y-97369000D01*
X198241333Y-97441286D01*
X197899013Y-97583080D01*
X197590933Y-97788932D01*
X197328932Y-98050933D01*
X197123080Y-98359013D01*
X196981286Y-98701333D01*
X196909000Y-99064738D01*
X196909000Y-99435262D01*
X196981286Y-99798667D01*
X197123080Y-100140987D01*
X197328932Y-100449067D01*
X197590933Y-100711068D01*
X197899013Y-100916920D01*
X198241333Y-101058714D01*
X198604738Y-101131000D01*
X198975262Y-101131000D01*
X198997505Y-101126576D01*
X197255081Y-102869000D01*
X193926591Y-102869000D01*
X196365220Y-100430372D01*
X196384527Y-100414527D01*
X196447759Y-100337479D01*
X196494745Y-100249575D01*
X196523678Y-100154193D01*
X196531000Y-100079854D01*
X196531000Y-100079847D01*
X196533447Y-100055001D01*
X196531000Y-100030155D01*
X196531000Y-94875000D01*
X202836928Y-94875000D01*
X202840000Y-95176750D01*
X202998750Y-95335500D01*
X204073000Y-95335500D01*
X204073000Y-94398750D01*
X204327000Y-94398750D01*
X204327000Y-95335500D01*
X205401250Y-95335500D01*
X205560000Y-95176750D01*
X205563072Y-94875000D01*
X205550812Y-94750518D01*
X205533398Y-94693110D01*
X206808524Y-94693110D01*
X206929845Y-94923000D01*
X208373000Y-94923000D01*
X208373000Y-93718504D01*
X208627000Y-93718504D01*
X208627000Y-94923000D01*
X210070155Y-94923000D01*
X210191476Y-94693110D01*
X210170357Y-94582507D01*
X210051862Y-94314392D01*
X209883337Y-94074546D01*
X209671259Y-93872186D01*
X209423777Y-93715089D01*
X209150402Y-93609292D01*
X208861640Y-93558860D01*
X208627000Y-93718504D01*
X208373000Y-93718504D01*
X208138360Y-93558860D01*
X207849598Y-93609292D01*
X207576223Y-93715089D01*
X207328741Y-93872186D01*
X207116663Y-94074546D01*
X206948138Y-94314392D01*
X206829643Y-94582507D01*
X206808524Y-94693110D01*
X205533398Y-94693110D01*
X205514502Y-94630820D01*
X205455537Y-94520506D01*
X205376185Y-94423815D01*
X205279494Y-94344463D01*
X205169180Y-94285498D01*
X205049482Y-94249188D01*
X204925000Y-94236928D01*
X204485750Y-94240000D01*
X204327000Y-94398750D01*
X204073000Y-94398750D01*
X203914250Y-94240000D01*
X203475000Y-94236928D01*
X203350518Y-94249188D01*
X203230820Y-94285498D01*
X203120506Y-94344463D01*
X203023815Y-94423815D01*
X202944463Y-94520506D01*
X202885498Y-94630820D01*
X202849188Y-94750518D01*
X202836928Y-94875000D01*
X196531000Y-94875000D01*
X196531000Y-92753229D01*
X196592179Y-92734671D01*
X196701589Y-92676190D01*
X196797488Y-92597488D01*
X196876190Y-92501589D01*
X196934671Y-92392179D01*
X196970683Y-92273462D01*
X196982843Y-92150001D01*
X196982843Y-91249999D01*
X196970683Y-91126538D01*
X196934671Y-91007821D01*
X196876190Y-90898411D01*
X196797488Y-90802512D01*
X196701589Y-90723810D01*
X196592179Y-90665329D01*
X196473462Y-90629317D01*
X196350001Y-90617157D01*
X195699999Y-90617157D01*
X195576538Y-90629317D01*
X195457821Y-90665329D01*
X195348411Y-90723810D01*
X195252512Y-90802512D01*
X195173810Y-90898411D01*
X195115329Y-91007821D01*
X195079317Y-91126538D01*
X195067157Y-91249999D01*
X195067157Y-92150001D01*
X195079317Y-92273462D01*
X195115329Y-92392179D01*
X195173810Y-92501589D01*
X195252512Y-92597488D01*
X195348411Y-92676190D01*
X195457821Y-92734671D01*
X195519000Y-92753229D01*
X195519001Y-99845407D01*
X192879978Y-102484431D01*
X192842776Y-102464546D01*
X192591411Y-102388295D01*
X192330000Y-102362548D01*
X192068588Y-102388295D01*
X191817223Y-102464546D01*
X191585563Y-102588371D01*
X191382511Y-102755011D01*
X191215871Y-102958064D01*
X191092046Y-103189724D01*
X191060000Y-103295365D01*
X191027954Y-103189723D01*
X190904129Y-102958063D01*
X190737489Y-102755011D01*
X190534436Y-102588371D01*
X190302776Y-102464546D01*
X190051411Y-102388295D01*
X189790000Y-102362548D01*
X189528588Y-102388295D01*
X189277223Y-102464546D01*
X189045563Y-102588371D01*
X188842511Y-102755011D01*
X188840540Y-102757413D01*
X188840572Y-102750000D01*
X188828312Y-102625518D01*
X188792002Y-102505820D01*
X188733037Y-102395506D01*
X188653685Y-102298815D01*
X188556994Y-102219463D01*
X188446680Y-102160498D01*
X188326982Y-102124188D01*
X188202500Y-102111928D01*
X187535750Y-102115000D01*
X187377000Y-102273750D01*
X187377000Y-103623000D01*
X187397000Y-103623000D01*
X187397000Y-103877000D01*
X187377000Y-103877000D01*
X187377000Y-105226250D01*
X187489914Y-105339164D01*
X186936922Y-105892157D01*
X186737500Y-105892157D01*
X186614038Y-105904317D01*
X186495321Y-105940329D01*
X186385911Y-105998810D01*
X186290012Y-106077512D01*
X186215111Y-106168780D01*
X186213312Y-106150518D01*
X186177002Y-106030820D01*
X186118037Y-105920506D01*
X186038685Y-105823815D01*
X185941994Y-105744463D01*
X185831680Y-105685498D01*
X185711982Y-105649188D01*
X185587500Y-105636928D01*
X185285750Y-105640000D01*
X185127000Y-105798750D01*
X185127000Y-106873000D01*
X185147000Y-106873000D01*
X185147000Y-107127000D01*
X185127000Y-107127000D01*
X185127000Y-108201250D01*
X185239914Y-108314164D01*
X182645079Y-110909000D01*
X167622922Y-110909000D01*
X167516881Y-110750298D01*
X167289702Y-110523119D01*
X167022568Y-110344626D01*
X166725745Y-110221678D01*
X166410640Y-110159000D01*
X166089360Y-110159000D01*
X165774255Y-110221678D01*
X165477432Y-110344626D01*
X165247981Y-110497940D01*
X168020921Y-107725000D01*
X183774428Y-107725000D01*
X183786688Y-107849482D01*
X183822998Y-107969180D01*
X183881963Y-108079494D01*
X183961315Y-108176185D01*
X184058006Y-108255537D01*
X184168320Y-108314502D01*
X184288018Y-108350812D01*
X184412500Y-108363072D01*
X184714250Y-108360000D01*
X184873000Y-108201250D01*
X184873000Y-107127000D01*
X183936250Y-107127000D01*
X183777500Y-107285750D01*
X183774428Y-107725000D01*
X168020921Y-107725000D01*
X169470921Y-106275000D01*
X183774428Y-106275000D01*
X183777500Y-106714250D01*
X183936250Y-106873000D01*
X184873000Y-106873000D01*
X184873000Y-105798750D01*
X184714250Y-105640000D01*
X184412500Y-105636928D01*
X184288018Y-105649188D01*
X184168320Y-105685498D01*
X184058006Y-105744463D01*
X183961315Y-105823815D01*
X183881963Y-105920506D01*
X183822998Y-106030820D01*
X183786688Y-106150518D01*
X183774428Y-106275000D01*
X169470921Y-106275000D01*
X170995921Y-104750000D01*
X185659428Y-104750000D01*
X185671688Y-104874482D01*
X185707998Y-104994180D01*
X185766963Y-105104494D01*
X185846315Y-105201185D01*
X185943006Y-105280537D01*
X186053320Y-105339502D01*
X186173018Y-105375812D01*
X186297500Y-105388072D01*
X186964250Y-105385000D01*
X187123000Y-105226250D01*
X187123000Y-103877000D01*
X185821250Y-103877000D01*
X185662500Y-104035750D01*
X185659428Y-104750000D01*
X170995921Y-104750000D01*
X171364922Y-104381000D01*
X171636017Y-104381000D01*
X171902823Y-104327929D01*
X172154149Y-104223826D01*
X172380336Y-104072693D01*
X172572693Y-103880336D01*
X172723826Y-103654149D01*
X172827929Y-103402823D01*
X172881000Y-103136017D01*
X172881000Y-102863983D01*
X172858328Y-102750000D01*
X185659428Y-102750000D01*
X185662500Y-103464250D01*
X185821250Y-103623000D01*
X187123000Y-103623000D01*
X187123000Y-102273750D01*
X186964250Y-102115000D01*
X186297500Y-102111928D01*
X186173018Y-102124188D01*
X186053320Y-102160498D01*
X185943006Y-102219463D01*
X185846315Y-102298815D01*
X185766963Y-102395506D01*
X185707998Y-102505820D01*
X185671688Y-102625518D01*
X185659428Y-102750000D01*
X172858328Y-102750000D01*
X172827929Y-102597177D01*
X172723826Y-102345851D01*
X172572693Y-102119664D01*
X172380336Y-101927307D01*
X172154149Y-101776174D01*
X171902823Y-101672071D01*
X171636017Y-101619000D01*
X171363983Y-101619000D01*
X171097177Y-101672071D01*
X170845851Y-101776174D01*
X170619664Y-101927307D01*
X170427307Y-102119664D01*
X170276174Y-102345851D01*
X170172071Y-102597177D01*
X170119000Y-102863983D01*
X170119000Y-103135078D01*
X163657639Y-109596440D01*
X163624025Y-109624026D01*
X163596440Y-109657639D01*
X163513931Y-109758176D01*
X163432124Y-109911227D01*
X163381748Y-110077296D01*
X163364737Y-110250001D01*
X155127000Y-110250001D01*
X155127000Y-107723672D01*
X157518900Y-107723672D01*
X157518900Y-107956328D01*
X157564289Y-108184514D01*
X157653323Y-108399461D01*
X157782580Y-108592907D01*
X157947093Y-108757420D01*
X158140539Y-108886677D01*
X158355486Y-108975711D01*
X158583672Y-109021100D01*
X158816328Y-109021100D01*
X159044514Y-108975711D01*
X159259461Y-108886677D01*
X159452907Y-108757420D01*
X159617420Y-108592907D01*
X159746677Y-108399461D01*
X159835711Y-108184514D01*
X159881100Y-107956328D01*
X159881100Y-107904821D01*
X163904922Y-103881000D01*
X165347971Y-103881000D01*
X165539664Y-104072693D01*
X165765851Y-104223826D01*
X166017177Y-104327929D01*
X166283983Y-104381000D01*
X166556017Y-104381000D01*
X166822823Y-104327929D01*
X167074149Y-104223826D01*
X167300336Y-104072693D01*
X167492693Y-103880336D01*
X167643826Y-103654149D01*
X167747929Y-103402823D01*
X167801000Y-103136017D01*
X167801000Y-102863983D01*
X167747929Y-102597177D01*
X167643826Y-102345851D01*
X167492693Y-102119664D01*
X167300336Y-101927307D01*
X167074149Y-101776174D01*
X166822823Y-101672071D01*
X166556017Y-101619000D01*
X166283983Y-101619000D01*
X166017177Y-101672071D01*
X165765851Y-101776174D01*
X165539664Y-101927307D01*
X165347971Y-102119000D01*
X163583270Y-102119000D01*
X163540000Y-102114738D01*
X163496730Y-102119000D01*
X163496727Y-102119000D01*
X163367294Y-102131748D01*
X163201225Y-102182125D01*
X163048174Y-102263932D01*
X162991789Y-102310206D01*
X162914025Y-102374025D01*
X162886439Y-102407639D01*
X158635179Y-106658900D01*
X158583672Y-106658900D01*
X158355486Y-106704289D01*
X158140539Y-106793323D01*
X157947093Y-106922580D01*
X157782580Y-107087093D01*
X157653323Y-107280539D01*
X157564289Y-107495486D01*
X157518900Y-107723672D01*
X155127000Y-107723672D01*
X155127000Y-99064738D01*
X178909000Y-99064738D01*
X178909000Y-99435262D01*
X178981286Y-99798667D01*
X179123080Y-100140987D01*
X179328932Y-100449067D01*
X179590933Y-100711068D01*
X179899013Y-100916920D01*
X180241333Y-101058714D01*
X180604738Y-101131000D01*
X180975262Y-101131000D01*
X181338667Y-101058714D01*
X181680987Y-100916920D01*
X181989067Y-100711068D01*
X182251068Y-100449067D01*
X182456920Y-100140987D01*
X182598714Y-99798667D01*
X182671000Y-99435262D01*
X182671000Y-99064738D01*
X182598714Y-98701333D01*
X182456920Y-98359013D01*
X182251068Y-98050933D01*
X181989067Y-97788932D01*
X181680987Y-97583080D01*
X181338667Y-97441286D01*
X180975262Y-97369000D01*
X180604738Y-97369000D01*
X180241333Y-97441286D01*
X179899013Y-97583080D01*
X179590933Y-97788932D01*
X179328932Y-98050933D01*
X179123080Y-98359013D01*
X178981286Y-98701333D01*
X178909000Y-99064738D01*
X155127000Y-99064738D01*
X155127000Y-94703400D01*
X167988571Y-94703400D01*
X167988571Y-95296600D01*
X168104299Y-95878401D01*
X168331306Y-96426447D01*
X168660870Y-96919674D01*
X169080326Y-97339130D01*
X169573553Y-97668694D01*
X170121599Y-97895701D01*
X170703400Y-98011429D01*
X171296600Y-98011429D01*
X171878401Y-97895701D01*
X172426447Y-97668694D01*
X172919674Y-97339130D01*
X173339130Y-96919674D01*
X173668694Y-96426447D01*
X173895701Y-95878401D01*
X174011429Y-95296600D01*
X174011429Y-94703400D01*
X173895701Y-94121599D01*
X173668694Y-93573553D01*
X173339130Y-93080326D01*
X172919674Y-92660870D01*
X172604085Y-92450000D01*
X182161928Y-92450000D01*
X182174188Y-92574482D01*
X182210498Y-92694180D01*
X182269463Y-92804494D01*
X182348815Y-92901185D01*
X182445506Y-92980537D01*
X182555820Y-93039502D01*
X182675518Y-93075812D01*
X182800000Y-93088072D01*
X183089250Y-93085000D01*
X183248000Y-92926250D01*
X183248000Y-91877000D01*
X182323750Y-91877000D01*
X182165000Y-92035750D01*
X182161928Y-92450000D01*
X172604085Y-92450000D01*
X172426447Y-92331306D01*
X171878401Y-92104299D01*
X171296600Y-91988571D01*
X170703400Y-91988571D01*
X170121599Y-92104299D01*
X169573553Y-92331306D01*
X169080326Y-92660870D01*
X168660870Y-93080326D01*
X168331306Y-93573553D01*
X168104299Y-94121599D01*
X167988571Y-94703400D01*
X155127000Y-94703400D01*
X155127000Y-91050000D01*
X182161928Y-91050000D01*
X182165000Y-91464250D01*
X182323750Y-91623000D01*
X183248000Y-91623000D01*
X183248000Y-90573750D01*
X183502000Y-90573750D01*
X183502000Y-91623000D01*
X183522000Y-91623000D01*
X183522000Y-91877000D01*
X183502000Y-91877000D01*
X183502000Y-92926250D01*
X183660750Y-93085000D01*
X183950000Y-93088072D01*
X184074482Y-93075812D01*
X184194180Y-93039502D01*
X184304494Y-92980537D01*
X184401185Y-92901185D01*
X184480537Y-92804494D01*
X184539502Y-92694180D01*
X184575812Y-92574482D01*
X184577611Y-92556220D01*
X184652512Y-92647488D01*
X184748411Y-92726190D01*
X184857821Y-92784671D01*
X184976538Y-92820683D01*
X185099999Y-92832843D01*
X185750001Y-92832843D01*
X185873462Y-92820683D01*
X185992179Y-92784671D01*
X186101589Y-92726190D01*
X186197488Y-92647488D01*
X186276190Y-92551589D01*
X186334671Y-92442179D01*
X186370683Y-92323462D01*
X186382843Y-92200001D01*
X186382843Y-91956000D01*
X187817157Y-91956000D01*
X187817157Y-92150001D01*
X187829317Y-92273462D01*
X187865329Y-92392179D01*
X187923810Y-92501589D01*
X188002512Y-92597488D01*
X188098411Y-92676190D01*
X188207821Y-92734671D01*
X188326538Y-92770683D01*
X188449999Y-92782843D01*
X189150001Y-92782843D01*
X189273462Y-92770683D01*
X189392179Y-92734671D01*
X189501589Y-92676190D01*
X189597488Y-92597488D01*
X189676190Y-92501589D01*
X189734671Y-92392179D01*
X189770683Y-92273462D01*
X189782843Y-92150001D01*
X189782843Y-91249999D01*
X189817157Y-91249999D01*
X189817157Y-92150001D01*
X189829317Y-92273462D01*
X189865329Y-92392179D01*
X189923810Y-92501589D01*
X190002512Y-92597488D01*
X190098411Y-92676190D01*
X190207821Y-92734671D01*
X190326538Y-92770683D01*
X190449999Y-92782843D01*
X191150001Y-92782843D01*
X191273462Y-92770683D01*
X191392179Y-92734671D01*
X191501589Y-92676190D01*
X191597488Y-92597488D01*
X191676190Y-92501589D01*
X191734671Y-92392179D01*
X191770683Y-92273462D01*
X191782843Y-92150001D01*
X191782843Y-91956000D01*
X193017157Y-91956000D01*
X193017157Y-92150001D01*
X193029317Y-92273462D01*
X193065329Y-92392179D01*
X193123810Y-92501589D01*
X193202512Y-92597488D01*
X193298411Y-92676190D01*
X193407821Y-92734671D01*
X193526538Y-92770683D01*
X193649999Y-92782843D01*
X194300001Y-92782843D01*
X194423462Y-92770683D01*
X194542179Y-92734671D01*
X194651589Y-92676190D01*
X194747488Y-92597488D01*
X194826190Y-92501589D01*
X194884671Y-92392179D01*
X194920683Y-92273462D01*
X194932843Y-92150001D01*
X194932843Y-91249999D01*
X194920683Y-91126538D01*
X194884671Y-91007821D01*
X194826190Y-90898411D01*
X194747488Y-90802512D01*
X194651589Y-90723810D01*
X194542179Y-90665329D01*
X194423462Y-90629317D01*
X194300001Y-90617157D01*
X193649999Y-90617157D01*
X193526538Y-90629317D01*
X193407821Y-90665329D01*
X193298411Y-90723810D01*
X193202512Y-90802512D01*
X193123810Y-90898411D01*
X193099442Y-90944000D01*
X191700558Y-90944000D01*
X191676190Y-90898411D01*
X191597488Y-90802512D01*
X191501589Y-90723810D01*
X191392179Y-90665329D01*
X191273462Y-90629317D01*
X191150001Y-90617157D01*
X190449999Y-90617157D01*
X190326538Y-90629317D01*
X190207821Y-90665329D01*
X190098411Y-90723810D01*
X190002512Y-90802512D01*
X189923810Y-90898411D01*
X189865329Y-91007821D01*
X189829317Y-91126538D01*
X189817157Y-91249999D01*
X189782843Y-91249999D01*
X189770683Y-91126538D01*
X189734671Y-91007821D01*
X189676190Y-90898411D01*
X189597488Y-90802512D01*
X189501589Y-90723810D01*
X189392179Y-90665329D01*
X189273462Y-90629317D01*
X189150001Y-90617157D01*
X188449999Y-90617157D01*
X188326538Y-90629317D01*
X188207821Y-90665329D01*
X188098411Y-90723810D01*
X188002512Y-90802512D01*
X187923810Y-90898411D01*
X187899442Y-90944000D01*
X186272570Y-90944000D01*
X186197488Y-90852512D01*
X186101589Y-90773810D01*
X185992179Y-90715329D01*
X185873462Y-90679317D01*
X185750001Y-90667157D01*
X185099999Y-90667157D01*
X184976538Y-90679317D01*
X184857821Y-90715329D01*
X184748411Y-90773810D01*
X184652512Y-90852512D01*
X184577611Y-90943780D01*
X184575812Y-90925518D01*
X184539502Y-90805820D01*
X184480537Y-90695506D01*
X184401185Y-90598815D01*
X184304494Y-90519463D01*
X184194180Y-90460498D01*
X184074482Y-90424188D01*
X183950000Y-90411928D01*
X183660750Y-90415000D01*
X183502000Y-90573750D01*
X183248000Y-90573750D01*
X183089250Y-90415000D01*
X182800000Y-90411928D01*
X182675518Y-90424188D01*
X182555820Y-90460498D01*
X182445506Y-90519463D01*
X182348815Y-90598815D01*
X182269463Y-90695506D01*
X182210498Y-90805820D01*
X182174188Y-90925518D01*
X182161928Y-91050000D01*
X155127000Y-91050000D01*
X155127000Y-90406000D01*
X216594000Y-90406000D01*
X216594001Y-125864132D01*
G37*
G04 #@! TD.AperFunction*
D31*
X207013044Y-105210000D02*
X207036812Y-105451318D01*
X207107202Y-105683363D01*
X207221509Y-105897216D01*
X207375340Y-106084660D01*
X207562784Y-106238491D01*
X207776637Y-106352798D01*
X208008682Y-106423188D01*
X208189528Y-106441000D01*
X208810472Y-106441000D01*
X208991318Y-106423188D01*
X209175077Y-106367445D01*
X209324788Y-106517157D01*
X207400000Y-106517157D01*
X207325311Y-106524513D01*
X207253492Y-106546299D01*
X207187304Y-106581678D01*
X207129289Y-106629289D01*
X207081678Y-106687304D01*
X207046299Y-106753492D01*
X207024513Y-106825311D01*
X207017157Y-106900000D01*
X207017157Y-108600000D01*
X207024513Y-108674689D01*
X207046299Y-108746508D01*
X207081678Y-108812696D01*
X207129289Y-108870711D01*
X207187304Y-108918322D01*
X207253492Y-108953701D01*
X207325311Y-108975487D01*
X207400000Y-108982843D01*
X207869001Y-108982843D01*
X207869000Y-120706510D01*
X207865948Y-120737500D01*
X207869000Y-120768490D01*
X207869000Y-120768497D01*
X207878130Y-120861197D01*
X207914211Y-120980141D01*
X207972804Y-121089760D01*
X208051657Y-121185843D01*
X208075737Y-121205605D01*
X210492157Y-123622026D01*
X210492157Y-124175000D01*
X210498580Y-124240211D01*
X207581001Y-121322633D01*
X207581001Y-113230991D01*
X207584053Y-113200001D01*
X207581001Y-113169010D01*
X207581001Y-113169003D01*
X207571871Y-113076303D01*
X207535790Y-112957359D01*
X207477197Y-112847740D01*
X207418104Y-112775735D01*
X207418102Y-112775733D01*
X207398344Y-112751658D01*
X207374270Y-112731901D01*
X206056010Y-111413642D01*
X206056010Y-105593500D01*
X206176510Y-105593500D01*
X206207500Y-105596552D01*
X206238490Y-105593500D01*
X206238498Y-105593500D01*
X206331198Y-105584370D01*
X206450142Y-105548289D01*
X206559761Y-105489696D01*
X206655843Y-105410843D01*
X206675605Y-105386763D01*
X207030598Y-105031770D01*
X207013044Y-105210000D01*
G04 #@! TA.AperFunction,Conductor*
D32*
G36*
X207013044Y-105210000D02*
G01*
X207036812Y-105451318D01*
X207107202Y-105683363D01*
X207221509Y-105897216D01*
X207375340Y-106084660D01*
X207562784Y-106238491D01*
X207776637Y-106352798D01*
X208008682Y-106423188D01*
X208189528Y-106441000D01*
X208810472Y-106441000D01*
X208991318Y-106423188D01*
X209175077Y-106367445D01*
X209324788Y-106517157D01*
X207400000Y-106517157D01*
X207325311Y-106524513D01*
X207253492Y-106546299D01*
X207187304Y-106581678D01*
X207129289Y-106629289D01*
X207081678Y-106687304D01*
X207046299Y-106753492D01*
X207024513Y-106825311D01*
X207017157Y-106900000D01*
X207017157Y-108600000D01*
X207024513Y-108674689D01*
X207046299Y-108746508D01*
X207081678Y-108812696D01*
X207129289Y-108870711D01*
X207187304Y-108918322D01*
X207253492Y-108953701D01*
X207325311Y-108975487D01*
X207400000Y-108982843D01*
X207869001Y-108982843D01*
X207869000Y-120706510D01*
X207865948Y-120737500D01*
X207869000Y-120768490D01*
X207869000Y-120768497D01*
X207878130Y-120861197D01*
X207914211Y-120980141D01*
X207972804Y-121089760D01*
X208051657Y-121185843D01*
X208075737Y-121205605D01*
X210492157Y-123622026D01*
X210492157Y-124175000D01*
X210498580Y-124240211D01*
X207581001Y-121322633D01*
X207581001Y-113230991D01*
X207584053Y-113200001D01*
X207581001Y-113169010D01*
X207581001Y-113169003D01*
X207571871Y-113076303D01*
X207535790Y-112957359D01*
X207477197Y-112847740D01*
X207418104Y-112775735D01*
X207418102Y-112775733D01*
X207398344Y-112751658D01*
X207374270Y-112731901D01*
X206056010Y-111413642D01*
X206056010Y-105593500D01*
X206176510Y-105593500D01*
X206207500Y-105596552D01*
X206238490Y-105593500D01*
X206238498Y-105593500D01*
X206331198Y-105584370D01*
X206450142Y-105548289D01*
X206559761Y-105489696D01*
X206655843Y-105410843D01*
X206675605Y-105386763D01*
X207030598Y-105031770D01*
X207013044Y-105210000D01*
G37*
G04 #@! TD.AperFunction*
D31*
X212906501Y-120786223D02*
X212906500Y-122667761D01*
X212848411Y-122698810D01*
X212752512Y-122777512D01*
X212673810Y-122873411D01*
X212615329Y-122982821D01*
X212579317Y-123101538D01*
X212567157Y-123225000D01*
X212567157Y-123912288D01*
X212432843Y-123777975D01*
X212432843Y-123225000D01*
X212420683Y-123101538D01*
X212384671Y-122982821D01*
X212326190Y-122873411D01*
X212247488Y-122777512D01*
X212151589Y-122698810D01*
X212042179Y-122640329D01*
X211923462Y-122604317D01*
X211800000Y-122592157D01*
X211247026Y-122592157D01*
X209131000Y-120476132D01*
X209131000Y-117010721D01*
X212906501Y-120786223D01*
G04 #@! TA.AperFunction,Conductor*
D32*
G36*
X212906501Y-120786223D02*
G01*
X212906500Y-122667761D01*
X212848411Y-122698810D01*
X212752512Y-122777512D01*
X212673810Y-122873411D01*
X212615329Y-122982821D01*
X212579317Y-123101538D01*
X212567157Y-123225000D01*
X212567157Y-123912288D01*
X212432843Y-123777975D01*
X212432843Y-123225000D01*
X212420683Y-123101538D01*
X212384671Y-122982821D01*
X212326190Y-122873411D01*
X212247488Y-122777512D01*
X212151589Y-122698810D01*
X212042179Y-122640329D01*
X211923462Y-122604317D01*
X211800000Y-122592157D01*
X211247026Y-122592157D01*
X209131000Y-120476132D01*
X209131000Y-117010721D01*
X212906501Y-120786223D01*
G37*
G04 #@! TD.AperFunction*
D31*
X207036812Y-102911318D02*
X207107202Y-103143363D01*
X207116630Y-103161001D01*
X205946132Y-104331500D01*
X205493490Y-104331500D01*
X205462500Y-104328448D01*
X205431510Y-104331500D01*
X205232239Y-104331500D01*
X205201190Y-104273411D01*
X205122488Y-104177512D01*
X205026589Y-104098810D01*
X204917179Y-104040329D01*
X204798462Y-104004317D01*
X204675000Y-103992157D01*
X203725000Y-103992157D01*
X203601538Y-104004317D01*
X203569337Y-104014085D01*
X204475579Y-103107843D01*
X204675000Y-103107843D01*
X204798462Y-103095683D01*
X204917179Y-103059671D01*
X204994204Y-103018500D01*
X206449230Y-103018500D01*
X206492500Y-103022762D01*
X206535770Y-103018500D01*
X206535773Y-103018500D01*
X206665206Y-103005752D01*
X206831275Y-102955375D01*
X206984325Y-102873568D01*
X207029447Y-102836538D01*
X207036812Y-102911318D01*
G04 #@! TA.AperFunction,Conductor*
D32*
G36*
X207036812Y-102911318D02*
G01*
X207107202Y-103143363D01*
X207116630Y-103161001D01*
X205946132Y-104331500D01*
X205493490Y-104331500D01*
X205462500Y-104328448D01*
X205431510Y-104331500D01*
X205232239Y-104331500D01*
X205201190Y-104273411D01*
X205122488Y-104177512D01*
X205026589Y-104098810D01*
X204917179Y-104040329D01*
X204798462Y-104004317D01*
X204675000Y-103992157D01*
X203725000Y-103992157D01*
X203601538Y-104004317D01*
X203569337Y-104014085D01*
X204475579Y-103107843D01*
X204675000Y-103107843D01*
X204798462Y-103095683D01*
X204917179Y-103059671D01*
X204994204Y-103018500D01*
X206449230Y-103018500D01*
X206492500Y-103022762D01*
X206535770Y-103018500D01*
X206535773Y-103018500D01*
X206665206Y-103005752D01*
X206831275Y-102955375D01*
X206984325Y-102873568D01*
X207029447Y-102836538D01*
X207036812Y-102911318D01*
G37*
G04 #@! TD.AperFunction*
M02*
