G04 #@! TF.GenerationSoftware,KiCad,Pcbnew,(5.1.10)-1*
G04 #@! TF.CreationDate,2021-11-25T14:07:26+01:00*
G04 #@! TF.ProjectId,PSU,5053552e-6b69-4636-9164-5f7063625858,rev?*
G04 #@! TF.SameCoordinates,Original*
G04 #@! TF.FileFunction,Legend,Bot*
G04 #@! TF.FilePolarity,Positive*
%FSLAX46Y46*%
G04 Gerber Fmt 4.6, Leading zero omitted, Abs format (unit mm)*
G04 Created by KiCad (PCBNEW (5.1.10)-1) date 2021-11-25 14:07:26*
%MOMM*%
%LPD*%
G01*
G04 APERTURE LIST*
%ADD10C,0.150000*%
%ADD11C,2.400000*%
%ADD12R,2.400000X2.400000*%
%ADD13C,4.000000*%
%ADD14C,2.844800*%
%ADD15C,1.600200*%
%ADD16R,1.600200X1.600200*%
%ADD17C,1.524000*%
%ADD18C,3.000000*%
%ADD19O,1.905000X2.000000*%
%ADD20R,1.905000X2.000000*%
%ADD21C,1.800000*%
%ADD22O,2.200000X1.700000*%
%ADD23R,2.200000X1.700000*%
%ADD24C,7.000000*%
%ADD25C,2.000000*%
%ADD26C,2.500000*%
%ADD27R,2.500000X2.500000*%
G04 APERTURE END LIST*
D10*
X150552380Y-110095238D02*
X149552380Y-110095238D01*
X149552380Y-110476190D01*
X149600000Y-110571428D01*
X149647619Y-110619047D01*
X149742857Y-110666666D01*
X149885714Y-110666666D01*
X149980952Y-110619047D01*
X150028571Y-110571428D01*
X150076190Y-110476190D01*
X150076190Y-110095238D01*
X150504761Y-111047619D02*
X150552380Y-111190476D01*
X150552380Y-111428571D01*
X150504761Y-111523809D01*
X150457142Y-111571428D01*
X150361904Y-111619047D01*
X150266666Y-111619047D01*
X150171428Y-111571428D01*
X150123809Y-111523809D01*
X150076190Y-111428571D01*
X150028571Y-111238095D01*
X149980952Y-111142857D01*
X149933333Y-111095238D01*
X149838095Y-111047619D01*
X149742857Y-111047619D01*
X149647619Y-111095238D01*
X149600000Y-111142857D01*
X149552380Y-111238095D01*
X149552380Y-111476190D01*
X149600000Y-111619047D01*
X149552380Y-112047619D02*
X150361904Y-112047619D01*
X150457142Y-112095238D01*
X150504761Y-112142857D01*
X150552380Y-112238095D01*
X150552380Y-112428571D01*
X150504761Y-112523809D01*
X150457142Y-112571428D01*
X150361904Y-112619047D01*
X149552380Y-112619047D01*
X150457142Y-113095238D02*
X150504761Y-113142857D01*
X150552380Y-113095238D01*
X150504761Y-113047619D01*
X150457142Y-113095238D01*
X150552380Y-113095238D01*
X149933333Y-113095238D02*
X149980952Y-113142857D01*
X150028571Y-113095238D01*
X149980952Y-113047619D01*
X149933333Y-113095238D01*
X150028571Y-113095238D01*
X150552380Y-114333333D02*
X149552380Y-114333333D01*
X149552380Y-114571428D01*
X149600000Y-114714285D01*
X149695238Y-114809523D01*
X149790476Y-114857142D01*
X149980952Y-114904761D01*
X150123809Y-114904761D01*
X150314285Y-114857142D01*
X150409523Y-114809523D01*
X150504761Y-114714285D01*
X150552380Y-114571428D01*
X150552380Y-114333333D01*
X149885714Y-115761904D02*
X150552380Y-115761904D01*
X149885714Y-115333333D02*
X150409523Y-115333333D01*
X150504761Y-115380952D01*
X150552380Y-115476190D01*
X150552380Y-115619047D01*
X150504761Y-115714285D01*
X150457142Y-115761904D01*
X150552380Y-116666666D02*
X150028571Y-116666666D01*
X149933333Y-116619047D01*
X149885714Y-116523809D01*
X149885714Y-116333333D01*
X149933333Y-116238095D01*
X150504761Y-116666666D02*
X150552380Y-116571428D01*
X150552380Y-116333333D01*
X150504761Y-116238095D01*
X150409523Y-116190476D01*
X150314285Y-116190476D01*
X150219047Y-116238095D01*
X150171428Y-116333333D01*
X150171428Y-116571428D01*
X150123809Y-116666666D01*
X150552380Y-117285714D02*
X150504761Y-117190476D01*
X150409523Y-117142857D01*
X149552380Y-117142857D01*
X150171428Y-118428571D02*
X150171428Y-119190476D01*
X150552380Y-118809523D02*
X149790476Y-118809523D01*
X150552380Y-120428571D02*
X149885714Y-120428571D01*
X149552380Y-120428571D02*
X149600000Y-120380952D01*
X149647619Y-120428571D01*
X149600000Y-120476190D01*
X149552380Y-120428571D01*
X149647619Y-120428571D01*
X150504761Y-120857142D02*
X150552380Y-120952380D01*
X150552380Y-121142857D01*
X150504761Y-121238095D01*
X150409523Y-121285714D01*
X150361904Y-121285714D01*
X150266666Y-121238095D01*
X150219047Y-121142857D01*
X150219047Y-121000000D01*
X150171428Y-120904761D01*
X150076190Y-120857142D01*
X150028571Y-120857142D01*
X149933333Y-120904761D01*
X149885714Y-121000000D01*
X149885714Y-121142857D01*
X149933333Y-121238095D01*
X150552380Y-121857142D02*
X150504761Y-121761904D01*
X150457142Y-121714285D01*
X150361904Y-121666666D01*
X150076190Y-121666666D01*
X149980952Y-121714285D01*
X149933333Y-121761904D01*
X149885714Y-121857142D01*
X149885714Y-122000000D01*
X149933333Y-122095238D01*
X149980952Y-122142857D01*
X150076190Y-122190476D01*
X150361904Y-122190476D01*
X150457142Y-122142857D01*
X150504761Y-122095238D01*
X150552380Y-122000000D01*
X150552380Y-121857142D01*
X150552380Y-122761904D02*
X150504761Y-122666666D01*
X150409523Y-122619047D01*
X149552380Y-122619047D01*
X150552380Y-123571428D02*
X150028571Y-123571428D01*
X149933333Y-123523809D01*
X149885714Y-123428571D01*
X149885714Y-123238095D01*
X149933333Y-123142857D01*
X150504761Y-123571428D02*
X150552380Y-123476190D01*
X150552380Y-123238095D01*
X150504761Y-123142857D01*
X150409523Y-123095238D01*
X150314285Y-123095238D01*
X150219047Y-123142857D01*
X150171428Y-123238095D01*
X150171428Y-123476190D01*
X150123809Y-123571428D01*
X149885714Y-123904761D02*
X149885714Y-124285714D01*
X149552380Y-124047619D02*
X150409523Y-124047619D01*
X150504761Y-124095238D01*
X150552380Y-124190476D01*
X150552380Y-124285714D01*
X150504761Y-125000000D02*
X150552380Y-124904761D01*
X150552380Y-124714285D01*
X150504761Y-124619047D01*
X150409523Y-124571428D01*
X150028571Y-124571428D01*
X149933333Y-124619047D01*
X149885714Y-124714285D01*
X149885714Y-124904761D01*
X149933333Y-125000000D01*
X150028571Y-125047619D01*
X150123809Y-125047619D01*
X150219047Y-124571428D01*
X150552380Y-125904761D02*
X149552380Y-125904761D01*
X150504761Y-125904761D02*
X150552380Y-125809523D01*
X150552380Y-125619047D01*
X150504761Y-125523809D01*
X150457142Y-125476190D01*
X150361904Y-125428571D01*
X150076190Y-125428571D01*
X149980952Y-125476190D01*
X149933333Y-125523809D01*
X149885714Y-125619047D01*
X149885714Y-125809523D01*
X149933333Y-125904761D01*
X151297619Y-113619047D02*
X151250000Y-113666666D01*
X151202380Y-113761904D01*
X151202380Y-114000000D01*
X151250000Y-114095238D01*
X151297619Y-114142857D01*
X151392857Y-114190476D01*
X151488095Y-114190476D01*
X151630952Y-114142857D01*
X152202380Y-113571428D01*
X152202380Y-114190476D01*
X152202380Y-115142857D02*
X152202380Y-114571428D01*
X152202380Y-114857142D02*
X151202380Y-114857142D01*
X151345238Y-114761904D01*
X151440476Y-114666666D01*
X151488095Y-114571428D01*
X152297619Y-115333333D02*
X152297619Y-116095238D01*
X151535714Y-116761904D02*
X152202380Y-116761904D01*
X151154761Y-116523809D02*
X151869047Y-116285714D01*
X151869047Y-116904761D01*
X151202380Y-117190476D02*
X151202380Y-117857142D01*
X152202380Y-117428571D01*
X152297619Y-118000000D02*
X152297619Y-118761904D01*
X151202380Y-119190476D02*
X151202380Y-119285714D01*
X151250000Y-119380952D01*
X151297619Y-119428571D01*
X151392857Y-119476190D01*
X151583333Y-119523809D01*
X151821428Y-119523809D01*
X152011904Y-119476190D01*
X152107142Y-119428571D01*
X152154761Y-119380952D01*
X152202380Y-119285714D01*
X152202380Y-119190476D01*
X152154761Y-119095238D01*
X152107142Y-119047619D01*
X152011904Y-119000000D01*
X151821428Y-118952380D01*
X151583333Y-118952380D01*
X151392857Y-119000000D01*
X151297619Y-119047619D01*
X151250000Y-119095238D01*
X151202380Y-119190476D01*
X151202380Y-120142857D02*
X151202380Y-120238095D01*
X151250000Y-120333333D01*
X151297619Y-120380952D01*
X151392857Y-120428571D01*
X151583333Y-120476190D01*
X151821428Y-120476190D01*
X152011904Y-120428571D01*
X152107142Y-120380952D01*
X152154761Y-120333333D01*
X152202380Y-120238095D01*
X152202380Y-120142857D01*
X152154761Y-120047619D01*
X152107142Y-120000000D01*
X152011904Y-119952380D01*
X151821428Y-119904761D01*
X151583333Y-119904761D01*
X151392857Y-119952380D01*
X151297619Y-120000000D01*
X151250000Y-120047619D01*
X151202380Y-120142857D01*
X151630952Y-121047619D02*
X151583333Y-120952380D01*
X151535714Y-120904761D01*
X151440476Y-120857142D01*
X151392857Y-120857142D01*
X151297619Y-120904761D01*
X151250000Y-120952380D01*
X151202380Y-121047619D01*
X151202380Y-121238095D01*
X151250000Y-121333333D01*
X151297619Y-121380952D01*
X151392857Y-121428571D01*
X151440476Y-121428571D01*
X151535714Y-121380952D01*
X151583333Y-121333333D01*
X151630952Y-121238095D01*
X151630952Y-121047619D01*
X151678571Y-120952380D01*
X151726190Y-120904761D01*
X151821428Y-120857142D01*
X152011904Y-120857142D01*
X152107142Y-120904761D01*
X152154761Y-120952380D01*
X152202380Y-121047619D01*
X152202380Y-121238095D01*
X152154761Y-121333333D01*
X152107142Y-121380952D01*
X152011904Y-121428571D01*
X151821428Y-121428571D01*
X151726190Y-121380952D01*
X151678571Y-121333333D01*
X151630952Y-121238095D01*
X151297619Y-121809523D02*
X151250000Y-121857142D01*
X151202380Y-121952380D01*
X151202380Y-122190476D01*
X151250000Y-122285714D01*
X151297619Y-122333333D01*
X151392857Y-122380952D01*
X151488095Y-122380952D01*
X151630952Y-122333333D01*
X152202380Y-121761904D01*
X152202380Y-122380952D01*
X153328571Y-112547619D02*
X153376190Y-112690476D01*
X153423809Y-112738095D01*
X153519047Y-112785714D01*
X153661904Y-112785714D01*
X153757142Y-112738095D01*
X153804761Y-112690476D01*
X153852380Y-112595238D01*
X153852380Y-112214285D01*
X152852380Y-112214285D01*
X152852380Y-112547619D01*
X152900000Y-112642857D01*
X152947619Y-112690476D01*
X153042857Y-112738095D01*
X153138095Y-112738095D01*
X153233333Y-112690476D01*
X153280952Y-112642857D01*
X153328571Y-112547619D01*
X153328571Y-112214285D01*
X153185714Y-113214285D02*
X154042857Y-113214285D01*
X154138095Y-113166666D01*
X154185714Y-113071428D01*
X154185714Y-113023809D01*
X152852380Y-113214285D02*
X152900000Y-113166666D01*
X152947619Y-113214285D01*
X152900000Y-113261904D01*
X152852380Y-113214285D01*
X152947619Y-113214285D01*
X153185714Y-114214285D02*
X153852380Y-113595238D01*
X153852380Y-113833333D02*
X153804761Y-113738095D01*
X153757142Y-113690476D01*
X153661904Y-113642857D01*
X153376190Y-113642857D01*
X153280952Y-113690476D01*
X153233333Y-113738095D01*
X153185714Y-113833333D01*
X153185714Y-113976190D01*
X153233333Y-114071428D01*
X153280952Y-114119047D01*
X153376190Y-114166666D01*
X153661904Y-114166666D01*
X153757142Y-114119047D01*
X153804761Y-114071428D01*
X153852380Y-113976190D01*
X153852380Y-113833333D01*
X153852380Y-114595238D02*
X153185714Y-114595238D01*
X153376190Y-114595238D02*
X153280952Y-114642857D01*
X153233333Y-114690476D01*
X153185714Y-114785714D01*
X153185714Y-114880952D01*
X153185714Y-115214285D02*
X153852380Y-115214285D01*
X153280952Y-115214285D02*
X153233333Y-115261904D01*
X153185714Y-115357142D01*
X153185714Y-115500000D01*
X153233333Y-115595238D01*
X153328571Y-115642857D01*
X153852380Y-115642857D01*
X153804761Y-116500000D02*
X153852380Y-116404761D01*
X153852380Y-116214285D01*
X153804761Y-116119047D01*
X153709523Y-116071428D01*
X153328571Y-116071428D01*
X153233333Y-116119047D01*
X153185714Y-116214285D01*
X153185714Y-116404761D01*
X153233333Y-116500000D01*
X153328571Y-116547619D01*
X153423809Y-116547619D01*
X153519047Y-116071428D01*
X153852380Y-116976190D02*
X153185714Y-116976190D01*
X153376190Y-116976190D02*
X153280952Y-117023809D01*
X153233333Y-117071428D01*
X153185714Y-117166666D01*
X153185714Y-117261904D01*
X153804761Y-118309523D02*
X153852380Y-118452380D01*
X153852380Y-118690476D01*
X153804761Y-118785714D01*
X153757142Y-118833333D01*
X153661904Y-118880952D01*
X153566666Y-118880952D01*
X153471428Y-118833333D01*
X153423809Y-118785714D01*
X153376190Y-118690476D01*
X153328571Y-118500000D01*
X153280952Y-118404761D01*
X153233333Y-118357142D01*
X153138095Y-118309523D01*
X153042857Y-118309523D01*
X152947619Y-118357142D01*
X152900000Y-118404761D01*
X152852380Y-118500000D01*
X152852380Y-118738095D01*
X152900000Y-118880952D01*
X153852380Y-119738095D02*
X153328571Y-119738095D01*
X153233333Y-119690476D01*
X153185714Y-119595238D01*
X153185714Y-119404761D01*
X153233333Y-119309523D01*
X153804761Y-119738095D02*
X153852380Y-119642857D01*
X153852380Y-119404761D01*
X153804761Y-119309523D01*
X153709523Y-119261904D01*
X153614285Y-119261904D01*
X153519047Y-119309523D01*
X153471428Y-119404761D01*
X153471428Y-119642857D01*
X153423809Y-119738095D01*
X153185714Y-120214285D02*
X153852380Y-120214285D01*
X153280952Y-120214285D02*
X153233333Y-120261904D01*
X153185714Y-120357142D01*
X153185714Y-120500000D01*
X153233333Y-120595238D01*
X153328571Y-120642857D01*
X153852380Y-120642857D01*
X153852380Y-121547619D02*
X152852380Y-121547619D01*
X153804761Y-121547619D02*
X153852380Y-121452380D01*
X153852380Y-121261904D01*
X153804761Y-121166666D01*
X153757142Y-121119047D01*
X153661904Y-121071428D01*
X153376190Y-121071428D01*
X153280952Y-121119047D01*
X153233333Y-121166666D01*
X153185714Y-121261904D01*
X153185714Y-121452380D01*
X153233333Y-121547619D01*
X153852380Y-122166666D02*
X153804761Y-122071428D01*
X153757142Y-122023809D01*
X153661904Y-121976190D01*
X153376190Y-121976190D01*
X153280952Y-122023809D01*
X153233333Y-122071428D01*
X153185714Y-122166666D01*
X153185714Y-122309523D01*
X153233333Y-122404761D01*
X153280952Y-122452380D01*
X153376190Y-122500000D01*
X153661904Y-122500000D01*
X153757142Y-122452380D01*
X153804761Y-122404761D01*
X153852380Y-122309523D01*
X153852380Y-122166666D01*
X153852380Y-122928571D02*
X153185714Y-122928571D01*
X153280952Y-122928571D02*
X153233333Y-122976190D01*
X153185714Y-123071428D01*
X153185714Y-123214285D01*
X153233333Y-123309523D01*
X153328571Y-123357142D01*
X153852380Y-123357142D01*
X153328571Y-123357142D02*
X153233333Y-123404761D01*
X153185714Y-123500000D01*
X153185714Y-123642857D01*
X153233333Y-123738095D01*
X153328571Y-123785714D01*
X153852380Y-123785714D01*
%LPC*%
D11*
X187250000Y-117750000D03*
D12*
X182250000Y-117750000D03*
D11*
X204000000Y-117750000D03*
D12*
X199000000Y-117750000D03*
D13*
X125500000Y-129380000D03*
X125500000Y-123000000D03*
X125500000Y-112880000D03*
X125500000Y-106500000D03*
D14*
X159487400Y-118000000D03*
X132512600Y-118000000D03*
D15*
X158700000Y-128160000D03*
X158700000Y-123080000D03*
X158700000Y-112920000D03*
X158700000Y-107840000D03*
X133300000Y-128160000D03*
X133300000Y-123080000D03*
X133300000Y-112920000D03*
D16*
X133300000Y-107840000D03*
D17*
X213355600Y-143628600D03*
X210815600Y-143628600D03*
X208275600Y-143628600D03*
X205735600Y-143628600D03*
D18*
X198790000Y-99250000D03*
X180790000Y-99250000D03*
D19*
X192330000Y-103750000D03*
X189790000Y-103750000D03*
D20*
X187250000Y-103750000D03*
D18*
X180710000Y-136750000D03*
X198710000Y-136750000D03*
D19*
X187170000Y-132250000D03*
X189710000Y-132250000D03*
D20*
X192250000Y-132250000D03*
D21*
X140500000Y-141100000D03*
X148000000Y-143000000D03*
D22*
X208500000Y-95050000D03*
X208500000Y-97590000D03*
X208500000Y-100130000D03*
X208500000Y-102670000D03*
X208500000Y-105210000D03*
D23*
X208500000Y-107750000D03*
D24*
X141000000Y-108000000D03*
X141000000Y-128000000D03*
D25*
X171500000Y-103000000D03*
X166420000Y-103000000D03*
X166420000Y-133000000D03*
X171500000Y-133000000D03*
D26*
X166250000Y-111790000D03*
X166250000Y-115750000D03*
X166250000Y-119710000D03*
D27*
X166250000Y-123670000D03*
D25*
X148005000Y-94000000D03*
X140505000Y-94000000D03*
M02*
