G04 #@! TF.GenerationSoftware,KiCad,Pcbnew,(5.1.10)-1*
G04 #@! TF.CreationDate,2021-11-25T14:07:26+01:00*
G04 #@! TF.ProjectId,PSU,5053552e-6b69-4636-9164-5f7063625858,rev?*
G04 #@! TF.SameCoordinates,Original*
G04 #@! TF.FileFunction,Legend,Top*
G04 #@! TF.FilePolarity,Positive*
%FSLAX46Y46*%
G04 Gerber Fmt 4.6, Leading zero omitted, Abs format (unit mm)*
G04 Created by KiCad (PCBNEW (5.1.10)-1) date 2021-11-25 14:07:26*
%MOMM*%
%LPD*%
G01*
G04 APERTURE LIST*
%ADD10C,0.100000*%
%ADD11C,0.120000*%
%ADD12C,0.400000*%
%ADD13C,0.127000*%
%ADD14C,0.150000*%
%ADD15C,2.400000*%
%ADD16R,2.400000X2.400000*%
%ADD17C,4.000000*%
%ADD18C,2.844800*%
%ADD19C,1.600200*%
%ADD20R,1.600200X1.600200*%
%ADD21C,1.524000*%
%ADD22R,0.900000X1.300000*%
%ADD23C,3.000000*%
%ADD24O,1.905000X2.000000*%
%ADD25R,1.905000X2.000000*%
%ADD26C,1.800000*%
%ADD27O,2.200000X1.700000*%
%ADD28R,2.200000X1.700000*%
%ADD29C,2.000000*%
%ADD30C,2.500000*%
%ADD31R,2.500000X2.500000*%
G04 APERTURE END LIST*
D10*
X212949999Y-94600000D02*
X212873808Y-94561904D01*
X212759523Y-94561904D01*
X212645237Y-94600000D01*
X212569046Y-94676190D01*
X212530951Y-94752380D01*
X212492856Y-94904761D01*
X212492856Y-95019047D01*
X212530951Y-95171428D01*
X212569046Y-95247619D01*
X212645237Y-95323809D01*
X212759523Y-95361904D01*
X212835713Y-95361904D01*
X212949999Y-95323809D01*
X212988094Y-95285714D01*
X212988094Y-95019047D01*
X212835713Y-95019047D01*
X213330951Y-95361904D02*
X213330951Y-94561904D01*
X213788094Y-95361904D01*
X213788094Y-94561904D01*
X214169046Y-95361904D02*
X214169046Y-94561904D01*
X214359523Y-94561904D01*
X214473808Y-94600000D01*
X214549999Y-94676190D01*
X214588094Y-94752380D01*
X214626189Y-94904761D01*
X214626189Y-95019047D01*
X214588094Y-95171428D01*
X214549999Y-95247619D01*
X214473808Y-95323809D01*
X214359523Y-95361904D01*
X214169046Y-95361904D01*
X212530952Y-97607142D02*
X213140476Y-97607142D01*
X213940476Y-97911904D02*
X213483333Y-97911904D01*
X213711904Y-97911904D02*
X213711904Y-97111904D01*
X213635714Y-97226190D01*
X213559523Y-97302380D01*
X213483333Y-97340476D01*
X214245237Y-97188095D02*
X214283333Y-97150000D01*
X214359523Y-97111904D01*
X214549999Y-97111904D01*
X214626190Y-97150000D01*
X214664285Y-97188095D01*
X214702380Y-97264285D01*
X214702380Y-97340476D01*
X214664285Y-97454761D01*
X214207142Y-97911904D01*
X214702380Y-97911904D01*
X214930952Y-97111904D02*
X215197618Y-97911904D01*
X215464285Y-97111904D01*
X212530952Y-100157142D02*
X213140476Y-100157142D01*
X212835714Y-100461904D02*
X212835714Y-99852380D01*
X213940476Y-100461904D02*
X213483333Y-100461904D01*
X213711904Y-100461904D02*
X213711904Y-99661904D01*
X213635714Y-99776190D01*
X213559523Y-99852380D01*
X213483333Y-99890476D01*
X214245237Y-99738095D02*
X214283333Y-99700000D01*
X214359523Y-99661904D01*
X214549999Y-99661904D01*
X214626190Y-99700000D01*
X214664285Y-99738095D01*
X214702380Y-99814285D01*
X214702380Y-99890476D01*
X214664285Y-100004761D01*
X214207142Y-100461904D01*
X214702380Y-100461904D01*
X214930952Y-99661904D02*
X215197618Y-100461904D01*
X215464285Y-99661904D01*
X212530951Y-102707142D02*
X213140475Y-102707142D01*
X212835713Y-103011904D02*
X212835713Y-102402380D01*
X213902380Y-102211904D02*
X213521427Y-102211904D01*
X213483332Y-102592857D01*
X213521427Y-102554761D01*
X213597618Y-102516666D01*
X213788094Y-102516666D01*
X213864284Y-102554761D01*
X213902380Y-102592857D01*
X213940475Y-102669047D01*
X213940475Y-102859523D01*
X213902380Y-102935714D01*
X213864284Y-102973809D01*
X213788094Y-103011904D01*
X213597618Y-103011904D01*
X213521427Y-102973809D01*
X213483332Y-102935714D01*
X214169046Y-102211904D02*
X214435713Y-103011904D01*
X214702380Y-102211904D01*
X212530951Y-105257142D02*
X213140475Y-105257142D01*
X212835713Y-105561904D02*
X212835713Y-104952380D01*
X213902380Y-104761904D02*
X213521427Y-104761904D01*
X213483332Y-105142857D01*
X213521427Y-105104761D01*
X213597618Y-105066666D01*
X213788094Y-105066666D01*
X213864284Y-105104761D01*
X213902380Y-105142857D01*
X213940475Y-105219047D01*
X213940475Y-105409523D01*
X213902380Y-105485714D01*
X213864284Y-105523809D01*
X213788094Y-105561904D01*
X213597618Y-105561904D01*
X213521427Y-105523809D01*
X213483332Y-105485714D01*
X214169046Y-104761904D02*
X214435713Y-105561904D01*
X214702380Y-104761904D01*
X214778570Y-105638095D02*
X215388094Y-105638095D01*
X215578570Y-105561904D02*
X215578570Y-105028571D01*
X215578570Y-104761904D02*
X215540475Y-104800000D01*
X215578570Y-104838095D01*
X215616665Y-104800000D01*
X215578570Y-104761904D01*
X215578570Y-104838095D01*
X212949999Y-107350000D02*
X212873808Y-107311904D01*
X212759522Y-107311904D01*
X212645237Y-107350000D01*
X212569046Y-107426190D01*
X212530951Y-107502380D01*
X212492856Y-107654761D01*
X212492856Y-107769047D01*
X212530951Y-107921428D01*
X212569046Y-107997619D01*
X212645237Y-108073809D01*
X212759522Y-108111904D01*
X212835713Y-108111904D01*
X212949999Y-108073809D01*
X212988094Y-108035714D01*
X212988094Y-107769047D01*
X212835713Y-107769047D01*
X213330951Y-108111904D02*
X213330951Y-107311904D01*
X213788094Y-108111904D01*
X213788094Y-107311904D01*
X214169046Y-108111904D02*
X214169046Y-107311904D01*
X214359522Y-107311904D01*
X214473808Y-107350000D01*
X214549999Y-107426190D01*
X214588094Y-107502380D01*
X214626189Y-107654761D01*
X214626189Y-107769047D01*
X214588094Y-107921428D01*
X214549999Y-107997619D01*
X214473808Y-108073809D01*
X214359522Y-108111904D01*
X214169046Y-108111904D01*
X214778570Y-108188095D02*
X215388094Y-108188095D01*
X215578570Y-108111904D02*
X215578570Y-107578571D01*
X215578570Y-107311904D02*
X215540475Y-107350000D01*
X215578570Y-107388095D01*
X215616665Y-107350000D01*
X215578570Y-107311904D01*
X215578570Y-107388095D01*
D11*
X189927064Y-145135000D02*
X189472936Y-145135000D01*
X189927064Y-143665000D02*
X189472936Y-143665000D01*
X194000000Y-92660000D02*
X196860000Y-92660000D01*
X196860000Y-92660000D02*
X196860000Y-90740000D01*
X196860000Y-90740000D02*
X194000000Y-90740000D01*
X194000000Y-145360000D02*
X196860000Y-145360000D01*
X196860000Y-145360000D02*
X196860000Y-143440000D01*
X196860000Y-143440000D02*
X194000000Y-143440000D01*
X183400000Y-145360000D02*
X186260000Y-145360000D01*
X186260000Y-145360000D02*
X186260000Y-143440000D01*
X186260000Y-143440000D02*
X183400000Y-143440000D01*
X191120000Y-117750000D02*
G75*
G03*
X191120000Y-117750000I-6370000J0D01*
G01*
X184750000Y-111420000D02*
X184750000Y-124080000D01*
X184790000Y-111420000D02*
X184790000Y-124080000D01*
X184830000Y-111420000D02*
X184830000Y-124080000D01*
X184870000Y-111421000D02*
X184870000Y-124079000D01*
X184910000Y-111422000D02*
X184910000Y-124078000D01*
X184950000Y-111423000D02*
X184950000Y-124077000D01*
X184990000Y-111424000D02*
X184990000Y-124076000D01*
X185030000Y-111426000D02*
X185030000Y-124074000D01*
X185070000Y-111428000D02*
X185070000Y-124072000D01*
X185110000Y-111430000D02*
X185110000Y-124070000D01*
X185150000Y-111432000D02*
X185150000Y-124068000D01*
X185190000Y-111435000D02*
X185190000Y-124065000D01*
X185230000Y-111438000D02*
X185230000Y-124062000D01*
X185270000Y-111441000D02*
X185270000Y-124059000D01*
X185310000Y-111444000D02*
X185310000Y-124056000D01*
X185350000Y-111448000D02*
X185350000Y-124052000D01*
X185390000Y-111452000D02*
X185390000Y-124048000D01*
X185430000Y-111456000D02*
X185430000Y-124044000D01*
X185471000Y-111460000D02*
X185471000Y-124040000D01*
X185511000Y-111465000D02*
X185511000Y-124035000D01*
X185551000Y-111470000D02*
X185551000Y-124030000D01*
X185591000Y-111475000D02*
X185591000Y-124025000D01*
X185631000Y-111481000D02*
X185631000Y-124019000D01*
X185671000Y-111486000D02*
X185671000Y-124014000D01*
X185711000Y-111492000D02*
X185711000Y-124008000D01*
X185751000Y-111498000D02*
X185751000Y-124002000D01*
X185791000Y-111505000D02*
X185791000Y-123995000D01*
X185831000Y-111512000D02*
X185831000Y-116310000D01*
X185831000Y-119190000D02*
X185831000Y-123988000D01*
X185871000Y-111519000D02*
X185871000Y-116310000D01*
X185871000Y-119190000D02*
X185871000Y-123981000D01*
X185911000Y-111526000D02*
X185911000Y-116310000D01*
X185911000Y-119190000D02*
X185911000Y-123974000D01*
X185951000Y-111534000D02*
X185951000Y-116310000D01*
X185951000Y-119190000D02*
X185951000Y-123966000D01*
X185991000Y-111541000D02*
X185991000Y-116310000D01*
X185991000Y-119190000D02*
X185991000Y-123959000D01*
X186031000Y-111549000D02*
X186031000Y-116310000D01*
X186031000Y-119190000D02*
X186031000Y-123951000D01*
X186071000Y-111558000D02*
X186071000Y-116310000D01*
X186071000Y-119190000D02*
X186071000Y-123942000D01*
X186111000Y-111566000D02*
X186111000Y-116310000D01*
X186111000Y-119190000D02*
X186111000Y-123934000D01*
X186151000Y-111575000D02*
X186151000Y-116310000D01*
X186151000Y-119190000D02*
X186151000Y-123925000D01*
X186191000Y-111584000D02*
X186191000Y-116310000D01*
X186191000Y-119190000D02*
X186191000Y-123916000D01*
X186231000Y-111594000D02*
X186231000Y-116310000D01*
X186231000Y-119190000D02*
X186231000Y-123906000D01*
X186271000Y-111604000D02*
X186271000Y-116310000D01*
X186271000Y-119190000D02*
X186271000Y-123896000D01*
X186311000Y-111613000D02*
X186311000Y-116310000D01*
X186311000Y-119190000D02*
X186311000Y-123887000D01*
X186351000Y-111624000D02*
X186351000Y-116310000D01*
X186351000Y-119190000D02*
X186351000Y-123876000D01*
X186391000Y-111634000D02*
X186391000Y-116310000D01*
X186391000Y-119190000D02*
X186391000Y-123866000D01*
X186431000Y-111645000D02*
X186431000Y-116310000D01*
X186431000Y-119190000D02*
X186431000Y-123855000D01*
X186471000Y-111656000D02*
X186471000Y-116310000D01*
X186471000Y-119190000D02*
X186471000Y-123844000D01*
X186511000Y-111667000D02*
X186511000Y-116310000D01*
X186511000Y-119190000D02*
X186511000Y-123833000D01*
X186551000Y-111679000D02*
X186551000Y-116310000D01*
X186551000Y-119190000D02*
X186551000Y-123821000D01*
X186591000Y-111691000D02*
X186591000Y-116310000D01*
X186591000Y-119190000D02*
X186591000Y-123809000D01*
X186631000Y-111703000D02*
X186631000Y-116310000D01*
X186631000Y-119190000D02*
X186631000Y-123797000D01*
X186671000Y-111716000D02*
X186671000Y-116310000D01*
X186671000Y-119190000D02*
X186671000Y-123784000D01*
X186711000Y-111729000D02*
X186711000Y-116310000D01*
X186711000Y-119190000D02*
X186711000Y-123771000D01*
X186751000Y-111742000D02*
X186751000Y-116310000D01*
X186751000Y-119190000D02*
X186751000Y-123758000D01*
X186791000Y-111755000D02*
X186791000Y-116310000D01*
X186791000Y-119190000D02*
X186791000Y-123745000D01*
X186831000Y-111769000D02*
X186831000Y-116310000D01*
X186831000Y-119190000D02*
X186831000Y-123731000D01*
X186871000Y-111783000D02*
X186871000Y-116310000D01*
X186871000Y-119190000D02*
X186871000Y-123717000D01*
X186911000Y-111797000D02*
X186911000Y-116310000D01*
X186911000Y-119190000D02*
X186911000Y-123703000D01*
X186951000Y-111811000D02*
X186951000Y-116310000D01*
X186951000Y-119190000D02*
X186951000Y-123689000D01*
X186991000Y-111826000D02*
X186991000Y-116310000D01*
X186991000Y-119190000D02*
X186991000Y-123674000D01*
X187031000Y-111842000D02*
X187031000Y-116310000D01*
X187031000Y-119190000D02*
X187031000Y-123658000D01*
X187071000Y-111857000D02*
X187071000Y-116310000D01*
X187071000Y-119190000D02*
X187071000Y-123643000D01*
X187111000Y-111873000D02*
X187111000Y-116310000D01*
X187111000Y-119190000D02*
X187111000Y-123627000D01*
X187151000Y-111889000D02*
X187151000Y-116310000D01*
X187151000Y-119190000D02*
X187151000Y-123611000D01*
X187191000Y-111905000D02*
X187191000Y-116310000D01*
X187191000Y-119190000D02*
X187191000Y-123595000D01*
X187231000Y-111922000D02*
X187231000Y-116310000D01*
X187231000Y-119190000D02*
X187231000Y-123578000D01*
X187271000Y-111939000D02*
X187271000Y-116310000D01*
X187271000Y-119190000D02*
X187271000Y-123561000D01*
X187311000Y-111957000D02*
X187311000Y-116310000D01*
X187311000Y-119190000D02*
X187311000Y-123543000D01*
X187351000Y-111974000D02*
X187351000Y-116310000D01*
X187351000Y-119190000D02*
X187351000Y-123526000D01*
X187391000Y-111992000D02*
X187391000Y-116310000D01*
X187391000Y-119190000D02*
X187391000Y-123508000D01*
X187431000Y-112011000D02*
X187431000Y-116310000D01*
X187431000Y-119190000D02*
X187431000Y-123489000D01*
X187471000Y-112029000D02*
X187471000Y-116310000D01*
X187471000Y-119190000D02*
X187471000Y-123471000D01*
X187511000Y-112048000D02*
X187511000Y-116310000D01*
X187511000Y-119190000D02*
X187511000Y-123452000D01*
X187551000Y-112068000D02*
X187551000Y-116310000D01*
X187551000Y-119190000D02*
X187551000Y-123432000D01*
X187591000Y-112088000D02*
X187591000Y-116310000D01*
X187591000Y-119190000D02*
X187591000Y-123412000D01*
X187631000Y-112108000D02*
X187631000Y-116310000D01*
X187631000Y-119190000D02*
X187631000Y-123392000D01*
X187671000Y-112128000D02*
X187671000Y-116310000D01*
X187671000Y-119190000D02*
X187671000Y-123372000D01*
X187711000Y-112149000D02*
X187711000Y-116310000D01*
X187711000Y-119190000D02*
X187711000Y-123351000D01*
X187751000Y-112170000D02*
X187751000Y-116310000D01*
X187751000Y-119190000D02*
X187751000Y-123330000D01*
X187791000Y-112192000D02*
X187791000Y-116310000D01*
X187791000Y-119190000D02*
X187791000Y-123308000D01*
X187831000Y-112214000D02*
X187831000Y-116310000D01*
X187831000Y-119190000D02*
X187831000Y-123286000D01*
X187871000Y-112236000D02*
X187871000Y-116310000D01*
X187871000Y-119190000D02*
X187871000Y-123264000D01*
X187911000Y-112259000D02*
X187911000Y-116310000D01*
X187911000Y-119190000D02*
X187911000Y-123241000D01*
X187951000Y-112282000D02*
X187951000Y-116310000D01*
X187951000Y-119190000D02*
X187951000Y-123218000D01*
X187991000Y-112305000D02*
X187991000Y-116310000D01*
X187991000Y-119190000D02*
X187991000Y-123195000D01*
X188031000Y-112329000D02*
X188031000Y-116310000D01*
X188031000Y-119190000D02*
X188031000Y-123171000D01*
X188071000Y-112353000D02*
X188071000Y-116310000D01*
X188071000Y-119190000D02*
X188071000Y-123147000D01*
X188111000Y-112378000D02*
X188111000Y-116310000D01*
X188111000Y-119190000D02*
X188111000Y-123122000D01*
X188151000Y-112403000D02*
X188151000Y-116310000D01*
X188151000Y-119190000D02*
X188151000Y-123097000D01*
X188191000Y-112428000D02*
X188191000Y-116310000D01*
X188191000Y-119190000D02*
X188191000Y-123072000D01*
X188231000Y-112454000D02*
X188231000Y-116310000D01*
X188231000Y-119190000D02*
X188231000Y-123046000D01*
X188271000Y-112480000D02*
X188271000Y-116310000D01*
X188271000Y-119190000D02*
X188271000Y-123020000D01*
X188311000Y-112507000D02*
X188311000Y-116310000D01*
X188311000Y-119190000D02*
X188311000Y-122993000D01*
X188351000Y-112534000D02*
X188351000Y-116310000D01*
X188351000Y-119190000D02*
X188351000Y-122966000D01*
X188391000Y-112562000D02*
X188391000Y-116310000D01*
X188391000Y-119190000D02*
X188391000Y-122938000D01*
X188431000Y-112590000D02*
X188431000Y-116310000D01*
X188431000Y-119190000D02*
X188431000Y-122910000D01*
X188471000Y-112619000D02*
X188471000Y-116310000D01*
X188471000Y-119190000D02*
X188471000Y-122881000D01*
X188511000Y-112648000D02*
X188511000Y-116310000D01*
X188511000Y-119190000D02*
X188511000Y-122852000D01*
X188551000Y-112677000D02*
X188551000Y-116310000D01*
X188551000Y-119190000D02*
X188551000Y-122823000D01*
X188591000Y-112707000D02*
X188591000Y-116310000D01*
X188591000Y-119190000D02*
X188591000Y-122793000D01*
X188631000Y-112738000D02*
X188631000Y-116310000D01*
X188631000Y-119190000D02*
X188631000Y-122762000D01*
X188671000Y-112768000D02*
X188671000Y-116310000D01*
X188671000Y-119190000D02*
X188671000Y-122732000D01*
X188711000Y-112800000D02*
X188711000Y-122700000D01*
X188751000Y-112832000D02*
X188751000Y-122668000D01*
X188791000Y-112865000D02*
X188791000Y-122635000D01*
X188831000Y-112898000D02*
X188831000Y-122602000D01*
X188871000Y-112931000D02*
X188871000Y-122569000D01*
X188911000Y-112965000D02*
X188911000Y-122535000D01*
X188951000Y-113000000D02*
X188951000Y-122500000D01*
X188991000Y-113036000D02*
X188991000Y-122464000D01*
X189031000Y-113072000D02*
X189031000Y-122428000D01*
X189071000Y-113108000D02*
X189071000Y-122392000D01*
X189111000Y-113145000D02*
X189111000Y-122355000D01*
X189151000Y-113183000D02*
X189151000Y-122317000D01*
X189191000Y-113222000D02*
X189191000Y-122278000D01*
X189231000Y-113261000D02*
X189231000Y-122239000D01*
X189271000Y-113301000D02*
X189271000Y-122199000D01*
X189311000Y-113342000D02*
X189311000Y-122158000D01*
X189351000Y-113383000D02*
X189351000Y-122117000D01*
X189391000Y-113425000D02*
X189391000Y-122075000D01*
X189431000Y-113468000D02*
X189431000Y-122032000D01*
X189471000Y-113512000D02*
X189471000Y-121988000D01*
X189511000Y-113556000D02*
X189511000Y-121944000D01*
X189551000Y-113602000D02*
X189551000Y-121898000D01*
X189591000Y-113648000D02*
X189591000Y-121852000D01*
X189631000Y-113695000D02*
X189631000Y-121805000D01*
X189671000Y-113743000D02*
X189671000Y-121757000D01*
X189711000Y-113793000D02*
X189711000Y-121707000D01*
X189751000Y-113843000D02*
X189751000Y-121657000D01*
X189791000Y-113894000D02*
X189791000Y-121606000D01*
X189831000Y-113946000D02*
X189831000Y-121554000D01*
X189871000Y-114000000D02*
X189871000Y-121500000D01*
X189911000Y-114054000D02*
X189911000Y-121446000D01*
X189951000Y-114110000D02*
X189951000Y-121390000D01*
X189991000Y-114167000D02*
X189991000Y-121333000D01*
X190031000Y-114226000D02*
X190031000Y-121274000D01*
X190071000Y-114286000D02*
X190071000Y-121214000D01*
X190111000Y-114348000D02*
X190111000Y-121152000D01*
X190151000Y-114411000D02*
X190151000Y-121089000D01*
X190191000Y-114475000D02*
X190191000Y-121025000D01*
X190231000Y-114542000D02*
X190231000Y-120958000D01*
X190271000Y-114610000D02*
X190271000Y-120890000D01*
X190311000Y-114681000D02*
X190311000Y-120819000D01*
X190351000Y-114754000D02*
X190351000Y-120746000D01*
X190391000Y-114829000D02*
X190391000Y-120671000D01*
X190431000Y-114906000D02*
X190431000Y-120594000D01*
X190471000Y-114986000D02*
X190471000Y-120514000D01*
X190511000Y-115069000D02*
X190511000Y-120431000D01*
X190551000Y-115156000D02*
X190551000Y-120344000D01*
X190591000Y-115246000D02*
X190591000Y-120254000D01*
X190631000Y-115340000D02*
X190631000Y-120160000D01*
X190671000Y-115438000D02*
X190671000Y-120062000D01*
X190711000Y-115541000D02*
X190711000Y-119959000D01*
X190751000Y-115650000D02*
X190751000Y-119850000D01*
X190791000Y-115766000D02*
X190791000Y-119734000D01*
X190831000Y-115889000D02*
X190831000Y-119611000D01*
X190871000Y-116022000D02*
X190871000Y-119478000D01*
X190911000Y-116167000D02*
X190911000Y-119333000D01*
X190951000Y-116328000D02*
X190951000Y-119172000D01*
X190991000Y-116509000D02*
X190991000Y-118991000D01*
X191031000Y-116722000D02*
X191031000Y-118778000D01*
X191071000Y-116993000D02*
X191071000Y-118507000D01*
X191111000Y-117433000D02*
X191111000Y-118067000D01*
X177932918Y-114175000D02*
X179182918Y-114175000D01*
X178557918Y-113550000D02*
X178557918Y-114800000D01*
X207870000Y-117750000D02*
G75*
G03*
X207870000Y-117750000I-6370000J0D01*
G01*
X201500000Y-111420000D02*
X201500000Y-124080000D01*
X201540000Y-111420000D02*
X201540000Y-124080000D01*
X201580000Y-111420000D02*
X201580000Y-124080000D01*
X201620000Y-111421000D02*
X201620000Y-124079000D01*
X201660000Y-111422000D02*
X201660000Y-124078000D01*
X201700000Y-111423000D02*
X201700000Y-124077000D01*
X201740000Y-111424000D02*
X201740000Y-124076000D01*
X201780000Y-111426000D02*
X201780000Y-124074000D01*
X201820000Y-111428000D02*
X201820000Y-124072000D01*
X201860000Y-111430000D02*
X201860000Y-124070000D01*
X201900000Y-111432000D02*
X201900000Y-124068000D01*
X201940000Y-111435000D02*
X201940000Y-124065000D01*
X201980000Y-111438000D02*
X201980000Y-124062000D01*
X202020000Y-111441000D02*
X202020000Y-124059000D01*
X202060000Y-111444000D02*
X202060000Y-124056000D01*
X202100000Y-111448000D02*
X202100000Y-124052000D01*
X202140000Y-111452000D02*
X202140000Y-124048000D01*
X202180000Y-111456000D02*
X202180000Y-124044000D01*
X202221000Y-111460000D02*
X202221000Y-124040000D01*
X202261000Y-111465000D02*
X202261000Y-124035000D01*
X202301000Y-111470000D02*
X202301000Y-124030000D01*
X202341000Y-111475000D02*
X202341000Y-124025000D01*
X202381000Y-111481000D02*
X202381000Y-124019000D01*
X202421000Y-111486000D02*
X202421000Y-124014000D01*
X202461000Y-111492000D02*
X202461000Y-124008000D01*
X202501000Y-111498000D02*
X202501000Y-124002000D01*
X202541000Y-111505000D02*
X202541000Y-123995000D01*
X202581000Y-111512000D02*
X202581000Y-116310000D01*
X202581000Y-119190000D02*
X202581000Y-123988000D01*
X202621000Y-111519000D02*
X202621000Y-116310000D01*
X202621000Y-119190000D02*
X202621000Y-123981000D01*
X202661000Y-111526000D02*
X202661000Y-116310000D01*
X202661000Y-119190000D02*
X202661000Y-123974000D01*
X202701000Y-111534000D02*
X202701000Y-116310000D01*
X202701000Y-119190000D02*
X202701000Y-123966000D01*
X202741000Y-111541000D02*
X202741000Y-116310000D01*
X202741000Y-119190000D02*
X202741000Y-123959000D01*
X202781000Y-111549000D02*
X202781000Y-116310000D01*
X202781000Y-119190000D02*
X202781000Y-123951000D01*
X202821000Y-111558000D02*
X202821000Y-116310000D01*
X202821000Y-119190000D02*
X202821000Y-123942000D01*
X202861000Y-111566000D02*
X202861000Y-116310000D01*
X202861000Y-119190000D02*
X202861000Y-123934000D01*
X202901000Y-111575000D02*
X202901000Y-116310000D01*
X202901000Y-119190000D02*
X202901000Y-123925000D01*
X202941000Y-111584000D02*
X202941000Y-116310000D01*
X202941000Y-119190000D02*
X202941000Y-123916000D01*
X202981000Y-111594000D02*
X202981000Y-116310000D01*
X202981000Y-119190000D02*
X202981000Y-123906000D01*
X203021000Y-111604000D02*
X203021000Y-116310000D01*
X203021000Y-119190000D02*
X203021000Y-123896000D01*
X203061000Y-111613000D02*
X203061000Y-116310000D01*
X203061000Y-119190000D02*
X203061000Y-123887000D01*
X203101000Y-111624000D02*
X203101000Y-116310000D01*
X203101000Y-119190000D02*
X203101000Y-123876000D01*
X203141000Y-111634000D02*
X203141000Y-116310000D01*
X203141000Y-119190000D02*
X203141000Y-123866000D01*
X203181000Y-111645000D02*
X203181000Y-116310000D01*
X203181000Y-119190000D02*
X203181000Y-123855000D01*
X203221000Y-111656000D02*
X203221000Y-116310000D01*
X203221000Y-119190000D02*
X203221000Y-123844000D01*
X203261000Y-111667000D02*
X203261000Y-116310000D01*
X203261000Y-119190000D02*
X203261000Y-123833000D01*
X203301000Y-111679000D02*
X203301000Y-116310000D01*
X203301000Y-119190000D02*
X203301000Y-123821000D01*
X203341000Y-111691000D02*
X203341000Y-116310000D01*
X203341000Y-119190000D02*
X203341000Y-123809000D01*
X203381000Y-111703000D02*
X203381000Y-116310000D01*
X203381000Y-119190000D02*
X203381000Y-123797000D01*
X203421000Y-111716000D02*
X203421000Y-116310000D01*
X203421000Y-119190000D02*
X203421000Y-123784000D01*
X203461000Y-111729000D02*
X203461000Y-116310000D01*
X203461000Y-119190000D02*
X203461000Y-123771000D01*
X203501000Y-111742000D02*
X203501000Y-116310000D01*
X203501000Y-119190000D02*
X203501000Y-123758000D01*
X203541000Y-111755000D02*
X203541000Y-116310000D01*
X203541000Y-119190000D02*
X203541000Y-123745000D01*
X203581000Y-111769000D02*
X203581000Y-116310000D01*
X203581000Y-119190000D02*
X203581000Y-123731000D01*
X203621000Y-111783000D02*
X203621000Y-116310000D01*
X203621000Y-119190000D02*
X203621000Y-123717000D01*
X203661000Y-111797000D02*
X203661000Y-116310000D01*
X203661000Y-119190000D02*
X203661000Y-123703000D01*
X203701000Y-111811000D02*
X203701000Y-116310000D01*
X203701000Y-119190000D02*
X203701000Y-123689000D01*
X203741000Y-111826000D02*
X203741000Y-116310000D01*
X203741000Y-119190000D02*
X203741000Y-123674000D01*
X203781000Y-111842000D02*
X203781000Y-116310000D01*
X203781000Y-119190000D02*
X203781000Y-123658000D01*
X203821000Y-111857000D02*
X203821000Y-116310000D01*
X203821000Y-119190000D02*
X203821000Y-123643000D01*
X203861000Y-111873000D02*
X203861000Y-116310000D01*
X203861000Y-119190000D02*
X203861000Y-123627000D01*
X203901000Y-111889000D02*
X203901000Y-116310000D01*
X203901000Y-119190000D02*
X203901000Y-123611000D01*
X203941000Y-111905000D02*
X203941000Y-116310000D01*
X203941000Y-119190000D02*
X203941000Y-123595000D01*
X203981000Y-111922000D02*
X203981000Y-116310000D01*
X203981000Y-119190000D02*
X203981000Y-123578000D01*
X204021000Y-111939000D02*
X204021000Y-116310000D01*
X204021000Y-119190000D02*
X204021000Y-123561000D01*
X204061000Y-111957000D02*
X204061000Y-116310000D01*
X204061000Y-119190000D02*
X204061000Y-123543000D01*
X204101000Y-111974000D02*
X204101000Y-116310000D01*
X204101000Y-119190000D02*
X204101000Y-123526000D01*
X204141000Y-111992000D02*
X204141000Y-116310000D01*
X204141000Y-119190000D02*
X204141000Y-123508000D01*
X204181000Y-112011000D02*
X204181000Y-116310000D01*
X204181000Y-119190000D02*
X204181000Y-123489000D01*
X204221000Y-112029000D02*
X204221000Y-116310000D01*
X204221000Y-119190000D02*
X204221000Y-123471000D01*
X204261000Y-112048000D02*
X204261000Y-116310000D01*
X204261000Y-119190000D02*
X204261000Y-123452000D01*
X204301000Y-112068000D02*
X204301000Y-116310000D01*
X204301000Y-119190000D02*
X204301000Y-123432000D01*
X204341000Y-112088000D02*
X204341000Y-116310000D01*
X204341000Y-119190000D02*
X204341000Y-123412000D01*
X204381000Y-112108000D02*
X204381000Y-116310000D01*
X204381000Y-119190000D02*
X204381000Y-123392000D01*
X204421000Y-112128000D02*
X204421000Y-116310000D01*
X204421000Y-119190000D02*
X204421000Y-123372000D01*
X204461000Y-112149000D02*
X204461000Y-116310000D01*
X204461000Y-119190000D02*
X204461000Y-123351000D01*
X204501000Y-112170000D02*
X204501000Y-116310000D01*
X204501000Y-119190000D02*
X204501000Y-123330000D01*
X204541000Y-112192000D02*
X204541000Y-116310000D01*
X204541000Y-119190000D02*
X204541000Y-123308000D01*
X204581000Y-112214000D02*
X204581000Y-116310000D01*
X204581000Y-119190000D02*
X204581000Y-123286000D01*
X204621000Y-112236000D02*
X204621000Y-116310000D01*
X204621000Y-119190000D02*
X204621000Y-123264000D01*
X204661000Y-112259000D02*
X204661000Y-116310000D01*
X204661000Y-119190000D02*
X204661000Y-123241000D01*
X204701000Y-112282000D02*
X204701000Y-116310000D01*
X204701000Y-119190000D02*
X204701000Y-123218000D01*
X204741000Y-112305000D02*
X204741000Y-116310000D01*
X204741000Y-119190000D02*
X204741000Y-123195000D01*
X204781000Y-112329000D02*
X204781000Y-116310000D01*
X204781000Y-119190000D02*
X204781000Y-123171000D01*
X204821000Y-112353000D02*
X204821000Y-116310000D01*
X204821000Y-119190000D02*
X204821000Y-123147000D01*
X204861000Y-112378000D02*
X204861000Y-116310000D01*
X204861000Y-119190000D02*
X204861000Y-123122000D01*
X204901000Y-112403000D02*
X204901000Y-116310000D01*
X204901000Y-119190000D02*
X204901000Y-123097000D01*
X204941000Y-112428000D02*
X204941000Y-116310000D01*
X204941000Y-119190000D02*
X204941000Y-123072000D01*
X204981000Y-112454000D02*
X204981000Y-116310000D01*
X204981000Y-119190000D02*
X204981000Y-123046000D01*
X205021000Y-112480000D02*
X205021000Y-116310000D01*
X205021000Y-119190000D02*
X205021000Y-123020000D01*
X205061000Y-112507000D02*
X205061000Y-116310000D01*
X205061000Y-119190000D02*
X205061000Y-122993000D01*
X205101000Y-112534000D02*
X205101000Y-116310000D01*
X205101000Y-119190000D02*
X205101000Y-122966000D01*
X205141000Y-112562000D02*
X205141000Y-116310000D01*
X205141000Y-119190000D02*
X205141000Y-122938000D01*
X205181000Y-112590000D02*
X205181000Y-116310000D01*
X205181000Y-119190000D02*
X205181000Y-122910000D01*
X205221000Y-112619000D02*
X205221000Y-116310000D01*
X205221000Y-119190000D02*
X205221000Y-122881000D01*
X205261000Y-112648000D02*
X205261000Y-116310000D01*
X205261000Y-119190000D02*
X205261000Y-122852000D01*
X205301000Y-112677000D02*
X205301000Y-116310000D01*
X205301000Y-119190000D02*
X205301000Y-122823000D01*
X205341000Y-112707000D02*
X205341000Y-116310000D01*
X205341000Y-119190000D02*
X205341000Y-122793000D01*
X205381000Y-112738000D02*
X205381000Y-116310000D01*
X205381000Y-119190000D02*
X205381000Y-122762000D01*
X205421000Y-112768000D02*
X205421000Y-116310000D01*
X205421000Y-119190000D02*
X205421000Y-122732000D01*
X205461000Y-112800000D02*
X205461000Y-122700000D01*
X205501000Y-112832000D02*
X205501000Y-122668000D01*
X205541000Y-112865000D02*
X205541000Y-122635000D01*
X205581000Y-112898000D02*
X205581000Y-122602000D01*
X205621000Y-112931000D02*
X205621000Y-122569000D01*
X205661000Y-112965000D02*
X205661000Y-122535000D01*
X205701000Y-113000000D02*
X205701000Y-122500000D01*
X205741000Y-113036000D02*
X205741000Y-122464000D01*
X205781000Y-113072000D02*
X205781000Y-122428000D01*
X205821000Y-113108000D02*
X205821000Y-122392000D01*
X205861000Y-113145000D02*
X205861000Y-122355000D01*
X205901000Y-113183000D02*
X205901000Y-122317000D01*
X205941000Y-113222000D02*
X205941000Y-122278000D01*
X205981000Y-113261000D02*
X205981000Y-122239000D01*
X206021000Y-113301000D02*
X206021000Y-122199000D01*
X206061000Y-113342000D02*
X206061000Y-122158000D01*
X206101000Y-113383000D02*
X206101000Y-122117000D01*
X206141000Y-113425000D02*
X206141000Y-122075000D01*
X206181000Y-113468000D02*
X206181000Y-122032000D01*
X206221000Y-113512000D02*
X206221000Y-121988000D01*
X206261000Y-113556000D02*
X206261000Y-121944000D01*
X206301000Y-113602000D02*
X206301000Y-121898000D01*
X206341000Y-113648000D02*
X206341000Y-121852000D01*
X206381000Y-113695000D02*
X206381000Y-121805000D01*
X206421000Y-113743000D02*
X206421000Y-121757000D01*
X206461000Y-113793000D02*
X206461000Y-121707000D01*
X206501000Y-113843000D02*
X206501000Y-121657000D01*
X206541000Y-113894000D02*
X206541000Y-121606000D01*
X206581000Y-113946000D02*
X206581000Y-121554000D01*
X206621000Y-114000000D02*
X206621000Y-121500000D01*
X206661000Y-114054000D02*
X206661000Y-121446000D01*
X206701000Y-114110000D02*
X206701000Y-121390000D01*
X206741000Y-114167000D02*
X206741000Y-121333000D01*
X206781000Y-114226000D02*
X206781000Y-121274000D01*
X206821000Y-114286000D02*
X206821000Y-121214000D01*
X206861000Y-114348000D02*
X206861000Y-121152000D01*
X206901000Y-114411000D02*
X206901000Y-121089000D01*
X206941000Y-114475000D02*
X206941000Y-121025000D01*
X206981000Y-114542000D02*
X206981000Y-120958000D01*
X207021000Y-114610000D02*
X207021000Y-120890000D01*
X207061000Y-114681000D02*
X207061000Y-120819000D01*
X207101000Y-114754000D02*
X207101000Y-120746000D01*
X207141000Y-114829000D02*
X207141000Y-120671000D01*
X207181000Y-114906000D02*
X207181000Y-120594000D01*
X207221000Y-114986000D02*
X207221000Y-120514000D01*
X207261000Y-115069000D02*
X207261000Y-120431000D01*
X207301000Y-115156000D02*
X207301000Y-120344000D01*
X207341000Y-115246000D02*
X207341000Y-120254000D01*
X207381000Y-115340000D02*
X207381000Y-120160000D01*
X207421000Y-115438000D02*
X207421000Y-120062000D01*
X207461000Y-115541000D02*
X207461000Y-119959000D01*
X207501000Y-115650000D02*
X207501000Y-119850000D01*
X207541000Y-115766000D02*
X207541000Y-119734000D01*
X207581000Y-115889000D02*
X207581000Y-119611000D01*
X207621000Y-116022000D02*
X207621000Y-119478000D01*
X207661000Y-116167000D02*
X207661000Y-119333000D01*
X207701000Y-116328000D02*
X207701000Y-119172000D01*
X207741000Y-116509000D02*
X207741000Y-118991000D01*
X207781000Y-116722000D02*
X207781000Y-118778000D01*
X207821000Y-116993000D02*
X207821000Y-118507000D01*
X207861000Y-117433000D02*
X207861000Y-118067000D01*
X194682918Y-114175000D02*
X195932918Y-114175000D01*
X195307918Y-113550000D02*
X195307918Y-114800000D01*
X183400000Y-92710000D02*
X186260000Y-92710000D01*
X186260000Y-92710000D02*
X186260000Y-90790000D01*
X186260000Y-90790000D02*
X183400000Y-90790000D01*
X207098752Y-127635000D02*
X206576248Y-127635000D01*
X207098752Y-126165000D02*
X206576248Y-126165000D01*
X190027064Y-92435000D02*
X189572936Y-92435000D01*
X190027064Y-90965000D02*
X189572936Y-90965000D01*
X212761252Y-124435000D02*
X212238748Y-124435000D01*
X212761252Y-122965000D02*
X212238748Y-122965000D01*
X206861252Y-137735000D02*
X206338748Y-137735000D01*
X206861252Y-136265000D02*
X206338748Y-136265000D01*
X204935000Y-105738748D02*
X204935000Y-106261252D01*
X203465000Y-105738748D02*
X203465000Y-106261252D01*
X212176248Y-126165000D02*
X212698752Y-126165000D01*
X212176248Y-127635000D02*
X212698752Y-127635000D01*
X204935000Y-96238748D02*
X204935000Y-96761252D01*
X203465000Y-96238748D02*
X203465000Y-96761252D01*
X203465000Y-101361252D02*
X203465000Y-100838748D01*
X204935000Y-101361252D02*
X204935000Y-100838748D01*
X193973752Y-107735000D02*
X193451248Y-107735000D01*
X193973752Y-106265000D02*
X193451248Y-106265000D01*
X185701248Y-127965000D02*
X186223752Y-127965000D01*
X185701248Y-129435000D02*
X186223752Y-129435000D01*
X185776248Y-106265000D02*
X186298752Y-106265000D01*
X185776248Y-107735000D02*
X186298752Y-107735000D01*
X193961252Y-129435000D02*
X193438748Y-129435000D01*
X193961252Y-127965000D02*
X193438748Y-127965000D01*
X128750000Y-104400000D02*
X128750000Y-131500000D01*
X128750000Y-131500000D02*
X122250000Y-131500000D01*
X122250000Y-131500000D02*
X122250000Y-104400000D01*
X122250000Y-104400000D02*
X128750000Y-104400000D01*
D12*
X128780000Y-107820000D02*
G75*
G03*
X128780000Y-107820000I-200000J0D01*
G01*
D13*
X129337600Y-138637500D02*
X129337600Y-97362500D01*
X162662400Y-138637500D02*
X129337600Y-138637500D01*
X162662400Y-97362500D02*
X162662400Y-138637500D01*
X129337600Y-97362500D02*
X162662400Y-97362500D01*
D11*
X203900000Y-138500000D02*
X215200000Y-138500000D01*
X215200000Y-138500000D02*
X215200000Y-144500000D01*
X215200000Y-144500000D02*
X203900000Y-144500000D01*
X203900000Y-144500000D02*
X203900000Y-138500000D01*
X208550000Y-133260000D02*
X207240000Y-133260000D01*
X207240000Y-133260000D02*
X207240000Y-130540000D01*
X211730000Y-129400000D02*
X211730000Y-130540000D01*
X211960000Y-133260000D02*
X210650000Y-133260000D01*
X211960000Y-130540000D02*
X211960000Y-133260000D01*
X211960000Y-130540000D02*
X211730000Y-130540000D01*
X207240000Y-130540000D02*
X207470000Y-130540000D01*
X201500000Y-98130000D02*
X200300000Y-98130000D01*
X197250000Y-98130000D02*
X182340000Y-98130000D01*
X179250000Y-98130000D02*
X178040000Y-98130000D01*
X201510000Y-100480000D02*
X200300000Y-100480000D01*
X184670000Y-100480000D02*
X182290000Y-100480000D01*
X194910000Y-100480000D02*
X197250000Y-100480000D01*
X179250000Y-100480000D02*
X178040000Y-100480000D01*
X177790000Y-93250000D02*
X178000000Y-93250000D01*
X201540000Y-93250000D02*
X201750000Y-93250000D01*
X201540000Y-108750000D02*
X201750000Y-108750000D01*
X177790000Y-108750000D02*
X178040000Y-108750000D01*
X201540000Y-93250000D02*
X201540000Y-108750000D01*
X178040000Y-93250000D02*
X178040000Y-108750000D01*
X201790000Y-93250000D02*
X201790000Y-108750000D01*
X177790000Y-93250000D02*
X177790000Y-108750000D01*
X184670000Y-100480000D02*
X194910000Y-100480000D01*
X184670000Y-105121000D02*
X194910000Y-105121000D01*
X184670000Y-100480000D02*
X184670000Y-105121000D01*
X194910000Y-100480000D02*
X194910000Y-105121000D01*
X184670000Y-101990000D02*
X194910000Y-101990000D01*
X187940000Y-100480000D02*
X187940000Y-101990000D01*
X191641000Y-100480000D02*
X191641000Y-101990000D01*
X182540000Y-93250000D02*
X182540000Y-98100000D01*
X182540000Y-93250000D02*
X182750000Y-93250000D01*
X182750000Y-93250000D02*
X182750000Y-98100000D01*
X187500000Y-93250000D02*
X187500000Y-98100000D01*
X187290000Y-93250000D02*
X187290000Y-98100000D01*
X187290000Y-93250000D02*
X187500000Y-93250000D01*
X192250000Y-93250000D02*
X192250000Y-98100000D01*
X192040000Y-93250000D02*
X192040000Y-98100000D01*
X192040000Y-93250000D02*
X192250000Y-93250000D01*
X197000000Y-93250000D02*
X197000000Y-98100000D01*
X196790000Y-93250000D02*
X196790000Y-98100000D01*
X196790000Y-93250000D02*
X197000000Y-93250000D01*
X178000000Y-137870000D02*
X179200000Y-137870000D01*
X182250000Y-137870000D02*
X197160000Y-137870000D01*
X200250000Y-137870000D02*
X201460000Y-137870000D01*
X177990000Y-135520000D02*
X179200000Y-135520000D01*
X194830000Y-135520000D02*
X197210000Y-135520000D01*
X184590000Y-135520000D02*
X182250000Y-135520000D01*
X200250000Y-135520000D02*
X201460000Y-135520000D01*
X201710000Y-142750000D02*
X201500000Y-142750000D01*
X177960000Y-142750000D02*
X177750000Y-142750000D01*
X177960000Y-127250000D02*
X177750000Y-127250000D01*
X201710000Y-127250000D02*
X201460000Y-127250000D01*
X177960000Y-142750000D02*
X177960000Y-127250000D01*
X201460000Y-142750000D02*
X201460000Y-127250000D01*
X177710000Y-142750000D02*
X177710000Y-127250000D01*
X201710000Y-142750000D02*
X201710000Y-127250000D01*
X194830000Y-135520000D02*
X184590000Y-135520000D01*
X194830000Y-130879000D02*
X184590000Y-130879000D01*
X194830000Y-135520000D02*
X194830000Y-130879000D01*
X184590000Y-135520000D02*
X184590000Y-130879000D01*
X194830000Y-134010000D02*
X184590000Y-134010000D01*
X191560000Y-135520000D02*
X191560000Y-134010000D01*
X187859000Y-135520000D02*
X187859000Y-134010000D01*
X196960000Y-142750000D02*
X196960000Y-137900000D01*
X196960000Y-142750000D02*
X196750000Y-142750000D01*
X196750000Y-142750000D02*
X196750000Y-137900000D01*
X192000000Y-142750000D02*
X192000000Y-137900000D01*
X192210000Y-142750000D02*
X192210000Y-137900000D01*
X192210000Y-142750000D02*
X192000000Y-142750000D01*
X187250000Y-142750000D02*
X187250000Y-137900000D01*
X187460000Y-142750000D02*
X187460000Y-137900000D01*
X187460000Y-142750000D02*
X187250000Y-142750000D01*
X182500000Y-142750000D02*
X182500000Y-137900000D01*
X182710000Y-142750000D02*
X182710000Y-137900000D01*
X182710000Y-142750000D02*
X182500000Y-142750000D01*
D14*
X150250000Y-139900000D02*
X138250000Y-139900000D01*
X150250000Y-144200000D02*
X138250000Y-144200000D01*
X138250000Y-144200000D02*
X138250000Y-139900000D01*
X150250000Y-144200000D02*
X150250000Y-139900000D01*
D11*
X212761252Y-137710000D02*
X212238748Y-137710000D01*
X212761252Y-136290000D02*
X212238748Y-136290000D01*
D14*
X211700000Y-109020000D02*
X205900000Y-109020000D01*
X211700000Y-93780000D02*
X211700000Y-109020000D01*
X205900000Y-93780000D02*
X211700000Y-93780000D01*
X205900000Y-109020000D02*
X205900000Y-93780000D01*
X206500000Y-109020000D02*
X206500000Y-93780000D01*
D11*
X173320000Y-103000000D02*
G75*
G03*
X173320000Y-103000000I-4360000J0D01*
G01*
X173320000Y-133000000D02*
G75*
G03*
X173320000Y-133000000I-4360000J0D01*
G01*
X167901000Y-125067000D02*
X164345000Y-125067000D01*
X167901000Y-110462000D02*
X167901000Y-125067000D01*
X164345000Y-110462000D02*
X167901000Y-110462000D01*
X164345000Y-125067000D02*
X164345000Y-110462000D01*
X138985000Y-91630000D02*
X149525000Y-91630000D01*
X138985000Y-96370000D02*
X149525000Y-96370000D01*
X138985000Y-91630000D02*
X138985000Y-96370000D01*
X149525000Y-91630000D02*
X149525000Y-96370000D01*
D10*
X192361904Y-144433333D02*
X191980952Y-144700000D01*
X192361904Y-144890476D02*
X191561904Y-144890476D01*
X191561904Y-144585714D01*
X191600000Y-144509523D01*
X191638095Y-144471428D01*
X191714285Y-144433333D01*
X191828571Y-144433333D01*
X191904761Y-144471428D01*
X191942857Y-144509523D01*
X191980952Y-144585714D01*
X191980952Y-144890476D01*
X192361904Y-143671428D02*
X192361904Y-144128571D01*
X192361904Y-143900000D02*
X191561904Y-143900000D01*
X191676190Y-143976190D01*
X191752380Y-144052380D01*
X191790476Y-144128571D01*
X197761904Y-92290476D02*
X196961904Y-92290476D01*
X196961904Y-92100000D01*
X197000000Y-91985714D01*
X197076190Y-91909523D01*
X197152380Y-91871428D01*
X197304761Y-91833333D01*
X197419047Y-91833333D01*
X197571428Y-91871428D01*
X197647619Y-91909523D01*
X197723809Y-91985714D01*
X197761904Y-92100000D01*
X197761904Y-92290476D01*
X196961904Y-91109523D02*
X196961904Y-91490476D01*
X197342857Y-91528571D01*
X197304761Y-91490476D01*
X197266666Y-91414285D01*
X197266666Y-91223809D01*
X197304761Y-91147619D01*
X197342857Y-91109523D01*
X197419047Y-91071428D01*
X197609523Y-91071428D01*
X197685714Y-91109523D01*
X197723809Y-91147619D01*
X197761904Y-91223809D01*
X197761904Y-91414285D01*
X197723809Y-91490476D01*
X197685714Y-91528571D01*
X197861904Y-144890476D02*
X197061904Y-144890476D01*
X197061904Y-144700000D01*
X197100000Y-144585714D01*
X197176190Y-144509523D01*
X197252380Y-144471428D01*
X197404761Y-144433333D01*
X197519047Y-144433333D01*
X197671428Y-144471428D01*
X197747619Y-144509523D01*
X197823809Y-144585714D01*
X197861904Y-144700000D01*
X197861904Y-144890476D01*
X197328571Y-143747619D02*
X197861904Y-143747619D01*
X197023809Y-143938095D02*
X197595238Y-144128571D01*
X197595238Y-143633333D01*
X187361904Y-144990476D02*
X186561904Y-144990476D01*
X186561904Y-144800000D01*
X186600000Y-144685714D01*
X186676190Y-144609523D01*
X186752380Y-144571428D01*
X186904761Y-144533333D01*
X187019047Y-144533333D01*
X187171428Y-144571428D01*
X187247619Y-144609523D01*
X187323809Y-144685714D01*
X187361904Y-144800000D01*
X187361904Y-144990476D01*
X186638095Y-144228571D02*
X186600000Y-144190476D01*
X186561904Y-144114285D01*
X186561904Y-143923809D01*
X186600000Y-143847619D01*
X186638095Y-143809523D01*
X186714285Y-143771428D01*
X186790476Y-143771428D01*
X186904761Y-143809523D01*
X187361904Y-144266666D01*
X187361904Y-143771428D01*
D14*
X184583333Y-110607142D02*
X184535714Y-110654761D01*
X184392857Y-110702380D01*
X184297619Y-110702380D01*
X184154761Y-110654761D01*
X184059523Y-110559523D01*
X184011904Y-110464285D01*
X183964285Y-110273809D01*
X183964285Y-110130952D01*
X184011904Y-109940476D01*
X184059523Y-109845238D01*
X184154761Y-109750000D01*
X184297619Y-109702380D01*
X184392857Y-109702380D01*
X184535714Y-109750000D01*
X184583333Y-109797619D01*
X184916666Y-109702380D02*
X185535714Y-109702380D01*
X185202380Y-110083333D01*
X185345238Y-110083333D01*
X185440476Y-110130952D01*
X185488095Y-110178571D01*
X185535714Y-110273809D01*
X185535714Y-110511904D01*
X185488095Y-110607142D01*
X185440476Y-110654761D01*
X185345238Y-110702380D01*
X185059523Y-110702380D01*
X184964285Y-110654761D01*
X184916666Y-110607142D01*
X201333333Y-110607142D02*
X201285714Y-110654761D01*
X201142857Y-110702380D01*
X201047619Y-110702380D01*
X200904761Y-110654761D01*
X200809523Y-110559523D01*
X200761904Y-110464285D01*
X200714285Y-110273809D01*
X200714285Y-110130952D01*
X200761904Y-109940476D01*
X200809523Y-109845238D01*
X200904761Y-109750000D01*
X201047619Y-109702380D01*
X201142857Y-109702380D01*
X201285714Y-109750000D01*
X201333333Y-109797619D01*
X201714285Y-109797619D02*
X201761904Y-109750000D01*
X201857142Y-109702380D01*
X202095238Y-109702380D01*
X202190476Y-109750000D01*
X202238095Y-109797619D01*
X202285714Y-109892857D01*
X202285714Y-109988095D01*
X202238095Y-110130952D01*
X201666666Y-110702380D01*
X202285714Y-110702380D01*
D10*
X187161904Y-92340476D02*
X186361904Y-92340476D01*
X186361904Y-92150000D01*
X186400000Y-92035714D01*
X186476190Y-91959523D01*
X186552380Y-91921428D01*
X186704761Y-91883333D01*
X186819047Y-91883333D01*
X186971428Y-91921428D01*
X187047619Y-91959523D01*
X187123809Y-92035714D01*
X187161904Y-92150000D01*
X187161904Y-92340476D01*
X186361904Y-91616666D02*
X186361904Y-91121428D01*
X186666666Y-91388095D01*
X186666666Y-91273809D01*
X186704761Y-91197619D01*
X186742857Y-91159523D01*
X186819047Y-91121428D01*
X187009523Y-91121428D01*
X187085714Y-91159523D01*
X187123809Y-91197619D01*
X187161904Y-91273809D01*
X187161904Y-91502380D01*
X187123809Y-91578571D01*
X187085714Y-91616666D01*
X206323214Y-128585714D02*
X206285119Y-128623809D01*
X206170833Y-128661904D01*
X206094642Y-128661904D01*
X205980357Y-128623809D01*
X205904166Y-128547619D01*
X205866071Y-128471428D01*
X205827976Y-128319047D01*
X205827976Y-128204761D01*
X205866071Y-128052380D01*
X205904166Y-127976190D01*
X205980357Y-127900000D01*
X206094642Y-127861904D01*
X206170833Y-127861904D01*
X206285119Y-127900000D01*
X206323214Y-127938095D01*
X207085119Y-128661904D02*
X206627976Y-128661904D01*
X206856547Y-128661904D02*
X206856547Y-127861904D01*
X206780357Y-127976190D01*
X206704166Y-128052380D01*
X206627976Y-128090476D01*
X207580357Y-127861904D02*
X207656547Y-127861904D01*
X207732738Y-127900000D01*
X207770833Y-127938095D01*
X207808928Y-128014285D01*
X207847023Y-128166666D01*
X207847023Y-128357142D01*
X207808928Y-128509523D01*
X207770833Y-128585714D01*
X207732738Y-128623809D01*
X207656547Y-128661904D01*
X207580357Y-128661904D01*
X207504166Y-128623809D01*
X207466071Y-128585714D01*
X207427976Y-128509523D01*
X207389880Y-128357142D01*
X207389880Y-128166666D01*
X207427976Y-128014285D01*
X207466071Y-127938095D01*
X207504166Y-127900000D01*
X207580357Y-127861904D01*
X192661904Y-91833333D02*
X192280952Y-92100000D01*
X192661904Y-92290476D02*
X191861904Y-92290476D01*
X191861904Y-91985714D01*
X191900000Y-91909523D01*
X191938095Y-91871428D01*
X192014285Y-91833333D01*
X192128571Y-91833333D01*
X192204761Y-91871428D01*
X192242857Y-91909523D01*
X192280952Y-91985714D01*
X192280952Y-92290476D01*
X191938095Y-91528571D02*
X191900000Y-91490476D01*
X191861904Y-91414285D01*
X191861904Y-91223809D01*
X191900000Y-91147619D01*
X191938095Y-91109523D01*
X192014285Y-91071428D01*
X192090476Y-91071428D01*
X192204761Y-91109523D01*
X192661904Y-91566666D01*
X192661904Y-91071428D01*
X211985714Y-125285714D02*
X211947619Y-125323809D01*
X211833333Y-125361904D01*
X211757142Y-125361904D01*
X211642857Y-125323809D01*
X211566666Y-125247619D01*
X211528571Y-125171428D01*
X211490476Y-125019047D01*
X211490476Y-124904761D01*
X211528571Y-124752380D01*
X211566666Y-124676190D01*
X211642857Y-124600000D01*
X211757142Y-124561904D01*
X211833333Y-124561904D01*
X211947619Y-124600000D01*
X211985714Y-124638095D01*
X212747619Y-125361904D02*
X212290476Y-125361904D01*
X212519047Y-125361904D02*
X212519047Y-124561904D01*
X212442857Y-124676190D01*
X212366666Y-124752380D01*
X212290476Y-124790476D01*
X213433333Y-124828571D02*
X213433333Y-125361904D01*
X213242857Y-124523809D02*
X213052380Y-125095238D01*
X213547619Y-125095238D01*
X206185714Y-135985714D02*
X206147619Y-136023809D01*
X206033333Y-136061904D01*
X205957142Y-136061904D01*
X205842857Y-136023809D01*
X205766666Y-135947619D01*
X205728571Y-135871428D01*
X205690476Y-135719047D01*
X205690476Y-135604761D01*
X205728571Y-135452380D01*
X205766666Y-135376190D01*
X205842857Y-135300000D01*
X205957142Y-135261904D01*
X206033333Y-135261904D01*
X206147619Y-135300000D01*
X206185714Y-135338095D01*
X206947619Y-136061904D02*
X206490476Y-136061904D01*
X206719047Y-136061904D02*
X206719047Y-135261904D01*
X206642857Y-135376190D01*
X206566666Y-135452380D01*
X206490476Y-135490476D01*
X207214285Y-135261904D02*
X207709523Y-135261904D01*
X207442857Y-135566666D01*
X207557142Y-135566666D01*
X207633333Y-135604761D01*
X207671428Y-135642857D01*
X207709523Y-135719047D01*
X207709523Y-135909523D01*
X207671428Y-135985714D01*
X207633333Y-136023809D01*
X207557142Y-136061904D01*
X207328571Y-136061904D01*
X207252380Y-136023809D01*
X207214285Y-135985714D01*
X203035714Y-106564285D02*
X203073809Y-106602380D01*
X203111904Y-106716666D01*
X203111904Y-106792857D01*
X203073809Y-106907142D01*
X202997619Y-106983333D01*
X202921428Y-107021428D01*
X202769047Y-107059523D01*
X202654761Y-107059523D01*
X202502380Y-107021428D01*
X202426190Y-106983333D01*
X202350000Y-106907142D01*
X202311904Y-106792857D01*
X202311904Y-106716666D01*
X202350000Y-106602380D01*
X202388095Y-106564285D01*
X203111904Y-105802380D02*
X203111904Y-106259523D01*
X203111904Y-106030952D02*
X202311904Y-106030952D01*
X202426190Y-106107142D01*
X202502380Y-106183333D01*
X202540476Y-106259523D01*
X202388095Y-105497619D02*
X202350000Y-105459523D01*
X202311904Y-105383333D01*
X202311904Y-105192857D01*
X202350000Y-105116666D01*
X202388095Y-105078571D01*
X202464285Y-105040476D01*
X202540476Y-105040476D01*
X202654761Y-105078571D01*
X203111904Y-105535714D01*
X203111904Y-105040476D01*
X212085714Y-128585714D02*
X212047619Y-128623809D01*
X211933333Y-128661904D01*
X211857142Y-128661904D01*
X211742857Y-128623809D01*
X211666666Y-128547619D01*
X211628571Y-128471428D01*
X211590476Y-128319047D01*
X211590476Y-128204761D01*
X211628571Y-128052380D01*
X211666666Y-127976190D01*
X211742857Y-127900000D01*
X211857142Y-127861904D01*
X211933333Y-127861904D01*
X212047619Y-127900000D01*
X212085714Y-127938095D01*
X212847619Y-128661904D02*
X212390476Y-128661904D01*
X212619047Y-128661904D02*
X212619047Y-127861904D01*
X212542857Y-127976190D01*
X212466666Y-128052380D01*
X212390476Y-128090476D01*
X213609523Y-128661904D02*
X213152380Y-128661904D01*
X213380952Y-128661904D02*
X213380952Y-127861904D01*
X213304761Y-127976190D01*
X213228571Y-128052380D01*
X213152380Y-128090476D01*
X202885714Y-96633333D02*
X202923809Y-96671428D01*
X202961904Y-96785714D01*
X202961904Y-96861904D01*
X202923809Y-96976190D01*
X202847619Y-97052380D01*
X202771428Y-97090476D01*
X202619047Y-97128571D01*
X202504761Y-97128571D01*
X202352380Y-97090476D01*
X202276190Y-97052380D01*
X202200000Y-96976190D01*
X202161904Y-96861904D01*
X202161904Y-96785714D01*
X202200000Y-96671428D01*
X202238095Y-96633333D01*
X202961904Y-96252380D02*
X202961904Y-96100000D01*
X202923809Y-96023809D01*
X202885714Y-95985714D01*
X202771428Y-95909523D01*
X202619047Y-95871428D01*
X202314285Y-95871428D01*
X202238095Y-95909523D01*
X202200000Y-95947619D01*
X202161904Y-96023809D01*
X202161904Y-96176190D01*
X202200000Y-96252380D01*
X202238095Y-96290476D01*
X202314285Y-96328571D01*
X202504761Y-96328571D01*
X202580952Y-96290476D01*
X202619047Y-96252380D01*
X202657142Y-96176190D01*
X202657142Y-96023809D01*
X202619047Y-95947619D01*
X202580952Y-95909523D01*
X202504761Y-95871428D01*
X203085714Y-101233333D02*
X203123809Y-101271428D01*
X203161904Y-101385714D01*
X203161904Y-101461904D01*
X203123809Y-101576190D01*
X203047619Y-101652380D01*
X202971428Y-101690476D01*
X202819047Y-101728571D01*
X202704761Y-101728571D01*
X202552380Y-101690476D01*
X202476190Y-101652380D01*
X202400000Y-101576190D01*
X202361904Y-101461904D01*
X202361904Y-101385714D01*
X202400000Y-101271428D01*
X202438095Y-101233333D01*
X202704761Y-100776190D02*
X202666666Y-100852380D01*
X202628571Y-100890476D01*
X202552380Y-100928571D01*
X202514285Y-100928571D01*
X202438095Y-100890476D01*
X202400000Y-100852380D01*
X202361904Y-100776190D01*
X202361904Y-100623809D01*
X202400000Y-100547619D01*
X202438095Y-100509523D01*
X202514285Y-100471428D01*
X202552380Y-100471428D01*
X202628571Y-100509523D01*
X202666666Y-100547619D01*
X202704761Y-100623809D01*
X202704761Y-100776190D01*
X202742857Y-100852380D01*
X202780952Y-100890476D01*
X202857142Y-100928571D01*
X203009523Y-100928571D01*
X203085714Y-100890476D01*
X203123809Y-100852380D01*
X203161904Y-100776190D01*
X203161904Y-100623809D01*
X203123809Y-100547619D01*
X203085714Y-100509523D01*
X203009523Y-100471428D01*
X202857142Y-100471428D01*
X202780952Y-100509523D01*
X202742857Y-100547619D01*
X202704761Y-100623809D01*
X193579166Y-108885714D02*
X193541071Y-108923809D01*
X193426785Y-108961904D01*
X193350595Y-108961904D01*
X193236309Y-108923809D01*
X193160119Y-108847619D01*
X193122023Y-108771428D01*
X193083928Y-108619047D01*
X193083928Y-108504761D01*
X193122023Y-108352380D01*
X193160119Y-108276190D01*
X193236309Y-108200000D01*
X193350595Y-108161904D01*
X193426785Y-108161904D01*
X193541071Y-108200000D01*
X193579166Y-108238095D01*
X193845833Y-108161904D02*
X194379166Y-108161904D01*
X194036309Y-108961904D01*
X185829166Y-127585714D02*
X185791071Y-127623809D01*
X185676785Y-127661904D01*
X185600595Y-127661904D01*
X185486309Y-127623809D01*
X185410119Y-127547619D01*
X185372023Y-127471428D01*
X185333928Y-127319047D01*
X185333928Y-127204761D01*
X185372023Y-127052380D01*
X185410119Y-126976190D01*
X185486309Y-126900000D01*
X185600595Y-126861904D01*
X185676785Y-126861904D01*
X185791071Y-126900000D01*
X185829166Y-126938095D01*
X186514880Y-126861904D02*
X186362500Y-126861904D01*
X186286309Y-126900000D01*
X186248214Y-126938095D01*
X186172023Y-127052380D01*
X186133928Y-127204761D01*
X186133928Y-127509523D01*
X186172023Y-127585714D01*
X186210119Y-127623809D01*
X186286309Y-127661904D01*
X186438690Y-127661904D01*
X186514880Y-127623809D01*
X186552976Y-127585714D01*
X186591071Y-127509523D01*
X186591071Y-127319047D01*
X186552976Y-127242857D01*
X186514880Y-127204761D01*
X186438690Y-127166666D01*
X186286309Y-127166666D01*
X186210119Y-127204761D01*
X186172023Y-127242857D01*
X186133928Y-127319047D01*
X185904166Y-108685714D02*
X185866071Y-108723809D01*
X185751785Y-108761904D01*
X185675595Y-108761904D01*
X185561309Y-108723809D01*
X185485119Y-108647619D01*
X185447023Y-108571428D01*
X185408928Y-108419047D01*
X185408928Y-108304761D01*
X185447023Y-108152380D01*
X185485119Y-108076190D01*
X185561309Y-108000000D01*
X185675595Y-107961904D01*
X185751785Y-107961904D01*
X185866071Y-108000000D01*
X185904166Y-108038095D01*
X186627976Y-107961904D02*
X186247023Y-107961904D01*
X186208928Y-108342857D01*
X186247023Y-108304761D01*
X186323214Y-108266666D01*
X186513690Y-108266666D01*
X186589880Y-108304761D01*
X186627976Y-108342857D01*
X186666071Y-108419047D01*
X186666071Y-108609523D01*
X186627976Y-108685714D01*
X186589880Y-108723809D01*
X186513690Y-108761904D01*
X186323214Y-108761904D01*
X186247023Y-108723809D01*
X186208928Y-108685714D01*
X193666666Y-127485714D02*
X193628571Y-127523809D01*
X193514285Y-127561904D01*
X193438095Y-127561904D01*
X193323809Y-127523809D01*
X193247619Y-127447619D01*
X193209523Y-127371428D01*
X193171428Y-127219047D01*
X193171428Y-127104761D01*
X193209523Y-126952380D01*
X193247619Y-126876190D01*
X193323809Y-126800000D01*
X193438095Y-126761904D01*
X193514285Y-126761904D01*
X193628571Y-126800000D01*
X193666666Y-126838095D01*
X194352380Y-127028571D02*
X194352380Y-127561904D01*
X194161904Y-126723809D02*
X193971428Y-127295238D01*
X194466666Y-127295238D01*
D14*
X125428571Y-118333333D02*
X125428571Y-118666666D01*
X125952380Y-118666666D02*
X124952380Y-118666666D01*
X124952380Y-118190476D01*
X125952380Y-117285714D02*
X125952380Y-117857142D01*
X125952380Y-117571428D02*
X124952380Y-117571428D01*
X125095238Y-117666666D01*
X125190476Y-117761904D01*
X125238095Y-117857142D01*
X162952380Y-118761904D02*
X162952380Y-118190476D01*
X163952380Y-118476190D02*
X162952380Y-118476190D01*
X163952380Y-117333333D02*
X163952380Y-117904761D01*
X163952380Y-117619047D02*
X162952380Y-117619047D01*
X163095238Y-117714285D01*
X163190476Y-117809523D01*
X163238095Y-117904761D01*
D10*
X209040476Y-144811904D02*
X209040476Y-145459523D01*
X209078571Y-145535714D01*
X209116666Y-145573809D01*
X209192857Y-145611904D01*
X209345238Y-145611904D01*
X209421428Y-145573809D01*
X209459523Y-145535714D01*
X209497619Y-145459523D01*
X209497619Y-144811904D01*
X210221428Y-145078571D02*
X210221428Y-145611904D01*
X210030952Y-144773809D02*
X209840476Y-145345238D01*
X210335714Y-145345238D01*
X208890476Y-127961904D02*
X208890476Y-128609523D01*
X208928571Y-128685714D01*
X208966666Y-128723809D01*
X209042857Y-128761904D01*
X209195238Y-128761904D01*
X209271428Y-128723809D01*
X209309523Y-128685714D01*
X209347619Y-128609523D01*
X209347619Y-127961904D01*
X209652380Y-127961904D02*
X210147619Y-127961904D01*
X209880952Y-128266666D01*
X209995238Y-128266666D01*
X210071428Y-128304761D01*
X210109523Y-128342857D01*
X210147619Y-128419047D01*
X210147619Y-128609523D01*
X210109523Y-128685714D01*
X210071428Y-128723809D01*
X209995238Y-128761904D01*
X209766666Y-128761904D01*
X209690476Y-128723809D01*
X209652380Y-128685714D01*
D14*
X189038095Y-105452380D02*
X189038095Y-106261904D01*
X189085714Y-106357142D01*
X189133333Y-106404761D01*
X189228571Y-106452380D01*
X189419047Y-106452380D01*
X189514285Y-106404761D01*
X189561904Y-106357142D01*
X189609523Y-106261904D01*
X189609523Y-105452380D01*
X190038095Y-105547619D02*
X190085714Y-105500000D01*
X190180952Y-105452380D01*
X190419047Y-105452380D01*
X190514285Y-105500000D01*
X190561904Y-105547619D01*
X190609523Y-105642857D01*
X190609523Y-105738095D01*
X190561904Y-105880952D01*
X189990476Y-106452380D01*
X190609523Y-106452380D01*
X188988095Y-129452380D02*
X188988095Y-130261904D01*
X189035714Y-130357142D01*
X189083333Y-130404761D01*
X189178571Y-130452380D01*
X189369047Y-130452380D01*
X189464285Y-130404761D01*
X189511904Y-130357142D01*
X189559523Y-130261904D01*
X189559523Y-129452380D01*
X190559523Y-130452380D02*
X189988095Y-130452380D01*
X190273809Y-130452380D02*
X190273809Y-129452380D01*
X190178571Y-129595238D01*
X190083333Y-129690476D01*
X189988095Y-129738095D01*
X143654761Y-145452380D02*
X143321428Y-144976190D01*
X143083333Y-145452380D02*
X143083333Y-144452380D01*
X143464285Y-144452380D01*
X143559523Y-144500000D01*
X143607142Y-144547619D01*
X143654761Y-144642857D01*
X143654761Y-144785714D01*
X143607142Y-144880952D01*
X143559523Y-144928571D01*
X143464285Y-144976190D01*
X143083333Y-144976190D01*
X143940476Y-144452380D02*
X144273809Y-145452380D01*
X144607142Y-144452380D01*
X145464285Y-145452380D02*
X144892857Y-145452380D01*
X145178571Y-145452380D02*
X145178571Y-144452380D01*
X145083333Y-144595238D01*
X144988095Y-144690476D01*
X144892857Y-144738095D01*
D10*
X212466666Y-136161904D02*
X212085714Y-136161904D01*
X212085714Y-135361904D01*
X213152380Y-136161904D02*
X212695238Y-136161904D01*
X212923809Y-136161904D02*
X212923809Y-135361904D01*
X212847619Y-135476190D01*
X212771428Y-135552380D01*
X212695238Y-135590476D01*
D14*
X174328571Y-103083333D02*
X174328571Y-103416666D01*
X174852380Y-103416666D02*
X173852380Y-103416666D01*
X173852380Y-102940476D01*
X173852380Y-102654761D02*
X173852380Y-102035714D01*
X174233333Y-102369047D01*
X174233333Y-102226190D01*
X174280952Y-102130952D01*
X174328571Y-102083333D01*
X174423809Y-102035714D01*
X174661904Y-102035714D01*
X174757142Y-102083333D01*
X174804761Y-102130952D01*
X174852380Y-102226190D01*
X174852380Y-102511904D01*
X174804761Y-102607142D01*
X174757142Y-102654761D01*
X174328571Y-133383333D02*
X174328571Y-133716666D01*
X174852380Y-133716666D02*
X173852380Y-133716666D01*
X173852380Y-133240476D01*
X173947619Y-132907142D02*
X173900000Y-132859523D01*
X173852380Y-132764285D01*
X173852380Y-132526190D01*
X173900000Y-132430952D01*
X173947619Y-132383333D01*
X174042857Y-132335714D01*
X174138095Y-132335714D01*
X174280952Y-132383333D01*
X174852380Y-132954761D01*
X174852380Y-132335714D01*
X169202380Y-118502595D02*
X168202380Y-118502595D01*
X168202380Y-118264500D01*
X168250000Y-118121642D01*
X168345238Y-118026404D01*
X168440476Y-117978785D01*
X168630952Y-117931166D01*
X168773809Y-117931166D01*
X168964285Y-117978785D01*
X169059523Y-118026404D01*
X169154761Y-118121642D01*
X169202380Y-118264500D01*
X169202380Y-118502595D01*
X169202380Y-116978785D02*
X169202380Y-117550214D01*
X169202380Y-117264500D02*
X168202380Y-117264500D01*
X168345238Y-117359738D01*
X168440476Y-117454976D01*
X168488095Y-117550214D01*
X166194428Y-126336952D02*
X166194428Y-125575047D01*
X166575380Y-125956000D02*
X165813476Y-125956000D01*
X144088333Y-91357142D02*
X144040714Y-91404761D01*
X143897857Y-91452380D01*
X143802619Y-91452380D01*
X143659761Y-91404761D01*
X143564523Y-91309523D01*
X143516904Y-91214285D01*
X143469285Y-91023809D01*
X143469285Y-90880952D01*
X143516904Y-90690476D01*
X143564523Y-90595238D01*
X143659761Y-90500000D01*
X143802619Y-90452380D01*
X143897857Y-90452380D01*
X144040714Y-90500000D01*
X144088333Y-90547619D01*
X145040714Y-91452380D02*
X144469285Y-91452380D01*
X144755000Y-91452380D02*
X144755000Y-90452380D01*
X144659761Y-90595238D01*
X144564523Y-90690476D01*
X144469285Y-90738095D01*
%LPC*%
G36*
G01*
X189300000Y-143949999D02*
X189300000Y-144850001D01*
G75*
G02*
X189050001Y-145100000I-249999J0D01*
G01*
X188349999Y-145100000D01*
G75*
G02*
X188100000Y-144850001I0J249999D01*
G01*
X188100000Y-143949999D01*
G75*
G02*
X188349999Y-143700000I249999J0D01*
G01*
X189050001Y-143700000D01*
G75*
G02*
X189300000Y-143949999I0J-249999D01*
G01*
G37*
G36*
G01*
X191300000Y-143949999D02*
X191300000Y-144850001D01*
G75*
G02*
X191050001Y-145100000I-249999J0D01*
G01*
X190349999Y-145100000D01*
G75*
G02*
X190100000Y-144850001I0J249999D01*
G01*
X190100000Y-143949999D01*
G75*
G02*
X190349999Y-143700000I249999J0D01*
G01*
X191050001Y-143700000D01*
G75*
G02*
X191300000Y-143949999I0J-249999D01*
G01*
G37*
G36*
G01*
X194550000Y-91249999D02*
X194550000Y-92150001D01*
G75*
G02*
X194300001Y-92400000I-249999J0D01*
G01*
X193649999Y-92400000D01*
G75*
G02*
X193400000Y-92150001I0J249999D01*
G01*
X193400000Y-91249999D01*
G75*
G02*
X193649999Y-91000000I249999J0D01*
G01*
X194300001Y-91000000D01*
G75*
G02*
X194550000Y-91249999I0J-249999D01*
G01*
G37*
G36*
G01*
X196600000Y-91249999D02*
X196600000Y-92150001D01*
G75*
G02*
X196350001Y-92400000I-249999J0D01*
G01*
X195699999Y-92400000D01*
G75*
G02*
X195450000Y-92150001I0J249999D01*
G01*
X195450000Y-91249999D01*
G75*
G02*
X195699999Y-91000000I249999J0D01*
G01*
X196350001Y-91000000D01*
G75*
G02*
X196600000Y-91249999I0J-249999D01*
G01*
G37*
G36*
G01*
X194550000Y-143949999D02*
X194550000Y-144850001D01*
G75*
G02*
X194300001Y-145100000I-249999J0D01*
G01*
X193649999Y-145100000D01*
G75*
G02*
X193400000Y-144850001I0J249999D01*
G01*
X193400000Y-143949999D01*
G75*
G02*
X193649999Y-143700000I249999J0D01*
G01*
X194300001Y-143700000D01*
G75*
G02*
X194550000Y-143949999I0J-249999D01*
G01*
G37*
G36*
G01*
X196600000Y-143949999D02*
X196600000Y-144850001D01*
G75*
G02*
X196350001Y-145100000I-249999J0D01*
G01*
X195699999Y-145100000D01*
G75*
G02*
X195450000Y-144850001I0J249999D01*
G01*
X195450000Y-143949999D01*
G75*
G02*
X195699999Y-143700000I249999J0D01*
G01*
X196350001Y-143700000D01*
G75*
G02*
X196600000Y-143949999I0J-249999D01*
G01*
G37*
G36*
G01*
X183950000Y-143949999D02*
X183950000Y-144850001D01*
G75*
G02*
X183700001Y-145100000I-249999J0D01*
G01*
X183049999Y-145100000D01*
G75*
G02*
X182800000Y-144850001I0J249999D01*
G01*
X182800000Y-143949999D01*
G75*
G02*
X183049999Y-143700000I249999J0D01*
G01*
X183700001Y-143700000D01*
G75*
G02*
X183950000Y-143949999I0J-249999D01*
G01*
G37*
G36*
G01*
X186000000Y-143949999D02*
X186000000Y-144850001D01*
G75*
G02*
X185750001Y-145100000I-249999J0D01*
G01*
X185099999Y-145100000D01*
G75*
G02*
X184850000Y-144850001I0J249999D01*
G01*
X184850000Y-143949999D01*
G75*
G02*
X185099999Y-143700000I249999J0D01*
G01*
X185750001Y-143700000D01*
G75*
G02*
X186000000Y-143949999I0J-249999D01*
G01*
G37*
D15*
X187250000Y-117750000D03*
D16*
X182250000Y-117750000D03*
D15*
X204000000Y-117750000D03*
D16*
X199000000Y-117750000D03*
G36*
G01*
X183950000Y-91299999D02*
X183950000Y-92200001D01*
G75*
G02*
X183700001Y-92450000I-249999J0D01*
G01*
X183049999Y-92450000D01*
G75*
G02*
X182800000Y-92200001I0J249999D01*
G01*
X182800000Y-91299999D01*
G75*
G02*
X183049999Y-91050000I249999J0D01*
G01*
X183700001Y-91050000D01*
G75*
G02*
X183950000Y-91299999I0J-249999D01*
G01*
G37*
G36*
G01*
X186000000Y-91299999D02*
X186000000Y-92200001D01*
G75*
G02*
X185750001Y-92450000I-249999J0D01*
G01*
X185099999Y-92450000D01*
G75*
G02*
X184850000Y-92200001I0J249999D01*
G01*
X184850000Y-91299999D01*
G75*
G02*
X185099999Y-91050000I249999J0D01*
G01*
X185750001Y-91050000D01*
G75*
G02*
X186000000Y-91299999I0J-249999D01*
G01*
G37*
G36*
G01*
X206387500Y-126425000D02*
X206387500Y-127375000D01*
G75*
G02*
X206137500Y-127625000I-250000J0D01*
G01*
X205462500Y-127625000D01*
G75*
G02*
X205212500Y-127375000I0J250000D01*
G01*
X205212500Y-126425000D01*
G75*
G02*
X205462500Y-126175000I250000J0D01*
G01*
X206137500Y-126175000D01*
G75*
G02*
X206387500Y-126425000I0J-250000D01*
G01*
G37*
G36*
G01*
X208462500Y-126425000D02*
X208462500Y-127375000D01*
G75*
G02*
X208212500Y-127625000I-250000J0D01*
G01*
X207537500Y-127625000D01*
G75*
G02*
X207287500Y-127375000I0J250000D01*
G01*
X207287500Y-126425000D01*
G75*
G02*
X207537500Y-126175000I250000J0D01*
G01*
X208212500Y-126175000D01*
G75*
G02*
X208462500Y-126425000I0J-250000D01*
G01*
G37*
G36*
G01*
X189400000Y-91249999D02*
X189400000Y-92150001D01*
G75*
G02*
X189150001Y-92400000I-249999J0D01*
G01*
X188449999Y-92400000D01*
G75*
G02*
X188200000Y-92150001I0J249999D01*
G01*
X188200000Y-91249999D01*
G75*
G02*
X188449999Y-91000000I249999J0D01*
G01*
X189150001Y-91000000D01*
G75*
G02*
X189400000Y-91249999I0J-249999D01*
G01*
G37*
G36*
G01*
X191400000Y-91249999D02*
X191400000Y-92150001D01*
G75*
G02*
X191150001Y-92400000I-249999J0D01*
G01*
X190449999Y-92400000D01*
G75*
G02*
X190200000Y-92150001I0J249999D01*
G01*
X190200000Y-91249999D01*
G75*
G02*
X190449999Y-91000000I249999J0D01*
G01*
X191150001Y-91000000D01*
G75*
G02*
X191400000Y-91249999I0J-249999D01*
G01*
G37*
G36*
G01*
X212050000Y-123225000D02*
X212050000Y-124175000D01*
G75*
G02*
X211800000Y-124425000I-250000J0D01*
G01*
X211125000Y-124425000D01*
G75*
G02*
X210875000Y-124175000I0J250000D01*
G01*
X210875000Y-123225000D01*
G75*
G02*
X211125000Y-122975000I250000J0D01*
G01*
X211800000Y-122975000D01*
G75*
G02*
X212050000Y-123225000I0J-250000D01*
G01*
G37*
G36*
G01*
X214125000Y-123225000D02*
X214125000Y-124175000D01*
G75*
G02*
X213875000Y-124425000I-250000J0D01*
G01*
X213200000Y-124425000D01*
G75*
G02*
X212950000Y-124175000I0J250000D01*
G01*
X212950000Y-123225000D01*
G75*
G02*
X213200000Y-122975000I250000J0D01*
G01*
X213875000Y-122975000D01*
G75*
G02*
X214125000Y-123225000I0J-250000D01*
G01*
G37*
G36*
G01*
X206150000Y-136525000D02*
X206150000Y-137475000D01*
G75*
G02*
X205900000Y-137725000I-250000J0D01*
G01*
X205225000Y-137725000D01*
G75*
G02*
X204975000Y-137475000I0J250000D01*
G01*
X204975000Y-136525000D01*
G75*
G02*
X205225000Y-136275000I250000J0D01*
G01*
X205900000Y-136275000D01*
G75*
G02*
X206150000Y-136525000I0J-250000D01*
G01*
G37*
G36*
G01*
X208225000Y-136525000D02*
X208225000Y-137475000D01*
G75*
G02*
X207975000Y-137725000I-250000J0D01*
G01*
X207300000Y-137725000D01*
G75*
G02*
X207050000Y-137475000I0J250000D01*
G01*
X207050000Y-136525000D01*
G75*
G02*
X207300000Y-136275000I250000J0D01*
G01*
X207975000Y-136275000D01*
G75*
G02*
X208225000Y-136525000I0J-250000D01*
G01*
G37*
G36*
G01*
X203725000Y-106450000D02*
X204675000Y-106450000D01*
G75*
G02*
X204925000Y-106700000I0J-250000D01*
G01*
X204925000Y-107375000D01*
G75*
G02*
X204675000Y-107625000I-250000J0D01*
G01*
X203725000Y-107625000D01*
G75*
G02*
X203475000Y-107375000I0J250000D01*
G01*
X203475000Y-106700000D01*
G75*
G02*
X203725000Y-106450000I250000J0D01*
G01*
G37*
G36*
G01*
X203725000Y-104375000D02*
X204675000Y-104375000D01*
G75*
G02*
X204925000Y-104625000I0J-250000D01*
G01*
X204925000Y-105300000D01*
G75*
G02*
X204675000Y-105550000I-250000J0D01*
G01*
X203725000Y-105550000D01*
G75*
G02*
X203475000Y-105300000I0J250000D01*
G01*
X203475000Y-104625000D01*
G75*
G02*
X203725000Y-104375000I250000J0D01*
G01*
G37*
G36*
G01*
X212887500Y-127375000D02*
X212887500Y-126425000D01*
G75*
G02*
X213137500Y-126175000I250000J0D01*
G01*
X213812500Y-126175000D01*
G75*
G02*
X214062500Y-126425000I0J-250000D01*
G01*
X214062500Y-127375000D01*
G75*
G02*
X213812500Y-127625000I-250000J0D01*
G01*
X213137500Y-127625000D01*
G75*
G02*
X212887500Y-127375000I0J250000D01*
G01*
G37*
G36*
G01*
X210812500Y-127375000D02*
X210812500Y-126425000D01*
G75*
G02*
X211062500Y-126175000I250000J0D01*
G01*
X211737500Y-126175000D01*
G75*
G02*
X211987500Y-126425000I0J-250000D01*
G01*
X211987500Y-127375000D01*
G75*
G02*
X211737500Y-127625000I-250000J0D01*
G01*
X211062500Y-127625000D01*
G75*
G02*
X210812500Y-127375000I0J250000D01*
G01*
G37*
G36*
G01*
X203725000Y-96950000D02*
X204675000Y-96950000D01*
G75*
G02*
X204925000Y-97200000I0J-250000D01*
G01*
X204925000Y-97875000D01*
G75*
G02*
X204675000Y-98125000I-250000J0D01*
G01*
X203725000Y-98125000D01*
G75*
G02*
X203475000Y-97875000I0J250000D01*
G01*
X203475000Y-97200000D01*
G75*
G02*
X203725000Y-96950000I250000J0D01*
G01*
G37*
G36*
G01*
X203725000Y-94875000D02*
X204675000Y-94875000D01*
G75*
G02*
X204925000Y-95125000I0J-250000D01*
G01*
X204925000Y-95800000D01*
G75*
G02*
X204675000Y-96050000I-250000J0D01*
G01*
X203725000Y-96050000D01*
G75*
G02*
X203475000Y-95800000I0J250000D01*
G01*
X203475000Y-95125000D01*
G75*
G02*
X203725000Y-94875000I250000J0D01*
G01*
G37*
G36*
G01*
X204675000Y-100650000D02*
X203725000Y-100650000D01*
G75*
G02*
X203475000Y-100400000I0J250000D01*
G01*
X203475000Y-99725000D01*
G75*
G02*
X203725000Y-99475000I250000J0D01*
G01*
X204675000Y-99475000D01*
G75*
G02*
X204925000Y-99725000I0J-250000D01*
G01*
X204925000Y-100400000D01*
G75*
G02*
X204675000Y-100650000I-250000J0D01*
G01*
G37*
G36*
G01*
X204675000Y-102725000D02*
X203725000Y-102725000D01*
G75*
G02*
X203475000Y-102475000I0J250000D01*
G01*
X203475000Y-101800000D01*
G75*
G02*
X203725000Y-101550000I250000J0D01*
G01*
X204675000Y-101550000D01*
G75*
G02*
X204925000Y-101800000I0J-250000D01*
G01*
X204925000Y-102475000D01*
G75*
G02*
X204675000Y-102725000I-250000J0D01*
G01*
G37*
G36*
G01*
X193262500Y-106525000D02*
X193262500Y-107475000D01*
G75*
G02*
X193012500Y-107725000I-250000J0D01*
G01*
X192337500Y-107725000D01*
G75*
G02*
X192087500Y-107475000I0J250000D01*
G01*
X192087500Y-106525000D01*
G75*
G02*
X192337500Y-106275000I250000J0D01*
G01*
X193012500Y-106275000D01*
G75*
G02*
X193262500Y-106525000I0J-250000D01*
G01*
G37*
G36*
G01*
X195337500Y-106525000D02*
X195337500Y-107475000D01*
G75*
G02*
X195087500Y-107725000I-250000J0D01*
G01*
X194412500Y-107725000D01*
G75*
G02*
X194162500Y-107475000I0J250000D01*
G01*
X194162500Y-106525000D01*
G75*
G02*
X194412500Y-106275000I250000J0D01*
G01*
X195087500Y-106275000D01*
G75*
G02*
X195337500Y-106525000I0J-250000D01*
G01*
G37*
G36*
G01*
X186412500Y-129175000D02*
X186412500Y-128225000D01*
G75*
G02*
X186662500Y-127975000I250000J0D01*
G01*
X187337500Y-127975000D01*
G75*
G02*
X187587500Y-128225000I0J-250000D01*
G01*
X187587500Y-129175000D01*
G75*
G02*
X187337500Y-129425000I-250000J0D01*
G01*
X186662500Y-129425000D01*
G75*
G02*
X186412500Y-129175000I0J250000D01*
G01*
G37*
G36*
G01*
X184337500Y-129175000D02*
X184337500Y-128225000D01*
G75*
G02*
X184587500Y-127975000I250000J0D01*
G01*
X185262500Y-127975000D01*
G75*
G02*
X185512500Y-128225000I0J-250000D01*
G01*
X185512500Y-129175000D01*
G75*
G02*
X185262500Y-129425000I-250000J0D01*
G01*
X184587500Y-129425000D01*
G75*
G02*
X184337500Y-129175000I0J250000D01*
G01*
G37*
G36*
G01*
X186487500Y-107475000D02*
X186487500Y-106525000D01*
G75*
G02*
X186737500Y-106275000I250000J0D01*
G01*
X187412500Y-106275000D01*
G75*
G02*
X187662500Y-106525000I0J-250000D01*
G01*
X187662500Y-107475000D01*
G75*
G02*
X187412500Y-107725000I-250000J0D01*
G01*
X186737500Y-107725000D01*
G75*
G02*
X186487500Y-107475000I0J250000D01*
G01*
G37*
G36*
G01*
X184412500Y-107475000D02*
X184412500Y-106525000D01*
G75*
G02*
X184662500Y-106275000I250000J0D01*
G01*
X185337500Y-106275000D01*
G75*
G02*
X185587500Y-106525000I0J-250000D01*
G01*
X185587500Y-107475000D01*
G75*
G02*
X185337500Y-107725000I-250000J0D01*
G01*
X184662500Y-107725000D01*
G75*
G02*
X184412500Y-107475000I0J250000D01*
G01*
G37*
G36*
G01*
X193250000Y-128225000D02*
X193250000Y-129175000D01*
G75*
G02*
X193000000Y-129425000I-250000J0D01*
G01*
X192325000Y-129425000D01*
G75*
G02*
X192075000Y-129175000I0J250000D01*
G01*
X192075000Y-128225000D01*
G75*
G02*
X192325000Y-127975000I250000J0D01*
G01*
X193000000Y-127975000D01*
G75*
G02*
X193250000Y-128225000I0J-250000D01*
G01*
G37*
G36*
G01*
X195325000Y-128225000D02*
X195325000Y-129175000D01*
G75*
G02*
X195075000Y-129425000I-250000J0D01*
G01*
X194400000Y-129425000D01*
G75*
G02*
X194150000Y-129175000I0J250000D01*
G01*
X194150000Y-128225000D01*
G75*
G02*
X194400000Y-127975000I250000J0D01*
G01*
X195075000Y-127975000D01*
G75*
G02*
X195325000Y-128225000I0J-250000D01*
G01*
G37*
D17*
X125500000Y-129380000D03*
X125500000Y-123000000D03*
X125500000Y-112880000D03*
X125500000Y-106500000D03*
D18*
X159487400Y-118000000D03*
X132512600Y-118000000D03*
D19*
X158700000Y-128160000D03*
X158700000Y-123080000D03*
X158700000Y-112920000D03*
X158700000Y-107840000D03*
X133300000Y-128160000D03*
X133300000Y-123080000D03*
X133300000Y-112920000D03*
D20*
X133300000Y-107840000D03*
D21*
X213355600Y-143628600D03*
X210815600Y-143628600D03*
X208275600Y-143628600D03*
X205735600Y-143628600D03*
D10*
G36*
X208733500Y-133900000D02*
G01*
X208733500Y-130775000D01*
X209150000Y-130775000D01*
X209150000Y-129300000D01*
X210050000Y-129300000D01*
X210050000Y-130775000D01*
X210466500Y-130775000D01*
X210466500Y-133900000D01*
X208733500Y-133900000D01*
G37*
D22*
X208100000Y-129950000D03*
X211100000Y-129950000D03*
D23*
X198790000Y-99250000D03*
X180790000Y-99250000D03*
D24*
X192330000Y-103750000D03*
X189790000Y-103750000D03*
D25*
X187250000Y-103750000D03*
D23*
X180710000Y-136750000D03*
X198710000Y-136750000D03*
D24*
X187170000Y-132250000D03*
X189710000Y-132250000D03*
D25*
X192250000Y-132250000D03*
D26*
X140500000Y-141100000D03*
X148000000Y-143000000D03*
G36*
G01*
X212050000Y-136549999D02*
X212050000Y-137450001D01*
G75*
G02*
X211800001Y-137700000I-249999J0D01*
G01*
X211149999Y-137700000D01*
G75*
G02*
X210900000Y-137450001I0J249999D01*
G01*
X210900000Y-136549999D01*
G75*
G02*
X211149999Y-136300000I249999J0D01*
G01*
X211800001Y-136300000D01*
G75*
G02*
X212050000Y-136549999I0J-249999D01*
G01*
G37*
G36*
G01*
X214100000Y-136549999D02*
X214100000Y-137450001D01*
G75*
G02*
X213850001Y-137700000I-249999J0D01*
G01*
X213199999Y-137700000D01*
G75*
G02*
X212950000Y-137450001I0J249999D01*
G01*
X212950000Y-136549999D01*
G75*
G02*
X213199999Y-136300000I249999J0D01*
G01*
X213850001Y-136300000D01*
G75*
G02*
X214100000Y-136549999I0J-249999D01*
G01*
G37*
D27*
X208500000Y-95050000D03*
X208500000Y-97590000D03*
X208500000Y-100130000D03*
X208500000Y-102670000D03*
X208500000Y-105210000D03*
D28*
X208500000Y-107750000D03*
D29*
X171500000Y-103000000D03*
X166420000Y-103000000D03*
X166420000Y-133000000D03*
X171500000Y-133000000D03*
D30*
X166250000Y-111790000D03*
X166250000Y-115750000D03*
X166250000Y-119710000D03*
D31*
X166250000Y-123670000D03*
D29*
X148005000Y-94000000D03*
X140505000Y-94000000D03*
M02*
