G04 #@! TF.GenerationSoftware,KiCad,Pcbnew,(5.1.10)-1*
G04 #@! TF.CreationDate,2021-11-25T14:07:25+01:00*
G04 #@! TF.ProjectId,PSU,5053552e-6b69-4636-9164-5f7063625858,rev?*
G04 #@! TF.SameCoordinates,Original*
G04 #@! TF.FileFunction,Copper,L2,Bot*
G04 #@! TF.FilePolarity,Positive*
%FSLAX46Y46*%
G04 Gerber Fmt 4.6, Leading zero omitted, Abs format (unit mm)*
G04 Created by KiCad (PCBNEW (5.1.10)-1) date 2021-11-25 14:07:25*
%MOMM*%
%LPD*%
G01*
G04 APERTURE LIST*
G04 #@! TA.AperFunction,ComponentPad*
%ADD10C,2.400000*%
G04 #@! TD*
G04 #@! TA.AperFunction,ComponentPad*
%ADD11R,2.400000X2.400000*%
G04 #@! TD*
G04 #@! TA.AperFunction,ComponentPad*
%ADD12C,4.000000*%
G04 #@! TD*
G04 #@! TA.AperFunction,ComponentPad*
%ADD13C,1.600200*%
G04 #@! TD*
G04 #@! TA.AperFunction,ComponentPad*
%ADD14R,1.600200X1.600200*%
G04 #@! TD*
G04 #@! TA.AperFunction,ComponentPad*
%ADD15C,1.524000*%
G04 #@! TD*
G04 #@! TA.AperFunction,ComponentPad*
%ADD16C,3.000000*%
G04 #@! TD*
G04 #@! TA.AperFunction,ComponentPad*
%ADD17O,1.905000X2.000000*%
G04 #@! TD*
G04 #@! TA.AperFunction,ComponentPad*
%ADD18R,1.905000X2.000000*%
G04 #@! TD*
G04 #@! TA.AperFunction,ComponentPad*
%ADD19C,1.800000*%
G04 #@! TD*
G04 #@! TA.AperFunction,ComponentPad*
%ADD20O,2.200000X1.700000*%
G04 #@! TD*
G04 #@! TA.AperFunction,ComponentPad*
%ADD21R,2.200000X1.700000*%
G04 #@! TD*
G04 #@! TA.AperFunction,SMDPad,CuDef*
%ADD22C,7.000000*%
G04 #@! TD*
G04 #@! TA.AperFunction,ComponentPad*
%ADD23C,2.000000*%
G04 #@! TD*
G04 #@! TA.AperFunction,ComponentPad*
%ADD24C,2.500000*%
G04 #@! TD*
G04 #@! TA.AperFunction,ComponentPad*
%ADD25R,2.500000X2.500000*%
G04 #@! TD*
G04 #@! TA.AperFunction,ViaPad*
%ADD26C,0.800000*%
G04 #@! TD*
G04 #@! TA.AperFunction,Conductor*
%ADD27C,1.000000*%
G04 #@! TD*
G04 #@! TA.AperFunction,Conductor*
%ADD28C,0.500000*%
G04 #@! TD*
G04 #@! TA.AperFunction,Conductor*
%ADD29C,0.254000*%
G04 #@! TD*
G04 #@! TA.AperFunction,Conductor*
%ADD30C,0.100000*%
G04 #@! TD*
G04 APERTURE END LIST*
D10*
X187250000Y-117750000D03*
D11*
X182250000Y-117750000D03*
D10*
X204000000Y-117750000D03*
D11*
X199000000Y-117750000D03*
D12*
X125500000Y-129380000D03*
X125500000Y-123000000D03*
X125500000Y-112880000D03*
X125500000Y-106500000D03*
D13*
X158700000Y-128160000D03*
X158700000Y-123080000D03*
X158700000Y-112920000D03*
X158700000Y-107840000D03*
X133300000Y-128160000D03*
X133300000Y-123080000D03*
X133300000Y-112920000D03*
D14*
X133300000Y-107840000D03*
D15*
X213355600Y-143628600D03*
X210815600Y-143628600D03*
X208275600Y-143628600D03*
X205735600Y-143628600D03*
D16*
X198790000Y-99250000D03*
X180790000Y-99250000D03*
D17*
X192330000Y-103750000D03*
X189790000Y-103750000D03*
D18*
X187250000Y-103750000D03*
D16*
X180710000Y-136750000D03*
X198710000Y-136750000D03*
D17*
X187170000Y-132250000D03*
X189710000Y-132250000D03*
D18*
X192250000Y-132250000D03*
D19*
X140500000Y-141100000D03*
X148000000Y-143000000D03*
D20*
X208500000Y-95050000D03*
X208500000Y-97590000D03*
X208500000Y-100130000D03*
X208500000Y-102670000D03*
X208500000Y-105210000D03*
D21*
X208500000Y-107750000D03*
D22*
X141000000Y-108000000D03*
X141000000Y-128000000D03*
D23*
X171500000Y-103000000D03*
X166420000Y-103000000D03*
X166420000Y-133000000D03*
X171500000Y-133000000D03*
D24*
X166250000Y-111790000D03*
X166250000Y-115750000D03*
X166250000Y-119710000D03*
D25*
X166250000Y-123670000D03*
D23*
X148005000Y-94000000D03*
X140505000Y-94000000D03*
D26*
X205650000Y-129500000D03*
X205650000Y-132300000D03*
X205650000Y-130900000D03*
X205650000Y-133700000D03*
X204400000Y-129500000D03*
X204400000Y-130900000D03*
X204400000Y-133700000D03*
X204400000Y-132300000D03*
X207500000Y-134750000D03*
X214650000Y-129500000D03*
X214650000Y-130900000D03*
X214650000Y-133700000D03*
X214650000Y-132300000D03*
X213400000Y-130900000D03*
X213400000Y-129500000D03*
X211600000Y-134750000D03*
X213400000Y-132300000D03*
X213400000Y-133700000D03*
X208866666Y-134750000D03*
X210233332Y-134750000D03*
X214000000Y-111000000D03*
X158000000Y-143000000D03*
X158000000Y-93000000D03*
X215000000Y-93000000D03*
X205400000Y-100100000D03*
X204200000Y-94100000D03*
X200250000Y-123750000D03*
X194250000Y-111500000D03*
X211250000Y-120250000D03*
X207250000Y-111500000D03*
X205500000Y-103500000D03*
X209500000Y-127250000D03*
X215200000Y-118600000D03*
X211600000Y-140400000D03*
X205200000Y-140400000D03*
X175400000Y-143000000D03*
X175400000Y-93000000D03*
D27*
X126000000Y-112880000D02*
X126000000Y-106500000D01*
X140505000Y-95696254D02*
X140505000Y-94000000D01*
X129701254Y-106500000D02*
X140505000Y-95696254D01*
X126000000Y-106500000D02*
X129701254Y-106500000D01*
X129590199Y-116970199D02*
X125500000Y-112880000D01*
X129590199Y-124450199D02*
X129590199Y-116970199D01*
X133300000Y-128160000D02*
X129590199Y-124450199D01*
D28*
X141000000Y-128000000D02*
X141500000Y-128000000D01*
D27*
X137620001Y-131379999D02*
X141000000Y-128000000D01*
X127999999Y-131379999D02*
X137620001Y-131379999D01*
X126000000Y-129380000D02*
X127999999Y-131379999D01*
X126000000Y-129380000D02*
X126000000Y-123000000D01*
X148005000Y-100995000D02*
X141000000Y-108000000D01*
X148005000Y-94000000D02*
X148005000Y-100995000D01*
X148000000Y-115000000D02*
X148000000Y-143000000D01*
X141000000Y-108000000D02*
X148000000Y-115000000D01*
X133460000Y-108000000D02*
X133300000Y-107840000D01*
X141000000Y-108000000D02*
X133460000Y-108000000D01*
X193080000Y-123670000D02*
X199000000Y-117750000D01*
X192250000Y-123750000D02*
X192170000Y-123670000D01*
X192250000Y-132250000D02*
X192250000Y-123750000D01*
X192170000Y-123670000D02*
X193080000Y-123670000D01*
X166250000Y-123670000D02*
X192170000Y-123670000D01*
X135435001Y-120944999D02*
X133300000Y-123080000D01*
X135435001Y-115055001D02*
X135435001Y-120944999D01*
X133300000Y-112920000D02*
X135435001Y-115055001D01*
D29*
X216594001Y-145594000D02*
X155127000Y-145594000D01*
X155127000Y-144594165D01*
X204949640Y-144594165D01*
X205016620Y-144834256D01*
X205265648Y-144951356D01*
X205532735Y-145017623D01*
X205807617Y-145030510D01*
X206079733Y-144989522D01*
X206338623Y-144896236D01*
X206454580Y-144834256D01*
X206521560Y-144594165D01*
X205735600Y-143808205D01*
X204949640Y-144594165D01*
X155127000Y-144594165D01*
X155127000Y-140703400D01*
X167988571Y-140703400D01*
X167988571Y-141296600D01*
X168104299Y-141878401D01*
X168331306Y-142426447D01*
X168660870Y-142919674D01*
X169080326Y-143339130D01*
X169573553Y-143668694D01*
X170121599Y-143895701D01*
X170703400Y-144011429D01*
X171296600Y-144011429D01*
X171878401Y-143895701D01*
X172349377Y-143700617D01*
X204333690Y-143700617D01*
X204374678Y-143972733D01*
X204467964Y-144231623D01*
X204529944Y-144347580D01*
X204770035Y-144414560D01*
X205555995Y-143628600D01*
X205915205Y-143628600D01*
X206701165Y-144414560D01*
X206941256Y-144347580D01*
X207058356Y-144098552D01*
X207124623Y-143831465D01*
X207132600Y-143661314D01*
X207132600Y-143741176D01*
X207176525Y-143962001D01*
X207262687Y-144170013D01*
X207387774Y-144357220D01*
X207546980Y-144516426D01*
X207734187Y-144641513D01*
X207942199Y-144727675D01*
X208163024Y-144771600D01*
X208388176Y-144771600D01*
X208609001Y-144727675D01*
X208817013Y-144641513D01*
X209004220Y-144516426D01*
X209163426Y-144357220D01*
X209288513Y-144170013D01*
X209374675Y-143962001D01*
X209418600Y-143741176D01*
X209418600Y-143516024D01*
X209672600Y-143516024D01*
X209672600Y-143741176D01*
X209716525Y-143962001D01*
X209802687Y-144170013D01*
X209927774Y-144357220D01*
X210086980Y-144516426D01*
X210274187Y-144641513D01*
X210482199Y-144727675D01*
X210703024Y-144771600D01*
X210928176Y-144771600D01*
X211149001Y-144727675D01*
X211357013Y-144641513D01*
X211544220Y-144516426D01*
X211703426Y-144357220D01*
X211828513Y-144170013D01*
X211914675Y-143962001D01*
X211958600Y-143741176D01*
X211958600Y-143516024D01*
X212212600Y-143516024D01*
X212212600Y-143741176D01*
X212256525Y-143962001D01*
X212342687Y-144170013D01*
X212467774Y-144357220D01*
X212626980Y-144516426D01*
X212814187Y-144641513D01*
X213022199Y-144727675D01*
X213243024Y-144771600D01*
X213468176Y-144771600D01*
X213689001Y-144727675D01*
X213897013Y-144641513D01*
X214084220Y-144516426D01*
X214243426Y-144357220D01*
X214368513Y-144170013D01*
X214454675Y-143962001D01*
X214498600Y-143741176D01*
X214498600Y-143516024D01*
X214454675Y-143295199D01*
X214368513Y-143087187D01*
X214243426Y-142899980D01*
X214084220Y-142740774D01*
X213897013Y-142615687D01*
X213689001Y-142529525D01*
X213468176Y-142485600D01*
X213243024Y-142485600D01*
X213022199Y-142529525D01*
X212814187Y-142615687D01*
X212626980Y-142740774D01*
X212467774Y-142899980D01*
X212342687Y-143087187D01*
X212256525Y-143295199D01*
X212212600Y-143516024D01*
X211958600Y-143516024D01*
X211914675Y-143295199D01*
X211828513Y-143087187D01*
X211703426Y-142899980D01*
X211544220Y-142740774D01*
X211357013Y-142615687D01*
X211149001Y-142529525D01*
X210928176Y-142485600D01*
X210703024Y-142485600D01*
X210482199Y-142529525D01*
X210274187Y-142615687D01*
X210086980Y-142740774D01*
X209927774Y-142899980D01*
X209802687Y-143087187D01*
X209716525Y-143295199D01*
X209672600Y-143516024D01*
X209418600Y-143516024D01*
X209374675Y-143295199D01*
X209288513Y-143087187D01*
X209163426Y-142899980D01*
X209004220Y-142740774D01*
X208817013Y-142615687D01*
X208609001Y-142529525D01*
X208388176Y-142485600D01*
X208163024Y-142485600D01*
X207942199Y-142529525D01*
X207734187Y-142615687D01*
X207546980Y-142740774D01*
X207387774Y-142899980D01*
X207262687Y-143087187D01*
X207176525Y-143295199D01*
X207132600Y-143516024D01*
X207132600Y-143523986D01*
X207096522Y-143284467D01*
X207003236Y-143025577D01*
X206941256Y-142909620D01*
X206701165Y-142842640D01*
X205915205Y-143628600D01*
X205555995Y-143628600D01*
X204770035Y-142842640D01*
X204529944Y-142909620D01*
X204412844Y-143158648D01*
X204346577Y-143425735D01*
X204333690Y-143700617D01*
X172349377Y-143700617D01*
X172426447Y-143668694D01*
X172919674Y-143339130D01*
X173339130Y-142919674D01*
X173510610Y-142663035D01*
X204949640Y-142663035D01*
X205735600Y-143448995D01*
X206521560Y-142663035D01*
X206454580Y-142422944D01*
X206205552Y-142305844D01*
X205938465Y-142239577D01*
X205663583Y-142226690D01*
X205391467Y-142267678D01*
X205132577Y-142360964D01*
X205016620Y-142422944D01*
X204949640Y-142663035D01*
X173510610Y-142663035D01*
X173668694Y-142426447D01*
X173895701Y-141878401D01*
X174011429Y-141296600D01*
X174011429Y-140703400D01*
X173895701Y-140121599D01*
X173668694Y-139573553D01*
X173339130Y-139080326D01*
X172919674Y-138660870D01*
X172426447Y-138331306D01*
X171878401Y-138104299D01*
X171296600Y-137988571D01*
X170703400Y-137988571D01*
X170121599Y-138104299D01*
X169573553Y-138331306D01*
X169080326Y-138660870D01*
X168660870Y-139080326D01*
X168331306Y-139573553D01*
X168104299Y-140121599D01*
X167988571Y-140703400D01*
X155127000Y-140703400D01*
X155127000Y-136564738D01*
X178829000Y-136564738D01*
X178829000Y-136935262D01*
X178901286Y-137298667D01*
X179043080Y-137640987D01*
X179248932Y-137949067D01*
X179510933Y-138211068D01*
X179819013Y-138416920D01*
X180161333Y-138558714D01*
X180524738Y-138631000D01*
X180895262Y-138631000D01*
X181258667Y-138558714D01*
X181600987Y-138416920D01*
X181909067Y-138211068D01*
X182171068Y-137949067D01*
X182376920Y-137640987D01*
X182518714Y-137298667D01*
X182591000Y-136935262D01*
X182591000Y-136564738D01*
X196829000Y-136564738D01*
X196829000Y-136935262D01*
X196901286Y-137298667D01*
X197043080Y-137640987D01*
X197248932Y-137949067D01*
X197510933Y-138211068D01*
X197819013Y-138416920D01*
X198161333Y-138558714D01*
X198524738Y-138631000D01*
X198895262Y-138631000D01*
X199258667Y-138558714D01*
X199600987Y-138416920D01*
X199909067Y-138211068D01*
X200171068Y-137949067D01*
X200376920Y-137640987D01*
X200518714Y-137298667D01*
X200591000Y-136935262D01*
X200591000Y-136564738D01*
X200518714Y-136201333D01*
X200376920Y-135859013D01*
X200171068Y-135550933D01*
X199909067Y-135288932D01*
X199600987Y-135083080D01*
X199258667Y-134941286D01*
X198895262Y-134869000D01*
X198524738Y-134869000D01*
X198161333Y-134941286D01*
X197819013Y-135083080D01*
X197510933Y-135288932D01*
X197248932Y-135550933D01*
X197043080Y-135859013D01*
X196901286Y-136201333D01*
X196829000Y-136564738D01*
X182591000Y-136564738D01*
X182518714Y-136201333D01*
X182376920Y-135859013D01*
X182171068Y-135550933D01*
X181909067Y-135288932D01*
X181600987Y-135083080D01*
X181258667Y-134941286D01*
X180895262Y-134869000D01*
X180524738Y-134869000D01*
X180161333Y-134941286D01*
X179819013Y-135083080D01*
X179510933Y-135288932D01*
X179248932Y-135550933D01*
X179043080Y-135859013D01*
X178901286Y-136201333D01*
X178829000Y-136564738D01*
X155127000Y-136564738D01*
X155127000Y-132863983D01*
X165039000Y-132863983D01*
X165039000Y-133136017D01*
X165092071Y-133402823D01*
X165196174Y-133654149D01*
X165347307Y-133880336D01*
X165539664Y-134072693D01*
X165765851Y-134223826D01*
X166017177Y-134327929D01*
X166283983Y-134381000D01*
X166556017Y-134381000D01*
X166822823Y-134327929D01*
X167074149Y-134223826D01*
X167300336Y-134072693D01*
X167492693Y-133880336D01*
X167643826Y-133654149D01*
X167747929Y-133402823D01*
X167801000Y-133136017D01*
X167801000Y-132863983D01*
X170119000Y-132863983D01*
X170119000Y-133136017D01*
X170172071Y-133402823D01*
X170276174Y-133654149D01*
X170427307Y-133880336D01*
X170619664Y-134072693D01*
X170845851Y-134223826D01*
X171097177Y-134327929D01*
X171363983Y-134381000D01*
X171636017Y-134381000D01*
X171902823Y-134327929D01*
X172154149Y-134223826D01*
X172380336Y-134072693D01*
X172572693Y-133880336D01*
X172723826Y-133654149D01*
X172827929Y-133402823D01*
X172881000Y-133136017D01*
X172881000Y-132863983D01*
X172827929Y-132597177D01*
X172723826Y-132345851D01*
X172584272Y-132136992D01*
X185836500Y-132136992D01*
X185836500Y-132363007D01*
X185855795Y-132558911D01*
X185932046Y-132810276D01*
X186055871Y-133041936D01*
X186222511Y-133244989D01*
X186425563Y-133411629D01*
X186657223Y-133535454D01*
X186908588Y-133611705D01*
X187170000Y-133637452D01*
X187431411Y-133611705D01*
X187682776Y-133535454D01*
X187914436Y-133411629D01*
X188117489Y-133244989D01*
X188284129Y-133041937D01*
X188300730Y-133010879D01*
X188400684Y-133193089D01*
X188600563Y-133431315D01*
X188843077Y-133625969D01*
X189118906Y-133769571D01*
X189337020Y-133840563D01*
X189583000Y-133720594D01*
X189583000Y-132377000D01*
X189563000Y-132377000D01*
X189563000Y-132123000D01*
X189583000Y-132123000D01*
X189583000Y-130779406D01*
X189337020Y-130659437D01*
X189118906Y-130730429D01*
X188843077Y-130874031D01*
X188600563Y-131068685D01*
X188400684Y-131306911D01*
X188300729Y-131489121D01*
X188284129Y-131458064D01*
X188117489Y-131255011D01*
X187914437Y-131088371D01*
X187682777Y-130964546D01*
X187431412Y-130888295D01*
X187170000Y-130862548D01*
X186908589Y-130888295D01*
X186657224Y-130964546D01*
X186425564Y-131088371D01*
X186222512Y-131255011D01*
X186055871Y-131458063D01*
X185932046Y-131689723D01*
X185855795Y-131941088D01*
X185836500Y-132136992D01*
X172584272Y-132136992D01*
X172572693Y-132119664D01*
X172380336Y-131927307D01*
X172154149Y-131776174D01*
X171902823Y-131672071D01*
X171636017Y-131619000D01*
X171363983Y-131619000D01*
X171097177Y-131672071D01*
X170845851Y-131776174D01*
X170619664Y-131927307D01*
X170427307Y-132119664D01*
X170276174Y-132345851D01*
X170172071Y-132597177D01*
X170119000Y-132863983D01*
X167801000Y-132863983D01*
X167747929Y-132597177D01*
X167643826Y-132345851D01*
X167492693Y-132119664D01*
X167300336Y-131927307D01*
X167074149Y-131776174D01*
X166822823Y-131672071D01*
X166556017Y-131619000D01*
X166283983Y-131619000D01*
X166017177Y-131672071D01*
X165765851Y-131776174D01*
X165539664Y-131927307D01*
X165347307Y-132119664D01*
X165196174Y-132345851D01*
X165092071Y-132597177D01*
X165039000Y-132863983D01*
X155127000Y-132863983D01*
X155127000Y-128043672D01*
X157518900Y-128043672D01*
X157518900Y-128276328D01*
X157564289Y-128504514D01*
X157653323Y-128719461D01*
X157782580Y-128912907D01*
X157947093Y-129077420D01*
X158140539Y-129206677D01*
X158355486Y-129295711D01*
X158583672Y-129341100D01*
X158816328Y-129341100D01*
X159044514Y-129295711D01*
X159259461Y-129206677D01*
X159452907Y-129077420D01*
X159617420Y-128912907D01*
X159746677Y-128719461D01*
X159835711Y-128504514D01*
X159881100Y-128276328D01*
X159881100Y-128043672D01*
X159835711Y-127815486D01*
X159746677Y-127600539D01*
X159617420Y-127407093D01*
X159452907Y-127242580D01*
X159259461Y-127113323D01*
X159044514Y-127024289D01*
X158816328Y-126978900D01*
X158583672Y-126978900D01*
X158355486Y-127024289D01*
X158140539Y-127113323D01*
X157947093Y-127242580D01*
X157782580Y-127407093D01*
X157653323Y-127600539D01*
X157564289Y-127815486D01*
X157518900Y-128043672D01*
X155127000Y-128043672D01*
X155127000Y-124072774D01*
X157886831Y-124072774D01*
X157958426Y-124316754D01*
X158213954Y-124437664D01*
X158488161Y-124506400D01*
X158770508Y-124520320D01*
X159050147Y-124478889D01*
X159316328Y-124383700D01*
X159441574Y-124316754D01*
X159513169Y-124072774D01*
X158700000Y-123259605D01*
X157886831Y-124072774D01*
X155127000Y-124072774D01*
X155127000Y-123150508D01*
X157259680Y-123150508D01*
X157301111Y-123430147D01*
X157396300Y-123696328D01*
X157463246Y-123821574D01*
X157707226Y-123893169D01*
X158520395Y-123080000D01*
X158879605Y-123080000D01*
X159692774Y-123893169D01*
X159936754Y-123821574D01*
X160057664Y-123566046D01*
X160126400Y-123291839D01*
X160140320Y-123009492D01*
X160098889Y-122729853D01*
X160003700Y-122463672D01*
X159980357Y-122420000D01*
X164617157Y-122420000D01*
X164617157Y-124920000D01*
X164624513Y-124994689D01*
X164646299Y-125066508D01*
X164681678Y-125132696D01*
X164729289Y-125190711D01*
X164787304Y-125238322D01*
X164853492Y-125273701D01*
X164925311Y-125295487D01*
X165000000Y-125302843D01*
X167500000Y-125302843D01*
X167574689Y-125295487D01*
X167646508Y-125273701D01*
X167712696Y-125238322D01*
X167770711Y-125190711D01*
X167818322Y-125132696D01*
X167853701Y-125066508D01*
X167875487Y-124994689D01*
X167882843Y-124920000D01*
X167882843Y-124551000D01*
X191369001Y-124551000D01*
X191369000Y-130867157D01*
X191297500Y-130867157D01*
X191222811Y-130874513D01*
X191150992Y-130896299D01*
X191084804Y-130931678D01*
X191026789Y-130979289D01*
X190979178Y-131037304D01*
X190943799Y-131103492D01*
X190922013Y-131175311D01*
X190920635Y-131189298D01*
X190819437Y-131068685D01*
X190576923Y-130874031D01*
X190301094Y-130730429D01*
X190082980Y-130659437D01*
X189837000Y-130779406D01*
X189837000Y-132123000D01*
X189857000Y-132123000D01*
X189857000Y-132377000D01*
X189837000Y-132377000D01*
X189837000Y-133720594D01*
X190082980Y-133840563D01*
X190301094Y-133769571D01*
X190576923Y-133625969D01*
X190819437Y-133431315D01*
X190920635Y-133310702D01*
X190922013Y-133324689D01*
X190943799Y-133396508D01*
X190979178Y-133462696D01*
X191026789Y-133520711D01*
X191084804Y-133568322D01*
X191150992Y-133603701D01*
X191222811Y-133625487D01*
X191297500Y-133632843D01*
X193202500Y-133632843D01*
X193277189Y-133625487D01*
X193349008Y-133603701D01*
X193415196Y-133568322D01*
X193473211Y-133520711D01*
X193520822Y-133462696D01*
X193556201Y-133396508D01*
X193577987Y-133324689D01*
X193585343Y-133250000D01*
X193585343Y-131250000D01*
X193577987Y-131175311D01*
X193556201Y-131103492D01*
X193520822Y-131037304D01*
X193473211Y-130979289D01*
X193415196Y-130931678D01*
X193349008Y-130896299D01*
X193277189Y-130874513D01*
X193202500Y-130867157D01*
X193131000Y-130867157D01*
X193131000Y-124550239D01*
X193252706Y-124538252D01*
X193418775Y-124487875D01*
X193571825Y-124406068D01*
X193705975Y-124295975D01*
X193733566Y-124262355D01*
X198663079Y-119332843D01*
X200200000Y-119332843D01*
X200274689Y-119325487D01*
X200346508Y-119303701D01*
X200412696Y-119268322D01*
X200470711Y-119220711D01*
X200518322Y-119162696D01*
X200553701Y-119096508D01*
X200574488Y-119027980D01*
X202901626Y-119027980D01*
X203021514Y-119312836D01*
X203345210Y-119473699D01*
X203694069Y-119568322D01*
X204054684Y-119593067D01*
X204413198Y-119546985D01*
X204755833Y-119431846D01*
X204978486Y-119312836D01*
X205098374Y-119027980D01*
X204000000Y-117929605D01*
X202901626Y-119027980D01*
X200574488Y-119027980D01*
X200575487Y-119024689D01*
X200582843Y-118950000D01*
X200582843Y-117804684D01*
X202156933Y-117804684D01*
X202203015Y-118163198D01*
X202318154Y-118505833D01*
X202437164Y-118728486D01*
X202722020Y-118848374D01*
X203820395Y-117750000D01*
X204179605Y-117750000D01*
X205277980Y-118848374D01*
X205562836Y-118728486D01*
X205723699Y-118404790D01*
X205818322Y-118055931D01*
X205843067Y-117695316D01*
X205796985Y-117336802D01*
X205681846Y-116994167D01*
X205562836Y-116771514D01*
X205277980Y-116651626D01*
X204179605Y-117750000D01*
X203820395Y-117750000D01*
X202722020Y-116651626D01*
X202437164Y-116771514D01*
X202276301Y-117095210D01*
X202181678Y-117444069D01*
X202156933Y-117804684D01*
X200582843Y-117804684D01*
X200582843Y-116550000D01*
X200575487Y-116475311D01*
X200574489Y-116472020D01*
X202901626Y-116472020D01*
X204000000Y-117570395D01*
X205098374Y-116472020D01*
X204978486Y-116187164D01*
X204654790Y-116026301D01*
X204305931Y-115931678D01*
X203945316Y-115906933D01*
X203586802Y-115953015D01*
X203244167Y-116068154D01*
X203021514Y-116187164D01*
X202901626Y-116472020D01*
X200574489Y-116472020D01*
X200553701Y-116403492D01*
X200518322Y-116337304D01*
X200470711Y-116279289D01*
X200412696Y-116231678D01*
X200346508Y-116196299D01*
X200274689Y-116174513D01*
X200200000Y-116167157D01*
X197800000Y-116167157D01*
X197725311Y-116174513D01*
X197653492Y-116196299D01*
X197587304Y-116231678D01*
X197529289Y-116279289D01*
X197481678Y-116337304D01*
X197446299Y-116403492D01*
X197424513Y-116475311D01*
X197417157Y-116550000D01*
X197417157Y-118086921D01*
X192715079Y-122789000D01*
X192213270Y-122789000D01*
X192170000Y-122784738D01*
X192126730Y-122789000D01*
X167882843Y-122789000D01*
X167882843Y-122420000D01*
X167875487Y-122345311D01*
X167853701Y-122273492D01*
X167818322Y-122207304D01*
X167770711Y-122149289D01*
X167712696Y-122101678D01*
X167646508Y-122066299D01*
X167574689Y-122044513D01*
X167500000Y-122037157D01*
X165000000Y-122037157D01*
X164925311Y-122044513D01*
X164853492Y-122066299D01*
X164787304Y-122101678D01*
X164729289Y-122149289D01*
X164681678Y-122207304D01*
X164646299Y-122273492D01*
X164624513Y-122345311D01*
X164617157Y-122420000D01*
X159980357Y-122420000D01*
X159936754Y-122338426D01*
X159692774Y-122266831D01*
X158879605Y-123080000D01*
X158520395Y-123080000D01*
X157707226Y-122266831D01*
X157463246Y-122338426D01*
X157342336Y-122593954D01*
X157273600Y-122868161D01*
X157259680Y-123150508D01*
X155127000Y-123150508D01*
X155127000Y-122087226D01*
X157886831Y-122087226D01*
X158700000Y-122900395D01*
X159513169Y-122087226D01*
X159441574Y-121843246D01*
X159186046Y-121722336D01*
X158911839Y-121653600D01*
X158629492Y-121639680D01*
X158349853Y-121681111D01*
X158083672Y-121776300D01*
X157958426Y-121843246D01*
X157886831Y-122087226D01*
X155127000Y-122087226D01*
X155127000Y-117822381D01*
X157684000Y-117822381D01*
X157684000Y-118177619D01*
X157753304Y-118526032D01*
X157889248Y-118854230D01*
X158086608Y-119149601D01*
X158337799Y-119400792D01*
X158633170Y-119598152D01*
X158961368Y-119734096D01*
X159309781Y-119803400D01*
X159665019Y-119803400D01*
X160013432Y-119734096D01*
X160341630Y-119598152D01*
X160414652Y-119549360D01*
X164619000Y-119549360D01*
X164619000Y-119870640D01*
X164681678Y-120185745D01*
X164804626Y-120482568D01*
X164983119Y-120749702D01*
X165210298Y-120976881D01*
X165477432Y-121155374D01*
X165774255Y-121278322D01*
X166089360Y-121341000D01*
X166410640Y-121341000D01*
X166725745Y-121278322D01*
X167022568Y-121155374D01*
X167289702Y-120976881D01*
X167516881Y-120749702D01*
X167695374Y-120482568D01*
X167818322Y-120185745D01*
X167881000Y-119870640D01*
X167881000Y-119549360D01*
X167818322Y-119234255D01*
X167700580Y-118950000D01*
X180411928Y-118950000D01*
X180424188Y-119074482D01*
X180460498Y-119194180D01*
X180519463Y-119304494D01*
X180598815Y-119401185D01*
X180695506Y-119480537D01*
X180805820Y-119539502D01*
X180925518Y-119575812D01*
X181050000Y-119588072D01*
X181964250Y-119585000D01*
X182123000Y-119426250D01*
X182123000Y-117877000D01*
X182377000Y-117877000D01*
X182377000Y-119426250D01*
X182535750Y-119585000D01*
X183450000Y-119588072D01*
X183574482Y-119575812D01*
X183694180Y-119539502D01*
X183804494Y-119480537D01*
X183901185Y-119401185D01*
X183980537Y-119304494D01*
X184039502Y-119194180D01*
X184075812Y-119074482D01*
X184088072Y-118950000D01*
X184085000Y-118035750D01*
X183926250Y-117877000D01*
X182377000Y-117877000D01*
X182123000Y-117877000D01*
X180573750Y-117877000D01*
X180415000Y-118035750D01*
X180411928Y-118950000D01*
X167700580Y-118950000D01*
X167695374Y-118937432D01*
X167516881Y-118670298D01*
X167289702Y-118443119D01*
X167022568Y-118264626D01*
X166725745Y-118141678D01*
X166410640Y-118079000D01*
X166089360Y-118079000D01*
X165774255Y-118141678D01*
X165477432Y-118264626D01*
X165210298Y-118443119D01*
X164983119Y-118670298D01*
X164804626Y-118937432D01*
X164681678Y-119234255D01*
X164619000Y-119549360D01*
X160414652Y-119549360D01*
X160637001Y-119400792D01*
X160888192Y-119149601D01*
X161085552Y-118854230D01*
X161221496Y-118526032D01*
X161290800Y-118177619D01*
X161290800Y-117822381D01*
X161221496Y-117473968D01*
X161085552Y-117145770D01*
X160888192Y-116850399D01*
X160637001Y-116599208D01*
X160341630Y-116401848D01*
X160013432Y-116265904D01*
X159665019Y-116196600D01*
X159309781Y-116196600D01*
X158961368Y-116265904D01*
X158633170Y-116401848D01*
X158337799Y-116599208D01*
X158086608Y-116850399D01*
X157889248Y-117145770D01*
X157753304Y-117473968D01*
X157684000Y-117822381D01*
X155127000Y-117822381D01*
X155127000Y-115589360D01*
X164619000Y-115589360D01*
X164619000Y-115910640D01*
X164681678Y-116225745D01*
X164804626Y-116522568D01*
X164983119Y-116789702D01*
X165210298Y-117016881D01*
X165477432Y-117195374D01*
X165774255Y-117318322D01*
X166089360Y-117381000D01*
X166410640Y-117381000D01*
X166725745Y-117318322D01*
X167022568Y-117195374D01*
X167289702Y-117016881D01*
X167516881Y-116789702D01*
X167677044Y-116550000D01*
X180411928Y-116550000D01*
X180415000Y-117464250D01*
X180573750Y-117623000D01*
X182123000Y-117623000D01*
X182123000Y-116073750D01*
X182377000Y-116073750D01*
X182377000Y-117623000D01*
X183926250Y-117623000D01*
X183954965Y-117594285D01*
X185669000Y-117594285D01*
X185669000Y-117905715D01*
X185729757Y-118211161D01*
X185848936Y-118498884D01*
X186021957Y-118757829D01*
X186242171Y-118978043D01*
X186501116Y-119151064D01*
X186788839Y-119270243D01*
X187094285Y-119331000D01*
X187405715Y-119331000D01*
X187711161Y-119270243D01*
X187998884Y-119151064D01*
X188257829Y-118978043D01*
X188478043Y-118757829D01*
X188651064Y-118498884D01*
X188770243Y-118211161D01*
X188831000Y-117905715D01*
X188831000Y-117594285D01*
X188770243Y-117288839D01*
X188651064Y-117001116D01*
X188478043Y-116742171D01*
X188257829Y-116521957D01*
X187998884Y-116348936D01*
X187711161Y-116229757D01*
X187405715Y-116169000D01*
X187094285Y-116169000D01*
X186788839Y-116229757D01*
X186501116Y-116348936D01*
X186242171Y-116521957D01*
X186021957Y-116742171D01*
X185848936Y-117001116D01*
X185729757Y-117288839D01*
X185669000Y-117594285D01*
X183954965Y-117594285D01*
X184085000Y-117464250D01*
X184088072Y-116550000D01*
X184075812Y-116425518D01*
X184039502Y-116305820D01*
X183980537Y-116195506D01*
X183901185Y-116098815D01*
X183804494Y-116019463D01*
X183694180Y-115960498D01*
X183574482Y-115924188D01*
X183450000Y-115911928D01*
X182535750Y-115915000D01*
X182377000Y-116073750D01*
X182123000Y-116073750D01*
X181964250Y-115915000D01*
X181050000Y-115911928D01*
X180925518Y-115924188D01*
X180805820Y-115960498D01*
X180695506Y-116019463D01*
X180598815Y-116098815D01*
X180519463Y-116195506D01*
X180460498Y-116305820D01*
X180424188Y-116425518D01*
X180411928Y-116550000D01*
X167677044Y-116550000D01*
X167695374Y-116522568D01*
X167818322Y-116225745D01*
X167881000Y-115910640D01*
X167881000Y-115589360D01*
X167818322Y-115274255D01*
X167695374Y-114977432D01*
X167516881Y-114710298D01*
X167470776Y-114664193D01*
X209590497Y-114664193D01*
X209590497Y-115335807D01*
X209721522Y-115994515D01*
X209978538Y-116615005D01*
X210351666Y-117173431D01*
X210826569Y-117648334D01*
X211384995Y-118021462D01*
X212005485Y-118278478D01*
X212664193Y-118409503D01*
X213335807Y-118409503D01*
X213994515Y-118278478D01*
X214615005Y-118021462D01*
X215173431Y-117648334D01*
X215648334Y-117173431D01*
X216021462Y-116615005D01*
X216278478Y-115994515D01*
X216409503Y-115335807D01*
X216409503Y-114664193D01*
X216278478Y-114005485D01*
X216021462Y-113384995D01*
X215648334Y-112826569D01*
X215173431Y-112351666D01*
X214615005Y-111978538D01*
X213994515Y-111721522D01*
X213335807Y-111590497D01*
X212664193Y-111590497D01*
X212005485Y-111721522D01*
X211384995Y-111978538D01*
X210826569Y-112351666D01*
X210351666Y-112826569D01*
X209978538Y-113384995D01*
X209721522Y-114005485D01*
X209590497Y-114664193D01*
X167470776Y-114664193D01*
X167289702Y-114483119D01*
X167022568Y-114304626D01*
X166725745Y-114181678D01*
X166410640Y-114119000D01*
X166089360Y-114119000D01*
X165774255Y-114181678D01*
X165477432Y-114304626D01*
X165210298Y-114483119D01*
X164983119Y-114710298D01*
X164804626Y-114977432D01*
X164681678Y-115274255D01*
X164619000Y-115589360D01*
X155127000Y-115589360D01*
X155127000Y-113912774D01*
X157886831Y-113912774D01*
X157958426Y-114156754D01*
X158213954Y-114277664D01*
X158488161Y-114346400D01*
X158770508Y-114360320D01*
X159050147Y-114318889D01*
X159316328Y-114223700D01*
X159441574Y-114156754D01*
X159513169Y-113912774D01*
X158700000Y-113099605D01*
X157886831Y-113912774D01*
X155127000Y-113912774D01*
X155127000Y-112990508D01*
X157259680Y-112990508D01*
X157301111Y-113270147D01*
X157396300Y-113536328D01*
X157463246Y-113661574D01*
X157707226Y-113733169D01*
X158520395Y-112920000D01*
X158879605Y-112920000D01*
X159692774Y-113733169D01*
X159936754Y-113661574D01*
X160057664Y-113406046D01*
X160126400Y-113131839D01*
X160140320Y-112849492D01*
X160098889Y-112569853D01*
X160003700Y-112303672D01*
X159936754Y-112178426D01*
X159692774Y-112106831D01*
X158879605Y-112920000D01*
X158520395Y-112920000D01*
X157707226Y-112106831D01*
X157463246Y-112178426D01*
X157342336Y-112433954D01*
X157273600Y-112708161D01*
X157259680Y-112990508D01*
X155127000Y-112990508D01*
X155127000Y-111927226D01*
X157886831Y-111927226D01*
X158700000Y-112740395D01*
X159513169Y-111927226D01*
X159441574Y-111683246D01*
X159327693Y-111629360D01*
X164619000Y-111629360D01*
X164619000Y-111950640D01*
X164681678Y-112265745D01*
X164804626Y-112562568D01*
X164983119Y-112829702D01*
X165210298Y-113056881D01*
X165477432Y-113235374D01*
X165774255Y-113358322D01*
X166089360Y-113421000D01*
X166410640Y-113421000D01*
X166725745Y-113358322D01*
X167022568Y-113235374D01*
X167289702Y-113056881D01*
X167516881Y-112829702D01*
X167695374Y-112562568D01*
X167818322Y-112265745D01*
X167881000Y-111950640D01*
X167881000Y-111629360D01*
X167818322Y-111314255D01*
X167695374Y-111017432D01*
X167516881Y-110750298D01*
X167289702Y-110523119D01*
X167022568Y-110344626D01*
X166725745Y-110221678D01*
X166410640Y-110159000D01*
X166089360Y-110159000D01*
X165774255Y-110221678D01*
X165477432Y-110344626D01*
X165210298Y-110523119D01*
X164983119Y-110750298D01*
X164804626Y-111017432D01*
X164681678Y-111314255D01*
X164619000Y-111629360D01*
X159327693Y-111629360D01*
X159186046Y-111562336D01*
X158911839Y-111493600D01*
X158629492Y-111479680D01*
X158349853Y-111521111D01*
X158083672Y-111616300D01*
X157958426Y-111683246D01*
X157886831Y-111927226D01*
X155127000Y-111927226D01*
X155127000Y-107723672D01*
X157518900Y-107723672D01*
X157518900Y-107956328D01*
X157564289Y-108184514D01*
X157653323Y-108399461D01*
X157782580Y-108592907D01*
X157947093Y-108757420D01*
X158140539Y-108886677D01*
X158355486Y-108975711D01*
X158583672Y-109021100D01*
X158816328Y-109021100D01*
X159044514Y-108975711D01*
X159259461Y-108886677D01*
X159452907Y-108757420D01*
X159617420Y-108592907D01*
X159746677Y-108399461D01*
X159835711Y-108184514D01*
X159881100Y-107956328D01*
X159881100Y-107723672D01*
X159835711Y-107495486D01*
X159746677Y-107280539D01*
X159617420Y-107087093D01*
X159452907Y-106922580D01*
X159419114Y-106900000D01*
X207017157Y-106900000D01*
X207017157Y-108600000D01*
X207024513Y-108674689D01*
X207046299Y-108746508D01*
X207081678Y-108812696D01*
X207129289Y-108870711D01*
X207187304Y-108918322D01*
X207253492Y-108953701D01*
X207325311Y-108975487D01*
X207400000Y-108982843D01*
X209600000Y-108982843D01*
X209674689Y-108975487D01*
X209746508Y-108953701D01*
X209812696Y-108918322D01*
X209870711Y-108870711D01*
X209918322Y-108812696D01*
X209953701Y-108746508D01*
X209975487Y-108674689D01*
X209982843Y-108600000D01*
X209982843Y-106900000D01*
X209975487Y-106825311D01*
X209953701Y-106753492D01*
X209918322Y-106687304D01*
X209870711Y-106629289D01*
X209812696Y-106581678D01*
X209746508Y-106546299D01*
X209674689Y-106524513D01*
X209600000Y-106517157D01*
X207400000Y-106517157D01*
X207325311Y-106524513D01*
X207253492Y-106546299D01*
X207187304Y-106581678D01*
X207129289Y-106629289D01*
X207081678Y-106687304D01*
X207046299Y-106753492D01*
X207024513Y-106825311D01*
X207017157Y-106900000D01*
X159419114Y-106900000D01*
X159259461Y-106793323D01*
X159044514Y-106704289D01*
X158816328Y-106658900D01*
X158583672Y-106658900D01*
X158355486Y-106704289D01*
X158140539Y-106793323D01*
X157947093Y-106922580D01*
X157782580Y-107087093D01*
X157653323Y-107280539D01*
X157564289Y-107495486D01*
X157518900Y-107723672D01*
X155127000Y-107723672D01*
X155127000Y-104750000D01*
X185659428Y-104750000D01*
X185671688Y-104874482D01*
X185707998Y-104994180D01*
X185766963Y-105104494D01*
X185846315Y-105201185D01*
X185943006Y-105280537D01*
X186053320Y-105339502D01*
X186173018Y-105375812D01*
X186297500Y-105388072D01*
X186964250Y-105385000D01*
X187123000Y-105226250D01*
X187123000Y-103877000D01*
X185821250Y-103877000D01*
X185662500Y-104035750D01*
X185659428Y-104750000D01*
X155127000Y-104750000D01*
X155127000Y-102863983D01*
X165039000Y-102863983D01*
X165039000Y-103136017D01*
X165092071Y-103402823D01*
X165196174Y-103654149D01*
X165347307Y-103880336D01*
X165539664Y-104072693D01*
X165765851Y-104223826D01*
X166017177Y-104327929D01*
X166283983Y-104381000D01*
X166556017Y-104381000D01*
X166822823Y-104327929D01*
X167074149Y-104223826D01*
X167300336Y-104072693D01*
X167492693Y-103880336D01*
X167643826Y-103654149D01*
X167747929Y-103402823D01*
X167801000Y-103136017D01*
X167801000Y-102863983D01*
X170119000Y-102863983D01*
X170119000Y-103136017D01*
X170172071Y-103402823D01*
X170276174Y-103654149D01*
X170427307Y-103880336D01*
X170619664Y-104072693D01*
X170845851Y-104223826D01*
X171097177Y-104327929D01*
X171363983Y-104381000D01*
X171636017Y-104381000D01*
X171902823Y-104327929D01*
X172154149Y-104223826D01*
X172380336Y-104072693D01*
X172572693Y-103880336D01*
X172723826Y-103654149D01*
X172827929Y-103402823D01*
X172881000Y-103136017D01*
X172881000Y-102863983D01*
X172858328Y-102750000D01*
X185659428Y-102750000D01*
X185662500Y-103464250D01*
X185821250Y-103623000D01*
X187123000Y-103623000D01*
X187123000Y-102273750D01*
X187377000Y-102273750D01*
X187377000Y-103623000D01*
X187397000Y-103623000D01*
X187397000Y-103877000D01*
X187377000Y-103877000D01*
X187377000Y-105226250D01*
X187535750Y-105385000D01*
X188202500Y-105388072D01*
X188326982Y-105375812D01*
X188446680Y-105339502D01*
X188556994Y-105280537D01*
X188642943Y-105210000D01*
X207013044Y-105210000D01*
X207036812Y-105451318D01*
X207107202Y-105683363D01*
X207221509Y-105897216D01*
X207375340Y-106084660D01*
X207562784Y-106238491D01*
X207776637Y-106352798D01*
X208008682Y-106423188D01*
X208189528Y-106441000D01*
X208810472Y-106441000D01*
X208991318Y-106423188D01*
X209223363Y-106352798D01*
X209437216Y-106238491D01*
X209624660Y-106084660D01*
X209778491Y-105897216D01*
X209892798Y-105683363D01*
X209963188Y-105451318D01*
X209986956Y-105210000D01*
X209963188Y-104968682D01*
X209892798Y-104736637D01*
X209778491Y-104522784D01*
X209624660Y-104335340D01*
X209437216Y-104181509D01*
X209223363Y-104067202D01*
X208991318Y-103996812D01*
X208810472Y-103979000D01*
X208189528Y-103979000D01*
X208008682Y-103996812D01*
X207776637Y-104067202D01*
X207562784Y-104181509D01*
X207375340Y-104335340D01*
X207221509Y-104522784D01*
X207107202Y-104736637D01*
X207036812Y-104968682D01*
X207013044Y-105210000D01*
X188642943Y-105210000D01*
X188653685Y-105201185D01*
X188733037Y-105104494D01*
X188792002Y-104994180D01*
X188828312Y-104874482D01*
X188840572Y-104750000D01*
X188840540Y-104742586D01*
X188842512Y-104744989D01*
X189045564Y-104911629D01*
X189277224Y-105035454D01*
X189528589Y-105111705D01*
X189790000Y-105137452D01*
X190051412Y-105111705D01*
X190302777Y-105035454D01*
X190534437Y-104911629D01*
X190737489Y-104744989D01*
X190904129Y-104541936D01*
X191027954Y-104310276D01*
X191060000Y-104204635D01*
X191092046Y-104310277D01*
X191215871Y-104541937D01*
X191382512Y-104744989D01*
X191585564Y-104911629D01*
X191817224Y-105035454D01*
X192068589Y-105111705D01*
X192330000Y-105137452D01*
X192591412Y-105111705D01*
X192842777Y-105035454D01*
X193074437Y-104911629D01*
X193277489Y-104744989D01*
X193444129Y-104541936D01*
X193567954Y-104310276D01*
X193644205Y-104058911D01*
X193663500Y-103863007D01*
X193663500Y-103636992D01*
X193644205Y-103441088D01*
X193567954Y-103189723D01*
X193444129Y-102958063D01*
X193277489Y-102755011D01*
X193173902Y-102670000D01*
X207013044Y-102670000D01*
X207036812Y-102911318D01*
X207107202Y-103143363D01*
X207221509Y-103357216D01*
X207375340Y-103544660D01*
X207562784Y-103698491D01*
X207776637Y-103812798D01*
X208008682Y-103883188D01*
X208189528Y-103901000D01*
X208810472Y-103901000D01*
X208991318Y-103883188D01*
X209223363Y-103812798D01*
X209437216Y-103698491D01*
X209624660Y-103544660D01*
X209778491Y-103357216D01*
X209892798Y-103143363D01*
X209963188Y-102911318D01*
X209986956Y-102670000D01*
X209963188Y-102428682D01*
X209892798Y-102196637D01*
X209778491Y-101982784D01*
X209624660Y-101795340D01*
X209437216Y-101641509D01*
X209223363Y-101527202D01*
X208991318Y-101456812D01*
X208810472Y-101439000D01*
X208189528Y-101439000D01*
X208008682Y-101456812D01*
X207776637Y-101527202D01*
X207562784Y-101641509D01*
X207375340Y-101795340D01*
X207221509Y-101982784D01*
X207107202Y-102196637D01*
X207036812Y-102428682D01*
X207013044Y-102670000D01*
X193173902Y-102670000D01*
X193074436Y-102588371D01*
X192842776Y-102464546D01*
X192591411Y-102388295D01*
X192330000Y-102362548D01*
X192068588Y-102388295D01*
X191817223Y-102464546D01*
X191585563Y-102588371D01*
X191382511Y-102755011D01*
X191215871Y-102958064D01*
X191092046Y-103189724D01*
X191060000Y-103295365D01*
X191027954Y-103189723D01*
X190904129Y-102958063D01*
X190737489Y-102755011D01*
X190534436Y-102588371D01*
X190302776Y-102464546D01*
X190051411Y-102388295D01*
X189790000Y-102362548D01*
X189528588Y-102388295D01*
X189277223Y-102464546D01*
X189045563Y-102588371D01*
X188842511Y-102755011D01*
X188840540Y-102757413D01*
X188840572Y-102750000D01*
X188828312Y-102625518D01*
X188792002Y-102505820D01*
X188733037Y-102395506D01*
X188653685Y-102298815D01*
X188556994Y-102219463D01*
X188446680Y-102160498D01*
X188326982Y-102124188D01*
X188202500Y-102111928D01*
X187535750Y-102115000D01*
X187377000Y-102273750D01*
X187123000Y-102273750D01*
X186964250Y-102115000D01*
X186297500Y-102111928D01*
X186173018Y-102124188D01*
X186053320Y-102160498D01*
X185943006Y-102219463D01*
X185846315Y-102298815D01*
X185766963Y-102395506D01*
X185707998Y-102505820D01*
X185671688Y-102625518D01*
X185659428Y-102750000D01*
X172858328Y-102750000D01*
X172827929Y-102597177D01*
X172723826Y-102345851D01*
X172572693Y-102119664D01*
X172380336Y-101927307D01*
X172154149Y-101776174D01*
X171902823Y-101672071D01*
X171636017Y-101619000D01*
X171363983Y-101619000D01*
X171097177Y-101672071D01*
X170845851Y-101776174D01*
X170619664Y-101927307D01*
X170427307Y-102119664D01*
X170276174Y-102345851D01*
X170172071Y-102597177D01*
X170119000Y-102863983D01*
X167801000Y-102863983D01*
X167747929Y-102597177D01*
X167643826Y-102345851D01*
X167492693Y-102119664D01*
X167300336Y-101927307D01*
X167074149Y-101776174D01*
X166822823Y-101672071D01*
X166556017Y-101619000D01*
X166283983Y-101619000D01*
X166017177Y-101672071D01*
X165765851Y-101776174D01*
X165539664Y-101927307D01*
X165347307Y-102119664D01*
X165196174Y-102345851D01*
X165092071Y-102597177D01*
X165039000Y-102863983D01*
X155127000Y-102863983D01*
X155127000Y-99064738D01*
X178909000Y-99064738D01*
X178909000Y-99435262D01*
X178981286Y-99798667D01*
X179123080Y-100140987D01*
X179328932Y-100449067D01*
X179590933Y-100711068D01*
X179899013Y-100916920D01*
X180241333Y-101058714D01*
X180604738Y-101131000D01*
X180975262Y-101131000D01*
X181338667Y-101058714D01*
X181680987Y-100916920D01*
X181989067Y-100711068D01*
X182251068Y-100449067D01*
X182456920Y-100140987D01*
X182598714Y-99798667D01*
X182671000Y-99435262D01*
X182671000Y-99064738D01*
X196909000Y-99064738D01*
X196909000Y-99435262D01*
X196981286Y-99798667D01*
X197123080Y-100140987D01*
X197328932Y-100449067D01*
X197590933Y-100711068D01*
X197899013Y-100916920D01*
X198241333Y-101058714D01*
X198604738Y-101131000D01*
X198975262Y-101131000D01*
X199338667Y-101058714D01*
X199680987Y-100916920D01*
X199989067Y-100711068D01*
X200251068Y-100449067D01*
X200456920Y-100140987D01*
X200461470Y-100130000D01*
X207013044Y-100130000D01*
X207036812Y-100371318D01*
X207107202Y-100603363D01*
X207221509Y-100817216D01*
X207375340Y-101004660D01*
X207562784Y-101158491D01*
X207776637Y-101272798D01*
X208008682Y-101343188D01*
X208189528Y-101361000D01*
X208810472Y-101361000D01*
X208991318Y-101343188D01*
X209223363Y-101272798D01*
X209437216Y-101158491D01*
X209624660Y-101004660D01*
X209778491Y-100817216D01*
X209892798Y-100603363D01*
X209963188Y-100371318D01*
X209986956Y-100130000D01*
X209963188Y-99888682D01*
X209892798Y-99656637D01*
X209778491Y-99442784D01*
X209624660Y-99255340D01*
X209437216Y-99101509D01*
X209223363Y-98987202D01*
X208991318Y-98916812D01*
X208810472Y-98899000D01*
X208189528Y-98899000D01*
X208008682Y-98916812D01*
X207776637Y-98987202D01*
X207562784Y-99101509D01*
X207375340Y-99255340D01*
X207221509Y-99442784D01*
X207107202Y-99656637D01*
X207036812Y-99888682D01*
X207013044Y-100130000D01*
X200461470Y-100130000D01*
X200598714Y-99798667D01*
X200671000Y-99435262D01*
X200671000Y-99064738D01*
X200598714Y-98701333D01*
X200456920Y-98359013D01*
X200251068Y-98050933D01*
X199989067Y-97788932D01*
X199680987Y-97583080D01*
X199338667Y-97441286D01*
X198975262Y-97369000D01*
X198604738Y-97369000D01*
X198241333Y-97441286D01*
X197899013Y-97583080D01*
X197590933Y-97788932D01*
X197328932Y-98050933D01*
X197123080Y-98359013D01*
X196981286Y-98701333D01*
X196909000Y-99064738D01*
X182671000Y-99064738D01*
X182598714Y-98701333D01*
X182456920Y-98359013D01*
X182251068Y-98050933D01*
X181989067Y-97788932D01*
X181680987Y-97583080D01*
X181338667Y-97441286D01*
X180975262Y-97369000D01*
X180604738Y-97369000D01*
X180241333Y-97441286D01*
X179899013Y-97583080D01*
X179590933Y-97788932D01*
X179328932Y-98050933D01*
X179123080Y-98359013D01*
X178981286Y-98701333D01*
X178909000Y-99064738D01*
X155127000Y-99064738D01*
X155127000Y-94703400D01*
X167988571Y-94703400D01*
X167988571Y-95296600D01*
X168104299Y-95878401D01*
X168331306Y-96426447D01*
X168660870Y-96919674D01*
X169080326Y-97339130D01*
X169573553Y-97668694D01*
X170121599Y-97895701D01*
X170703400Y-98011429D01*
X171296600Y-98011429D01*
X171878401Y-97895701D01*
X172426447Y-97668694D01*
X172919674Y-97339130D01*
X173339130Y-96919674D01*
X173668694Y-96426447D01*
X173895701Y-95878401D01*
X173989490Y-95406890D01*
X206808524Y-95406890D01*
X206829643Y-95517493D01*
X206948138Y-95785608D01*
X207116663Y-96025454D01*
X207328741Y-96227814D01*
X207576223Y-96384911D01*
X207760067Y-96456059D01*
X207562784Y-96561509D01*
X207375340Y-96715340D01*
X207221509Y-96902784D01*
X207107202Y-97116637D01*
X207036812Y-97348682D01*
X207013044Y-97590000D01*
X207036812Y-97831318D01*
X207107202Y-98063363D01*
X207221509Y-98277216D01*
X207375340Y-98464660D01*
X207562784Y-98618491D01*
X207776637Y-98732798D01*
X208008682Y-98803188D01*
X208189528Y-98821000D01*
X208810472Y-98821000D01*
X208991318Y-98803188D01*
X209223363Y-98732798D01*
X209437216Y-98618491D01*
X209624660Y-98464660D01*
X209778491Y-98277216D01*
X209892798Y-98063363D01*
X209963188Y-97831318D01*
X209986956Y-97590000D01*
X209963188Y-97348682D01*
X209892798Y-97116637D01*
X209778491Y-96902784D01*
X209624660Y-96715340D01*
X209437216Y-96561509D01*
X209239933Y-96456059D01*
X209423777Y-96384911D01*
X209671259Y-96227814D01*
X209883337Y-96025454D01*
X210051862Y-95785608D01*
X210170357Y-95517493D01*
X210191476Y-95406890D01*
X210070155Y-95177000D01*
X208627000Y-95177000D01*
X208627000Y-95197000D01*
X208373000Y-95197000D01*
X208373000Y-95177000D01*
X206929845Y-95177000D01*
X206808524Y-95406890D01*
X173989490Y-95406890D01*
X174011429Y-95296600D01*
X174011429Y-94703400D01*
X174009383Y-94693110D01*
X206808524Y-94693110D01*
X206929845Y-94923000D01*
X208373000Y-94923000D01*
X208373000Y-93718504D01*
X208627000Y-93718504D01*
X208627000Y-94923000D01*
X210070155Y-94923000D01*
X210191476Y-94693110D01*
X210170357Y-94582507D01*
X210051862Y-94314392D01*
X209883337Y-94074546D01*
X209671259Y-93872186D01*
X209423777Y-93715089D01*
X209150402Y-93609292D01*
X208861640Y-93558860D01*
X208627000Y-93718504D01*
X208373000Y-93718504D01*
X208138360Y-93558860D01*
X207849598Y-93609292D01*
X207576223Y-93715089D01*
X207328741Y-93872186D01*
X207116663Y-94074546D01*
X206948138Y-94314392D01*
X206829643Y-94582507D01*
X206808524Y-94693110D01*
X174009383Y-94693110D01*
X173895701Y-94121599D01*
X173668694Y-93573553D01*
X173339130Y-93080326D01*
X172919674Y-92660870D01*
X172426447Y-92331306D01*
X171878401Y-92104299D01*
X171296600Y-91988571D01*
X170703400Y-91988571D01*
X170121599Y-92104299D01*
X169573553Y-92331306D01*
X169080326Y-92660870D01*
X168660870Y-93080326D01*
X168331306Y-93573553D01*
X168104299Y-94121599D01*
X167988571Y-94703400D01*
X155127000Y-94703400D01*
X155127000Y-90406000D01*
X216594000Y-90406000D01*
X216594001Y-145594000D01*
G04 #@! TA.AperFunction,Conductor*
D30*
G36*
X216594001Y-145594000D02*
G01*
X155127000Y-145594000D01*
X155127000Y-144594165D01*
X204949640Y-144594165D01*
X205016620Y-144834256D01*
X205265648Y-144951356D01*
X205532735Y-145017623D01*
X205807617Y-145030510D01*
X206079733Y-144989522D01*
X206338623Y-144896236D01*
X206454580Y-144834256D01*
X206521560Y-144594165D01*
X205735600Y-143808205D01*
X204949640Y-144594165D01*
X155127000Y-144594165D01*
X155127000Y-140703400D01*
X167988571Y-140703400D01*
X167988571Y-141296600D01*
X168104299Y-141878401D01*
X168331306Y-142426447D01*
X168660870Y-142919674D01*
X169080326Y-143339130D01*
X169573553Y-143668694D01*
X170121599Y-143895701D01*
X170703400Y-144011429D01*
X171296600Y-144011429D01*
X171878401Y-143895701D01*
X172349377Y-143700617D01*
X204333690Y-143700617D01*
X204374678Y-143972733D01*
X204467964Y-144231623D01*
X204529944Y-144347580D01*
X204770035Y-144414560D01*
X205555995Y-143628600D01*
X205915205Y-143628600D01*
X206701165Y-144414560D01*
X206941256Y-144347580D01*
X207058356Y-144098552D01*
X207124623Y-143831465D01*
X207132600Y-143661314D01*
X207132600Y-143741176D01*
X207176525Y-143962001D01*
X207262687Y-144170013D01*
X207387774Y-144357220D01*
X207546980Y-144516426D01*
X207734187Y-144641513D01*
X207942199Y-144727675D01*
X208163024Y-144771600D01*
X208388176Y-144771600D01*
X208609001Y-144727675D01*
X208817013Y-144641513D01*
X209004220Y-144516426D01*
X209163426Y-144357220D01*
X209288513Y-144170013D01*
X209374675Y-143962001D01*
X209418600Y-143741176D01*
X209418600Y-143516024D01*
X209672600Y-143516024D01*
X209672600Y-143741176D01*
X209716525Y-143962001D01*
X209802687Y-144170013D01*
X209927774Y-144357220D01*
X210086980Y-144516426D01*
X210274187Y-144641513D01*
X210482199Y-144727675D01*
X210703024Y-144771600D01*
X210928176Y-144771600D01*
X211149001Y-144727675D01*
X211357013Y-144641513D01*
X211544220Y-144516426D01*
X211703426Y-144357220D01*
X211828513Y-144170013D01*
X211914675Y-143962001D01*
X211958600Y-143741176D01*
X211958600Y-143516024D01*
X212212600Y-143516024D01*
X212212600Y-143741176D01*
X212256525Y-143962001D01*
X212342687Y-144170013D01*
X212467774Y-144357220D01*
X212626980Y-144516426D01*
X212814187Y-144641513D01*
X213022199Y-144727675D01*
X213243024Y-144771600D01*
X213468176Y-144771600D01*
X213689001Y-144727675D01*
X213897013Y-144641513D01*
X214084220Y-144516426D01*
X214243426Y-144357220D01*
X214368513Y-144170013D01*
X214454675Y-143962001D01*
X214498600Y-143741176D01*
X214498600Y-143516024D01*
X214454675Y-143295199D01*
X214368513Y-143087187D01*
X214243426Y-142899980D01*
X214084220Y-142740774D01*
X213897013Y-142615687D01*
X213689001Y-142529525D01*
X213468176Y-142485600D01*
X213243024Y-142485600D01*
X213022199Y-142529525D01*
X212814187Y-142615687D01*
X212626980Y-142740774D01*
X212467774Y-142899980D01*
X212342687Y-143087187D01*
X212256525Y-143295199D01*
X212212600Y-143516024D01*
X211958600Y-143516024D01*
X211914675Y-143295199D01*
X211828513Y-143087187D01*
X211703426Y-142899980D01*
X211544220Y-142740774D01*
X211357013Y-142615687D01*
X211149001Y-142529525D01*
X210928176Y-142485600D01*
X210703024Y-142485600D01*
X210482199Y-142529525D01*
X210274187Y-142615687D01*
X210086980Y-142740774D01*
X209927774Y-142899980D01*
X209802687Y-143087187D01*
X209716525Y-143295199D01*
X209672600Y-143516024D01*
X209418600Y-143516024D01*
X209374675Y-143295199D01*
X209288513Y-143087187D01*
X209163426Y-142899980D01*
X209004220Y-142740774D01*
X208817013Y-142615687D01*
X208609001Y-142529525D01*
X208388176Y-142485600D01*
X208163024Y-142485600D01*
X207942199Y-142529525D01*
X207734187Y-142615687D01*
X207546980Y-142740774D01*
X207387774Y-142899980D01*
X207262687Y-143087187D01*
X207176525Y-143295199D01*
X207132600Y-143516024D01*
X207132600Y-143523986D01*
X207096522Y-143284467D01*
X207003236Y-143025577D01*
X206941256Y-142909620D01*
X206701165Y-142842640D01*
X205915205Y-143628600D01*
X205555995Y-143628600D01*
X204770035Y-142842640D01*
X204529944Y-142909620D01*
X204412844Y-143158648D01*
X204346577Y-143425735D01*
X204333690Y-143700617D01*
X172349377Y-143700617D01*
X172426447Y-143668694D01*
X172919674Y-143339130D01*
X173339130Y-142919674D01*
X173510610Y-142663035D01*
X204949640Y-142663035D01*
X205735600Y-143448995D01*
X206521560Y-142663035D01*
X206454580Y-142422944D01*
X206205552Y-142305844D01*
X205938465Y-142239577D01*
X205663583Y-142226690D01*
X205391467Y-142267678D01*
X205132577Y-142360964D01*
X205016620Y-142422944D01*
X204949640Y-142663035D01*
X173510610Y-142663035D01*
X173668694Y-142426447D01*
X173895701Y-141878401D01*
X174011429Y-141296600D01*
X174011429Y-140703400D01*
X173895701Y-140121599D01*
X173668694Y-139573553D01*
X173339130Y-139080326D01*
X172919674Y-138660870D01*
X172426447Y-138331306D01*
X171878401Y-138104299D01*
X171296600Y-137988571D01*
X170703400Y-137988571D01*
X170121599Y-138104299D01*
X169573553Y-138331306D01*
X169080326Y-138660870D01*
X168660870Y-139080326D01*
X168331306Y-139573553D01*
X168104299Y-140121599D01*
X167988571Y-140703400D01*
X155127000Y-140703400D01*
X155127000Y-136564738D01*
X178829000Y-136564738D01*
X178829000Y-136935262D01*
X178901286Y-137298667D01*
X179043080Y-137640987D01*
X179248932Y-137949067D01*
X179510933Y-138211068D01*
X179819013Y-138416920D01*
X180161333Y-138558714D01*
X180524738Y-138631000D01*
X180895262Y-138631000D01*
X181258667Y-138558714D01*
X181600987Y-138416920D01*
X181909067Y-138211068D01*
X182171068Y-137949067D01*
X182376920Y-137640987D01*
X182518714Y-137298667D01*
X182591000Y-136935262D01*
X182591000Y-136564738D01*
X196829000Y-136564738D01*
X196829000Y-136935262D01*
X196901286Y-137298667D01*
X197043080Y-137640987D01*
X197248932Y-137949067D01*
X197510933Y-138211068D01*
X197819013Y-138416920D01*
X198161333Y-138558714D01*
X198524738Y-138631000D01*
X198895262Y-138631000D01*
X199258667Y-138558714D01*
X199600987Y-138416920D01*
X199909067Y-138211068D01*
X200171068Y-137949067D01*
X200376920Y-137640987D01*
X200518714Y-137298667D01*
X200591000Y-136935262D01*
X200591000Y-136564738D01*
X200518714Y-136201333D01*
X200376920Y-135859013D01*
X200171068Y-135550933D01*
X199909067Y-135288932D01*
X199600987Y-135083080D01*
X199258667Y-134941286D01*
X198895262Y-134869000D01*
X198524738Y-134869000D01*
X198161333Y-134941286D01*
X197819013Y-135083080D01*
X197510933Y-135288932D01*
X197248932Y-135550933D01*
X197043080Y-135859013D01*
X196901286Y-136201333D01*
X196829000Y-136564738D01*
X182591000Y-136564738D01*
X182518714Y-136201333D01*
X182376920Y-135859013D01*
X182171068Y-135550933D01*
X181909067Y-135288932D01*
X181600987Y-135083080D01*
X181258667Y-134941286D01*
X180895262Y-134869000D01*
X180524738Y-134869000D01*
X180161333Y-134941286D01*
X179819013Y-135083080D01*
X179510933Y-135288932D01*
X179248932Y-135550933D01*
X179043080Y-135859013D01*
X178901286Y-136201333D01*
X178829000Y-136564738D01*
X155127000Y-136564738D01*
X155127000Y-132863983D01*
X165039000Y-132863983D01*
X165039000Y-133136017D01*
X165092071Y-133402823D01*
X165196174Y-133654149D01*
X165347307Y-133880336D01*
X165539664Y-134072693D01*
X165765851Y-134223826D01*
X166017177Y-134327929D01*
X166283983Y-134381000D01*
X166556017Y-134381000D01*
X166822823Y-134327929D01*
X167074149Y-134223826D01*
X167300336Y-134072693D01*
X167492693Y-133880336D01*
X167643826Y-133654149D01*
X167747929Y-133402823D01*
X167801000Y-133136017D01*
X167801000Y-132863983D01*
X170119000Y-132863983D01*
X170119000Y-133136017D01*
X170172071Y-133402823D01*
X170276174Y-133654149D01*
X170427307Y-133880336D01*
X170619664Y-134072693D01*
X170845851Y-134223826D01*
X171097177Y-134327929D01*
X171363983Y-134381000D01*
X171636017Y-134381000D01*
X171902823Y-134327929D01*
X172154149Y-134223826D01*
X172380336Y-134072693D01*
X172572693Y-133880336D01*
X172723826Y-133654149D01*
X172827929Y-133402823D01*
X172881000Y-133136017D01*
X172881000Y-132863983D01*
X172827929Y-132597177D01*
X172723826Y-132345851D01*
X172584272Y-132136992D01*
X185836500Y-132136992D01*
X185836500Y-132363007D01*
X185855795Y-132558911D01*
X185932046Y-132810276D01*
X186055871Y-133041936D01*
X186222511Y-133244989D01*
X186425563Y-133411629D01*
X186657223Y-133535454D01*
X186908588Y-133611705D01*
X187170000Y-133637452D01*
X187431411Y-133611705D01*
X187682776Y-133535454D01*
X187914436Y-133411629D01*
X188117489Y-133244989D01*
X188284129Y-133041937D01*
X188300730Y-133010879D01*
X188400684Y-133193089D01*
X188600563Y-133431315D01*
X188843077Y-133625969D01*
X189118906Y-133769571D01*
X189337020Y-133840563D01*
X189583000Y-133720594D01*
X189583000Y-132377000D01*
X189563000Y-132377000D01*
X189563000Y-132123000D01*
X189583000Y-132123000D01*
X189583000Y-130779406D01*
X189337020Y-130659437D01*
X189118906Y-130730429D01*
X188843077Y-130874031D01*
X188600563Y-131068685D01*
X188400684Y-131306911D01*
X188300729Y-131489121D01*
X188284129Y-131458064D01*
X188117489Y-131255011D01*
X187914437Y-131088371D01*
X187682777Y-130964546D01*
X187431412Y-130888295D01*
X187170000Y-130862548D01*
X186908589Y-130888295D01*
X186657224Y-130964546D01*
X186425564Y-131088371D01*
X186222512Y-131255011D01*
X186055871Y-131458063D01*
X185932046Y-131689723D01*
X185855795Y-131941088D01*
X185836500Y-132136992D01*
X172584272Y-132136992D01*
X172572693Y-132119664D01*
X172380336Y-131927307D01*
X172154149Y-131776174D01*
X171902823Y-131672071D01*
X171636017Y-131619000D01*
X171363983Y-131619000D01*
X171097177Y-131672071D01*
X170845851Y-131776174D01*
X170619664Y-131927307D01*
X170427307Y-132119664D01*
X170276174Y-132345851D01*
X170172071Y-132597177D01*
X170119000Y-132863983D01*
X167801000Y-132863983D01*
X167747929Y-132597177D01*
X167643826Y-132345851D01*
X167492693Y-132119664D01*
X167300336Y-131927307D01*
X167074149Y-131776174D01*
X166822823Y-131672071D01*
X166556017Y-131619000D01*
X166283983Y-131619000D01*
X166017177Y-131672071D01*
X165765851Y-131776174D01*
X165539664Y-131927307D01*
X165347307Y-132119664D01*
X165196174Y-132345851D01*
X165092071Y-132597177D01*
X165039000Y-132863983D01*
X155127000Y-132863983D01*
X155127000Y-128043672D01*
X157518900Y-128043672D01*
X157518900Y-128276328D01*
X157564289Y-128504514D01*
X157653323Y-128719461D01*
X157782580Y-128912907D01*
X157947093Y-129077420D01*
X158140539Y-129206677D01*
X158355486Y-129295711D01*
X158583672Y-129341100D01*
X158816328Y-129341100D01*
X159044514Y-129295711D01*
X159259461Y-129206677D01*
X159452907Y-129077420D01*
X159617420Y-128912907D01*
X159746677Y-128719461D01*
X159835711Y-128504514D01*
X159881100Y-128276328D01*
X159881100Y-128043672D01*
X159835711Y-127815486D01*
X159746677Y-127600539D01*
X159617420Y-127407093D01*
X159452907Y-127242580D01*
X159259461Y-127113323D01*
X159044514Y-127024289D01*
X158816328Y-126978900D01*
X158583672Y-126978900D01*
X158355486Y-127024289D01*
X158140539Y-127113323D01*
X157947093Y-127242580D01*
X157782580Y-127407093D01*
X157653323Y-127600539D01*
X157564289Y-127815486D01*
X157518900Y-128043672D01*
X155127000Y-128043672D01*
X155127000Y-124072774D01*
X157886831Y-124072774D01*
X157958426Y-124316754D01*
X158213954Y-124437664D01*
X158488161Y-124506400D01*
X158770508Y-124520320D01*
X159050147Y-124478889D01*
X159316328Y-124383700D01*
X159441574Y-124316754D01*
X159513169Y-124072774D01*
X158700000Y-123259605D01*
X157886831Y-124072774D01*
X155127000Y-124072774D01*
X155127000Y-123150508D01*
X157259680Y-123150508D01*
X157301111Y-123430147D01*
X157396300Y-123696328D01*
X157463246Y-123821574D01*
X157707226Y-123893169D01*
X158520395Y-123080000D01*
X158879605Y-123080000D01*
X159692774Y-123893169D01*
X159936754Y-123821574D01*
X160057664Y-123566046D01*
X160126400Y-123291839D01*
X160140320Y-123009492D01*
X160098889Y-122729853D01*
X160003700Y-122463672D01*
X159980357Y-122420000D01*
X164617157Y-122420000D01*
X164617157Y-124920000D01*
X164624513Y-124994689D01*
X164646299Y-125066508D01*
X164681678Y-125132696D01*
X164729289Y-125190711D01*
X164787304Y-125238322D01*
X164853492Y-125273701D01*
X164925311Y-125295487D01*
X165000000Y-125302843D01*
X167500000Y-125302843D01*
X167574689Y-125295487D01*
X167646508Y-125273701D01*
X167712696Y-125238322D01*
X167770711Y-125190711D01*
X167818322Y-125132696D01*
X167853701Y-125066508D01*
X167875487Y-124994689D01*
X167882843Y-124920000D01*
X167882843Y-124551000D01*
X191369001Y-124551000D01*
X191369000Y-130867157D01*
X191297500Y-130867157D01*
X191222811Y-130874513D01*
X191150992Y-130896299D01*
X191084804Y-130931678D01*
X191026789Y-130979289D01*
X190979178Y-131037304D01*
X190943799Y-131103492D01*
X190922013Y-131175311D01*
X190920635Y-131189298D01*
X190819437Y-131068685D01*
X190576923Y-130874031D01*
X190301094Y-130730429D01*
X190082980Y-130659437D01*
X189837000Y-130779406D01*
X189837000Y-132123000D01*
X189857000Y-132123000D01*
X189857000Y-132377000D01*
X189837000Y-132377000D01*
X189837000Y-133720594D01*
X190082980Y-133840563D01*
X190301094Y-133769571D01*
X190576923Y-133625969D01*
X190819437Y-133431315D01*
X190920635Y-133310702D01*
X190922013Y-133324689D01*
X190943799Y-133396508D01*
X190979178Y-133462696D01*
X191026789Y-133520711D01*
X191084804Y-133568322D01*
X191150992Y-133603701D01*
X191222811Y-133625487D01*
X191297500Y-133632843D01*
X193202500Y-133632843D01*
X193277189Y-133625487D01*
X193349008Y-133603701D01*
X193415196Y-133568322D01*
X193473211Y-133520711D01*
X193520822Y-133462696D01*
X193556201Y-133396508D01*
X193577987Y-133324689D01*
X193585343Y-133250000D01*
X193585343Y-131250000D01*
X193577987Y-131175311D01*
X193556201Y-131103492D01*
X193520822Y-131037304D01*
X193473211Y-130979289D01*
X193415196Y-130931678D01*
X193349008Y-130896299D01*
X193277189Y-130874513D01*
X193202500Y-130867157D01*
X193131000Y-130867157D01*
X193131000Y-124550239D01*
X193252706Y-124538252D01*
X193418775Y-124487875D01*
X193571825Y-124406068D01*
X193705975Y-124295975D01*
X193733566Y-124262355D01*
X198663079Y-119332843D01*
X200200000Y-119332843D01*
X200274689Y-119325487D01*
X200346508Y-119303701D01*
X200412696Y-119268322D01*
X200470711Y-119220711D01*
X200518322Y-119162696D01*
X200553701Y-119096508D01*
X200574488Y-119027980D01*
X202901626Y-119027980D01*
X203021514Y-119312836D01*
X203345210Y-119473699D01*
X203694069Y-119568322D01*
X204054684Y-119593067D01*
X204413198Y-119546985D01*
X204755833Y-119431846D01*
X204978486Y-119312836D01*
X205098374Y-119027980D01*
X204000000Y-117929605D01*
X202901626Y-119027980D01*
X200574488Y-119027980D01*
X200575487Y-119024689D01*
X200582843Y-118950000D01*
X200582843Y-117804684D01*
X202156933Y-117804684D01*
X202203015Y-118163198D01*
X202318154Y-118505833D01*
X202437164Y-118728486D01*
X202722020Y-118848374D01*
X203820395Y-117750000D01*
X204179605Y-117750000D01*
X205277980Y-118848374D01*
X205562836Y-118728486D01*
X205723699Y-118404790D01*
X205818322Y-118055931D01*
X205843067Y-117695316D01*
X205796985Y-117336802D01*
X205681846Y-116994167D01*
X205562836Y-116771514D01*
X205277980Y-116651626D01*
X204179605Y-117750000D01*
X203820395Y-117750000D01*
X202722020Y-116651626D01*
X202437164Y-116771514D01*
X202276301Y-117095210D01*
X202181678Y-117444069D01*
X202156933Y-117804684D01*
X200582843Y-117804684D01*
X200582843Y-116550000D01*
X200575487Y-116475311D01*
X200574489Y-116472020D01*
X202901626Y-116472020D01*
X204000000Y-117570395D01*
X205098374Y-116472020D01*
X204978486Y-116187164D01*
X204654790Y-116026301D01*
X204305931Y-115931678D01*
X203945316Y-115906933D01*
X203586802Y-115953015D01*
X203244167Y-116068154D01*
X203021514Y-116187164D01*
X202901626Y-116472020D01*
X200574489Y-116472020D01*
X200553701Y-116403492D01*
X200518322Y-116337304D01*
X200470711Y-116279289D01*
X200412696Y-116231678D01*
X200346508Y-116196299D01*
X200274689Y-116174513D01*
X200200000Y-116167157D01*
X197800000Y-116167157D01*
X197725311Y-116174513D01*
X197653492Y-116196299D01*
X197587304Y-116231678D01*
X197529289Y-116279289D01*
X197481678Y-116337304D01*
X197446299Y-116403492D01*
X197424513Y-116475311D01*
X197417157Y-116550000D01*
X197417157Y-118086921D01*
X192715079Y-122789000D01*
X192213270Y-122789000D01*
X192170000Y-122784738D01*
X192126730Y-122789000D01*
X167882843Y-122789000D01*
X167882843Y-122420000D01*
X167875487Y-122345311D01*
X167853701Y-122273492D01*
X167818322Y-122207304D01*
X167770711Y-122149289D01*
X167712696Y-122101678D01*
X167646508Y-122066299D01*
X167574689Y-122044513D01*
X167500000Y-122037157D01*
X165000000Y-122037157D01*
X164925311Y-122044513D01*
X164853492Y-122066299D01*
X164787304Y-122101678D01*
X164729289Y-122149289D01*
X164681678Y-122207304D01*
X164646299Y-122273492D01*
X164624513Y-122345311D01*
X164617157Y-122420000D01*
X159980357Y-122420000D01*
X159936754Y-122338426D01*
X159692774Y-122266831D01*
X158879605Y-123080000D01*
X158520395Y-123080000D01*
X157707226Y-122266831D01*
X157463246Y-122338426D01*
X157342336Y-122593954D01*
X157273600Y-122868161D01*
X157259680Y-123150508D01*
X155127000Y-123150508D01*
X155127000Y-122087226D01*
X157886831Y-122087226D01*
X158700000Y-122900395D01*
X159513169Y-122087226D01*
X159441574Y-121843246D01*
X159186046Y-121722336D01*
X158911839Y-121653600D01*
X158629492Y-121639680D01*
X158349853Y-121681111D01*
X158083672Y-121776300D01*
X157958426Y-121843246D01*
X157886831Y-122087226D01*
X155127000Y-122087226D01*
X155127000Y-117822381D01*
X157684000Y-117822381D01*
X157684000Y-118177619D01*
X157753304Y-118526032D01*
X157889248Y-118854230D01*
X158086608Y-119149601D01*
X158337799Y-119400792D01*
X158633170Y-119598152D01*
X158961368Y-119734096D01*
X159309781Y-119803400D01*
X159665019Y-119803400D01*
X160013432Y-119734096D01*
X160341630Y-119598152D01*
X160414652Y-119549360D01*
X164619000Y-119549360D01*
X164619000Y-119870640D01*
X164681678Y-120185745D01*
X164804626Y-120482568D01*
X164983119Y-120749702D01*
X165210298Y-120976881D01*
X165477432Y-121155374D01*
X165774255Y-121278322D01*
X166089360Y-121341000D01*
X166410640Y-121341000D01*
X166725745Y-121278322D01*
X167022568Y-121155374D01*
X167289702Y-120976881D01*
X167516881Y-120749702D01*
X167695374Y-120482568D01*
X167818322Y-120185745D01*
X167881000Y-119870640D01*
X167881000Y-119549360D01*
X167818322Y-119234255D01*
X167700580Y-118950000D01*
X180411928Y-118950000D01*
X180424188Y-119074482D01*
X180460498Y-119194180D01*
X180519463Y-119304494D01*
X180598815Y-119401185D01*
X180695506Y-119480537D01*
X180805820Y-119539502D01*
X180925518Y-119575812D01*
X181050000Y-119588072D01*
X181964250Y-119585000D01*
X182123000Y-119426250D01*
X182123000Y-117877000D01*
X182377000Y-117877000D01*
X182377000Y-119426250D01*
X182535750Y-119585000D01*
X183450000Y-119588072D01*
X183574482Y-119575812D01*
X183694180Y-119539502D01*
X183804494Y-119480537D01*
X183901185Y-119401185D01*
X183980537Y-119304494D01*
X184039502Y-119194180D01*
X184075812Y-119074482D01*
X184088072Y-118950000D01*
X184085000Y-118035750D01*
X183926250Y-117877000D01*
X182377000Y-117877000D01*
X182123000Y-117877000D01*
X180573750Y-117877000D01*
X180415000Y-118035750D01*
X180411928Y-118950000D01*
X167700580Y-118950000D01*
X167695374Y-118937432D01*
X167516881Y-118670298D01*
X167289702Y-118443119D01*
X167022568Y-118264626D01*
X166725745Y-118141678D01*
X166410640Y-118079000D01*
X166089360Y-118079000D01*
X165774255Y-118141678D01*
X165477432Y-118264626D01*
X165210298Y-118443119D01*
X164983119Y-118670298D01*
X164804626Y-118937432D01*
X164681678Y-119234255D01*
X164619000Y-119549360D01*
X160414652Y-119549360D01*
X160637001Y-119400792D01*
X160888192Y-119149601D01*
X161085552Y-118854230D01*
X161221496Y-118526032D01*
X161290800Y-118177619D01*
X161290800Y-117822381D01*
X161221496Y-117473968D01*
X161085552Y-117145770D01*
X160888192Y-116850399D01*
X160637001Y-116599208D01*
X160341630Y-116401848D01*
X160013432Y-116265904D01*
X159665019Y-116196600D01*
X159309781Y-116196600D01*
X158961368Y-116265904D01*
X158633170Y-116401848D01*
X158337799Y-116599208D01*
X158086608Y-116850399D01*
X157889248Y-117145770D01*
X157753304Y-117473968D01*
X157684000Y-117822381D01*
X155127000Y-117822381D01*
X155127000Y-115589360D01*
X164619000Y-115589360D01*
X164619000Y-115910640D01*
X164681678Y-116225745D01*
X164804626Y-116522568D01*
X164983119Y-116789702D01*
X165210298Y-117016881D01*
X165477432Y-117195374D01*
X165774255Y-117318322D01*
X166089360Y-117381000D01*
X166410640Y-117381000D01*
X166725745Y-117318322D01*
X167022568Y-117195374D01*
X167289702Y-117016881D01*
X167516881Y-116789702D01*
X167677044Y-116550000D01*
X180411928Y-116550000D01*
X180415000Y-117464250D01*
X180573750Y-117623000D01*
X182123000Y-117623000D01*
X182123000Y-116073750D01*
X182377000Y-116073750D01*
X182377000Y-117623000D01*
X183926250Y-117623000D01*
X183954965Y-117594285D01*
X185669000Y-117594285D01*
X185669000Y-117905715D01*
X185729757Y-118211161D01*
X185848936Y-118498884D01*
X186021957Y-118757829D01*
X186242171Y-118978043D01*
X186501116Y-119151064D01*
X186788839Y-119270243D01*
X187094285Y-119331000D01*
X187405715Y-119331000D01*
X187711161Y-119270243D01*
X187998884Y-119151064D01*
X188257829Y-118978043D01*
X188478043Y-118757829D01*
X188651064Y-118498884D01*
X188770243Y-118211161D01*
X188831000Y-117905715D01*
X188831000Y-117594285D01*
X188770243Y-117288839D01*
X188651064Y-117001116D01*
X188478043Y-116742171D01*
X188257829Y-116521957D01*
X187998884Y-116348936D01*
X187711161Y-116229757D01*
X187405715Y-116169000D01*
X187094285Y-116169000D01*
X186788839Y-116229757D01*
X186501116Y-116348936D01*
X186242171Y-116521957D01*
X186021957Y-116742171D01*
X185848936Y-117001116D01*
X185729757Y-117288839D01*
X185669000Y-117594285D01*
X183954965Y-117594285D01*
X184085000Y-117464250D01*
X184088072Y-116550000D01*
X184075812Y-116425518D01*
X184039502Y-116305820D01*
X183980537Y-116195506D01*
X183901185Y-116098815D01*
X183804494Y-116019463D01*
X183694180Y-115960498D01*
X183574482Y-115924188D01*
X183450000Y-115911928D01*
X182535750Y-115915000D01*
X182377000Y-116073750D01*
X182123000Y-116073750D01*
X181964250Y-115915000D01*
X181050000Y-115911928D01*
X180925518Y-115924188D01*
X180805820Y-115960498D01*
X180695506Y-116019463D01*
X180598815Y-116098815D01*
X180519463Y-116195506D01*
X180460498Y-116305820D01*
X180424188Y-116425518D01*
X180411928Y-116550000D01*
X167677044Y-116550000D01*
X167695374Y-116522568D01*
X167818322Y-116225745D01*
X167881000Y-115910640D01*
X167881000Y-115589360D01*
X167818322Y-115274255D01*
X167695374Y-114977432D01*
X167516881Y-114710298D01*
X167470776Y-114664193D01*
X209590497Y-114664193D01*
X209590497Y-115335807D01*
X209721522Y-115994515D01*
X209978538Y-116615005D01*
X210351666Y-117173431D01*
X210826569Y-117648334D01*
X211384995Y-118021462D01*
X212005485Y-118278478D01*
X212664193Y-118409503D01*
X213335807Y-118409503D01*
X213994515Y-118278478D01*
X214615005Y-118021462D01*
X215173431Y-117648334D01*
X215648334Y-117173431D01*
X216021462Y-116615005D01*
X216278478Y-115994515D01*
X216409503Y-115335807D01*
X216409503Y-114664193D01*
X216278478Y-114005485D01*
X216021462Y-113384995D01*
X215648334Y-112826569D01*
X215173431Y-112351666D01*
X214615005Y-111978538D01*
X213994515Y-111721522D01*
X213335807Y-111590497D01*
X212664193Y-111590497D01*
X212005485Y-111721522D01*
X211384995Y-111978538D01*
X210826569Y-112351666D01*
X210351666Y-112826569D01*
X209978538Y-113384995D01*
X209721522Y-114005485D01*
X209590497Y-114664193D01*
X167470776Y-114664193D01*
X167289702Y-114483119D01*
X167022568Y-114304626D01*
X166725745Y-114181678D01*
X166410640Y-114119000D01*
X166089360Y-114119000D01*
X165774255Y-114181678D01*
X165477432Y-114304626D01*
X165210298Y-114483119D01*
X164983119Y-114710298D01*
X164804626Y-114977432D01*
X164681678Y-115274255D01*
X164619000Y-115589360D01*
X155127000Y-115589360D01*
X155127000Y-113912774D01*
X157886831Y-113912774D01*
X157958426Y-114156754D01*
X158213954Y-114277664D01*
X158488161Y-114346400D01*
X158770508Y-114360320D01*
X159050147Y-114318889D01*
X159316328Y-114223700D01*
X159441574Y-114156754D01*
X159513169Y-113912774D01*
X158700000Y-113099605D01*
X157886831Y-113912774D01*
X155127000Y-113912774D01*
X155127000Y-112990508D01*
X157259680Y-112990508D01*
X157301111Y-113270147D01*
X157396300Y-113536328D01*
X157463246Y-113661574D01*
X157707226Y-113733169D01*
X158520395Y-112920000D01*
X158879605Y-112920000D01*
X159692774Y-113733169D01*
X159936754Y-113661574D01*
X160057664Y-113406046D01*
X160126400Y-113131839D01*
X160140320Y-112849492D01*
X160098889Y-112569853D01*
X160003700Y-112303672D01*
X159936754Y-112178426D01*
X159692774Y-112106831D01*
X158879605Y-112920000D01*
X158520395Y-112920000D01*
X157707226Y-112106831D01*
X157463246Y-112178426D01*
X157342336Y-112433954D01*
X157273600Y-112708161D01*
X157259680Y-112990508D01*
X155127000Y-112990508D01*
X155127000Y-111927226D01*
X157886831Y-111927226D01*
X158700000Y-112740395D01*
X159513169Y-111927226D01*
X159441574Y-111683246D01*
X159327693Y-111629360D01*
X164619000Y-111629360D01*
X164619000Y-111950640D01*
X164681678Y-112265745D01*
X164804626Y-112562568D01*
X164983119Y-112829702D01*
X165210298Y-113056881D01*
X165477432Y-113235374D01*
X165774255Y-113358322D01*
X166089360Y-113421000D01*
X166410640Y-113421000D01*
X166725745Y-113358322D01*
X167022568Y-113235374D01*
X167289702Y-113056881D01*
X167516881Y-112829702D01*
X167695374Y-112562568D01*
X167818322Y-112265745D01*
X167881000Y-111950640D01*
X167881000Y-111629360D01*
X167818322Y-111314255D01*
X167695374Y-111017432D01*
X167516881Y-110750298D01*
X167289702Y-110523119D01*
X167022568Y-110344626D01*
X166725745Y-110221678D01*
X166410640Y-110159000D01*
X166089360Y-110159000D01*
X165774255Y-110221678D01*
X165477432Y-110344626D01*
X165210298Y-110523119D01*
X164983119Y-110750298D01*
X164804626Y-111017432D01*
X164681678Y-111314255D01*
X164619000Y-111629360D01*
X159327693Y-111629360D01*
X159186046Y-111562336D01*
X158911839Y-111493600D01*
X158629492Y-111479680D01*
X158349853Y-111521111D01*
X158083672Y-111616300D01*
X157958426Y-111683246D01*
X157886831Y-111927226D01*
X155127000Y-111927226D01*
X155127000Y-107723672D01*
X157518900Y-107723672D01*
X157518900Y-107956328D01*
X157564289Y-108184514D01*
X157653323Y-108399461D01*
X157782580Y-108592907D01*
X157947093Y-108757420D01*
X158140539Y-108886677D01*
X158355486Y-108975711D01*
X158583672Y-109021100D01*
X158816328Y-109021100D01*
X159044514Y-108975711D01*
X159259461Y-108886677D01*
X159452907Y-108757420D01*
X159617420Y-108592907D01*
X159746677Y-108399461D01*
X159835711Y-108184514D01*
X159881100Y-107956328D01*
X159881100Y-107723672D01*
X159835711Y-107495486D01*
X159746677Y-107280539D01*
X159617420Y-107087093D01*
X159452907Y-106922580D01*
X159419114Y-106900000D01*
X207017157Y-106900000D01*
X207017157Y-108600000D01*
X207024513Y-108674689D01*
X207046299Y-108746508D01*
X207081678Y-108812696D01*
X207129289Y-108870711D01*
X207187304Y-108918322D01*
X207253492Y-108953701D01*
X207325311Y-108975487D01*
X207400000Y-108982843D01*
X209600000Y-108982843D01*
X209674689Y-108975487D01*
X209746508Y-108953701D01*
X209812696Y-108918322D01*
X209870711Y-108870711D01*
X209918322Y-108812696D01*
X209953701Y-108746508D01*
X209975487Y-108674689D01*
X209982843Y-108600000D01*
X209982843Y-106900000D01*
X209975487Y-106825311D01*
X209953701Y-106753492D01*
X209918322Y-106687304D01*
X209870711Y-106629289D01*
X209812696Y-106581678D01*
X209746508Y-106546299D01*
X209674689Y-106524513D01*
X209600000Y-106517157D01*
X207400000Y-106517157D01*
X207325311Y-106524513D01*
X207253492Y-106546299D01*
X207187304Y-106581678D01*
X207129289Y-106629289D01*
X207081678Y-106687304D01*
X207046299Y-106753492D01*
X207024513Y-106825311D01*
X207017157Y-106900000D01*
X159419114Y-106900000D01*
X159259461Y-106793323D01*
X159044514Y-106704289D01*
X158816328Y-106658900D01*
X158583672Y-106658900D01*
X158355486Y-106704289D01*
X158140539Y-106793323D01*
X157947093Y-106922580D01*
X157782580Y-107087093D01*
X157653323Y-107280539D01*
X157564289Y-107495486D01*
X157518900Y-107723672D01*
X155127000Y-107723672D01*
X155127000Y-104750000D01*
X185659428Y-104750000D01*
X185671688Y-104874482D01*
X185707998Y-104994180D01*
X185766963Y-105104494D01*
X185846315Y-105201185D01*
X185943006Y-105280537D01*
X186053320Y-105339502D01*
X186173018Y-105375812D01*
X186297500Y-105388072D01*
X186964250Y-105385000D01*
X187123000Y-105226250D01*
X187123000Y-103877000D01*
X185821250Y-103877000D01*
X185662500Y-104035750D01*
X185659428Y-104750000D01*
X155127000Y-104750000D01*
X155127000Y-102863983D01*
X165039000Y-102863983D01*
X165039000Y-103136017D01*
X165092071Y-103402823D01*
X165196174Y-103654149D01*
X165347307Y-103880336D01*
X165539664Y-104072693D01*
X165765851Y-104223826D01*
X166017177Y-104327929D01*
X166283983Y-104381000D01*
X166556017Y-104381000D01*
X166822823Y-104327929D01*
X167074149Y-104223826D01*
X167300336Y-104072693D01*
X167492693Y-103880336D01*
X167643826Y-103654149D01*
X167747929Y-103402823D01*
X167801000Y-103136017D01*
X167801000Y-102863983D01*
X170119000Y-102863983D01*
X170119000Y-103136017D01*
X170172071Y-103402823D01*
X170276174Y-103654149D01*
X170427307Y-103880336D01*
X170619664Y-104072693D01*
X170845851Y-104223826D01*
X171097177Y-104327929D01*
X171363983Y-104381000D01*
X171636017Y-104381000D01*
X171902823Y-104327929D01*
X172154149Y-104223826D01*
X172380336Y-104072693D01*
X172572693Y-103880336D01*
X172723826Y-103654149D01*
X172827929Y-103402823D01*
X172881000Y-103136017D01*
X172881000Y-102863983D01*
X172858328Y-102750000D01*
X185659428Y-102750000D01*
X185662500Y-103464250D01*
X185821250Y-103623000D01*
X187123000Y-103623000D01*
X187123000Y-102273750D01*
X187377000Y-102273750D01*
X187377000Y-103623000D01*
X187397000Y-103623000D01*
X187397000Y-103877000D01*
X187377000Y-103877000D01*
X187377000Y-105226250D01*
X187535750Y-105385000D01*
X188202500Y-105388072D01*
X188326982Y-105375812D01*
X188446680Y-105339502D01*
X188556994Y-105280537D01*
X188642943Y-105210000D01*
X207013044Y-105210000D01*
X207036812Y-105451318D01*
X207107202Y-105683363D01*
X207221509Y-105897216D01*
X207375340Y-106084660D01*
X207562784Y-106238491D01*
X207776637Y-106352798D01*
X208008682Y-106423188D01*
X208189528Y-106441000D01*
X208810472Y-106441000D01*
X208991318Y-106423188D01*
X209223363Y-106352798D01*
X209437216Y-106238491D01*
X209624660Y-106084660D01*
X209778491Y-105897216D01*
X209892798Y-105683363D01*
X209963188Y-105451318D01*
X209986956Y-105210000D01*
X209963188Y-104968682D01*
X209892798Y-104736637D01*
X209778491Y-104522784D01*
X209624660Y-104335340D01*
X209437216Y-104181509D01*
X209223363Y-104067202D01*
X208991318Y-103996812D01*
X208810472Y-103979000D01*
X208189528Y-103979000D01*
X208008682Y-103996812D01*
X207776637Y-104067202D01*
X207562784Y-104181509D01*
X207375340Y-104335340D01*
X207221509Y-104522784D01*
X207107202Y-104736637D01*
X207036812Y-104968682D01*
X207013044Y-105210000D01*
X188642943Y-105210000D01*
X188653685Y-105201185D01*
X188733037Y-105104494D01*
X188792002Y-104994180D01*
X188828312Y-104874482D01*
X188840572Y-104750000D01*
X188840540Y-104742586D01*
X188842512Y-104744989D01*
X189045564Y-104911629D01*
X189277224Y-105035454D01*
X189528589Y-105111705D01*
X189790000Y-105137452D01*
X190051412Y-105111705D01*
X190302777Y-105035454D01*
X190534437Y-104911629D01*
X190737489Y-104744989D01*
X190904129Y-104541936D01*
X191027954Y-104310276D01*
X191060000Y-104204635D01*
X191092046Y-104310277D01*
X191215871Y-104541937D01*
X191382512Y-104744989D01*
X191585564Y-104911629D01*
X191817224Y-105035454D01*
X192068589Y-105111705D01*
X192330000Y-105137452D01*
X192591412Y-105111705D01*
X192842777Y-105035454D01*
X193074437Y-104911629D01*
X193277489Y-104744989D01*
X193444129Y-104541936D01*
X193567954Y-104310276D01*
X193644205Y-104058911D01*
X193663500Y-103863007D01*
X193663500Y-103636992D01*
X193644205Y-103441088D01*
X193567954Y-103189723D01*
X193444129Y-102958063D01*
X193277489Y-102755011D01*
X193173902Y-102670000D01*
X207013044Y-102670000D01*
X207036812Y-102911318D01*
X207107202Y-103143363D01*
X207221509Y-103357216D01*
X207375340Y-103544660D01*
X207562784Y-103698491D01*
X207776637Y-103812798D01*
X208008682Y-103883188D01*
X208189528Y-103901000D01*
X208810472Y-103901000D01*
X208991318Y-103883188D01*
X209223363Y-103812798D01*
X209437216Y-103698491D01*
X209624660Y-103544660D01*
X209778491Y-103357216D01*
X209892798Y-103143363D01*
X209963188Y-102911318D01*
X209986956Y-102670000D01*
X209963188Y-102428682D01*
X209892798Y-102196637D01*
X209778491Y-101982784D01*
X209624660Y-101795340D01*
X209437216Y-101641509D01*
X209223363Y-101527202D01*
X208991318Y-101456812D01*
X208810472Y-101439000D01*
X208189528Y-101439000D01*
X208008682Y-101456812D01*
X207776637Y-101527202D01*
X207562784Y-101641509D01*
X207375340Y-101795340D01*
X207221509Y-101982784D01*
X207107202Y-102196637D01*
X207036812Y-102428682D01*
X207013044Y-102670000D01*
X193173902Y-102670000D01*
X193074436Y-102588371D01*
X192842776Y-102464546D01*
X192591411Y-102388295D01*
X192330000Y-102362548D01*
X192068588Y-102388295D01*
X191817223Y-102464546D01*
X191585563Y-102588371D01*
X191382511Y-102755011D01*
X191215871Y-102958064D01*
X191092046Y-103189724D01*
X191060000Y-103295365D01*
X191027954Y-103189723D01*
X190904129Y-102958063D01*
X190737489Y-102755011D01*
X190534436Y-102588371D01*
X190302776Y-102464546D01*
X190051411Y-102388295D01*
X189790000Y-102362548D01*
X189528588Y-102388295D01*
X189277223Y-102464546D01*
X189045563Y-102588371D01*
X188842511Y-102755011D01*
X188840540Y-102757413D01*
X188840572Y-102750000D01*
X188828312Y-102625518D01*
X188792002Y-102505820D01*
X188733037Y-102395506D01*
X188653685Y-102298815D01*
X188556994Y-102219463D01*
X188446680Y-102160498D01*
X188326982Y-102124188D01*
X188202500Y-102111928D01*
X187535750Y-102115000D01*
X187377000Y-102273750D01*
X187123000Y-102273750D01*
X186964250Y-102115000D01*
X186297500Y-102111928D01*
X186173018Y-102124188D01*
X186053320Y-102160498D01*
X185943006Y-102219463D01*
X185846315Y-102298815D01*
X185766963Y-102395506D01*
X185707998Y-102505820D01*
X185671688Y-102625518D01*
X185659428Y-102750000D01*
X172858328Y-102750000D01*
X172827929Y-102597177D01*
X172723826Y-102345851D01*
X172572693Y-102119664D01*
X172380336Y-101927307D01*
X172154149Y-101776174D01*
X171902823Y-101672071D01*
X171636017Y-101619000D01*
X171363983Y-101619000D01*
X171097177Y-101672071D01*
X170845851Y-101776174D01*
X170619664Y-101927307D01*
X170427307Y-102119664D01*
X170276174Y-102345851D01*
X170172071Y-102597177D01*
X170119000Y-102863983D01*
X167801000Y-102863983D01*
X167747929Y-102597177D01*
X167643826Y-102345851D01*
X167492693Y-102119664D01*
X167300336Y-101927307D01*
X167074149Y-101776174D01*
X166822823Y-101672071D01*
X166556017Y-101619000D01*
X166283983Y-101619000D01*
X166017177Y-101672071D01*
X165765851Y-101776174D01*
X165539664Y-101927307D01*
X165347307Y-102119664D01*
X165196174Y-102345851D01*
X165092071Y-102597177D01*
X165039000Y-102863983D01*
X155127000Y-102863983D01*
X155127000Y-99064738D01*
X178909000Y-99064738D01*
X178909000Y-99435262D01*
X178981286Y-99798667D01*
X179123080Y-100140987D01*
X179328932Y-100449067D01*
X179590933Y-100711068D01*
X179899013Y-100916920D01*
X180241333Y-101058714D01*
X180604738Y-101131000D01*
X180975262Y-101131000D01*
X181338667Y-101058714D01*
X181680987Y-100916920D01*
X181989067Y-100711068D01*
X182251068Y-100449067D01*
X182456920Y-100140987D01*
X182598714Y-99798667D01*
X182671000Y-99435262D01*
X182671000Y-99064738D01*
X196909000Y-99064738D01*
X196909000Y-99435262D01*
X196981286Y-99798667D01*
X197123080Y-100140987D01*
X197328932Y-100449067D01*
X197590933Y-100711068D01*
X197899013Y-100916920D01*
X198241333Y-101058714D01*
X198604738Y-101131000D01*
X198975262Y-101131000D01*
X199338667Y-101058714D01*
X199680987Y-100916920D01*
X199989067Y-100711068D01*
X200251068Y-100449067D01*
X200456920Y-100140987D01*
X200461470Y-100130000D01*
X207013044Y-100130000D01*
X207036812Y-100371318D01*
X207107202Y-100603363D01*
X207221509Y-100817216D01*
X207375340Y-101004660D01*
X207562784Y-101158491D01*
X207776637Y-101272798D01*
X208008682Y-101343188D01*
X208189528Y-101361000D01*
X208810472Y-101361000D01*
X208991318Y-101343188D01*
X209223363Y-101272798D01*
X209437216Y-101158491D01*
X209624660Y-101004660D01*
X209778491Y-100817216D01*
X209892798Y-100603363D01*
X209963188Y-100371318D01*
X209986956Y-100130000D01*
X209963188Y-99888682D01*
X209892798Y-99656637D01*
X209778491Y-99442784D01*
X209624660Y-99255340D01*
X209437216Y-99101509D01*
X209223363Y-98987202D01*
X208991318Y-98916812D01*
X208810472Y-98899000D01*
X208189528Y-98899000D01*
X208008682Y-98916812D01*
X207776637Y-98987202D01*
X207562784Y-99101509D01*
X207375340Y-99255340D01*
X207221509Y-99442784D01*
X207107202Y-99656637D01*
X207036812Y-99888682D01*
X207013044Y-100130000D01*
X200461470Y-100130000D01*
X200598714Y-99798667D01*
X200671000Y-99435262D01*
X200671000Y-99064738D01*
X200598714Y-98701333D01*
X200456920Y-98359013D01*
X200251068Y-98050933D01*
X199989067Y-97788932D01*
X199680987Y-97583080D01*
X199338667Y-97441286D01*
X198975262Y-97369000D01*
X198604738Y-97369000D01*
X198241333Y-97441286D01*
X197899013Y-97583080D01*
X197590933Y-97788932D01*
X197328932Y-98050933D01*
X197123080Y-98359013D01*
X196981286Y-98701333D01*
X196909000Y-99064738D01*
X182671000Y-99064738D01*
X182598714Y-98701333D01*
X182456920Y-98359013D01*
X182251068Y-98050933D01*
X181989067Y-97788932D01*
X181680987Y-97583080D01*
X181338667Y-97441286D01*
X180975262Y-97369000D01*
X180604738Y-97369000D01*
X180241333Y-97441286D01*
X179899013Y-97583080D01*
X179590933Y-97788932D01*
X179328932Y-98050933D01*
X179123080Y-98359013D01*
X178981286Y-98701333D01*
X178909000Y-99064738D01*
X155127000Y-99064738D01*
X155127000Y-94703400D01*
X167988571Y-94703400D01*
X167988571Y-95296600D01*
X168104299Y-95878401D01*
X168331306Y-96426447D01*
X168660870Y-96919674D01*
X169080326Y-97339130D01*
X169573553Y-97668694D01*
X170121599Y-97895701D01*
X170703400Y-98011429D01*
X171296600Y-98011429D01*
X171878401Y-97895701D01*
X172426447Y-97668694D01*
X172919674Y-97339130D01*
X173339130Y-96919674D01*
X173668694Y-96426447D01*
X173895701Y-95878401D01*
X173989490Y-95406890D01*
X206808524Y-95406890D01*
X206829643Y-95517493D01*
X206948138Y-95785608D01*
X207116663Y-96025454D01*
X207328741Y-96227814D01*
X207576223Y-96384911D01*
X207760067Y-96456059D01*
X207562784Y-96561509D01*
X207375340Y-96715340D01*
X207221509Y-96902784D01*
X207107202Y-97116637D01*
X207036812Y-97348682D01*
X207013044Y-97590000D01*
X207036812Y-97831318D01*
X207107202Y-98063363D01*
X207221509Y-98277216D01*
X207375340Y-98464660D01*
X207562784Y-98618491D01*
X207776637Y-98732798D01*
X208008682Y-98803188D01*
X208189528Y-98821000D01*
X208810472Y-98821000D01*
X208991318Y-98803188D01*
X209223363Y-98732798D01*
X209437216Y-98618491D01*
X209624660Y-98464660D01*
X209778491Y-98277216D01*
X209892798Y-98063363D01*
X209963188Y-97831318D01*
X209986956Y-97590000D01*
X209963188Y-97348682D01*
X209892798Y-97116637D01*
X209778491Y-96902784D01*
X209624660Y-96715340D01*
X209437216Y-96561509D01*
X209239933Y-96456059D01*
X209423777Y-96384911D01*
X209671259Y-96227814D01*
X209883337Y-96025454D01*
X210051862Y-95785608D01*
X210170357Y-95517493D01*
X210191476Y-95406890D01*
X210070155Y-95177000D01*
X208627000Y-95177000D01*
X208627000Y-95197000D01*
X208373000Y-95197000D01*
X208373000Y-95177000D01*
X206929845Y-95177000D01*
X206808524Y-95406890D01*
X173989490Y-95406890D01*
X174011429Y-95296600D01*
X174011429Y-94703400D01*
X174009383Y-94693110D01*
X206808524Y-94693110D01*
X206929845Y-94923000D01*
X208373000Y-94923000D01*
X208373000Y-93718504D01*
X208627000Y-93718504D01*
X208627000Y-94923000D01*
X210070155Y-94923000D01*
X210191476Y-94693110D01*
X210170357Y-94582507D01*
X210051862Y-94314392D01*
X209883337Y-94074546D01*
X209671259Y-93872186D01*
X209423777Y-93715089D01*
X209150402Y-93609292D01*
X208861640Y-93558860D01*
X208627000Y-93718504D01*
X208373000Y-93718504D01*
X208138360Y-93558860D01*
X207849598Y-93609292D01*
X207576223Y-93715089D01*
X207328741Y-93872186D01*
X207116663Y-94074546D01*
X206948138Y-94314392D01*
X206829643Y-94582507D01*
X206808524Y-94693110D01*
X174009383Y-94693110D01*
X173895701Y-94121599D01*
X173668694Y-93573553D01*
X173339130Y-93080326D01*
X172919674Y-92660870D01*
X172426447Y-92331306D01*
X171878401Y-92104299D01*
X171296600Y-91988571D01*
X170703400Y-91988571D01*
X170121599Y-92104299D01*
X169573553Y-92331306D01*
X169080326Y-92660870D01*
X168660870Y-93080326D01*
X168331306Y-93573553D01*
X168104299Y-94121599D01*
X167988571Y-94703400D01*
X155127000Y-94703400D01*
X155127000Y-90406000D01*
X216594000Y-90406000D01*
X216594001Y-145594000D01*
G37*
G04 #@! TD.AperFunction*
M02*
