M48
; DRILL file {KiCad (5.1.10)-1} date 11/25/21 14:07:28
; FORMAT={-:-/ absolute / metric / decimal}
; #@! TF.CreationDate,2021-11-25T14:07:28+01:00
; #@! TF.GenerationSoftware,Kicad,Pcbnew,(5.1.10)-1
; #@! TF.FileFunction,Plated,1,2,PTH
FMAT,2
METRIC
T1C0.400
T2C0.762
T3C0.800
T4C1.000
T5C1.067
T6C1.100
T7C1.200
T8C1.500
T9C2.000
%
G90
G05
T1
X158.0Y-93.0
X158.0Y-143.0
X175.4Y-93.0
X175.4Y-143.0
X194.25Y-111.5
X200.25Y-123.75
X204.2Y-94.1
X204.4Y-129.5
X204.4Y-130.9
X204.4Y-132.3
X204.4Y-133.7
X205.2Y-140.4
X205.4Y-100.1
X205.5Y-103.5
X205.65Y-129.5
X205.65Y-130.9
X205.65Y-132.3
X205.65Y-133.7
X207.25Y-111.5
X207.5Y-134.75
X208.867Y-134.75
X209.5Y-127.25
X210.233Y-134.75
X211.25Y-120.25
X211.6Y-134.75
X211.6Y-140.4
X213.4Y-129.5
X213.4Y-130.9
X213.4Y-132.3
X213.4Y-133.7
X214.0Y-111.0
X214.65Y-129.5
X214.65Y-130.9
X214.65Y-132.3
X214.65Y-133.7
X215.0Y-93.0
X215.2Y-118.6
T2
X205.736Y-143.629
X208.276Y-143.629
X210.816Y-143.629
X213.356Y-143.629
T3
X140.5Y-141.1
X148.0Y-143.0
T4
X140.505Y-94.0
X148.005Y-94.0
X166.25Y-111.79
X166.25Y-115.75
X166.25Y-119.71
X166.25Y-123.67
X166.42Y-103.0
X166.42Y-133.0
X171.5Y-103.0
X171.5Y-133.0
X208.5Y-95.05
X208.5Y-97.59
X208.5Y-100.13
X208.5Y-102.67
X208.5Y-105.21
X208.5Y-107.75
T5
X133.3Y-107.84
X133.3Y-112.92
X133.3Y-123.08
X133.3Y-128.16
X158.7Y-107.84
X158.7Y-112.92
X158.7Y-123.08
X158.7Y-128.16
T6
X187.17Y-132.25
X187.25Y-103.75
X189.71Y-132.25
X189.79Y-103.75
X192.25Y-132.25
X192.33Y-103.75
T7
X182.25Y-117.75
X187.25Y-117.75
X199.0Y-117.75
X204.0Y-117.75
T8
X180.71Y-136.75
X180.79Y-99.25
X198.71Y-136.75
X198.79Y-99.25
T9
X125.5Y-106.5
X125.5Y-112.88
X125.5Y-123.0
X125.5Y-129.38
T0
M30
